<?xml version="1.0" encoding="UTF-8"?>
<svg width="60px" height="58px" viewBox="0 0 60 58" version="1.1" xmlns="http://www.w3.org/2000/svg" xmlns:xlink="http://www.w3.org/1999/xlink">
    <!-- Generator: Sketch 48.2 (47327) - http://www.bohemiancoding.com/sketch -->
    <title>ic_volcano_label_1</title>
    <desc>Created with Sketch.</desc>
    <defs>
        <polygon id="path-1" points="7.62968209e-05 0.0820178694 33.4861189 0.0820178694 33.4861189 22.7079038 7.62968209e-05 22.7079038"></polygon>
        <polygon id="path-3" points="0.0333598711 0.052173913 12.9893383 0.052173913 12.9893383 14.9285217 0.0333598711 14.9285217"></polygon>
        <rect id="path-5" x="0" y="0" width="52" height="14" rx="7"></rect>
        <filter x="-12.5%" y="-39.3%" width="125.0%" height="192.9%" filterUnits="objectBoundingBox" id="filter-6">
            <feOffset dx="0" dy="1" in="SourceAlpha" result="shadowOffsetOuter1"></feOffset>
            <feGaussianBlur stdDeviation="2" in="shadowOffsetOuter1" result="shadowBlurOuter1"></feGaussianBlur>
            <feColorMatrix values="0 0 0 0 0   0 0 0 0 0   0 0 0 0 0  0 0 0 0.5 0" type="matrix" in="shadowBlurOuter1"></feColorMatrix>
        </filter>
    </defs>
    <g id="Web" stroke="none" stroke-width="1" fill="none" fill-rule="evenodd">
        <g id="ic_volcano_label_1" transform="translate(3.000000, 0.000000)">
            <g id="Page-1-Copy-2" transform="translate(10.000000, 0.000000)">
                <g id="Group-3" transform="translate(0.000000, 17.003849)">
                    <mask id="mask-2" fill="white">
                        <use xlink:href="#path-1"></use>
                    </mask>
                    <g id="Clip-2"></g>
                    <path d="M33.4237819,21.9839835 C30.984388,17.6533168 28.544605,13.3226502 26.1052111,8.99159863 C24.4767435,6.10115189 22.848665,3.21070515 21.2201974,0.320258419 C21.1373149,0.173234364 20.9688259,0.0820178694 20.8003369,0.0820178694 L12.6860155,0.0820178694 C12.5171374,0.0820178694 12.3490375,0.173234364 12.2657658,0.320258419 C8.19829346,7.54137182 4.13043199,14.7628701 0.0625705113,21.9839835 C-0.116035612,22.3007395 0.108097562,22.7079423 0.482431094,22.7079423 L33.0039213,22.7079423 C33.3782548,22.7079423 33.602388,22.3007395 33.4237819,21.9839835" id="Fill-1" fill="#FF6D00" mask="url(#mask-2)"></path>
                </g>
                <path d="M23.070697,22.7405966 C22.2998501,21.3723491 21.5290032,20.0041017 20.7581562,18.6354694 C20.5923911,18.3414213 20.2554131,18.1589883 19.9184351,18.1589883 L13.5679951,18.1589883 C13.230628,18.1589883 12.89365,18.3414213 12.7278848,18.6354694 C11.6737585,20.5075244 10.619243,22.3791945 9.56511671,24.2504797 C9.36861106,24.5991808 9.41141427,24.9347959 9.57717943,25.1957443 C9.73555131,25.5706172 10.0982112,25.827332 10.5885026,25.6837718 C10.6970671,25.6699162 10.8021295,25.6341223 10.900966,25.5760055 C11.7578084,25.2588646 12.6142618,24.9421086 13.4707151,24.6249677 C13.6559363,24.5564591 13.8427139,24.4714007 14.0329936,24.4155931 C14.5680338,24.5291326 15.0754464,24.8135588 15.6124321,24.9163216 C16.9685156,25.1761155 18.2942478,23.7739986 19.3818385,22.8541361 C20.1678611,23.2551808 20.9538837,23.6562254 21.7399062,24.0572701 C22.5948031,24.4933388 23.5582644,23.6061911 23.070697,22.7405966" id="Fill-4" fill="#FFFFFF"></path>
                <g id="Group-8" transform="translate(10.000000, 0.000000)">
                    <mask id="mask-4" fill="white">
                        <use xlink:href="#path-3"></use>
                    </mask>
                    <g id="Clip-7"></g>
                    <path d="M12.2268683,4.77156522 C12.4600017,2.66591304 10.6406517,0.975913043 8.573435,1.52156522 C6.23516833,-1.35930435 1.35496833,0.257 1.576835,4.10243478 C-0.983298333,5.517 -0.214131667,9.54417391 2.81855167,9.61656522 C3.54156833,11.2974348 4.26436833,12.9783043 4.987385,14.6593913 C5.06040167,14.8289565 5.28226833,14.9285217 5.45516833,14.9285217 L7.55705167,14.9285217 C7.729735,14.9285217 7.95181833,14.8289565 8.024835,14.6593913 L9.799985,10.5317826 C12.6818683,10.4104783 13.9077683,6.95569565 12.2268683,4.77156522" id="Fill-6" fill="#FF6D00" mask="url(#mask-4)"></path>
                </g>
                <path d="M19.3677971,2.646451 C20.271782,2.68472653 20.8916113,3.67835055 20.6499981,4.75578479 C20.5735292,5.09740492 21.0063147,5.24324789 21.0827836,4.90184774 C21.4031992,3.47223461 20.5611434,2.14710929 19.3677971,2.09651519 C19.0789743,2.08419663 19.0793333,2.63413244 19.3677971,2.646451" id="Fill-9" fill="#FFFFFF" transform="translate(20.151315, 3.596311) rotate(-6.000000) translate(-20.151315, -3.596311) "></path>
            </g>
            <g id="Group-Copy-3" transform="translate(1.000000, 39.000000)">
                <g id="Rectangle-2-Copy-4">
                    <use fill="black" fill-opacity="1" filter="url(#filter-6)" xlink:href="#path-5"></use>
                    <use fill="#263238" fill-rule="evenodd" xlink:href="#path-5"></use>
                </g>
            </g>
            <path d="M16.4707031,49 L16.4707031,43.2890625 L17.1347656,43.2890625 L17.1347656,49 L16.4707031,49 Z M19.3652344,46.625 L19.3652344,49 L18.7011719,49 L18.7011719,43.2890625 L20.2675781,43.2890625 C20.9681025,43.2890625 21.4856754,43.4231757 21.8203125,43.6914062 C22.1549496,43.9596368 22.3222656,44.3632786 22.3222656,44.9023438 C22.3222656,45.6575559 21.939457,46.1679674 21.1738281,46.4335938 L22.7246094,49 L21.9394531,49 L20.5566406,46.625 L19.3652344,46.625 Z M19.3652344,46.0546875 L20.2753906,46.0546875 C20.744143,46.0546875 21.0878895,45.9615895 21.3066406,45.7753906 C21.5253917,45.5891918 21.6347656,45.3098977 21.6347656,44.9375 C21.6347656,44.5598939 21.5234386,44.2877613 21.3007812,44.1210938 C21.0781239,43.9544262 20.7207056,43.8710938 20.2285156,43.8710938 L19.3652344,43.8710938 L19.3652344,46.0546875 Z M27.2363281,49 L26.5253906,47.1835938 L24.2363281,47.1835938 L23.5332031,49 L22.8613281,49 L25.1191406,43.265625 L25.6777344,43.265625 L27.9238281,49 L27.2363281,49 Z M26.3183594,46.5859375 L25.6542969,44.8164062 C25.5683589,44.5924468 25.4798182,44.31771 25.3886719,43.9921875 C25.3313799,44.2421887 25.2493495,44.5169256 25.1425781,44.8164062 L24.4707031,46.5859375 L26.3183594,46.5859375 Z M32.1699219,49 L28.2441406,49 L28.2441406,48.4804688 L31.2753906,43.8867188 L28.3378906,43.8867188 L28.3378906,43.2890625 L32.0839844,43.2890625 L32.0839844,43.8085938 L29.0527344,48.3984375 L32.1699219,48.3984375 L32.1699219,49 Z M37.5878906,43.2890625 L37.5878906,46.984375 C37.5878906,47.6354199 37.391278,48.1471336 36.9980469,48.5195312 C36.6048157,48.8919289 36.0644566,49.078125 35.3769531,49.078125 C34.6894497,49.078125 34.157554,48.8906269 33.78125,48.515625 C33.404946,48.1406231 33.2167969,47.6250033 33.2167969,46.96875 L33.2167969,43.2890625 L33.8808594,43.2890625 L33.8808594,47.015625 C33.8808594,47.4921899 34.0110664,47.8580716 34.2714844,48.1132812 C34.5319023,48.3684909 34.914711,48.4960938 35.4199219,48.4960938 C35.9016951,48.4960938 36.2727852,48.3678398 36.5332031,48.1113281 C36.7936211,47.8548164 36.9238281,47.4869816 36.9238281,47.0078125 L36.9238281,43.2890625 L37.5878906,43.2890625 Z M34.8339844,42.734375 C34.958985,42.5729159 35.0937493,42.3776053 35.2382812,42.1484375 C35.3828132,41.9192697 35.4967444,41.7200529 35.5800781,41.5507812 L36.3691406,41.5507812 L36.3691406,41.6328125 C36.2545567,41.8020842 36.0839855,42.0104154 35.8574219,42.2578125 C35.6308582,42.5052096 35.4342456,42.6966139 35.2675781,42.8320312 L34.8339844,42.8320312 L34.8339844,42.734375 Z" id="IRAZÚ" fill="#FFFFFF"></path>
        </g>
    </g>
</svg>