<?xml version="1.0" encoding="UTF-8"?>
<svg width="103px" height="58px" viewBox="0 0 103 58" version="1.1" xmlns="http://www.w3.org/2000/svg" xmlns:xlink="http://www.w3.org/1999/xlink">
    <!-- Generator: Sketch 48.2 (47327) - http://www.bohemiancoding.com/sketch -->
    <title>ic_volcano_label copy 16</title>
    <desc>Created with Sketch.</desc>
    <defs>
        <polygon id="path-1" points="7.62968209e-05 0.0820178694 33.4861189 0.0820178694 33.4861189 22.7079038 7.62968209e-05 22.7079038"></polygon>
        <polygon id="path-3" points="0.0333598711 0.052173913 12.9893383 0.052173913 12.9893383 14.9285217 0.0333598711 14.9285217"></polygon>
        <rect id="path-5" x="0" y="0" width="95" height="14" rx="7"></rect>
        <filter x="-6.8%" y="-39.3%" width="113.7%" height="192.9%" filterUnits="objectBoundingBox" id="filter-6">
            <feOffset dx="0" dy="1" in="SourceAlpha" result="shadowOffsetOuter1"></feOffset>
            <feGaussianBlur stdDeviation="2" in="shadowOffsetOuter1" result="shadowBlurOuter1"></feGaussianBlur>
            <feColorMatrix values="0 0 0 0 0   0 0 0 0 0   0 0 0 0 0  0 0 0 0.5 0" type="matrix" in="shadowBlurOuter1"></feColorMatrix>
        </filter>
    </defs>
    <g id="Web" stroke="none" stroke-width="1" fill="none" fill-rule="evenodd">
        <g id="ic_volcano_label-copy-16" transform="translate(4.000000, 0.000000)">
            <g id="Page-1-Copy-2" transform="translate(31.000000, 0.000000)">
                <g id="Group-3" transform="translate(0.000000, 17.003849)">
                    <mask id="mask-2" fill="white">
                        <use xlink:href="#path-1"></use>
                    </mask>
                    <g id="Clip-2"></g>
                    <path d="M33.4237819,21.9839835 C30.984388,17.6533168 28.544605,13.3226502 26.1052111,8.99159863 C24.4767435,6.10115189 22.848665,3.21070515 21.2201974,0.320258419 C21.1373149,0.173234364 20.9688259,0.0820178694 20.8003369,0.0820178694 L12.6860155,0.0820178694 C12.5171374,0.0820178694 12.3490375,0.173234364 12.2657658,0.320258419 C8.19829346,7.54137182 4.13043199,14.7628701 0.0625705113,21.9839835 C-0.116035612,22.3007395 0.108097562,22.7079423 0.482431094,22.7079423 L33.0039213,22.7079423 C33.3782548,22.7079423 33.602388,22.3007395 33.4237819,21.9839835" id="Fill-1" fill="#FF6D00" mask="url(#mask-2)"></path>
                </g>
                <path d="M23.070697,22.7405966 C22.2998501,21.3723491 21.5290032,20.0041017 20.7581562,18.6354694 C20.5923911,18.3414213 20.2554131,18.1589883 19.9184351,18.1589883 L13.5679951,18.1589883 C13.230628,18.1589883 12.89365,18.3414213 12.7278848,18.6354694 C11.6737585,20.5075244 10.619243,22.3791945 9.56511671,24.2504797 C9.36861106,24.5991808 9.41141427,24.9347959 9.57717943,25.1957443 C9.73555131,25.5706172 10.0982112,25.827332 10.5885026,25.6837718 C10.6970671,25.6699162 10.8021295,25.6341223 10.900966,25.5760055 C11.7578084,25.2588646 12.6142618,24.9421086 13.4707151,24.6249677 C13.6559363,24.5564591 13.8427139,24.4714007 14.0329936,24.4155931 C14.5680338,24.5291326 15.0754464,24.8135588 15.6124321,24.9163216 C16.9685156,25.1761155 18.2942478,23.7739986 19.3818385,22.8541361 C20.1678611,23.2551808 20.9538837,23.6562254 21.7399062,24.0572701 C22.5948031,24.4933388 23.5582644,23.6061911 23.070697,22.7405966" id="Fill-4" fill="#FFFFFF"></path>
                <g id="Group-8" transform="translate(10.000000, 0.000000)">
                    <mask id="mask-4" fill="white">
                        <use xlink:href="#path-3"></use>
                    </mask>
                    <g id="Clip-7"></g>
                    <path d="M12.2268683,4.77156522 C12.4600017,2.66591304 10.6406517,0.975913043 8.573435,1.52156522 C6.23516833,-1.35930435 1.35496833,0.257 1.576835,4.10243478 C-0.983298333,5.517 -0.214131667,9.54417391 2.81855167,9.61656522 C3.54156833,11.2974348 4.26436833,12.9783043 4.987385,14.6593913 C5.06040167,14.8289565 5.28226833,14.9285217 5.45516833,14.9285217 L7.55705167,14.9285217 C7.729735,14.9285217 7.95181833,14.8289565 8.024835,14.6593913 L9.799985,10.5317826 C12.6818683,10.4104783 13.9077683,6.95569565 12.2268683,4.77156522" id="Fill-6" fill="#FF6D00" mask="url(#mask-4)"></path>
                </g>
                <path d="M19.3677971,2.646451 C20.271782,2.68472653 20.8916113,3.67835055 20.6499981,4.75578479 C20.5735292,5.09740492 21.0063147,5.24324789 21.0827836,4.90184774 C21.4031992,3.47223461 20.5611434,2.14710929 19.3677971,2.09651519 C19.0789743,2.08419663 19.0793333,2.63413244 19.3677971,2.646451" id="Fill-9" fill="#FFFFFF" transform="translate(20.151315, 3.596311) rotate(-6.000000) translate(-20.151315, -3.596311) "></path>
            </g>
            <g id="Group-Copy-3" transform="translate(0.000000, 39.000000)">
                <g id="Rectangle-2-Copy-4">
                    <use fill="black" fill-opacity="1" filter="url(#filter-6)" xlink:href="#path-5"></use>
                    <use fill="#263238" fill-rule="evenodd" xlink:href="#path-5"></use>
                </g>
            </g>
            <path d="M6,49.4492188 L6,43.7382812 L7.2109375,43.7382812 L7.2109375,48.4492188 L9.52734375,48.4492188 L9.52734375,49.4492188 L6,49.4492188 Z M14.015625,49.4492188 L13.6015625,48.0898438 L11.5195312,48.0898438 L11.1054688,49.4492188 L9.80078125,49.4492188 L11.8164062,43.7148438 L13.296875,43.7148438 L15.3203125,49.4492188 L14.015625,49.4492188 Z M13.3125,47.0742188 C12.9296856,45.8424418 12.7141929,45.1458341 12.6660156,44.984375 C12.6178383,44.8229159 12.5833334,44.695313 12.5625,44.6015625 C12.4765621,44.9348975 12.2304708,45.759108 11.8242188,47.0742188 L13.3125,47.0742188 Z M18.046875,46.2421875 L20.3125,46.2421875 L20.3125,49.203125 C19.9453107,49.3229173 19.599611,49.4069008 19.2753906,49.4550781 C18.9511703,49.5032554 18.6197934,49.5273438 18.28125,49.5273438 C17.4192665,49.5273438 16.76107,49.2740911 16.3066406,48.7675781 C15.8522113,48.2610652 15.625,47.5338589 15.625,46.5859375 C15.625,45.6640579 15.8886692,44.9453151 16.4160156,44.4296875 C16.943362,43.9140599 17.6744745,43.65625 18.609375,43.65625 C19.1953154,43.65625 19.7604139,43.7734363 20.3046875,44.0078125 L19.9023438,44.9765625 C19.485675,44.7682281 19.0520856,44.6640625 18.6015625,44.6640625 C18.0781224,44.6640625 17.6588557,44.839842 17.34375,45.1914062 C17.0286443,45.5429705 16.8710938,46.015622 16.8710938,46.609375 C16.8710938,47.2291698 16.9980456,47.7024723 17.2519531,48.0292969 C17.5058606,48.3561214 17.8749976,48.5195312 18.359375,48.5195312 C18.6119804,48.5195312 18.8684883,48.4934898 19.1289062,48.4414062 L19.1289062,47.25 L18.046875,47.25 L18.046875,46.2421875 Z M26.3203125,43.7382812 L26.3203125,47.4335938 C26.3203125,47.8554709 26.2259124,48.2252588 26.0371094,48.5429688 C25.8483063,48.8606787 25.5755226,49.1041658 25.21875,49.2734375 C24.8619774,49.4427092 24.4401066,49.5273438 23.953125,49.5273438 C23.2187463,49.5273438 22.6484395,49.3391946 22.2421875,48.9628906 C21.8359355,48.5865867 21.6328125,48.0716179 21.6328125,47.4179688 L21.6328125,43.7382812 L22.8398438,43.7382812 L22.8398438,47.234375 C22.8398438,47.6744814 22.9283845,47.9973948 23.1054688,48.203125 C23.282553,48.4088552 23.5755188,48.5117188 23.984375,48.5117188 C24.3802103,48.5117188 24.6673168,48.4082042 24.8457031,48.2011719 C25.0240894,47.9941396 25.1132812,47.669273 25.1132812,47.2265625 L25.1132812,43.7382812 L26.3203125,43.7382812 Z M32.7851562,49.4492188 L31.2460938,49.4492188 L28.7617188,45.1289062 L28.7265625,45.1289062 C28.7760419,45.8919309 28.8007813,46.4361963 28.8007813,46.7617188 L28.8007813,49.4492188 L27.71875,49.4492188 L27.71875,43.7382812 L29.2460938,43.7382812 L31.7265625,48.015625 L31.7539063,48.015625 C31.7148436,47.2734338 31.6953125,46.7486995 31.6953125,46.4414062 L31.6953125,43.7382812 L32.7851562,43.7382812 L32.7851562,49.4492188 Z M37.71875,49.4492188 L37.3046875,48.0898438 L35.2226562,48.0898438 L34.8085938,49.4492188 L33.5039062,49.4492188 L35.5195312,43.7148438 L37,43.7148438 L39.0234375,49.4492188 L37.71875,49.4492188 Z M37.015625,47.0742188 C36.6328106,45.8424418 36.4173179,45.1458341 36.3691406,44.984375 C36.3209633,44.8229159 36.2864584,44.695313 36.265625,44.6015625 C36.1796871,44.9348975 35.9335958,45.759108 35.5273438,47.0742188 L37.015625,47.0742188 Z M43.03125,46.2734375 L43.421875,46.2734375 C43.8046894,46.2734375 44.0872387,46.2096361 44.2695312,46.0820312 C44.4518238,45.9544264 44.5429688,45.7539076 44.5429688,45.4804688 C44.5429688,45.2096341 44.4498707,45.0169277 44.2636719,44.9023438 C44.077473,44.7877598 43.7890645,44.7304688 43.3984375,44.7304688 L43.03125,44.7304688 L43.03125,46.2734375 Z M43.03125,47.2578125 L43.03125,49.4492188 L41.8203125,49.4492188 L41.8203125,43.7382812 L43.484375,43.7382812 C44.2604205,43.7382812 44.8346336,43.8795559 45.2070312,44.1621094 C45.5794289,44.4446629 45.765625,44.873695 45.765625,45.4492188 C45.765625,45.7851579 45.673178,46.0839831 45.4882812,46.3457031 C45.3033845,46.6074232 45.0416684,46.8124993 44.703125,46.9609375 C45.5625043,48.2447981 46.1223945,49.0742169 46.3828125,49.4492188 L45.0390625,49.4492188 L43.6757812,47.2578125 L43.03125,47.2578125 Z M47.1015625,49.4492188 L47.1015625,43.7382812 L48.3125,43.7382812 L48.3125,49.4492188 L47.1015625,49.4492188 Z M47.0351562,43.28125 L47.0351562,43.1757812 C47.4830752,42.6549453 47.7890617,42.2630221 47.953125,42 L49.2890625,42 L49.2890625,42.0820312 C49.1536452,42.2174486 48.9225277,42.4186185 48.5957031,42.6855469 C48.2688786,42.9524753 48.0130218,43.151041 47.828125,43.28125 L47.0351562,43.28125 Z M54.9335938,46.5859375 C54.9335938,47.5312547 54.6992211,48.25781 54.2304688,48.765625 C53.7617164,49.27344 53.0898481,49.5273438 52.2148438,49.5273438 C51.3398394,49.5273438 50.6679711,49.27344 50.1992188,48.765625 C49.7304664,48.25781 49.4960938,47.5286506 49.4960938,46.578125 C49.4960938,45.6275994 49.7311174,44.9016952 50.2011719,44.4003906 C50.6712263,43.899086 51.3450477,43.6484375 52.2226562,43.6484375 C53.1002648,43.6484375 53.7714821,43.9010391 54.2363281,44.40625 C54.7011742,44.9114609 54.9335938,45.6380161 54.9335938,46.5859375 Z M50.765625,46.5859375 C50.765625,47.2239615 50.8867175,47.7044255 51.1289063,48.0273438 C51.371095,48.350262 51.7330705,48.5117188 52.2148438,48.5117188 C53.1809944,48.5117188 53.6640625,47.8697981 53.6640625,46.5859375 C53.6640625,45.2994727 53.1835986,44.65625 52.2226563,44.65625 C51.740883,44.65625 51.3776054,44.8183578 51.1328125,45.1425781 C50.8880196,45.4667985 50.765625,45.9479135 50.765625,46.5859375 Z M60.6210938,44.6640625 C60.1653623,44.6640625 59.8125012,44.8352847 59.5625,45.1777344 C59.3124988,45.520184 59.1875,45.9973928 59.1875,46.609375 C59.1875,47.8828189 59.6653598,48.5195312 60.6210938,48.5195312 C61.0221374,48.5195312 61.5078096,48.4192718 62.078125,48.21875 L62.078125,49.234375 C61.6093727,49.4296885 61.0859404,49.5273438 60.5078125,49.5273438 C59.6770792,49.5273438 59.0416689,49.2753931 58.6015625,48.7714844 C58.1614561,48.2675756 57.9414062,47.5442755 57.9414062,46.6015625 C57.9414062,46.0078095 58.0494781,45.4876324 58.265625,45.0410156 C58.4817719,44.5943988 58.7923157,44.2519543 59.1972656,44.0136719 C59.6022156,43.7753894 60.0768202,43.65625 60.6210938,43.65625 C61.175784,43.65625 61.7330701,43.7903632 62.2929688,44.0585938 L61.9023438,45.0429688 C61.688801,44.9414057 61.4739594,44.852865 61.2578125,44.7773438 C61.0416656,44.7018225 60.8294281,44.6640625 60.6210938,44.6640625 Z M67.9414062,43.7382812 L67.9414062,47.4335938 C67.9414062,47.8554709 67.8470062,48.2252588 67.6582031,48.5429688 C67.4694001,48.8606787 67.1966164,49.1041658 66.8398438,49.2734375 C66.4830711,49.4427092 66.0612004,49.5273438 65.5742188,49.5273438 C64.8398401,49.5273438 64.2695333,49.3391946 63.8632812,48.9628906 C63.4570292,48.5865867 63.2539062,48.0716179 63.2539062,47.4179688 L63.2539062,43.7382812 L64.4609375,43.7382812 L64.4609375,47.234375 C64.4609375,47.6744814 64.5494783,47.9973948 64.7265625,48.203125 C64.9036467,48.4088552 65.1966125,48.5117188 65.6054688,48.5117188 C66.0013041,48.5117188 66.2884106,48.4082042 66.4667969,48.2011719 C66.6451832,47.9941396 66.734375,47.669273 66.734375,47.2265625 L66.734375,43.7382812 L67.9414062,43.7382812 Z M72.7578125,49.4492188 L72.34375,48.0898438 L70.2617188,48.0898438 L69.8476562,49.4492188 L68.5429688,49.4492188 L70.5585938,43.7148438 L72.0390625,43.7148438 L74.0625,49.4492188 L72.7578125,49.4492188 Z M72.0546875,47.0742188 C71.6718731,45.8424418 71.4563804,45.1458341 71.4082031,44.984375 C71.3600258,44.8229159 71.3255209,44.695313 71.3046875,44.6015625 C71.2187496,44.9348975 70.9726583,45.759108 70.5664062,47.0742188 L72.0546875,47.0742188 Z M75.9921875,46.2734375 L76.3828125,46.2734375 C76.7656269,46.2734375 77.0481762,46.2096361 77.2304688,46.0820312 C77.4127613,45.9544264 77.5039062,45.7539076 77.5039062,45.4804688 C77.5039062,45.2096341 77.4108082,45.0169277 77.2246094,44.9023438 C77.0384105,44.7877598 76.750002,44.7304688 76.359375,44.7304688 L75.9921875,44.7304688 L75.9921875,46.2734375 Z M75.9921875,47.2578125 L75.9921875,49.4492188 L74.78125,49.4492188 L74.78125,43.7382812 L76.4453125,43.7382812 C77.221358,43.7382812 77.7955711,43.8795559 78.1679688,44.1621094 C78.5403664,44.4446629 78.7265625,44.873695 78.7265625,45.4492188 C78.7265625,45.7851579 78.6341155,46.0839831 78.4492188,46.3457031 C78.264322,46.6074232 78.0026059,46.8124993 77.6640625,46.9609375 C78.5234418,48.2447981 79.083332,49.0742169 79.34375,49.4492188 L78,49.4492188 L76.6367188,47.2578125 L75.9921875,47.2578125 Z M82.265625,49.4492188 L81.0546875,49.4492188 L81.0546875,44.7460938 L79.5039062,44.7460938 L79.5039062,43.7382812 L83.8164062,43.7382812 L83.8164062,44.7460938 L82.265625,44.7460938 L82.265625,49.4492188 Z M89.71875,46.5859375 C89.71875,47.5312547 89.4843773,48.25781 89.015625,48.765625 C88.5468727,49.27344 87.8750044,49.5273438 87,49.5273438 C86.1249956,49.5273438 85.4531273,49.27344 84.984375,48.765625 C84.5156227,48.25781 84.28125,47.5286506 84.28125,46.578125 C84.28125,45.6275994 84.5162737,44.9016952 84.9863281,44.4003906 C85.4563826,43.899086 86.1302039,43.6484375 87.0078125,43.6484375 C87.8854211,43.6484375 88.5566383,43.9010391 89.0214844,44.40625 C89.4863304,44.9114609 89.71875,45.6380161 89.71875,46.5859375 Z M85.5507812,46.5859375 C85.5507812,47.2239615 85.6718738,47.7044255 85.9140625,48.0273438 C86.1562512,48.350262 86.5182268,48.5117188 87,48.5117188 C87.9661507,48.5117188 88.4492188,47.8697981 88.4492188,46.5859375 C88.4492188,45.2994727 87.9687548,44.65625 87.0078125,44.65625 C86.5260393,44.65625 86.1627616,44.8183578 85.9179688,45.1425781 C85.6731759,45.4667985 85.5507812,45.9479135 85.5507812,46.5859375 Z" id="LAGUNA-RÃO-CUARTO" fill="#FFFFFF"></path>
        </g>
    </g>
</svg>