<?xml version="1.0" encoding="UTF-8"?>
<svg width="78px" height="58px" viewBox="0 0 78 58" version="1.1" xmlns="http://www.w3.org/2000/svg" xmlns:xlink="http://www.w3.org/1999/xlink">
    <!-- Generator: Sketch 48.2 (47327) - http://www.bohemiancoding.com/sketch -->
    <title>ic_volcano_label_2</title>
    <desc>Created with Sketch.</desc>
    <defs>
        <polygon id="path-1" points="7.62968209e-05 0.0820178694 33.4861189 0.0820178694 33.4861189 22.7079038 7.62968209e-05 22.7079038"></polygon>
        <polygon id="path-3" points="0.0333598711 0.052173913 12.9893383 0.052173913 12.9893383 14.9285217 0.0333598711 14.9285217"></polygon>
        <rect id="path-5" x="0" y="0" width="70" height="14" rx="7"></rect>
        <filter x="-9.3%" y="-39.3%" width="118.6%" height="192.9%" filterUnits="objectBoundingBox" id="filter-6">
            <feOffset dx="0" dy="1" in="SourceAlpha" result="shadowOffsetOuter1"></feOffset>
            <feGaussianBlur stdDeviation="2" in="shadowOffsetOuter1" result="shadowBlurOuter1"></feGaussianBlur>
            <feColorMatrix values="0 0 0 0 0   0 0 0 0 0   0 0 0 0 0  0 0 0 0.5 0" type="matrix" in="shadowBlurOuter1"></feColorMatrix>
        </filter>
    </defs>
    <g id="Web" stroke="none" stroke-width="1" fill="none" fill-rule="evenodd">
        <g id="ic_volcano_label_2" transform="translate(2.000000, 0.000000)">
            <g id="Page-1-Copy-2" transform="translate(20.000000, 0.000000)">
                <g id="Group-3" transform="translate(0.000000, 17.003849)">
                    <mask id="mask-2" fill="white">
                        <use xlink:href="#path-1"></use>
                    </mask>
                    <g id="Clip-2"></g>
                    <path d="M33.4237819,21.9839835 C30.984388,17.6533168 28.544605,13.3226502 26.1052111,8.99159863 C24.4767435,6.10115189 22.848665,3.21070515 21.2201974,0.320258419 C21.1373149,0.173234364 20.9688259,0.0820178694 20.8003369,0.0820178694 L12.6860155,0.0820178694 C12.5171374,0.0820178694 12.3490375,0.173234364 12.2657658,0.320258419 C8.19829346,7.54137182 4.13043199,14.7628701 0.0625705113,21.9839835 C-0.116035612,22.3007395 0.108097562,22.7079423 0.482431094,22.7079423 L33.0039213,22.7079423 C33.3782548,22.7079423 33.602388,22.3007395 33.4237819,21.9839835" id="Fill-1" fill="#FF6D00" mask="url(#mask-2)"></path>
                </g>
                <path d="M23.070697,22.7405966 C22.2998501,21.3723491 21.5290032,20.0041017 20.7581562,18.6354694 C20.5923911,18.3414213 20.2554131,18.1589883 19.9184351,18.1589883 L13.5679951,18.1589883 C13.230628,18.1589883 12.89365,18.3414213 12.7278848,18.6354694 C11.6737585,20.5075244 10.619243,22.3791945 9.56511671,24.2504797 C9.36861106,24.5991808 9.41141427,24.9347959 9.57717943,25.1957443 C9.73555131,25.5706172 10.0982112,25.827332 10.5885026,25.6837718 C10.6970671,25.6699162 10.8021295,25.6341223 10.900966,25.5760055 C11.7578084,25.2588646 12.6142618,24.9421086 13.4707151,24.6249677 C13.6559363,24.5564591 13.8427139,24.4714007 14.0329936,24.4155931 C14.5680338,24.5291326 15.0754464,24.8135588 15.6124321,24.9163216 C16.9685156,25.1761155 18.2942478,23.7739986 19.3818385,22.8541361 C20.1678611,23.2551808 20.9538837,23.6562254 21.7399062,24.0572701 C22.5948031,24.4933388 23.5582644,23.6061911 23.070697,22.7405966" id="Fill-4" fill="#FFFFFF"></path>
                <g id="Group-8" transform="translate(10.000000, 0.000000)">
                    <mask id="mask-4" fill="white">
                        <use xlink:href="#path-3"></use>
                    </mask>
                    <g id="Clip-7"></g>
                    <path d="M12.2268683,4.77156522 C12.4600017,2.66591304 10.6406517,0.975913043 8.573435,1.52156522 C6.23516833,-1.35930435 1.35496833,0.257 1.576835,4.10243478 C-0.983298333,5.517 -0.214131667,9.54417391 2.81855167,9.61656522 C3.54156833,11.2974348 4.26436833,12.9783043 4.987385,14.6593913 C5.06040167,14.8289565 5.28226833,14.9285217 5.45516833,14.9285217 L7.55705167,14.9285217 C7.729735,14.9285217 7.95181833,14.8289565 8.024835,14.6593913 L9.799985,10.5317826 C12.6818683,10.4104783 13.9077683,6.95569565 12.2268683,4.77156522" id="Fill-6" fill="#FF6D00" mask="url(#mask-4)"></path>
                </g>
                <path d="M19.3677971,2.646451 C20.271782,2.68472653 20.8916113,3.67835055 20.6499981,4.75578479 C20.5735292,5.09740492 21.0063147,5.24324789 21.0827836,4.90184774 C21.4031992,3.47223461 20.5611434,2.14710929 19.3677971,2.09651519 C19.0789743,2.08419663 19.0793333,2.63413244 19.3677971,2.646451" id="Fill-9" fill="#FFFFFF" transform="translate(20.151315, 3.596311) rotate(-6.000000) translate(-20.151315, -3.596311) "></path>
            </g>
            <g id="Group-Copy-3" transform="translate(2.000000, 39.000000)">
                <g id="Rectangle-2-Copy-4">
                    <use fill="black" fill-opacity="1" filter="url(#filter-6)" xlink:href="#path-5"></use>
                    <use fill="#263238" fill-rule="evenodd" xlink:href="#path-5"></use>
                </g>
            </g>
            <path d="M10.6113281,43.8007812 C9.98372082,43.8007812 9.48828307,44.0097635 9.125,44.4277344 C8.76171693,44.8457052 8.58007812,45.4179651 8.58007812,46.1445312 C8.58007812,46.8919308 8.75520658,47.469399 9.10546875,47.8769531 C9.45573092,48.2845072 9.95507488,48.4882812 10.6035156,48.4882812 C11.0019551,48.4882812 11.4563777,48.4166674 11.9667969,48.2734375 L11.9667969,48.8554688 C11.5709616,49.003907 11.0826852,49.078125 10.5019531,49.078125 C9.66080309,49.078125 9.01172104,48.8229192 8.5546875,48.3125 C8.09765396,47.8020808 7.86914062,47.0768276 7.86914062,46.1367188 C7.86914062,45.5481741 7.97916557,45.0325543 8.19921875,44.5898438 C8.41927193,44.1471332 8.73697709,43.8059908 9.15234375,43.5664062 C9.56771041,43.3268217 10.0566378,43.2070312 10.6191406,43.2070312 C11.218102,43.2070312 11.7415342,43.3164052 12.1894531,43.5351562 L11.9082031,44.1054688 C11.4759093,43.9023427 11.043622,43.8007812 10.6113281,43.8007812 Z M16.3964844,49 L13.2128906,49 L13.2128906,43.2890625 L16.3964844,43.2890625 L16.3964844,43.8789062 L13.8769531,43.8789062 L13.8769531,45.71875 L16.2441406,45.71875 L16.2441406,46.3046875 L13.8769531,46.3046875 L13.8769531,48.40625 L16.3964844,48.40625 L16.3964844,49 Z M18.3261719,46.625 L18.3261719,49 L17.6621094,49 L17.6621094,43.2890625 L19.2285156,43.2890625 C19.92904,43.2890625 20.4466129,43.4231757 20.78125,43.6914062 C21.1158871,43.9596368 21.2832031,44.3632786 21.2832031,44.9023438 C21.2832031,45.6575559 20.9003945,46.1679674 20.1347656,46.4335938 L21.6855469,49 L20.9003906,49 L19.5175781,46.625 L18.3261719,46.625 Z M18.3261719,46.0546875 L19.2363281,46.0546875 C19.7050805,46.0546875 20.048827,45.9615895 20.2675781,45.7753906 C20.4863292,45.5891918 20.5957031,45.3098977 20.5957031,44.9375 C20.5957031,44.5598939 20.4843761,44.2877613 20.2617188,44.1210938 C20.0390614,43.9544262 19.6816431,43.8710938 19.1894531,43.8710938 L18.3261719,43.8710938 L18.3261719,46.0546875 Z M23.2714844,46.625 L23.2714844,49 L22.6074219,49 L22.6074219,43.2890625 L24.1738281,43.2890625 C24.8743525,43.2890625 25.3919254,43.4231757 25.7265625,43.6914062 C26.0611996,43.9596368 26.2285156,44.3632786 26.2285156,44.9023438 C26.2285156,45.6575559 25.845707,46.1679674 25.0800781,46.4335938 L26.6308594,49 L25.8457031,49 L24.4628906,46.625 L23.2714844,46.625 Z M23.2714844,46.0546875 L24.1816406,46.0546875 C24.650393,46.0546875 24.9941395,45.9615895 25.2128906,45.7753906 C25.4316417,45.5891918 25.5410156,45.3098977 25.5410156,44.9375 C25.5410156,44.5598939 25.4296886,44.2877613 25.2070313,44.1210938 C24.9843739,43.9544262 24.6269556,43.8710938 24.1347656,43.8710938 L23.2714844,43.8710938 L23.2714844,46.0546875 Z M32.5097656,46.1367188 C32.5097656,47.0507858 32.2786481,47.7695286 31.8164062,48.2929688 C31.3541644,48.8164089 30.7115927,49.078125 29.8886719,49.078125 C29.0475218,49.078125 28.3984398,48.8209661 27.9414062,48.3066406 C27.4843727,47.7923151 27.2558594,47.0664109 27.2558594,46.1289062 C27.2558594,45.1992141 27.4850237,44.4785182 27.9433594,43.9667969 C28.401695,43.4550756 29.0527302,43.1992188 29.8964844,43.1992188 C30.716801,43.1992188 31.3574196,43.4596328 31.8183594,43.9804688 C32.2792992,44.5013047 32.5097656,45.2200475 32.5097656,46.1367188 Z M27.9589844,46.1367188 C27.9589844,46.9101601 28.1236963,47.4967428 28.453125,47.8964844 C28.7825537,48.296226 29.2610646,48.4960938 29.8886719,48.4960938 C30.5214875,48.4960938 30.9993473,48.296877 31.3222656,47.8984375 C31.6451839,47.499998 31.8066406,46.9127643 31.8066406,46.1367188 C31.8066406,45.3684857 31.6458349,44.7858093 31.3242188,44.3886719 C31.0026026,43.9915345 30.5266959,43.7929688 29.8964844,43.7929688 C29.2636687,43.7929688 28.7825537,43.9928365 28.453125,44.3925781 C28.1236963,44.7923197 27.9589844,45.3736941 27.9589844,46.1367188 Z M39.4824219,44.953125 C39.4824219,45.5312529 39.2851582,45.9759099 38.890625,46.2871094 C38.4960918,46.5983088 37.9316443,46.7539062 37.1972656,46.7539062 L36.5253906,46.7539062 L36.5253906,49 L35.8613281,49 L35.8613281,43.2890625 L37.3417969,43.2890625 C38.7688873,43.2890625 39.4824219,43.8437445 39.4824219,44.953125 Z M36.5253906,46.1835938 L37.1230469,46.1835938 C37.7115915,46.1835938 38.1373685,46.0885426 38.4003906,45.8984375 C38.6634128,45.7083324 38.7949219,45.4036479 38.7949219,44.984375 C38.7949219,44.6067689 38.6712252,44.3255218 38.4238281,44.140625 C38.1764311,43.9557282 37.7910182,43.8632812 37.2675781,43.8632812 L36.5253906,43.8632812 L36.5253906,46.1835938 Z M43.8613281,49 L40.6777344,49 L40.6777344,43.2890625 L43.8613281,43.2890625 L43.8613281,43.8789062 L41.3417969,43.8789062 L41.3417969,45.71875 L43.7089844,45.71875 L43.7089844,46.3046875 L41.3417969,46.3046875 L41.3417969,48.40625 L43.8613281,48.40625 L43.8613281,49 Z M45.1269531,49 L45.1269531,43.2890625 L45.7910156,43.2890625 L45.7910156,48.3984375 L48.3105469,48.3984375 L48.3105469,49 L45.1269531,49 Z M52.8691406,49 L52.1582031,47.1835938 L49.8691406,47.1835938 L49.1660156,49 L48.4941406,49 L50.7519531,43.265625 L51.3105469,43.265625 L53.5566406,49 L52.8691406,49 Z M51.9511719,46.5859375 L51.2871094,44.8164062 C51.2011714,44.5924468 51.1126307,44.31771 51.0214844,43.9921875 C50.9641924,44.2421887 50.882162,44.5169256 50.7753906,44.8164062 L50.1035156,46.5859375 L51.9511719,46.5859375 Z M58.9003906,46.0898438 C58.9003906,47.0325568 58.6445338,47.7532527 58.1328125,48.2519531 C57.6210912,48.7506535 56.8847704,49 55.9238281,49 L54.3417969,49 L54.3417969,43.2890625 L56.0917969,43.2890625 C56.9798221,43.2890625 57.6699194,43.5351538 58.1621094,44.0273438 C58.6542993,44.5195337 58.9003906,45.2070268 58.9003906,46.0898438 Z M58.1972656,46.1132812 C58.1972656,45.3684859 58.0104185,44.8072936 57.6367188,44.4296875 C57.263019,44.0520814 56.707686,43.8632812 55.9707031,43.8632812 L55.0058594,43.8632812 L55.0058594,48.4257812 L55.8144531,48.4257812 C56.6061238,48.4257812 57.2011699,48.2311217 57.5996094,47.8417969 C57.9980489,47.452472 58.1972656,46.8763059 58.1972656,46.1132812 Z M65.1308594,46.1367188 C65.1308594,47.0507858 64.8997419,47.7695286 64.4375,48.2929688 C63.9752581,48.8164089 63.3326864,49.078125 62.5097656,49.078125 C61.6686156,49.078125 61.0195335,48.8209661 60.5625,48.3066406 C60.1054665,47.7923151 59.8769531,47.0664109 59.8769531,46.1289062 C59.8769531,45.1992141 60.1061175,44.4785182 60.5644531,43.9667969 C61.0227887,43.4550756 61.6738239,43.1992188 62.5175781,43.1992188 C63.3378947,43.1992188 63.9785133,43.4596328 64.4394531,43.9804688 C64.9003929,44.5013047 65.1308594,45.2200475 65.1308594,46.1367188 Z M60.5800781,46.1367188 C60.5800781,46.9101601 60.74479,47.4967428 61.0742188,47.8964844 C61.4036475,48.296226 61.8821583,48.4960938 62.5097656,48.4960938 C63.1425813,48.4960938 63.6204411,48.296877 63.9433594,47.8984375 C64.2662777,47.499998 64.4277344,46.9127643 64.4277344,46.1367188 C64.4277344,45.3684857 64.2669287,44.7858093 63.9453125,44.3886719 C63.6236963,43.9915345 63.1477896,43.7929688 62.5175781,43.7929688 C61.8847625,43.7929688 61.4036475,43.9928365 61.0742188,44.3925781 C60.74479,44.7923197 60.5800781,45.3736941 60.5800781,46.1367188 Z" id="CERRO-PELADO" fill="#FFFFFF"></path>
        </g>
    </g>
</svg>