<?xml version="1.0" encoding="UTF-8"?>
<svg width="128px" height="105px" viewBox="0 0 128 105" version="1.1" xmlns="http://www.w3.org/2000/svg" xmlns:xlink="http://www.w3.org/1999/xlink">
    <!-- Generator: Sketch 48.2 (47327) - http://www.bohemiancoding.com/sketch -->
    <title>ic_volcano_label_2</title>
    <desc>Created with Sketch.</desc>
    <defs>
        <polygon id="path-1" points="0.000114940665 0.124308333 50.4466207 0.124308333 50.4466207 34.4166667 0.000114940665 34.4166667"></polygon>
        <polygon id="path-3" points="0.0902574762 0.14 35.1435679 0.14 35.1435679 40.0582 0.0902574762 40.0582"></polygon>
        <rect id="path-5" x="0" y="0" width="116" height="21" rx="10.5"></rect>
        <filter x="-8.6%" y="-38.1%" width="117.2%" height="195.2%" filterUnits="objectBoundingBox" id="filter-6">
            <feOffset dx="0" dy="2" in="SourceAlpha" result="shadowOffsetOuter1"></feOffset>
            <feGaussianBlur stdDeviation="3" in="shadowOffsetOuter1" result="shadowBlurOuter1"></feGaussianBlur>
            <feColorMatrix values="0 0 0 0 0   0 0 0 0 0   0 0 0 0 0  0 0 0 0.5 0" type="matrix" in="shadowBlurOuter1"></feColorMatrix>
        </filter>
    </defs>
    <g id="Web" stroke="none" stroke-width="1" fill="none" fill-rule="evenodd">
        <g id="ic_volcano_label_2" transform="translate(6.000000, 0.000000)">
            <g id="Page-1-Copy-3" transform="translate(32.000000, 0.000000)">
                <g id="Group-3" transform="translate(0.000000, 42.443333)">
                    <mask id="mask-2" fill="white">
                        <use xlink:href="#path-1"></use>
                    </mask>
                    <g id="Clip-2"></g>
                    <path d="M50.3527103,33.319475 C46.6777793,26.7558083 43.0022621,20.1921417 39.327331,13.6278917 C36.8740552,9.24705833 34.4213655,4.866225 31.9680897,0.485391667 C31.8432276,0.262558333 31.5894,0.124308333 31.3355724,0.124308333 L19.1114,0.124308333 C18.8569862,0.124308333 18.6037448,0.262558333 18.4782966,0.485391667 C12.3506759,11.4298917 6.22246897,22.374975 0.094262069,33.319475 C-0.174806897,33.7995583 0.162848276,34.416725 0.72677931,34.416725 L49.7201931,34.416725 C50.2841241,34.416725 50.6217793,33.7995583 50.3527103,33.319475" id="Fill-1" fill="#546E7A" mask="url(#mask-2)"></path>
                </g>
                <path d="M34.7558552,51.1380917 C33.5945793,49.0643417 32.4333034,46.9905917 31.2720276,44.9162583 C31.0223034,44.4705917 30.5146483,44.1940917 30.0069931,44.1940917 L20.4400966,44.1940917 C19.9318552,44.1940917 19.4242,44.4705917 19.1744759,44.9162583 C17.5864414,47.7535917 15.9978207,50.5903417 14.4097862,53.4265083 C14.1137517,53.9550083 14.1782345,54.463675 14.4279586,54.859175 C14.6665448,55.4273417 15.2128897,55.816425 15.9515103,55.5988417 C16.1150621,55.5778417 16.2733379,55.5235917 16.4222345,55.4355083 C17.7130621,54.9548417 19.0033034,54.4747583 20.2935448,53.9940917 C20.5725793,53.8902583 20.8539586,53.7613417 21.1406138,53.6767583 C21.9466483,53.8488417 22.7110621,54.279925 23.5200276,54.435675 C25.5629586,54.829425 27.5601655,52.7043417 29.1986138,51.310175 C30.3827517,51.9180083 31.5668897,52.5258417 32.7510276,53.133675 C34.0389241,53.7945917 35.4903724,52.4500083 34.7558552,51.1380917" id="Fill-4" fill="#FFFFFF"></path>
                <g id="Group-8" transform="translate(7.620690, 0.443333)">
                    <mask id="mask-4" fill="white">
                        <use xlink:href="#path-3"></use>
                    </mask>
                    <g id="Clip-7"></g>
                    <path d="M33.0806517,12.8037 C33.7114103,7.15353333 28.789031,2.6187 23.196031,4.08286667 C16.8696862,-3.64746667 3.66596207,0.689616667 4.26623793,11.0082 C-2.66038276,14.80395 -0.579348276,25.6102 7.62578966,25.80445 C9.58196207,30.3147833 11.5375483,34.8251167 13.4937207,39.3360333 C13.6912724,39.7910333 14.2915483,40.0582 14.7593414,40.0582 L20.4461345,40.0582 C20.9133414,40.0582 21.5142034,39.7910333 21.7117552,39.3360333 L26.5145483,28.2602833 C34.3116862,27.9347833 37.6284448,18.66445 33.0806517,12.8037" id="Fill-6" fill="#546E7A" mask="url(#mask-4)"></path>
                </g>
                <path d="M32.9326345,7.4466 C35.8847724,7.5481 37.9089448,10.1830167 37.1199103,13.0401833 C36.8701862,13.9461 38.283531,14.33285 38.5332552,13.4275167 C39.5796345,9.63643333 36.8297379,6.12243333 32.9326345,5.98826667 C31.9894276,5.9556 31.9906,7.41393333 32.9326345,7.4466" id="Fill-9" fill="#FFFFFF"></path>
            </g>
            <g id="Group-Copy-5" transform="translate(0.000000, 76.000000)">
                <g id="Rectangle-2-Copy-4">
                    <use fill="black" fill-opacity="1" filter="url(#filter-6)" xlink:href="#path-5"></use>
                    <use fill="#263238" fill-rule="evenodd" xlink:href="#path-5"></use>
                </g>
            </g>
        </g>
    </g>
</svg>