<?xml version="1.0" encoding="UTF-8"?>
<svg width="98px" height="58px" viewBox="0 0 98 58" version="1.1" xmlns="http://www.w3.org/2000/svg" xmlns:xlink="http://www.w3.org/1999/xlink">
    <!-- Generator: Sketch 48.2 (47327) - http://www.bohemiancoding.com/sketch -->
    <title>ic_volcano_label_3</title>
    <desc>Created with Sketch.</desc>
    <defs>
        <polygon id="path-1" points="7.62968209e-05 0.0820178694 33.4861189 0.0820178694 33.4861189 22.7079038 7.62968209e-05 22.7079038"></polygon>
        <polygon id="path-3" points="0.0333598711 0.052173913 12.9893383 0.052173913 12.9893383 14.9285217 0.0333598711 14.9285217"></polygon>
        <rect id="path-5" x="0" y="0" width="90" height="14" rx="7"></rect>
        <filter x="-7.2%" y="-39.3%" width="114.4%" height="192.9%" filterUnits="objectBoundingBox" id="filter-6">
            <feOffset dx="0" dy="1" in="SourceAlpha" result="shadowOffsetOuter1"></feOffset>
            <feGaussianBlur stdDeviation="2" in="shadowOffsetOuter1" result="shadowBlurOuter1"></feGaussianBlur>
            <feColorMatrix values="0 0 0 0 0   0 0 0 0 0   0 0 0 0 0  0 0 0 0.5 0" type="matrix" in="shadowBlurOuter1"></feColorMatrix>
        </filter>
    </defs>
    <g id="Web" stroke="none" stroke-width="1" fill="none" fill-rule="evenodd">
        <g id="ic_volcano_label_3" transform="translate(4.000000, 0.000000)">
            <g id="Page-1-Copy-2" transform="translate(28.000000, 0.000000)">
                <g id="Group-3" transform="translate(0.000000, 17.003849)">
                    <mask id="mask-2" fill="white">
                        <use xlink:href="#path-1"></use>
                    </mask>
                    <g id="Clip-2"></g>
                    <path d="M33.4237819,21.9839835 C30.984388,17.6533168 28.544605,13.3226502 26.1052111,8.99159863 C24.4767435,6.10115189 22.848665,3.21070515 21.2201974,0.320258419 C21.1373149,0.173234364 20.9688259,0.0820178694 20.8003369,0.0820178694 L12.6860155,0.0820178694 C12.5171374,0.0820178694 12.3490375,0.173234364 12.2657658,0.320258419 C8.19829346,7.54137182 4.13043199,14.7628701 0.0625705113,21.9839835 C-0.116035612,22.3007395 0.108097562,22.7079423 0.482431094,22.7079423 L33.0039213,22.7079423 C33.3782548,22.7079423 33.602388,22.3007395 33.4237819,21.9839835" id="Fill-1" fill="#FF6D00" mask="url(#mask-2)"></path>
                </g>
                <path d="M23.070697,22.7405966 C22.2998501,21.3723491 21.5290032,20.0041017 20.7581562,18.6354694 C20.5923911,18.3414213 20.2554131,18.1589883 19.9184351,18.1589883 L13.5679951,18.1589883 C13.230628,18.1589883 12.89365,18.3414213 12.7278848,18.6354694 C11.6737585,20.5075244 10.619243,22.3791945 9.56511671,24.2504797 C9.36861106,24.5991808 9.41141427,24.9347959 9.57717943,25.1957443 C9.73555131,25.5706172 10.0982112,25.827332 10.5885026,25.6837718 C10.6970671,25.6699162 10.8021295,25.6341223 10.900966,25.5760055 C11.7578084,25.2588646 12.6142618,24.9421086 13.4707151,24.6249677 C13.6559363,24.5564591 13.8427139,24.4714007 14.0329936,24.4155931 C14.5680338,24.5291326 15.0754464,24.8135588 15.6124321,24.9163216 C16.9685156,25.1761155 18.2942478,23.7739986 19.3818385,22.8541361 C20.1678611,23.2551808 20.9538837,23.6562254 21.7399062,24.0572701 C22.5948031,24.4933388 23.5582644,23.6061911 23.070697,22.7405966" id="Fill-4" fill="#FFFFFF"></path>
                <g id="Group-8" transform="translate(10.000000, 0.000000)">
                    <mask id="mask-4" fill="white">
                        <use xlink:href="#path-3"></use>
                    </mask>
                    <g id="Clip-7"></g>
                    <path d="M12.2268683,4.77156522 C12.4600017,2.66591304 10.6406517,0.975913043 8.573435,1.52156522 C6.23516833,-1.35930435 1.35496833,0.257 1.576835,4.10243478 C-0.983298333,5.517 -0.214131667,9.54417391 2.81855167,9.61656522 C3.54156833,11.2974348 4.26436833,12.9783043 4.987385,14.6593913 C5.06040167,14.8289565 5.28226833,14.9285217 5.45516833,14.9285217 L7.55705167,14.9285217 C7.729735,14.9285217 7.95181833,14.8289565 8.024835,14.6593913 L9.799985,10.5317826 C12.6818683,10.4104783 13.9077683,6.95569565 12.2268683,4.77156522" id="Fill-6" fill="#FF6D00" mask="url(#mask-4)"></path>
                </g>
                <path d="M19.3677971,2.646451 C20.271782,2.68472653 20.8916113,3.67835055 20.6499981,4.75578479 C20.5735292,5.09740492 21.0063147,5.24324789 21.0827836,4.90184774 C21.4031992,3.47223461 20.5611434,2.14710929 19.3677971,2.09651519 C19.0789743,2.08419663 19.0793333,2.63413244 19.3677971,2.646451" id="Fill-9" fill="#FFFFFF" transform="translate(20.151315, 3.596311) rotate(-6.000000) translate(-20.151315, -3.596311) "></path>
            </g>
            <g id="Group-Copy-3" transform="translate(0.000000, 39.000000)">
                <g id="Rectangle-2-Copy-4">
                    <use fill="black" fill-opacity="1" filter="url(#filter-6)" xlink:href="#path-5"></use>
                    <use fill="#263238" fill-rule="evenodd" xlink:href="#path-5"></use>
                </g>
            </g>
            <path d="M5.45703125,49 L5.45703125,43.2890625 L6.12109375,43.2890625 L6.12109375,48.3984375 L8.640625,48.3984375 L8.640625,49 L5.45703125,49 Z M13.1992188,49 L12.4882812,47.1835938 L10.1992188,47.1835938 L9.49609375,49 L8.82421875,49 L11.0820312,43.265625 L11.640625,43.265625 L13.8867188,49 L13.1992188,49 Z M12.28125,46.5859375 L11.6171875,44.8164062 C11.5312496,44.5924468 11.4427088,44.31771 11.3515625,43.9921875 C11.2942705,44.2421887 11.2122401,44.5169256 11.1054688,44.8164062 L10.4335938,46.5859375 L12.28125,46.5859375 Z M17.0234375,46.0078125 L18.9648438,46.0078125 L18.9648438,48.7851562 C18.6627589,48.8815109 18.3554703,48.9544268 18.0429688,49.0039062 C17.7304672,49.0533857 17.3684916,49.078125 16.9570312,49.078125 C16.0924436,49.078125 15.4192732,48.8209661 14.9375,48.3066406 C14.4557268,47.7923151 14.2148438,47.0716192 14.2148438,46.1445312 C14.2148438,45.5507783 14.3339832,45.0306012 14.5722656,44.5839844 C14.8105481,44.1373676 15.1536436,43.7962251 15.6015625,43.5605469 C16.0494814,43.3248686 16.5742157,43.2070312 17.1757812,43.2070312 C17.7851593,43.2070312 18.352862,43.3190093 18.8789062,43.5429688 L18.6210938,44.1289062 C18.1054662,43.9101552 17.6093774,43.8007812 17.1328125,43.8007812 C16.4374965,43.8007812 15.8945332,44.0078104 15.5039062,44.421875 C15.1132793,44.8359396 14.9179688,45.4101526 14.9179688,46.1445312 C14.9179688,46.9153684 15.1061179,47.499998 15.4824219,47.8984375 C15.8587258,48.296877 16.4114547,48.4960938 17.140625,48.4960938 C17.5364603,48.4960938 17.9231752,48.4505213 18.3007812,48.359375 L18.3007812,46.6015625 L17.0234375,46.6015625 L17.0234375,46.0078125 Z M24.6484375,43.2890625 L24.6484375,46.984375 C24.6484375,47.6354199 24.4518249,48.1471336 24.0585938,48.5195312 C23.6653626,48.8919289 23.1250034,49.078125 22.4375,49.078125 C21.7499966,49.078125 21.2181008,48.8906269 20.8417969,48.515625 C20.4654929,48.1406231 20.2773438,47.6250033 20.2773438,46.96875 L20.2773438,43.2890625 L20.9414062,43.2890625 L20.9414062,47.015625 C20.9414062,47.4921899 21.0716133,47.8580716 21.3320312,48.1132812 C21.5924492,48.3684909 21.9752579,48.4960938 22.4804688,48.4960938 C22.962242,48.4960938 23.333332,48.3678398 23.59375,48.1113281 C23.854168,47.8548164 23.984375,47.4869816 23.984375,47.0078125 L23.984375,43.2890625 L24.6484375,43.2890625 Z M30.6210938,49 L29.8632812,49 L26.7421875,44.2070312 L26.7109375,44.2070312 C26.7526044,44.7695341 26.7734375,45.2851539 26.7734375,45.7539062 L26.7734375,49 L26.1601562,49 L26.1601562,43.2890625 L26.9101562,43.2890625 L30.0234375,48.0625 L30.0546875,48.0625 C30.0494791,47.9921871 30.0377605,47.7662779 30.0195312,47.3847656 C30.001302,47.0032533 29.9947916,46.7304696 30,46.5664062 L30,43.2890625 L30.6210938,43.2890625 L30.6210938,49 Z M35.78125,49 L35.0703125,47.1835938 L32.78125,47.1835938 L32.078125,49 L31.40625,49 L33.6640625,43.265625 L34.2226562,43.265625 L36.46875,49 L35.78125,49 Z M34.8632812,46.5859375 L34.1992188,44.8164062 C34.1132808,44.5924468 34.02474,44.31771 33.9335938,43.9921875 C33.8763018,44.2421887 33.7942714,44.5169256 33.6875,44.8164062 L33.015625,46.5859375 L34.8632812,46.5859375 Z M39.9960938,46.625 L39.9960938,49 L39.3320312,49 L39.3320312,43.2890625 L40.8984375,43.2890625 C41.5989618,43.2890625 42.1165348,43.4231757 42.4511719,43.6914062 C42.785809,43.9596368 42.953125,44.3632786 42.953125,44.9023438 C42.953125,45.6575559 42.5703163,46.1679674 41.8046875,46.4335938 L43.3554688,49 L42.5703125,49 L41.1875,46.625 L39.9960938,46.625 Z M39.9960938,46.0546875 L40.90625,46.0546875 C41.3750023,46.0546875 41.7187489,45.9615895 41.9375,45.7753906 C42.1562511,45.5891918 42.265625,45.3098977 42.265625,44.9375 C42.265625,44.5598939 42.154298,44.2877613 41.9316406,44.1210938 C41.7089833,43.9544262 41.351565,43.8710938 40.859375,43.8710938 L39.9960938,43.8710938 L39.9960938,46.0546875 Z M44.2773438,49 L44.2773438,43.2890625 L44.9414062,43.2890625 L44.9414062,49 L44.2773438,49 Z M44.1914062,42.734375 C44.3164069,42.5729159 44.4511712,42.3776053 44.5957031,42.1484375 C44.7402351,41.9192697 44.8541662,41.7200529 44.9375,41.5507812 L45.7265625,41.5507812 L45.7265625,41.6328125 C45.6119786,41.8020842 45.4414074,42.0104154 45.2148438,42.2578125 C44.9882801,42.5052096 44.7916675,42.6966139 44.625,42.8320312 L44.1914062,42.8320312 L44.1914062,42.734375 Z M51.4648438,46.1367188 C51.4648438,47.0507858 51.2337263,47.7695286 50.7714844,48.2929688 C50.3092425,48.8164089 49.6666708,49.078125 48.84375,49.078125 C48.0026,49.078125 47.3535179,48.8209661 46.8964844,48.3066406 C46.4394508,47.7923151 46.2109375,47.0664109 46.2109375,46.1289062 C46.2109375,45.1992141 46.4401019,44.4785182 46.8984375,43.9667969 C47.3567731,43.4550756 48.0078083,43.1992188 48.8515625,43.1992188 C49.6718791,43.1992188 50.3124977,43.4596328 50.7734375,43.9804688 C51.2343773,44.5013047 51.4648438,45.2200475 51.4648438,46.1367188 Z M46.9140625,46.1367188 C46.9140625,46.9101601 47.0787744,47.4967428 47.4082031,47.8964844 C47.7376319,48.296226 48.2161427,48.4960938 48.84375,48.4960938 C49.4765657,48.4960938 49.9544255,48.296877 50.2773438,47.8984375 C50.600262,47.499998 50.7617188,46.9127643 50.7617188,46.1367188 C50.7617188,45.3684857 50.6009131,44.7858093 50.2792969,44.3886719 C49.9576807,43.9915345 49.481774,43.7929688 48.8515625,43.7929688 C48.2187468,43.7929688 47.7376319,43.9928365 47.4082031,44.3925781 C47.0787744,44.7923197 46.9140625,45.3736941 46.9140625,46.1367188 Z M57.2617188,43.8007812 C56.6341114,43.8007812 56.1386737,44.0097635 55.7753906,44.4277344 C55.4121076,44.8457052 55.2304688,45.4179651 55.2304688,46.1445312 C55.2304688,46.8919308 55.4055972,47.469399 55.7558594,47.8769531 C56.1061215,48.2845072 56.6054655,48.4882812 57.2539062,48.4882812 C57.6523457,48.4882812 58.1067683,48.4166674 58.6171875,48.2734375 L58.6171875,48.8554688 C58.2213522,49.003907 57.7330758,49.078125 57.1523438,49.078125 C56.3111937,49.078125 55.6621117,48.8229192 55.2050781,48.3125 C54.7480446,47.8020808 54.5195312,47.0768276 54.5195312,46.1367188 C54.5195312,45.5481741 54.6295562,45.0325543 54.8496094,44.5898438 C55.0696626,44.1471332 55.3873677,43.8059908 55.8027344,43.5664062 C56.218101,43.3268217 56.7070284,43.2070312 57.2695312,43.2070312 C57.8684926,43.2070312 58.3919248,43.3164052 58.8398438,43.5351562 L58.5585938,44.1054688 C58.1262999,43.9023427 57.6940126,43.8007812 57.2617188,43.8007812 Z M64.1757812,43.2890625 L64.1757812,46.984375 C64.1757812,47.6354199 63.9791686,48.1471336 63.5859375,48.5195312 C63.1927064,48.8919289 62.6523472,49.078125 61.9648437,49.078125 C61.2773403,49.078125 60.7454446,48.8906269 60.3691406,48.515625 C59.9928367,48.1406231 59.8046875,47.6250033 59.8046875,46.96875 L59.8046875,43.2890625 L60.46875,43.2890625 L60.46875,47.015625 C60.46875,47.4921899 60.598957,47.8580716 60.859375,48.1132812 C61.119793,48.3684909 61.5026016,48.4960938 62.0078125,48.4960938 C62.4895857,48.4960938 62.8606758,48.3678398 63.1210937,48.1113281 C63.3815117,47.8548164 63.5117187,47.4869816 63.5117187,47.0078125 L63.5117187,43.2890625 L64.1757812,43.2890625 Z M69.1992188,49 L68.4882812,47.1835938 L66.1992188,47.1835938 L65.4960938,49 L64.8242188,49 L67.0820312,43.265625 L67.640625,43.265625 L69.8867188,49 L69.1992188,49 Z M68.28125,46.5859375 L67.6171875,44.8164062 C67.5312496,44.5924468 67.4427088,44.31771 67.3515625,43.9921875 C67.2942705,44.2421887 67.2122401,44.5169256 67.1054688,44.8164062 L66.4335938,46.5859375 L68.28125,46.5859375 Z M71.3359375,46.625 L71.3359375,49 L70.671875,49 L70.671875,43.2890625 L72.2382812,43.2890625 C72.9388056,43.2890625 73.4563785,43.4231757 73.7910156,43.6914062 C74.1256527,43.9596368 74.2929688,44.3632786 74.2929688,44.9023438 C74.2929688,45.6575559 73.9101601,46.1679674 73.1445312,46.4335938 L74.6953125,49 L73.9101562,49 L72.5273438,46.625 L71.3359375,46.625 Z M71.3359375,46.0546875 L72.2460938,46.0546875 C72.7148461,46.0546875 73.0585927,45.9615895 73.2773438,45.7753906 C73.4960948,45.5891918 73.6054688,45.3098977 73.6054688,44.9375 C73.6054688,44.5598939 73.4941417,44.2877613 73.2714844,44.1210938 C73.048827,43.9544262 72.6914087,43.8710938 72.1992188,43.8710938 L71.3359375,43.8710938 L71.3359375,46.0546875 Z M77.375,49 L76.7109375,49 L76.7109375,43.8789062 L74.9023438,43.8789062 L74.9023438,43.2890625 L79.1835938,43.2890625 L79.1835938,43.8789062 L77.375,43.8789062 L77.375,49 Z M84.8398438,46.1367188 C84.8398438,47.0507858 84.6087263,47.7695286 84.1464844,48.2929688 C83.6842425,48.8164089 83.0416708,49.078125 82.21875,49.078125 C81.3776,49.078125 80.7285179,48.8209661 80.2714844,48.3066406 C79.8144508,47.7923151 79.5859375,47.0664109 79.5859375,46.1289062 C79.5859375,45.1992141 79.8151019,44.4785182 80.2734375,43.9667969 C80.7317731,43.4550756 81.3828083,43.1992188 82.2265625,43.1992188 C83.0468791,43.1992188 83.6874977,43.4596328 84.1484375,43.9804688 C84.6093773,44.5013047 84.8398438,45.2200475 84.8398438,46.1367188 Z M80.2890625,46.1367188 C80.2890625,46.9101601 80.4537744,47.4967428 80.7832031,47.8964844 C81.1126319,48.296226 81.5911427,48.4960938 82.21875,48.4960938 C82.8515657,48.4960938 83.3294255,48.296877 83.6523438,47.8984375 C83.975262,47.499998 84.1367188,46.9127643 84.1367188,46.1367188 C84.1367188,45.3684857 83.9759131,44.7858093 83.6542969,44.3886719 C83.3326807,43.9915345 82.856774,43.7929688 82.2265625,43.7929688 C81.5937468,43.7929688 81.1126319,43.9928365 80.7832031,44.3925781 C80.4537744,44.7923197 80.2890625,45.3736941 80.2890625,46.1367188 Z" id="LAGUNA-RÃO-CUARTO" fill="#FFFFFF"></path>
        </g>
    </g>
</svg>