<?xml version="1.0" encoding="UTF-8"?>
<svg width="60px" height="58px" viewBox="0 0 60 58" version="1.1" xmlns="http://www.w3.org/2000/svg" xmlns:xlink="http://www.w3.org/1999/xlink">
    <!-- Generator: Sketch 48.2 (47327) - http://www.bohemiancoding.com/sketch -->
    <title>ic_volcano_label copy 22</title>
    <desc>Created with Sketch.</desc>
    <defs>
        <polygon id="path-1" points="7.62968209e-05 0.0820178694 33.4861189 0.0820178694 33.4861189 22.7079038 7.62968209e-05 22.7079038"></polygon>
        <polygon id="path-3" points="0.0333598711 0.052173913 12.9893383 0.052173913 12.9893383 14.9285217 0.0333598711 14.9285217"></polygon>
        <rect id="path-5" x="0" y="0" width="52" height="14" rx="7"></rect>
        <filter x="-12.5%" y="-39.3%" width="125.0%" height="192.9%" filterUnits="objectBoundingBox" id="filter-6">
            <feOffset dx="0" dy="1" in="SourceAlpha" result="shadowOffsetOuter1"></feOffset>
            <feGaussianBlur stdDeviation="2" in="shadowOffsetOuter1" result="shadowBlurOuter1"></feGaussianBlur>
            <feColorMatrix values="0 0 0 0 0   0 0 0 0 0   0 0 0 0 0  0 0 0 0.5 0" type="matrix" in="shadowBlurOuter1"></feColorMatrix>
        </filter>
    </defs>
    <g id="Web" stroke="none" stroke-width="1" fill="none" fill-rule="evenodd">
        <g id="ic_volcano_label-copy-22" transform="translate(4.000000, 0.000000)">
            <g id="Page-1-Copy-2" transform="translate(9.000000, 0.000000)">
                <g id="Group-3" transform="translate(0.000000, 17.003849)">
                    <mask id="mask-2" fill="white">
                        <use xlink:href="#path-1"></use>
                    </mask>
                    <g id="Clip-2"></g>
                    <path d="M33.4237819,21.9839835 C30.984388,17.6533168 28.544605,13.3226502 26.1052111,8.99159863 C24.4767435,6.10115189 22.848665,3.21070515 21.2201974,0.320258419 C21.1373149,0.173234364 20.9688259,0.0820178694 20.8003369,0.0820178694 L12.6860155,0.0820178694 C12.5171374,0.0820178694 12.3490375,0.173234364 12.2657658,0.320258419 C8.19829346,7.54137182 4.13043199,14.7628701 0.0625705113,21.9839835 C-0.116035612,22.3007395 0.108097562,22.7079423 0.482431094,22.7079423 L33.0039213,22.7079423 C33.3782548,22.7079423 33.602388,22.3007395 33.4237819,21.9839835" id="Fill-1" fill="#FF6D00" mask="url(#mask-2)"></path>
                </g>
                <path d="M23.070697,22.7405966 C22.2998501,21.3723491 21.5290032,20.0041017 20.7581562,18.6354694 C20.5923911,18.3414213 20.2554131,18.1589883 19.9184351,18.1589883 L13.5679951,18.1589883 C13.230628,18.1589883 12.89365,18.3414213 12.7278848,18.6354694 C11.6737585,20.5075244 10.619243,22.3791945 9.56511671,24.2504797 C9.36861106,24.5991808 9.41141427,24.9347959 9.57717943,25.1957443 C9.73555131,25.5706172 10.0982112,25.827332 10.5885026,25.6837718 C10.6970671,25.6699162 10.8021295,25.6341223 10.900966,25.5760055 C11.7578084,25.2588646 12.6142618,24.9421086 13.4707151,24.6249677 C13.6559363,24.5564591 13.8427139,24.4714007 14.0329936,24.4155931 C14.5680338,24.5291326 15.0754464,24.8135588 15.6124321,24.9163216 C16.9685156,25.1761155 18.2942478,23.7739986 19.3818385,22.8541361 C20.1678611,23.2551808 20.9538837,23.6562254 21.7399062,24.0572701 C22.5948031,24.4933388 23.5582644,23.6061911 23.070697,22.7405966" id="Fill-4" fill="#FFFFFF"></path>
                <g id="Group-8" transform="translate(10.000000, 0.000000)">
                    <mask id="mask-4" fill="white">
                        <use xlink:href="#path-3"></use>
                    </mask>
                    <g id="Clip-7"></g>
                    <path d="M12.2268683,4.77156522 C12.4600017,2.66591304 10.6406517,0.975913043 8.573435,1.52156522 C6.23516833,-1.35930435 1.35496833,0.257 1.576835,4.10243478 C-0.983298333,5.517 -0.214131667,9.54417391 2.81855167,9.61656522 C3.54156833,11.2974348 4.26436833,12.9783043 4.987385,14.6593913 C5.06040167,14.8289565 5.28226833,14.9285217 5.45516833,14.9285217 L7.55705167,14.9285217 C7.729735,14.9285217 7.95181833,14.8289565 8.024835,14.6593913 L9.799985,10.5317826 C12.6818683,10.4104783 13.9077683,6.95569565 12.2268683,4.77156522" id="Fill-6" fill="#FF6D00" mask="url(#mask-4)"></path>
                </g>
                <path d="M19.3677971,2.646451 C20.271782,2.68472653 20.8916113,3.67835055 20.6499981,4.75578479 C20.5735292,5.09740492 21.0063147,5.24324789 21.0827836,4.90184774 C21.4031992,3.47223461 20.5611434,2.14710929 19.3677971,2.09651519 C19.0789743,2.08419663 19.0793333,2.63413244 19.3677971,2.646451" id="Fill-9" fill="#FFFFFF" transform="translate(20.151315, 3.596311) rotate(-6.000000) translate(-20.151315, -3.596311) "></path>
            </g>
            <g id="Group-Copy-3" transform="translate(0.000000, 39.000000)">
                <g id="Rectangle-2-Copy-4">
                    <use fill="black" fill-opacity="1" filter="url(#filter-6)" xlink:href="#path-5"></use>
                    <use fill="#263238" fill-rule="evenodd" xlink:href="#path-5"></use>
                </g>
            </g>
            <path d="M15,49.4492188 L15,43.7382812 L16.2109375,43.7382812 L16.2109375,49.4492188 L15,49.4492188 Z M18.859375,46.2734375 L19.25,46.2734375 C19.6328144,46.2734375 19.9153637,46.2096361 20.0976562,46.0820312 C20.2799488,45.9544264 20.3710938,45.7539076 20.3710938,45.4804688 C20.3710938,45.2096341 20.2779957,45.0169277 20.0917969,44.9023438 C19.905598,44.7877598 19.6171895,44.7304688 19.2265625,44.7304688 L18.859375,44.7304688 L18.859375,46.2734375 Z M18.859375,47.2578125 L18.859375,49.4492188 L17.6484375,49.4492188 L17.6484375,43.7382812 L19.3125,43.7382812 C20.0885455,43.7382812 20.6627586,43.8795559 21.0351562,44.1621094 C21.4075539,44.4446629 21.59375,44.873695 21.59375,45.4492188 C21.59375,45.7851579 21.501303,46.0839831 21.3164062,46.3457031 C21.1315095,46.6074232 20.8697934,46.8124993 20.53125,46.9609375 C21.3906293,48.2447981 21.9505195,49.0742169 22.2109375,49.4492188 L20.8671875,49.4492188 L19.5039062,47.2578125 L18.859375,47.2578125 Z M26.4257812,49.4492188 L26.0117188,48.0898438 L23.9296875,48.0898438 L23.515625,49.4492188 L22.2109375,49.4492188 L24.2265625,43.7148438 L25.7070312,43.7148438 L27.7304688,49.4492188 L26.4257812,49.4492188 Z M25.7226562,47.0742188 C25.3398418,45.8424418 25.1243492,45.1458341 25.0761719,44.984375 C25.0279946,44.8229159 24.9934897,44.695313 24.9726562,44.6015625 C24.8867183,44.9348975 24.640627,45.759108 24.234375,47.0742188 L25.7226562,47.0742188 Z M32.171875,49.4492188 L27.921875,49.4492188 L27.921875,48.6640625 L30.6601562,44.7382812 L27.9960938,44.7382812 L27.9960938,43.7382812 L32.0976562,43.7382812 L32.0976562,44.5195312 L29.3632812,48.4492188 L32.171875,48.4492188 L32.171875,49.4492188 Z M37.7304688,43.7382812 L37.7304688,47.4335938 C37.7304688,47.8554709 37.6360687,48.2252588 37.4472656,48.5429688 C37.2584626,48.8606787 36.9856789,49.1041658 36.6289062,49.2734375 C36.2721336,49.4427092 35.8502629,49.5273438 35.3632812,49.5273438 C34.6289026,49.5273438 34.0585958,49.3391946 33.6523438,48.9628906 C33.2460917,48.5865867 33.0429688,48.0716179 33.0429688,47.4179688 L33.0429688,43.7382812 L34.25,43.7382812 L34.25,47.234375 C34.25,47.6744814 34.3385408,47.9973948 34.515625,48.203125 C34.6927092,48.4088552 34.985675,48.5117188 35.3945312,48.5117188 C35.7903666,48.5117188 36.0774731,48.4082042 36.2558594,48.2011719 C36.4342457,47.9941396 36.5234375,47.669273 36.5234375,47.2265625 L36.5234375,43.7382812 L37.7304688,43.7382812 Z M34.7148438,43.28125 L34.7148438,43.1757812 C35.1627627,42.6549453 35.4687492,42.2630221 35.6328125,42 L36.96875,42 L36.96875,42.0820312 C36.8333327,42.2174486 36.6022152,42.4186185 36.2753906,42.6855469 C35.9485661,42.9524753 35.6927093,43.151041 35.5078125,43.28125 L34.7148438,43.28125 Z" id="IRAZÚ" fill="#FFFFFF"></path>
        </g>
    </g>
</svg>