<?xml version="1.0" encoding="UTF-8"?>
<svg width="78px" height="58px" viewBox="0 0 78 58" version="1.1" xmlns="http://www.w3.org/2000/svg" xmlns:xlink="http://www.w3.org/1999/xlink">
    <!-- Generator: Sketch 48.2 (47327) - http://www.bohemiancoding.com/sketch -->
    <title>ic_volcano_label copy 17</title>
    <desc>Created with Sketch.</desc>
    <defs>
        <polygon id="path-1" points="7.62968209e-05 0.0820178694 33.4861189 0.0820178694 33.4861189 22.7079038 7.62968209e-05 22.7079038"></polygon>
        <polygon id="path-3" points="0.0333598711 0.052173913 12.9893383 0.052173913 12.9893383 14.9285217 0.0333598711 14.9285217"></polygon>
        <rect id="path-5" x="0" y="0" width="70" height="14" rx="7"></rect>
        <filter x="-9.3%" y="-39.3%" width="118.6%" height="192.9%" filterUnits="objectBoundingBox" id="filter-6">
            <feOffset dx="0" dy="1" in="SourceAlpha" result="shadowOffsetOuter1"></feOffset>
            <feGaussianBlur stdDeviation="2" in="shadowOffsetOuter1" result="shadowBlurOuter1"></feGaussianBlur>
            <feColorMatrix values="0 0 0 0 0   0 0 0 0 0   0 0 0 0 0  0 0 0 0.5 0" type="matrix" in="shadowBlurOuter1"></feColorMatrix>
        </filter>
    </defs>
    <g id="Web" stroke="none" stroke-width="1" fill="none" fill-rule="evenodd">
        <g id="ic_volcano_label-copy-17" transform="translate(4.000000, 0.000000)">
            <g id="Page-1-Copy-2" transform="translate(18.000000, 0.000000)">
                <g id="Group-3" transform="translate(0.000000, 17.003849)">
                    <mask id="mask-2" fill="white">
                        <use xlink:href="#path-1"></use>
                    </mask>
                    <g id="Clip-2"></g>
                    <path d="M33.4237819,21.9839835 C30.984388,17.6533168 28.544605,13.3226502 26.1052111,8.99159863 C24.4767435,6.10115189 22.848665,3.21070515 21.2201974,0.320258419 C21.1373149,0.173234364 20.9688259,0.0820178694 20.8003369,0.0820178694 L12.6860155,0.0820178694 C12.5171374,0.0820178694 12.3490375,0.173234364 12.2657658,0.320258419 C8.19829346,7.54137182 4.13043199,14.7628701 0.0625705113,21.9839835 C-0.116035612,22.3007395 0.108097562,22.7079423 0.482431094,22.7079423 L33.0039213,22.7079423 C33.3782548,22.7079423 33.602388,22.3007395 33.4237819,21.9839835" id="Fill-1" fill="#FF6D00" mask="url(#mask-2)"></path>
                </g>
                <path d="M23.070697,22.7405966 C22.2998501,21.3723491 21.5290032,20.0041017 20.7581562,18.6354694 C20.5923911,18.3414213 20.2554131,18.1589883 19.9184351,18.1589883 L13.5679951,18.1589883 C13.230628,18.1589883 12.89365,18.3414213 12.7278848,18.6354694 C11.6737585,20.5075244 10.619243,22.3791945 9.56511671,24.2504797 C9.36861106,24.5991808 9.41141427,24.9347959 9.57717943,25.1957443 C9.73555131,25.5706172 10.0982112,25.827332 10.5885026,25.6837718 C10.6970671,25.6699162 10.8021295,25.6341223 10.900966,25.5760055 C11.7578084,25.2588646 12.6142618,24.9421086 13.4707151,24.6249677 C13.6559363,24.5564591 13.8427139,24.4714007 14.0329936,24.4155931 C14.5680338,24.5291326 15.0754464,24.8135588 15.6124321,24.9163216 C16.9685156,25.1761155 18.2942478,23.7739986 19.3818385,22.8541361 C20.1678611,23.2551808 20.9538837,23.6562254 21.7399062,24.0572701 C22.5948031,24.4933388 23.5582644,23.6061911 23.070697,22.7405966" id="Fill-4" fill="#FFFFFF"></path>
                <g id="Group-8" transform="translate(10.000000, 0.000000)">
                    <mask id="mask-4" fill="white">
                        <use xlink:href="#path-3"></use>
                    </mask>
                    <g id="Clip-7"></g>
                    <path d="M12.2268683,4.77156522 C12.4600017,2.66591304 10.6406517,0.975913043 8.573435,1.52156522 C6.23516833,-1.35930435 1.35496833,0.257 1.576835,4.10243478 C-0.983298333,5.517 -0.214131667,9.54417391 2.81855167,9.61656522 C3.54156833,11.2974348 4.26436833,12.9783043 4.987385,14.6593913 C5.06040167,14.8289565 5.28226833,14.9285217 5.45516833,14.9285217 L7.55705167,14.9285217 C7.729735,14.9285217 7.95181833,14.8289565 8.024835,14.6593913 L9.799985,10.5317826 C12.6818683,10.4104783 13.9077683,6.95569565 12.2268683,4.77156522" id="Fill-6" fill="#FF6D00" mask="url(#mask-4)"></path>
                </g>
                <path d="M19.3677971,2.646451 C20.271782,2.68472653 20.8916113,3.67835055 20.6499981,4.75578479 C20.5735292,5.09740492 21.0063147,5.24324789 21.0827836,4.90184774 C21.4031992,3.47223461 20.5611434,2.14710929 19.3677971,2.09651519 C19.0789743,2.08419663 19.0793333,2.63413244 19.3677971,2.646451" id="Fill-9" fill="#FFFFFF" transform="translate(20.151315, 3.596311) rotate(-6.000000) translate(-20.151315, -3.596311) "></path>
            </g>
            <g id="Group-Copy-3" transform="translate(0.000000, 39.000000)">
                <g id="Rectangle-2-Copy-4">
                    <use fill="black" fill-opacity="1" filter="url(#filter-6)" xlink:href="#path-5"></use>
                    <use fill="#263238" fill-rule="evenodd" xlink:href="#path-5"></use>
                </g>
            </g>
            <path d="M7.6796875,44.015625 C7.22395605,44.015625 6.871095,44.1868472 6.62109375,44.5292969 C6.3710925,44.8717465 6.24609375,45.3489553 6.24609375,45.9609375 C6.24609375,47.2343814 6.72395355,47.8710938 7.6796875,47.8710938 C8.08073117,47.8710938 8.5664034,47.7708343 9.13671875,47.5703125 L9.13671875,48.5859375 C8.66796641,48.781251 8.14453414,48.8789062 7.56640625,48.8789062 C6.73567293,48.8789062 6.10026262,48.6269556 5.66015625,48.1230469 C5.22004988,47.6191381 5,46.895838 5,45.953125 C5,45.359372 5.10807184,44.8391949 5.32421875,44.3925781 C5.54036566,43.9459613 5.85090943,43.6035168 6.25585938,43.3652344 C6.66080932,43.1269519 7.13541395,43.0078125 7.6796875,43.0078125 C8.23437777,43.0078125 8.79166387,43.1419257 9.3515625,43.4101562 L8.9609375,44.3945312 C8.74739477,44.2929682 8.53255316,44.2044275 8.31640625,44.1289062 C8.10025934,44.053385 7.88802187,44.015625 7.6796875,44.015625 Z M13.640625,48.8007812 L10.3515625,48.8007812 L10.3515625,43.0898438 L13.640625,43.0898438 L13.640625,44.0820312 L11.5625,44.0820312 L11.5625,45.3359375 L13.4960938,45.3359375 L13.4960938,46.328125 L11.5625,46.328125 L11.5625,47.8007812 L13.640625,47.8007812 L13.640625,48.8007812 Z M16.0429688,45.625 L16.4335938,45.625 C16.8164082,45.625 17.0989574,45.5611986 17.28125,45.4335938 C17.4635426,45.3059889 17.5546875,45.1054701 17.5546875,44.8320312 C17.5546875,44.5611966 17.4615895,44.3684902 17.2753906,44.2539062 C17.0891918,44.1393223 16.8007832,44.0820312 16.4101562,44.0820312 L16.0429688,44.0820312 L16.0429688,45.625 Z M16.0429688,46.609375 L16.0429688,48.8007812 L14.8320312,48.8007812 L14.8320312,43.0898438 L16.4960938,43.0898438 C17.2721393,43.0898438 17.8463523,43.2311184 18.21875,43.5136719 C18.5911477,43.7962254 18.7773438,44.2252575 18.7773438,44.8007812 C18.7773438,45.1367204 18.6848968,45.4355456 18.5,45.6972656 C18.3151032,45.9589857 18.0533871,46.1640618 17.7148438,46.3125 C18.574223,47.5963606 19.1341133,48.4257794 19.3945312,48.8007812 L18.0507812,48.8007812 L16.6875,46.609375 L16.0429688,46.609375 Z M21.3242188,45.625 L21.7148438,45.625 C22.0976582,45.625 22.3802074,45.5611986 22.5625,45.4335938 C22.7447926,45.3059889 22.8359375,45.1054701 22.8359375,44.8320312 C22.8359375,44.5611966 22.7428395,44.3684902 22.5566406,44.2539062 C22.3704418,44.1393223 22.0820332,44.0820312 21.6914062,44.0820312 L21.3242188,44.0820312 L21.3242188,45.625 Z M21.3242188,46.609375 L21.3242188,48.8007812 L20.1132812,48.8007812 L20.1132812,43.0898438 L21.7773438,43.0898438 C22.5533893,43.0898438 23.1276023,43.2311184 23.5,43.5136719 C23.8723977,43.7962254 24.0585938,44.2252575 24.0585938,44.8007812 C24.0585938,45.1367204 23.9661468,45.4355456 23.78125,45.6972656 C23.5963532,45.9589857 23.3346371,46.1640618 22.9960938,46.3125 C23.855473,47.5963606 24.4153633,48.4257794 24.6757812,48.8007812 L23.3320312,48.8007812 L21.96875,46.609375 L21.3242188,46.609375 Z M30.578125,45.9375 C30.578125,46.8828172 30.3437523,47.6093725 29.875,48.1171875 C29.4062477,48.6250025 28.7343794,48.8789062 27.859375,48.8789062 C26.9843706,48.8789062 26.3125023,48.6250025 25.84375,48.1171875 C25.3749977,47.6093725 25.140625,46.8802131 25.140625,45.9296875 C25.140625,44.9791619 25.3756487,44.2532577 25.8457031,43.7519531 C26.3157576,43.2506485 26.9895789,43 27.8671875,43 C28.7447961,43 29.4160133,43.2526016 29.8808594,43.7578125 C30.3457054,44.2630234 30.578125,44.9895786 30.578125,45.9375 Z M26.4101562,45.9375 C26.4101562,46.575524 26.5312488,47.055988 26.7734375,47.3789062 C27.0156262,47.7018245 27.3776018,47.8632812 27.859375,47.8632812 C28.8255257,47.8632812 29.3085938,47.2213606 29.3085938,45.9375 C29.3085938,44.6510352 28.8281298,44.0078125 27.8671875,44.0078125 C27.3854143,44.0078125 27.0221366,44.1699203 26.7773438,44.4941406 C26.5325509,44.818361 26.4101562,45.299476 26.4101562,45.9375 Z M35.0507812,45.7773438 L35.4492188,45.7773438 C35.8216164,45.7773438 36.1002595,45.7037768 36.2851562,45.5566406 C36.470053,45.4095045 36.5625,45.1953139 36.5625,44.9140625 C36.5625,44.6302069 36.4850268,44.4205736 36.3300781,44.2851562 C36.1751294,44.1497389 35.9322933,44.0820312 35.6015625,44.0820312 L35.0507812,44.0820312 L35.0507812,45.7773438 Z M37.7851562,44.8710938 C37.7851562,45.4856802 37.5931009,45.9557275 37.2089844,46.28125 C36.8248679,46.6067725 36.2786494,46.7695312 35.5703125,46.7695312 L35.0507812,46.7695312 L35.0507812,48.8007812 L33.8398438,48.8007812 L33.8398438,43.0898438 L35.6640625,43.0898438 C36.3567743,43.0898438 36.8834617,43.2389308 37.2441406,43.5371094 C37.6048195,43.8352879 37.7851562,44.279945 37.7851562,44.8710938 Z M42.1523438,48.8007812 L38.8632812,48.8007812 L38.8632812,43.0898438 L42.1523438,43.0898438 L42.1523438,44.0820312 L40.0742188,44.0820312 L40.0742188,45.3359375 L42.0078125,45.3359375 L42.0078125,46.328125 L40.0742188,46.328125 L40.0742188,47.8007812 L42.1523438,47.8007812 L42.1523438,48.8007812 Z M43.34375,48.8007812 L43.34375,43.0898438 L44.5546875,43.0898438 L44.5546875,47.8007812 L46.8710938,47.8007812 L46.8710938,48.8007812 L43.34375,48.8007812 Z M51.359375,48.8007812 L50.9453125,47.4414062 L48.8632812,47.4414062 L48.4492188,48.8007812 L47.1445312,48.8007812 L49.1601562,43.0664062 L50.640625,43.0664062 L52.6640625,48.8007812 L51.359375,48.8007812 Z M50.65625,46.4257812 C50.2734356,45.1940043 50.0579429,44.4973966 50.0097656,44.3359375 C49.9615883,44.1744784 49.9270834,44.0468755 49.90625,43.953125 C49.8203121,44.28646 49.5742208,45.1106705 49.1679688,46.4257812 L50.65625,46.4257812 Z M58.1210938,45.890625 C58.1210938,46.8307339 57.8535183,47.5507787 57.3183594,48.0507812 C56.7832004,48.5507838 56.0104217,48.8007812 55,48.8007812 L53.3828125,48.8007812 L53.3828125,43.0898438 L55.1757812,43.0898438 C56.1080776,43.0898438 56.8320287,43.335935 57.3476562,43.828125 C57.8632838,44.320315 58.1210938,45.0078081 58.1210938,45.890625 Z M56.8632812,45.921875 C56.8632812,44.6953064 56.32162,44.0820312 55.2382812,44.0820312 L54.59375,44.0820312 L54.59375,47.8007812 L55.1132812,47.8007812 C56.2799538,47.8007812 56.8632812,47.1744854 56.8632812,45.921875 Z M64.4882812,45.9375 C64.4882812,46.8828172 64.2539086,47.6093725 63.7851562,48.1171875 C63.3164039,48.6250025 62.6445356,48.8789062 61.7695312,48.8789062 C60.8945269,48.8789062 60.2226586,48.6250025 59.7539062,48.1171875 C59.2851539,47.6093725 59.0507812,46.8802131 59.0507812,45.9296875 C59.0507812,44.9791619 59.2858049,44.2532577 59.7558594,43.7519531 C60.2259138,43.2506485 60.8997352,43 61.7773437,43 C62.6549523,43 63.3261696,43.2526016 63.7910156,43.7578125 C64.2558617,44.2630234 64.4882812,44.9895786 64.4882812,45.9375 Z M60.3203125,45.9375 C60.3203125,46.575524 60.441405,47.055988 60.6835937,47.3789062 C60.9257825,47.7018245 61.287758,47.8632812 61.7695312,47.8632812 C62.7356819,47.8632812 63.21875,47.2213606 63.21875,45.9375 C63.21875,44.6510352 62.7382861,44.0078125 61.7773437,44.0078125 C61.2955705,44.0078125 60.9322929,44.1699203 60.6875,44.4941406 C60.4427071,44.818361 60.3203125,45.299476 60.3203125,45.9375 Z" id="CERRO-PELADO" fill="#FFFFFF"></path>
        </g>
    </g>
</svg>