<?xml version="1.0" encoding="utf-8"?>
<!-- Generator: Adobe Illustrator 21.0.0, SVG Export Plug-In . SVG Version: 6.00 Build 0)  -->
<svg version="1.1" id="Layer_1" xmlns="http://www.w3.org/2000/svg" xmlns:xlink="http://www.w3.org/1999/xlink" x="0px" y="0px"
	 viewBox="0 0 828.1 1206" style="enable-background:new 0 0 828.1 1206;" xml:space="preserve">
<style type="text/css">
	.st0{fill-rule:evenodd;clip-rule:evenodd;fill:#878787;}
	.st1{fill-rule:evenodd;clip-rule:evenodd;fill:#0087E0;}
	.st2{fill-rule:evenodd;clip-rule:evenodd;fill:#FF7E00;}
	.st3{fill:#0087E0;}
</style>
<g>
	<path class="st0" d="M399.2,32.7l-7-16.7c0,0-32.5,10.2-35.4,43c0,0-5.1,24.9,15.8,38.4c20.9,13.4,36.5,29.2,22.9,46.3
		c-13.6,17-34.7,31.7-29.9,56c0,0,2.5,6.3,4.2,9.1l19.8-3.4c0,0-12.6-12.7-0.8-26.3c11.8-13.7,22.3-23,26.8-32.1
		c4.5-9.1,8-30.2-8-45.2c0,0-3.6-3.5-12.8-9.8c-9.2-6.3-17.6-13.3-20.1-24.5C372.1,56.4,381.3,38.8,399.2,32.7z"/>
	<path class="st0" d="M399.2,32.7l-7-16.7c-0.2-0.4-9.3,4.4-9.8,4.6c-4.8,2.8-9.2,6.1-12.8,10.4C361,41.1,355.1,55.4,356,68.7
		c0.8,13.1,8.5,22.2,18.5,29.8c5.3,4,11.4,7.4,16.3,11.9c13.3,12.1,10.5,26.6-0.2,39.2c-8.7,10.1-19.3,19.1-23.9,32.1
		c-1.8,5-3.2,12.9-1.2,18c0,0,2.5,6.3,4.2,9.1l19.8-3.4c0,0-12.6-12.7-0.8-26.3c15.3-17.7,36.4-33.7,29.1-60
		c-3-11-10.6-17.7-19.4-24.4c-9.9-7.5-20.8-14.3-23.8-27.2C372.1,56.4,381.3,38.8,399.2,32.7z"/>
	<path class="st0" d="M439,32.7L432,16c-0.2-0.4-9.3,4.4-9.7,4.6c-4.9,2.8-9.2,6.1-12.9,10.4c-8.6,10.1-14.5,24.4-13.6,37.7
		c0.8,13.1,8.5,22.2,18.6,29.8c5.3,4,11.5,7.4,16.4,11.9c13.3,12.1,10.5,26.6-0.2,39.2c-8.6,10.1-19.3,19.1-23.9,32.1
		c-1.8,5-3.2,12.9-1.2,18c0,0,2.5,6.3,4.2,9.1l19.8-3.4c0,0-12.6-12.7-0.8-26.3c15.3-17.7,36.4-33.7,29.1-60
		c-3-11-10.6-17.7-19.4-24.4c-9.9-7.5-20.8-14.3-23.8-27.2C412,56.4,421.2,38.8,439,32.7z"/>
	<path class="st0" d="M480.2,32.7l-7-16.7c-0.2-0.4-9.3,4.4-9.8,4.6c-4.8,2.8-9.2,6.1-12.8,10.4c-8.6,10.1-14.5,24.4-13.7,37.7
		c0.9,13.1,8.5,22.2,18.6,29.8c5.3,4,11.5,7.4,16.3,11.9c13.3,12.1,10.5,26.6-0.2,39.2c-8.6,10.1-19.3,19.1-23.8,32.1
		c-1.8,5-3.2,12.9-1.2,18c0,0,2.5,6.3,4.1,9.1l19.8-3.4c0,0-12.6-12.7-0.8-26.3c15.4-17.7,36.4-33.7,29.2-60
		c-3-11-10.6-17.7-19.5-24.4c-9.9-7.5-20.8-14.3-23.8-27.2C453.1,56.4,462.4,38.8,480.2,32.7z"/>
	<path class="st1" d="M477.2,233.1l25.9-12.5c0,0,14.4,49.8,93.9,108.8c79.6,59,192.6,82,202.7,83.9l-4.3,27.3
		c0,0-110.2-14.8-209.4-84.3C586,356.3,514.6,313.7,477.2,233.1z"/>
	<path class="st1" d="M350.6,233.1l-25.9-12.5c0,0-14.4,49.8-93.9,108.8c-79.6,59-192.7,82-202.8,83.9l4.3,27.3
		c0,0,110.2-14.8,209.4-84.3C241.7,356.3,313.1,313.7,350.6,233.1z"/>
	<path class="st2" d="M18.9,558.6v-29h163.6c0,0,12-46.5,14.9-59.1c2.9-12.6,7-21.2,16.7-20.5c9.7,0.7,13,14.7,13.5,20.3
		c0.5,5.6,9,68.8,9,68.8s1.1,0.7,4.7-19.6c3.6-20.3,17.2-19.8,17.2-19.8s9.9-0.7,16.2,16.9l4.7,9.9c0,0,5.6-12,7-15.6
		c1.4-3.6,5.9-10.4,9.9-9.7c4.1,0.7,7.5,8.3,10.4,13.8c2.9,5.4,4.3,9.5,4.3,9.5s4.7-31.6,6.1-43.1c1.3-11.5,8.6-70.1,8.6-70.1
		s2.7-18.3,15.5-19.2c0,0,9.6,1.1,13.5,19.2c3.9,18,15.8,103.3,15.8,103.3l10.4,74.7l20.6-83c0,0,3.8-23.7,16.9-23.5
		c0,0,6.8-2,17.2,19c10.4,21,16.9,33.4,16.9,33.4l11.1-28.4c0,0,3.4-9.9,10.8-9.7c7.5,0.2,12.4,7.5,15.8,11.7
		c3.4,4.3,19.2,26.2,19.2,26.2l16.4-24.1c0,0,4.3-5.7,11-5.4c6.8,0.2,16,13.3,16,13.3l12.2,14.4l12.8-8.1c0,0,10.9-6.3,18.5-5.6
		c7.7,0.7,8.4,0.5,28,13.7l13.8-5.8c0,0,7.4-3.6,17.1,0.9c9.7,4.5,14.9,5.9,14.9,5.9s2.5,1.1,5.4,0.4c2.9-0.7,13.5-6.3,20.7-6.5
		c7.2-0.2,8.6,1.6,18.9,1.6c10.4,0,94.3,0,94.3,0v29.6H708.2c0,0-7.4-1.8-11-1.5c-3.6,0.3-14.4,6.5-20.9,6.8c-6.5,0.3-9.4,0-18-3.3
		c-8.6-3.3-9.3-6.4-15.9-3.8s-16.1,8-22.1,6.2c0,0-4.1-0.5-19.6-11c0,0-3.9-5.8-9.1-1.9c-5.2,3.9-20.8,14-20.8,14s-7.6,4.8-15.7-0.8
		l-14.8-15c0,0-2.1-4.1-4.3-0.8c-2.3,3.3-13.4,21.4-13.4,21.4s-6.3,8-13.2,7.4c-6.9-0.6-12.5-8.8-12.8-9.2c-0.3-0.4-14-19.2-14-19.2
		s-1.8-3.9-3.3-0.1c-1.5,3.7-11,31.1-11,31.1l-4.6,10.6c0,0-3.4,4.4-7.9,4.5c-4.6,0.1-7.1-2.2-9-5.6c-1.9-3.4-21.4-42.7-21.4-42.7
		s-2.2-6.2-3.7,0.3c-1.5,6.6-29.5,124.2-29.5,124.2s-5.2,13-15,12.7c-9.9-0.3-13.6-11.4-13.6-11.4l-13.3-91.8l-7.4-54.3
		c0,0-1.1-6.5-1.8,0c-0.8,6.5-5.5,57.1-5.5,57.1s-1.2,18.3-13.4,18.3c-12.1,0-14.4-11.1-14.4-11.1l-9.9-25.5c0,0-2-4.4-3.8,0.6
		c-1.8,5-6.8,19.4-13.5,19.1c-6.7-0.3-9.1-7.9-9.1-7.9l-6-13.3c0,0-1.8-3-2.3,0.3c-0.5,3.4-12.3,74.9-12.3,74.9s-3.6,14.6-14.9,14.3
		c-11.2-0.3-14.5-4.7-15.9-14.4c-1.4-9.7-9.7-75.2-9.7-75.2l-1.5-13.5c0,0-1.2-5.1-2.9,0.4c-1.7,5.6-2.3,9.1-5.3,9.1H20.5H19
		L18.9,558.6"/>
</g>
<g>
	<path class="st3" d="M17.8,998.4V736.9h134.7c25,0,44.1,2.1,57.3,6.4c13.2,4.3,23.8,12.2,31.9,23.8c8.1,11.6,12.1,25.7,12.1,42.4
		c0,14.5-3.1,27-9.3,37.6c-6.2,10.5-14.7,19.1-25.5,25.6c-6.9,4.2-16.4,7.6-28.4,10.3c9.6,3.2,16.6,6.4,21,9.6
		c3,2.1,7.3,6.7,12.9,13.8c5.6,7,9.4,12.4,11.3,16.2l39.1,75.8h-91.3l-43.2-79.9c-5.5-10.3-10.3-17.1-14.6-20.2
		c-5.8-4-12.4-6.1-19.8-6.1H99v106.2H17.8z M99,842.8h34.1c3.7,0,10.8-1.2,21.4-3.6c5.4-1.1,9.7-3.8,13.1-8.2
		c3.4-4.4,5.1-9.5,5.1-15.2c0-8.4-2.7-14.9-8-19.4c-5.4-4.5-15.4-6.8-30.2-6.8H99V842.8z"/>
	<path class="st3" d="M286.9,911.9l76.9-4.8c1.7,12.5,5.1,22,10.2,28.5c8.3,10.6,20.2,15.9,35.7,15.9c11.5,0,20.4-2.7,26.7-8.1
		c6.2-5.4,9.4-11.7,9.4-18.8c0-6.8-3-12.8-8.9-18.2c-5.9-5.4-19.7-10.4-41.4-15.2c-35.4-8-60.7-18.6-75.8-31.8
		c-15.2-13.2-22.8-30-22.8-50.5c0-13.4,3.9-26.1,11.7-38.1c7.8-12,19.5-21.3,35.1-28.2c15.6-6.8,37.1-10.3,64.3-10.3
		c33.4,0,58.9,6.2,76.5,18.6c17.5,12.4,28,32.2,31.3,59.3l-76.2,4.5c-2-11.8-6.3-20.3-12.8-25.7c-6.5-5.4-15.4-8-26.9-8
		c-9.4,0-16.5,2-21.2,6c-4.8,4-7.1,8.8-7.1,14.5c0,4.2,2,7.9,5.9,11.2c3.8,3.5,12.8,6.7,27.1,9.6c35.3,7.6,60.6,15.3,75.9,23.1
		c15.3,7.8,26.4,17.5,33.4,29c7,11.5,10.4,24.4,10.4,38.7c0,16.8-4.6,32.2-13.9,46.4c-9.3,14.2-22.2,24.9-38.9,32.2
		c-16.7,7.3-37.6,11-63,11c-44.5,0-75.3-8.6-92.4-25.7C298.9,960.1,289.2,938.3,286.9,911.9z"/>
	<path class="st3" d="M565.4,736.9h75.5l98.5,144.7V736.9h76.2v261.6h-76.2l-98-143.6v143.6h-76V736.9z"/>
</g>
<g>
	<path class="st3" d="M105.1,1061.9h38.5v74.5c0,7.4-1.2,14.4-3.5,20.9c-2.3,6.6-5.9,12.3-10.8,17.2c-4.9,4.9-10.1,8.4-15.5,10.4
		c-7.5,2.8-16.5,4.2-27,4.2c-6.1,0-12.7-0.4-19.9-1.3c-7.2-0.9-13.2-2.5-18-5.1c-4.8-2.5-9.2-6.1-13.3-10.8c-4-4.7-6.8-9.5-8.2-14.4
		c-2.4-8-3.6-15-3.6-21.1v-74.5h38.5v76.2c0,6.8,1.9,12.1,5.7,16c3.8,3.8,9,5.8,15.7,5.8c6.6,0,11.9-1.9,15.6-5.7
		c3.8-3.8,5.7-9.1,5.7-16.1V1061.9z"/>
	<path class="st3" d="M252.5,1135.7l33.8,10.2c-2.3,9.5-5.9,17.4-10.7,23.8c-4.9,6.4-11,11.2-18.2,14.4c-7.2,3.2-16.5,4.9-27.7,4.9
		c-13.6,0-24.7-2-33.3-5.9c-8.6-3.9-16-10.9-22.3-20.8c-6.3-9.9-9.4-22.7-9.4-38.2c0-20.7,5.5-36.6,16.5-47.7
		c11-11.1,26.6-16.7,46.7-16.7c15.7,0,28.1,3.2,37.1,9.5c9,6.4,15.7,16.1,20.1,29.3l-34.1,7.6c-1.2-3.8-2.4-6.6-3.8-8.4
		c-2.2-3-4.8-5.2-7.9-6.8c-3.1-1.6-6.6-2.4-10.5-2.4c-8.8,0-15.5,3.5-20.1,10.6c-3.5,5.2-5.3,13.4-5.3,24.6
		c0,13.9,2.1,23.3,6.3,28.5c4.2,5.1,10.1,7.7,17.7,7.7c7.4,0,13-2.1,16.8-6.2C248,1149.7,250.7,1143.6,252.5,1135.7z"/>
	<path class="st3" d="M305.6,1186.9v-125h64.4c11.9,0,21.1,1,27.4,3.1c6.3,2,11.4,5.8,15.3,11.4c3.9,5.5,5.8,12.3,5.8,20.2
		c0,6.9-1.5,12.9-4.4,17.9c-3,5-7,9.1-12.2,12.2c-3.3,2-7.8,3.6-13.6,4.9c4.6,1.5,8,3.1,10.1,4.6c1.4,1,3.5,3.2,6.2,6.6
		c2.7,3.4,4.5,5.9,5.4,7.8l18.7,36.2h-43.6l-20.6-38.2c-2.6-4.9-4.9-8.2-7-9.6c-2.8-1.9-5.9-2.9-9.5-2.9h-3.4v50.7H305.6z
		 M344.4,1112.6h16.3c1.8,0,5.2-0.6,10.2-1.7c2.6-0.5,4.6-1.8,6.3-3.9c1.6-2.1,2.4-4.5,2.4-7.2c0-4-1.3-7.1-3.8-9.3
		c-2.6-2.2-7.4-3.2-14.4-3.2h-17V1112.6z"/>
	<path class="st3" d="M431.9,1127.9h50.5v26.9h-50.5V1127.9z"/>
	<path class="st3" d="M500.5,1061.9h38.7v125h-38.7V1061.9z"/>
	<path class="st3" d="M650.2,1135.7L684,1146c-2.3,9.5-5.9,17.4-10.7,23.8c-4.9,6.4-11,11.2-18.2,14.4c-7.2,3.2-16.5,4.9-27.7,4.9
		c-13.6,0-24.7-2-33.3-5.9c-8.6-3.9-16-10.9-22.3-20.8c-6.3-9.9-9.4-22.7-9.4-38.2c0-20.7,5.5-36.6,16.5-47.7
		c11-11.1,26.6-16.7,46.7-16.7c15.7,0,28.1,3.2,37.1,9.5c9,6.4,15.7,16.1,20.1,29.3l-34.1,7.6c-1.2-3.8-2.4-6.6-3.8-8.4
		c-2.2-3-4.8-5.2-7.9-6.8c-3.1-1.6-6.6-2.4-10.5-2.4c-8.8,0-15.5,3.5-20.1,10.6c-3.5,5.2-5.3,13.4-5.3,24.6
		c0,13.9,2.1,23.3,6.3,28.5c4.2,5.1,10.1,7.7,17.7,7.7c7.4,0,13-2.1,16.8-6.2C645.7,1149.7,648.5,1143.6,650.2,1135.7z"/>
	<path class="st3" d="M702.7,1061.9h103.5v26.7h-64.8v19.9h60.1v25.5h-60.1v24.6h66.7v28.3H702.7V1061.9z"/>
</g>
</svg>
