<?xml version="1.0" encoding="utf-8"?>
<!-- Generator: Adobe Illustrator 21.0.0, SVG Export Plug-In . SVG Version: 6.00 Build 0)  -->
<svg version="1.1" id="Layer_1" xmlns="http://www.w3.org/2000/svg" xmlns:xlink="http://www.w3.org/1999/xlink" x="0px" y="0px"
	 viewBox="0 0 65 27" style="enable-background:new 0 0 65 27;" xml:space="preserve">
<style type="text/css">
	.st0{fill:#FF6D00;stroke:#FFFFFF;stroke-width:0.5;}
	.st1{filter:url(#filter-2);}
	.st2{fill:#263238;}
	.st3{enable-background:new    ;}
	.st4{fill:#FFFFFF;}
</style>
<filter  filterUnits="objectBoundingBox" height="192.9%" id="filter-2" width="122.8%" x="-11.4%" y="-39.3%">
	<feOffset  dx="0" dy="1" in="SourceAlpha" result="shadowOffsetOuter1"></feOffset>
	<feGaussianBlur  in="shadowOffsetOuter1" result="shadowBlurOuter1" stdDeviation="2"></feGaussianBlur>
	<feColorMatrix  in="shadowBlurOuter1" type="matrix" values="0 0 0 0 0   0 0 0 0 0   0 0 0 0 0  0 0 0 0.5 0"></feColorMatrix>
</filter>
<title>Group 28</title>
<desc>Created with Sketch.</desc>
<g id="Web">
	<g id="Group-28" transform="translate(1.000000, 1.000000)">
		<g id="ic_volcano_label-copy-19">
			<g id="Group-Copy-3" transform="translate(3.000000, 0.000000)">
				<g id="Group-26-Copy-4" transform="translate(16.000000, 0.000000)">
					<circle id="Oval-2-Copy-5" class="st0" cx="12.5" cy="12.5" r="12.5"/>
				</g>
				<g id="Rectangle-2-Copy-4">
					<g class="st1">
						<path id="path-1_2_" d="M7,6h43c3.9,0,7,3.1,7,7l0,0c0,3.9-3.1,7-7,7H7c-3.9,0-7-3.1-7-7l0,0C0,9.1,3.1,6,7,6z"/>
					</g>
					<g>
						<path id="path-1_1_" class="st2" d="M7,6h43c3.9,0,7,3.1,7,7l0,0c0,3.9-3.1,7-7,7H7c-3.9,0-7-3.1-7-7l0,0C0,9.1,3.1,6,7,6z"/>
					</g>
				</g>
			</g>
			<g class="st3">
				<path class="st4" d="M28.2,16l-0.7-1.8h-2.3L24.4,16h-0.7l2.3-5.7h0.6l2.2,5.7H28.2z M27.2,13.6l-0.7-1.8
					c-0.1-0.2-0.2-0.5-0.3-0.8c-0.1,0.2-0.1,0.5-0.2,0.8l-0.7,1.8H27.2z"/>
				<path class="st4" d="M31.1,13.1l1.5-2.9h0.7l-1.9,3.5V16h-0.7v-2.2l-1.9-3.5h0.7L31.1,13.1z"/>
				<path class="st4" d="M34.1,16v-5.7h0.7V16H34.1z"/>
				<path class="st4" d="M36.3,16v-5.7H37v5.1h2.5V16H36.3z"/>
			</g>
		</g>
	</g>
</g>
</svg>
