<?xml version="1.0" encoding="utf-8"?>
<!-- Generator: Adobe Illustrator 21.0.0, SVG Export Plug-In . SVG Version: 6.00 Build 0)  -->
<svg version="1.1" id="Layer_1" xmlns="http://www.w3.org/2000/svg" xmlns:xlink="http://www.w3.org/1999/xlink" x="0px" y="0px"
	 viewBox="0 0 99 27" style="enable-background:new 0 0 99 27;" xml:space="preserve">
<style type="text/css">
	.st0{fill:#FF6D00;stroke:#FFFFFF;stroke-width:0.5;}
	.st1{filter:url(#filter-2);}
	.st2{fill:#263238;}
	.st3{enable-background:new    ;}
	.st4{fill:#FFFFFF;}
</style>
<filter  filterUnits="objectBoundingBox" height="192.9%" id="filter-2" width="114.3%" x="-7.1%" y="-39.3%">
	<feOffset  dx="0" dy="1" in="SourceAlpha" result="shadowOffsetOuter1"></feOffset>
	<feGaussianBlur  in="shadowOffsetOuter1" result="shadowBlurOuter1" stdDeviation="2"></feGaussianBlur>
	<feColorMatrix  in="shadowBlurOuter1" type="matrix" values="0 0 0 0 0   0 0 0 0 0   0 0 0 0 0  0 0 0 0.5 0"></feColorMatrix>
</filter>
<title>Group 31</title>
<desc>Created with Sketch.</desc>
<g id="Web">
	<g id="Group-31" transform="translate(4.000000, 1.000000)">
		<g id="ic_volcano_label-copy-18">
			<g id="Group-Copy-3">
				<g id="Group-26-Copy-4" transform="translate(33.000000, 0.000000)">
					<circle id="Oval-2-Copy-5" class="st0" cx="12.5" cy="12.5" r="12.5"/>
				</g>
				<g id="Rectangle-2-Copy-4">
					<g class="st1">
						<path id="path-1_2_" d="M7,6h77c3.9,0,7,3.1,7,7l0,0c0,3.9-3.1,7-7,7H7c-3.9,0-7-3.1-7-7l0,0C0,9.1,3.1,6,7,6z"/>
					</g>
					<g>
						<path id="path-1_1_" class="st2" d="M7,6h77c3.9,0,7,3.1,7,7l0,0c0,3.9-3.1,7-7,7H7c-3.9,0-7-3.1-7-7l0,0C0,9.1,3.1,6,7,6z"/>
					</g>
				</g>
			</g>
			<g class="st3">
				<path class="st4" d="M11.6,14.5c0,0.5-0.2,0.9-0.5,1.2s-0.9,0.4-1.5,0.4c-0.7,0-1.2-0.1-1.6-0.3v-0.6c0.2,0.1,0.5,0.2,0.8,0.2
					s0.5,0.1,0.8,0.1c0.4,0,0.8-0.1,1-0.3s0.3-0.4,0.3-0.7c0-0.2,0-0.4-0.1-0.5s-0.2-0.2-0.4-0.3s-0.5-0.2-0.8-0.4
					c-0.5-0.2-0.9-0.4-1.1-0.7s-0.3-0.6-0.3-1c0-0.4,0.2-0.8,0.5-1.1s0.8-0.4,1.3-0.4c0.6,0,1.1,0.1,1.6,0.3l-0.2,0.6
					c-0.5-0.2-0.9-0.3-1.4-0.3c-0.4,0-0.6,0.1-0.8,0.2s-0.3,0.4-0.3,0.6c0,0.2,0,0.4,0.1,0.5s0.2,0.2,0.4,0.3s0.4,0.2,0.8,0.3
					c0.6,0.2,1,0.4,1.2,0.7S11.6,14.1,11.6,14.5z"/>
				<path class="st4" d="M12.8,16v-5.7h0.7V16H12.8z"/>
				<path class="st4" d="M19.9,13.1c0,0.7-0.1,1.3-0.4,1.8s-0.7,0.8-1.2,1l1.4,1.4h-1l-1.1-1.3l-0.2,0c-0.8,0-1.5-0.3-1.9-0.8
					s-0.7-1.2-0.7-2.2c0-0.9,0.2-1.7,0.7-2.2s1.1-0.8,2-0.8c0.8,0,1.5,0.3,1.9,0.8S19.9,12.2,19.9,13.1z M15.4,13.1
					c0,0.8,0.2,1.4,0.5,1.8s0.8,0.6,1.4,0.6c0.6,0,1.1-0.2,1.4-0.6s0.5-1,0.5-1.8c0-0.8-0.2-1.4-0.5-1.7s-0.8-0.6-1.4-0.6
					c-0.6,0-1.1,0.2-1.4,0.6S15.4,12.4,15.4,13.1z"/>
				<path class="st4" d="M25.5,10.3V14c0,0.7-0.2,1.2-0.6,1.5s-0.9,0.6-1.6,0.6s-1.2-0.2-1.6-0.6s-0.6-0.9-0.6-1.5v-3.7h0.7V14
					c0,0.5,0.1,0.8,0.4,1.1s0.6,0.4,1.1,0.4c0.5,0,0.9-0.1,1.1-0.4s0.4-0.6,0.4-1.1v-3.7H25.5z"/>
				<path class="st4" d="M27,16v-5.7h0.7V16H27z"/>
				<path class="st4" d="M29.9,13.6V16h-0.7v-5.7h1.6c0.7,0,1.2,0.1,1.6,0.4s0.5,0.7,0.5,1.2c0,0.8-0.4,1.3-1.1,1.5l1.6,2.6h-0.8
					l-1.4-2.4H29.9z M29.9,13.1h0.9c0.5,0,0.8-0.1,1-0.3s0.3-0.5,0.3-0.8c0-0.4-0.1-0.6-0.3-0.8s-0.6-0.2-1.1-0.2h-0.9V13.1z"/>
				<path class="st4" d="M34.9,13.6V16h-0.7v-5.7h1.6c0.7,0,1.2,0.1,1.6,0.4s0.5,0.7,0.5,1.2c0,0.8-0.4,1.3-1.1,1.5l1.6,2.6h-0.8
					l-1.4-2.4H34.9z M34.9,13.1h0.9c0.5,0,0.8-0.1,1-0.3s0.3-0.5,0.3-0.8c0-0.4-0.1-0.6-0.3-0.8s-0.6-0.2-1.1-0.2h-0.9V13.1z"/>
				<path class="st4" d="M42.3,16h-3.2v-5.7h3.2v0.6h-2.5v1.8h2.4v0.6h-2.4v2.1h2.5V16z"/>
				<path class="st4" d="M46.8,14.5c0,0.5-0.2,0.9-0.5,1.2c-0.4,0.3-0.9,0.4-1.5,0.4c-0.7,0-1.2-0.1-1.6-0.3v-0.6
					c0.2,0.1,0.5,0.2,0.8,0.2s0.5,0.1,0.8,0.1c0.4,0,0.8-0.1,1-0.3c0.2-0.2,0.3-0.4,0.3-0.7c0-0.2,0-0.4-0.1-0.5
					c-0.1-0.1-0.2-0.2-0.4-0.3s-0.5-0.2-0.8-0.4c-0.5-0.2-0.9-0.4-1.1-0.7s-0.3-0.6-0.3-1c0-0.4,0.2-0.8,0.5-1.1s0.8-0.4,1.3-0.4
					c0.6,0,1.1,0.1,1.6,0.3l-0.2,0.6c-0.5-0.2-0.9-0.3-1.4-0.3c-0.4,0-0.6,0.1-0.8,0.2S44,11.4,44,11.7c0,0.2,0,0.4,0.1,0.5
					s0.2,0.2,0.4,0.3s0.4,0.2,0.8,0.3c0.6,0.2,1,0.4,1.2,0.7S46.8,14.1,46.8,14.5z"/>
				<path class="st4" d="M49.6,14.2v-0.6h1.9v0.6H49.6z"/>
				<path class="st4" d="M57.3,16l-1.9-5.1h0c0,0.4,0.1,0.9,0.1,1.4V16h-0.6v-5.7h1l1.8,4.7h0l1.8-4.7h1V16h-0.7v-3.7
					c0-0.4,0-0.9,0.1-1.4h0l-2,5.1H57.3z"/>
				<path class="st4" d="M65.5,16l-0.7-1.8h-2.3L61.8,16h-0.7l2.3-5.7H64l2.2,5.7H65.5z M64.6,13.6L64,11.8
					c-0.1-0.2-0.2-0.5-0.3-0.8c-0.1,0.2-0.1,0.5-0.2,0.8l-0.7,1.8H64.6z"/>
				<path class="st4" d="M68.8,16h-0.7v-5.1h-1.8v-0.6h4.3v0.6h-1.8V16z"/>
				<path class="st4" d="M71.4,16v-5.7h0.7V16H71.4z"/>
				<path class="st4" d="M78.1,16h-0.8l-3.1-4.8h0c0,0.6,0.1,1.1,0.1,1.5V16h-0.6v-5.7h0.8l3.1,4.8h0c0-0.1,0-0.3,0-0.7s0-0.7,0-0.8
					v-3.3h0.6V16z"/>
				<path class="st4" d="M83.3,16l-0.7-1.8h-2.3L79.6,16h-0.7l2.3-5.7h0.6L84,16H83.3z M82.4,13.6l-0.7-1.8
					c-0.1-0.2-0.2-0.5-0.3-0.8c-0.1,0.2-0.1,0.5-0.2,0.8l-0.7,1.8H82.4z"/>
			</g>
		</g>
	</g>
</g>
</svg>
