<?xml version="1.0" encoding="utf-8"?>
<!-- Generator: Adobe Illustrator 21.0.0, SVG Export Plug-In . SVG Version: 6.00 Build 0)  -->
<svg version="1.1" id="Layer_1" xmlns="http://www.w3.org/2000/svg" xmlns:xlink="http://www.w3.org/1999/xlink" x="0px" y="0px"
	 viewBox="0 0 181 27" style="enable-background:new 0 0 181 27;" xml:space="preserve">
<style type="text/css">
	.st0{fill:#FF6D00;stroke:#FFFFFF;stroke-width:0.5;}
	.st1{filter:url(#filter-2);}
	.st2{fill:#263238;}
	.st3{enable-background:new    ;}
	.st4{fill:#FFFFFF;}
</style>
<filter  filterUnits="objectBoundingBox" height="192.9%" id="filter-2" width="107.5%" x="-3.8%" y="-39.3%">
	<feOffset  dx="0" dy="1" in="SourceAlpha" result="shadowOffsetOuter1"></feOffset>
	<feGaussianBlur  in="shadowOffsetOuter1" result="shadowBlurOuter1" stdDeviation="2"></feGaussianBlur>
	<feColorMatrix  in="shadowBlurOuter1" type="matrix" values="0 0 0 0 0   0 0 0 0 0   0 0 0 0 0  0 0 0 0.5 0"></feColorMatrix>
</filter>
<title>Group 34</title>
<desc>Created with Sketch.</desc>
<g id="Web">
	<g id="Group-34" transform="translate(4.000000, 1.000000)">
		<g id="ic_volcano_label-copy-15">
			<g id="Group-Copy-3">
				<g id="Group-26-Copy-4" transform="translate(74.000000, 0.000000)">
					<circle id="Oval-2-Copy-5" class="st0" cx="12.5" cy="12.5" r="12.5"/>
				</g>
				<g id="Rectangle-2-Copy-4">
					<g class="st1">
						<path id="path-1_2_" d="M7,6h159c3.9,0,7,3.1,7,7l0,0c0,3.9-3.1,7-7,7H7c-3.9,0-7-3.1-7-7l0,0C0,9.1,3.1,6,7,6z"/>
					</g>
					<g>
						<path id="path-1_1_" class="st2" d="M7,6h159c3.9,0,7,3.1,7,7l0,0c0,3.9-3.1,7-7,7H7c-3.9,0-7-3.1-7-7l0,0C0,9.1,3.1,6,7,6z"
							/>
					</g>
				</g>
			</g>
			<g class="st3">
				<path class="st4" d="M10.9,10.8c-0.6,0-1.1,0.2-1.5,0.6s-0.5,1-0.5,1.7c0,0.7,0.2,1.3,0.5,1.7s0.8,0.6,1.5,0.6
					c0.4,0,0.9-0.1,1.4-0.2v0.6c-0.4,0.1-0.9,0.2-1.5,0.2c-0.8,0-1.5-0.3-1.9-0.8s-0.7-1.2-0.7-2.2c0-0.6,0.1-1.1,0.3-1.5
					s0.5-0.8,1-1s0.9-0.4,1.5-0.4c0.6,0,1.1,0.1,1.6,0.3l-0.3,0.6C11.7,10.9,11.3,10.8,10.9,10.8z"/>
				<path class="st4" d="M18.4,13.1c0,0.9-0.2,1.6-0.7,2.2s-1.1,0.8-1.9,0.8c-0.8,0-1.5-0.3-1.9-0.8s-0.7-1.2-0.7-2.2
					c0-0.9,0.2-1.7,0.7-2.2s1.1-0.8,2-0.8c0.8,0,1.5,0.3,1.9,0.8S18.4,12.2,18.4,13.1z M13.9,13.1c0,0.8,0.2,1.4,0.5,1.8
					s0.8,0.6,1.4,0.6c0.6,0,1.1-0.2,1.4-0.6s0.5-1,0.5-1.8c0-0.8-0.2-1.4-0.5-1.7s-0.8-0.6-1.4-0.6c-0.6,0-1.1,0.2-1.4,0.6
					S13.9,12.4,13.9,13.1z"/>
				<path class="st4" d="M20.4,13.6V16h-0.7v-5.7h1.6c0.7,0,1.2,0.1,1.6,0.4s0.5,0.7,0.5,1.2c0,0.8-0.4,1.3-1.1,1.5l1.6,2.6h-0.8
					l-1.4-2.4H20.4z M20.4,13.1h0.9c0.5,0,0.8-0.1,1-0.3s0.3-0.5,0.3-0.8c0-0.4-0.1-0.6-0.3-0.8s-0.6-0.2-1.1-0.2h-0.9V13.1z"/>
				<path class="st4" d="M29.2,13.1c0,0.9-0.3,1.7-0.8,2.2S27.2,16,26.2,16h-1.6v-5.7h1.8c0.9,0,1.6,0.2,2.1,0.7
					S29.2,12.2,29.2,13.1z M28.5,13.1c0-0.7-0.2-1.3-0.6-1.7s-0.9-0.6-1.7-0.6h-1v4.6h0.8c0.8,0,1.4-0.2,1.8-0.6
					S28.5,13.9,28.5,13.1z"/>
				<path class="st4" d="M30.5,16v-5.7h0.7V16H30.5z"/>
				<path class="st4" d="M32.7,16v-5.7h0.7v5.1h2.5V16H32.7z"/>
				<path class="st4" d="M36.9,16v-5.7h0.7v5.1H40V16H36.9z"/>
				<path class="st4" d="M44.2,16H41v-5.7h3.2v0.6h-2.5v1.8H44v0.6h-2.4v2.1h2.5V16z"/>
				<path class="st4" d="M46.1,13.6V16h-0.7v-5.7H47c0.7,0,1.2,0.1,1.6,0.4s0.5,0.7,0.5,1.2c0,0.8-0.4,1.3-1.1,1.5l1.6,2.6h-0.8
					l-1.4-2.4H46.1z M46.1,13.1H47c0.5,0,0.8-0.1,1-0.3s0.3-0.5,0.3-0.8c0-0.4-0.1-0.6-0.3-0.8s-0.6-0.2-1.1-0.2h-0.9V13.1z"/>
				<path class="st4" d="M54,16l-0.7-1.8H51L50.3,16h-0.7l2.3-5.7h0.6l2.2,5.7H54z M53.1,13.6l-0.7-1.8c-0.1-0.2-0.2-0.5-0.3-0.8
					c-0.1,0.2-0.1,0.5-0.2,0.8l-0.7,1.8H53.1z"/>
				<path class="st4" d="M60.8,10.3h0.7L59.5,16h-0.7l-2-5.7h0.7l1.3,3.7c0.2,0.4,0.3,0.8,0.4,1.2c0.1-0.4,0.2-0.8,0.4-1.3
					L60.8,10.3z"/>
				<path class="st4" d="M67.3,13.1c0,0.9-0.2,1.6-0.7,2.2s-1.1,0.8-1.9,0.8c-0.8,0-1.5-0.3-1.9-0.8S62,14.1,62,13.1
					c0-0.9,0.2-1.7,0.7-2.2s1.1-0.8,2-0.8c0.8,0,1.5,0.3,1.9,0.8S67.3,12.2,67.3,13.1z M62.7,13.1c0,0.8,0.2,1.4,0.5,1.8
					s0.8,0.6,1.4,0.6c0.6,0,1.1-0.2,1.4-0.6s0.5-1,0.5-1.8c0-0.8-0.2-1.4-0.5-1.7s-0.8-0.6-1.4-0.6c-0.6,0-1.1,0.2-1.4,0.6
					S62.7,12.4,62.7,13.1z"/>
				<path class="st4" d="M68.5,16v-5.7h0.7v5.1h2.5V16H68.5z"/>
				<path class="st4" d="M75.1,10.8c-0.6,0-1.1,0.2-1.5,0.6s-0.5,1-0.5,1.7c0,0.7,0.2,1.3,0.5,1.7s0.8,0.6,1.5,0.6
					c0.4,0,0.9-0.1,1.4-0.2v0.6c-0.4,0.1-0.9,0.2-1.5,0.2c-0.8,0-1.5-0.3-1.9-0.8s-0.7-1.2-0.7-2.2c0-0.6,0.1-1.1,0.3-1.5
					s0.5-0.8,1-1s0.9-0.4,1.5-0.4c0.6,0,1.1,0.1,1.6,0.3l-0.3,0.6C76,10.9,75.6,10.8,75.1,10.8z"/>
				<path class="st4" d="M81.3,16l-0.7-1.8h-2.3L77.6,16H77l2.3-5.7h0.6L82,16H81.3z M80.4,13.6l-0.7-1.8c-0.1-0.2-0.2-0.5-0.3-0.8
					c-0.1,0.2-0.1,0.5-0.2,0.8l-0.7,1.8H80.4z M79,9.7c0.1-0.2,0.3-0.4,0.4-0.6s0.3-0.4,0.3-0.6h0.8v0.1C80.4,8.8,80.3,9,80,9.3
					s-0.4,0.4-0.6,0.6L79,9.7L79,9.7z"/>
				<path class="st4" d="M87.3,16h-0.8l-3.1-4.8h0c0,0.6,0.1,1.1,0.1,1.5V16h-0.6v-5.7h0.8l3.1,4.8h0c0-0.1,0-0.3,0-0.7s0-0.7,0-0.8
					v-3.3h0.6V16z"/>
				<path class="st4" d="M88.8,16v-5.7h0.7V16H88.8z"/>
				<path class="st4" d="M93.5,10.8c-0.6,0-1.1,0.2-1.5,0.6s-0.5,1-0.5,1.7c0,0.7,0.2,1.3,0.5,1.7s0.8,0.6,1.5,0.6
					c0.4,0,0.9-0.1,1.4-0.2v0.6c-0.4,0.1-0.9,0.2-1.5,0.2c-0.8,0-1.5-0.3-1.9-0.8s-0.7-1.2-0.7-2.2c0-0.6,0.1-1.1,0.3-1.5
					s0.5-0.8,1-1s0.9-0.4,1.5-0.4c0.6,0,1.1,0.1,1.6,0.3l-0.3,0.6C94.4,10.9,93.9,10.8,93.5,10.8z"/>
				<path class="st4" d="M99.7,16L99,14.2h-2.3L96,16h-0.7l2.3-5.7h0.6l2.2,5.7H99.7z M98.8,13.6l-0.7-1.8c-0.1-0.2-0.2-0.5-0.3-0.8
					c-0.1,0.2-0.1,0.5-0.2,0.8l-0.7,1.8H98.8z"/>
				<path class="st4" d="M107.8,13.1c0,0.9-0.3,1.7-0.8,2.2s-1.2,0.7-2.2,0.7h-1.6v-5.7h1.8c0.9,0,1.6,0.2,2.1,0.7
					S107.8,12.2,107.8,13.1z M107.1,13.1c0-0.7-0.2-1.3-0.6-1.7s-0.9-0.6-1.7-0.6h-1v4.6h0.8c0.8,0,1.4-0.2,1.8-0.6
					S107.1,13.9,107.1,13.1z"/>
				<path class="st4" d="M112.3,16h-3.2v-5.7h3.2v0.6h-2.5v1.8h2.4v0.6h-2.4v2.1h2.5V16z"/>
				<path class="st4" d="M118.1,13h1.9v2.8c-0.3,0.1-0.6,0.2-0.9,0.2s-0.7,0.1-1.1,0.1c-0.9,0-1.5-0.3-2-0.8s-0.7-1.2-0.7-2.2
					c0-0.6,0.1-1.1,0.4-1.6s0.6-0.8,1-1s1-0.4,1.6-0.4c0.6,0,1.2,0.1,1.7,0.3l-0.3,0.6c-0.5-0.2-1-0.3-1.5-0.3
					c-0.7,0-1.2,0.2-1.6,0.6s-0.6,1-0.6,1.7c0,0.8,0.2,1.4,0.6,1.8s0.9,0.6,1.7,0.6c0.4,0,0.8,0,1.2-0.1v-1.8h-1.3V13z"/>
				<path class="st4" d="M125.7,10.3V14c0,0.7-0.2,1.2-0.6,1.5s-0.9,0.6-1.6,0.6s-1.2-0.2-1.6-0.6s-0.6-0.9-0.6-1.5v-3.7h0.7V14
					c0,0.5,0.1,0.8,0.4,1.1s0.6,0.4,1.1,0.4c0.5,0,0.9-0.1,1.1-0.4s0.4-0.6,0.4-1.1v-3.7H125.7z"/>
				<path class="st4" d="M130.8,16l-0.7-1.8h-2.3l-0.7,1.8h-0.7l2.3-5.7h0.6l2.2,5.7H130.8z M129.9,13.6l-0.7-1.8
					c-0.1-0.2-0.2-0.5-0.3-0.8c-0.1,0.2-0.1,0.5-0.2,0.8l-0.7,1.8H129.9z"/>
				<path class="st4" d="M136.8,16H136l-3.1-4.8h0c0,0.6,0.1,1.1,0.1,1.5V16h-0.6v-5.7h0.8l3.1,4.8h0c0-0.1,0-0.3,0-0.7s0-0.7,0-0.8
					v-3.3h0.6V16z"/>
				<path class="st4" d="M141.9,16l-0.7-1.8h-2.3l-0.7,1.8h-0.7l2.3-5.7h0.6l2.2,5.7H141.9z M141,13.6l-0.7-1.8
					c-0.1-0.2-0.2-0.5-0.3-0.8c-0.1,0.2-0.1,0.5-0.2,0.8l-0.7,1.8H141z"/>
				<path class="st4" d="M145.9,10.8c-0.6,0-1.1,0.2-1.5,0.6s-0.5,1-0.5,1.7c0,0.7,0.2,1.3,0.5,1.7s0.8,0.6,1.5,0.6
					c0.4,0,0.9-0.1,1.4-0.2v0.6c-0.4,0.1-0.9,0.2-1.5,0.2c-0.8,0-1.5-0.3-1.9-0.8s-0.7-1.2-0.7-2.2c0-0.6,0.1-1.1,0.3-1.5
					s0.5-0.8,1-1s0.9-0.4,1.5-0.4c0.6,0,1.1,0.1,1.6,0.3l-0.3,0.6C146.7,10.9,146.3,10.8,145.9,10.8z"/>
				<path class="st4" d="M152,16l-0.7-1.8H149l-0.7,1.8h-0.7l2.3-5.7h0.6l2.2,5.7H152z M151.1,13.6l-0.7-1.8
					c-0.1-0.2-0.2-0.5-0.3-0.8c-0.1,0.2-0.1,0.5-0.2,0.8l-0.7,1.8H151.1z"/>
				<path class="st4" d="M156.7,14.5c0,0.5-0.2,0.9-0.5,1.2s-0.9,0.4-1.5,0.4c-0.7,0-1.2-0.1-1.6-0.3v-0.6c0.2,0.1,0.5,0.2,0.8,0.2
					s0.5,0.1,0.8,0.1c0.4,0,0.8-0.1,1-0.3s0.3-0.4,0.3-0.7c0-0.2,0-0.4-0.1-0.5s-0.2-0.2-0.4-0.3s-0.5-0.2-0.8-0.4
					c-0.5-0.2-0.9-0.4-1.1-0.7s-0.3-0.6-0.3-1c0-0.4,0.2-0.8,0.5-1.1s0.8-0.4,1.3-0.4c0.6,0,1.1,0.1,1.6,0.3l-0.2,0.6
					c-0.5-0.2-0.9-0.3-1.4-0.3c-0.4,0-0.6,0.1-0.8,0.2s-0.3,0.4-0.3,0.6c0,0.2,0,0.4,0.1,0.5s0.2,0.2,0.4,0.3s0.4,0.2,0.8,0.3
					c0.6,0.2,1,0.4,1.2,0.7S156.7,14.1,156.7,14.5z"/>
				<path class="st4" d="M159.7,16H159v-5.1h-1.8v-0.6h4.3v0.6h-1.8V16z"/>
				<path class="st4" d="M165.5,16h-3.2v-5.7h3.2v0.6H163v1.8h2.4v0.6H163v2.1h2.5V16z"/>
			</g>
		</g>
	</g>
</g>
</svg>
