<?xml version="1.0" encoding="UTF-8"?>
<svg width="105px" height="27px" viewBox="0 0 105 27" version="1.1" xmlns="http://www.w3.org/2000/svg" xmlns:xlink="http://www.w3.org/1999/xlink">
    <!-- Generator: Sketch 48.2 (47327) - http://www.bohemiancoding.com/sketch -->
    <title>Group 31 Copy 2</title>
    <desc>Created with Sketch.</desc>
    <defs>
        <path d="M35.8208049,6 C34.6655751,7.89393294 34,10.1192398 34,12.5 C34,15.3140148 34.9298621,17.9108487 36.4990845,20 L7,20 C3.13400675,20 4.73447626e-16,16.8659932 0,13 C-4.73447626e-16,9.13400675 3.13400675,6 7,6 L35.8208049,6 Z M57.1791951,6 L90,6 C93.8659932,6 97,9.13400675 97,13 C97,16.8659932 93.8659932,20 90,20 L56.5009155,20 C58.0701379,17.9108487 59,15.3140148 59,12.5 C59,10.1192398 58.3344249,7.89393294 57.1791951,6 Z" id="path-1"></path>
        <filter x="-6.7%" y="-39.3%" width="113.4%" height="192.9%" filterUnits="objectBoundingBox" id="filter-2">
            <feOffset dx="0" dy="1" in="SourceAlpha" result="shadowOffsetOuter1"></feOffset>
            <feGaussianBlur stdDeviation="2" in="shadowOffsetOuter1" result="shadowBlurOuter1"></feGaussianBlur>
            <feColorMatrix values="0 0 0 0 0   0 0 0 0 0   0 0 0 0 0  0 0 0 0.5 0" type="matrix" in="shadowBlurOuter1"></feColorMatrix>
        </filter>
        <rect id="path-3" x="1" y="6" width="96" height="14" rx="7"></rect>
        <filter x="-6.8%" y="-39.3%" width="113.5%" height="192.9%" filterUnits="objectBoundingBox" id="filter-4">
            <feOffset dx="0" dy="1" in="SourceAlpha" result="shadowOffsetOuter1"></feOffset>
            <feGaussianBlur stdDeviation="2" in="shadowOffsetOuter1" result="shadowBlurOuter1"></feGaussianBlur>
            <feColorMatrix values="0 0 0 0 0   0 0 0 0 0   0 0 0 0 0  0 0 0 0.5 0" type="matrix" in="shadowBlurOuter1"></feColorMatrix>
        </filter>
    </defs>
    <g id="Web" stroke="none" stroke-width="1" fill="none" fill-rule="evenodd">
        <g id="Group-31-Copy-2" transform="translate(4.000000, 1.000000)">
            <g id="ic_volcano_label-copy-18">
                <g id="Group-Copy-3">
                    <g id="Group-26-Copy-4" transform="translate(36.000000, 0.000000)" fill="#FF6D00" stroke="#FFFFFF" stroke-width="0.5">
                        <circle id="Oval-2-Copy-5" cx="12.5" cy="12.5" r="12.5"></circle>
                    </g>
                    <g id="Combined-Shape">
                        <use fill="black" fill-opacity="1" filter="url(#filter-2)" xlink:href="#path-1"></use>
                        <use fill="#263238" fill-rule="evenodd" xlink:href="#path-1"></use>
                    </g>
                    <g id="Rectangle-2-Copy-4">
                        <use fill="black" fill-opacity="1" filter="url(#filter-4)" xlink:href="#path-3"></use>
                        <use fill="#263238" fill-rule="evenodd" xlink:href="#path-3"></use>
                    </g>
                </g>
                <path d="M12.5371094,14.4140625 C12.5371094,14.9296901 12.3515644,15.335936 11.9804688,15.6328125 C11.6093731,15.929689 11.0931023,16.078125 10.4316406,16.078125 C9.82226258,16.078125 9.28320547,15.9635428 8.81445312,15.734375 L8.81445312,14.609375 C9.19987172,14.7812509 9.52604033,14.9023434 9.79296875,14.9726562 C10.0598972,15.0429691 10.3040354,15.078125 10.5253906,15.078125 C10.791017,15.078125 10.994791,15.0273443 11.1367188,14.9257812 C11.2786465,14.8242182 11.3496094,14.6731781 11.3496094,14.4726562 C11.3496094,14.3606765 11.3183597,14.2610681 11.2558594,14.1738281 C11.1933591,14.0865881 11.1015631,14.0026046 10.9804688,13.921875 C10.8593744,13.8411454 10.6126321,13.7122405 10.2402344,13.5351562 C9.8912743,13.3710929 9.62955816,13.2135424 9.45507812,13.0625 C9.28059809,12.9114576 9.14127656,12.7356781 9.03710938,12.5351562 C8.93294219,12.3346344 8.88085938,12.1002618 8.88085938,11.8320312 C8.88085938,11.3268204 9.05208162,10.9296889 9.39453125,10.640625 C9.73698088,10.3515611 10.2102834,10.2070312 10.8144531,10.2070312 C11.1113296,10.2070312 11.3945299,10.2421871 11.6640625,10.3125 C11.9335951,10.3828129 12.2154933,10.4817702 12.5097656,10.609375 L12.1191406,11.5507812 C11.8144516,11.4257806 11.562501,11.3385419 11.3632812,11.2890625 C11.1640615,11.2395831 10.9680999,11.2148438 10.7753906,11.2148438 C10.5462228,11.2148438 10.3704433,11.2682286 10.2480469,11.375 C10.1256504,11.4817714 10.0644531,11.6210929 10.0644531,11.7929688 C10.0644531,11.8997401 10.0891925,11.9928381 10.1386719,12.0722656 C10.1881513,12.1516931 10.2669265,12.2285153 10.375,12.3027344 C10.4830735,12.3769535 10.7389303,12.5104157 11.1425781,12.703125 C11.676435,12.9583346 12.0423167,13.2141914 12.2402344,13.4707031 C12.438152,13.7272148 12.5371094,14.0416648 12.5371094,14.4140625 Z M13.5722656,16 L13.5722656,10.2890625 L14.7832031,10.2890625 L14.7832031,16 L13.5722656,16 Z M21.4042969,13.1367188 C21.4042969,13.8085971 21.2851574,14.3717425 21.046875,14.8261719 C20.8085926,15.2806012 20.4589867,15.6132802 19.9980469,15.8242188 L21.3730469,17.359375 L19.8222656,17.359375 L18.7753906,16.078125 L18.6855469,16.078125 C17.8105425,16.078125 17.1386742,15.8242213 16.6699219,15.3164062 C16.2011695,14.8085912 15.9667969,14.0794318 15.9667969,13.1289062 C15.9667969,12.1783807 16.2018206,11.4524765 16.671875,10.9511719 C17.1419294,10.4498673 17.8157508,10.1992188 18.6933594,10.1992188 C19.5709679,10.1992188 20.2421852,10.4518204 20.7070312,10.9570312 C21.1718773,11.4622421 21.4042969,12.1887973 21.4042969,13.1367188 Z M17.2363281,13.1367188 C17.2363281,13.7747428 17.3574207,14.2552067 17.5996094,14.578125 C17.8417981,14.9010433 18.2037736,15.0625 18.6855469,15.0625 C19.6516975,15.0625 20.1347656,14.4205793 20.1347656,13.1367188 C20.1347656,11.850254 19.6543017,11.2070312 18.6933594,11.2070312 C18.2115861,11.2070312 17.8483085,11.369139 17.6035156,11.6933594 C17.3587227,12.0175797 17.2363281,12.4986947 17.2363281,13.1367188 Z M27.2363281,10.2890625 L27.2363281,13.984375 C27.2363281,14.4062521 27.141928,14.7760401 26.953125,15.09375 C26.764322,15.4114599 26.4915382,15.6549471 26.1347656,15.8242188 C25.777993,15.9934904 25.3561222,16.078125 24.8691406,16.078125 C24.134762,16.078125 23.5644552,15.8899758 23.1582031,15.5136719 C22.7519511,15.1373679 22.5488281,14.6223991 22.5488281,13.96875 L22.5488281,10.2890625 L23.7558594,10.2890625 L23.7558594,13.7851562 C23.7558594,14.2252626 23.8444002,14.5481761 24.0214844,14.7539062 C24.1985686,14.9596364 24.4915344,15.0625 24.9003906,15.0625 C25.2962259,15.0625 25.5833324,14.9589854 25.7617188,14.7519531 C25.9401051,14.5449208 26.0292969,14.2200543 26.0292969,13.7773438 L26.0292969,10.2890625 L27.2363281,10.2890625 Z M28.6347656,16 L28.6347656,10.2890625 L29.8457031,10.2890625 L29.8457031,16 L28.6347656,16 Z M32.4941406,12.8242188 L32.8847656,12.8242188 C33.26758,12.8242188 33.5501293,12.7604173 33.7324219,12.6328125 C33.9147145,12.5052077 34.0058594,12.3046889 34.0058594,12.03125 C34.0058594,11.7604153 33.9127613,11.5677089 33.7265625,11.453125 C33.5403637,11.3385411 33.2519551,11.28125 32.8613281,11.28125 L32.4941406,11.28125 L32.4941406,12.8242188 Z M32.4941406,13.8085938 L32.4941406,16 L31.2832031,16 L31.2832031,10.2890625 L32.9472656,10.2890625 C33.7233112,10.2890625 34.2975242,10.4303371 34.6699219,10.7128906 C35.0423196,10.9954441 35.2285156,11.4244763 35.2285156,12 C35.2285156,12.3359392 35.1360686,12.6347643 34.9511719,12.8964844 C34.7662751,13.1582044 34.504559,13.3632805 34.1660156,13.5117188 C35.0253949,14.7955793 35.5852852,15.6249981 35.8457031,16 L34.5019531,16 L33.1386719,13.8085938 L32.4941406,13.8085938 Z M37.7753906,12.8242188 L38.1660156,12.8242188 C38.54883,12.8242188 38.8313793,12.7604173 39.0136719,12.6328125 C39.1959645,12.5052077 39.2871094,12.3046889 39.2871094,12.03125 C39.2871094,11.7604153 39.1940113,11.5677089 39.0078125,11.453125 C38.8216137,11.3385411 38.5332051,11.28125 38.1425781,11.28125 L37.7753906,11.28125 L37.7753906,12.8242188 Z M37.7753906,13.8085938 L37.7753906,16 L36.5644531,16 L36.5644531,10.2890625 L38.2285156,10.2890625 C39.0045612,10.2890625 39.5787742,10.4303371 39.9511719,10.7128906 C40.3235696,10.9954441 40.5097656,11.4244763 40.5097656,12 C40.5097656,12.3359392 40.4173186,12.6347643 40.2324219,12.8964844 C40.0475251,13.1582044 39.785809,13.3632805 39.4472656,13.5117188 C40.3066449,14.7955793 40.8665352,15.6249981 41.1269531,16 L39.7832031,16 L38.4199219,13.8085938 L37.7753906,13.8085938 Z M45.1347656,16 L41.8457031,16 L41.8457031,10.2890625 L45.1347656,10.2890625 L45.1347656,11.28125 L43.0566406,11.28125 L43.0566406,12.5351562 L44.9902344,12.5351562 L44.9902344,13.5273438 L43.0566406,13.5273438 L43.0566406,15 L45.1347656,15 L45.1347656,16 Z M49.6972656,14.4140625 C49.6972656,14.9296901 49.5117206,15.335936 49.140625,15.6328125 C48.7695294,15.929689 48.2532585,16.078125 47.5917969,16.078125 C46.9824188,16.078125 46.4433617,15.9635428 45.9746094,15.734375 L45.9746094,14.609375 C46.360028,14.7812509 46.6861966,14.9023434 46.953125,14.9726562 C47.2200534,15.0429691 47.4641916,15.078125 47.6855469,15.078125 C47.9511732,15.078125 48.1549472,15.0273443 48.296875,14.9257812 C48.4388028,14.8242182 48.5097656,14.6731781 48.5097656,14.4726562 C48.5097656,14.3606765 48.4785159,14.2610681 48.4160156,14.1738281 C48.3535153,14.0865881 48.2617194,14.0026046 48.140625,13.921875 C48.0195306,13.8411454 47.7727883,13.7122405 47.4003906,13.5351562 C47.0514305,13.3710929 46.7897144,13.2135424 46.6152344,13.0625 C46.4407543,12.9114576 46.3014328,12.7356781 46.1972656,12.5351562 C46.0930984,12.3346344 46.0410156,12.1002618 46.0410156,11.8320312 C46.0410156,11.3268204 46.2122379,10.9296889 46.5546875,10.640625 C46.8971371,10.3515611 47.3704397,10.2070312 47.9746094,10.2070312 C48.2714859,10.2070312 48.5546862,10.2421871 48.8242188,10.3125 C49.0937513,10.3828129 49.3756496,10.4817702 49.6699219,10.609375 L49.2792969,11.5507812 C48.9746079,11.4257806 48.7226572,11.3385419 48.5234375,11.2890625 C48.3242178,11.2395831 48.1282562,11.2148438 47.9355469,11.2148438 C47.7063791,11.2148438 47.5305996,11.2682286 47.4082031,11.375 C47.2858067,11.4817714 47.2246094,11.6210929 47.2246094,11.7929688 C47.2246094,11.8997401 47.2493487,11.9928381 47.2988281,12.0722656 C47.3483075,12.1516931 47.4270828,12.2285153 47.5351562,12.3027344 C47.6432297,12.3769535 47.8990865,12.5104157 48.3027344,12.703125 C48.8365912,12.9583346 49.202473,13.2141914 49.4003906,13.4707031 C49.5983083,13.7272148 49.6972656,14.0416648 49.6972656,14.4140625 Z M52.3300781,14.34375 L52.3300781,13.3671875 L54.4277344,13.3671875 L54.4277344,14.34375 L52.3300781,14.34375 Z M59.8808594,16 L58.5058594,11.5195312 L58.4707031,11.5195312 C58.5201825,12.4309941 58.5449219,13.039061 58.5449219,13.34375 L58.5449219,16 L57.4628906,16 L57.4628906,10.2890625 L59.1113281,10.2890625 L60.4628906,14.65625 L60.4863281,14.65625 L61.9199219,10.2890625 L63.5683594,10.2890625 L63.5683594,16 L62.4394531,16 L62.4394531,13.296875 C62.4394531,13.1692702 62.4414062,13.0221362 62.4453125,12.8554688 C62.4492188,12.6888013 62.4667967,12.2460973 62.4980469,11.5273438 L62.4628906,11.5273438 L60.9902344,16 L59.8808594,16 Z M68.5019531,16 L68.0878906,14.640625 L66.0058594,14.640625 L65.5917969,16 L64.2871094,16 L66.3027344,10.265625 L67.7832031,10.265625 L69.8066406,16 L68.5019531,16 Z M67.7988281,13.625 C67.4160137,12.393223 67.2005211,11.6966154 67.1523438,11.5351562 C67.1041664,11.3736971 67.0696616,11.2460942 67.0488281,11.1523438 C66.9628902,11.4856787 66.7167989,12.3098893 66.3105469,13.625 L67.7988281,13.625 Z M72.1699219,16 L70.9589844,16 L70.9589844,11.296875 L69.4082031,11.296875 L69.4082031,10.2890625 L73.7207031,10.2890625 L73.7207031,11.296875 L72.1699219,11.296875 L72.1699219,16 Z M74.5996094,16 L74.5996094,10.2890625 L75.8105469,10.2890625 L75.8105469,16 L74.5996094,16 Z M82.3144531,16 L80.7753906,16 L78.2910156,11.6796875 L78.2558594,11.6796875 C78.3053388,12.4427121 78.3300781,12.9869775 78.3300781,13.3125 L78.3300781,16 L77.2480469,16 L77.2480469,10.2890625 L78.7753906,10.2890625 L81.2558594,14.5664062 L81.2832031,14.5664062 C81.2441404,13.824215 81.2246094,13.2994807 81.2246094,12.9921875 L81.2246094,10.2890625 L82.3144531,10.2890625 L82.3144531,16 Z M87.2480469,16 L86.8339844,14.640625 L84.7519531,14.640625 L84.3378906,16 L83.0332031,16 L85.0488281,10.265625 L86.5292969,10.265625 L88.5527344,16 L87.2480469,16 Z M86.5449219,13.625 C86.1621075,12.393223 85.9466148,11.6966154 85.8984375,11.5351562 C85.8502602,11.3736971 85.8157553,11.2460942 85.7949219,11.1523438 C85.7089839,11.4856787 85.4628927,12.3098893 85.0566406,13.625 L86.5449219,13.625 Z" id="SIQUIRRES---MATINA" fill="#FFFFFF"></path>
            </g>
        </g>
    </g>
</svg>