<?xml version="1.0" encoding="UTF-8"?>
<svg width="127px" height="27px" viewBox="0 0 127 27" version="1.1" xmlns="http://www.w3.org/2000/svg" xmlns:xlink="http://www.w3.org/1999/xlink">
    <!-- Generator: Sketch 48.2 (47327) - http://www.bohemiancoding.com/sketch -->
    <title>Group 34 Copy 2</title>
    <desc>Created with Sketch.</desc>
    <defs>
        <path d="M50.7479727,6 C49.6389521,7.89393294 49,10.1192398 49,12.5 C49,15.3140148 49.8926676,17.9108487 51.3991212,20 L7,20 C3.13400675,20 4.73447626e-16,16.8659932 0,13 C-4.73447626e-16,9.13400675 3.13400675,6 7,6 L50.7479727,6 Z M71.2520273,6 L111,6 C114.865993,6 118,9.13400675 118,13 C118,16.8659932 114.865993,20 111,20 L70.6008788,20 C72.1073324,17.9108487 73,15.3140148 73,12.5 C73,10.1192398 72.3610479,7.89393294 71.2520273,6 Z" id="path-1"></path>
        <filter x="-5.5%" y="-39.3%" width="111.0%" height="192.9%" filterUnits="objectBoundingBox" id="filter-2">
            <feOffset dx="0" dy="1" in="SourceAlpha" result="shadowOffsetOuter1"></feOffset>
            <feGaussianBlur stdDeviation="2" in="shadowOffsetOuter1" result="shadowBlurOuter1"></feGaussianBlur>
            <feColorMatrix values="0 0 0 0 0   0 0 0 0 0   0 0 0 0 0  0 0 0 0.5 0" type="matrix" in="shadowBlurOuter1"></feColorMatrix>
        </filter>
        <rect id="path-3" x="1" y="6" width="118" height="14" rx="7"></rect>
        <filter x="-5.5%" y="-39.3%" width="111.0%" height="192.9%" filterUnits="objectBoundingBox" id="filter-4">
            <feOffset dx="0" dy="1" in="SourceAlpha" result="shadowOffsetOuter1"></feOffset>
            <feGaussianBlur stdDeviation="2" in="shadowOffsetOuter1" result="shadowBlurOuter1"></feGaussianBlur>
            <feColorMatrix values="0 0 0 0 0   0 0 0 0 0   0 0 0 0 0  0 0 0 0.5 0" type="matrix" in="shadowBlurOuter1"></feColorMatrix>
        </filter>
    </defs>
    <g id="Web" stroke="none" stroke-width="1" fill="none" fill-rule="evenodd">
        <g id="Group-34-Copy-2" transform="translate(4.000000, 1.000000)">
            <g id="ic_volcano_label-copy-15">
                <circle id="Oval-2-Copy-5" stroke="#FFFFFF" stroke-width="0.5" fill="#FF6D00" cx="60.5" cy="12.5" r="12.5"></circle>
                <g id="Combined-Shape">
                    <use fill="black" fill-opacity="1" filter="url(#filter-2)" xlink:href="#path-1"></use>
                    <use fill="#263238" fill-rule="evenodd" xlink:href="#path-1"></use>
                </g>
                <g id="Rectangle-2-Copy-4">
                    <use fill="black" fill-opacity="1" filter="url(#filter-4)" xlink:href="#path-3"></use>
                    <use fill="#263238" fill-rule="evenodd" xlink:href="#path-3"></use>
                </g>
                <path d="M10.7460938,16 L9.53515625,16 L9.53515625,11.296875 L7.984375,11.296875 L7.984375,10.2890625 L12.296875,10.2890625 L12.296875,11.296875 L10.7460938,11.296875 L10.7460938,16 Z M18.1992188,13.1367188 C18.1992188,14.082036 17.9648461,14.8085912 17.4960938,15.3164062 C17.0273414,15.8242213 16.3554731,16.078125 15.4804688,16.078125 C14.6054644,16.078125 13.9335961,15.8242213 13.4648438,15.3164062 C12.9960914,14.8085912 12.7617188,14.0794318 12.7617188,13.1289062 C12.7617188,12.1783807 12.9967424,11.4524765 13.4667969,10.9511719 C13.9368513,10.4498673 14.6106727,10.1992188 15.4882812,10.1992188 C16.3658898,10.1992188 17.0371071,10.4518204 17.5019531,10.9570312 C17.9667992,11.4622421 18.1992188,12.1887973 18.1992188,13.1367188 Z M14.03125,13.1367188 C14.03125,13.7747428 14.1523425,14.2552067 14.3945312,14.578125 C14.63672,14.9010433 14.9986955,15.0625 15.4804688,15.0625 C16.4466194,15.0625 16.9296875,14.4205793 16.9296875,13.1367188 C16.9296875,11.850254 16.4492236,11.2070312 15.4882813,11.2070312 C15.006508,11.2070312 14.6432304,11.369139 14.3984375,11.6933594 C14.1536446,12.0175797 14.03125,12.4986947 14.03125,13.1367188 Z M19.3828125,10.2890625 L21.1601562,10.2890625 C21.9700561,10.2890625 22.5579409,10.4042957 22.9238281,10.6347656 C23.2897154,10.8652355 23.4726562,11.2317683 23.4726562,11.734375 C23.4726562,12.0755225 23.3925789,12.3554677 23.2324219,12.5742188 C23.0722648,12.7929698 22.8593763,12.9244789 22.59375,12.96875 L22.59375,13.0078125 C22.955731,13.0885421 23.2167961,13.2395822 23.3769531,13.4609375 C23.5371102,13.6822928 23.6171875,13.9765607 23.6171875,14.34375 C23.6171875,14.8645859 23.4290383,15.2708319 23.0527344,15.5625 C22.6764304,15.8541681 22.1653678,16 21.5195312,16 L19.3828125,16 L19.3828125,10.2890625 Z M20.59375,12.5507812 L21.296875,12.5507812 C21.6250016,12.5507812 21.8626295,12.5000005 22.0097656,12.3984375 C22.1569018,12.2968745 22.2304688,12.1289074 22.2304688,11.8945312 C22.2304688,11.6757802 22.1503914,11.5188807 21.9902344,11.4238281 C21.8300773,11.3287756 21.5768246,11.28125 21.2304688,11.28125 L20.59375,11.28125 L20.59375,12.5507812 Z M20.59375,13.5117188 L20.59375,15 L21.3828125,15 C21.7161475,15 21.9622388,14.9361986 22.1210938,14.8085938 C22.2799487,14.6809889 22.359375,14.4856784 22.359375,14.2226562 C22.359375,13.7486955 22.0208367,13.5117188 21.34375,13.5117188 L20.59375,13.5117188 Z M29.9414062,13.1367188 C29.9414062,14.082036 29.7070336,14.8085912 29.2382812,15.3164062 C28.7695289,15.8242213 28.0976606,16.078125 27.2226562,16.078125 C26.3476519,16.078125 25.6757836,15.8242213 25.2070312,15.3164062 C24.7382789,14.8085912 24.5039062,14.0794318 24.5039062,13.1289062 C24.5039062,12.1783807 24.7389299,11.4524765 25.2089844,10.9511719 C25.6790388,10.4498673 26.3528602,10.1992188 27.2304688,10.1992188 C28.1080773,10.1992188 28.7792946,10.4518204 29.2441406,10.9570312 C29.7089867,11.4622421 29.9414062,12.1887973 29.9414062,13.1367188 Z M25.7734375,13.1367188 C25.7734375,13.7747428 25.89453,14.2552067 26.1367188,14.578125 C26.3789075,14.9010433 26.740883,15.0625 27.2226562,15.0625 C28.1888069,15.0625 28.671875,14.4205793 28.671875,13.1367188 C28.671875,11.850254 28.1914111,11.2070312 27.2304688,11.2070312 C26.7486955,11.2070312 26.3854179,11.369139 26.140625,11.6933594 C25.8958321,12.0175797 25.7734375,12.4986947 25.7734375,13.1367188 Z M34.4960938,14.4140625 C34.4960938,14.9296901 34.3105487,15.335936 33.9394531,15.6328125 C33.5683575,15.929689 33.0520866,16.078125 32.390625,16.078125 C31.781247,16.078125 31.2421898,15.9635428 30.7734375,15.734375 L30.7734375,14.609375 C31.1588561,14.7812509 31.4850247,14.9023434 31.7519531,14.9726562 C32.0188815,15.0429691 32.2630197,15.078125 32.484375,15.078125 C32.7500013,15.078125 32.9537753,15.0273443 33.0957031,14.9257812 C33.2376309,14.8242182 33.3085938,14.6731781 33.3085938,14.4726562 C33.3085938,14.3606765 33.2773441,14.2610681 33.2148438,14.1738281 C33.1523434,14.0865881 33.0605475,14.0026046 32.9394531,13.921875 C32.8183588,13.8411454 32.5716164,13.7122405 32.1992188,13.5351562 C31.8502587,13.3710929 31.5885425,13.2135424 31.4140625,13.0625 C31.2395825,12.9114576 31.1002609,12.7356781 30.9960938,12.5351562 C30.8919266,12.3346344 30.8398438,12.1002618 30.8398438,11.8320312 C30.8398438,11.3268204 31.011066,10.9296889 31.3535156,10.640625 C31.6959653,10.3515611 32.1692678,10.2070312 32.7734375,10.2070312 C33.070314,10.2070312 33.3535143,10.2421871 33.6230469,10.3125 C33.8925795,10.3828129 34.1744777,10.4817702 34.46875,10.609375 L34.078125,11.5507812 C33.773436,11.4257806 33.5214854,11.3385419 33.3222656,11.2890625 C33.1230459,11.2395831 32.9270843,11.2148438 32.734375,11.2148438 C32.5052072,11.2148438 32.3294277,11.2682286 32.2070312,11.375 C32.0846348,11.4817714 32.0234375,11.6210929 32.0234375,11.7929688 C32.0234375,11.8997401 32.0481768,11.9928381 32.0976562,12.0722656 C32.1471357,12.1516931 32.2259109,12.2285153 32.3339844,12.3027344 C32.4420578,12.3769535 32.6979146,12.5104157 33.1015625,12.703125 C33.6354193,12.9583346 34.0013011,13.2141914 34.1992188,13.4707031 C34.3971364,13.7272148 34.4960938,14.0416648 34.4960938,14.4140625 Z M35.53125,16 L35.53125,10.2890625 L36.7421875,10.2890625 L36.7421875,16 L35.53125,16 Z M37.6992188,14.34375 L37.6992188,13.3671875 L39.796875,13.3671875 L39.796875,14.34375 L37.6992188,14.34375 Z M42.6367188,16 L41.4257812,16 L41.4257812,11.296875 L39.875,11.296875 L39.875,10.2890625 L44.1875,10.2890625 L44.1875,11.296875 L42.6367188,11.296875 L42.6367188,16 Z M48.0039063,16 L47.5898438,14.640625 L45.5078125,14.640625 L45.09375,16 L43.7890625,16 L45.8046875,10.265625 L47.2851563,10.265625 L49.3085938,16 L48.0039063,16 Z M47.3007813,13.625 C46.9179668,12.393223 46.7024742,11.6966154 46.6542969,11.5351562 C46.6061196,11.3736971 46.5716147,11.2460942 46.5507813,11.1523438 C46.4648433,11.4856787 46.218752,12.3098893 45.8125,13.625 L47.3007813,13.625 Z M50.0273438,10.2890625 L51.8046875,10.2890625 C52.6145874,10.2890625 53.2024721,10.4042957 53.5683594,10.6347656 C53.9342466,10.8652355 54.1171875,11.2317683 54.1171875,11.734375 C54.1171875,12.0755225 54.0371102,12.3554677 53.8769531,12.5742188 C53.7167961,12.7929698 53.5039076,12.9244789 53.2382813,12.96875 L53.2382813,13.0078125 C53.6002622,13.0885421 53.8613273,13.2395822 54.0214844,13.4609375 C54.1816414,13.6822928 54.2617188,13.9765607 54.2617188,14.34375 C54.2617188,14.8645859 54.0735696,15.2708319 53.6972656,15.5625 C53.3209617,15.8541681 52.8098991,16 52.1640625,16 L50.0273438,16 L50.0273438,10.2890625 Z M51.2382813,12.5507812 L51.9414063,12.5507812 C52.2695329,12.5507812 52.5071607,12.5000005 52.6542969,12.3984375 C52.801433,12.2968745 52.875,12.1289074 52.875,11.8945312 C52.875,11.6757802 52.7949227,11.5188807 52.6347656,11.4238281 C52.4746086,11.3287756 52.2213559,11.28125 51.875,11.28125 L51.2382813,11.28125 L51.2382813,12.5507812 Z M51.2382813,13.5117188 L51.2382813,15 L52.0273438,15 C52.3606788,15 52.60677,14.9361986 52.765625,14.8085938 C52.92448,14.6809889 53.0039063,14.4856784 53.0039063,14.2226562 C53.0039063,13.7486955 52.665368,13.5117188 51.9882813,13.5117188 L51.2382813,13.5117188 Z M55.4023438,16 L55.4023438,10.2890625 L56.6132812,10.2890625 L56.6132812,15 L58.9296875,15 L58.9296875,16 L55.4023438,16 Z M64.9453125,13.1367188 C64.9453125,14.082036 64.7109398,14.8085912 64.2421875,15.3164062 C63.7734352,15.8242213 63.1015669,16.078125 62.2265625,16.078125 C61.3515581,16.078125 60.6796898,15.8242213 60.2109375,15.3164062 C59.7421852,14.8085912 59.5078125,14.0794318 59.5078125,13.1289062 C59.5078125,12.1783807 59.7428362,11.4524765 60.2128906,10.9511719 C60.6829451,10.4498673 61.3567664,10.1992188 62.234375,10.1992188 C63.1119836,10.1992188 63.7832008,10.4518204 64.2480469,10.9570312 C64.7128929,11.4622421 64.9453125,12.1887973 64.9453125,13.1367188 Z M60.7773438,13.1367188 C60.7773438,13.7747428 60.8984363,14.2552067 61.140625,14.578125 C61.3828137,14.9010433 61.7447893,15.0625 62.2265625,15.0625 C63.1927132,15.0625 63.6757813,14.4205793 63.6757813,13.1367188 C63.6757813,11.850254 63.1953173,11.2070312 62.234375,11.2070312 C61.7526018,11.2070312 61.3893241,11.369139 61.1445313,11.6933594 C60.8997384,12.0175797 60.7773438,12.4986947 60.7773438,13.1367188 Z M61.6132812,9.83203125 L61.6132812,9.7265625 C62.0612002,9.20572656 62.3671867,8.8138034 62.53125,8.55078125 L63.8671875,8.55078125 L63.8671875,8.6328125 C63.7317702,8.76822984 63.5006527,8.96939971 63.1738281,9.23632812 C62.8470036,9.50325654 62.5911468,9.70182227 62.40625,9.83203125 L61.6132812,9.83203125 Z M71.1953125,16 L69.65625,16 L67.171875,11.6796875 L67.1367188,11.6796875 C67.1861982,12.4427121 67.2109375,12.9869775 67.2109375,13.3125 L67.2109375,16 L66.1289062,16 L66.1289062,10.2890625 L67.65625,10.2890625 L70.1367188,14.5664062 L70.1640625,14.5664062 C70.1249998,13.824215 70.1054688,13.2994807 70.1054688,12.9921875 L70.1054688,10.2890625 L71.1953125,10.2890625 L71.1953125,16 Z M72.1523438,14.34375 L72.1523438,13.3671875 L74.25,13.3671875 L74.25,14.34375 L72.1523438,14.34375 Z M78.703125,16 L78.2890625,14.640625 L76.2070313,14.640625 L75.7929688,16 L74.4882813,16 L76.5039063,10.265625 L77.984375,10.265625 L80.0078125,16 L78.703125,16 Z M78,13.625 C77.6171856,12.393223 77.4016929,11.6966154 77.3535156,11.5351562 C77.3053383,11.3736971 77.2708334,11.2460942 77.25,11.1523438 C77.1640621,11.4856787 76.9179708,12.3098893 76.5117188,13.625 L78,13.625 Z M80.7265625,16 L80.7265625,10.2890625 L81.9375,10.2890625 L81.9375,15 L84.2539062,15 L84.2539062,16 L80.7265625,16 Z M89.8164063,10.2890625 L89.8164063,13.984375 C89.8164063,14.4062521 89.7220062,14.7760401 89.5332031,15.09375 C89.3444001,15.4114599 89.0716164,15.6549471 88.7148438,15.8242188 C88.3580711,15.9934904 87.9362004,16.078125 87.4492188,16.078125 C86.7148401,16.078125 86.1445333,15.8899758 85.7382813,15.5136719 C85.3320292,15.1373679 85.1289063,14.6223991 85.1289063,13.96875 L85.1289063,10.2890625 L86.3359375,10.2890625 L86.3359375,13.7851562 C86.3359375,14.2252626 86.4244783,14.5481761 86.6015625,14.7539062 C86.7786467,14.9596364 87.0716125,15.0625 87.4804688,15.0625 C87.8763041,15.0625 88.1634106,14.9589854 88.3417969,14.7519531 C88.5201832,14.5449208 88.609375,14.2200543 88.609375,13.7773438 L88.609375,10.2890625 L89.8164063,10.2890625 Z M93.6328125,16 L92.2578125,11.5195312 L92.2226562,11.5195312 C92.2721357,12.4309941 92.296875,13.039061 92.296875,13.34375 L92.296875,16 L91.2148438,16 L91.2148438,10.2890625 L92.8632812,10.2890625 L94.2148438,14.65625 L94.2382812,14.65625 L95.671875,10.2890625 L97.3203125,10.2890625 L97.3203125,16 L96.1914062,16 L96.1914062,13.296875 C96.1914062,13.1692702 96.1933594,13.0221362 96.1972656,12.8554688 C96.2011719,12.6888013 96.2187498,12.2460973 96.25,11.5273438 L96.2148438,11.5273438 L94.7421875,16 L93.6328125,16 Z M98.7578125,10.2890625 L100.535156,10.2890625 C101.345056,10.2890625 101.932941,10.4042957 102.298828,10.6347656 C102.664715,10.8652355 102.847656,11.2317683 102.847656,11.734375 C102.847656,12.0755225 102.767579,12.3554677 102.607422,12.5742188 C102.447265,12.7929698 102.234376,12.9244789 101.96875,12.96875 L101.96875,13.0078125 C102.330731,13.0885421 102.591796,13.2395822 102.751953,13.4609375 C102.91211,13.6822928 102.992188,13.9765607 102.992188,14.34375 C102.992188,14.8645859 102.804038,15.2708319 102.427734,15.5625 C102.05143,15.8541681 101.540368,16 100.894531,16 L98.7578125,16 L98.7578125,10.2890625 Z M99.96875,12.5507812 L100.671875,12.5507812 C101.000002,12.5507812 101.237629,12.5000005 101.384766,12.3984375 C101.531902,12.2968745 101.605469,12.1289074 101.605469,11.8945312 C101.605469,11.6757802 101.525391,11.5188807 101.365234,11.4238281 C101.205077,11.3287756 100.951825,11.28125 100.605469,11.28125 L99.96875,11.28125 L99.96875,12.5507812 Z M99.96875,13.5117188 L99.96875,15 L100.757813,15 C101.091148,15 101.337239,14.9361986 101.496094,14.8085938 C101.654949,14.6809889 101.734375,14.4856784 101.734375,14.2226562 C101.734375,13.7486955 101.395837,13.5117188 100.71875,13.5117188 L99.96875,13.5117188 Z M105.34375,12.8242188 L105.734375,12.8242188 C106.117189,12.8242188 106.399739,12.7604173 106.582031,12.6328125 C106.764324,12.5052077 106.855469,12.3046889 106.855469,12.03125 C106.855469,11.7604153 106.762371,11.5677089 106.576172,11.453125 C106.389973,11.3385411 106.101564,11.28125 105.710938,11.28125 L105.34375,11.28125 L105.34375,12.8242188 Z M105.34375,13.8085938 L105.34375,16 L104.132813,16 L104.132813,10.2890625 L105.796875,10.2890625 C106.572921,10.2890625 107.147134,10.4303371 107.519531,10.7128906 C107.891929,10.9954441 108.078125,11.4244763 108.078125,12 C108.078125,12.3359392 107.985678,12.6347643 107.800781,12.8964844 C107.615884,13.1582044 107.354168,13.3632805 107.015625,13.5117188 C107.875004,14.7955793 108.434895,15.6249981 108.695313,16 L107.351563,16 L105.988281,13.8085938 L105.34375,13.8085938 Z M112.703125,16 L109.414062,16 L109.414062,10.2890625 L112.703125,10.2890625 L112.703125,11.28125 L110.625,11.28125 L110.625,12.5351562 L112.558594,12.5351562 L112.558594,13.5273438 L110.625,13.5273438 L110.625,15 L112.703125,15 L112.703125,16 Z" id="TOBOSI-TABLÓN-ALUMBR" fill="#FFFFFF"></path>
            </g>
        </g>
    </g>
</svg>