<?xml version="1.0" encoding="UTF-8"?>
<svg width="65px" height="27px" viewBox="0 0 65 27" version="1.1" xmlns="http://www.w3.org/2000/svg" xmlns:xlink="http://www.w3.org/1999/xlink">
    <!-- Generator: Sketch 48.2 (47327) - http://www.bohemiancoding.com/sketch -->
    <title>Group 28 Copy 6</title>
    <desc>Created with Sketch.</desc>
    <defs>
        <path d="M17.8208049,6 C16.6655751,7.89393294 16,10.1192398 16,12.5 C16,15.3140148 16.9298621,17.9108487 18.4990845,20 L7,20 C3.13400675,20 4.73447626e-16,16.8659932 0,13 C-4.73447626e-16,9.13400675 3.13400675,6 7,6 L17.8208049,6 Z M39.1791951,6 L50,6 C53.8659932,6 57,9.13400675 57,13 C57,16.8659932 53.8659932,20 50,20 L38.5009155,20 C40.0701379,17.9108487 41,15.3140148 41,12.5 C41,10.1192398 40.3344249,7.89393294 39.1791951,6 Z" id="path-1"></path>
        <filter x="-11.4%" y="-39.3%" width="122.8%" height="192.9%" filterUnits="objectBoundingBox" id="filter-2">
            <feOffset dx="0" dy="1" in="SourceAlpha" result="shadowOffsetOuter1"></feOffset>
            <feGaussianBlur stdDeviation="2" in="shadowOffsetOuter1" result="shadowBlurOuter1"></feGaussianBlur>
            <feColorMatrix values="0 0 0 0 0   0 0 0 0 0   0 0 0 0 0  0 0 0 0.5 0" type="matrix" in="shadowBlurOuter1"></feColorMatrix>
        </filter>
    </defs>
    <g id="Web" stroke="none" stroke-width="1" fill="none" fill-rule="evenodd">
        <g id="Group-28-Copy-6" transform="translate(4.000000, 1.000000)">
            <g id="ic_volcano_label-copy-19">
                <g id="Group-Copy-3" transform="translate(16.000000, 0.000000)">
                    <g id="Group-26-Copy-4"></g>
                </g>
                <circle id="Oval-2-Copy-5" stroke="#FFFFFF" stroke-width="0.5" fill="#FF6D00" cx="28.5" cy="12.5" r="12.5"></circle>
                <g id="Combined-Shape">
                    <use fill="black" fill-opacity="1" filter="url(#filter-2)" xlink:href="#path-1"></use>
                    <use fill="#263238" fill-rule="evenodd" xlink:href="#path-1"></use>
                </g>
                <rect id="Rectangle-2-Copy-4" fill="#263238" x="0" y="6" width="57" height="14" rx="7"></rect>
                <path d="M24.2148438,15.734375 L23.8007812,14.375 L21.71875,14.375 L21.3046875,15.734375 L20,15.734375 L22.015625,10 L23.4960938,10 L25.5195312,15.734375 L24.2148438,15.734375 Z M23.5117188,13.359375 C23.1289043,12.127598 22.9134117,11.4309904 22.8652344,11.2695312 C22.8170571,11.1080721 22.7825522,10.9804692 22.7617188,10.8867188 C22.6757808,11.2200537 22.4296895,12.0442643 22.0234375,13.359375 L23.5117188,13.359375 Z M27.5351562,12.375 L28.7265625,10.0234375 L30.03125,10.0234375 L28.1367188,13.5117188 L28.1367188,15.734375 L26.9335938,15.734375 L26.9335938,13.5507812 L25.0390625,10.0234375 L26.3515625,10.0234375 L27.5351562,12.375 Z M30.75,15.734375 L30.75,10.0234375 L31.9609375,10.0234375 L31.9609375,15.734375 L30.75,15.734375 Z M33.3984375,15.734375 L33.3984375,10.0234375 L34.609375,10.0234375 L34.609375,14.734375 L36.9257812,14.734375 L36.9257812,15.734375 L33.3984375,15.734375 Z" id="AYIL" fill="#FFFFFF"></path>
            </g>
        </g>
    </g>
</svg>