<?xml version="1.0" encoding="UTF-8"?>
<svg width="78px" height="41px" viewBox="0 0 78 41" version="1.1" xmlns="http://www.w3.org/2000/svg" xmlns:xlink="http://www.w3.org/1999/xlink">
    <!-- Generator: Sketch 48.2 (47327) - http://www.bohemiancoding.com/sketch -->
    <title>AGUA_ZARCAS</title>
    <desc>Created with Sketch.</desc>
    <defs>
        <polygon id="path-1" points="7.62968209e-05 0.0820178694 33.4861189 0.0820178694 33.4861189 22.7079038 7.62968209e-05 22.7079038"></polygon>
        <rect id="path-3" x="0" y="22" width="70" height="14" rx="7"></rect>
        <filter x="-9.3%" y="-39.3%" width="118.6%" height="192.9%" filterUnits="objectBoundingBox" id="filter-4">
            <feOffset dx="0" dy="1" in="SourceAlpha" result="shadowOffsetOuter1"></feOffset>
            <feGaussianBlur stdDeviation="2" in="shadowOffsetOuter1" result="shadowBlurOuter1"></feGaussianBlur>
            <feColorMatrix values="0 0 0 0 0   0 0 0 0 0   0 0 0 0 0  0 0 0 0.5 0" type="matrix" in="shadowBlurOuter1"></feColorMatrix>
        </filter>
    </defs>
    <g id="Volcanes-fallas" stroke="none" stroke-width="1" fill="none" fill-rule="evenodd">
        <g id="AGUA_ZARCAS" transform="translate(4.000000, 0.000000)">
            <g id="Page-1-Copy-2" transform="translate(18.000000, 0.000000)">
                <g id="Group-3" transform="translate(0.000000, 0.003849)">
                    <mask id="mask-2" fill="white">
                        <use xlink:href="#path-1"></use>
                    </mask>
                    <g id="Clip-2"></g>
                    <path d="M33.4237819,21.9839835 C30.984388,17.6533168 28.544605,13.3226502 26.1052111,8.99159863 C24.4767435,6.10115189 22.848665,3.21070515 21.2201974,0.320258419 C21.1373149,0.173234364 20.9688259,0.0820178694 20.8003369,0.0820178694 L12.6860155,0.0820178694 C12.5171374,0.0820178694 12.3490375,0.173234364 12.2657658,0.320258419 C8.19829346,7.54137182 4.13043199,14.7628701 0.0625705113,21.9839835 C-0.116035612,22.3007395 0.108097562,22.7079423 0.482431094,22.7079423 L33.0039213,22.7079423 C33.3782548,22.7079423 33.602388,22.3007395 33.4237819,21.9839835" id="Fill-1" fill="#FF6D00" mask="url(#mask-2)"></path>
                </g>
            </g>
            <path d="M31.4944112,5 L26,14.7371169" id="Line" stroke="#FFFFFF" stroke-linecap="round"></path>
            <path d="M31.4944112,10 L27.5,17.5" id="Line-Copy-2" stroke="#FFFFFF" stroke-linecap="round"></path>
            <path d="M42.5,13.5 L47.5,23.5" id="Line-Copy" stroke="#FFFFFF" stroke-linecap="round"></path>
            <path d="M40.5,9.5 L41.5,11.5" id="Line" stroke="#FFFFFF" stroke-linecap="round"></path>
            <g id="Rectangle-2-Copy-4">
                <use fill="black" fill-opacity="1" filter="url(#filter-4)" xlink:href="#path-3"></use>
                <use fill="#263238" fill-rule="evenodd" xlink:href="#path-3"></use>
            </g>
            <path d="M11.6269531,32 L11.2128906,30.640625 L9.13085938,30.640625 L8.71679688,32 L7.41210938,32 L9.42773438,26.265625 L10.9082031,26.265625 L12.9316406,32 L11.6269531,32 Z M10.9238281,29.625 C10.5410137,28.393223 10.3255211,27.6966154 10.2773438,27.5351562 C10.2291664,27.3736971 10.1946616,27.2460942 10.1738281,27.1523438 C10.0878902,27.4856787 9.84179891,28.3098893 9.43554688,29.625 L10.9238281,29.625 Z M15.6582031,28.7929688 L17.9238281,28.7929688 L17.9238281,31.7539062 C17.5566388,31.8736985 17.2109391,31.9576821 16.8867188,32.0058594 C16.5624984,32.0540367 16.2311215,32.078125 15.8925781,32.078125 C15.0305946,32.078125 14.3723981,31.8248723 13.9179688,31.3183594 C13.4635394,30.8118464 13.2363281,30.0846402 13.2363281,29.1367188 C13.2363281,28.2148391 13.4999974,27.4960963 14.0273438,26.9804688 C14.5546901,26.4648412 15.2858026,26.2070312 16.2207031,26.2070312 C16.8066436,26.2070312 17.3717421,26.3242176 17.9160156,26.5585938 L17.5136719,27.5273438 C17.0970031,27.3190094 16.6634137,27.2148438 16.2128906,27.2148438 C15.6894505,27.2148438 15.2701839,27.3906232 14.9550781,27.7421875 C14.6399724,28.0937518 14.4824219,28.5664033 14.4824219,29.1601562 C14.4824219,29.779951 14.6093737,30.2532536 14.8632812,30.5800781 C15.1171888,30.9069027 15.4863257,31.0703125 15.9707031,31.0703125 C16.2233086,31.0703125 16.4798164,31.0442711 16.7402344,30.9921875 L16.7402344,29.8007812 L15.6582031,29.8007812 L15.6582031,28.7929688 Z M23.9316406,26.2890625 L23.9316406,29.984375 C23.9316406,30.4062521 23.8372405,30.7760401 23.6484375,31.09375 C23.4596345,31.4114599 23.1868507,31.6549471 22.8300781,31.8242188 C22.4733055,31.9934904 22.0514347,32.078125 21.5644531,32.078125 C20.8300745,32.078125 20.2597677,31.8899758 19.8535156,31.5136719 C19.4472636,31.1373679 19.2441406,30.6223991 19.2441406,29.96875 L19.2441406,26.2890625 L20.4511719,26.2890625 L20.4511719,29.7851562 C20.4511719,30.2252626 20.5397127,30.5481761 20.7167969,30.7539062 C20.8938811,30.9596364 21.1868469,31.0625 21.5957031,31.0625 C21.9915384,31.0625 22.2786449,30.9589854 22.4570312,30.7519531 C22.6354176,30.5449208 22.7246094,30.2200543 22.7246094,29.7773438 L22.7246094,26.2890625 L23.9316406,26.2890625 Z M28.7480469,32 L28.3339844,30.640625 L26.2519531,30.640625 L25.8378906,32 L24.5332031,32 L26.5488281,26.265625 L28.0292969,26.265625 L30.0527344,32 L28.7480469,32 Z M28.0449219,29.625 C27.6621075,28.393223 27.4466148,27.6966154 27.3984375,27.5351562 C27.3502602,27.3736971 27.3157553,27.2460942 27.2949219,27.1523438 C27.2089839,27.4856787 26.9628927,28.3098893 26.5566406,29.625 L28.0449219,29.625 Z M36.5722656,32 L32.3222656,32 L32.3222656,31.2148438 L35.0605469,27.2890625 L32.3964844,27.2890625 L32.3964844,26.2890625 L36.4980469,26.2890625 L36.4980469,27.0703125 L33.7636719,31 L36.5722656,31 L36.5722656,32 Z M40.9785156,32 L40.5644531,30.640625 L38.4824219,30.640625 L38.0683594,32 L36.7636719,32 L38.7792969,26.265625 L40.2597656,26.265625 L42.2832031,32 L40.9785156,32 Z M40.2753906,29.625 C39.8925762,28.393223 39.6770836,27.6966154 39.6289062,27.5351562 C39.5807289,27.3736971 39.5462241,27.2460942 39.5253906,27.1523438 C39.4394527,27.4856787 39.1933614,28.3098893 38.7871094,29.625 L40.2753906,29.625 Z M44.2128906,28.8242188 L44.6035156,28.8242188 C44.98633,28.8242188 45.2688793,28.7604173 45.4511719,28.6328125 C45.6334645,28.5052077 45.7246094,28.3046889 45.7246094,28.03125 C45.7246094,27.7604153 45.6315113,27.5677089 45.4453125,27.453125 C45.2591137,27.3385411 44.9707051,27.28125 44.5800781,27.28125 L44.2128906,27.28125 L44.2128906,28.8242188 Z M44.2128906,29.8085938 L44.2128906,32 L43.0019531,32 L43.0019531,26.2890625 L44.6660156,26.2890625 C45.4420612,26.2890625 46.0162742,26.4303371 46.3886719,26.7128906 C46.7610696,26.9954441 46.9472656,27.4244763 46.9472656,28 C46.9472656,28.3359392 46.8548186,28.6347643 46.6699219,28.8964844 C46.4850251,29.1582044 46.223309,29.3632805 45.8847656,29.5117188 C46.7441449,30.7955793 47.3040352,31.6249981 47.5644531,32 L46.2207031,32 L44.8574219,29.8085938 L44.2128906,29.8085938 Z M50.7089844,27.2148438 C50.2532529,27.2148438 49.9003919,27.386066 49.6503906,27.7285156 C49.4003894,28.0709653 49.2753906,28.548174 49.2753906,29.1601562 C49.2753906,30.4336001 49.7532504,31.0703125 50.7089844,31.0703125 C51.110028,31.0703125 51.5957003,30.9700531 52.1660156,30.7695312 L52.1660156,31.7851562 C51.6972633,31.9804697 51.173831,32.078125 50.5957031,32.078125 C49.7649698,32.078125 49.1295595,31.8261744 48.6894531,31.3222656 C48.2493468,30.8183569 48.0292969,30.0950568 48.0292969,29.1523438 C48.0292969,28.5585908 48.1373687,28.0384137 48.3535156,27.5917969 C48.5696625,27.1451801 48.8802063,26.8027356 49.2851562,26.5644531 C49.6901062,26.3261707 50.1647108,26.2070312 50.7089844,26.2070312 C51.2636746,26.2070312 51.8209607,26.3411445 52.3808594,26.609375 L51.9902344,27.59375 C51.7766916,27.492187 51.56185,27.4036462 51.3457031,27.328125 C51.1295562,27.2526038 50.9173187,27.2148438 50.7089844,27.2148438 Z M56.8769531,32 L56.4628906,30.640625 L54.3808594,30.640625 L53.9667969,32 L52.6621094,32 L54.6777344,26.265625 L56.1582031,26.265625 L58.1816406,32 L56.8769531,32 Z M56.1738281,29.625 C55.7910137,28.393223 55.5755211,27.6966154 55.5273437,27.5351562 C55.4791664,27.3736971 55.4446616,27.2460942 55.4238281,27.1523438 C55.3378902,27.4856787 55.0917989,28.3098893 54.6855469,29.625 L56.1738281,29.625 Z M62.2714844,30.4140625 C62.2714844,30.9296901 62.0859394,31.335936 61.7148438,31.6328125 C61.3437481,31.929689 60.8274773,32.078125 60.1660156,32.078125 C59.5566376,32.078125 59.0175805,31.9635428 58.5488281,31.734375 L58.5488281,30.609375 C58.9342467,30.7812509 59.2604153,30.9023434 59.5273438,30.9726562 C59.7942722,31.0429691 60.0384104,31.078125 60.2597656,31.078125 C60.525392,31.078125 60.729166,31.0273443 60.8710938,30.9257812 C61.0130215,30.8242182 61.0839844,30.6731781 61.0839844,30.4726562 C61.0839844,30.3606765 61.0527347,30.2610681 60.9902344,30.1738281 C60.9277341,30.0865881 60.8359381,30.0026046 60.7148438,29.921875 C60.5937494,29.8411454 60.3470071,29.7122405 59.9746094,29.5351562 C59.6256493,29.3710929 59.3639332,29.2135424 59.1894531,29.0625 C59.0149731,28.9114576 58.8756516,28.7356781 58.7714844,28.5351562 C58.6673172,28.3346344 58.6152344,28.1002618 58.6152344,27.8320312 C58.6152344,27.3268204 58.7864566,26.9296889 59.1289062,26.640625 C59.4713559,26.3515611 59.9446584,26.2070312 60.5488281,26.2070312 C60.8457046,26.2070312 61.1289049,26.2421871 61.3984375,26.3125 C61.6679701,26.3828129 61.9498683,26.4817702 62.2441406,26.609375 L61.8535156,27.5507812 C61.5488266,27.4257806 61.296876,27.3385419 61.0976562,27.2890625 C60.8984365,27.2395831 60.7024749,27.2148438 60.5097656,27.2148438 C60.2805978,27.2148438 60.1048183,27.2682286 59.9824219,27.375 C59.8600254,27.4817714 59.7988281,27.6210929 59.7988281,27.7929688 C59.7988281,27.8997401 59.8235675,27.9928381 59.8730469,28.0722656 C59.9225263,28.1516931 60.0013015,28.2285153 60.109375,28.3027344 C60.2174485,28.3769535 60.4733053,28.5104157 60.8769531,28.703125 C61.41081,28.9583346 61.7766917,29.2141914 61.9746094,29.4707031 C62.172527,29.7272148 62.2714844,30.0416648 62.2714844,30.4140625 Z" id="AGUA-ZARCAS" fill="#FFFFFF"></path>
        </g>
    </g>
</svg>