<?xml version="1.0" encoding="UTF-8"?>
<svg width="61px" height="57px" viewBox="0 0 61 57" version="1.1" xmlns="http://www.w3.org/2000/svg" xmlns:xlink="http://www.w3.org/1999/xlink">
    <!-- Generator: Sketch 48.2 (47327) - http://www.bohemiancoding.com/sketch -->
    <title>ARENAL</title>
    <desc>Created with Sketch.</desc>
    <defs>
        <polygon id="path-1" points="7.62968209e-05 0.0820178694 33.4861189 0.0820178694 33.4861189 22.7079038 7.62968209e-05 22.7079038"></polygon>
        <polygon id="path-3" points="0.0333598711 0.052173913 12.9893383 0.052173913 12.9893383 14.9285217 0.0333598711 14.9285217"></polygon>
        <rect id="path-5" x="0" y="38" width="53" height="14" rx="7"></rect>
        <filter x="-12.3%" y="-39.3%" width="124.5%" height="192.9%" filterUnits="objectBoundingBox" id="filter-6">
            <feOffset dx="0" dy="1" in="SourceAlpha" result="shadowOffsetOuter1"></feOffset>
            <feGaussianBlur stdDeviation="2" in="shadowOffsetOuter1" result="shadowBlurOuter1"></feGaussianBlur>
            <feColorMatrix values="0 0 0 0 0   0 0 0 0 0   0 0 0 0 0  0 0 0 0.5 0" type="matrix" in="shadowBlurOuter1"></feColorMatrix>
        </filter>
    </defs>
    <g id="Volcanes-fallas" stroke="none" stroke-width="1" fill="none" fill-rule="evenodd">
        <g id="ARENAL" transform="translate(4.000000, 0.000000)">
            <g id="Page-1-Copy-2" transform="translate(10.000000, 0.000000)">
                <g id="Group-3" transform="translate(0.000000, 16.003849)">
                    <mask id="mask-2" fill="white">
                        <use xlink:href="#path-1"></use>
                    </mask>
                    <g id="Clip-2"></g>
                    <path d="M33.4237819,21.9839835 C30.984388,17.6533168 28.544605,13.3226502 26.1052111,8.99159863 C24.4767435,6.10115189 22.848665,3.21070515 21.2201974,0.320258419 C21.1373149,0.173234364 20.9688259,0.0820178694 20.8003369,0.0820178694 L12.6860155,0.0820178694 C12.5171374,0.0820178694 12.3490375,0.173234364 12.2657658,0.320258419 C8.19829346,7.54137182 4.13043199,14.7628701 0.0625705113,21.9839835 C-0.116035612,22.3007395 0.108097562,22.7079423 0.482431094,22.7079423 L33.0039213,22.7079423 C33.3782548,22.7079423 33.602388,22.3007395 33.4237819,21.9839835" id="Fill-1" fill="#FF6D00" mask="url(#mask-2)"></path>
                </g>
                <g id="Group-8" transform="translate(10.000000, 0.000000)">
                    <mask id="mask-4" fill="white">
                        <use xlink:href="#path-3"></use>
                    </mask>
                    <g id="Clip-7"></g>
                    <path d="M12.2268683,4.77156522 C12.4600017,2.66591304 10.6406517,0.975913043 8.573435,1.52156522 C6.23516833,-1.35930435 1.35496833,0.257 1.576835,4.10243478 C-0.983298333,5.517 -0.214131667,9.54417391 2.81855167,9.61656522 C3.54156833,11.2974348 4.26436833,12.9783043 4.987385,14.6593913 C5.06040167,14.8289565 5.28226833,14.9285217 5.45516833,14.9285217 L7.55705167,14.9285217 C7.729735,14.9285217 7.95181833,14.8289565 8.024835,14.6593913 L9.799985,10.5317826 C12.6818683,10.4104783 13.9077683,6.95569565 12.2268683,4.77156522" id="Fill-6" fill="#FF6D00" mask="url(#mask-4)"></path>
                </g>
                <path d="M19.0045947,3.00099981 C19.9085797,3.03927535 20.5284089,4.03289936 20.2867958,5.1103336 C20.2103268,5.45195373 20.6431123,5.5977967 20.7195812,5.25639655 C21.0399969,3.82678342 20.197941,2.5016581 19.0045947,2.451064 C18.7157719,2.43874544 18.7161309,2.98868125 19.0045947,3.00099981" id="Fill-9" stroke="#FFFFFF" stroke-width="0.4" fill="#FFFFFF" transform="translate(19.788112, 3.950860) rotate(-12.000000) translate(-19.788112, -3.950860) "></path>
            </g>
            <path d="M23.4944112,21 L18,30.7371169" id="Line" stroke="#FFFFFF" stroke-linecap="round"></path>
            <path d="M23.4944112,26 L19.5,33.5" id="Line-Copy-2" stroke="#FFFFFF" stroke-linecap="round"></path>
            <path d="M34.5,29.5 L39.5,39.5" id="Line-Copy" stroke="#FFFFFF" stroke-linecap="round"></path>
            <path d="M32.5,25.5 L33.5,27.5" id="Line" stroke="#FFFFFF" stroke-linecap="round"></path>
            <g id="Rectangle-2-Copy-4">
                <use fill="black" fill-opacity="1" filter="url(#filter-6)" xlink:href="#path-5"></use>
                <use fill="#263238" fill-rule="evenodd" xlink:href="#path-5"></use>
            </g>
            <path d="M14.8027344,48 L14.3886719,46.640625 L12.3066406,46.640625 L11.8925781,48 L10.5878906,48 L12.6035156,42.265625 L14.0839844,42.265625 L16.1074219,48 L14.8027344,48 Z M14.0996094,45.625 C13.716795,44.393223 13.5013023,43.6966154 13.453125,43.5351562 C13.4049477,43.3736971 13.3704428,43.2460942 13.3496094,43.1523438 C13.2636714,43.4856787 13.0175802,44.3098893 12.6113281,45.625 L14.0996094,45.625 Z M18.0371094,44.8242188 L18.4277344,44.8242188 C18.8105488,44.8242188 19.093098,44.7604173 19.2753906,44.6328125 C19.4576832,44.5052077 19.5488281,44.3046889 19.5488281,44.03125 C19.5488281,43.7604153 19.4557301,43.5677089 19.2695312,43.453125 C19.0833324,43.3385411 18.7949238,43.28125 18.4042969,43.28125 L18.0371094,43.28125 L18.0371094,44.8242188 Z M18.0371094,45.8085938 L18.0371094,48 L16.8261719,48 L16.8261719,42.2890625 L18.4902344,42.2890625 C19.2662799,42.2890625 19.8404929,42.4303371 20.2128906,42.7128906 C20.5852883,42.9954441 20.7714844,43.4244763 20.7714844,44 C20.7714844,44.3359392 20.6790374,44.6347643 20.4941406,44.8964844 C20.3092439,45.1582044 20.0475277,45.3632805 19.7089844,45.5117188 C20.5683637,46.7955793 21.1282539,47.6249981 21.3886719,48 L20.0449219,48 L18.6816406,45.8085938 L18.0371094,45.8085938 Z M25.3964844,48 L22.1074219,48 L22.1074219,42.2890625 L25.3964844,42.2890625 L25.3964844,43.28125 L23.3183594,43.28125 L23.3183594,44.5351562 L25.2519531,44.5351562 L25.2519531,45.5273438 L23.3183594,45.5273438 L23.3183594,47 L25.3964844,47 L25.3964844,48 Z M31.6542969,48 L30.1152344,48 L27.6308594,43.6796875 L27.5957031,43.6796875 C27.6451825,44.4427121 27.6699219,44.9869775 27.6699219,45.3125 L27.6699219,48 L26.5878906,48 L26.5878906,42.2890625 L28.1152344,42.2890625 L30.5957031,46.5664062 L30.6230469,46.5664062 C30.5839842,45.824215 30.5644531,45.2994807 30.5644531,44.9921875 L30.5644531,42.2890625 L31.6542969,42.2890625 L31.6542969,48 Z M36.5878906,48 L36.1738281,46.640625 L34.0917969,46.640625 L33.6777344,48 L32.3730469,48 L34.3886719,42.265625 L35.8691406,42.265625 L37.8925781,48 L36.5878906,48 Z M35.8847656,45.625 C35.5019512,44.393223 35.2864586,43.6966154 35.2382812,43.5351562 C35.1901039,43.3736971 35.1555991,43.2460942 35.1347656,43.1523438 C35.0488277,43.4856787 34.8027364,44.3098893 34.3964844,45.625 L35.8847656,45.625 Z M38.6113281,48 L38.6113281,42.2890625 L39.8222656,42.2890625 L39.8222656,47 L42.1386719,47 L42.1386719,48 L38.6113281,48 Z" fill="#FFFFFF"></path>
        </g>
    </g>
</svg>