<?xml version="1.0" encoding="UTF-8"?>
<svg width="61px" height="58px" viewBox="0 0 61 58" version="1.1" xmlns="http://www.w3.org/2000/svg" xmlns:xlink="http://www.w3.org/1999/xlink">
    <!-- Generator: Sketch 48.2 (47327) - http://www.bohemiancoding.com/sketch -->
    <title>arenal</title>
    <desc>Created with Sketch.</desc>
    <defs>
        <polygon id="path-1" points="7.62968209e-05 0.0820178694 33.4861189 0.0820178694 33.4861189 22.7079038 7.62968209e-05 22.7079038"></polygon>
        <polygon id="path-3" points="0.0333598711 0.052173913 12.9893383 0.052173913 12.9893383 14.9285217 0.0333598711 14.9285217"></polygon>
        <rect id="path-5" x="0" y="39" width="53" height="14" rx="7"></rect>
        <filter x="-12.3%" y="-39.3%" width="124.5%" height="192.9%" filterUnits="objectBoundingBox" id="filter-6">
            <feOffset dx="0" dy="1" in="SourceAlpha" result="shadowOffsetOuter1"></feOffset>
            <feGaussianBlur stdDeviation="2" in="shadowOffsetOuter1" result="shadowBlurOuter1"></feGaussianBlur>
            <feColorMatrix values="0 0 0 0 0   0 0 0 0 0   0 0 0 0 0  0 0 0 0.5 0" type="matrix" in="shadowBlurOuter1"></feColorMatrix>
        </filter>
    </defs>
    <g id="Volcanes-fallas" stroke="none" stroke-width="1" fill="none" fill-rule="evenodd">
        <g id="arenal" transform="translate(4.000000, 0.000000)">
            <g id="Page-1-Copy-2" transform="translate(10.000000, 0.000000)">
                <g id="Group-3" transform="translate(0.000000, 17.003849)">
                    <mask id="mask-2" fill="white">
                        <use xlink:href="#path-1"></use>
                    </mask>
                    <g id="Clip-2"></g>
                    <path d="M33.4237819,21.9839835 C30.984388,17.6533168 28.544605,13.3226502 26.1052111,8.99159863 C24.4767435,6.10115189 22.848665,3.21070515 21.2201974,0.320258419 C21.1373149,0.173234364 20.9688259,0.0820178694 20.8003369,0.0820178694 L12.6860155,0.0820178694 C12.5171374,0.0820178694 12.3490375,0.173234364 12.2657658,0.320258419 C8.19829346,7.54137182 4.13043199,14.7628701 0.0625705113,21.9839835 C-0.116035612,22.3007395 0.108097562,22.7079423 0.482431094,22.7079423 L33.0039213,22.7079423 C33.3782548,22.7079423 33.602388,22.3007395 33.4237819,21.9839835" id="Fill-1" fill="#FF6D00" mask="url(#mask-2)"></path>
                </g>
                <path d="M23.070697,22.7405966 C22.2998501,21.3723491 21.5290032,20.0041017 20.7581562,18.6354694 C20.5923911,18.3414213 20.2554131,18.1589883 19.9184351,18.1589883 L13.5679951,18.1589883 C13.230628,18.1589883 12.89365,18.3414213 12.7278848,18.6354694 C11.6737585,20.5075244 10.619243,22.3791945 9.56511671,24.2504797 C9.36861106,24.5991808 9.41141427,24.9347959 9.57717943,25.1957443 C9.73555131,25.5706172 10.0982112,25.827332 10.5885026,25.6837718 C10.6970671,25.6699162 10.8021295,25.6341223 10.900966,25.5760055 C11.7578084,25.2588646 12.6142618,24.9421086 13.4707151,24.6249677 C13.6559363,24.5564591 13.8427139,24.4714007 14.0329936,24.4155931 C14.5680338,24.5291326 15.0754464,24.8135588 15.6124321,24.9163216 C16.9685156,25.1761155 18.2942478,23.7739986 19.3818385,22.8541361 C20.1678611,23.2551808 20.9538837,23.6562254 21.7399062,24.0572701 C22.5948031,24.4933388 23.5582644,23.6061911 23.070697,22.7405966" id="Fill-4" fill="#FFFFFF"></path>
                <g id="Group-8" transform="translate(10.000000, 0.000000)">
                    <mask id="mask-4" fill="white">
                        <use xlink:href="#path-3"></use>
                    </mask>
                    <g id="Clip-7"></g>
                    <path d="M12.2268683,4.77156522 C12.4600017,2.66591304 10.6406517,0.975913043 8.573435,1.52156522 C6.23516833,-1.35930435 1.35496833,0.257 1.576835,4.10243478 C-0.983298333,5.517 -0.214131667,9.54417391 2.81855167,9.61656522 C3.54156833,11.2974348 4.26436833,12.9783043 4.987385,14.6593913 C5.06040167,14.8289565 5.28226833,14.9285217 5.45516833,14.9285217 L7.55705167,14.9285217 C7.729735,14.9285217 7.95181833,14.8289565 8.024835,14.6593913 L9.799985,10.5317826 C12.6818683,10.4104783 13.9077683,6.95569565 12.2268683,4.77156522" id="Fill-6" fill="#FF6D00" mask="url(#mask-4)"></path>
                </g>
                <path d="M19.3677971,2.646451 C20.271782,2.68472653 20.8916113,3.67835055 20.6499981,4.75578479 C20.5735292,5.09740492 21.0063147,5.24324789 21.0827836,4.90184774 C21.4031992,3.47223461 20.5611434,2.14710929 19.3677971,2.09651519 C19.0789743,2.08419663 19.0793333,2.63413244 19.3677971,2.646451" id="Fill-9" fill="#FFFFFF" transform="translate(20.151315, 3.596311) rotate(-6.000000) translate(-20.151315, -3.596311) "></path>
            </g>
            <g id="Rectangle-2-Copy-4">
                <use fill="black" fill-opacity="1" filter="url(#filter-6)" xlink:href="#path-5"></use>
                <use fill="#263238" fill-rule="evenodd" xlink:href="#path-5"></use>
            </g>
            <path d="M14.8027344,49 L14.3886719,47.640625 L12.3066406,47.640625 L11.8925781,49 L10.5878906,49 L12.6035156,43.265625 L14.0839844,43.265625 L16.1074219,49 L14.8027344,49 Z M14.0996094,46.625 C13.716795,45.393223 13.5013023,44.6966154 13.453125,44.5351562 C13.4049477,44.3736971 13.3704428,44.2460942 13.3496094,44.1523438 C13.2636714,44.4856787 13.0175802,45.3098893 12.6113281,46.625 L14.0996094,46.625 Z M18.0371094,45.8242188 L18.4277344,45.8242188 C18.8105488,45.8242188 19.093098,45.7604173 19.2753906,45.6328125 C19.4576832,45.5052077 19.5488281,45.3046889 19.5488281,45.03125 C19.5488281,44.7604153 19.4557301,44.5677089 19.2695312,44.453125 C19.0833324,44.3385411 18.7949238,44.28125 18.4042969,44.28125 L18.0371094,44.28125 L18.0371094,45.8242188 Z M18.0371094,46.8085938 L18.0371094,49 L16.8261719,49 L16.8261719,43.2890625 L18.4902344,43.2890625 C19.2662799,43.2890625 19.8404929,43.4303371 20.2128906,43.7128906 C20.5852883,43.9954441 20.7714844,44.4244763 20.7714844,45 C20.7714844,45.3359392 20.6790374,45.6347643 20.4941406,45.8964844 C20.3092439,46.1582044 20.0475277,46.3632805 19.7089844,46.5117188 C20.5683637,47.7955793 21.1282539,48.6249981 21.3886719,49 L20.0449219,49 L18.6816406,46.8085938 L18.0371094,46.8085938 Z M25.3964844,49 L22.1074219,49 L22.1074219,43.2890625 L25.3964844,43.2890625 L25.3964844,44.28125 L23.3183594,44.28125 L23.3183594,45.5351562 L25.2519531,45.5351562 L25.2519531,46.5273438 L23.3183594,46.5273438 L23.3183594,48 L25.3964844,48 L25.3964844,49 Z M31.6542969,49 L30.1152344,49 L27.6308594,44.6796875 L27.5957031,44.6796875 C27.6451825,45.4427121 27.6699219,45.9869775 27.6699219,46.3125 L27.6699219,49 L26.5878906,49 L26.5878906,43.2890625 L28.1152344,43.2890625 L30.5957031,47.5664062 L30.6230469,47.5664062 C30.5839842,46.824215 30.5644531,46.2994807 30.5644531,45.9921875 L30.5644531,43.2890625 L31.6542969,43.2890625 L31.6542969,49 Z M36.5878906,49 L36.1738281,47.640625 L34.0917969,47.640625 L33.6777344,49 L32.3730469,49 L34.3886719,43.265625 L35.8691406,43.265625 L37.8925781,49 L36.5878906,49 Z M35.8847656,46.625 C35.5019512,45.393223 35.2864586,44.6966154 35.2382812,44.5351562 C35.1901039,44.3736971 35.1555991,44.2460942 35.1347656,44.1523438 C35.0488277,44.4856787 34.8027364,45.3098893 34.3964844,46.625 L35.8847656,46.625 Z M38.6113281,49 L38.6113281,43.2890625 L39.8222656,43.2890625 L39.8222656,48 L42.1386719,48 L42.1386719,49 L38.6113281,49 Z" id="Arenal" fill="#FFFFFF"></path>
        </g>
    </g>
</svg>