<?xml version="1.0" encoding="UTF-8"?>
<svg width="61px" height="58px" viewBox="0 0 61 58" version="1.1" xmlns="http://www.w3.org/2000/svg" xmlns:xlink="http://www.w3.org/1999/xlink">
    <!-- Generator: Sketch 48.2 (47327) - http://www.bohemiancoding.com/sketch -->
    <title>barva</title>
    <desc>Created with Sketch.</desc>
    <defs>
        <polygon id="path-1" points="7.62968209e-05 0.0820178694 33.4861189 0.0820178694 33.4861189 22.7079038 7.62968209e-05 22.7079038"></polygon>
        <polygon id="path-3" points="0.0333598711 0.052173913 12.9893383 0.052173913 12.9893383 14.9285217 0.0333598711 14.9285217"></polygon>
        <rect id="path-5" x="0" y="39" width="53" height="14" rx="7"></rect>
        <filter x="-12.3%" y="-39.3%" width="124.5%" height="192.9%" filterUnits="objectBoundingBox" id="filter-6">
            <feOffset dx="0" dy="1" in="SourceAlpha" result="shadowOffsetOuter1"></feOffset>
            <feGaussianBlur stdDeviation="2" in="shadowOffsetOuter1" result="shadowBlurOuter1"></feGaussianBlur>
            <feColorMatrix values="0 0 0 0 0   0 0 0 0 0   0 0 0 0 0  0 0 0 0.5 0" type="matrix" in="shadowBlurOuter1"></feColorMatrix>
        </filter>
    </defs>
    <g id="Volcanes-fallas" stroke="none" stroke-width="1" fill="none" fill-rule="evenodd">
        <g id="barva" transform="translate(4.000000, 0.000000)">
            <g id="Page-1-Copy-2" transform="translate(10.000000, 0.000000)">
                <g id="Group-3" transform="translate(0.000000, 17.003849)">
                    <mask id="mask-2" fill="white">
                        <use xlink:href="#path-1"></use>
                    </mask>
                    <g id="Clip-2"></g>
                    <path d="M33.4237819,21.9839835 C30.984388,17.6533168 28.544605,13.3226502 26.1052111,8.99159863 C24.4767435,6.10115189 22.848665,3.21070515 21.2201974,0.320258419 C21.1373149,0.173234364 20.9688259,0.0820178694 20.8003369,0.0820178694 L12.6860155,0.0820178694 C12.5171374,0.0820178694 12.3490375,0.173234364 12.2657658,0.320258419 C8.19829346,7.54137182 4.13043199,14.7628701 0.0625705113,21.9839835 C-0.116035612,22.3007395 0.108097562,22.7079423 0.482431094,22.7079423 L33.0039213,22.7079423 C33.3782548,22.7079423 33.602388,22.3007395 33.4237819,21.9839835" id="Fill-1" fill="#FF6D00" mask="url(#mask-2)"></path>
                </g>
                <path d="M23.070697,22.7405966 C22.2998501,21.3723491 21.5290032,20.0041017 20.7581562,18.6354694 C20.5923911,18.3414213 20.2554131,18.1589883 19.9184351,18.1589883 L13.5679951,18.1589883 C13.230628,18.1589883 12.89365,18.3414213 12.7278848,18.6354694 C11.6737585,20.5075244 10.619243,22.3791945 9.56511671,24.2504797 C9.36861106,24.5991808 9.41141427,24.9347959 9.57717943,25.1957443 C9.73555131,25.5706172 10.0982112,25.827332 10.5885026,25.6837718 C10.6970671,25.6699162 10.8021295,25.6341223 10.900966,25.5760055 C11.7578084,25.2588646 12.6142618,24.9421086 13.4707151,24.6249677 C13.6559363,24.5564591 13.8427139,24.4714007 14.0329936,24.4155931 C14.5680338,24.5291326 15.0754464,24.8135588 15.6124321,24.9163216 C16.9685156,25.1761155 18.2942478,23.7739986 19.3818385,22.8541361 C20.1678611,23.2551808 20.9538837,23.6562254 21.7399062,24.0572701 C22.5948031,24.4933388 23.5582644,23.6061911 23.070697,22.7405966" id="Fill-4" fill="#FFFFFF"></path>
                <g id="Group-8" transform="translate(10.000000, 0.000000)">
                    <mask id="mask-4" fill="white">
                        <use xlink:href="#path-3"></use>
                    </mask>
                    <g id="Clip-7"></g>
                    <path d="M12.2268683,4.77156522 C12.4600017,2.66591304 10.6406517,0.975913043 8.573435,1.52156522 C6.23516833,-1.35930435 1.35496833,0.257 1.576835,4.10243478 C-0.983298333,5.517 -0.214131667,9.54417391 2.81855167,9.61656522 C3.54156833,11.2974348 4.26436833,12.9783043 4.987385,14.6593913 C5.06040167,14.8289565 5.28226833,14.9285217 5.45516833,14.9285217 L7.55705167,14.9285217 C7.729735,14.9285217 7.95181833,14.8289565 8.024835,14.6593913 L9.799985,10.5317826 C12.6818683,10.4104783 13.9077683,6.95569565 12.2268683,4.77156522" id="Fill-6" fill="#FF6D00" mask="url(#mask-4)"></path>
                </g>
                <path d="M19.3677971,2.646451 C20.271782,2.68472653 20.8916113,3.67835055 20.6499981,4.75578479 C20.5735292,5.09740492 21.0063147,5.24324789 21.0827836,4.90184774 C21.4031992,3.47223461 20.5611434,2.14710929 19.3677971,2.09651519 C19.0789743,2.08419663 19.0793333,2.63413244 19.3677971,2.646451" id="Fill-9" fill="#FFFFFF" transform="translate(20.151315, 3.596311) rotate(-6.000000) translate(-20.151315, -3.596311) "></path>
            </g>
            <g id="Rectangle-2-Copy-4">
                <use fill="black" fill-opacity="1" filter="url(#filter-6)" xlink:href="#path-5"></use>
                <use fill="#263238" fill-rule="evenodd" xlink:href="#path-5"></use>
            </g>
            <path d="M14.0117188,43.2890625 L15.7890625,43.2890625 C16.5989624,43.2890625 17.1868471,43.4042957 17.5527344,43.6347656 C17.9186216,43.8652355 18.1015625,44.2317683 18.1015625,44.734375 C18.1015625,45.0755225 18.0214852,45.3554677 17.8613281,45.5742188 C17.7011711,45.7929698 17.4882826,45.9244789 17.2226562,45.96875 L17.2226562,46.0078125 C17.5846372,46.0885421 17.8457023,46.2395822 18.0058594,46.4609375 C18.1660164,46.6822928 18.2460938,46.9765607 18.2460938,47.34375 C18.2460938,47.8645859 18.0579446,48.2708319 17.6816406,48.5625 C17.3053367,48.8541681 16.7942741,49 16.1484375,49 L14.0117188,49 L14.0117188,43.2890625 Z M15.2226562,45.5507812 L15.9257812,45.5507812 C16.2539079,45.5507812 16.4915357,45.5000005 16.6386719,45.3984375 C16.785808,45.2968745 16.859375,45.1289074 16.859375,44.8945312 C16.859375,44.6757802 16.7792977,44.5188807 16.6191406,44.4238281 C16.4589836,44.3287756 16.2057309,44.28125 15.859375,44.28125 L15.2226562,44.28125 L15.2226562,45.5507812 Z M15.2226562,46.5117188 L15.2226562,48 L16.0117188,48 C16.3450538,48 16.591145,47.9361986 16.75,47.8085938 C16.908855,47.6809889 16.9882812,47.4856784 16.9882812,47.2226562 C16.9882812,46.7486955 16.649743,46.5117188 15.9726562,46.5117188 L15.2226562,46.5117188 Z M22.7226562,49 L22.3085938,47.640625 L20.2265625,47.640625 L19.8125,49 L18.5078125,49 L20.5234375,43.265625 L22.0039062,43.265625 L24.0273438,49 L22.7226562,49 Z M22.0195312,46.625 C21.6367168,45.393223 21.4212242,44.6966154 21.3730469,44.5351562 C21.3248696,44.3736971 21.2903647,44.2460942 21.2695312,44.1523438 C21.1835933,44.4856787 20.937502,45.3098893 20.53125,46.625 L22.0195312,46.625 Z M25.9570312,45.8242188 L26.3476562,45.8242188 C26.7304707,45.8242188 27.0130199,45.7604173 27.1953125,45.6328125 C27.3776051,45.5052077 27.46875,45.3046889 27.46875,45.03125 C27.46875,44.7604153 27.375652,44.5677089 27.1894531,44.453125 C27.0032543,44.3385411 26.7148457,44.28125 26.3242188,44.28125 L25.9570312,44.28125 L25.9570312,45.8242188 Z M25.9570312,46.8085938 L25.9570312,49 L24.7460938,49 L24.7460938,43.2890625 L26.4101562,43.2890625 C27.1862018,43.2890625 27.7604148,43.4303371 28.1328125,43.7128906 C28.5052102,43.9954441 28.6914062,44.4244763 28.6914062,45 C28.6914062,45.3359392 28.5989593,45.6347643 28.4140625,45.8964844 C28.2291657,46.1582044 27.9674496,46.3632805 27.6289062,46.5117188 C28.4882855,47.7955793 29.0481758,48.6249981 29.3085938,49 L27.9648438,49 L26.6015625,46.8085938 L25.9570312,46.8085938 Z M33.2851562,43.2890625 L34.5078125,43.2890625 L32.5664062,49 L31.2460938,49 L29.3085938,43.2890625 L30.53125,43.2890625 L31.6054688,46.6875 C31.6653649,46.8880218 31.7272132,47.1217435 31.7910156,47.3886719 C31.854818,47.6556003 31.8945312,47.8411453 31.9101562,47.9453125 C31.9388022,47.705728 32.0364575,47.2864613 32.203125,46.6875 L33.2851562,43.2890625 Z M38.4023438,49 L37.9882812,47.640625 L35.90625,47.640625 L35.4921875,49 L34.1875,49 L36.203125,43.265625 L37.6835938,43.265625 L39.7070312,49 L38.4023438,49 Z M37.6992188,46.625 C37.3164043,45.393223 37.1009117,44.6966154 37.0527344,44.5351562 C37.0045571,44.3736971 36.9700522,44.2460942 36.9492188,44.1523438 C36.8632808,44.4856787 36.6171895,45.3098893 36.2109375,46.625 L37.6992188,46.625 Z" id="Barva" fill="#FFFFFF"></path>
        </g>
    </g>
</svg>