<?xml version="1.0" encoding="UTF-8"?>
<svg width="61px" height="41px" viewBox="0 0 61 41" version="1.1" xmlns="http://www.w3.org/2000/svg" xmlns:xlink="http://www.w3.org/1999/xlink">
    <!-- Generator: Sketch 48.2 (47327) - http://www.bohemiancoding.com/sketch -->
    <title>BARVA</title>
    <desc>Created with Sketch.</desc>
    <defs>
        <polygon id="path-1" points="7.62968209e-05 0.0820178694 33.4861189 0.0820178694 33.4861189 22.7079038 7.62968209e-05 22.7079038"></polygon>
        <rect id="path-3" x="0" y="22" width="53" height="14" rx="7"></rect>
        <filter x="-12.3%" y="-39.3%" width="124.5%" height="192.9%" filterUnits="objectBoundingBox" id="filter-4">
            <feOffset dx="0" dy="1" in="SourceAlpha" result="shadowOffsetOuter1"></feOffset>
            <feGaussianBlur stdDeviation="2" in="shadowOffsetOuter1" result="shadowBlurOuter1"></feGaussianBlur>
            <feColorMatrix values="0 0 0 0 0   0 0 0 0 0   0 0 0 0 0  0 0 0 0.5 0" type="matrix" in="shadowBlurOuter1"></feColorMatrix>
        </filter>
    </defs>
    <g id="Volcanes-fallas" stroke="none" stroke-width="1" fill="none" fill-rule="evenodd">
        <g id="BARVA" transform="translate(4.000000, 0.000000)">
            <g id="Page-1-Copy-2" transform="translate(10.000000, 0.000000)">
                <g id="Group-3" transform="translate(0.000000, 0.003849)">
                    <mask id="mask-2" fill="white">
                        <use xlink:href="#path-1"></use>
                    </mask>
                    <g id="Clip-2"></g>
                    <path d="M33.4237819,21.9839835 C30.984388,17.6533168 28.544605,13.3226502 26.1052111,8.99159863 C24.4767435,6.10115189 22.848665,3.21070515 21.2201974,0.320258419 C21.1373149,0.173234364 20.9688259,0.0820178694 20.8003369,0.0820178694 L12.6860155,0.0820178694 C12.5171374,0.0820178694 12.3490375,0.173234364 12.2657658,0.320258419 C8.19829346,7.54137182 4.13043199,14.7628701 0.0625705113,21.9839835 C-0.116035612,22.3007395 0.108097562,22.7079423 0.482431094,22.7079423 L33.0039213,22.7079423 C33.3782548,22.7079423 33.602388,22.3007395 33.4237819,21.9839835" id="Fill-1" fill="#FF6D00" mask="url(#mask-2)"></path>
                </g>
            </g>
            <path d="M23.4944112,5 L18,14.7371169" id="Line" stroke="#FFFFFF" stroke-linecap="round"></path>
            <path d="M23.4944112,10 L19.5,17.5" id="Line-Copy-2" stroke="#FFFFFF" stroke-linecap="round"></path>
            <path d="M34.5,13.5 L39.5,23.5" id="Line-Copy" stroke="#FFFFFF" stroke-linecap="round"></path>
            <path d="M32.5,9.5 L33.5,11.5" id="Line" stroke="#FFFFFF" stroke-linecap="round"></path>
            <g id="Rectangle-2-Copy-4">
                <use fill="black" fill-opacity="1" filter="url(#filter-4)" xlink:href="#path-3"></use>
                <use fill="#263238" fill-rule="evenodd" xlink:href="#path-3"></use>
            </g>
            <path d="M14.0117188,26.2890625 L15.7890625,26.2890625 C16.5989624,26.2890625 17.1868471,26.4042957 17.5527344,26.6347656 C17.9186216,26.8652355 18.1015625,27.2317683 18.1015625,27.734375 C18.1015625,28.0755225 18.0214852,28.3554677 17.8613281,28.5742188 C17.7011711,28.7929698 17.4882826,28.9244789 17.2226562,28.96875 L17.2226562,29.0078125 C17.5846372,29.0885421 17.8457023,29.2395822 18.0058594,29.4609375 C18.1660164,29.6822928 18.2460938,29.9765607 18.2460938,30.34375 C18.2460938,30.8645859 18.0579446,31.2708319 17.6816406,31.5625 C17.3053367,31.8541681 16.7942741,32 16.1484375,32 L14.0117188,32 L14.0117188,26.2890625 Z M15.2226562,28.5507812 L15.9257812,28.5507812 C16.2539079,28.5507812 16.4915357,28.5000005 16.6386719,28.3984375 C16.785808,28.2968745 16.859375,28.1289074 16.859375,27.8945312 C16.859375,27.6757802 16.7792977,27.5188807 16.6191406,27.4238281 C16.4589836,27.3287756 16.2057309,27.28125 15.859375,27.28125 L15.2226562,27.28125 L15.2226562,28.5507812 Z M15.2226562,29.5117188 L15.2226562,31 L16.0117188,31 C16.3450538,31 16.591145,30.9361986 16.75,30.8085938 C16.908855,30.6809889 16.9882812,30.4856784 16.9882812,30.2226562 C16.9882812,29.7486955 16.649743,29.5117188 15.9726562,29.5117188 L15.2226562,29.5117188 Z M22.7226562,32 L22.3085938,30.640625 L20.2265625,30.640625 L19.8125,32 L18.5078125,32 L20.5234375,26.265625 L22.0039062,26.265625 L24.0273438,32 L22.7226562,32 Z M22.0195312,29.625 C21.6367168,28.393223 21.4212242,27.6966154 21.3730469,27.5351562 C21.3248696,27.3736971 21.2903647,27.2460942 21.2695312,27.1523438 C21.1835933,27.4856787 20.937502,28.3098893 20.53125,29.625 L22.0195312,29.625 Z M25.9570312,28.8242188 L26.3476562,28.8242188 C26.7304707,28.8242188 27.0130199,28.7604173 27.1953125,28.6328125 C27.3776051,28.5052077 27.46875,28.3046889 27.46875,28.03125 C27.46875,27.7604153 27.375652,27.5677089 27.1894531,27.453125 C27.0032543,27.3385411 26.7148457,27.28125 26.3242188,27.28125 L25.9570312,27.28125 L25.9570312,28.8242188 Z M25.9570312,29.8085938 L25.9570312,32 L24.7460938,32 L24.7460938,26.2890625 L26.4101562,26.2890625 C27.1862018,26.2890625 27.7604148,26.4303371 28.1328125,26.7128906 C28.5052102,26.9954441 28.6914062,27.4244763 28.6914062,28 C28.6914062,28.3359392 28.5989593,28.6347643 28.4140625,28.8964844 C28.2291657,29.1582044 27.9674496,29.3632805 27.6289062,29.5117188 C28.4882855,30.7955793 29.0481758,31.6249981 29.3085938,32 L27.9648438,32 L26.6015625,29.8085938 L25.9570312,29.8085938 Z M33.2851562,26.2890625 L34.5078125,26.2890625 L32.5664062,32 L31.2460938,32 L29.3085938,26.2890625 L30.53125,26.2890625 L31.6054688,29.6875 C31.6653649,29.8880218 31.7272132,30.1217435 31.7910156,30.3886719 C31.854818,30.6556003 31.8945312,30.8411453 31.9101562,30.9453125 C31.9388022,30.705728 32.0364575,30.2864613 32.203125,29.6875 L33.2851562,26.2890625 Z M38.4023438,32 L37.9882812,30.640625 L35.90625,30.640625 L35.4921875,32 L34.1875,32 L36.203125,26.265625 L37.6835938,26.265625 L39.7070312,32 L38.4023438,32 Z M37.6992188,29.625 C37.3164043,28.393223 37.1009117,27.6966154 37.0527344,27.5351562 C37.0045571,27.3736971 36.9700522,27.2460942 36.9492188,27.1523438 C36.8632808,27.4856787 36.6171895,28.3098893 36.2109375,29.625 L37.6992188,29.625 Z" fill="#FFFFFF"></path>
        </g>
    </g>
</svg>