<?xml version="1.0" encoding="UTF-8"?>
<svg width="78px" height="58px" viewBox="0 0 78 58" version="1.1" xmlns="http://www.w3.org/2000/svg" xmlns:xlink="http://www.w3.org/1999/xlink">
    <!-- Generator: Sketch 48.2 (47327) - http://www.bohemiancoding.com/sketch -->
    <title>cacho_negro</title>
    <desc>Created with Sketch.</desc>
    <defs>
        <polygon id="path-1" points="7.62968209e-05 0.0820178694 33.4861189 0.0820178694 33.4861189 22.7079038 7.62968209e-05 22.7079038"></polygon>
        <polygon id="path-3" points="0.0333598711 0.052173913 12.9893383 0.052173913 12.9893383 14.9285217 0.0333598711 14.9285217"></polygon>
        <rect id="path-5" x="0" y="39" width="70" height="14" rx="7"></rect>
        <filter x="-9.3%" y="-39.3%" width="118.6%" height="192.9%" filterUnits="objectBoundingBox" id="filter-6">
            <feOffset dx="0" dy="1" in="SourceAlpha" result="shadowOffsetOuter1"></feOffset>
            <feGaussianBlur stdDeviation="2" in="shadowOffsetOuter1" result="shadowBlurOuter1"></feGaussianBlur>
            <feColorMatrix values="0 0 0 0 0   0 0 0 0 0   0 0 0 0 0  0 0 0 0.5 0" type="matrix" in="shadowBlurOuter1"></feColorMatrix>
        </filter>
    </defs>
    <g id="Volcanes-fallas" stroke="none" stroke-width="1" fill="none" fill-rule="evenodd">
        <g id="cacho_negro" transform="translate(4.000000, 0.000000)">
            <g id="Page-1-Copy-2" transform="translate(18.000000, 0.000000)">
                <g id="Group-3" transform="translate(0.000000, 17.003849)">
                    <mask id="mask-2" fill="white">
                        <use xlink:href="#path-1"></use>
                    </mask>
                    <g id="Clip-2"></g>
                    <path d="M33.4237819,21.9839835 C30.984388,17.6533168 28.544605,13.3226502 26.1052111,8.99159863 C24.4767435,6.10115189 22.848665,3.21070515 21.2201974,0.320258419 C21.1373149,0.173234364 20.9688259,0.0820178694 20.8003369,0.0820178694 L12.6860155,0.0820178694 C12.5171374,0.0820178694 12.3490375,0.173234364 12.2657658,0.320258419 C8.19829346,7.54137182 4.13043199,14.7628701 0.0625705113,21.9839835 C-0.116035612,22.3007395 0.108097562,22.7079423 0.482431094,22.7079423 L33.0039213,22.7079423 C33.3782548,22.7079423 33.602388,22.3007395 33.4237819,21.9839835" id="Fill-1" fill="#FF6D00" mask="url(#mask-2)"></path>
                </g>
                <path d="M23.070697,22.7405966 C22.2998501,21.3723491 21.5290032,20.0041017 20.7581562,18.6354694 C20.5923911,18.3414213 20.2554131,18.1589883 19.9184351,18.1589883 L13.5679951,18.1589883 C13.230628,18.1589883 12.89365,18.3414213 12.7278848,18.6354694 C11.6737585,20.5075244 10.619243,22.3791945 9.56511671,24.2504797 C9.36861106,24.5991808 9.41141427,24.9347959 9.57717943,25.1957443 C9.73555131,25.5706172 10.0982112,25.827332 10.5885026,25.6837718 C10.6970671,25.6699162 10.8021295,25.6341223 10.900966,25.5760055 C11.7578084,25.2588646 12.6142618,24.9421086 13.4707151,24.6249677 C13.6559363,24.5564591 13.8427139,24.4714007 14.0329936,24.4155931 C14.5680338,24.5291326 15.0754464,24.8135588 15.6124321,24.9163216 C16.9685156,25.1761155 18.2942478,23.7739986 19.3818385,22.8541361 C20.1678611,23.2551808 20.9538837,23.6562254 21.7399062,24.0572701 C22.5948031,24.4933388 23.5582644,23.6061911 23.070697,22.7405966" id="Fill-4" fill="#FFFFFF"></path>
                <g id="Group-8" transform="translate(10.000000, 0.000000)">
                    <mask id="mask-4" fill="white">
                        <use xlink:href="#path-3"></use>
                    </mask>
                    <g id="Clip-7"></g>
                    <path d="M12.2268683,4.77156522 C12.4600017,2.66591304 10.6406517,0.975913043 8.573435,1.52156522 C6.23516833,-1.35930435 1.35496833,0.257 1.576835,4.10243478 C-0.983298333,5.517 -0.214131667,9.54417391 2.81855167,9.61656522 C3.54156833,11.2974348 4.26436833,12.9783043 4.987385,14.6593913 C5.06040167,14.8289565 5.28226833,14.9285217 5.45516833,14.9285217 L7.55705167,14.9285217 C7.729735,14.9285217 7.95181833,14.8289565 8.024835,14.6593913 L9.799985,10.5317826 C12.6818683,10.4104783 13.9077683,6.95569565 12.2268683,4.77156522" id="Fill-6" fill="#FF6D00" mask="url(#mask-4)"></path>
                </g>
                <path d="M19.3677971,2.646451 C20.271782,2.68472653 20.8916113,3.67835055 20.6499981,4.75578479 C20.5735292,5.09740492 21.0063147,5.24324789 21.0827836,4.90184774 C21.4031992,3.47223461 20.5611434,2.14710929 19.3677971,2.09651519 C19.0789743,2.08419663 19.0793333,2.63413244 19.3677971,2.646451" id="Fill-9" fill="#FFFFFF" transform="translate(20.151315, 3.596311) rotate(-6.000000) translate(-20.151315, -3.596311) "></path>
            </g>
            <g id="Rectangle-2-Copy-4">
                <use fill="black" fill-opacity="1" filter="url(#filter-6)" xlink:href="#path-5"></use>
                <use fill="#263238" fill-rule="evenodd" xlink:href="#path-5"></use>
            </g>
            <path d="M8.87109375,44.2148438 C8.4153623,44.2148438 8.06250125,44.386066 7.8125,44.7285156 C7.56249875,45.0709653 7.4375,45.548174 7.4375,46.1601562 C7.4375,47.4336001 7.9153598,48.0703125 8.87109375,48.0703125 C9.27213742,48.0703125 9.75780965,47.9700531 10.328125,47.7695312 L10.328125,48.7851562 C9.85937266,48.9804697 9.33594039,49.078125 8.7578125,49.078125 C7.92707918,49.078125 7.29166887,48.8261744 6.8515625,48.3222656 C6.41145613,47.8183569 6.19140625,47.0950568 6.19140625,46.1523438 C6.19140625,45.5585908 6.29947809,45.0384137 6.515625,44.5917969 C6.73177191,44.1451801 7.04231568,43.8027356 7.44726562,43.5644531 C7.85221557,43.3261707 8.3268202,43.2070312 8.87109375,43.2070312 C9.42578402,43.2070312 9.98307012,43.3411445 10.5429688,43.609375 L10.1523438,44.59375 C9.93880102,44.492187 9.72395941,44.4036462 9.5078125,44.328125 C9.29166559,44.2526038 9.07942812,44.2148438 8.87109375,44.2148438 Z M15.0390625,49 L14.625,47.640625 L12.5429688,47.640625 L12.1289062,49 L10.8242188,49 L12.8398438,43.265625 L14.3203125,43.265625 L16.34375,49 L15.0390625,49 Z M14.3359375,46.625 C13.9531231,45.393223 13.7376304,44.6966154 13.6894531,44.5351562 C13.6412758,44.3736971 13.6067709,44.2460942 13.5859375,44.1523438 C13.4999996,44.4856787 13.2539083,45.3098893 12.8476562,46.625 L14.3359375,46.625 Z M19.328125,44.2148438 C18.8723936,44.2148438 18.5195325,44.386066 18.2695312,44.7285156 C18.01953,45.0709653 17.8945312,45.548174 17.8945312,46.1601562 C17.8945312,47.4336001 18.3723911,48.0703125 19.328125,48.0703125 C19.7291687,48.0703125 20.2148409,47.9700531 20.7851562,47.7695312 L20.7851562,48.7851562 C20.3164039,48.9804697 19.7929716,49.078125 19.2148438,49.078125 C18.3841104,49.078125 17.7487001,48.8261744 17.3085938,48.3222656 C16.8684874,47.8183569 16.6484375,47.0950568 16.6484375,46.1523438 C16.6484375,45.5585908 16.7565093,45.0384137 16.9726562,44.5917969 C17.1888032,44.1451801 17.4993469,43.8027356 17.9042969,43.5644531 C18.3092468,43.3261707 18.7838514,43.2070312 19.328125,43.2070312 C19.8828153,43.2070312 20.4401014,43.3411445 21,43.609375 L20.609375,44.59375 C20.3958323,44.492187 20.1809907,44.4036462 19.9648438,44.328125 C19.7486968,44.2526038 19.5364594,44.2148438 19.328125,44.2148438 Z M26.6796875,49 L25.4726562,49 L25.4726562,46.5351562 L23.2109375,46.5351562 L23.2109375,49 L22,49 L22,43.2890625 L23.2109375,43.2890625 L23.2109375,45.5273438 L25.4726562,45.5273438 L25.4726562,43.2890625 L26.6796875,43.2890625 L26.6796875,49 Z M33.3046875,46.1367188 C33.3046875,47.082036 33.0703148,47.8085912 32.6015625,48.3164062 C32.1328102,48.8242213 31.4609419,49.078125 30.5859375,49.078125 C29.7109331,49.078125 29.0390648,48.8242213 28.5703125,48.3164062 C28.1015602,47.8085912 27.8671875,47.0794318 27.8671875,46.1289062 C27.8671875,45.1783807 28.1022112,44.4524765 28.5722656,43.9511719 C29.0423201,43.4498673 29.7161414,43.1992188 30.59375,43.1992188 C31.4713586,43.1992188 32.1425758,43.4518204 32.6074219,43.9570312 C33.0722679,44.4622421 33.3046875,45.1887973 33.3046875,46.1367188 Z M29.1367188,46.1367188 C29.1367188,46.7747428 29.2578113,47.2552067 29.5,47.578125 C29.7421887,47.9010433 30.1041643,48.0625 30.5859375,48.0625 C31.5520882,48.0625 32.0351562,47.4205793 32.0351562,46.1367188 C32.0351562,44.850254 31.5546923,44.2070312 30.59375,44.2070312 C30.1119768,44.2070312 29.7486991,44.369139 29.5039062,44.6933594 C29.2591134,45.0175797 29.1367188,45.4986947 29.1367188,46.1367188 Z M41.6328125,49 L40.09375,49 L37.609375,44.6796875 L37.5742188,44.6796875 C37.6236982,45.4427121 37.6484375,45.9869775 37.6484375,46.3125 L37.6484375,49 L36.5664063,49 L36.5664063,43.2890625 L38.09375,43.2890625 L40.5742188,47.5664062 L40.6015625,47.5664062 C40.5624998,46.824215 40.5429688,46.2994807 40.5429688,45.9921875 L40.5429688,43.2890625 L41.6328125,43.2890625 L41.6328125,49 Z M46.359375,49 L43.0703125,49 L43.0703125,43.2890625 L46.359375,43.2890625 L46.359375,44.28125 L44.28125,44.28125 L44.28125,45.5351562 L46.2148438,45.5351562 L46.2148438,46.5273438 L44.28125,46.5273438 L44.28125,48 L46.359375,48 L46.359375,49 Z M49.71875,45.7929688 L51.984375,45.7929688 L51.984375,48.7539062 C51.6171857,48.8736985 51.271486,48.9576821 50.9472656,49.0058594 C50.6230453,49.0540367 50.2916684,49.078125 49.953125,49.078125 C49.0911415,49.078125 48.432945,48.8248723 47.9785156,48.3183594 C47.5240863,47.8118464 47.296875,47.0846402 47.296875,46.1367188 C47.296875,45.2148391 47.5605442,44.4960963 48.0878906,43.9804688 C48.615237,43.4648412 49.3463495,43.2070312 50.28125,43.2070312 C50.8671904,43.2070312 51.4322889,43.3242176 51.9765625,43.5585938 L51.5742188,44.5273438 C51.15755,44.3190094 50.7239606,44.2148438 50.2734375,44.2148438 C49.7499974,44.2148438 49.3307307,44.3906232 49.015625,44.7421875 C48.7005193,45.0937518 48.5429688,45.5664033 48.5429688,46.1601562 C48.5429688,46.779951 48.6699206,47.2532536 48.9238281,47.5800781 C49.1777356,47.9069027 49.5468726,48.0703125 50.03125,48.0703125 C50.2838554,48.0703125 50.5403633,48.0442711 50.8007812,47.9921875 L50.8007812,46.8007812 L49.71875,46.8007812 L49.71875,45.7929688 Z M54.5546875,45.8242188 L54.9453125,45.8242188 C55.3281269,45.8242188 55.6106762,45.7604173 55.7929688,45.6328125 C55.9752613,45.5052077 56.0664063,45.3046889 56.0664063,45.03125 C56.0664063,44.7604153 55.9733082,44.5677089 55.7871094,44.453125 C55.6009105,44.3385411 55.312502,44.28125 54.921875,44.28125 L54.5546875,44.28125 L54.5546875,45.8242188 Z M54.5546875,46.8085938 L54.5546875,49 L53.34375,49 L53.34375,43.2890625 L55.0078125,43.2890625 C55.783858,43.2890625 56.3580711,43.4303371 56.7304688,43.7128906 C57.1028664,43.9954441 57.2890625,44.4244763 57.2890625,45 C57.2890625,45.3359392 57.1966155,45.6347643 57.0117188,45.8964844 C56.826822,46.1582044 56.5651059,46.3632805 56.2265625,46.5117188 C57.0859418,47.7955793 57.645832,48.6249981 57.90625,49 L56.5625,49 L55.1992188,46.8085938 L54.5546875,46.8085938 Z M63.8085938,46.1367188 C63.8085938,47.082036 63.5742211,47.8085912 63.1054688,48.3164062 C62.6367164,48.8242213 61.9648481,49.078125 61.0898438,49.078125 C60.2148394,49.078125 59.5429711,48.8242213 59.0742188,48.3164062 C58.6054664,47.8085912 58.3710938,47.0794318 58.3710938,46.1289062 C58.3710938,45.1783807 58.6061174,44.4524765 59.0761719,43.9511719 C59.5462263,43.4498673 60.2200477,43.1992188 61.0976562,43.1992188 C61.9752648,43.1992188 62.6464821,43.4518204 63.1113281,43.9570312 C63.5761742,44.4622421 63.8085938,45.1887973 63.8085938,46.1367188 Z M59.640625,46.1367188 C59.640625,46.7747428 59.7617175,47.2552067 60.0039063,47.578125 C60.246095,47.9010433 60.6080705,48.0625 61.0898438,48.0625 C62.0559944,48.0625 62.5390625,47.4205793 62.5390625,46.1367188 C62.5390625,44.850254 62.0585986,44.2070312 61.0976563,44.2070312 C60.615883,44.2070312 60.2526054,44.369139 60.0078125,44.6933594 C59.7630196,45.0175797 59.640625,45.4986947 59.640625,46.1367188 Z" id="cacho-negro" fill="#FFFFFF"></path>
        </g>
    </g>
</svg>