<?xml version="1.0" encoding="UTF-8"?>
<svg width="78px" height="41px" viewBox="0 0 78 41" version="1.1" xmlns="http://www.w3.org/2000/svg" xmlns:xlink="http://www.w3.org/1999/xlink">
    <!-- Generator: Sketch 48.2 (47327) - http://www.bohemiancoding.com/sketch -->
    <title>CERRO_PELADO</title>
    <desc>Created with Sketch.</desc>
    <defs>
        <polygon id="path-1" points="7.62968209e-05 0.0820178694 33.4861189 0.0820178694 33.4861189 22.7079038 7.62968209e-05 22.7079038"></polygon>
        <rect id="path-3" x="0" y="22" width="70" height="14" rx="7"></rect>
        <filter x="-9.3%" y="-39.3%" width="118.6%" height="192.9%" filterUnits="objectBoundingBox" id="filter-4">
            <feOffset dx="0" dy="1" in="SourceAlpha" result="shadowOffsetOuter1"></feOffset>
            <feGaussianBlur stdDeviation="2" in="shadowOffsetOuter1" result="shadowBlurOuter1"></feGaussianBlur>
            <feColorMatrix values="0 0 0 0 0   0 0 0 0 0   0 0 0 0 0  0 0 0 0.5 0" type="matrix" in="shadowBlurOuter1"></feColorMatrix>
        </filter>
    </defs>
    <g id="Volcanes-fallas" stroke="none" stroke-width="1" fill="none" fill-rule="evenodd">
        <g id="CERRO_PELADO" transform="translate(4.000000, 0.000000)">
            <g id="Page-1-Copy-2" transform="translate(18.000000, 0.000000)">
                <g id="Group-3" transform="translate(0.000000, 0.003849)">
                    <mask id="mask-2" fill="white">
                        <use xlink:href="#path-1"></use>
                    </mask>
                    <g id="Clip-2"></g>
                    <path d="M33.4237819,21.9839835 C30.984388,17.6533168 28.544605,13.3226502 26.1052111,8.99159863 C24.4767435,6.10115189 22.848665,3.21070515 21.2201974,0.320258419 C21.1373149,0.173234364 20.9688259,0.0820178694 20.8003369,0.0820178694 L12.6860155,0.0820178694 C12.5171374,0.0820178694 12.3490375,0.173234364 12.2657658,0.320258419 C8.19829346,7.54137182 4.13043199,14.7628701 0.0625705113,21.9839835 C-0.116035612,22.3007395 0.108097562,22.7079423 0.482431094,22.7079423 L33.0039213,22.7079423 C33.3782548,22.7079423 33.602388,22.3007395 33.4237819,21.9839835" id="Fill-1" fill="#FF6D00" mask="url(#mask-2)"></path>
                </g>
            </g>
            <path d="M31.4944112,5 L26,14.7371169" id="Line" stroke="#FFFFFF" stroke-linecap="round"></path>
            <path d="M31.4944112,10 L27.5,17.5" id="Line-Copy-2" stroke="#FFFFFF" stroke-linecap="round"></path>
            <path d="M42.5,13.5 L47.5,23.5" id="Line-Copy" stroke="#FFFFFF" stroke-linecap="round"></path>
            <path d="M40.5,9.5 L41.5,11.5" id="Line" stroke="#FFFFFF" stroke-linecap="round"></path>
            <g id="Rectangle-2-Copy-4">
                <use fill="black" fill-opacity="1" filter="url(#filter-4)" xlink:href="#path-3"></use>
                <use fill="#263238" fill-rule="evenodd" xlink:href="#path-3"></use>
            </g>
            <path d="M7.93554688,27.2148438 C7.47981543,27.2148438 7.12695438,27.386066 6.87695312,27.7285156 C6.62695188,28.0709653 6.50195312,28.548174 6.50195312,29.1601562 C6.50195312,30.4336001 6.97981293,31.0703125 7.93554688,31.0703125 C8.33659055,31.0703125 8.82226277,30.9700531 9.39257812,30.7695312 L9.39257812,31.7851562 C8.92382578,31.9804697 8.40039352,32.078125 7.82226562,32.078125 C6.9915323,32.078125 6.35612199,31.8261744 5.91601562,31.3222656 C5.47590926,30.8183569 5.25585938,30.0950568 5.25585938,29.1523438 C5.25585938,28.5585908 5.36393121,28.0384137 5.58007812,27.5917969 C5.79622504,27.1451801 6.10676881,26.8027356 6.51171875,26.5644531 C6.91666869,26.3261707 7.39127332,26.2070312 7.93554688,26.2070312 C8.49023715,26.2070312 9.04752324,26.3411445 9.60742188,26.609375 L9.21679688,27.59375 C9.00325414,27.492187 8.78841254,27.4036462 8.57226562,27.328125 C8.35611871,27.2526038 8.14388125,27.2148438 7.93554688,27.2148438 Z M13.8964844,32 L10.6074219,32 L10.6074219,26.2890625 L13.8964844,26.2890625 L13.8964844,27.28125 L11.8183594,27.28125 L11.8183594,28.5351562 L13.7519531,28.5351562 L13.7519531,29.5273438 L11.8183594,29.5273438 L11.8183594,31 L13.8964844,31 L13.8964844,32 Z M16.2988281,28.8242188 L16.6894531,28.8242188 C17.0722675,28.8242188 17.3548168,28.7604173 17.5371094,28.6328125 C17.719402,28.5052077 17.8105469,28.3046889 17.8105469,28.03125 C17.8105469,27.7604153 17.7174488,27.5677089 17.53125,27.453125 C17.3450512,27.3385411 17.0566426,27.28125 16.6660156,27.28125 L16.2988281,27.28125 L16.2988281,28.8242188 Z M16.2988281,29.8085938 L16.2988281,32 L15.0878906,32 L15.0878906,26.2890625 L16.7519531,26.2890625 C17.5279987,26.2890625 18.1022117,26.4303371 18.4746094,26.7128906 C18.8470071,26.9954441 19.0332031,27.4244763 19.0332031,28 C19.0332031,28.3359392 18.9407561,28.6347643 18.7558594,28.8964844 C18.5709626,29.1582044 18.3092465,29.3632805 17.9707031,29.5117188 C18.8300824,30.7955793 19.3899727,31.6249981 19.6503906,32 L18.3066406,32 L16.9433594,29.8085938 L16.2988281,29.8085938 Z M21.5800781,28.8242188 L21.9707031,28.8242188 C22.3535175,28.8242188 22.6360668,28.7604173 22.8183594,28.6328125 C23.000652,28.5052077 23.0917969,28.3046889 23.0917969,28.03125 C23.0917969,27.7604153 22.9986988,27.5677089 22.8125,27.453125 C22.6263012,27.3385411 22.3378926,27.28125 21.9472656,27.28125 L21.5800781,27.28125 L21.5800781,28.8242188 Z M21.5800781,29.8085938 L21.5800781,32 L20.3691406,32 L20.3691406,26.2890625 L22.0332031,26.2890625 C22.8092487,26.2890625 23.3834617,26.4303371 23.7558594,26.7128906 C24.1282571,26.9954441 24.3144531,27.4244763 24.3144531,28 C24.3144531,28.3359392 24.2220061,28.6347643 24.0371094,28.8964844 C23.8522126,29.1582044 23.5904965,29.3632805 23.2519531,29.5117188 C24.1113324,30.7955793 24.6712227,31.6249981 24.9316406,32 L23.5878906,32 L22.2246094,29.8085938 L21.5800781,29.8085938 Z M30.8339844,29.1367188 C30.8339844,30.082036 30.5996117,30.8085912 30.1308594,31.3164062 C29.662107,31.8242213 28.9902387,32.078125 28.1152344,32.078125 C27.24023,32.078125 26.5683617,31.8242213 26.0996094,31.3164062 C25.630857,30.8085912 25.3964844,30.0794318 25.3964844,29.1289062 C25.3964844,28.1783807 25.6315081,27.4524765 26.1015625,26.9511719 C26.5716169,26.4498673 27.2454383,26.1992188 28.1230469,26.1992188 C29.0006554,26.1992188 29.6718727,26.4518204 30.1367188,26.9570312 C30.6015648,27.4622421 30.8339844,28.1887973 30.8339844,29.1367188 Z M26.6660156,29.1367188 C26.6660156,29.7747428 26.7871082,30.2552067 27.0292969,30.578125 C27.2714856,30.9010433 27.6334611,31.0625 28.1152344,31.0625 C29.081385,31.0625 29.5644531,30.4205793 29.5644531,29.1367188 C29.5644531,27.850254 29.0839892,27.2070312 28.1230469,27.2070312 C27.6412736,27.2070312 27.277996,27.369139 27.0332031,27.6933594 C26.7884102,28.0175797 26.6660156,28.4986947 26.6660156,29.1367188 Z M35.3066406,28.9765625 L35.7050781,28.9765625 C36.0774758,28.9765625 36.3561189,28.9029955 36.5410156,28.7558594 C36.7259124,28.6087232 36.8183594,28.3945327 36.8183594,28.1132812 C36.8183594,27.8294257 36.7408862,27.6197923 36.5859375,27.484375 C36.4309888,27.3489577 36.1881527,27.28125 35.8574219,27.28125 L35.3066406,27.28125 L35.3066406,28.9765625 Z M38.0410156,28.0703125 C38.0410156,28.6848989 37.8489603,29.1549463 37.4648438,29.4804688 C37.0807272,29.8059912 36.5345088,29.96875 35.8261719,29.96875 L35.3066406,29.96875 L35.3066406,32 L34.0957031,32 L34.0957031,26.2890625 L35.9199219,26.2890625 C36.6126337,26.2890625 37.1393211,26.4381496 37.5,26.7363281 C37.8606789,27.0345067 38.0410156,27.4791637 38.0410156,28.0703125 Z M42.4082031,32 L39.1191406,32 L39.1191406,26.2890625 L42.4082031,26.2890625 L42.4082031,27.28125 L40.3300781,27.28125 L40.3300781,28.5351562 L42.2636719,28.5351562 L42.2636719,29.5273438 L40.3300781,29.5273438 L40.3300781,31 L42.4082031,31 L42.4082031,32 Z M43.5996094,32 L43.5996094,26.2890625 L44.8105469,26.2890625 L44.8105469,31 L47.1269531,31 L47.1269531,32 L43.5996094,32 Z M51.6152344,32 L51.2011719,30.640625 L49.1191406,30.640625 L48.7050781,32 L47.4003906,32 L49.4160156,26.265625 L50.8964844,26.265625 L52.9199219,32 L51.6152344,32 Z M50.9121094,29.625 C50.529295,28.393223 50.3138023,27.6966154 50.265625,27.5351562 C50.2174477,27.3736971 50.1829428,27.2460942 50.1621094,27.1523438 C50.0761714,27.4856787 49.8300802,28.3098893 49.4238281,29.625 L50.9121094,29.625 Z M58.3769531,29.0898438 C58.3769531,30.0299526 58.1093777,30.7499975 57.5742188,31.25 C57.0390598,31.7500025 56.2662811,32 55.2558594,32 L53.6386719,32 L53.6386719,26.2890625 L55.4316406,26.2890625 C56.363937,26.2890625 57.087888,26.5351538 57.6035156,27.0273438 C58.1191432,27.5195337 58.3769531,28.2070268 58.3769531,29.0898438 Z M57.1191406,29.1210938 C57.1191406,27.8945251 56.5774794,27.28125 55.4941406,27.28125 L54.8496094,27.28125 L54.8496094,31 L55.3691406,31 C56.5358131,31 57.1191406,30.3737042 57.1191406,29.1210938 Z M64.7441406,29.1367188 C64.7441406,30.082036 64.509768,30.8085912 64.0410156,31.3164062 C63.5722633,31.8242213 62.900395,32.078125 62.0253906,32.078125 C61.1503862,32.078125 60.478518,31.8242213 60.0097656,31.3164062 C59.5410133,30.8085912 59.3066406,30.0794318 59.3066406,29.1289062 C59.3066406,28.1783807 59.5416643,27.4524765 60.0117187,26.9511719 C60.4817732,26.4498673 61.1555946,26.1992188 62.0332031,26.1992188 C62.9108117,26.1992188 63.5820289,26.4518204 64.046875,26.9570312 C64.5117211,27.4622421 64.7441406,28.1887973 64.7441406,29.1367188 Z M60.5761719,29.1367188 C60.5761719,29.7747428 60.6972644,30.2552067 60.9394531,30.578125 C61.1816418,30.9010433 61.5436174,31.0625 62.0253906,31.0625 C62.9915413,31.0625 63.4746094,30.4205793 63.4746094,29.1367188 C63.4746094,27.850254 62.9941454,27.2070312 62.0332031,27.2070312 C61.5514299,27.2070312 61.1881523,27.369139 60.9433594,27.6933594 C60.6985665,28.0175797 60.5761719,28.4986947 60.5761719,29.1367188 Z" id="CERRO-PELADO" fill="#FFFFFF"></path>
        </g>
    </g>
</svg>