<?xml version="1.0" encoding="UTF-8"?>
<svg width="61px" height="41px" viewBox="0 0 61 41" version="1.1" xmlns="http://www.w3.org/2000/svg" xmlns:xlink="http://www.w3.org/1999/xlink">
    <!-- Generator: Sketch 48.2 (47327) - http://www.bohemiancoding.com/sketch -->
    <title>CHATO</title>
    <desc>Created with Sketch.</desc>
    <defs>
        <polygon id="path-1" points="7.62968209e-05 0.0820178694 33.4861189 0.0820178694 33.4861189 22.7079038 7.62968209e-05 22.7079038"></polygon>
        <rect id="path-3" x="0" y="22" width="53" height="14" rx="7"></rect>
        <filter x="-12.3%" y="-39.3%" width="124.5%" height="192.9%" filterUnits="objectBoundingBox" id="filter-4">
            <feOffset dx="0" dy="1" in="SourceAlpha" result="shadowOffsetOuter1"></feOffset>
            <feGaussianBlur stdDeviation="2" in="shadowOffsetOuter1" result="shadowBlurOuter1"></feGaussianBlur>
            <feColorMatrix values="0 0 0 0 0   0 0 0 0 0   0 0 0 0 0  0 0 0 0.5 0" type="matrix" in="shadowBlurOuter1"></feColorMatrix>
        </filter>
    </defs>
    <g id="Volcanes-fallas" stroke="none" stroke-width="1" fill="none" fill-rule="evenodd">
        <g id="CHATO" transform="translate(4.000000, 0.000000)">
            <g id="Page-1-Copy-2" transform="translate(10.000000, 0.000000)">
                <g id="Group-3" transform="translate(0.000000, 0.003849)">
                    <mask id="mask-2" fill="white">
                        <use xlink:href="#path-1"></use>
                    </mask>
                    <g id="Clip-2"></g>
                    <path d="M33.4237819,21.9839835 C30.984388,17.6533168 28.544605,13.3226502 26.1052111,8.99159863 C24.4767435,6.10115189 22.848665,3.21070515 21.2201974,0.320258419 C21.1373149,0.173234364 20.9688259,0.0820178694 20.8003369,0.0820178694 L12.6860155,0.0820178694 C12.5171374,0.0820178694 12.3490375,0.173234364 12.2657658,0.320258419 C8.19829346,7.54137182 4.13043199,14.7628701 0.0625705113,21.9839835 C-0.116035612,22.3007395 0.108097562,22.7079423 0.482431094,22.7079423 L33.0039213,22.7079423 C33.3782548,22.7079423 33.602388,22.3007395 33.4237819,21.9839835" id="Fill-1" fill="#FF6D00" mask="url(#mask-2)"></path>
                </g>
            </g>
            <path d="M23.4944112,5 L18,14.7371169" id="Line" stroke="#FFFFFF" stroke-linecap="round"></path>
            <path d="M23.4944112,10 L19.5,17.5" id="Line-Copy-2" stroke="#FFFFFF" stroke-linecap="round"></path>
            <path d="M34.5,13.5 L39.5,23.5" id="Line-Copy" stroke="#FFFFFF" stroke-linecap="round"></path>
            <path d="M32.5,9.5 L33.5,11.5" id="Line" stroke="#FFFFFF" stroke-linecap="round"></path>
            <g id="Rectangle-2-Copy-4">
                <use fill="black" fill-opacity="1" filter="url(#filter-4)" xlink:href="#path-3"></use>
                <use fill="#263238" fill-rule="evenodd" xlink:href="#path-3"></use>
            </g>
            <path d="M16.1347656,27.2148438 C15.6790342,27.2148438 15.3261731,27.386066 15.0761719,27.7285156 C14.8261706,28.0709653 14.7011719,28.548174 14.7011719,29.1601562 C14.7011719,30.4336001 15.1790317,31.0703125 16.1347656,31.0703125 C16.5358093,31.0703125 17.0214815,30.9700531 17.5917969,30.7695312 L17.5917969,31.7851562 C17.1230445,31.9804697 16.5996123,32.078125 16.0214844,32.078125 C15.1907511,32.078125 14.5553407,31.8261744 14.1152344,31.3222656 C13.675128,30.8183569 13.4550781,30.0950568 13.4550781,29.1523438 C13.4550781,28.5585908 13.56315,28.0384137 13.7792969,27.5917969 C13.9954438,27.1451801 14.3059876,26.8027356 14.7109375,26.5644531 C15.1158874,26.3261707 15.5904921,26.2070312 16.1347656,26.2070312 C16.6894559,26.2070312 17.246742,26.3411445 17.8066406,26.609375 L17.4160156,27.59375 C17.2024729,27.492187 16.9876313,27.4036462 16.7714844,27.328125 C16.5553375,27.2526038 16.3431,27.2148438 16.1347656,27.2148438 Z M23.4863281,32 L22.2792969,32 L22.2792969,29.5351562 L20.0175781,29.5351562 L20.0175781,32 L18.8066406,32 L18.8066406,26.2890625 L20.0175781,26.2890625 L20.0175781,28.5273438 L22.2792969,28.5273438 L22.2792969,26.2890625 L23.4863281,26.2890625 L23.4863281,32 Z M28.4238281,32 L28.0097656,30.640625 L25.9277344,30.640625 L25.5136719,32 L24.2089844,32 L26.2246094,26.265625 L27.7050781,26.265625 L29.7285156,32 L28.4238281,32 Z M27.7207031,29.625 C27.3378887,28.393223 27.1223961,27.6966154 27.0742188,27.5351562 C27.0260414,27.3736971 26.9915366,27.2460942 26.9707031,27.1523438 C26.8847652,27.4856787 26.6386739,28.3098893 26.2324219,29.625 L27.7207031,29.625 Z M32.0917969,32 L30.8808594,32 L30.8808594,27.296875 L29.3300781,27.296875 L29.3300781,26.2890625 L33.6425781,26.2890625 L33.6425781,27.296875 L32.0917969,27.296875 L32.0917969,32 Z M39.5449219,29.1367188 C39.5449219,30.082036 39.3105492,30.8085912 38.8417969,31.3164062 C38.3730445,31.8242213 37.7011763,32.078125 36.8261719,32.078125 C35.9511675,32.078125 35.2792992,31.8242213 34.8105469,31.3164062 C34.3417945,30.8085912 34.1074219,30.0794318 34.1074219,29.1289062 C34.1074219,28.1783807 34.3424456,27.4524765 34.8125,26.9511719 C35.2825544,26.4498673 35.9563758,26.1992188 36.8339844,26.1992188 C37.7115929,26.1992188 38.3828102,26.4518204 38.8476562,26.9570312 C39.3125023,27.4622421 39.5449219,28.1887973 39.5449219,29.1367188 Z M35.3769531,29.1367188 C35.3769531,29.7747428 35.4980457,30.2552067 35.7402344,30.578125 C35.9824231,30.9010433 36.3443986,31.0625 36.8261719,31.0625 C37.7923225,31.0625 38.2753906,30.4205793 38.2753906,29.1367188 C38.2753906,27.850254 37.7949267,27.2070312 36.8339844,27.2070312 C36.3522111,27.2070312 35.9889335,27.369139 35.7441406,27.6933594 C35.4993477,28.0175797 35.3769531,28.4986947 35.3769531,29.1367188 Z" fill="#FFFFFF"></path>
        </g>
    </g>
</svg>