<?xml version="1.0" encoding="UTF-8"?>
<svg width="61px" height="58px" viewBox="0 0 61 58" version="1.1" xmlns="http://www.w3.org/2000/svg" xmlns:xlink="http://www.w3.org/1999/xlink">
    <!-- Generator: Sketch 48.2 (47327) - http://www.bohemiancoding.com/sketch -->
    <title>chato</title>
    <desc>Created with Sketch.</desc>
    <defs>
        <polygon id="path-1" points="7.62968209e-05 0.0820178694 33.4861189 0.0820178694 33.4861189 22.7079038 7.62968209e-05 22.7079038"></polygon>
        <polygon id="path-3" points="0.0333598711 0.052173913 12.9893383 0.052173913 12.9893383 14.9285217 0.0333598711 14.9285217"></polygon>
        <rect id="path-5" x="0" y="39" width="53" height="14" rx="7"></rect>
        <filter x="-12.3%" y="-39.3%" width="124.5%" height="192.9%" filterUnits="objectBoundingBox" id="filter-6">
            <feOffset dx="0" dy="1" in="SourceAlpha" result="shadowOffsetOuter1"></feOffset>
            <feGaussianBlur stdDeviation="2" in="shadowOffsetOuter1" result="shadowBlurOuter1"></feGaussianBlur>
            <feColorMatrix values="0 0 0 0 0   0 0 0 0 0   0 0 0 0 0  0 0 0 0.5 0" type="matrix" in="shadowBlurOuter1"></feColorMatrix>
        </filter>
    </defs>
    <g id="Volcanes-fallas" stroke="none" stroke-width="1" fill="none" fill-rule="evenodd">
        <g id="chato" transform="translate(4.000000, 0.000000)">
            <g id="Page-1-Copy-2" transform="translate(10.000000, 0.000000)">
                <g id="Group-3" transform="translate(0.000000, 17.003849)">
                    <mask id="mask-2" fill="white">
                        <use xlink:href="#path-1"></use>
                    </mask>
                    <g id="Clip-2"></g>
                    <path d="M33.4237819,21.9839835 C30.984388,17.6533168 28.544605,13.3226502 26.1052111,8.99159863 C24.4767435,6.10115189 22.848665,3.21070515 21.2201974,0.320258419 C21.1373149,0.173234364 20.9688259,0.0820178694 20.8003369,0.0820178694 L12.6860155,0.0820178694 C12.5171374,0.0820178694 12.3490375,0.173234364 12.2657658,0.320258419 C8.19829346,7.54137182 4.13043199,14.7628701 0.0625705113,21.9839835 C-0.116035612,22.3007395 0.108097562,22.7079423 0.482431094,22.7079423 L33.0039213,22.7079423 C33.3782548,22.7079423 33.602388,22.3007395 33.4237819,21.9839835" id="Fill-1" fill="#FF6D00" mask="url(#mask-2)"></path>
                </g>
                <path d="M23.070697,22.7405966 C22.2998501,21.3723491 21.5290032,20.0041017 20.7581562,18.6354694 C20.5923911,18.3414213 20.2554131,18.1589883 19.9184351,18.1589883 L13.5679951,18.1589883 C13.230628,18.1589883 12.89365,18.3414213 12.7278848,18.6354694 C11.6737585,20.5075244 10.619243,22.3791945 9.56511671,24.2504797 C9.36861106,24.5991808 9.41141427,24.9347959 9.57717943,25.1957443 C9.73555131,25.5706172 10.0982112,25.827332 10.5885026,25.6837718 C10.6970671,25.6699162 10.8021295,25.6341223 10.900966,25.5760055 C11.7578084,25.2588646 12.6142618,24.9421086 13.4707151,24.6249677 C13.6559363,24.5564591 13.8427139,24.4714007 14.0329936,24.4155931 C14.5680338,24.5291326 15.0754464,24.8135588 15.6124321,24.9163216 C16.9685156,25.1761155 18.2942478,23.7739986 19.3818385,22.8541361 C20.1678611,23.2551808 20.9538837,23.6562254 21.7399062,24.0572701 C22.5948031,24.4933388 23.5582644,23.6061911 23.070697,22.7405966" id="Fill-4" fill="#FFFFFF"></path>
                <g id="Group-8" transform="translate(10.000000, 0.000000)">
                    <mask id="mask-4" fill="white">
                        <use xlink:href="#path-3"></use>
                    </mask>
                    <g id="Clip-7"></g>
                    <path d="M12.2268683,4.77156522 C12.4600017,2.66591304 10.6406517,0.975913043 8.573435,1.52156522 C6.23516833,-1.35930435 1.35496833,0.257 1.576835,4.10243478 C-0.983298333,5.517 -0.214131667,9.54417391 2.81855167,9.61656522 C3.54156833,11.2974348 4.26436833,12.9783043 4.987385,14.6593913 C5.06040167,14.8289565 5.28226833,14.9285217 5.45516833,14.9285217 L7.55705167,14.9285217 C7.729735,14.9285217 7.95181833,14.8289565 8.024835,14.6593913 L9.799985,10.5317826 C12.6818683,10.4104783 13.9077683,6.95569565 12.2268683,4.77156522" id="Fill-6" fill="#FF6D00" mask="url(#mask-4)"></path>
                </g>
                <path d="M19.3677971,2.646451 C20.271782,2.68472653 20.8916113,3.67835055 20.6499981,4.75578479 C20.5735292,5.09740492 21.0063147,5.24324789 21.0827836,4.90184774 C21.4031992,3.47223461 20.5611434,2.14710929 19.3677971,2.09651519 C19.0789743,2.08419663 19.0793333,2.63413244 19.3677971,2.646451" id="Fill-9" fill="#FFFFFF" transform="translate(20.151315, 3.596311) rotate(-6.000000) translate(-20.151315, -3.596311) "></path>
            </g>
            <g id="Rectangle-2-Copy-4">
                <use fill="black" fill-opacity="1" filter="url(#filter-6)" xlink:href="#path-5"></use>
                <use fill="#263238" fill-rule="evenodd" xlink:href="#path-5"></use>
            </g>
            <path d="M16.1347656,44.2148438 C15.6790342,44.2148438 15.3261731,44.386066 15.0761719,44.7285156 C14.8261706,45.0709653 14.7011719,45.548174 14.7011719,46.1601562 C14.7011719,47.4336001 15.1790317,48.0703125 16.1347656,48.0703125 C16.5358093,48.0703125 17.0214815,47.9700531 17.5917969,47.7695312 L17.5917969,48.7851562 C17.1230445,48.9804697 16.5996123,49.078125 16.0214844,49.078125 C15.1907511,49.078125 14.5553407,48.8261744 14.1152344,48.3222656 C13.675128,47.8183569 13.4550781,47.0950568 13.4550781,46.1523438 C13.4550781,45.5585908 13.56315,45.0384137 13.7792969,44.5917969 C13.9954438,44.1451801 14.3059876,43.8027356 14.7109375,43.5644531 C15.1158874,43.3261707 15.5904921,43.2070312 16.1347656,43.2070312 C16.6894559,43.2070312 17.246742,43.3411445 17.8066406,43.609375 L17.4160156,44.59375 C17.2024729,44.492187 16.9876313,44.4036462 16.7714844,44.328125 C16.5553375,44.2526038 16.3431,44.2148438 16.1347656,44.2148438 Z M23.4863281,49 L22.2792969,49 L22.2792969,46.5351562 L20.0175781,46.5351562 L20.0175781,49 L18.8066406,49 L18.8066406,43.2890625 L20.0175781,43.2890625 L20.0175781,45.5273438 L22.2792969,45.5273438 L22.2792969,43.2890625 L23.4863281,43.2890625 L23.4863281,49 Z M28.4238281,49 L28.0097656,47.640625 L25.9277344,47.640625 L25.5136719,49 L24.2089844,49 L26.2246094,43.265625 L27.7050781,43.265625 L29.7285156,49 L28.4238281,49 Z M27.7207031,46.625 C27.3378887,45.393223 27.1223961,44.6966154 27.0742188,44.5351562 C27.0260414,44.3736971 26.9915366,44.2460942 26.9707031,44.1523438 C26.8847652,44.4856787 26.6386739,45.3098893 26.2324219,46.625 L27.7207031,46.625 Z M32.0917969,49 L30.8808594,49 L30.8808594,44.296875 L29.3300781,44.296875 L29.3300781,43.2890625 L33.6425781,43.2890625 L33.6425781,44.296875 L32.0917969,44.296875 L32.0917969,49 Z M39.5449219,46.1367188 C39.5449219,47.082036 39.3105492,47.8085912 38.8417969,48.3164062 C38.3730445,48.8242213 37.7011763,49.078125 36.8261719,49.078125 C35.9511675,49.078125 35.2792992,48.8242213 34.8105469,48.3164062 C34.3417945,47.8085912 34.1074219,47.0794318 34.1074219,46.1289062 C34.1074219,45.1783807 34.3424456,44.4524765 34.8125,43.9511719 C35.2825544,43.4498673 35.9563758,43.1992188 36.8339844,43.1992188 C37.7115929,43.1992188 38.3828102,43.4518204 38.8476562,43.9570312 C39.3125023,44.4622421 39.5449219,45.1887973 39.5449219,46.1367188 Z M35.3769531,46.1367188 C35.3769531,46.7747428 35.4980457,47.2552067 35.7402344,47.578125 C35.9824231,47.9010433 36.3443986,48.0625 36.8261719,48.0625 C37.7923225,48.0625 38.2753906,47.4205793 38.2753906,46.1367188 C38.2753906,44.850254 37.7949267,44.2070312 36.8339844,44.2070312 C36.3522111,44.2070312 35.9889335,44.369139 35.7441406,44.6933594 C35.4993477,45.0175797 35.3769531,45.4986947 35.3769531,46.1367188 Z" fill="#FFFFFF"></path>
        </g>
    </g>
</svg>