<?xml version="1.0" encoding="UTF-8"?>
<svg width="61px" height="58px" viewBox="0 0 61 58" version="1.1" xmlns="http://www.w3.org/2000/svg" xmlns:xlink="http://www.w3.org/1999/xlink">
    <!-- Generator: Sketch 48.2 (47327) - http://www.bohemiancoding.com/sketch -->
    <title>chopo</title>
    <desc>Created with Sketch.</desc>
    <defs>
        <polygon id="path-1" points="7.62968209e-05 0.0820178694 33.4861189 0.0820178694 33.4861189 22.7079038 7.62968209e-05 22.7079038"></polygon>
        <polygon id="path-3" points="0.0333598711 0.052173913 12.9893383 0.052173913 12.9893383 14.9285217 0.0333598711 14.9285217"></polygon>
        <rect id="path-5" x="0" y="39" width="53" height="14" rx="7"></rect>
        <filter x="-12.3%" y="-39.3%" width="124.5%" height="192.9%" filterUnits="objectBoundingBox" id="filter-6">
            <feOffset dx="0" dy="1" in="SourceAlpha" result="shadowOffsetOuter1"></feOffset>
            <feGaussianBlur stdDeviation="2" in="shadowOffsetOuter1" result="shadowBlurOuter1"></feGaussianBlur>
            <feColorMatrix values="0 0 0 0 0   0 0 0 0 0   0 0 0 0 0  0 0 0 0.5 0" type="matrix" in="shadowBlurOuter1"></feColorMatrix>
        </filter>
    </defs>
    <g id="Volcanes-fallas" stroke="none" stroke-width="1" fill="none" fill-rule="evenodd">
        <g id="chopo" transform="translate(4.000000, 0.000000)">
            <g id="Page-1-Copy-2" transform="translate(10.000000, 0.000000)">
                <g id="Group-3" transform="translate(0.000000, 17.003849)">
                    <mask id="mask-2" fill="white">
                        <use xlink:href="#path-1"></use>
                    </mask>
                    <g id="Clip-2"></g>
                    <path d="M33.4237819,21.9839835 C30.984388,17.6533168 28.544605,13.3226502 26.1052111,8.99159863 C24.4767435,6.10115189 22.848665,3.21070515 21.2201974,0.320258419 C21.1373149,0.173234364 20.9688259,0.0820178694 20.8003369,0.0820178694 L12.6860155,0.0820178694 C12.5171374,0.0820178694 12.3490375,0.173234364 12.2657658,0.320258419 C8.19829346,7.54137182 4.13043199,14.7628701 0.0625705113,21.9839835 C-0.116035612,22.3007395 0.108097562,22.7079423 0.482431094,22.7079423 L33.0039213,22.7079423 C33.3782548,22.7079423 33.602388,22.3007395 33.4237819,21.9839835" id="Fill-1" fill="#FF6D00" mask="url(#mask-2)"></path>
                </g>
                <path d="M23.070697,22.7405966 C22.2998501,21.3723491 21.5290032,20.0041017 20.7581562,18.6354694 C20.5923911,18.3414213 20.2554131,18.1589883 19.9184351,18.1589883 L13.5679951,18.1589883 C13.230628,18.1589883 12.89365,18.3414213 12.7278848,18.6354694 C11.6737585,20.5075244 10.619243,22.3791945 9.56511671,24.2504797 C9.36861106,24.5991808 9.41141427,24.9347959 9.57717943,25.1957443 C9.73555131,25.5706172 10.0982112,25.827332 10.5885026,25.6837718 C10.6970671,25.6699162 10.8021295,25.6341223 10.900966,25.5760055 C11.7578084,25.2588646 12.6142618,24.9421086 13.4707151,24.6249677 C13.6559363,24.5564591 13.8427139,24.4714007 14.0329936,24.4155931 C14.5680338,24.5291326 15.0754464,24.8135588 15.6124321,24.9163216 C16.9685156,25.1761155 18.2942478,23.7739986 19.3818385,22.8541361 C20.1678611,23.2551808 20.9538837,23.6562254 21.7399062,24.0572701 C22.5948031,24.4933388 23.5582644,23.6061911 23.070697,22.7405966" id="Fill-4" fill="#FFFFFF"></path>
                <g id="Group-8" transform="translate(10.000000, 0.000000)">
                    <mask id="mask-4" fill="white">
                        <use xlink:href="#path-3"></use>
                    </mask>
                    <g id="Clip-7"></g>
                    <path d="M12.2268683,4.77156522 C12.4600017,2.66591304 10.6406517,0.975913043 8.573435,1.52156522 C6.23516833,-1.35930435 1.35496833,0.257 1.576835,4.10243478 C-0.983298333,5.517 -0.214131667,9.54417391 2.81855167,9.61656522 C3.54156833,11.2974348 4.26436833,12.9783043 4.987385,14.6593913 C5.06040167,14.8289565 5.28226833,14.9285217 5.45516833,14.9285217 L7.55705167,14.9285217 C7.729735,14.9285217 7.95181833,14.8289565 8.024835,14.6593913 L9.799985,10.5317826 C12.6818683,10.4104783 13.9077683,6.95569565 12.2268683,4.77156522" id="Fill-6" fill="#FF6D00" mask="url(#mask-4)"></path>
                </g>
                <path d="M19.3677971,2.646451 C20.271782,2.68472653 20.8916113,3.67835055 20.6499981,4.75578479 C20.5735292,5.09740492 21.0063147,5.24324789 21.0827836,4.90184774 C21.4031992,3.47223461 20.5611434,2.14710929 19.3677971,2.09651519 C19.0789743,2.08419663 19.0793333,2.63413244 19.3677971,2.646451" id="Fill-9" fill="#FFFFFF" transform="translate(20.151315, 3.596311) rotate(-6.000000) translate(-20.151315, -3.596311) "></path>
            </g>
            <g id="Rectangle-2-Copy-4">
                <use fill="black" fill-opacity="1" filter="url(#filter-6)" xlink:href="#path-5"></use>
                <use fill="#263238" fill-rule="evenodd" xlink:href="#path-5"></use>
            </g>
            <path d="M15.15625,44.2148438 C14.7005186,44.2148438 14.3476575,44.386066 14.0976562,44.7285156 C13.847655,45.0709653 13.7226562,45.548174 13.7226562,46.1601562 C13.7226562,47.4336001 14.2005161,48.0703125 15.15625,48.0703125 C15.5572937,48.0703125 16.0429659,47.9700531 16.6132812,47.7695312 L16.6132812,48.7851562 C16.1445289,48.9804697 15.6210966,49.078125 15.0429688,49.078125 C14.2122354,49.078125 13.5768251,48.8261744 13.1367188,48.3222656 C12.6966124,47.8183569 12.4765625,47.0950568 12.4765625,46.1523438 C12.4765625,45.5585908 12.5846343,45.0384137 12.8007812,44.5917969 C13.0169282,44.1451801 13.3274719,43.8027356 13.7324219,43.5644531 C14.1373718,43.3261707 14.6119764,43.2070312 15.15625,43.2070312 C15.7109403,43.2070312 16.2682264,43.3411445 16.828125,43.609375 L16.4375,44.59375 C16.2239573,44.492187 16.0091157,44.4036462 15.7929688,44.328125 C15.5768218,44.2526038 15.3645844,44.2148438 15.15625,44.2148438 Z M22.5078125,49 L21.3007812,49 L21.3007812,46.5351562 L19.0390625,46.5351562 L19.0390625,49 L17.828125,49 L17.828125,43.2890625 L19.0390625,43.2890625 L19.0390625,45.5273438 L21.3007812,45.5273438 L21.3007812,43.2890625 L22.5078125,43.2890625 L22.5078125,49 Z M29.1328125,46.1367188 C29.1328125,47.082036 28.8984398,47.8085912 28.4296875,48.3164062 C27.9609352,48.8242213 27.2890669,49.078125 26.4140625,49.078125 C25.5390581,49.078125 24.8671898,48.8242213 24.3984375,48.3164062 C23.9296852,47.8085912 23.6953125,47.0794318 23.6953125,46.1289062 C23.6953125,45.1783807 23.9303362,44.4524765 24.4003906,43.9511719 C24.8704451,43.4498673 25.5442664,43.1992188 26.421875,43.1992188 C27.2994836,43.1992188 27.9707008,43.4518204 28.4355469,43.9570312 C28.9003929,44.4622421 29.1328125,45.1887973 29.1328125,46.1367188 Z M24.9648438,46.1367188 C24.9648438,46.7747428 25.0859363,47.2552067 25.328125,47.578125 C25.5703137,47.9010433 25.9322893,48.0625 26.4140625,48.0625 C27.3802132,48.0625 27.8632812,47.4205793 27.8632812,46.1367188 C27.8632812,44.850254 27.3828173,44.2070312 26.421875,44.2070312 C25.9401018,44.2070312 25.5768241,44.369139 25.3320312,44.6933594 C25.0872384,45.0175797 24.9648438,45.4986947 24.9648438,46.1367188 Z M31.5273438,45.9765625 L31.9257812,45.9765625 C32.2981789,45.9765625 32.576822,45.9029955 32.7617188,45.7558594 C32.9466155,45.6087232 33.0390625,45.3945327 33.0390625,45.1132812 C33.0390625,44.8294257 32.9615893,44.6197923 32.8066406,44.484375 C32.6516919,44.3489577 32.4088558,44.28125 32.078125,44.28125 L31.5273438,44.28125 L31.5273438,45.9765625 Z M34.2617188,45.0703125 C34.2617188,45.6848989 34.0696634,46.1549463 33.6855469,46.4804688 C33.3014304,46.8059912 32.7552119,46.96875 32.046875,46.96875 L31.5273438,46.96875 L31.5273438,49 L30.3164062,49 L30.3164062,43.2890625 L32.140625,43.2890625 C32.8333368,43.2890625 33.3600242,43.4381496 33.7207031,43.7363281 C34.081382,44.0345067 34.2617188,44.4791637 34.2617188,45.0703125 Z M40.5234375,46.1367188 C40.5234375,47.082036 40.2890648,47.8085912 39.8203125,48.3164062 C39.3515602,48.8242213 38.6796919,49.078125 37.8046875,49.078125 C36.9296831,49.078125 36.2578148,48.8242213 35.7890625,48.3164062 C35.3203102,47.8085912 35.0859375,47.0794318 35.0859375,46.1289062 C35.0859375,45.1783807 35.3209612,44.4524765 35.7910156,43.9511719 C36.2610701,43.4498673 36.9348914,43.1992188 37.8125,43.1992188 C38.6901086,43.1992188 39.3613258,43.4518204 39.8261719,43.9570312 C40.2910179,44.4622421 40.5234375,45.1887973 40.5234375,46.1367188 Z M36.3554688,46.1367188 C36.3554688,46.7747428 36.4765613,47.2552067 36.71875,47.578125 C36.9609387,47.9010433 37.3229143,48.0625 37.8046875,48.0625 C38.7708382,48.0625 39.2539062,47.4205793 39.2539062,46.1367188 C39.2539062,44.850254 38.7734423,44.2070312 37.8125,44.2070312 C37.3307268,44.2070312 36.9674491,44.369139 36.7226562,44.6933594 C36.4778634,45.0175797 36.3554688,45.4986947 36.3554688,46.1367188 Z" fill="#FFFFFF"></path>
        </g>
    </g>
</svg>