<?xml version="1.0" encoding="UTF-8"?>
<svg width="61px" height="58px" viewBox="0 0 61 58" version="1.1" xmlns="http://www.w3.org/2000/svg" xmlns:xlink="http://www.w3.org/1999/xlink">
    <!-- Generator: Sketch 48.2 (47327) - http://www.bohemiancoding.com/sketch -->
    <title>congo</title>
    <desc>Created with Sketch.</desc>
    <defs>
        <polygon id="path-1" points="7.62968209e-05 0.0820178694 33.4861189 0.0820178694 33.4861189 22.7079038 7.62968209e-05 22.7079038"></polygon>
        <polygon id="path-3" points="0.0333598711 0.052173913 12.9893383 0.052173913 12.9893383 14.9285217 0.0333598711 14.9285217"></polygon>
        <rect id="path-5" x="0" y="39" width="53" height="14" rx="7"></rect>
        <filter x="-12.3%" y="-39.3%" width="124.5%" height="192.9%" filterUnits="objectBoundingBox" id="filter-6">
            <feOffset dx="0" dy="1" in="SourceAlpha" result="shadowOffsetOuter1"></feOffset>
            <feGaussianBlur stdDeviation="2" in="shadowOffsetOuter1" result="shadowBlurOuter1"></feGaussianBlur>
            <feColorMatrix values="0 0 0 0 0   0 0 0 0 0   0 0 0 0 0  0 0 0 0.5 0" type="matrix" in="shadowBlurOuter1"></feColorMatrix>
        </filter>
    </defs>
    <g id="Volcanes-fallas" stroke="none" stroke-width="1" fill="none" fill-rule="evenodd">
        <g id="congo" transform="translate(4.000000, 0.000000)">
            <g id="Page-1-Copy-2" transform="translate(10.000000, 0.000000)">
                <g id="Group-3" transform="translate(0.000000, 17.003849)">
                    <mask id="mask-2" fill="white">
                        <use xlink:href="#path-1"></use>
                    </mask>
                    <g id="Clip-2"></g>
                    <path d="M33.4237819,21.9839835 C30.984388,17.6533168 28.544605,13.3226502 26.1052111,8.99159863 C24.4767435,6.10115189 22.848665,3.21070515 21.2201974,0.320258419 C21.1373149,0.173234364 20.9688259,0.0820178694 20.8003369,0.0820178694 L12.6860155,0.0820178694 C12.5171374,0.0820178694 12.3490375,0.173234364 12.2657658,0.320258419 C8.19829346,7.54137182 4.13043199,14.7628701 0.0625705113,21.9839835 C-0.116035612,22.3007395 0.108097562,22.7079423 0.482431094,22.7079423 L33.0039213,22.7079423 C33.3782548,22.7079423 33.602388,22.3007395 33.4237819,21.9839835" id="Fill-1" fill="#FF6D00" mask="url(#mask-2)"></path>
                </g>
                <path d="M23.070697,22.7405966 C22.2998501,21.3723491 21.5290032,20.0041017 20.7581562,18.6354694 C20.5923911,18.3414213 20.2554131,18.1589883 19.9184351,18.1589883 L13.5679951,18.1589883 C13.230628,18.1589883 12.89365,18.3414213 12.7278848,18.6354694 C11.6737585,20.5075244 10.619243,22.3791945 9.56511671,24.2504797 C9.36861106,24.5991808 9.41141427,24.9347959 9.57717943,25.1957443 C9.73555131,25.5706172 10.0982112,25.827332 10.5885026,25.6837718 C10.6970671,25.6699162 10.8021295,25.6341223 10.900966,25.5760055 C11.7578084,25.2588646 12.6142618,24.9421086 13.4707151,24.6249677 C13.6559363,24.5564591 13.8427139,24.4714007 14.0329936,24.4155931 C14.5680338,24.5291326 15.0754464,24.8135588 15.6124321,24.9163216 C16.9685156,25.1761155 18.2942478,23.7739986 19.3818385,22.8541361 C20.1678611,23.2551808 20.9538837,23.6562254 21.7399062,24.0572701 C22.5948031,24.4933388 23.5582644,23.6061911 23.070697,22.7405966" id="Fill-4" fill="#FFFFFF"></path>
                <g id="Group-8" transform="translate(10.000000, 0.000000)">
                    <mask id="mask-4" fill="white">
                        <use xlink:href="#path-3"></use>
                    </mask>
                    <g id="Clip-7"></g>
                    <path d="M12.2268683,4.77156522 C12.4600017,2.66591304 10.6406517,0.975913043 8.573435,1.52156522 C6.23516833,-1.35930435 1.35496833,0.257 1.576835,4.10243478 C-0.983298333,5.517 -0.214131667,9.54417391 2.81855167,9.61656522 C3.54156833,11.2974348 4.26436833,12.9783043 4.987385,14.6593913 C5.06040167,14.8289565 5.28226833,14.9285217 5.45516833,14.9285217 L7.55705167,14.9285217 C7.729735,14.9285217 7.95181833,14.8289565 8.024835,14.6593913 L9.799985,10.5317826 C12.6818683,10.4104783 13.9077683,6.95569565 12.2268683,4.77156522" id="Fill-6" fill="#FF6D00" mask="url(#mask-4)"></path>
                </g>
                <path d="M19.3677971,2.646451 C20.271782,2.68472653 20.8916113,3.67835055 20.6499981,4.75578479 C20.5735292,5.09740492 21.0063147,5.24324789 21.0827836,4.90184774 C21.4031992,3.47223461 20.5611434,2.14710929 19.3677971,2.09651519 C19.0789743,2.08419663 19.0793333,2.63413244 19.3677971,2.646451" id="Fill-9" fill="#FFFFFF" transform="translate(20.151315, 3.596311) rotate(-6.000000) translate(-20.151315, -3.596311) "></path>
            </g>
            <g id="Rectangle-2-Copy-4">
                <use fill="black" fill-opacity="1" filter="url(#filter-6)" xlink:href="#path-5"></use>
                <use fill="#263238" fill-rule="evenodd" xlink:href="#path-5"></use>
            </g>
            <path d="M14.6601562,44.2148438 C14.2044248,44.2148438 13.8515638,44.386066 13.6015625,44.7285156 C13.3515612,45.0709653 13.2265625,45.548174 13.2265625,46.1601562 C13.2265625,47.4336001 13.7044223,48.0703125 14.6601562,48.0703125 C15.0611999,48.0703125 15.5468721,47.9700531 16.1171875,47.7695312 L16.1171875,48.7851562 C15.6484352,48.9804697 15.1250029,49.078125 14.546875,49.078125 C13.7161417,49.078125 13.0807314,48.8261744 12.640625,48.3222656 C12.2005186,47.8183569 11.9804688,47.0950568 11.9804688,46.1523438 C11.9804688,45.5585908 12.0885406,45.0384137 12.3046875,44.5917969 C12.5208344,44.1451801 12.8313782,43.8027356 13.2363281,43.5644531 C13.6412781,43.3261707 14.1158827,43.2070312 14.6601562,43.2070312 C15.2148465,43.2070312 15.7721326,43.3411445 16.3320312,43.609375 L15.9414062,44.59375 C15.7278635,44.492187 15.5130219,44.4036462 15.296875,44.328125 C15.0807281,44.2526038 14.8684906,44.2148438 14.6601562,44.2148438 Z M22.3554688,46.1367188 C22.3554688,47.082036 22.1210961,47.8085912 21.6523438,48.3164062 C21.1835914,48.8242213 20.5117231,49.078125 19.6367188,49.078125 C18.7617144,49.078125 18.0898461,48.8242213 17.6210938,48.3164062 C17.1523414,47.8085912 16.9179688,47.0794318 16.9179688,46.1289062 C16.9179688,45.1783807 17.1529924,44.4524765 17.6230469,43.9511719 C18.0931013,43.4498673 18.7669227,43.1992188 19.6445312,43.1992188 C20.5221398,43.1992188 21.1933571,43.4518204 21.6582031,43.9570312 C22.1230492,44.4622421 22.3554688,45.1887973 22.3554688,46.1367188 Z M18.1875,46.1367188 C18.1875,46.7747428 18.3085925,47.2552067 18.5507812,47.578125 C18.79297,47.9010433 19.1549455,48.0625 19.6367188,48.0625 C20.6028694,48.0625 21.0859375,47.4205793 21.0859375,46.1367188 C21.0859375,44.850254 20.6054736,44.2070312 19.6445312,44.2070312 C19.162758,44.2070312 18.7994804,44.369139 18.5546875,44.6933594 C18.3098946,45.0175797 18.1875,45.4986947 18.1875,46.1367188 Z M28.6054688,49 L27.0664062,49 L24.5820312,44.6796875 L24.546875,44.6796875 C24.5963544,45.4427121 24.6210938,45.9869775 24.6210938,46.3125 L24.6210938,49 L23.5390625,49 L23.5390625,43.2890625 L25.0664062,43.2890625 L27.546875,47.5664062 L27.5742188,47.5664062 C27.5351561,46.824215 27.515625,46.2994807 27.515625,45.9921875 L27.515625,43.2890625 L28.6054688,43.2890625 L28.6054688,49 Z M32.2109375,45.7929688 L34.4765625,45.7929688 L34.4765625,48.7539062 C34.1093732,48.8736985 33.7636735,48.9576821 33.4394531,49.0058594 C33.1152328,49.0540367 32.7838559,49.078125 32.4453125,49.078125 C31.583329,49.078125 30.9251325,48.8248723 30.4707031,48.3183594 C30.0162738,47.8118464 29.7890625,47.0846402 29.7890625,46.1367188 C29.7890625,45.2148391 30.0527317,44.4960963 30.5800781,43.9804688 C31.1074245,43.4648412 31.838537,43.2070312 32.7734375,43.2070312 C33.3593779,43.2070312 33.9244764,43.3242176 34.46875,43.5585938 L34.0664062,44.5273438 C33.6497375,44.3190094 33.2161481,44.2148438 32.765625,44.2148438 C32.2421849,44.2148438 31.8229182,44.3906232 31.5078125,44.7421875 C31.1927068,45.0937518 31.0351562,45.5664033 31.0351562,46.1601562 C31.0351562,46.779951 31.1621081,47.2532536 31.4160156,47.5800781 C31.6699231,47.9069027 32.0390601,48.0703125 32.5234375,48.0703125 C32.7760429,48.0703125 33.0325508,48.0442711 33.2929688,47.9921875 L33.2929688,46.8007812 L32.2109375,46.8007812 L32.2109375,45.7929688 Z M41.0195312,46.1367188 C41.0195312,47.082036 40.7851586,47.8085912 40.3164062,48.3164062 C39.8476539,48.8242213 39.1757856,49.078125 38.3007812,49.078125 C37.4257769,49.078125 36.7539086,48.8242213 36.2851562,48.3164062 C35.8164039,47.8085912 35.5820312,47.0794318 35.5820312,46.1289062 C35.5820312,45.1783807 35.8170549,44.4524765 36.2871094,43.9511719 C36.7571638,43.4498673 37.4309852,43.1992188 38.3085938,43.1992188 C39.1862023,43.1992188 39.8574196,43.4518204 40.3222656,43.9570312 C40.7871117,44.4622421 41.0195312,45.1887973 41.0195312,46.1367188 Z M36.8515625,46.1367188 C36.8515625,46.7747428 36.972655,47.2552067 37.2148438,47.578125 C37.4570325,47.9010433 37.819008,48.0625 38.3007812,48.0625 C39.2669319,48.0625 39.75,47.4205793 39.75,46.1367188 C39.75,44.850254 39.2695361,44.2070312 38.3085938,44.2070312 C37.8268205,44.2070312 37.4635429,44.369139 37.21875,44.6933594 C36.9739571,45.0175797 36.8515625,45.4986947 36.8515625,46.1367188 Z" fill="#FFFFFF"></path>
        </g>
    </g>
</svg>