<?xml version="1.0" encoding="UTF-8"?>
<svg width="61px" height="57px" viewBox="0 0 61 57" version="1.1" xmlns="http://www.w3.org/2000/svg" xmlns:xlink="http://www.w3.org/1999/xlink">
    <!-- Generator: Sketch 48.2 (47327) - http://www.bohemiancoding.com/sketch -->
    <title>2 copy 4</title>
    <desc>Created with Sketch.</desc>
    <defs>
        <polygon id="path-1" points="7.62968209e-05 0.0820178694 33.4861189 0.0820178694 33.4861189 22.7079038 7.62968209e-05 22.7079038"></polygon>
        <polygon id="path-3" points="0.0333598711 0.052173913 12.9893383 0.052173913 12.9893383 14.9285217 0.0333598711 14.9285217"></polygon>
        <rect id="path-5" x="0" y="38" width="53" height="14" rx="7"></rect>
        <filter x="-12.3%" y="-39.3%" width="124.5%" height="192.9%" filterUnits="objectBoundingBox" id="filter-6">
            <feOffset dx="0" dy="1" in="SourceAlpha" result="shadowOffsetOuter1"></feOffset>
            <feGaussianBlur stdDeviation="2" in="shadowOffsetOuter1" result="shadowBlurOuter1"></feGaussianBlur>
            <feColorMatrix values="0 0 0 0 0   0 0 0 0 0   0 0 0 0 0  0 0 0 0.5 0" type="matrix" in="shadowBlurOuter1"></feColorMatrix>
        </filter>
    </defs>
    <g id="Volcanes-fallas" stroke="none" stroke-width="1" fill="none" fill-rule="evenodd">
        <g id="2-copy-4" transform="translate(4.000000, 0.000000)">
            <g id="Page-1-Copy-2" transform="translate(9.000000, 0.000000)">
                <g id="Group-3" transform="translate(0.000000, 16.003849)">
                    <mask id="mask-2" fill="white">
                        <use xlink:href="#path-1"></use>
                    </mask>
                    <g id="Clip-2"></g>
                    <path d="M33.4237819,21.9839835 C30.984388,17.6533168 28.544605,13.3226502 26.1052111,8.99159863 C24.4767435,6.10115189 22.848665,3.21070515 21.2201974,0.320258419 C21.1373149,0.173234364 20.9688259,0.0820178694 20.8003369,0.0820178694 L12.6860155,0.0820178694 C12.5171374,0.0820178694 12.3490375,0.173234364 12.2657658,0.320258419 C8.19829346,7.54137182 4.13043199,14.7628701 0.0625705113,21.9839835 C-0.116035612,22.3007395 0.108097562,22.7079423 0.482431094,22.7079423 L33.0039213,22.7079423 C33.3782548,22.7079423 33.602388,22.3007395 33.4237819,21.9839835" id="Fill-1" fill="#FF6D00" mask="url(#mask-2)"></path>
                </g>
                <g id="Group-8" transform="translate(10.000000, 0.000000)">
                    <mask id="mask-4" fill="white">
                        <use xlink:href="#path-3"></use>
                    </mask>
                    <g id="Clip-7"></g>
                    <path d="M12.2268683,4.77156522 C12.4600017,2.66591304 10.6406517,0.975913043 8.573435,1.52156522 C6.23516833,-1.35930435 1.35496833,0.257 1.576835,4.10243478 C-0.983298333,5.517 -0.214131667,9.54417391 2.81855167,9.61656522 C3.54156833,11.2974348 4.26436833,12.9783043 4.987385,14.6593913 C5.06040167,14.8289565 5.28226833,14.9285217 5.45516833,14.9285217 L7.55705167,14.9285217 C7.729735,14.9285217 7.95181833,14.8289565 8.024835,14.6593913 L9.799985,10.5317826 C12.6818683,10.4104783 13.9077683,6.95569565 12.2268683,4.77156522" id="Fill-6" fill="#FF6D00" mask="url(#mask-4)"></path>
                </g>
                <path d="M19.0045947,3.00099981 C19.9085797,3.03927535 20.5284089,4.03289936 20.2867958,5.1103336 C20.2103268,5.45195373 20.6431123,5.5977967 20.7195812,5.25639655 C21.0399969,3.82678342 20.197941,2.5016581 19.0045947,2.451064 C18.7157719,2.43874544 18.7161309,2.98868125 19.0045947,3.00099981" id="Fill-9" stroke="#FFFFFF" stroke-width="0.4" fill="#FFFFFF" transform="translate(19.788112, 3.950860) rotate(-12.000000) translate(-19.788112, -3.950860) "></path>
            </g>
            <path d="M22.4944112,21 L17,30.7371169" id="Line" stroke="#FFFFFF" stroke-linecap="round"></path>
            <path d="M22.4944112,26 L18.5,33.5" id="Line-Copy-2" stroke="#FFFFFF" stroke-linecap="round"></path>
            <path d="M33.5,29.5 L38.5,39.5" id="Line-Copy" stroke="#FFFFFF" stroke-linecap="round"></path>
            <path d="M31.5,25.5 L32.5,27.5" id="Line" stroke="#FFFFFF" stroke-linecap="round"></path>
            <g id="Rectangle-2-Copy-4">
                <use fill="black" fill-opacity="1" filter="url(#filter-6)" xlink:href="#path-5"></use>
                <use fill="#263238" fill-rule="evenodd" xlink:href="#path-5"></use>
            </g>
            <path d="M15.1542969,48 L15.1542969,42.2890625 L16.3652344,42.2890625 L16.3652344,48 L15.1542969,48 Z M19.0136719,44.8242188 L19.4042969,44.8242188 C19.7871113,44.8242188 20.0696605,44.7604173 20.2519531,44.6328125 C20.4342457,44.5052077 20.5253906,44.3046889 20.5253906,44.03125 C20.5253906,43.7604153 20.4322926,43.5677089 20.2460938,43.453125 C20.0598949,43.3385411 19.7714863,43.28125 19.3808594,43.28125 L19.0136719,43.28125 L19.0136719,44.8242188 Z M19.0136719,45.8085938 L19.0136719,48 L17.8027344,48 L17.8027344,42.2890625 L19.4667969,42.2890625 C20.2428424,42.2890625 20.8170554,42.4303371 21.1894531,42.7128906 C21.5618508,42.9954441 21.7480469,43.4244763 21.7480469,44 C21.7480469,44.3359392 21.6555999,44.6347643 21.4707031,44.8964844 C21.2858064,45.1582044 21.0240902,45.3632805 20.6855469,45.5117188 C21.5449262,46.7955793 22.1048164,47.6249981 22.3652344,48 L21.0214844,48 L19.6582031,45.8085938 L19.0136719,45.8085938 Z M26.5800781,48 L26.1660156,46.640625 L24.0839844,46.640625 L23.6699219,48 L22.3652344,48 L24.3808594,42.265625 L25.8613281,42.265625 L27.8847656,48 L26.5800781,48 Z M25.8769531,45.625 C25.4941387,44.393223 25.2786461,43.6966154 25.2304688,43.5351562 C25.1822914,43.3736971 25.1477866,43.2460942 25.1269531,43.1523438 C25.0410152,43.4856787 24.7949239,44.3098893 24.3886719,45.625 L25.8769531,45.625 Z M32.3261719,48 L28.0761719,48 L28.0761719,47.2148438 L30.8144531,43.2890625 L28.1503906,43.2890625 L28.1503906,42.2890625 L32.2519531,42.2890625 L32.2519531,43.0703125 L29.5175781,47 L32.3261719,47 L32.3261719,48 Z M37.8847656,42.2890625 L37.8847656,45.984375 C37.8847656,46.4062521 37.7903655,46.7760401 37.6015625,47.09375 C37.4127595,47.4114599 37.1399757,47.6549471 36.7832031,47.8242188 C36.4264305,47.9934904 36.0045597,48.078125 35.5175781,48.078125 C34.7831995,48.078125 34.2128927,47.8899758 33.8066406,47.5136719 C33.4003886,47.1373679 33.1972656,46.6223991 33.1972656,45.96875 L33.1972656,42.2890625 L34.4042969,42.2890625 L34.4042969,45.7851562 C34.4042969,46.2252626 34.4928377,46.5481761 34.6699219,46.7539062 C34.8470061,46.9596364 35.1399719,47.0625 35.5488281,47.0625 C35.9446634,47.0625 36.2317699,46.9589854 36.4101562,46.7519531 C36.5885426,46.5449208 36.6777344,46.2200543 36.6777344,45.7773438 L36.6777344,42.2890625 L37.8847656,42.2890625 Z M34.8691406,41.8320312 L34.8691406,41.7265625 C35.3170595,41.2057266 35.6230461,40.8138034 35.7871094,40.5507812 L37.1230469,40.5507812 L37.1230469,40.6328125 C36.9876295,40.7682298 36.7565121,40.9693997 36.4296875,41.2363281 C36.1028629,41.5032565 35.8470061,41.7018223 35.6621094,41.8320312 L34.8691406,41.8320312 Z" id="IRAZÚ" fill="#FFFFFF"></path>
        </g>
    </g>
</svg>