<?xml version="1.0" encoding="UTF-8"?>
<svg width="61px" height="58px" viewBox="0 0 61 58" version="1.1" xmlns="http://www.w3.org/2000/svg" xmlns:xlink="http://www.w3.org/1999/xlink">
    <!-- Generator: Sketch 48.2 (47327) - http://www.bohemiancoding.com/sketch -->
    <title>irazu</title>
    <desc>Created with Sketch.</desc>
    <defs>
        <polygon id="path-1" points="7.62968209e-05 0.0820178694 33.4861189 0.0820178694 33.4861189 22.7079038 7.62968209e-05 22.7079038"></polygon>
        <polygon id="path-3" points="0.0333598711 0.052173913 12.9893383 0.052173913 12.9893383 14.9285217 0.0333598711 14.9285217"></polygon>
        <rect id="path-5" x="0" y="39" width="53" height="14" rx="7"></rect>
        <filter x="-12.3%" y="-39.3%" width="124.5%" height="192.9%" filterUnits="objectBoundingBox" id="filter-6">
            <feOffset dx="0" dy="1" in="SourceAlpha" result="shadowOffsetOuter1"></feOffset>
            <feGaussianBlur stdDeviation="2" in="shadowOffsetOuter1" result="shadowBlurOuter1"></feGaussianBlur>
            <feColorMatrix values="0 0 0 0 0   0 0 0 0 0   0 0 0 0 0  0 0 0 0.5 0" type="matrix" in="shadowBlurOuter1"></feColorMatrix>
        </filter>
    </defs>
    <g id="Volcanes-fallas" stroke="none" stroke-width="1" fill="none" fill-rule="evenodd">
        <g id="irazu" transform="translate(4.000000, 0.000000)">
            <g id="Page-1-Copy-2" transform="translate(10.000000, 0.000000)">
                <g id="Group-3" transform="translate(0.000000, 17.003849)">
                    <mask id="mask-2" fill="white">
                        <use xlink:href="#path-1"></use>
                    </mask>
                    <g id="Clip-2"></g>
                    <path d="M33.4237819,21.9839835 C30.984388,17.6533168 28.544605,13.3226502 26.1052111,8.99159863 C24.4767435,6.10115189 22.848665,3.21070515 21.2201974,0.320258419 C21.1373149,0.173234364 20.9688259,0.0820178694 20.8003369,0.0820178694 L12.6860155,0.0820178694 C12.5171374,0.0820178694 12.3490375,0.173234364 12.2657658,0.320258419 C8.19829346,7.54137182 4.13043199,14.7628701 0.0625705113,21.9839835 C-0.116035612,22.3007395 0.108097562,22.7079423 0.482431094,22.7079423 L33.0039213,22.7079423 C33.3782548,22.7079423 33.602388,22.3007395 33.4237819,21.9839835" id="Fill-1" fill="#FF6D00" mask="url(#mask-2)"></path>
                </g>
                <path d="M23.070697,22.7405966 C22.2998501,21.3723491 21.5290032,20.0041017 20.7581562,18.6354694 C20.5923911,18.3414213 20.2554131,18.1589883 19.9184351,18.1589883 L13.5679951,18.1589883 C13.230628,18.1589883 12.89365,18.3414213 12.7278848,18.6354694 C11.6737585,20.5075244 10.619243,22.3791945 9.56511671,24.2504797 C9.36861106,24.5991808 9.41141427,24.9347959 9.57717943,25.1957443 C9.73555131,25.5706172 10.0982112,25.827332 10.5885026,25.6837718 C10.6970671,25.6699162 10.8021295,25.6341223 10.900966,25.5760055 C11.7578084,25.2588646 12.6142618,24.9421086 13.4707151,24.6249677 C13.6559363,24.5564591 13.8427139,24.4714007 14.0329936,24.4155931 C14.5680338,24.5291326 15.0754464,24.8135588 15.6124321,24.9163216 C16.9685156,25.1761155 18.2942478,23.7739986 19.3818385,22.8541361 C20.1678611,23.2551808 20.9538837,23.6562254 21.7399062,24.0572701 C22.5948031,24.4933388 23.5582644,23.6061911 23.070697,22.7405966" id="Fill-4" fill="#FFFFFF"></path>
                <g id="Group-8" transform="translate(10.000000, 0.000000)">
                    <mask id="mask-4" fill="white">
                        <use xlink:href="#path-3"></use>
                    </mask>
                    <g id="Clip-7"></g>
                    <path d="M12.2268683,4.77156522 C12.4600017,2.66591304 10.6406517,0.975913043 8.573435,1.52156522 C6.23516833,-1.35930435 1.35496833,0.257 1.576835,4.10243478 C-0.983298333,5.517 -0.214131667,9.54417391 2.81855167,9.61656522 C3.54156833,11.2974348 4.26436833,12.9783043 4.987385,14.6593913 C5.06040167,14.8289565 5.28226833,14.9285217 5.45516833,14.9285217 L7.55705167,14.9285217 C7.729735,14.9285217 7.95181833,14.8289565 8.024835,14.6593913 L9.799985,10.5317826 C12.6818683,10.4104783 13.9077683,6.95569565 12.2268683,4.77156522" id="Fill-6" fill="#FF6D00" mask="url(#mask-4)"></path>
                </g>
                <path d="M19.3677971,2.646451 C20.271782,2.68472653 20.8916113,3.67835055 20.6499981,4.75578479 C20.5735292,5.09740492 21.0063147,5.24324789 21.0827836,4.90184774 C21.4031992,3.47223461 20.5611434,2.14710929 19.3677971,2.09651519 C19.0789743,2.08419663 19.0793333,2.63413244 19.3677971,2.646451" id="Fill-9" fill="#FFFFFF" transform="translate(20.151315, 3.596311) rotate(-6.000000) translate(-20.151315, -3.596311) "></path>
            </g>
            <g id="Rectangle-2-Copy-4">
                <use fill="black" fill-opacity="1" filter="url(#filter-6)" xlink:href="#path-5"></use>
                <use fill="#263238" fill-rule="evenodd" xlink:href="#path-5"></use>
            </g>
            <path d="M15.1542969,49 L15.1542969,43.2890625 L16.3652344,43.2890625 L16.3652344,49 L15.1542969,49 Z M19.0136719,45.8242188 L19.4042969,45.8242188 C19.7871113,45.8242188 20.0696605,45.7604173 20.2519531,45.6328125 C20.4342457,45.5052077 20.5253906,45.3046889 20.5253906,45.03125 C20.5253906,44.7604153 20.4322926,44.5677089 20.2460938,44.453125 C20.0598949,44.3385411 19.7714863,44.28125 19.3808594,44.28125 L19.0136719,44.28125 L19.0136719,45.8242188 Z M19.0136719,46.8085938 L19.0136719,49 L17.8027344,49 L17.8027344,43.2890625 L19.4667969,43.2890625 C20.2428424,43.2890625 20.8170554,43.4303371 21.1894531,43.7128906 C21.5618508,43.9954441 21.7480469,44.4244763 21.7480469,45 C21.7480469,45.3359392 21.6555999,45.6347643 21.4707031,45.8964844 C21.2858064,46.1582044 21.0240902,46.3632805 20.6855469,46.5117188 C21.5449262,47.7955793 22.1048164,48.6249981 22.3652344,49 L21.0214844,49 L19.6582031,46.8085938 L19.0136719,46.8085938 Z M26.5800781,49 L26.1660156,47.640625 L24.0839844,47.640625 L23.6699219,49 L22.3652344,49 L24.3808594,43.265625 L25.8613281,43.265625 L27.8847656,49 L26.5800781,49 Z M25.8769531,46.625 C25.4941387,45.393223 25.2786461,44.6966154 25.2304688,44.5351562 C25.1822914,44.3736971 25.1477866,44.2460942 25.1269531,44.1523438 C25.0410152,44.4856787 24.7949239,45.3098893 24.3886719,46.625 L25.8769531,46.625 Z M32.3261719,49 L28.0761719,49 L28.0761719,48.2148438 L30.8144531,44.2890625 L28.1503906,44.2890625 L28.1503906,43.2890625 L32.2519531,43.2890625 L32.2519531,44.0703125 L29.5175781,48 L32.3261719,48 L32.3261719,49 Z M37.8847656,43.2890625 L37.8847656,46.984375 C37.8847656,47.4062521 37.7903655,47.7760401 37.6015625,48.09375 C37.4127595,48.4114599 37.1399757,48.6549471 36.7832031,48.8242188 C36.4264305,48.9934904 36.0045597,49.078125 35.5175781,49.078125 C34.7831995,49.078125 34.2128927,48.8899758 33.8066406,48.5136719 C33.4003886,48.1373679 33.1972656,47.6223991 33.1972656,46.96875 L33.1972656,43.2890625 L34.4042969,43.2890625 L34.4042969,46.7851562 C34.4042969,47.2252626 34.4928377,47.5481761 34.6699219,47.7539062 C34.8470061,47.9596364 35.1399719,48.0625 35.5488281,48.0625 C35.9446634,48.0625 36.2317699,47.9589854 36.4101562,47.7519531 C36.5885426,47.5449208 36.6777344,47.2200543 36.6777344,46.7773438 L36.6777344,43.2890625 L37.8847656,43.2890625 Z M34.8691406,42.8320312 L34.8691406,42.7265625 C35.3170595,42.2057266 35.6230461,41.8138034 35.7871094,41.5507812 L37.1230469,41.5507812 L37.1230469,41.6328125 C36.9876295,41.7682298 36.7565121,41.9693997 36.4296875,42.2363281 C36.1028629,42.5032565 35.8470061,42.7018223 35.6621094,42.8320312 L34.8691406,42.8320312 Z" id="irazú" fill="#FFFFFF"></path>
        </g>
    </g>
</svg>