<?xml version="1.0" encoding="UTF-8"?>
<svg width="104px" height="58px" viewBox="0 0 104 58" version="1.1" xmlns="http://www.w3.org/2000/svg" xmlns:xlink="http://www.w3.org/1999/xlink">
    <!-- Generator: Sketch 48.2 (47327) - http://www.bohemiancoding.com/sketch -->
    <title>laguna_rio_cuarto</title>
    <desc>Created with Sketch.</desc>
    <defs>
        <polygon id="path-1" points="7.62968209e-05 0.0820178694 33.4861189 0.0820178694 33.4861189 22.7079038 7.62968209e-05 22.7079038"></polygon>
        <polygon id="path-3" points="0.0333598711 0.052173913 12.9893383 0.052173913 12.9893383 14.9285217 0.0333598711 14.9285217"></polygon>
        <rect id="path-5" x="0" y="39" width="96" height="14" rx="7"></rect>
        <filter x="-6.8%" y="-39.3%" width="113.5%" height="192.9%" filterUnits="objectBoundingBox" id="filter-6">
            <feOffset dx="0" dy="1" in="SourceAlpha" result="shadowOffsetOuter1"></feOffset>
            <feGaussianBlur stdDeviation="2" in="shadowOffsetOuter1" result="shadowBlurOuter1"></feGaussianBlur>
            <feColorMatrix values="0 0 0 0 0   0 0 0 0 0   0 0 0 0 0  0 0 0 0.5 0" type="matrix" in="shadowBlurOuter1"></feColorMatrix>
        </filter>
    </defs>
    <g id="Volcanes-fallas" stroke="none" stroke-width="1" fill="none" fill-rule="evenodd">
        <g id="laguna_rio_cuarto" transform="translate(4.000000, 0.000000)">
            <g id="Page-1-Copy-2" transform="translate(31.000000, 0.000000)">
                <g id="Group-3" transform="translate(0.000000, 17.003849)">
                    <mask id="mask-2" fill="white">
                        <use xlink:href="#path-1"></use>
                    </mask>
                    <g id="Clip-2"></g>
                    <path d="M33.4237819,21.9839835 C30.984388,17.6533168 28.544605,13.3226502 26.1052111,8.99159863 C24.4767435,6.10115189 22.848665,3.21070515 21.2201974,0.320258419 C21.1373149,0.173234364 20.9688259,0.0820178694 20.8003369,0.0820178694 L12.6860155,0.0820178694 C12.5171374,0.0820178694 12.3490375,0.173234364 12.2657658,0.320258419 C8.19829346,7.54137182 4.13043199,14.7628701 0.0625705113,21.9839835 C-0.116035612,22.3007395 0.108097562,22.7079423 0.482431094,22.7079423 L33.0039213,22.7079423 C33.3782548,22.7079423 33.602388,22.3007395 33.4237819,21.9839835" id="Fill-1" fill="#FF6D00" mask="url(#mask-2)"></path>
                </g>
                <path d="M23.070697,22.7405966 C22.2998501,21.3723491 21.5290032,20.0041017 20.7581562,18.6354694 C20.5923911,18.3414213 20.2554131,18.1589883 19.9184351,18.1589883 L13.5679951,18.1589883 C13.230628,18.1589883 12.89365,18.3414213 12.7278848,18.6354694 C11.6737585,20.5075244 10.619243,22.3791945 9.56511671,24.2504797 C9.36861106,24.5991808 9.41141427,24.9347959 9.57717943,25.1957443 C9.73555131,25.5706172 10.0982112,25.827332 10.5885026,25.6837718 C10.6970671,25.6699162 10.8021295,25.6341223 10.900966,25.5760055 C11.7578084,25.2588646 12.6142618,24.9421086 13.4707151,24.6249677 C13.6559363,24.5564591 13.8427139,24.4714007 14.0329936,24.4155931 C14.5680338,24.5291326 15.0754464,24.8135588 15.6124321,24.9163216 C16.9685156,25.1761155 18.2942478,23.7739986 19.3818385,22.8541361 C20.1678611,23.2551808 20.9538837,23.6562254 21.7399062,24.0572701 C22.5948031,24.4933388 23.5582644,23.6061911 23.070697,22.7405966" id="Fill-4" fill="#FFFFFF"></path>
                <g id="Group-8" transform="translate(10.000000, 0.000000)">
                    <mask id="mask-4" fill="white">
                        <use xlink:href="#path-3"></use>
                    </mask>
                    <g id="Clip-7"></g>
                    <path d="M12.2268683,4.77156522 C12.4600017,2.66591304 10.6406517,0.975913043 8.573435,1.52156522 C6.23516833,-1.35930435 1.35496833,0.257 1.576835,4.10243478 C-0.983298333,5.517 -0.214131667,9.54417391 2.81855167,9.61656522 C3.54156833,11.2974348 4.26436833,12.9783043 4.987385,14.6593913 C5.06040167,14.8289565 5.28226833,14.9285217 5.45516833,14.9285217 L7.55705167,14.9285217 C7.729735,14.9285217 7.95181833,14.8289565 8.024835,14.6593913 L9.799985,10.5317826 C12.6818683,10.4104783 13.9077683,6.95569565 12.2268683,4.77156522" id="Fill-6" fill="#FF6D00" mask="url(#mask-4)"></path>
                </g>
                <path d="M19.3677971,2.646451 C20.271782,2.68472653 20.8916113,3.67835055 20.6499981,4.75578479 C20.5735292,5.09740492 21.0063147,5.24324789 21.0827836,4.90184774 C21.4031992,3.47223461 20.5611434,2.14710929 19.3677971,2.09651519 C19.0789743,2.08419663 19.0793333,2.63413244 19.3677971,2.646451" id="Fill-9" fill="#FFFFFF" transform="translate(20.151315, 3.596311) rotate(-6.000000) translate(-20.151315, -3.596311) "></path>
            </g>
            <g id="Rectangle-2-Copy-4">
                <use fill="black" fill-opacity="1" filter="url(#filter-6)" xlink:href="#path-5"></use>
                <use fill="#263238" fill-rule="evenodd" xlink:href="#path-5"></use>
            </g>
            <path d="M6.26757812,49 L6.26757812,43.2890625 L7.47851562,43.2890625 L7.47851562,48 L9.79492188,48 L9.79492188,49 L6.26757812,49 Z M14.2832031,49 L13.8691406,47.640625 L11.7871094,47.640625 L11.3730469,49 L10.0683594,49 L12.0839844,43.265625 L13.5644531,43.265625 L15.5878906,49 L14.2832031,49 Z M13.5800781,46.625 C13.1972637,45.393223 12.9817711,44.6966154 12.9335938,44.5351562 C12.8854164,44.3736971 12.8509116,44.2460942 12.8300781,44.1523438 C12.7441402,44.4856787 12.4980489,45.3098893 12.0917969,46.625 L13.5800781,46.625 Z M18.3144531,45.7929688 L20.5800781,45.7929688 L20.5800781,48.7539062 C20.2128888,48.8736985 19.8671891,48.9576821 19.5429688,49.0058594 C19.2187484,49.0540367 18.8873715,49.078125 18.5488281,49.078125 C17.6868446,49.078125 17.0286481,48.8248723 16.5742188,48.3183594 C16.1197894,47.8118464 15.8925781,47.0846402 15.8925781,46.1367188 C15.8925781,45.2148391 16.1562474,44.4960963 16.6835938,43.9804688 C17.2109401,43.4648412 17.9420526,43.2070312 18.8769531,43.2070312 C19.4628936,43.2070312 20.0279921,43.3242176 20.5722656,43.5585938 L20.1699219,44.5273438 C19.7532531,44.3190094 19.3196637,44.2148438 18.8691406,44.2148438 C18.3457005,44.2148438 17.9264339,44.3906232 17.6113281,44.7421875 C17.2962224,45.0937518 17.1386719,45.5664033 17.1386719,46.1601562 C17.1386719,46.779951 17.2656237,47.2532536 17.5195312,47.5800781 C17.7734388,47.9069027 18.1425757,48.0703125 18.6269531,48.0703125 C18.8795586,48.0703125 19.1360664,48.0442711 19.3964844,47.9921875 L19.3964844,46.8007812 L18.3144531,46.8007812 L18.3144531,45.7929688 Z M26.5878906,43.2890625 L26.5878906,46.984375 C26.5878906,47.4062521 26.4934905,47.7760401 26.3046875,48.09375 C26.1158845,48.4114599 25.8431007,48.6549471 25.4863281,48.8242188 C25.1295555,48.9934904 24.7076847,49.078125 24.2207031,49.078125 C23.4863245,49.078125 22.9160177,48.8899758 22.5097656,48.5136719 C22.1035136,48.1373679 21.9003906,47.6223991 21.9003906,46.96875 L21.9003906,43.2890625 L23.1074219,43.2890625 L23.1074219,46.7851562 C23.1074219,47.2252626 23.1959627,47.5481761 23.3730469,47.7539062 C23.5501311,47.9596364 23.8430969,48.0625 24.2519531,48.0625 C24.6477884,48.0625 24.9348949,47.9589854 25.1132812,47.7519531 C25.2916676,47.5449208 25.3808594,47.2200543 25.3808594,46.7773438 L25.3808594,43.2890625 L26.5878906,43.2890625 Z M33.0527344,49 L31.5136719,49 L29.0292969,44.6796875 L28.9941406,44.6796875 C29.04362,45.4427121 29.0683594,45.9869775 29.0683594,46.3125 L29.0683594,49 L27.9863281,49 L27.9863281,43.2890625 L29.5136719,43.2890625 L31.9941406,47.5664062 L32.0214844,47.5664062 C31.9824217,46.824215 31.9628906,46.2994807 31.9628906,45.9921875 L31.9628906,43.2890625 L33.0527344,43.2890625 L33.0527344,49 Z M37.9863281,49 L37.5722656,47.640625 L35.4902344,47.640625 L35.0761719,49 L33.7714844,49 L35.7871094,43.265625 L37.2675781,43.265625 L39.2910156,49 L37.9863281,49 Z M37.2832031,46.625 C36.9003887,45.393223 36.6848961,44.6966154 36.6367188,44.5351562 C36.5885414,44.3736971 36.5540366,44.2460942 36.5332031,44.1523438 C36.4472652,44.4856787 36.2011739,45.3098893 35.7949219,46.625 L37.2832031,46.625 Z M43.2988281,45.8242188 L43.6894531,45.8242188 C44.0722675,45.8242188 44.3548168,45.7604173 44.5371094,45.6328125 C44.719402,45.5052077 44.8105469,45.3046889 44.8105469,45.03125 C44.8105469,44.7604153 44.7174488,44.5677089 44.53125,44.453125 C44.3450512,44.3385411 44.0566426,44.28125 43.6660156,44.28125 L43.2988281,44.28125 L43.2988281,45.8242188 Z M43.2988281,46.8085938 L43.2988281,49 L42.0878906,49 L42.0878906,43.2890625 L43.7519531,43.2890625 C44.5279987,43.2890625 45.1022117,43.4303371 45.4746094,43.7128906 C45.8470071,43.9954441 46.0332031,44.4244763 46.0332031,45 C46.0332031,45.3359392 45.9407561,45.6347643 45.7558594,45.8964844 C45.5709626,46.1582044 45.3092465,46.3632805 44.9707031,46.5117188 C45.8300824,47.7955793 46.3899727,48.6249981 46.6503906,49 L45.3066406,49 L43.9433594,46.8085938 L43.2988281,46.8085938 Z M47.3691406,49 L47.3691406,43.2890625 L48.5800781,43.2890625 L48.5800781,49 L47.3691406,49 Z M47.3027344,42.8320312 L47.3027344,42.7265625 C47.7506533,42.2057266 48.0566398,41.8138034 48.2207031,41.5507812 L49.5566406,41.5507812 L49.5566406,41.6328125 C49.4212233,41.7682298 49.1901058,41.9693997 48.8632812,42.2363281 C48.5364567,42.5032565 48.2805999,42.7018223 48.0957031,42.8320312 L47.3027344,42.8320312 Z M55.2011719,46.1367188 C55.2011719,47.082036 54.9667992,47.8085912 54.4980469,48.3164062 C54.0292945,48.8242213 53.3574262,49.078125 52.4824219,49.078125 C51.6074175,49.078125 50.9355492,48.8242213 50.4667969,48.3164062 C49.9980445,47.8085912 49.7636719,47.0794318 49.7636719,46.1289062 C49.7636719,45.1783807 49.9986956,44.4524765 50.46875,43.9511719 C50.9388044,43.4498673 51.6126258,43.1992188 52.4902344,43.1992188 C53.3678429,43.1992188 54.0390602,43.4518204 54.5039062,43.9570312 C54.9687523,44.4622421 55.2011719,45.1887973 55.2011719,46.1367188 Z M51.0332031,46.1367188 C51.0332031,46.7747428 51.1542957,47.2552067 51.3964844,47.578125 C51.6386731,47.9010433 52.0006486,48.0625 52.4824219,48.0625 C53.4485725,48.0625 53.9316406,47.4205793 53.9316406,46.1367188 C53.9316406,44.850254 53.4511767,44.2070312 52.4902344,44.2070312 C52.0084611,44.2070312 51.6451835,44.369139 51.4003906,44.6933594 C51.1555977,45.0175797 51.0332031,45.4986947 51.0332031,46.1367188 Z M60.8886719,44.2148438 C60.4329404,44.2148438 60.0800794,44.386066 59.8300781,44.7285156 C59.5800769,45.0709653 59.4550781,45.548174 59.4550781,46.1601562 C59.4550781,47.4336001 59.9329379,48.0703125 60.8886719,48.0703125 C61.2897155,48.0703125 61.7753878,47.9700531 62.3457031,47.7695312 L62.3457031,48.7851562 C61.8769508,48.9804697 61.3535185,49.078125 60.7753906,49.078125 C59.9446573,49.078125 59.309247,48.8261744 58.8691406,48.3222656 C58.4290343,47.8183569 58.2089844,47.0950568 58.2089844,46.1523438 C58.2089844,45.5585908 58.3170562,45.0384137 58.5332031,44.5917969 C58.74935,44.1451801 59.0598938,43.8027356 59.4648438,43.5644531 C59.8697937,43.3261707 60.3443983,43.2070312 60.8886719,43.2070312 C61.4433621,43.2070312 62.0006482,43.3411445 62.5605469,43.609375 L62.1699219,44.59375 C61.9563791,44.492187 61.7415375,44.4036462 61.5253906,44.328125 C61.3092437,44.2526038 61.0970062,44.2148438 60.8886719,44.2148438 Z M68.2089844,43.2890625 L68.2089844,46.984375 C68.2089844,47.4062521 68.1145843,47.7760401 67.9257812,48.09375 C67.7369782,48.4114599 67.4641945,48.6549471 67.1074219,48.8242188 C66.7506493,48.9934904 66.3287785,49.078125 65.8417969,49.078125 C65.1074182,49.078125 64.5371114,48.8899758 64.1308594,48.5136719 C63.7246073,48.1373679 63.5214844,47.6223991 63.5214844,46.96875 L63.5214844,43.2890625 L64.7285156,43.2890625 L64.7285156,46.7851562 C64.7285156,47.2252626 64.8170564,47.5481761 64.9941406,47.7539062 C65.1712248,47.9596364 65.4641907,48.0625 65.8730469,48.0625 C66.2688822,48.0625 66.5559887,47.9589854 66.734375,47.7519531 C66.9127613,47.5449208 67.0019531,47.2200543 67.0019531,46.7773438 L67.0019531,43.2890625 L68.2089844,43.2890625 Z M73.0253906,49 L72.6113281,47.640625 L70.5292969,47.640625 L70.1152344,49 L68.8105469,49 L70.8261719,43.265625 L72.3066406,43.265625 L74.3300781,49 L73.0253906,49 Z M72.3222656,46.625 C71.9394512,45.393223 71.7239586,44.6966154 71.6757812,44.5351562 C71.6276039,44.3736971 71.5930991,44.2460942 71.5722656,44.1523438 C71.4863277,44.4856787 71.2402364,45.3098893 70.8339844,46.625 L72.3222656,46.625 Z M76.2597656,45.8242188 L76.6503906,45.8242188 C77.033205,45.8242188 77.3157543,45.7604173 77.4980469,45.6328125 C77.6803395,45.5052077 77.7714844,45.3046889 77.7714844,45.03125 C77.7714844,44.7604153 77.6783863,44.5677089 77.4921875,44.453125 C77.3059887,44.3385411 77.0175801,44.28125 76.6269531,44.28125 L76.2597656,44.28125 L76.2597656,45.8242188 Z M76.2597656,46.8085938 L76.2597656,49 L75.0488281,49 L75.0488281,43.2890625 L76.7128906,43.2890625 C77.4889362,43.2890625 78.0631492,43.4303371 78.4355469,43.7128906 C78.8079446,43.9954441 78.9941406,44.4244763 78.9941406,45 C78.9941406,45.3359392 78.9016936,45.6347643 78.7167969,45.8964844 C78.5319001,46.1582044 78.270184,46.3632805 77.9316406,46.5117188 C78.7910199,47.7955793 79.3509102,48.6249981 79.6113281,49 L78.2675781,49 L76.9042969,46.8085938 L76.2597656,46.8085938 Z M82.5332031,49 L81.3222656,49 L81.3222656,44.296875 L79.7714844,44.296875 L79.7714844,43.2890625 L84.0839844,43.2890625 L84.0839844,44.296875 L82.5332031,44.296875 L82.5332031,49 Z M89.9863281,46.1367188 C89.9863281,47.082036 89.7519555,47.8085912 89.2832031,48.3164062 C88.8144508,48.8242213 88.1425825,49.078125 87.2675781,49.078125 C86.3925737,49.078125 85.7207055,48.8242213 85.2519531,48.3164062 C84.7832008,47.8085912 84.5488281,47.0794318 84.5488281,46.1289062 C84.5488281,45.1783807 84.7838518,44.4524765 85.2539062,43.9511719 C85.7239607,43.4498673 86.3977821,43.1992188 87.2753906,43.1992188 C88.1529992,43.1992188 88.8242164,43.4518204 89.2890625,43.9570312 C89.7539086,44.4622421 89.9863281,45.1887973 89.9863281,46.1367188 Z M85.8183594,46.1367188 C85.8183594,46.7747428 85.9394519,47.2552067 86.1816406,47.578125 C86.4238293,47.9010433 86.7858049,48.0625 87.2675781,48.0625 C88.2337288,48.0625 88.7167969,47.4205793 88.7167969,46.1367188 C88.7167969,44.850254 88.2363329,44.2070312 87.2753906,44.2070312 C86.7936174,44.2070312 86.4303398,44.369139 86.1855469,44.6933594 C85.940754,45.0175797 85.8183594,45.4986947 85.8183594,46.1367188 Z" id="laguna-río-cuarto" fill="#FFFFFF"></path>
        </g>
    </g>
</svg>