<?xml version="1.0" encoding="UTF-8"?>
<svg width="78px" height="58px" viewBox="0 0 78 58" version="1.1" xmlns="http://www.w3.org/2000/svg" xmlns:xlink="http://www.w3.org/1999/xlink">
    <!-- Generator: Sketch 48.2 (47327) - http://www.bohemiancoding.com/sketch -->
    <title>laguna_hule</title>
    <desc>Created with Sketch.</desc>
    <defs>
        <polygon id="path-1" points="7.62968209e-05 0.0820178694 33.4861189 0.0820178694 33.4861189 22.7079038 7.62968209e-05 22.7079038"></polygon>
        <polygon id="path-3" points="0.0333598711 0.052173913 12.9893383 0.052173913 12.9893383 14.9285217 0.0333598711 14.9285217"></polygon>
        <rect id="path-5" x="0" y="39" width="70" height="14" rx="7"></rect>
        <filter x="-9.3%" y="-39.3%" width="118.6%" height="192.9%" filterUnits="objectBoundingBox" id="filter-6">
            <feOffset dx="0" dy="1" in="SourceAlpha" result="shadowOffsetOuter1"></feOffset>
            <feGaussianBlur stdDeviation="2" in="shadowOffsetOuter1" result="shadowBlurOuter1"></feGaussianBlur>
            <feColorMatrix values="0 0 0 0 0   0 0 0 0 0   0 0 0 0 0  0 0 0 0.5 0" type="matrix" in="shadowBlurOuter1"></feColorMatrix>
        </filter>
    </defs>
    <g id="Volcanes-fallas" stroke="none" stroke-width="1" fill="none" fill-rule="evenodd">
        <g id="laguna_hule" transform="translate(4.000000, 0.000000)">
            <g id="Page-1-Copy-2" transform="translate(18.000000, 0.000000)">
                <g id="Group-3" transform="translate(0.000000, 17.003849)">
                    <mask id="mask-2" fill="white">
                        <use xlink:href="#path-1"></use>
                    </mask>
                    <g id="Clip-2"></g>
                    <path d="M33.4237819,21.9839835 C30.984388,17.6533168 28.544605,13.3226502 26.1052111,8.99159863 C24.4767435,6.10115189 22.848665,3.21070515 21.2201974,0.320258419 C21.1373149,0.173234364 20.9688259,0.0820178694 20.8003369,0.0820178694 L12.6860155,0.0820178694 C12.5171374,0.0820178694 12.3490375,0.173234364 12.2657658,0.320258419 C8.19829346,7.54137182 4.13043199,14.7628701 0.0625705113,21.9839835 C-0.116035612,22.3007395 0.108097562,22.7079423 0.482431094,22.7079423 L33.0039213,22.7079423 C33.3782548,22.7079423 33.602388,22.3007395 33.4237819,21.9839835" id="Fill-1" fill="#FF6D00" mask="url(#mask-2)"></path>
                </g>
                <path d="M23.070697,22.7405966 C22.2998501,21.3723491 21.5290032,20.0041017 20.7581562,18.6354694 C20.5923911,18.3414213 20.2554131,18.1589883 19.9184351,18.1589883 L13.5679951,18.1589883 C13.230628,18.1589883 12.89365,18.3414213 12.7278848,18.6354694 C11.6737585,20.5075244 10.619243,22.3791945 9.56511671,24.2504797 C9.36861106,24.5991808 9.41141427,24.9347959 9.57717943,25.1957443 C9.73555131,25.5706172 10.0982112,25.827332 10.5885026,25.6837718 C10.6970671,25.6699162 10.8021295,25.6341223 10.900966,25.5760055 C11.7578084,25.2588646 12.6142618,24.9421086 13.4707151,24.6249677 C13.6559363,24.5564591 13.8427139,24.4714007 14.0329936,24.4155931 C14.5680338,24.5291326 15.0754464,24.8135588 15.6124321,24.9163216 C16.9685156,25.1761155 18.2942478,23.7739986 19.3818385,22.8541361 C20.1678611,23.2551808 20.9538837,23.6562254 21.7399062,24.0572701 C22.5948031,24.4933388 23.5582644,23.6061911 23.070697,22.7405966" id="Fill-4" fill="#FFFFFF"></path>
                <g id="Group-8" transform="translate(10.000000, 0.000000)">
                    <mask id="mask-4" fill="white">
                        <use xlink:href="#path-3"></use>
                    </mask>
                    <g id="Clip-7"></g>
                    <path d="M12.2268683,4.77156522 C12.4600017,2.66591304 10.6406517,0.975913043 8.573435,1.52156522 C6.23516833,-1.35930435 1.35496833,0.257 1.576835,4.10243478 C-0.983298333,5.517 -0.214131667,9.54417391 2.81855167,9.61656522 C3.54156833,11.2974348 4.26436833,12.9783043 4.987385,14.6593913 C5.06040167,14.8289565 5.28226833,14.9285217 5.45516833,14.9285217 L7.55705167,14.9285217 C7.729735,14.9285217 7.95181833,14.8289565 8.024835,14.6593913 L9.799985,10.5317826 C12.6818683,10.4104783 13.9077683,6.95569565 12.2268683,4.77156522" id="Fill-6" fill="#FF6D00" mask="url(#mask-4)"></path>
                </g>
                <path d="M19.3677971,2.646451 C20.271782,2.68472653 20.8916113,3.67835055 20.6499981,4.75578479 C20.5735292,5.09740492 21.0063147,5.24324789 21.0827836,4.90184774 C21.4031992,3.47223461 20.5611434,2.14710929 19.3677971,2.09651519 C19.0789743,2.08419663 19.0793333,2.63413244 19.3677971,2.646451" id="Fill-9" fill="#FFFFFF" transform="translate(20.151315, 3.596311) rotate(-6.000000) translate(-20.151315, -3.596311) "></path>
            </g>
            <g id="Rectangle-2-Copy-4">
                <use fill="black" fill-opacity="1" filter="url(#filter-6)" xlink:href="#path-5"></use>
                <use fill="#263238" fill-rule="evenodd" xlink:href="#path-5"></use>
            </g>
            <path d="M7.22460938,49 L7.22460938,43.2890625 L8.43554688,43.2890625 L8.43554688,48 L10.7519531,48 L10.7519531,49 L7.22460938,49 Z M15.2402344,49 L14.8261719,47.640625 L12.7441406,47.640625 L12.3300781,49 L11.0253906,49 L13.0410156,43.265625 L14.5214844,43.265625 L16.5449219,49 L15.2402344,49 Z M14.5371094,46.625 C14.154295,45.393223 13.9388023,44.6966154 13.890625,44.5351562 C13.8424477,44.3736971 13.8079428,44.2460942 13.7871094,44.1523438 C13.7011714,44.4856787 13.4550802,45.3098893 13.0488281,46.625 L14.5371094,46.625 Z M19.2714844,45.7929688 L21.5371094,45.7929688 L21.5371094,48.7539062 C21.16992,48.8736985 20.8242204,48.9576821 20.5,49.0058594 C20.1757796,49.0540367 19.8444027,49.078125 19.5058594,49.078125 C18.6438759,49.078125 17.9856794,48.8248723 17.53125,48.3183594 C17.0768206,47.8118464 16.8496094,47.0846402 16.8496094,46.1367188 C16.8496094,45.2148391 17.1132786,44.4960963 17.640625,43.9804688 C18.1679714,43.4648412 18.8990839,43.2070312 19.8339844,43.2070312 C20.4199248,43.2070312 20.9850233,43.3242176 21.5292969,43.5585938 L21.1269531,44.5273438 C20.7102844,44.3190094 20.276695,44.2148438 19.8261719,44.2148438 C19.3027318,44.2148438 18.8834651,44.3906232 18.5683594,44.7421875 C18.2532536,45.0937518 18.0957031,45.5664033 18.0957031,46.1601562 C18.0957031,46.779951 18.222655,47.2532536 18.4765625,47.5800781 C18.73047,47.9069027 19.099607,48.0703125 19.5839844,48.0703125 C19.8365898,48.0703125 20.0930977,48.0442711 20.3535156,47.9921875 L20.3535156,46.8007812 L19.2714844,46.8007812 L19.2714844,45.7929688 Z M27.5449219,43.2890625 L27.5449219,46.984375 C27.5449219,47.4062521 27.4505218,47.7760401 27.2617188,48.09375 C27.0729157,48.4114599 26.800132,48.6549471 26.4433594,48.8242188 C26.0865868,48.9934904 25.664716,49.078125 25.1777344,49.078125 C24.4433557,49.078125 23.8730489,48.8899758 23.4667969,48.5136719 C23.0605448,48.1373679 22.8574219,47.6223991 22.8574219,46.96875 L22.8574219,43.2890625 L24.0644531,43.2890625 L24.0644531,46.7851562 C24.0644531,47.2252626 24.1529939,47.5481761 24.3300781,47.7539062 C24.5071623,47.9596364 24.8001282,48.0625 25.2089844,48.0625 C25.6048197,48.0625 25.8919262,47.9589854 26.0703125,47.7519531 C26.2486988,47.5449208 26.3378906,47.2200543 26.3378906,46.7773438 L26.3378906,43.2890625 L27.5449219,43.2890625 Z M34.0097656,49 L32.4707031,49 L29.9863281,44.6796875 L29.9511719,44.6796875 C30.0006513,45.4427121 30.0253906,45.9869775 30.0253906,46.3125 L30.0253906,49 L28.9433594,49 L28.9433594,43.2890625 L30.4707031,43.2890625 L32.9511719,47.5664062 L32.9785156,47.5664062 C32.9394529,46.824215 32.9199219,46.2994807 32.9199219,45.9921875 L32.9199219,43.2890625 L34.0097656,43.2890625 L34.0097656,49 Z M38.9433594,49 L38.5292969,47.640625 L36.4472656,47.640625 L36.0332031,49 L34.7285156,49 L36.7441406,43.265625 L38.2246094,43.265625 L40.2480469,49 L38.9433594,49 Z M38.2402344,46.625 C37.85742,45.393223 37.6419273,44.6966154 37.59375,44.5351562 C37.5455727,44.3736971 37.5110678,44.2460942 37.4902344,44.1523438 C37.4042964,44.4856787 37.1582052,45.3098893 36.7519531,46.625 L38.2402344,46.625 Z M47.7246094,49 L46.5175781,49 L46.5175781,46.5351562 L44.2558594,46.5351562 L44.2558594,49 L43.0449219,49 L43.0449219,43.2890625 L44.2558594,43.2890625 L44.2558594,45.5273438 L46.5175781,45.5273438 L46.5175781,43.2890625 L47.7246094,43.2890625 L47.7246094,49 Z M53.8144531,43.2890625 L53.8144531,46.984375 C53.8144531,47.4062521 53.720053,47.7760401 53.53125,48.09375 C53.342447,48.4114599 53.0696632,48.6549471 52.7128906,48.8242188 C52.356118,48.9934904 51.9342472,49.078125 51.4472656,49.078125 C50.712887,49.078125 50.1425802,48.8899758 49.7363281,48.5136719 C49.3300761,48.1373679 49.1269531,47.6223991 49.1269531,46.96875 L49.1269531,43.2890625 L50.3339844,43.2890625 L50.3339844,46.7851562 C50.3339844,47.2252626 50.4225252,47.5481761 50.5996094,47.7539062 C50.7766936,47.9596364 51.0696594,48.0625 51.4785156,48.0625 C51.8743509,48.0625 52.1614574,47.9589854 52.3398438,47.7519531 C52.5182301,47.5449208 52.6074219,47.2200543 52.6074219,46.7773438 L52.6074219,43.2890625 L53.8144531,43.2890625 Z M55.2128906,49 L55.2128906,43.2890625 L56.4238281,43.2890625 L56.4238281,48 L58.7402344,48 L58.7402344,49 L55.2128906,49 Z M63.0214844,49 L59.7324219,49 L59.7324219,43.2890625 L63.0214844,43.2890625 L63.0214844,44.28125 L60.9433594,44.28125 L60.9433594,45.5351562 L62.8769531,45.5351562 L62.8769531,46.5273438 L60.9433594,46.5273438 L60.9433594,48 L63.0214844,48 L63.0214844,49 Z" id="laguna-hule" fill="#FFFFFF"></path>
        </g>
    </g>
</svg>