<?xml version="1.0" encoding="UTF-8"?>
<svg width="78px" height="41px" viewBox="0 0 78 41" version="1.1" xmlns="http://www.w3.org/2000/svg" xmlns:xlink="http://www.w3.org/1999/xlink">
    <!-- Generator: Sketch 48.2 (47327) - http://www.bohemiancoding.com/sketch -->
    <title>LAGUNA_HULE</title>
    <desc>Created with Sketch.</desc>
    <defs>
        <polygon id="path-1" points="7.62968209e-05 0.0820178694 33.4861189 0.0820178694 33.4861189 22.7079038 7.62968209e-05 22.7079038"></polygon>
        <rect id="path-3" x="0" y="22" width="70" height="14" rx="7"></rect>
        <filter x="-9.3%" y="-39.3%" width="118.6%" height="192.9%" filterUnits="objectBoundingBox" id="filter-4">
            <feOffset dx="0" dy="1" in="SourceAlpha" result="shadowOffsetOuter1"></feOffset>
            <feGaussianBlur stdDeviation="2" in="shadowOffsetOuter1" result="shadowBlurOuter1"></feGaussianBlur>
            <feColorMatrix values="0 0 0 0 0   0 0 0 0 0   0 0 0 0 0  0 0 0 0.5 0" type="matrix" in="shadowBlurOuter1"></feColorMatrix>
        </filter>
    </defs>
    <g id="Volcanes-fallas" stroke="none" stroke-width="1" fill="none" fill-rule="evenodd">
        <g id="LAGUNA_HULE" transform="translate(4.000000, 0.000000)">
            <g id="Page-1-Copy-2" transform="translate(18.000000, 0.000000)">
                <g id="Group-3" transform="translate(0.000000, 0.003849)">
                    <mask id="mask-2" fill="white">
                        <use xlink:href="#path-1"></use>
                    </mask>
                    <g id="Clip-2"></g>
                    <path d="M33.4237819,21.9839835 C30.984388,17.6533168 28.544605,13.3226502 26.1052111,8.99159863 C24.4767435,6.10115189 22.848665,3.21070515 21.2201974,0.320258419 C21.1373149,0.173234364 20.9688259,0.0820178694 20.8003369,0.0820178694 L12.6860155,0.0820178694 C12.5171374,0.0820178694 12.3490375,0.173234364 12.2657658,0.320258419 C8.19829346,7.54137182 4.13043199,14.7628701 0.0625705113,21.9839835 C-0.116035612,22.3007395 0.108097562,22.7079423 0.482431094,22.7079423 L33.0039213,22.7079423 C33.3782548,22.7079423 33.602388,22.3007395 33.4237819,21.9839835" id="Fill-1" fill="#FF6D00" mask="url(#mask-2)"></path>
                </g>
            </g>
            <path d="M31.4944112,5 L26,14.7371169" id="Line" stroke="#FFFFFF" stroke-linecap="round"></path>
            <path d="M31.4944112,10 L27.5,17.5" id="Line-Copy-2" stroke="#FFFFFF" stroke-linecap="round"></path>
            <path d="M42.5,13.5 L47.5,23.5" id="Line-Copy" stroke="#FFFFFF" stroke-linecap="round"></path>
            <path d="M40.5,9.5 L41.5,11.5" id="Line" stroke="#FFFFFF" stroke-linecap="round"></path>
            <g id="Rectangle-2-Copy-4">
                <use fill="black" fill-opacity="1" filter="url(#filter-4)" xlink:href="#path-3"></use>
                <use fill="#263238" fill-rule="evenodd" xlink:href="#path-3"></use>
            </g>
            <path d="M7.22460938,32 L7.22460938,26.2890625 L8.43554688,26.2890625 L8.43554688,31 L10.7519531,31 L10.7519531,32 L7.22460938,32 Z M15.2402344,32 L14.8261719,30.640625 L12.7441406,30.640625 L12.3300781,32 L11.0253906,32 L13.0410156,26.265625 L14.5214844,26.265625 L16.5449219,32 L15.2402344,32 Z M14.5371094,29.625 C14.154295,28.393223 13.9388023,27.6966154 13.890625,27.5351562 C13.8424477,27.3736971 13.8079428,27.2460942 13.7871094,27.1523438 C13.7011714,27.4856787 13.4550802,28.3098893 13.0488281,29.625 L14.5371094,29.625 Z M19.2714844,28.7929688 L21.5371094,28.7929688 L21.5371094,31.7539062 C21.16992,31.8736985 20.8242204,31.9576821 20.5,32.0058594 C20.1757796,32.0540367 19.8444027,32.078125 19.5058594,32.078125 C18.6438759,32.078125 17.9856794,31.8248723 17.53125,31.3183594 C17.0768206,30.8118464 16.8496094,30.0846402 16.8496094,29.1367188 C16.8496094,28.2148391 17.1132786,27.4960963 17.640625,26.9804688 C18.1679714,26.4648412 18.8990839,26.2070312 19.8339844,26.2070312 C20.4199248,26.2070312 20.9850233,26.3242176 21.5292969,26.5585938 L21.1269531,27.5273438 C20.7102844,27.3190094 20.276695,27.2148438 19.8261719,27.2148438 C19.3027318,27.2148438 18.8834651,27.3906232 18.5683594,27.7421875 C18.2532536,28.0937518 18.0957031,28.5664033 18.0957031,29.1601562 C18.0957031,29.779951 18.222655,30.2532536 18.4765625,30.5800781 C18.73047,30.9069027 19.099607,31.0703125 19.5839844,31.0703125 C19.8365898,31.0703125 20.0930977,31.0442711 20.3535156,30.9921875 L20.3535156,29.8007812 L19.2714844,29.8007812 L19.2714844,28.7929688 Z M27.5449219,26.2890625 L27.5449219,29.984375 C27.5449219,30.4062521 27.4505218,30.7760401 27.2617188,31.09375 C27.0729157,31.4114599 26.800132,31.6549471 26.4433594,31.8242188 C26.0865868,31.9934904 25.664716,32.078125 25.1777344,32.078125 C24.4433557,32.078125 23.8730489,31.8899758 23.4667969,31.5136719 C23.0605448,31.1373679 22.8574219,30.6223991 22.8574219,29.96875 L22.8574219,26.2890625 L24.0644531,26.2890625 L24.0644531,29.7851562 C24.0644531,30.2252626 24.1529939,30.5481761 24.3300781,30.7539062 C24.5071623,30.9596364 24.8001282,31.0625 25.2089844,31.0625 C25.6048197,31.0625 25.8919262,30.9589854 26.0703125,30.7519531 C26.2486988,30.5449208 26.3378906,30.2200543 26.3378906,29.7773438 L26.3378906,26.2890625 L27.5449219,26.2890625 Z M34.0097656,32 L32.4707031,32 L29.9863281,27.6796875 L29.9511719,27.6796875 C30.0006513,28.4427121 30.0253906,28.9869775 30.0253906,29.3125 L30.0253906,32 L28.9433594,32 L28.9433594,26.2890625 L30.4707031,26.2890625 L32.9511719,30.5664062 L32.9785156,30.5664062 C32.9394529,29.824215 32.9199219,29.2994807 32.9199219,28.9921875 L32.9199219,26.2890625 L34.0097656,26.2890625 L34.0097656,32 Z M38.9433594,32 L38.5292969,30.640625 L36.4472656,30.640625 L36.0332031,32 L34.7285156,32 L36.7441406,26.265625 L38.2246094,26.265625 L40.2480469,32 L38.9433594,32 Z M38.2402344,29.625 C37.85742,28.393223 37.6419273,27.6966154 37.59375,27.5351562 C37.5455727,27.3736971 37.5110678,27.2460942 37.4902344,27.1523438 C37.4042964,27.4856787 37.1582052,28.3098893 36.7519531,29.625 L38.2402344,29.625 Z M47.7246094,32 L46.5175781,32 L46.5175781,29.5351562 L44.2558594,29.5351562 L44.2558594,32 L43.0449219,32 L43.0449219,26.2890625 L44.2558594,26.2890625 L44.2558594,28.5273438 L46.5175781,28.5273438 L46.5175781,26.2890625 L47.7246094,26.2890625 L47.7246094,32 Z M53.8144531,26.2890625 L53.8144531,29.984375 C53.8144531,30.4062521 53.720053,30.7760401 53.53125,31.09375 C53.342447,31.4114599 53.0696632,31.6549471 52.7128906,31.8242188 C52.356118,31.9934904 51.9342472,32.078125 51.4472656,32.078125 C50.712887,32.078125 50.1425802,31.8899758 49.7363281,31.5136719 C49.3300761,31.1373679 49.1269531,30.6223991 49.1269531,29.96875 L49.1269531,26.2890625 L50.3339844,26.2890625 L50.3339844,29.7851562 C50.3339844,30.2252626 50.4225252,30.5481761 50.5996094,30.7539062 C50.7766936,30.9596364 51.0696594,31.0625 51.4785156,31.0625 C51.8743509,31.0625 52.1614574,30.9589854 52.3398438,30.7519531 C52.5182301,30.5449208 52.6074219,30.2200543 52.6074219,29.7773438 L52.6074219,26.2890625 L53.8144531,26.2890625 Z M55.2128906,32 L55.2128906,26.2890625 L56.4238281,26.2890625 L56.4238281,31 L58.7402344,31 L58.7402344,32 L55.2128906,32 Z M63.0214844,32 L59.7324219,32 L59.7324219,26.2890625 L63.0214844,26.2890625 L63.0214844,27.28125 L60.9433594,27.28125 L60.9433594,28.5351562 L62.8769531,28.5351562 L62.8769531,29.5273438 L60.9433594,29.5273438 L60.9433594,31 L63.0214844,31 L63.0214844,32 Z" id="LAGUNA-HULE" fill="#FFFFFF"></path>
        </g>
    </g>
</svg>