<?xml version="1.0" encoding="UTF-8"?>
<svg width="78px" height="58px" viewBox="0 0 78 58" version="1.1" xmlns="http://www.w3.org/2000/svg" xmlns:xlink="http://www.w3.org/1999/xlink">
    <!-- Generator: Sketch 48.2 (47327) - http://www.bohemiancoding.com/sketch -->
    <title>miravalles</title>
    <desc>Created with Sketch.</desc>
    <defs>
        <polygon id="path-1" points="7.62968209e-05 0.0820178694 33.4861189 0.0820178694 33.4861189 22.7079038 7.62968209e-05 22.7079038"></polygon>
        <polygon id="path-3" points="0.0333598711 0.052173913 12.9893383 0.052173913 12.9893383 14.9285217 0.0333598711 14.9285217"></polygon>
        <rect id="path-5" x="0" y="39" width="70" height="14" rx="7"></rect>
        <filter x="-9.3%" y="-39.3%" width="118.6%" height="192.9%" filterUnits="objectBoundingBox" id="filter-6">
            <feOffset dx="0" dy="1" in="SourceAlpha" result="shadowOffsetOuter1"></feOffset>
            <feGaussianBlur stdDeviation="2" in="shadowOffsetOuter1" result="shadowBlurOuter1"></feGaussianBlur>
            <feColorMatrix values="0 0 0 0 0   0 0 0 0 0   0 0 0 0 0  0 0 0 0.5 0" type="matrix" in="shadowBlurOuter1"></feColorMatrix>
        </filter>
    </defs>
    <g id="Volcanes-fallas" stroke="none" stroke-width="1" fill="none" fill-rule="evenodd">
        <g id="miravalles" transform="translate(4.000000, 0.000000)">
            <g id="Page-1-Copy-2" transform="translate(18.000000, 0.000000)">
                <g id="Group-3" transform="translate(0.000000, 17.003849)">
                    <mask id="mask-2" fill="white">
                        <use xlink:href="#path-1"></use>
                    </mask>
                    <g id="Clip-2"></g>
                    <path d="M33.4237819,21.9839835 C30.984388,17.6533168 28.544605,13.3226502 26.1052111,8.99159863 C24.4767435,6.10115189 22.848665,3.21070515 21.2201974,0.320258419 C21.1373149,0.173234364 20.9688259,0.0820178694 20.8003369,0.0820178694 L12.6860155,0.0820178694 C12.5171374,0.0820178694 12.3490375,0.173234364 12.2657658,0.320258419 C8.19829346,7.54137182 4.13043199,14.7628701 0.0625705113,21.9839835 C-0.116035612,22.3007395 0.108097562,22.7079423 0.482431094,22.7079423 L33.0039213,22.7079423 C33.3782548,22.7079423 33.602388,22.3007395 33.4237819,21.9839835" id="Fill-1" fill="#FF6D00" mask="url(#mask-2)"></path>
                </g>
                <path d="M23.070697,22.7405966 C22.2998501,21.3723491 21.5290032,20.0041017 20.7581562,18.6354694 C20.5923911,18.3414213 20.2554131,18.1589883 19.9184351,18.1589883 L13.5679951,18.1589883 C13.230628,18.1589883 12.89365,18.3414213 12.7278848,18.6354694 C11.6737585,20.5075244 10.619243,22.3791945 9.56511671,24.2504797 C9.36861106,24.5991808 9.41141427,24.9347959 9.57717943,25.1957443 C9.73555131,25.5706172 10.0982112,25.827332 10.5885026,25.6837718 C10.6970671,25.6699162 10.8021295,25.6341223 10.900966,25.5760055 C11.7578084,25.2588646 12.6142618,24.9421086 13.4707151,24.6249677 C13.6559363,24.5564591 13.8427139,24.4714007 14.0329936,24.4155931 C14.5680338,24.5291326 15.0754464,24.8135588 15.6124321,24.9163216 C16.9685156,25.1761155 18.2942478,23.7739986 19.3818385,22.8541361 C20.1678611,23.2551808 20.9538837,23.6562254 21.7399062,24.0572701 C22.5948031,24.4933388 23.5582644,23.6061911 23.070697,22.7405966" id="Fill-4" fill="#FFFFFF"></path>
                <g id="Group-8" transform="translate(10.000000, 0.000000)">
                    <mask id="mask-4" fill="white">
                        <use xlink:href="#path-3"></use>
                    </mask>
                    <g id="Clip-7"></g>
                    <path d="M12.2268683,4.77156522 C12.4600017,2.66591304 10.6406517,0.975913043 8.573435,1.52156522 C6.23516833,-1.35930435 1.35496833,0.257 1.576835,4.10243478 C-0.983298333,5.517 -0.214131667,9.54417391 2.81855167,9.61656522 C3.54156833,11.2974348 4.26436833,12.9783043 4.987385,14.6593913 C5.06040167,14.8289565 5.28226833,14.9285217 5.45516833,14.9285217 L7.55705167,14.9285217 C7.729735,14.9285217 7.95181833,14.8289565 8.024835,14.6593913 L9.799985,10.5317826 C12.6818683,10.4104783 13.9077683,6.95569565 12.2268683,4.77156522" id="Fill-6" fill="#FF6D00" mask="url(#mask-4)"></path>
                </g>
                <path d="M19.3677971,2.646451 C20.271782,2.68472653 20.8916113,3.67835055 20.6499981,4.75578479 C20.5735292,5.09740492 21.0063147,5.24324789 21.0827836,4.90184774 C21.4031992,3.47223461 20.5611434,2.14710929 19.3677971,2.09651519 C19.0789743,2.08419663 19.0793333,2.63413244 19.3677971,2.646451" id="Fill-9" fill="#FFFFFF" transform="translate(20.151315, 3.596311) rotate(-6.000000) translate(-20.151315, -3.596311) "></path>
            </g>
            <g id="Rectangle-2-Copy-4">
                <use fill="black" fill-opacity="1" filter="url(#filter-6)" xlink:href="#path-5"></use>
                <use fill="#263238" fill-rule="evenodd" xlink:href="#path-5"></use>
            </g>
            <path d="M13.6386719,49 L12.2636719,44.5195312 L12.2285156,44.5195312 C12.277995,45.4309941 12.3027344,46.039061 12.3027344,46.34375 L12.3027344,49 L11.2207031,49 L11.2207031,43.2890625 L12.8691406,43.2890625 L14.2207031,47.65625 L14.2441406,47.65625 L15.6777344,43.2890625 L17.3261719,43.2890625 L17.3261719,49 L16.1972656,49 L16.1972656,46.296875 C16.1972656,46.1692702 16.1992187,46.0221363 16.203125,45.8554688 C16.2070313,45.6888012 16.2246092,45.2460973 16.2558594,44.5273438 L16.2207031,44.5273438 L14.7480469,49 L13.6386719,49 Z M18.7636719,49 L18.7636719,43.2890625 L19.9746094,43.2890625 L19.9746094,49 L18.7636719,49 Z M22.6230469,45.8242188 L23.0136719,45.8242188 C23.3964863,45.8242188 23.6790355,45.7604173 23.8613281,45.6328125 C24.0436207,45.5052077 24.1347656,45.3046889 24.1347656,45.03125 C24.1347656,44.7604153 24.0416676,44.5677089 23.8554688,44.453125 C23.6692699,44.3385411 23.3808613,44.28125 22.9902344,44.28125 L22.6230469,44.28125 L22.6230469,45.8242188 Z M22.6230469,46.8085938 L22.6230469,49 L21.4121094,49 L21.4121094,43.2890625 L23.0761719,43.2890625 C23.8522174,43.2890625 24.4264304,43.4303371 24.7988281,43.7128906 C25.1712258,43.9954441 25.3574219,44.4244763 25.3574219,45 C25.3574219,45.3359392 25.2649749,45.6347643 25.0800781,45.8964844 C24.8951814,46.1582044 24.6334652,46.3632805 24.2949219,46.5117188 C25.1543012,47.7955793 25.7141914,48.6249981 25.9746094,49 L24.6308594,49 L23.2675781,46.8085938 L22.6230469,46.8085938 Z M30.1894531,49 L29.7753906,47.640625 L27.6933594,47.640625 L27.2792969,49 L25.9746094,49 L27.9902344,43.265625 L29.4707031,43.265625 L31.4941406,49 L30.1894531,49 Z M29.4863281,46.625 C29.1035137,45.393223 28.8880211,44.6966154 28.8398438,44.5351562 C28.7916664,44.3736971 28.7571616,44.2460942 28.7363281,44.1523438 C28.6503902,44.4856787 28.4042989,45.3098893 27.9980469,46.625 L29.4863281,46.625 Z M35.1503906,43.2890625 L36.3730469,43.2890625 L34.4316406,49 L33.1113281,49 L31.1738281,43.2890625 L32.3964844,43.2890625 L33.4707031,46.6875 C33.5305993,46.8880218 33.5924476,47.1217435 33.65625,47.3886719 C33.7200524,47.6556003 33.7597655,47.8411453 33.7753906,47.9453125 C33.8040366,47.705728 33.9016919,47.2864613 34.0683594,46.6875 L35.1503906,43.2890625 Z M40.2675781,49 L39.8535156,47.640625 L37.7714844,47.640625 L37.3574219,49 L36.0527344,49 L38.0683594,43.265625 L39.5488281,43.265625 L41.5722656,49 L40.2675781,49 Z M39.5644531,46.625 C39.1816387,45.393223 38.9661461,44.6966154 38.9179688,44.5351562 C38.8697914,44.3736971 38.8352866,44.2460942 38.8144531,44.1523438 C38.7285152,44.4856787 38.4824239,45.3098893 38.0761719,46.625 L39.5644531,46.625 Z M42.2910156,49 L42.2910156,43.2890625 L43.5019531,43.2890625 L43.5019531,48 L45.8183594,48 L45.8183594,49 L42.2910156,49 Z M46.8105469,49 L46.8105469,43.2890625 L48.0214844,43.2890625 L48.0214844,48 L50.3378906,48 L50.3378906,49 L46.8105469,49 Z M54.6191406,49 L51.3300781,49 L51.3300781,43.2890625 L54.6191406,43.2890625 L54.6191406,44.28125 L52.5410156,44.28125 L52.5410156,45.5351562 L54.4746094,45.5351562 L54.4746094,46.5273438 L52.5410156,46.5273438 L52.5410156,48 L54.6191406,48 L54.6191406,49 Z M59.1816406,47.4140625 C59.1816406,47.9296901 58.9960956,48.335936 58.625,48.6328125 C58.2539044,48.929689 57.7376335,49.078125 57.0761719,49.078125 C56.4667938,49.078125 55.9277367,48.9635428 55.4589844,48.734375 L55.4589844,47.609375 C55.844403,47.7812509 56.1705716,47.9023434 56.4375,47.9726562 C56.7044284,48.0429691 56.9485666,48.078125 57.1699219,48.078125 C57.4355482,48.078125 57.6393222,48.0273443 57.78125,47.9257812 C57.9231778,47.8242182 57.9941406,47.6731781 57.9941406,47.4726562 C57.9941406,47.3606765 57.9628909,47.2610681 57.9003906,47.1738281 C57.8378903,47.0865881 57.7460944,47.0026046 57.625,46.921875 C57.5039056,46.8411454 57.2571633,46.7122405 56.8847656,46.5351562 C56.5358055,46.3710929 56.2740894,46.2135424 56.0996094,46.0625 C55.9251293,45.9114576 55.7858078,45.7356781 55.6816406,45.5351562 C55.5774734,45.3346344 55.5253906,45.1002618 55.5253906,44.8320312 C55.5253906,44.3268204 55.6966129,43.9296889 56.0390625,43.640625 C56.3815121,43.3515611 56.8548147,43.2070312 57.4589844,43.2070312 C57.7558609,43.2070312 58.0390612,43.2421871 58.3085937,43.3125 C58.5781263,43.3828129 58.8600246,43.4817702 59.1542969,43.609375 L58.7636719,44.5507812 C58.4589829,44.4257806 58.2070322,44.3385419 58.0078125,44.2890625 C57.8085928,44.2395831 57.6126312,44.2148438 57.4199219,44.2148438 C57.1907541,44.2148438 57.0149746,44.2682286 56.8925781,44.375 C56.7701817,44.4817714 56.7089844,44.6210929 56.7089844,44.7929688 C56.7089844,44.8997401 56.7337237,44.9928381 56.7832031,45.0722656 C56.8326825,45.1516931 56.9114578,45.2285153 57.0195312,45.3027344 C57.1276047,45.3769535 57.3834615,45.5104157 57.7871094,45.703125 C58.3209662,45.9583346 58.686848,46.2141914 58.8847656,46.4707031 C59.0826833,46.7272148 59.1816406,47.0416648 59.1816406,47.4140625 Z" id="MIRAVALLES" fill="#FFFFFF"></path>
        </g>
    </g>
</svg>