<?xml version="1.0" encoding="UTF-8"?>
<svg width="61px" height="58px" viewBox="0 0 61 58" version="1.1" xmlns="http://www.w3.org/2000/svg" xmlns:xlink="http://www.w3.org/1999/xlink">
    <!-- Generator: Sketch 48.2 (47327) - http://www.bohemiancoding.com/sketch -->
    <title>osori</title>
    <desc>Created with Sketch.</desc>
    <defs>
        <polygon id="path-1" points="7.62968209e-05 0.0820178694 33.4861189 0.0820178694 33.4861189 22.7079038 7.62968209e-05 22.7079038"></polygon>
        <polygon id="path-3" points="0.0333598711 0.052173913 12.9893383 0.052173913 12.9893383 14.9285217 0.0333598711 14.9285217"></polygon>
        <rect id="path-5" x="0" y="39" width="53" height="14" rx="7"></rect>
        <filter x="-12.3%" y="-39.3%" width="124.5%" height="192.9%" filterUnits="objectBoundingBox" id="filter-6">
            <feOffset dx="0" dy="1" in="SourceAlpha" result="shadowOffsetOuter1"></feOffset>
            <feGaussianBlur stdDeviation="2" in="shadowOffsetOuter1" result="shadowBlurOuter1"></feGaussianBlur>
            <feColorMatrix values="0 0 0 0 0   0 0 0 0 0   0 0 0 0 0  0 0 0 0.5 0" type="matrix" in="shadowBlurOuter1"></feColorMatrix>
        </filter>
    </defs>
    <g id="Volcanes-fallas" stroke="none" stroke-width="1" fill="none" fill-rule="evenodd">
        <g id="osori" transform="translate(4.000000, 0.000000)">
            <g id="Page-1-Copy-2" transform="translate(10.000000, 0.000000)">
                <g id="Group-3" transform="translate(0.000000, 17.003849)">
                    <mask id="mask-2" fill="white">
                        <use xlink:href="#path-1"></use>
                    </mask>
                    <g id="Clip-2"></g>
                    <path d="M33.4237819,21.9839835 C30.984388,17.6533168 28.544605,13.3226502 26.1052111,8.99159863 C24.4767435,6.10115189 22.848665,3.21070515 21.2201974,0.320258419 C21.1373149,0.173234364 20.9688259,0.0820178694 20.8003369,0.0820178694 L12.6860155,0.0820178694 C12.5171374,0.0820178694 12.3490375,0.173234364 12.2657658,0.320258419 C8.19829346,7.54137182 4.13043199,14.7628701 0.0625705113,21.9839835 C-0.116035612,22.3007395 0.108097562,22.7079423 0.482431094,22.7079423 L33.0039213,22.7079423 C33.3782548,22.7079423 33.602388,22.3007395 33.4237819,21.9839835" id="Fill-1" fill="#FF6D00" mask="url(#mask-2)"></path>
                </g>
                <path d="M23.070697,22.7405966 C22.2998501,21.3723491 21.5290032,20.0041017 20.7581562,18.6354694 C20.5923911,18.3414213 20.2554131,18.1589883 19.9184351,18.1589883 L13.5679951,18.1589883 C13.230628,18.1589883 12.89365,18.3414213 12.7278848,18.6354694 C11.6737585,20.5075244 10.619243,22.3791945 9.56511671,24.2504797 C9.36861106,24.5991808 9.41141427,24.9347959 9.57717943,25.1957443 C9.73555131,25.5706172 10.0982112,25.827332 10.5885026,25.6837718 C10.6970671,25.6699162 10.8021295,25.6341223 10.900966,25.5760055 C11.7578084,25.2588646 12.6142618,24.9421086 13.4707151,24.6249677 C13.6559363,24.5564591 13.8427139,24.4714007 14.0329936,24.4155931 C14.5680338,24.5291326 15.0754464,24.8135588 15.6124321,24.9163216 C16.9685156,25.1761155 18.2942478,23.7739986 19.3818385,22.8541361 C20.1678611,23.2551808 20.9538837,23.6562254 21.7399062,24.0572701 C22.5948031,24.4933388 23.5582644,23.6061911 23.070697,22.7405966" id="Fill-4" fill="#FFFFFF"></path>
                <g id="Group-8" transform="translate(10.000000, 0.000000)">
                    <mask id="mask-4" fill="white">
                        <use xlink:href="#path-3"></use>
                    </mask>
                    <g id="Clip-7"></g>
                    <path d="M12.2268683,4.77156522 C12.4600017,2.66591304 10.6406517,0.975913043 8.573435,1.52156522 C6.23516833,-1.35930435 1.35496833,0.257 1.576835,4.10243478 C-0.983298333,5.517 -0.214131667,9.54417391 2.81855167,9.61656522 C3.54156833,11.2974348 4.26436833,12.9783043 4.987385,14.6593913 C5.06040167,14.8289565 5.28226833,14.9285217 5.45516833,14.9285217 L7.55705167,14.9285217 C7.729735,14.9285217 7.95181833,14.8289565 8.024835,14.6593913 L9.799985,10.5317826 C12.6818683,10.4104783 13.9077683,6.95569565 12.2268683,4.77156522" id="Fill-6" fill="#FF6D00" mask="url(#mask-4)"></path>
                </g>
                <path d="M19.3677971,2.646451 C20.271782,2.68472653 20.8916113,3.67835055 20.6499981,4.75578479 C20.5735292,5.09740492 21.0063147,5.24324789 21.0827836,4.90184774 C21.4031992,3.47223461 20.5611434,2.14710929 19.3677971,2.09651519 C19.0789743,2.08419663 19.0793333,2.63413244 19.3677971,2.646451" id="Fill-9" fill="#FFFFFF" transform="translate(20.151315, 3.596311) rotate(-6.000000) translate(-20.151315, -3.596311) "></path>
            </g>
            <g id="Rectangle-2-Copy-4">
                <use fill="black" fill-opacity="1" filter="url(#filter-6)" xlink:href="#path-5"></use>
                <use fill="#263238" fill-rule="evenodd" xlink:href="#path-5"></use>
            </g>
            <path d="M19.8671875,46.1367188 C19.8671875,47.082036 19.6328148,47.8085912 19.1640625,48.3164062 C18.6953102,48.8242213 18.0234419,49.078125 17.1484375,49.078125 C16.2734331,49.078125 15.6015648,48.8242213 15.1328125,48.3164062 C14.6640602,47.8085912 14.4296875,47.0794318 14.4296875,46.1289062 C14.4296875,45.1783807 14.6647112,44.4524765 15.1347656,43.9511719 C15.6048201,43.4498673 16.2786414,43.1992188 17.15625,43.1992188 C18.0338586,43.1992188 18.7050758,43.4518204 19.1699219,43.9570312 C19.6347679,44.4622421 19.8671875,45.1887973 19.8671875,46.1367188 Z M15.6992188,46.1367188 C15.6992188,46.7747428 15.8203113,47.2552067 16.0625,47.578125 C16.3046887,47.9010433 16.6666643,48.0625 17.1484375,48.0625 C18.1145882,48.0625 18.5976562,47.4205793 18.5976562,46.1367188 C18.5976562,44.850254 18.1171923,44.2070312 17.15625,44.2070312 C16.6744768,44.2070312 16.3111991,44.369139 16.0664062,44.6933594 C15.8216134,45.0175797 15.6992188,45.4986947 15.6992188,46.1367188 Z M22.2617188,45.8242188 L22.6523438,45.8242188 C23.0351582,45.8242188 23.3177074,45.7604173 23.5,45.6328125 C23.6822926,45.5052077 23.7734375,45.3046889 23.7734375,45.03125 C23.7734375,44.7604153 23.6803395,44.5677089 23.4941406,44.453125 C23.3079418,44.3385411 23.0195332,44.28125 22.6289062,44.28125 L22.2617188,44.28125 L22.2617188,45.8242188 Z M22.2617188,46.8085938 L22.2617188,49 L21.0507812,49 L21.0507812,43.2890625 L22.7148438,43.2890625 C23.4908893,43.2890625 24.0651023,43.4303371 24.4375,43.7128906 C24.8098977,43.9954441 24.9960938,44.4244763 24.9960938,45 C24.9960938,45.3359392 24.9036468,45.6347643 24.71875,45.8964844 C24.5338532,46.1582044 24.2721371,46.3632805 23.9335938,46.5117188 C24.792973,47.7955793 25.3528633,48.6249981 25.6132812,49 L24.2695312,49 L22.90625,46.8085938 L22.2617188,46.8085938 Z M31.515625,46.1367188 C31.515625,47.082036 31.2812523,47.8085912 30.8125,48.3164062 C30.3437477,48.8242213 29.6718794,49.078125 28.796875,49.078125 C27.9218706,49.078125 27.2500023,48.8242213 26.78125,48.3164062 C26.3124977,47.8085912 26.078125,47.0794318 26.078125,46.1289062 C26.078125,45.1783807 26.3131487,44.4524765 26.7832031,43.9511719 C27.2532576,43.4498673 27.9270789,43.1992188 28.8046875,43.1992188 C29.6822961,43.1992188 30.3535133,43.4518204 30.8183594,43.9570312 C31.2832054,44.4622421 31.515625,45.1887973 31.515625,46.1367188 Z M27.3476562,46.1367188 C27.3476562,46.7747428 27.4687488,47.2552067 27.7109375,47.578125 C27.9531262,47.9010433 28.3151018,48.0625 28.796875,48.0625 C29.7630257,48.0625 30.2460938,47.4205793 30.2460938,46.1367188 C30.2460938,44.850254 29.7656298,44.2070312 28.8046875,44.2070312 C28.3229143,44.2070312 27.9596366,44.369139 27.7148438,44.6933594 C27.4700509,45.0175797 27.3476562,45.4986947 27.3476562,46.1367188 Z M36.0703125,47.4140625 C36.0703125,47.9296901 35.8847675,48.335936 35.5136719,48.6328125 C35.1425763,48.929689 34.6263054,49.078125 33.9648438,49.078125 C33.3554657,49.078125 32.8164086,48.9635428 32.3476562,48.734375 L32.3476562,47.609375 C32.7330748,47.7812509 33.0592435,47.9023434 33.3261719,47.9726562 C33.5931003,48.0429691 33.8372385,48.078125 34.0585938,48.078125 C34.3242201,48.078125 34.5279941,48.0273443 34.6699219,47.9257812 C34.8118497,47.8242182 34.8828125,47.6731781 34.8828125,47.4726562 C34.8828125,47.3606765 34.8515628,47.2610681 34.7890625,47.1738281 C34.7265622,47.0865881 34.6347662,47.0026046 34.5136719,46.921875 C34.3925775,46.8411454 34.1458352,46.7122405 33.7734375,46.5351562 C33.4244774,46.3710929 33.1627613,46.2135424 32.9882812,46.0625 C32.8138012,45.9114576 32.6744797,45.7356781 32.5703125,45.5351562 C32.4661453,45.3346344 32.4140625,45.1002618 32.4140625,44.8320312 C32.4140625,44.3268204 32.5852847,43.9296889 32.9277344,43.640625 C33.270184,43.3515611 33.7434866,43.2070312 34.3476562,43.2070312 C34.6445327,43.2070312 34.927733,43.2421871 35.1972656,43.3125 C35.4667982,43.3828129 35.7486964,43.4817702 36.0429688,43.609375 L35.6523438,44.5507812 C35.3476547,44.4257806 35.0957041,44.3385419 34.8964844,44.2890625 C34.6972646,44.2395831 34.501303,44.2148438 34.3085938,44.2148438 C34.0794259,44.2148438 33.9036464,44.2682286 33.78125,44.375 C33.6588536,44.4817714 33.5976562,44.6210929 33.5976562,44.7929688 C33.5976562,44.8997401 33.6223956,44.9928381 33.671875,45.0722656 C33.7213544,45.1516931 33.8001297,45.2285153 33.9082031,45.3027344 C34.0162766,45.3769535 34.2721334,45.5104157 34.6757812,45.703125 C35.2096381,45.9583346 35.5755198,46.2141914 35.7734375,46.4707031 C35.9713552,46.7272148 36.0703125,47.0416648 36.0703125,47.4140625 Z M37.1054688,49 L37.1054688,43.2890625 L38.3164062,43.2890625 L38.3164062,49 L37.1054688,49 Z" id="OROSI" fill="#FFFFFF"></path>
        </g>
    </g>
</svg>