<?xml version="1.0" encoding="UTF-8"?>
<svg width="78px" height="41px" viewBox="0 0 78 41" version="1.1" xmlns="http://www.w3.org/2000/svg" xmlns:xlink="http://www.w3.org/1999/xlink">
    <!-- Generator: Sketch 48.2 (47327) - http://www.bohemiancoding.com/sketch -->
    <title>PLATANAR</title>
    <desc>Created with Sketch.</desc>
    <defs>
        <polygon id="path-1" points="7.62968209e-05 0.0820178694 33.4861189 0.0820178694 33.4861189 22.7079038 7.62968209e-05 22.7079038"></polygon>
        <rect id="path-3" x="0" y="22" width="70" height="14" rx="7"></rect>
        <filter x="-9.3%" y="-39.3%" width="118.6%" height="192.9%" filterUnits="objectBoundingBox" id="filter-4">
            <feOffset dx="0" dy="1" in="SourceAlpha" result="shadowOffsetOuter1"></feOffset>
            <feGaussianBlur stdDeviation="2" in="shadowOffsetOuter1" result="shadowBlurOuter1"></feGaussianBlur>
            <feColorMatrix values="0 0 0 0 0   0 0 0 0 0   0 0 0 0 0  0 0 0 0.5 0" type="matrix" in="shadowBlurOuter1"></feColorMatrix>
        </filter>
    </defs>
    <g id="Volcanes-fallas" stroke="none" stroke-width="1" fill="none" fill-rule="evenodd">
        <g id="PLATANAR" transform="translate(4.000000, 0.000000)">
            <g id="Page-1-Copy-2" transform="translate(18.000000, 0.000000)">
                <g id="Group-3" transform="translate(0.000000, 0.003849)">
                    <mask id="mask-2" fill="white">
                        <use xlink:href="#path-1"></use>
                    </mask>
                    <g id="Clip-2"></g>
                    <path d="M33.4237819,21.9839835 C30.984388,17.6533168 28.544605,13.3226502 26.1052111,8.99159863 C24.4767435,6.10115189 22.848665,3.21070515 21.2201974,0.320258419 C21.1373149,0.173234364 20.9688259,0.0820178694 20.8003369,0.0820178694 L12.6860155,0.0820178694 C12.5171374,0.0820178694 12.3490375,0.173234364 12.2657658,0.320258419 C8.19829346,7.54137182 4.13043199,14.7628701 0.0625705113,21.9839835 C-0.116035612,22.3007395 0.108097562,22.7079423 0.482431094,22.7079423 L33.0039213,22.7079423 C33.3782548,22.7079423 33.602388,22.3007395 33.4237819,21.9839835" id="Fill-1" fill="#FF6D00" mask="url(#mask-2)"></path>
                </g>
            </g>
            <path d="M31.4944112,5 L26,14.7371169" id="Line" stroke="#FFFFFF" stroke-linecap="round"></path>
            <path d="M31.4944112,10 L27.5,17.5" id="Line-Copy-2" stroke="#FFFFFF" stroke-linecap="round"></path>
            <path d="M42.5,13.5 L47.5,23.5" id="Line-Copy" stroke="#FFFFFF" stroke-linecap="round"></path>
            <path d="M40.5,9.5 L41.5,11.5" id="Line" stroke="#FFFFFF" stroke-linecap="round"></path>
            <g id="Rectangle-2-Copy-4">
                <use fill="black" fill-opacity="1" filter="url(#filter-4)" xlink:href="#path-3"></use>
                <use fill="#263238" fill-rule="evenodd" xlink:href="#path-3"></use>
            </g>
            <path d="M16.2285156,28.9765625 L16.6269531,28.9765625 C16.9993508,28.9765625 17.2779939,28.9029955 17.4628906,28.7558594 C17.6477874,28.6087232 17.7402344,28.3945327 17.7402344,28.1132812 C17.7402344,27.8294257 17.6627612,27.6197923 17.5078125,27.484375 C17.3528638,27.3489577 17.1100277,27.28125 16.7792969,27.28125 L16.2285156,27.28125 L16.2285156,28.9765625 Z M18.9628906,28.0703125 C18.9628906,28.6848989 18.7708353,29.1549463 18.3867188,29.4804688 C18.0026022,29.8059912 17.4563838,29.96875 16.7480469,29.96875 L16.2285156,29.96875 L16.2285156,32 L15.0175781,32 L15.0175781,26.2890625 L16.8417969,26.2890625 C17.5345087,26.2890625 18.0611961,26.4381496 18.421875,26.7363281 C18.7825539,27.0345067 18.9628906,27.4791637 18.9628906,28.0703125 Z M20.0410156,32 L20.0410156,26.2890625 L21.2519531,26.2890625 L21.2519531,31 L23.5683594,31 L23.5683594,32 L20.0410156,32 Z M28.0566406,32 L27.6425781,30.640625 L25.5605469,30.640625 L25.1464844,32 L23.8417969,32 L25.8574219,26.265625 L27.3378906,26.265625 L29.3613281,32 L28.0566406,32 Z M27.3535156,29.625 C26.9707012,28.393223 26.7552086,27.6966154 26.7070312,27.5351562 C26.6588539,27.3736971 26.6243491,27.2460942 26.6035156,27.1523438 C26.5175777,27.4856787 26.2714864,28.3098893 25.8652344,29.625 L27.3535156,29.625 Z M31.7246094,32 L30.5136719,32 L30.5136719,27.296875 L28.9628906,27.296875 L28.9628906,26.2890625 L33.2753906,26.2890625 L33.2753906,27.296875 L31.7246094,27.296875 L31.7246094,32 Z M37.0917969,32 L36.6777344,30.640625 L34.5957031,30.640625 L34.1816406,32 L32.8769531,32 L34.8925781,26.265625 L36.3730469,26.265625 L38.3964844,32 L37.0917969,32 Z M36.3886719,29.625 C36.0058575,28.393223 35.7903648,27.6966154 35.7421875,27.5351562 C35.6940102,27.3736971 35.6595053,27.2460942 35.6386719,27.1523438 C35.5527339,27.4856787 35.3066427,28.3098893 34.9003906,29.625 L36.3886719,29.625 Z M44.1816406,32 L42.6425781,32 L40.1582031,27.6796875 L40.1230469,27.6796875 C40.1725263,28.4427121 40.1972656,28.9869775 40.1972656,29.3125 L40.1972656,32 L39.1152344,32 L39.1152344,26.2890625 L40.6425781,26.2890625 L43.1230469,30.5664062 L43.1503906,30.5664062 C43.1113279,29.824215 43.0917969,29.2994807 43.0917969,28.9921875 L43.0917969,26.2890625 L44.1816406,26.2890625 L44.1816406,32 Z M49.1152344,32 L48.7011719,30.640625 L46.6191406,30.640625 L46.2050781,32 L44.9003906,32 L46.9160156,26.265625 L48.3964844,26.265625 L50.4199219,32 L49.1152344,32 Z M48.4121094,29.625 C48.029295,28.393223 47.8138023,27.6966154 47.765625,27.5351562 C47.7174477,27.3736971 47.6829428,27.2460942 47.6621094,27.1523438 C47.5761714,27.4856787 47.3300802,28.3098893 46.9238281,29.625 L48.4121094,29.625 Z M52.3496094,28.8242188 L52.7402344,28.8242188 C53.1230488,28.8242188 53.405598,28.7604173 53.5878906,28.6328125 C53.7701832,28.5052077 53.8613281,28.3046889 53.8613281,28.03125 C53.8613281,27.7604153 53.7682301,27.5677089 53.5820312,27.453125 C53.3958324,27.3385411 53.1074238,27.28125 52.7167969,27.28125 L52.3496094,27.28125 L52.3496094,28.8242188 Z M52.3496094,29.8085938 L52.3496094,32 L51.1386719,32 L51.1386719,26.2890625 L52.8027344,26.2890625 C53.5787799,26.2890625 54.1529929,26.4303371 54.5253906,26.7128906 C54.8977883,26.9954441 55.0839844,27.4244763 55.0839844,28 C55.0839844,28.3359392 54.9915374,28.6347643 54.8066406,28.8964844 C54.6217439,29.1582044 54.3600277,29.3632805 54.0214844,29.5117188 C54.8808637,30.7955793 55.4407539,31.6249981 55.7011719,32 L54.3574219,32 L52.9941406,29.8085938 L52.3496094,29.8085938 Z" fill="#FFFFFF"></path>
        </g>
    </g>
</svg>