<?xml version="1.0" encoding="UTF-8"?>
<svg width="78px" height="58px" viewBox="0 0 78 58" version="1.1" xmlns="http://www.w3.org/2000/svg" xmlns:xlink="http://www.w3.org/1999/xlink">
    <!-- Generator: Sketch 48.2 (47327) - http://www.bohemiancoding.com/sketch -->
    <title>platanar</title>
    <desc>Created with Sketch.</desc>
    <defs>
        <polygon id="path-1" points="7.62968209e-05 0.0820178694 33.4861189 0.0820178694 33.4861189 22.7079038 7.62968209e-05 22.7079038"></polygon>
        <polygon id="path-3" points="0.0333598711 0.052173913 12.9893383 0.052173913 12.9893383 14.9285217 0.0333598711 14.9285217"></polygon>
        <rect id="path-5" x="0" y="39" width="70" height="14" rx="7"></rect>
        <filter x="-9.3%" y="-39.3%" width="118.6%" height="192.9%" filterUnits="objectBoundingBox" id="filter-6">
            <feOffset dx="0" dy="1" in="SourceAlpha" result="shadowOffsetOuter1"></feOffset>
            <feGaussianBlur stdDeviation="2" in="shadowOffsetOuter1" result="shadowBlurOuter1"></feGaussianBlur>
            <feColorMatrix values="0 0 0 0 0   0 0 0 0 0   0 0 0 0 0  0 0 0 0.5 0" type="matrix" in="shadowBlurOuter1"></feColorMatrix>
        </filter>
    </defs>
    <g id="Volcanes-fallas" stroke="none" stroke-width="1" fill="none" fill-rule="evenodd">
        <g id="platanar" transform="translate(4.000000, 0.000000)">
            <g id="Page-1-Copy-2" transform="translate(18.000000, 0.000000)">
                <g id="Group-3" transform="translate(0.000000, 17.003849)">
                    <mask id="mask-2" fill="white">
                        <use xlink:href="#path-1"></use>
                    </mask>
                    <g id="Clip-2"></g>
                    <path d="M33.4237819,21.9839835 C30.984388,17.6533168 28.544605,13.3226502 26.1052111,8.99159863 C24.4767435,6.10115189 22.848665,3.21070515 21.2201974,0.320258419 C21.1373149,0.173234364 20.9688259,0.0820178694 20.8003369,0.0820178694 L12.6860155,0.0820178694 C12.5171374,0.0820178694 12.3490375,0.173234364 12.2657658,0.320258419 C8.19829346,7.54137182 4.13043199,14.7628701 0.0625705113,21.9839835 C-0.116035612,22.3007395 0.108097562,22.7079423 0.482431094,22.7079423 L33.0039213,22.7079423 C33.3782548,22.7079423 33.602388,22.3007395 33.4237819,21.9839835" id="Fill-1" fill="#FF6D00" mask="url(#mask-2)"></path>
                </g>
                <path d="M23.070697,22.7405966 C22.2998501,21.3723491 21.5290032,20.0041017 20.7581562,18.6354694 C20.5923911,18.3414213 20.2554131,18.1589883 19.9184351,18.1589883 L13.5679951,18.1589883 C13.230628,18.1589883 12.89365,18.3414213 12.7278848,18.6354694 C11.6737585,20.5075244 10.619243,22.3791945 9.56511671,24.2504797 C9.36861106,24.5991808 9.41141427,24.9347959 9.57717943,25.1957443 C9.73555131,25.5706172 10.0982112,25.827332 10.5885026,25.6837718 C10.6970671,25.6699162 10.8021295,25.6341223 10.900966,25.5760055 C11.7578084,25.2588646 12.6142618,24.9421086 13.4707151,24.6249677 C13.6559363,24.5564591 13.8427139,24.4714007 14.0329936,24.4155931 C14.5680338,24.5291326 15.0754464,24.8135588 15.6124321,24.9163216 C16.9685156,25.1761155 18.2942478,23.7739986 19.3818385,22.8541361 C20.1678611,23.2551808 20.9538837,23.6562254 21.7399062,24.0572701 C22.5948031,24.4933388 23.5582644,23.6061911 23.070697,22.7405966" id="Fill-4" fill="#FFFFFF"></path>
                <g id="Group-8" transform="translate(10.000000, 0.000000)">
                    <mask id="mask-4" fill="white">
                        <use xlink:href="#path-3"></use>
                    </mask>
                    <g id="Clip-7"></g>
                    <path d="M12.2268683,4.77156522 C12.4600017,2.66591304 10.6406517,0.975913043 8.573435,1.52156522 C6.23516833,-1.35930435 1.35496833,0.257 1.576835,4.10243478 C-0.983298333,5.517 -0.214131667,9.54417391 2.81855167,9.61656522 C3.54156833,11.2974348 4.26436833,12.9783043 4.987385,14.6593913 C5.06040167,14.8289565 5.28226833,14.9285217 5.45516833,14.9285217 L7.55705167,14.9285217 C7.729735,14.9285217 7.95181833,14.8289565 8.024835,14.6593913 L9.799985,10.5317826 C12.6818683,10.4104783 13.9077683,6.95569565 12.2268683,4.77156522" id="Fill-6" fill="#FF6D00" mask="url(#mask-4)"></path>
                </g>
                <path d="M19.3677971,2.646451 C20.271782,2.68472653 20.8916113,3.67835055 20.6499981,4.75578479 C20.5735292,5.09740492 21.0063147,5.24324789 21.0827836,4.90184774 C21.4031992,3.47223461 20.5611434,2.14710929 19.3677971,2.09651519 C19.0789743,2.08419663 19.0793333,2.63413244 19.3677971,2.646451" id="Fill-9" fill="#FFFFFF" transform="translate(20.151315, 3.596311) rotate(-6.000000) translate(-20.151315, -3.596311) "></path>
            </g>
            <g id="Rectangle-2-Copy-4">
                <use fill="black" fill-opacity="1" filter="url(#filter-6)" xlink:href="#path-5"></use>
                <use fill="#263238" fill-rule="evenodd" xlink:href="#path-5"></use>
            </g>
            <path d="M16.2285156,45.9765625 L16.6269531,45.9765625 C16.9993508,45.9765625 17.2779939,45.9029955 17.4628906,45.7558594 C17.6477874,45.6087232 17.7402344,45.3945327 17.7402344,45.1132812 C17.7402344,44.8294257 17.6627612,44.6197923 17.5078125,44.484375 C17.3528638,44.3489577 17.1100277,44.28125 16.7792969,44.28125 L16.2285156,44.28125 L16.2285156,45.9765625 Z M18.9628906,45.0703125 C18.9628906,45.6848989 18.7708353,46.1549463 18.3867188,46.4804688 C18.0026022,46.8059912 17.4563838,46.96875 16.7480469,46.96875 L16.2285156,46.96875 L16.2285156,49 L15.0175781,49 L15.0175781,43.2890625 L16.8417969,43.2890625 C17.5345087,43.2890625 18.0611961,43.4381496 18.421875,43.7363281 C18.7825539,44.0345067 18.9628906,44.4791637 18.9628906,45.0703125 Z M20.0410156,49 L20.0410156,43.2890625 L21.2519531,43.2890625 L21.2519531,48 L23.5683594,48 L23.5683594,49 L20.0410156,49 Z M28.0566406,49 L27.6425781,47.640625 L25.5605469,47.640625 L25.1464844,49 L23.8417969,49 L25.8574219,43.265625 L27.3378906,43.265625 L29.3613281,49 L28.0566406,49 Z M27.3535156,46.625 C26.9707012,45.393223 26.7552086,44.6966154 26.7070312,44.5351562 C26.6588539,44.3736971 26.6243491,44.2460942 26.6035156,44.1523438 C26.5175777,44.4856787 26.2714864,45.3098893 25.8652344,46.625 L27.3535156,46.625 Z M31.7246094,49 L30.5136719,49 L30.5136719,44.296875 L28.9628906,44.296875 L28.9628906,43.2890625 L33.2753906,43.2890625 L33.2753906,44.296875 L31.7246094,44.296875 L31.7246094,49 Z M37.0917969,49 L36.6777344,47.640625 L34.5957031,47.640625 L34.1816406,49 L32.8769531,49 L34.8925781,43.265625 L36.3730469,43.265625 L38.3964844,49 L37.0917969,49 Z M36.3886719,46.625 C36.0058575,45.393223 35.7903648,44.6966154 35.7421875,44.5351562 C35.6940102,44.3736971 35.6595053,44.2460942 35.6386719,44.1523438 C35.5527339,44.4856787 35.3066427,45.3098893 34.9003906,46.625 L36.3886719,46.625 Z M44.1816406,49 L42.6425781,49 L40.1582031,44.6796875 L40.1230469,44.6796875 C40.1725263,45.4427121 40.1972656,45.9869775 40.1972656,46.3125 L40.1972656,49 L39.1152344,49 L39.1152344,43.2890625 L40.6425781,43.2890625 L43.1230469,47.5664062 L43.1503906,47.5664062 C43.1113279,46.824215 43.0917969,46.2994807 43.0917969,45.9921875 L43.0917969,43.2890625 L44.1816406,43.2890625 L44.1816406,49 Z M49.1152344,49 L48.7011719,47.640625 L46.6191406,47.640625 L46.2050781,49 L44.9003906,49 L46.9160156,43.265625 L48.3964844,43.265625 L50.4199219,49 L49.1152344,49 Z M48.4121094,46.625 C48.029295,45.393223 47.8138023,44.6966154 47.765625,44.5351562 C47.7174477,44.3736971 47.6829428,44.2460942 47.6621094,44.1523438 C47.5761714,44.4856787 47.3300802,45.3098893 46.9238281,46.625 L48.4121094,46.625 Z M52.3496094,45.8242188 L52.7402344,45.8242188 C53.1230488,45.8242188 53.405598,45.7604173 53.5878906,45.6328125 C53.7701832,45.5052077 53.8613281,45.3046889 53.8613281,45.03125 C53.8613281,44.7604153 53.7682301,44.5677089 53.5820312,44.453125 C53.3958324,44.3385411 53.1074238,44.28125 52.7167969,44.28125 L52.3496094,44.28125 L52.3496094,45.8242188 Z M52.3496094,46.8085938 L52.3496094,49 L51.1386719,49 L51.1386719,43.2890625 L52.8027344,43.2890625 C53.5787799,43.2890625 54.1529929,43.4303371 54.5253906,43.7128906 C54.8977883,43.9954441 55.0839844,44.4244763 55.0839844,45 C55.0839844,45.3359392 54.9915374,45.6347643 54.8066406,45.8964844 C54.6217439,46.1582044 54.3600277,46.3632805 54.0214844,46.5117188 C54.8808637,47.7955793 55.4407539,48.6249981 55.7011719,49 L54.3574219,49 L52.9941406,46.8085938 L52.3496094,46.8085938 Z" fill="#FFFFFF"></path>
        </g>
    </g>
</svg>