<?xml version="1.0" encoding="UTF-8"?>
<svg width="61px" height="57px" viewBox="0 0 61 57" version="1.1" xmlns="http://www.w3.org/2000/svg" xmlns:xlink="http://www.w3.org/1999/xlink">
    <!-- Generator: Sketch 48.2 (47327) - http://www.bohemiancoding.com/sketch -->
    <title>POAS</title>
    <desc>Created with Sketch.</desc>
    <defs>
        <polygon id="path-1" points="7.62968209e-05 0.0820178694 33.4861189 0.0820178694 33.4861189 22.7079038 7.62968209e-05 22.7079038"></polygon>
        <polygon id="path-3" points="0.0333598711 0.052173913 12.9893383 0.052173913 12.9893383 14.9285217 0.0333598711 14.9285217"></polygon>
        <rect id="path-5" x="0" y="38" width="53" height="14" rx="7"></rect>
        <filter x="-12.3%" y="-39.3%" width="124.5%" height="192.9%" filterUnits="objectBoundingBox" id="filter-6">
            <feOffset dx="0" dy="1" in="SourceAlpha" result="shadowOffsetOuter1"></feOffset>
            <feGaussianBlur stdDeviation="2" in="shadowOffsetOuter1" result="shadowBlurOuter1"></feGaussianBlur>
            <feColorMatrix values="0 0 0 0 0   0 0 0 0 0   0 0 0 0 0  0 0 0 0.5 0" type="matrix" in="shadowBlurOuter1"></feColorMatrix>
        </filter>
    </defs>
    <g id="Volcanes-fallas" stroke="none" stroke-width="1" fill="none" fill-rule="evenodd">
        <g id="POAS" transform="translate(4.000000, 0.000000)">
            <g id="Page-1-Copy-2" transform="translate(10.000000, 0.000000)">
                <g id="Group-3" transform="translate(0.000000, 16.003849)">
                    <mask id="mask-2" fill="white">
                        <use xlink:href="#path-1"></use>
                    </mask>
                    <g id="Clip-2"></g>
                    <path d="M33.4237819,21.9839835 C30.984388,17.6533168 28.544605,13.3226502 26.1052111,8.99159863 C24.4767435,6.10115189 22.848665,3.21070515 21.2201974,0.320258419 C21.1373149,0.173234364 20.9688259,0.0820178694 20.8003369,0.0820178694 L12.6860155,0.0820178694 C12.5171374,0.0820178694 12.3490375,0.173234364 12.2657658,0.320258419 C8.19829346,7.54137182 4.13043199,14.7628701 0.0625705113,21.9839835 C-0.116035612,22.3007395 0.108097562,22.7079423 0.482431094,22.7079423 L33.0039213,22.7079423 C33.3782548,22.7079423 33.602388,22.3007395 33.4237819,21.9839835" id="Fill-1" fill="#FF6D00" mask="url(#mask-2)"></path>
                </g>
                <g id="Group-8" transform="translate(10.000000, 0.000000)">
                    <mask id="mask-4" fill="white">
                        <use xlink:href="#path-3"></use>
                    </mask>
                    <g id="Clip-7"></g>
                    <path d="M12.2268683,4.77156522 C12.4600017,2.66591304 10.6406517,0.975913043 8.573435,1.52156522 C6.23516833,-1.35930435 1.35496833,0.257 1.576835,4.10243478 C-0.983298333,5.517 -0.214131667,9.54417391 2.81855167,9.61656522 C3.54156833,11.2974348 4.26436833,12.9783043 4.987385,14.6593913 C5.06040167,14.8289565 5.28226833,14.9285217 5.45516833,14.9285217 L7.55705167,14.9285217 C7.729735,14.9285217 7.95181833,14.8289565 8.024835,14.6593913 L9.799985,10.5317826 C12.6818683,10.4104783 13.9077683,6.95569565 12.2268683,4.77156522" id="Fill-6" fill="#FF6D00" mask="url(#mask-4)"></path>
                </g>
                <path d="M19.0045947,3.00099981 C19.9085797,3.03927535 20.5284089,4.03289936 20.2867958,5.1103336 C20.2103268,5.45195373 20.6431123,5.5977967 20.7195812,5.25639655 C21.0399969,3.82678342 20.197941,2.5016581 19.0045947,2.451064 C18.7157719,2.43874544 18.7161309,2.98868125 19.0045947,3.00099981" id="Fill-9" stroke="#FFFFFF" stroke-width="0.4" fill="#FFFFFF" transform="translate(19.788112, 3.950860) rotate(-12.000000) translate(-19.788112, -3.950860) "></path>
            </g>
            <path d="M23.4944112,21 L18,30.7371169" id="Line" stroke="#FFFFFF" stroke-linecap="round"></path>
            <path d="M23.4944112,26 L19.5,33.5" id="Line-Copy-2" stroke="#FFFFFF" stroke-linecap="round"></path>
            <path d="M34.5,29.5 L39.5,39.5" id="Line-Copy" stroke="#FFFFFF" stroke-linecap="round"></path>
            <path d="M32.5,25.5 L33.5,27.5" id="Line" stroke="#FFFFFF" stroke-linecap="round"></path>
            <g id="Rectangle-2-Copy-4">
                <use fill="black" fill-opacity="1" filter="url(#filter-6)" xlink:href="#path-5"></use>
                <use fill="#263238" fill-rule="evenodd" xlink:href="#path-5"></use>
            </g>
            <path d="M17.8515625,44.9765625 L18.25,44.9765625 C18.6223977,44.9765625 18.9010407,44.9029955 19.0859375,44.7558594 C19.2708343,44.6087232 19.3632812,44.3945327 19.3632812,44.1132812 C19.3632812,43.8294257 19.2858081,43.6197923 19.1308594,43.484375 C18.9759107,43.3489577 18.7330746,43.28125 18.4023438,43.28125 L17.8515625,43.28125 L17.8515625,44.9765625 Z M20.5859375,44.0703125 C20.5859375,44.6848989 20.3938821,45.1549463 20.0097656,45.4804688 C19.6256491,45.8059912 19.0794306,45.96875 18.3710938,45.96875 L17.8515625,45.96875 L17.8515625,48 L16.640625,48 L16.640625,42.2890625 L18.4648438,42.2890625 C19.1575555,42.2890625 19.684243,42.4381496 20.0449219,42.7363281 C20.4056008,43.0345067 20.5859375,43.4791637 20.5859375,44.0703125 Z M26.8476562,45.1367188 C26.8476562,46.082036 26.6132836,46.8085912 26.1445312,47.3164062 C25.6757789,47.8242213 25.0039106,48.078125 24.1289062,48.078125 C23.2539019,48.078125 22.5820336,47.8242213 22.1132812,47.3164062 C21.6445289,46.8085912 21.4101562,46.0794318 21.4101562,45.1289062 C21.4101562,44.1783807 21.6451799,43.4524765 22.1152344,42.9511719 C22.5852888,42.4498673 23.2591102,42.1992188 24.1367188,42.1992188 C25.0143273,42.1992188 25.6855446,42.4518204 26.1503906,42.9570312 C26.6152367,43.4622421 26.8476562,44.1887973 26.8476562,45.1367188 Z M22.6796875,45.1367188 C22.6796875,45.7747428 22.80078,46.2552067 23.0429688,46.578125 C23.2851575,46.9010433 23.647133,47.0625 24.1289062,47.0625 C25.0950569,47.0625 25.578125,46.4205793 25.578125,45.1367188 C25.578125,43.850254 25.0976611,43.2070312 24.1367188,43.2070312 C23.6549455,43.2070312 23.2916679,43.369139 23.046875,43.6933594 C22.8020821,44.0175797 22.6796875,44.4986947 22.6796875,45.1367188 Z M31.3671875,48 L30.953125,46.640625 L28.8710938,46.640625 L28.4570312,48 L27.1523438,48 L29.1679688,42.265625 L30.6484375,42.265625 L32.671875,48 L31.3671875,48 Z M30.6640625,45.625 C30.2812481,44.393223 30.0657554,43.6966154 30.0175781,43.5351562 C29.9694008,43.3736971 29.9348959,43.2460942 29.9140625,43.1523438 C29.8281246,43.4856787 29.5820333,44.3098893 29.1757812,45.625 L30.6640625,45.625 Z M29.265625,41.8320312 L29.265625,41.7265625 C29.7135439,41.2057266 30.0195304,40.8138034 30.1835938,40.5507812 L31.5195312,40.5507812 L31.5195312,40.6328125 C31.3841139,40.7682298 31.1529964,40.9693997 30.8261719,41.2363281 C30.4993473,41.5032565 30.2434905,41.7018223 30.0585938,41.8320312 L29.265625,41.8320312 Z M36.7617188,46.4140625 C36.7617188,46.9296901 36.5761737,47.335936 36.2050781,47.6328125 C35.8339825,47.929689 35.3177116,48.078125 34.65625,48.078125 C34.046872,48.078125 33.5078148,47.9635428 33.0390625,47.734375 L33.0390625,46.609375 C33.4244811,46.7812509 33.7506497,46.9023434 34.0175781,46.9726562 C34.2845065,47.0429691 34.5286447,47.078125 34.75,47.078125 C35.0156263,47.078125 35.2194003,47.0273443 35.3613281,46.9257812 C35.5032559,46.8242182 35.5742188,46.6731781 35.5742188,46.4726562 C35.5742188,46.3606765 35.5429691,46.2610681 35.4804688,46.1738281 C35.4179684,46.0865881 35.3261725,46.0026046 35.2050781,45.921875 C35.0839838,45.8411454 34.8372414,45.7122405 34.4648438,45.5351562 C34.1158837,45.3710929 33.8541675,45.2135424 33.6796875,45.0625 C33.5052075,44.9114576 33.3658859,44.7356781 33.2617188,44.5351562 C33.1575516,44.3346344 33.1054688,44.1002618 33.1054688,43.8320312 C33.1054688,43.3268204 33.276691,42.9296889 33.6191406,42.640625 C33.9615903,42.3515611 34.4348928,42.2070312 35.0390625,42.2070312 C35.335939,42.2070312 35.6191393,42.2421871 35.8886719,42.3125 C36.1582045,42.3828129 36.4401027,42.4817702 36.734375,42.609375 L36.34375,43.5507812 C36.039061,43.4257806 35.7871104,43.3385419 35.5878906,43.2890625 C35.3886709,43.2395831 35.1927093,43.2148438 35,43.2148438 C34.7708322,43.2148438 34.5950527,43.2682286 34.4726562,43.375 C34.3502598,43.4817714 34.2890625,43.6210929 34.2890625,43.7929688 C34.2890625,43.8997401 34.3138018,43.9928381 34.3632812,44.0722656 C34.4127607,44.1516931 34.4915359,44.2285153 34.5996094,44.3027344 C34.7076828,44.3769535 34.9635396,44.5104157 35.3671875,44.703125 C35.9010443,44.9583346 36.2669261,45.2141914 36.4648438,45.4707031 C36.6627614,45.7272148 36.7617188,46.0416648 36.7617188,46.4140625 Z" id="POÃS" fill="#FFFFFF"></path>
        </g>
    </g>
</svg>