<?xml version="1.0" encoding="UTF-8"?>
<svg width="78px" height="58px" viewBox="0 0 78 58" version="1.1" xmlns="http://www.w3.org/2000/svg" xmlns:xlink="http://www.w3.org/1999/xlink">
    <!-- Generator: Sketch 48.2 (47327) - http://www.bohemiancoding.com/sketch -->
    <title>porvenir</title>
    <desc>Created with Sketch.</desc>
    <defs>
        <polygon id="path-1" points="7.62968209e-05 0.0820178694 33.4861189 0.0820178694 33.4861189 22.7079038 7.62968209e-05 22.7079038"></polygon>
        <polygon id="path-3" points="0.0333598711 0.052173913 12.9893383 0.052173913 12.9893383 14.9285217 0.0333598711 14.9285217"></polygon>
        <rect id="path-5" x="0" y="39" width="70" height="14" rx="7"></rect>
        <filter x="-9.3%" y="-39.3%" width="118.6%" height="192.9%" filterUnits="objectBoundingBox" id="filter-6">
            <feOffset dx="0" dy="1" in="SourceAlpha" result="shadowOffsetOuter1"></feOffset>
            <feGaussianBlur stdDeviation="2" in="shadowOffsetOuter1" result="shadowBlurOuter1"></feGaussianBlur>
            <feColorMatrix values="0 0 0 0 0   0 0 0 0 0   0 0 0 0 0  0 0 0 0.5 0" type="matrix" in="shadowBlurOuter1"></feColorMatrix>
        </filter>
    </defs>
    <g id="Volcanes-fallas" stroke="none" stroke-width="1" fill="none" fill-rule="evenodd">
        <g id="porvenir" transform="translate(4.000000, 0.000000)">
            <g id="Page-1-Copy-2" transform="translate(18.000000, 0.000000)">
                <g id="Group-3" transform="translate(0.000000, 17.003849)">
                    <mask id="mask-2" fill="white">
                        <use xlink:href="#path-1"></use>
                    </mask>
                    <g id="Clip-2"></g>
                    <path d="M33.4237819,21.9839835 C30.984388,17.6533168 28.544605,13.3226502 26.1052111,8.99159863 C24.4767435,6.10115189 22.848665,3.21070515 21.2201974,0.320258419 C21.1373149,0.173234364 20.9688259,0.0820178694 20.8003369,0.0820178694 L12.6860155,0.0820178694 C12.5171374,0.0820178694 12.3490375,0.173234364 12.2657658,0.320258419 C8.19829346,7.54137182 4.13043199,14.7628701 0.0625705113,21.9839835 C-0.116035612,22.3007395 0.108097562,22.7079423 0.482431094,22.7079423 L33.0039213,22.7079423 C33.3782548,22.7079423 33.602388,22.3007395 33.4237819,21.9839835" id="Fill-1" fill="#FF6D00" mask="url(#mask-2)"></path>
                </g>
                <path d="M23.070697,22.7405966 C22.2998501,21.3723491 21.5290032,20.0041017 20.7581562,18.6354694 C20.5923911,18.3414213 20.2554131,18.1589883 19.9184351,18.1589883 L13.5679951,18.1589883 C13.230628,18.1589883 12.89365,18.3414213 12.7278848,18.6354694 C11.6737585,20.5075244 10.619243,22.3791945 9.56511671,24.2504797 C9.36861106,24.5991808 9.41141427,24.9347959 9.57717943,25.1957443 C9.73555131,25.5706172 10.0982112,25.827332 10.5885026,25.6837718 C10.6970671,25.6699162 10.8021295,25.6341223 10.900966,25.5760055 C11.7578084,25.2588646 12.6142618,24.9421086 13.4707151,24.6249677 C13.6559363,24.5564591 13.8427139,24.4714007 14.0329936,24.4155931 C14.5680338,24.5291326 15.0754464,24.8135588 15.6124321,24.9163216 C16.9685156,25.1761155 18.2942478,23.7739986 19.3818385,22.8541361 C20.1678611,23.2551808 20.9538837,23.6562254 21.7399062,24.0572701 C22.5948031,24.4933388 23.5582644,23.6061911 23.070697,22.7405966" id="Fill-4" fill="#FFFFFF"></path>
                <g id="Group-8" transform="translate(10.000000, 0.000000)">
                    <mask id="mask-4" fill="white">
                        <use xlink:href="#path-3"></use>
                    </mask>
                    <g id="Clip-7"></g>
                    <path d="M12.2268683,4.77156522 C12.4600017,2.66591304 10.6406517,0.975913043 8.573435,1.52156522 C6.23516833,-1.35930435 1.35496833,0.257 1.576835,4.10243478 C-0.983298333,5.517 -0.214131667,9.54417391 2.81855167,9.61656522 C3.54156833,11.2974348 4.26436833,12.9783043 4.987385,14.6593913 C5.06040167,14.8289565 5.28226833,14.9285217 5.45516833,14.9285217 L7.55705167,14.9285217 C7.729735,14.9285217 7.95181833,14.8289565 8.024835,14.6593913 L9.799985,10.5317826 C12.6818683,10.4104783 13.9077683,6.95569565 12.2268683,4.77156522" id="Fill-6" fill="#FF6D00" mask="url(#mask-4)"></path>
                </g>
                <path d="M19.3677971,2.646451 C20.271782,2.68472653 20.8916113,3.67835055 20.6499981,4.75578479 C20.5735292,5.09740492 21.0063147,5.24324789 21.0827836,4.90184774 C21.4031992,3.47223461 20.5611434,2.14710929 19.3677971,2.09651519 C19.0789743,2.08419663 19.0793333,2.63413244 19.3677971,2.646451" id="Fill-9" fill="#FFFFFF" transform="translate(20.151315, 3.596311) rotate(-6.000000) translate(-20.151315, -3.596311) "></path>
            </g>
            <g id="Rectangle-2-Copy-4">
                <use fill="black" fill-opacity="1" filter="url(#filter-6)" xlink:href="#path-5"></use>
                <use fill="#263238" fill-rule="evenodd" xlink:href="#path-5"></use>
            </g>
            <path d="M16.5371094,45.9765625 L16.9355469,45.9765625 C17.3079446,45.9765625 17.5865876,45.9029955 17.7714844,45.7558594 C17.9563811,45.6087232 18.0488281,45.3945327 18.0488281,45.1132812 C18.0488281,44.8294257 17.9713549,44.6197923 17.8164062,44.484375 C17.6614576,44.3489577 17.4186214,44.28125 17.0878906,44.28125 L16.5371094,44.28125 L16.5371094,45.9765625 Z M19.2714844,45.0703125 C19.2714844,45.6848989 19.079429,46.1549463 18.6953125,46.4804688 C18.311196,46.8059912 17.7649775,46.96875 17.0566406,46.96875 L16.5371094,46.96875 L16.5371094,49 L15.3261719,49 L15.3261719,43.2890625 L17.1503906,43.2890625 C17.8431024,43.2890625 18.3697899,43.4381496 18.7304688,43.7363281 C19.0911476,44.0345067 19.2714844,44.4791637 19.2714844,45.0703125 Z M25.5332031,46.1367188 C25.5332031,47.082036 25.2988305,47.8085912 24.8300781,48.3164062 C24.3613258,48.8242213 23.6894575,49.078125 22.8144531,49.078125 C21.9394488,49.078125 21.2675805,48.8242213 20.7988281,48.3164062 C20.3300758,47.8085912 20.0957031,47.0794318 20.0957031,46.1289062 C20.0957031,45.1783807 20.3307268,44.4524765 20.8007812,43.9511719 C21.2708357,43.4498673 21.9446571,43.1992188 22.8222656,43.1992188 C23.6998742,43.1992188 24.3710914,43.4518204 24.8359375,43.9570312 C25.3007836,44.4622421 25.5332031,45.1887973 25.5332031,46.1367188 Z M21.3652344,46.1367188 C21.3652344,46.7747428 21.4863269,47.2552067 21.7285156,47.578125 C21.9707043,47.9010433 22.3326799,48.0625 22.8144531,48.0625 C23.7806038,48.0625 24.2636719,47.4205793 24.2636719,46.1367188 C24.2636719,44.850254 23.7832079,44.2070312 22.8222656,44.2070312 C22.3404924,44.2070312 21.9772148,44.369139 21.7324219,44.6933594 C21.487629,45.0175797 21.3652344,45.4986947 21.3652344,46.1367188 Z M27.9277344,45.8242188 L28.3183594,45.8242188 C28.7011738,45.8242188 28.983723,45.7604173 29.1660156,45.6328125 C29.3483082,45.5052077 29.4394531,45.3046889 29.4394531,45.03125 C29.4394531,44.7604153 29.3463551,44.5677089 29.1601562,44.453125 C28.9739574,44.3385411 28.6855488,44.28125 28.2949219,44.28125 L27.9277344,44.28125 L27.9277344,45.8242188 Z M27.9277344,46.8085938 L27.9277344,49 L26.7167969,49 L26.7167969,43.2890625 L28.3808594,43.2890625 C29.1569049,43.2890625 29.7311179,43.4303371 30.1035156,43.7128906 C30.4759133,43.9954441 30.6621094,44.4244763 30.6621094,45 C30.6621094,45.3359392 30.5696624,45.6347643 30.3847656,45.8964844 C30.1998689,46.1582044 29.9381527,46.3632805 29.5996094,46.5117188 C30.4589887,47.7955793 31.0188789,48.6249981 31.2792969,49 L29.9355469,49 L28.5722656,46.8085938 L27.9277344,46.8085938 Z M35.2558594,43.2890625 L36.4785156,43.2890625 L34.5371094,49 L33.2167969,49 L31.2792969,43.2890625 L32.5019531,43.2890625 L33.5761719,46.6875 C33.636068,46.8880218 33.6979163,47.1217435 33.7617188,47.3886719 C33.8255212,47.6556003 33.8652343,47.8411453 33.8808594,47.9453125 C33.9095054,47.705728 34.0071606,47.2864613 34.1738281,46.6875 L35.2558594,43.2890625 Z M40.4863281,49 L37.1972656,49 L37.1972656,43.2890625 L40.4863281,43.2890625 L40.4863281,44.28125 L38.4082031,44.28125 L38.4082031,45.5351562 L40.3417969,45.5351562 L40.3417969,46.5273438 L38.4082031,46.5273438 L38.4082031,48 L40.4863281,48 L40.4863281,49 Z M46.7441406,49 L45.2050781,49 L42.7207031,44.6796875 L42.6855469,44.6796875 C42.7350263,45.4427121 42.7597656,45.9869775 42.7597656,46.3125 L42.7597656,49 L41.6777344,49 L41.6777344,43.2890625 L43.2050781,43.2890625 L45.6855469,47.5664062 L45.7128906,47.5664062 C45.6738279,46.824215 45.6542969,46.2994807 45.6542969,45.9921875 L45.6542969,43.2890625 L46.7441406,43.2890625 L46.7441406,49 Z M48.1816406,49 L48.1816406,43.2890625 L49.3925781,43.2890625 L49.3925781,49 L48.1816406,49 Z M52.0410156,45.8242188 L52.4316406,45.8242188 C52.814455,45.8242188 53.0970043,45.7604173 53.2792969,45.6328125 C53.4615895,45.5052077 53.5527344,45.3046889 53.5527344,45.03125 C53.5527344,44.7604153 53.4596363,44.5677089 53.2734375,44.453125 C53.0872387,44.3385411 52.7988301,44.28125 52.4082031,44.28125 L52.0410156,44.28125 L52.0410156,45.8242188 Z M52.0410156,46.8085938 L52.0410156,49 L50.8300781,49 L50.8300781,43.2890625 L52.4941406,43.2890625 C53.2701862,43.2890625 53.8443992,43.4303371 54.2167969,43.7128906 C54.5891946,43.9954441 54.7753906,44.4244763 54.7753906,45 C54.7753906,45.3359392 54.6829436,45.6347643 54.4980469,45.8964844 C54.3131501,46.1582044 54.051434,46.3632805 53.7128906,46.5117188 C54.5722699,47.7955793 55.1321602,48.6249981 55.3925781,49 L54.0488281,49 L52.6855469,46.8085938 L52.0410156,46.8085938 Z" fill="#FFFFFF"></path>
        </g>
    </g>
</svg>