<?xml version="1.0" encoding="UTF-8"?>
<svg width="78px" height="41px" viewBox="0 0 78 41" version="1.1" xmlns="http://www.w3.org/2000/svg" xmlns:xlink="http://www.w3.org/1999/xlink">
    <!-- Generator: Sketch 48.2 (47327) - http://www.bohemiancoding.com/sketch -->
    <title>PORVENIR</title>
    <desc>Created with Sketch.</desc>
    <defs>
        <polygon id="path-1" points="7.62968209e-05 0.0820178694 33.4861189 0.0820178694 33.4861189 22.7079038 7.62968209e-05 22.7079038"></polygon>
        <rect id="path-3" x="0" y="22" width="70" height="14" rx="7"></rect>
        <filter x="-9.3%" y="-39.3%" width="118.6%" height="192.9%" filterUnits="objectBoundingBox" id="filter-4">
            <feOffset dx="0" dy="1" in="SourceAlpha" result="shadowOffsetOuter1"></feOffset>
            <feGaussianBlur stdDeviation="2" in="shadowOffsetOuter1" result="shadowBlurOuter1"></feGaussianBlur>
            <feColorMatrix values="0 0 0 0 0   0 0 0 0 0   0 0 0 0 0  0 0 0 0.5 0" type="matrix" in="shadowBlurOuter1"></feColorMatrix>
        </filter>
    </defs>
    <g id="Volcanes-fallas" stroke="none" stroke-width="1" fill="none" fill-rule="evenodd">
        <g id="PORVENIR" transform="translate(4.000000, 0.000000)">
            <g id="Page-1-Copy-2" transform="translate(18.000000, 0.000000)">
                <g id="Group-3" transform="translate(0.000000, 0.003849)">
                    <mask id="mask-2" fill="white">
                        <use xlink:href="#path-1"></use>
                    </mask>
                    <g id="Clip-2"></g>
                    <path d="M33.4237819,21.9839835 C30.984388,17.6533168 28.544605,13.3226502 26.1052111,8.99159863 C24.4767435,6.10115189 22.848665,3.21070515 21.2201974,0.320258419 C21.1373149,0.173234364 20.9688259,0.0820178694 20.8003369,0.0820178694 L12.6860155,0.0820178694 C12.5171374,0.0820178694 12.3490375,0.173234364 12.2657658,0.320258419 C8.19829346,7.54137182 4.13043199,14.7628701 0.0625705113,21.9839835 C-0.116035612,22.3007395 0.108097562,22.7079423 0.482431094,22.7079423 L33.0039213,22.7079423 C33.3782548,22.7079423 33.602388,22.3007395 33.4237819,21.9839835" id="Fill-1" fill="#FF6D00" mask="url(#mask-2)"></path>
                </g>
            </g>
            <path d="M31.4944112,5 L26,14.7371169" id="Line" stroke="#FFFFFF" stroke-linecap="round"></path>
            <path d="M31.4944112,10 L27.5,17.5" id="Line-Copy-2" stroke="#FFFFFF" stroke-linecap="round"></path>
            <path d="M42.5,13.5 L47.5,23.5" id="Line-Copy" stroke="#FFFFFF" stroke-linecap="round"></path>
            <path d="M40.5,9.5 L41.5,11.5" id="Line" stroke="#FFFFFF" stroke-linecap="round"></path>
            <g id="Rectangle-2-Copy-4">
                <use fill="black" fill-opacity="1" filter="url(#filter-4)" xlink:href="#path-3"></use>
                <use fill="#263238" fill-rule="evenodd" xlink:href="#path-3"></use>
            </g>
            <path d="M16.5371094,28.9765625 L16.9355469,28.9765625 C17.3079446,28.9765625 17.5865876,28.9029955 17.7714844,28.7558594 C17.9563811,28.6087232 18.0488281,28.3945327 18.0488281,28.1132812 C18.0488281,27.8294257 17.9713549,27.6197923 17.8164062,27.484375 C17.6614576,27.3489577 17.4186214,27.28125 17.0878906,27.28125 L16.5371094,27.28125 L16.5371094,28.9765625 Z M19.2714844,28.0703125 C19.2714844,28.6848989 19.079429,29.1549463 18.6953125,29.4804688 C18.311196,29.8059912 17.7649775,29.96875 17.0566406,29.96875 L16.5371094,29.96875 L16.5371094,32 L15.3261719,32 L15.3261719,26.2890625 L17.1503906,26.2890625 C17.8431024,26.2890625 18.3697899,26.4381496 18.7304688,26.7363281 C19.0911476,27.0345067 19.2714844,27.4791637 19.2714844,28.0703125 Z M25.5332031,29.1367188 C25.5332031,30.082036 25.2988305,30.8085912 24.8300781,31.3164062 C24.3613258,31.8242213 23.6894575,32.078125 22.8144531,32.078125 C21.9394488,32.078125 21.2675805,31.8242213 20.7988281,31.3164062 C20.3300758,30.8085912 20.0957031,30.0794318 20.0957031,29.1289062 C20.0957031,28.1783807 20.3307268,27.4524765 20.8007812,26.9511719 C21.2708357,26.4498673 21.9446571,26.1992188 22.8222656,26.1992188 C23.6998742,26.1992188 24.3710914,26.4518204 24.8359375,26.9570312 C25.3007836,27.4622421 25.5332031,28.1887973 25.5332031,29.1367188 Z M21.3652344,29.1367188 C21.3652344,29.7747428 21.4863269,30.2552067 21.7285156,30.578125 C21.9707043,30.9010433 22.3326799,31.0625 22.8144531,31.0625 C23.7806038,31.0625 24.2636719,30.4205793 24.2636719,29.1367188 C24.2636719,27.850254 23.7832079,27.2070312 22.8222656,27.2070312 C22.3404924,27.2070312 21.9772148,27.369139 21.7324219,27.6933594 C21.487629,28.0175797 21.3652344,28.4986947 21.3652344,29.1367188 Z M27.9277344,28.8242188 L28.3183594,28.8242188 C28.7011738,28.8242188 28.983723,28.7604173 29.1660156,28.6328125 C29.3483082,28.5052077 29.4394531,28.3046889 29.4394531,28.03125 C29.4394531,27.7604153 29.3463551,27.5677089 29.1601562,27.453125 C28.9739574,27.3385411 28.6855488,27.28125 28.2949219,27.28125 L27.9277344,27.28125 L27.9277344,28.8242188 Z M27.9277344,29.8085938 L27.9277344,32 L26.7167969,32 L26.7167969,26.2890625 L28.3808594,26.2890625 C29.1569049,26.2890625 29.7311179,26.4303371 30.1035156,26.7128906 C30.4759133,26.9954441 30.6621094,27.4244763 30.6621094,28 C30.6621094,28.3359392 30.5696624,28.6347643 30.3847656,28.8964844 C30.1998689,29.1582044 29.9381527,29.3632805 29.5996094,29.5117188 C30.4589887,30.7955793 31.0188789,31.6249981 31.2792969,32 L29.9355469,32 L28.5722656,29.8085938 L27.9277344,29.8085938 Z M35.2558594,26.2890625 L36.4785156,26.2890625 L34.5371094,32 L33.2167969,32 L31.2792969,26.2890625 L32.5019531,26.2890625 L33.5761719,29.6875 C33.636068,29.8880218 33.6979163,30.1217435 33.7617188,30.3886719 C33.8255212,30.6556003 33.8652343,30.8411453 33.8808594,30.9453125 C33.9095054,30.705728 34.0071606,30.2864613 34.1738281,29.6875 L35.2558594,26.2890625 Z M40.4863281,32 L37.1972656,32 L37.1972656,26.2890625 L40.4863281,26.2890625 L40.4863281,27.28125 L38.4082031,27.28125 L38.4082031,28.5351562 L40.3417969,28.5351562 L40.3417969,29.5273438 L38.4082031,29.5273438 L38.4082031,31 L40.4863281,31 L40.4863281,32 Z M46.7441406,32 L45.2050781,32 L42.7207031,27.6796875 L42.6855469,27.6796875 C42.7350263,28.4427121 42.7597656,28.9869775 42.7597656,29.3125 L42.7597656,32 L41.6777344,32 L41.6777344,26.2890625 L43.2050781,26.2890625 L45.6855469,30.5664062 L45.7128906,30.5664062 C45.6738279,29.824215 45.6542969,29.2994807 45.6542969,28.9921875 L45.6542969,26.2890625 L46.7441406,26.2890625 L46.7441406,32 Z M48.1816406,32 L48.1816406,26.2890625 L49.3925781,26.2890625 L49.3925781,32 L48.1816406,32 Z M52.0410156,28.8242188 L52.4316406,28.8242188 C52.814455,28.8242188 53.0970043,28.7604173 53.2792969,28.6328125 C53.4615895,28.5052077 53.5527344,28.3046889 53.5527344,28.03125 C53.5527344,27.7604153 53.4596363,27.5677089 53.2734375,27.453125 C53.0872387,27.3385411 52.7988301,27.28125 52.4082031,27.28125 L52.0410156,27.28125 L52.0410156,28.8242188 Z M52.0410156,29.8085938 L52.0410156,32 L50.8300781,32 L50.8300781,26.2890625 L52.4941406,26.2890625 C53.2701862,26.2890625 53.8443992,26.4303371 54.2167969,26.7128906 C54.5891946,26.9954441 54.7753906,27.4244763 54.7753906,28 C54.7753906,28.3359392 54.6829436,28.6347643 54.4980469,28.8964844 C54.3131501,29.1582044 54.051434,29.3632805 53.7128906,29.5117188 C54.5722699,30.7955793 55.1321602,31.6249981 55.3925781,32 L54.0488281,32 L52.6855469,29.8085938 L52.0410156,29.8085938 Z" fill="#FFFFFF"></path>
        </g>
    </g>
</svg>