<?xml version="1.0" encoding="UTF-8"?>
<svg width="104px" height="57px" viewBox="0 0 104 57" version="1.1" xmlns="http://www.w3.org/2000/svg" xmlns:xlink="http://www.w3.org/1999/xlink">
    <!-- Generator: Sketch 48.2 (47327) - http://www.bohemiancoding.com/sketch -->
    <title>RINCON_VIEJA</title>
    <desc>Created with Sketch.</desc>
    <defs>
        <polygon id="path-1" points="7.62968209e-05 0.0820178694 33.4861189 0.0820178694 33.4861189 22.7079038 7.62968209e-05 22.7079038"></polygon>
        <polygon id="path-3" points="0.0333598711 0.052173913 12.9893383 0.052173913 12.9893383 14.9285217 0.0333598711 14.9285217"></polygon>
        <rect id="path-5" x="0" y="38" width="96" height="14" rx="7"></rect>
        <filter x="-6.8%" y="-39.3%" width="113.5%" height="192.9%" filterUnits="objectBoundingBox" id="filter-6">
            <feOffset dx="0" dy="1" in="SourceAlpha" result="shadowOffsetOuter1"></feOffset>
            <feGaussianBlur stdDeviation="2" in="shadowOffsetOuter1" result="shadowBlurOuter1"></feGaussianBlur>
            <feColorMatrix values="0 0 0 0 0   0 0 0 0 0   0 0 0 0 0  0 0 0 0.5 0" type="matrix" in="shadowBlurOuter1"></feColorMatrix>
        </filter>
    </defs>
    <g id="Volcanes-fallas" stroke="none" stroke-width="1" fill="none" fill-rule="evenodd">
        <g id="RINCON_VIEJA" transform="translate(4.000000, 0.000000)">
            <g id="Page-1-Copy-2" transform="translate(31.000000, 0.000000)">
                <g id="Group-3" transform="translate(0.000000, 16.003849)">
                    <mask id="mask-2" fill="white">
                        <use xlink:href="#path-1"></use>
                    </mask>
                    <g id="Clip-2"></g>
                    <path d="M33.4237819,21.9839835 C30.984388,17.6533168 28.544605,13.3226502 26.1052111,8.99159863 C24.4767435,6.10115189 22.848665,3.21070515 21.2201974,0.320258419 C21.1373149,0.173234364 20.9688259,0.0820178694 20.8003369,0.0820178694 L12.6860155,0.0820178694 C12.5171374,0.0820178694 12.3490375,0.173234364 12.2657658,0.320258419 C8.19829346,7.54137182 4.13043199,14.7628701 0.0625705113,21.9839835 C-0.116035612,22.3007395 0.108097562,22.7079423 0.482431094,22.7079423 L33.0039213,22.7079423 C33.3782548,22.7079423 33.602388,22.3007395 33.4237819,21.9839835" id="Fill-1" fill="#FF6D00" mask="url(#mask-2)"></path>
                </g>
                <path d="M13.4944112,21 L8,30.7371169" id="Line" stroke="#FFFFFF" stroke-linecap="round"></path>
                <path d="M13.4944112,26 L9.5,33.5" id="Line-Copy-2" stroke="#FFFFFF" stroke-linecap="round"></path>
                <path d="M24.5,29.5 L29.5,39.5" id="Line-Copy" stroke="#FFFFFF" stroke-linecap="round"></path>
                <path d="M22.5,25.5 L23.5,27.5" id="Line" stroke="#FFFFFF" stroke-linecap="round"></path>
                <g id="Group-8" transform="translate(10.000000, 0.000000)">
                    <mask id="mask-4" fill="white">
                        <use xlink:href="#path-3"></use>
                    </mask>
                    <g id="Clip-7"></g>
                    <path d="M12.2268683,4.77156522 C12.4600017,2.66591304 10.6406517,0.975913043 8.573435,1.52156522 C6.23516833,-1.35930435 1.35496833,0.257 1.576835,4.10243478 C-0.983298333,5.517 -0.214131667,9.54417391 2.81855167,9.61656522 C3.54156833,11.2974348 4.26436833,12.9783043 4.987385,14.6593913 C5.06040167,14.8289565 5.28226833,14.9285217 5.45516833,14.9285217 L7.55705167,14.9285217 C7.729735,14.9285217 7.95181833,14.8289565 8.024835,14.6593913 L9.799985,10.5317826 C12.6818683,10.4104783 13.9077683,6.95569565 12.2268683,4.77156522" id="Fill-6" fill="#FF6D00" mask="url(#mask-4)"></path>
                </g>
                <path d="M19.0045947,3.00099981 C19.9085797,3.03927535 20.5284089,4.03289936 20.2867958,5.1103336 C20.2103268,5.45195373 20.6431123,5.5977967 20.7195812,5.25639655 C21.0399969,3.82678342 20.197941,2.5016581 19.0045947,2.451064 C18.7157719,2.43874544 18.7161309,2.98868125 19.0045947,3.00099981" id="Fill-9" stroke="#FFFFFF" stroke-width="0.4" fill="#FFFFFF" transform="translate(19.788112, 3.950860) rotate(-12.000000) translate(-19.788112, -3.950860) "></path>
            </g>
            <g id="Rectangle-2-Copy-4">
                <use fill="black" fill-opacity="1" filter="url(#filter-6)" xlink:href="#path-5"></use>
                <use fill="#263238" fill-rule="evenodd" xlink:href="#path-5"></use>
            </g>
            <path d="M9.98242188,44.8242188 L10.3730469,44.8242188 C10.7558613,44.8242188 11.0384105,44.7604173 11.2207031,44.6328125 C11.4029957,44.5052077 11.4941406,44.3046889 11.4941406,44.03125 C11.4941406,43.7604153 11.4010426,43.5677089 11.2148438,43.453125 C11.0286449,43.3385411 10.7402363,43.28125 10.3496094,43.28125 L9.98242188,43.28125 L9.98242188,44.8242188 Z M9.98242188,45.8085938 L9.98242188,48 L8.77148438,48 L8.77148438,42.2890625 L10.4355469,42.2890625 C11.2115924,42.2890625 11.7858054,42.4303371 12.1582031,42.7128906 C12.5306008,42.9954441 12.7167969,43.4244763 12.7167969,44 C12.7167969,44.3359392 12.6243499,44.6347643 12.4394531,44.8964844 C12.2545564,45.1582044 11.9928402,45.3632805 11.6542969,45.5117188 C12.5136762,46.7955793 13.0735664,47.6249981 13.3339844,48 L11.9902344,48 L10.6269531,45.8085938 L9.98242188,45.8085938 Z M14.0527344,48 L14.0527344,42.2890625 L15.2636719,42.2890625 L15.2636719,48 L14.0527344,48 Z M21.7675781,48 L20.2285156,48 L17.7441406,43.6796875 L17.7089844,43.6796875 C17.7584638,44.4427121 17.7832031,44.9869775 17.7832031,45.3125 L17.7832031,48 L16.7011719,48 L16.7011719,42.2890625 L18.2285156,42.2890625 L20.7089844,46.5664062 L20.7363281,46.5664062 C20.6972654,45.824215 20.6777344,45.2994807 20.6777344,44.9921875 L20.6777344,42.2890625 L21.7675781,42.2890625 L21.7675781,48 Z M25.6308594,43.2148438 C25.1751279,43.2148438 24.8222669,43.386066 24.5722656,43.7285156 C24.3222644,44.0709653 24.1972656,44.548174 24.1972656,45.1601562 C24.1972656,46.4336001 24.6751254,47.0703125 25.6308594,47.0703125 C26.031903,47.0703125 26.5175753,46.9700531 27.0878906,46.7695312 L27.0878906,47.7851562 C26.6191383,47.9804697 26.095706,48.078125 25.5175781,48.078125 C24.6868448,48.078125 24.0514345,47.8261744 23.6113281,47.3222656 C23.1712218,46.8183569 22.9511719,46.0950568 22.9511719,45.1523438 C22.9511719,44.5585908 23.0592437,44.0384137 23.2753906,43.5917969 C23.4915375,43.1451801 23.8020813,42.8027356 24.2070312,42.5644531 C24.6119812,42.3261707 25.0865858,42.2070312 25.6308594,42.2070312 C26.1855496,42.2070312 26.7428357,42.3411445 27.3027344,42.609375 L26.9121094,43.59375 C26.6985666,43.492187 26.483725,43.4036462 26.2675781,43.328125 C26.0514312,43.2526038 25.8391937,43.2148438 25.6308594,43.2148438 Z M33.3261719,45.1367188 C33.3261719,46.082036 33.0917992,46.8085912 32.6230469,47.3164062 C32.1542945,47.8242213 31.4824263,48.078125 30.6074219,48.078125 C29.7324175,48.078125 29.0605492,47.8242213 28.5917969,47.3164062 C28.1230445,46.8085912 27.8886719,46.0794318 27.8886719,45.1289062 C27.8886719,44.1783807 28.1236956,43.4524765 28.59375,42.9511719 C29.0638044,42.4498673 29.7376258,42.1992188 30.6152344,42.1992188 C31.4928429,42.1992188 32.1640602,42.4518204 32.6289062,42.9570312 C33.0937523,43.4622421 33.3261719,44.1887973 33.3261719,45.1367188 Z M29.1582031,45.1367188 C29.1582031,45.7747428 29.2792957,46.2552067 29.5214844,46.578125 C29.7636731,46.9010433 30.1256486,47.0625 30.6074219,47.0625 C31.5735725,47.0625 32.0566406,46.4205793 32.0566406,45.1367188 C32.0566406,43.850254 31.5761767,43.2070312 30.6152344,43.2070312 C30.1334611,43.2070312 29.7701835,43.369139 29.5253906,43.6933594 C29.2805977,44.0175797 29.1582031,44.4986947 29.1582031,45.1367188 Z M29.9941406,41.8320312 L29.9941406,41.7265625 C30.4420595,41.2057266 30.7480461,40.8138034 30.9121094,40.5507812 L32.2480469,40.5507812 L32.2480469,40.6328125 C32.1126295,40.7682298 31.8815121,40.9693997 31.5546875,41.2363281 C31.2278629,41.5032565 30.9720061,41.7018223 30.7871094,41.8320312 L29.9941406,41.8320312 Z M39.5761719,48 L38.0371094,48 L35.5527344,43.6796875 L35.5175781,43.6796875 C35.5670575,44.4427121 35.5917969,44.9869775 35.5917969,45.3125 L35.5917969,48 L34.5097656,48 L34.5097656,42.2890625 L36.0371094,42.2890625 L38.5175781,46.5664062 L38.5449219,46.5664062 C38.5058592,45.824215 38.4863281,45.2994807 38.4863281,44.9921875 L38.4863281,42.2890625 L39.5761719,42.2890625 L39.5761719,48 Z M47.8300781,45.0898438 C47.8300781,46.0299526 47.5625027,46.7499975 47.0273438,47.25 C46.4921848,47.7500025 45.7194061,48 44.7089844,48 L43.0917969,48 L43.0917969,42.2890625 L44.8847656,42.2890625 C45.817062,42.2890625 46.541013,42.5351538 47.0566406,43.0273438 C47.5722682,43.5195337 47.8300781,44.2070268 47.8300781,45.0898438 Z M46.5722656,45.1210938 C46.5722656,43.8945251 46.0306044,43.28125 44.9472656,43.28125 L44.3027344,43.28125 L44.3027344,47 L44.8222656,47 C45.9889381,47 46.5722656,46.3737042 46.5722656,45.1210938 Z M52.3027344,48 L49.0136719,48 L49.0136719,42.2890625 L52.3027344,42.2890625 L52.3027344,43.28125 L50.2246094,43.28125 L50.2246094,44.5351562 L52.1582031,44.5351562 L52.1582031,45.5273438 L50.2246094,45.5273438 L50.2246094,47 L52.3027344,47 L52.3027344,48 Z M55.5722656,48 L55.5722656,42.2890625 L56.7832031,42.2890625 L56.7832031,47 L59.0996094,47 L59.0996094,48 L55.5722656,48 Z M63.5878906,48 L63.1738281,46.640625 L61.0917969,46.640625 L60.6777344,48 L59.3730469,48 L61.3886719,42.265625 L62.8691406,42.265625 L64.8925781,48 L63.5878906,48 Z M62.8847656,45.625 C62.5019512,44.393223 62.2864586,43.6966154 62.2382812,43.5351562 C62.1901039,43.3736971 62.1555991,43.2460942 62.1347656,43.1523438 C62.0488277,43.4856787 61.8027364,44.3098893 61.3964844,45.625 L62.8847656,45.625 Z M70.9472656,42.2890625 L72.1699219,42.2890625 L70.2285156,48 L68.9082031,48 L66.9707031,42.2890625 L68.1933594,42.2890625 L69.2675781,45.6875 C69.3274743,45.8880218 69.3893226,46.1217435 69.453125,46.3886719 C69.5169274,46.6556003 69.5566405,46.8411453 69.5722656,46.9453125 C69.6009116,46.705728 69.6985669,46.2864613 69.8652344,45.6875 L70.9472656,42.2890625 Z M72.8886719,48 L72.8886719,42.2890625 L74.0996094,42.2890625 L74.0996094,48 L72.8886719,48 Z M78.8261719,48 L75.5371094,48 L75.5371094,42.2890625 L78.8261719,42.2890625 L78.8261719,43.28125 L76.7480469,43.28125 L76.7480469,44.5351562 L78.6816406,44.5351562 L78.6816406,45.5273438 L76.7480469,45.5273438 L76.7480469,47 L78.8261719,47 L78.8261719,48 Z M79.9003906,49.6796875 C79.6269518,49.6796875 79.3886729,49.651042 79.1855469,49.59375 L79.1855469,48.5859375 C79.3938813,48.6380211 79.5839835,48.6640625 79.7558594,48.6640625 C80.0214857,48.6640625 80.211588,48.581381 80.3261719,48.4160156 C80.4407558,48.2506502 80.4980469,47.9921893 80.4980469,47.640625 L80.4980469,42.2890625 L81.7089844,42.2890625 L81.7089844,47.6328125 C81.7089844,48.2994825 81.5566421,48.8072899 81.2519531,49.15625 C80.9472641,49.5052101 80.4967478,49.6796875 79.9003906,49.6796875 Z M86.6425781,48 L86.2285156,46.640625 L84.1464844,46.640625 L83.7324219,48 L82.4277344,48 L84.4433594,42.265625 L85.9238281,42.265625 L87.9472656,48 L86.6425781,48 Z M85.9394531,45.625 C85.5566387,44.393223 85.3411461,43.6966154 85.2929688,43.5351562 C85.2447914,43.3736971 85.2102866,43.2460942 85.1894531,43.1523438 C85.1035152,43.4856787 84.8574239,44.3098893 84.4511719,45.625 L85.9394531,45.625 Z" id="RINCÓN-DE-LA-VIEJA" fill="#FFFFFF"></path>
        </g>
    </g>
</svg>