<?xml version="1.0" encoding="UTF-8"?>
<svg width="61px" height="58px" viewBox="0 0 61 58" version="1.1" xmlns="http://www.w3.org/2000/svg" xmlns:xlink="http://www.w3.org/1999/xlink">
    <!-- Generator: Sketch 48.2 (47327) - http://www.bohemiancoding.com/sketch -->
    <title>tenorio</title>
    <desc>Created with Sketch.</desc>
    <defs>
        <polygon id="path-1" points="7.62968209e-05 0.0820178694 33.4861189 0.0820178694 33.4861189 22.7079038 7.62968209e-05 22.7079038"></polygon>
        <polygon id="path-3" points="0.0333598711 0.052173913 12.9893383 0.052173913 12.9893383 14.9285217 0.0333598711 14.9285217"></polygon>
        <rect id="path-5" x="0" y="39" width="53" height="14" rx="7"></rect>
        <filter x="-12.3%" y="-39.3%" width="124.5%" height="192.9%" filterUnits="objectBoundingBox" id="filter-6">
            <feOffset dx="0" dy="1" in="SourceAlpha" result="shadowOffsetOuter1"></feOffset>
            <feGaussianBlur stdDeviation="2" in="shadowOffsetOuter1" result="shadowBlurOuter1"></feGaussianBlur>
            <feColorMatrix values="0 0 0 0 0   0 0 0 0 0   0 0 0 0 0  0 0 0 0.5 0" type="matrix" in="shadowBlurOuter1"></feColorMatrix>
        </filter>
    </defs>
    <g id="Volcanes-fallas" stroke="none" stroke-width="1" fill="none" fill-rule="evenodd">
        <g id="tenorio" transform="translate(4.000000, 0.000000)">
            <g id="Page-1-Copy-2" transform="translate(10.000000, 0.000000)">
                <g id="Group-3" transform="translate(0.000000, 17.003849)">
                    <mask id="mask-2" fill="white">
                        <use xlink:href="#path-1"></use>
                    </mask>
                    <g id="Clip-2"></g>
                    <path d="M33.4237819,21.9839835 C30.984388,17.6533168 28.544605,13.3226502 26.1052111,8.99159863 C24.4767435,6.10115189 22.848665,3.21070515 21.2201974,0.320258419 C21.1373149,0.173234364 20.9688259,0.0820178694 20.8003369,0.0820178694 L12.6860155,0.0820178694 C12.5171374,0.0820178694 12.3490375,0.173234364 12.2657658,0.320258419 C8.19829346,7.54137182 4.13043199,14.7628701 0.0625705113,21.9839835 C-0.116035612,22.3007395 0.108097562,22.7079423 0.482431094,22.7079423 L33.0039213,22.7079423 C33.3782548,22.7079423 33.602388,22.3007395 33.4237819,21.9839835" id="Fill-1" fill="#FF6D00" mask="url(#mask-2)"></path>
                </g>
                <path d="M23.070697,22.7405966 C22.2998501,21.3723491 21.5290032,20.0041017 20.7581562,18.6354694 C20.5923911,18.3414213 20.2554131,18.1589883 19.9184351,18.1589883 L13.5679951,18.1589883 C13.230628,18.1589883 12.89365,18.3414213 12.7278848,18.6354694 C11.6737585,20.5075244 10.619243,22.3791945 9.56511671,24.2504797 C9.36861106,24.5991808 9.41141427,24.9347959 9.57717943,25.1957443 C9.73555131,25.5706172 10.0982112,25.827332 10.5885026,25.6837718 C10.6970671,25.6699162 10.8021295,25.6341223 10.900966,25.5760055 C11.7578084,25.2588646 12.6142618,24.9421086 13.4707151,24.6249677 C13.6559363,24.5564591 13.8427139,24.4714007 14.0329936,24.4155931 C14.5680338,24.5291326 15.0754464,24.8135588 15.6124321,24.9163216 C16.9685156,25.1761155 18.2942478,23.7739986 19.3818385,22.8541361 C20.1678611,23.2551808 20.9538837,23.6562254 21.7399062,24.0572701 C22.5948031,24.4933388 23.5582644,23.6061911 23.070697,22.7405966" id="Fill-4" fill="#FFFFFF"></path>
                <g id="Group-8" transform="translate(10.000000, 0.000000)">
                    <mask id="mask-4" fill="white">
                        <use xlink:href="#path-3"></use>
                    </mask>
                    <g id="Clip-7"></g>
                    <path d="M12.2268683,4.77156522 C12.4600017,2.66591304 10.6406517,0.975913043 8.573435,1.52156522 C6.23516833,-1.35930435 1.35496833,0.257 1.576835,4.10243478 C-0.983298333,5.517 -0.214131667,9.54417391 2.81855167,9.61656522 C3.54156833,11.2974348 4.26436833,12.9783043 4.987385,14.6593913 C5.06040167,14.8289565 5.28226833,14.9285217 5.45516833,14.9285217 L7.55705167,14.9285217 C7.729735,14.9285217 7.95181833,14.8289565 8.024835,14.6593913 L9.799985,10.5317826 C12.6818683,10.4104783 13.9077683,6.95569565 12.2268683,4.77156522" id="Fill-6" fill="#FF6D00" mask="url(#mask-4)"></path>
                </g>
                <path d="M19.3677971,2.646451 C20.271782,2.68472653 20.8916113,3.67835055 20.6499981,4.75578479 C20.5735292,5.09740492 21.0063147,5.24324789 21.0827836,4.90184774 C21.4031992,3.47223461 20.5611434,2.14710929 19.3677971,2.09651519 C19.0789743,2.08419663 19.0793333,2.63413244 19.3677971,2.646451" id="Fill-9" fill="#FFFFFF" transform="translate(20.151315, 3.596311) rotate(-6.000000) translate(-20.151315, -3.596311) "></path>
            </g>
            <g id="Rectangle-2-Copy-4">
                <use fill="black" fill-opacity="1" filter="url(#filter-6)" xlink:href="#path-5"></use>
                <use fill="#263238" fill-rule="evenodd" xlink:href="#path-5"></use>
            </g>
            <path d="M11.28125,49 L10.0703125,49 L10.0703125,44.296875 L8.51953125,44.296875 L8.51953125,43.2890625 L12.8320312,43.2890625 L12.8320312,44.296875 L11.28125,44.296875 L11.28125,49 Z M17,49 L13.7109375,49 L13.7109375,43.2890625 L17,43.2890625 L17,44.28125 L14.921875,44.28125 L14.921875,45.5351562 L16.8554688,45.5351562 L16.8554688,46.5273438 L14.921875,46.5273438 L14.921875,48 L17,48 L17,49 Z M23.2578125,49 L21.71875,49 L19.234375,44.6796875 L19.1992188,44.6796875 C19.2486982,45.4427121 19.2734375,45.9869775 19.2734375,46.3125 L19.2734375,49 L18.1914062,49 L18.1914062,43.2890625 L19.71875,43.2890625 L22.1992188,47.5664062 L22.2265625,47.5664062 C22.1874998,46.824215 22.1679688,46.2994807 22.1679688,45.9921875 L22.1679688,43.2890625 L23.2578125,43.2890625 L23.2578125,49 Z M29.8789062,46.1367188 C29.8789062,47.082036 29.6445336,47.8085912 29.1757812,48.3164062 C28.7070289,48.8242213 28.0351606,49.078125 27.1601562,49.078125 C26.2851519,49.078125 25.6132836,48.8242213 25.1445312,48.3164062 C24.6757789,47.8085912 24.4414062,47.0794318 24.4414062,46.1289062 C24.4414062,45.1783807 24.6764299,44.4524765 25.1464844,43.9511719 C25.6165388,43.4498673 26.2903602,43.1992188 27.1679688,43.1992188 C28.0455773,43.1992188 28.7167946,43.4518204 29.1816406,43.9570312 C29.6464867,44.4622421 29.8789062,45.1887973 29.8789062,46.1367188 Z M25.7109375,46.1367188 C25.7109375,46.7747428 25.83203,47.2552067 26.0742188,47.578125 C26.3164075,47.9010433 26.678383,48.0625 27.1601562,48.0625 C28.1263069,48.0625 28.609375,47.4205793 28.609375,46.1367188 C28.609375,44.850254 28.1289111,44.2070312 27.1679688,44.2070312 C26.6861955,44.2070312 26.3229179,44.369139 26.078125,44.6933594 C25.8333321,45.0175797 25.7109375,45.4986947 25.7109375,46.1367188 Z M32.2734375,45.8242188 L32.6640625,45.8242188 C33.0468769,45.8242188 33.3294262,45.7604173 33.5117188,45.6328125 C33.6940113,45.5052077 33.7851562,45.3046889 33.7851562,45.03125 C33.7851562,44.7604153 33.6920582,44.5677089 33.5058594,44.453125 C33.3196605,44.3385411 33.031252,44.28125 32.640625,44.28125 L32.2734375,44.28125 L32.2734375,45.8242188 Z M32.2734375,46.8085938 L32.2734375,49 L31.0625,49 L31.0625,43.2890625 L32.7265625,43.2890625 C33.502608,43.2890625 34.0768211,43.4303371 34.4492188,43.7128906 C34.8216164,43.9954441 35.0078125,44.4244763 35.0078125,45 C35.0078125,45.3359392 34.9153655,45.6347643 34.7304688,45.8964844 C34.545572,46.1582044 34.2838559,46.3632805 33.9453125,46.5117188 C34.8046918,47.7955793 35.364582,48.6249981 35.625,49 L34.28125,49 L32.9179688,46.8085938 L32.2734375,46.8085938 Z M36.34375,49 L36.34375,43.2890625 L37.5546875,43.2890625 L37.5546875,49 L36.34375,49 Z M44.1757812,46.1367188 C44.1757812,47.082036 43.9414086,47.8085912 43.4726562,48.3164062 C43.0039039,48.8242213 42.3320356,49.078125 41.4570312,49.078125 C40.5820269,49.078125 39.9101586,48.8242213 39.4414062,48.3164062 C38.9726539,47.8085912 38.7382812,47.0794318 38.7382812,46.1289062 C38.7382812,45.1783807 38.9733049,44.4524765 39.4433594,43.9511719 C39.9134138,43.4498673 40.5872352,43.1992188 41.4648438,43.1992188 C42.3424523,43.1992188 43.0136696,43.4518204 43.4785156,43.9570312 C43.9433617,44.4622421 44.1757812,45.1887973 44.1757812,46.1367188 Z M40.0078125,46.1367188 C40.0078125,46.7747428 40.128905,47.2552067 40.3710938,47.578125 C40.6132825,47.9010433 40.975258,48.0625 41.4570312,48.0625 C42.4231819,48.0625 42.90625,47.4205793 42.90625,46.1367188 C42.90625,44.850254 42.4257861,44.2070312 41.4648438,44.2070312 C40.9830705,44.2070312 40.6197929,44.369139 40.375,44.6933594 C40.1302071,45.0175797 40.0078125,45.4986947 40.0078125,46.1367188 Z" fill="#FFFFFF"></path>
        </g>
    </g>
</svg>