<?xml version="1.0" encoding="UTF-8"?>
<svg width="78px" height="41px" viewBox="0 0 78 41" version="1.1" xmlns="http://www.w3.org/2000/svg" xmlns:xlink="http://www.w3.org/1999/xlink">
    <!-- Generator: Sketch 48.2 (47327) - http://www.bohemiancoding.com/sketch -->
    <title>TENORIO</title>
    <desc>Created with Sketch.</desc>
    <defs>
        <polygon id="path-1" points="7.62968209e-05 0.0820178694 33.4861189 0.0820178694 33.4861189 22.7079038 7.62968209e-05 22.7079038"></polygon>
        <rect id="path-3" x="0" y="22" width="70" height="14" rx="7"></rect>
        <filter x="-9.3%" y="-39.3%" width="118.6%" height="192.9%" filterUnits="objectBoundingBox" id="filter-4">
            <feOffset dx="0" dy="1" in="SourceAlpha" result="shadowOffsetOuter1"></feOffset>
            <feGaussianBlur stdDeviation="2" in="shadowOffsetOuter1" result="shadowBlurOuter1"></feGaussianBlur>
            <feColorMatrix values="0 0 0 0 0   0 0 0 0 0   0 0 0 0 0  0 0 0 0.5 0" type="matrix" in="shadowBlurOuter1"></feColorMatrix>
        </filter>
    </defs>
    <g id="Volcanes-fallas" stroke="none" stroke-width="1" fill="none" fill-rule="evenodd">
        <g id="TENORIO" transform="translate(4.000000, 0.000000)">
            <g id="Page-1-Copy-2" transform="translate(18.000000, 0.000000)">
                <g id="Group-3" transform="translate(0.000000, 0.003849)">
                    <mask id="mask-2" fill="white">
                        <use xlink:href="#path-1"></use>
                    </mask>
                    <g id="Clip-2"></g>
                    <path d="M33.4237819,21.9839835 C30.984388,17.6533168 28.544605,13.3226502 26.1052111,8.99159863 C24.4767435,6.10115189 22.848665,3.21070515 21.2201974,0.320258419 C21.1373149,0.173234364 20.9688259,0.0820178694 20.8003369,0.0820178694 L12.6860155,0.0820178694 C12.5171374,0.0820178694 12.3490375,0.173234364 12.2657658,0.320258419 C8.19829346,7.54137182 4.13043199,14.7628701 0.0625705113,21.9839835 C-0.116035612,22.3007395 0.108097562,22.7079423 0.482431094,22.7079423 L33.0039213,22.7079423 C33.3782548,22.7079423 33.602388,22.3007395 33.4237819,21.9839835" id="Fill-1" fill="#FF6D00" mask="url(#mask-2)"></path>
                </g>
            </g>
            <path d="M31.4944112,5 L26,14.7371169" id="Line" stroke="#FFFFFF" stroke-linecap="round"></path>
            <path d="M31.4944112,10 L27.5,17.5" id="Line-Copy-2" stroke="#FFFFFF" stroke-linecap="round"></path>
            <path d="M42.5,13.5 L47.5,23.5" id="Line-Copy" stroke="#FFFFFF" stroke-linecap="round"></path>
            <path d="M40.5,9.5 L41.5,11.5" id="Line" stroke="#FFFFFF" stroke-linecap="round"></path>
            <g id="Rectangle-2-Copy-4">
                <use fill="black" fill-opacity="1" filter="url(#filter-4)" xlink:href="#path-3"></use>
                <use fill="#263238" fill-rule="evenodd" xlink:href="#path-3"></use>
            </g>
            <path d="M19.78125,32 L18.5703125,32 L18.5703125,27.296875 L17.0195312,27.296875 L17.0195312,26.2890625 L21.3320312,26.2890625 L21.3320312,27.296875 L19.78125,27.296875 L19.78125,32 Z M25.5,32 L22.2109375,32 L22.2109375,26.2890625 L25.5,26.2890625 L25.5,27.28125 L23.421875,27.28125 L23.421875,28.5351562 L25.3554688,28.5351562 L25.3554688,29.5273438 L23.421875,29.5273438 L23.421875,31 L25.5,31 L25.5,32 Z M31.7578125,32 L30.21875,32 L27.734375,27.6796875 L27.6992188,27.6796875 C27.7486982,28.4427121 27.7734375,28.9869775 27.7734375,29.3125 L27.7734375,32 L26.6914062,32 L26.6914062,26.2890625 L28.21875,26.2890625 L30.6992188,30.5664062 L30.7265625,30.5664062 C30.6874998,29.824215 30.6679688,29.2994807 30.6679688,28.9921875 L30.6679688,26.2890625 L31.7578125,26.2890625 L31.7578125,32 Z M38.3789062,29.1367188 C38.3789062,30.082036 38.1445336,30.8085912 37.6757812,31.3164062 C37.2070289,31.8242213 36.5351606,32.078125 35.6601562,32.078125 C34.7851519,32.078125 34.1132836,31.8242213 33.6445312,31.3164062 C33.1757789,30.8085912 32.9414062,30.0794318 32.9414062,29.1289062 C32.9414062,28.1783807 33.1764299,27.4524765 33.6464844,26.9511719 C34.1165388,26.4498673 34.7903602,26.1992188 35.6679688,26.1992188 C36.5455773,26.1992188 37.2167946,26.4518204 37.6816406,26.9570312 C38.1464867,27.4622421 38.3789062,28.1887973 38.3789062,29.1367188 Z M34.2109375,29.1367188 C34.2109375,29.7747428 34.33203,30.2552067 34.5742188,30.578125 C34.8164075,30.9010433 35.178383,31.0625 35.6601562,31.0625 C36.6263069,31.0625 37.109375,30.4205793 37.109375,29.1367188 C37.109375,27.850254 36.6289111,27.2070312 35.6679688,27.2070312 C35.1861955,27.2070312 34.8229179,27.369139 34.578125,27.6933594 C34.3333321,28.0175797 34.2109375,28.4986947 34.2109375,29.1367188 Z M40.7734375,28.8242188 L41.1640625,28.8242188 C41.5468769,28.8242188 41.8294262,28.7604173 42.0117188,28.6328125 C42.1940113,28.5052077 42.2851562,28.3046889 42.2851562,28.03125 C42.2851562,27.7604153 42.1920582,27.5677089 42.0058594,27.453125 C41.8196605,27.3385411 41.531252,27.28125 41.140625,27.28125 L40.7734375,27.28125 L40.7734375,28.8242188 Z M40.7734375,29.8085938 L40.7734375,32 L39.5625,32 L39.5625,26.2890625 L41.2265625,26.2890625 C42.002608,26.2890625 42.5768211,26.4303371 42.9492188,26.7128906 C43.3216164,26.9954441 43.5078125,27.4244763 43.5078125,28 C43.5078125,28.3359392 43.4153655,28.6347643 43.2304688,28.8964844 C43.045572,29.1582044 42.7838559,29.3632805 42.4453125,29.5117188 C43.3046918,30.7955793 43.864582,31.6249981 44.125,32 L42.78125,32 L41.4179688,29.8085938 L40.7734375,29.8085938 Z M44.84375,32 L44.84375,26.2890625 L46.0546875,26.2890625 L46.0546875,32 L44.84375,32 Z M52.6757812,29.1367188 C52.6757812,30.082036 52.4414086,30.8085912 51.9726562,31.3164062 C51.5039039,31.8242213 50.8320356,32.078125 49.9570312,32.078125 C49.0820269,32.078125 48.4101586,31.8242213 47.9414062,31.3164062 C47.4726539,30.8085912 47.2382812,30.0794318 47.2382812,29.1289062 C47.2382812,28.1783807 47.4733049,27.4524765 47.9433594,26.9511719 C48.4134138,26.4498673 49.0872352,26.1992188 49.9648438,26.1992188 C50.8424523,26.1992188 51.5136696,26.4518204 51.9785156,26.9570312 C52.4433617,27.4622421 52.6757812,28.1887973 52.6757812,29.1367188 Z M48.5078125,29.1367188 C48.5078125,29.7747428 48.628905,30.2552067 48.8710938,30.578125 C49.1132825,30.9010433 49.475258,31.0625 49.9570312,31.0625 C50.9231819,31.0625 51.40625,30.4205793 51.40625,29.1367188 C51.40625,27.850254 50.9257861,27.2070312 49.9648438,27.2070312 C49.4830705,27.2070312 49.1197929,27.369139 48.875,27.6933594 C48.6302071,28.0175797 48.5078125,28.4986947 48.5078125,29.1367188 Z" fill="#FFFFFF"></path>
        </g>
    </g>
</svg>