<?xml version="1.0" encoding="UTF-8"?>
<svg width="78px" height="58px" viewBox="0 0 78 58" version="1.1" xmlns="http://www.w3.org/2000/svg" xmlns:xlink="http://www.w3.org/1999/xlink">
    <!-- Generator: Sketch 48.2 (47327) - http://www.bohemiancoding.com/sketch -->
    <title>tortuguero</title>
    <desc>Created with Sketch.</desc>
    <defs>
        <polygon id="path-1" points="7.62968209e-05 0.0820178694 33.4861189 0.0820178694 33.4861189 22.7079038 7.62968209e-05 22.7079038"></polygon>
        <polygon id="path-3" points="0.0333598711 0.052173913 12.9893383 0.052173913 12.9893383 14.9285217 0.0333598711 14.9285217"></polygon>
        <rect id="path-5" x="0" y="39" width="70" height="14" rx="7"></rect>
        <filter x="-9.3%" y="-39.3%" width="118.6%" height="192.9%" filterUnits="objectBoundingBox" id="filter-6">
            <feOffset dx="0" dy="1" in="SourceAlpha" result="shadowOffsetOuter1"></feOffset>
            <feGaussianBlur stdDeviation="2" in="shadowOffsetOuter1" result="shadowBlurOuter1"></feGaussianBlur>
            <feColorMatrix values="0 0 0 0 0   0 0 0 0 0   0 0 0 0 0  0 0 0 0.5 0" type="matrix" in="shadowBlurOuter1"></feColorMatrix>
        </filter>
    </defs>
    <g id="Volcanes-fallas" stroke="none" stroke-width="1" fill="none" fill-rule="evenodd">
        <g id="tortuguero" transform="translate(4.000000, 0.000000)">
            <g id="Page-1-Copy-2" transform="translate(18.000000, 0.000000)">
                <g id="Group-3" transform="translate(0.000000, 17.003849)">
                    <mask id="mask-2" fill="white">
                        <use xlink:href="#path-1"></use>
                    </mask>
                    <g id="Clip-2"></g>
                    <path d="M33.4237819,21.9839835 C30.984388,17.6533168 28.544605,13.3226502 26.1052111,8.99159863 C24.4767435,6.10115189 22.848665,3.21070515 21.2201974,0.320258419 C21.1373149,0.173234364 20.9688259,0.0820178694 20.8003369,0.0820178694 L12.6860155,0.0820178694 C12.5171374,0.0820178694 12.3490375,0.173234364 12.2657658,0.320258419 C8.19829346,7.54137182 4.13043199,14.7628701 0.0625705113,21.9839835 C-0.116035612,22.3007395 0.108097562,22.7079423 0.482431094,22.7079423 L33.0039213,22.7079423 C33.3782548,22.7079423 33.602388,22.3007395 33.4237819,21.9839835" id="Fill-1" fill="#FF6D00" mask="url(#mask-2)"></path>
                </g>
                <path d="M23.070697,22.7405966 C22.2998501,21.3723491 21.5290032,20.0041017 20.7581562,18.6354694 C20.5923911,18.3414213 20.2554131,18.1589883 19.9184351,18.1589883 L13.5679951,18.1589883 C13.230628,18.1589883 12.89365,18.3414213 12.7278848,18.6354694 C11.6737585,20.5075244 10.619243,22.3791945 9.56511671,24.2504797 C9.36861106,24.5991808 9.41141427,24.9347959 9.57717943,25.1957443 C9.73555131,25.5706172 10.0982112,25.827332 10.5885026,25.6837718 C10.6970671,25.6699162 10.8021295,25.6341223 10.900966,25.5760055 C11.7578084,25.2588646 12.6142618,24.9421086 13.4707151,24.6249677 C13.6559363,24.5564591 13.8427139,24.4714007 14.0329936,24.4155931 C14.5680338,24.5291326 15.0754464,24.8135588 15.6124321,24.9163216 C16.9685156,25.1761155 18.2942478,23.7739986 19.3818385,22.8541361 C20.1678611,23.2551808 20.9538837,23.6562254 21.7399062,24.0572701 C22.5948031,24.4933388 23.5582644,23.6061911 23.070697,22.7405966" id="Fill-4" fill="#FFFFFF"></path>
                <g id="Group-8" transform="translate(10.000000, 0.000000)">
                    <mask id="mask-4" fill="white">
                        <use xlink:href="#path-3"></use>
                    </mask>
                    <g id="Clip-7"></g>
                    <path d="M12.2268683,4.77156522 C12.4600017,2.66591304 10.6406517,0.975913043 8.573435,1.52156522 C6.23516833,-1.35930435 1.35496833,0.257 1.576835,4.10243478 C-0.983298333,5.517 -0.214131667,9.54417391 2.81855167,9.61656522 C3.54156833,11.2974348 4.26436833,12.9783043 4.987385,14.6593913 C5.06040167,14.8289565 5.28226833,14.9285217 5.45516833,14.9285217 L7.55705167,14.9285217 C7.729735,14.9285217 7.95181833,14.8289565 8.024835,14.6593913 L9.799985,10.5317826 C12.6818683,10.4104783 13.9077683,6.95569565 12.2268683,4.77156522" id="Fill-6" fill="#FF6D00" mask="url(#mask-4)"></path>
                </g>
                <path d="M19.3677971,2.646451 C20.271782,2.68472653 20.8916113,3.67835055 20.6499981,4.75578479 C20.5735292,5.09740492 21.0063147,5.24324789 21.0827836,4.90184774 C21.4031992,3.47223461 20.5611434,2.14710929 19.3677971,2.09651519 C19.0789743,2.08419663 19.0793333,2.63413244 19.3677971,2.646451" id="Fill-9" fill="#FFFFFF" transform="translate(20.151315, 3.596311) rotate(-6.000000) translate(-20.151315, -3.596311) "></path>
            </g>
            <g id="Rectangle-2-Copy-4">
                <use fill="black" fill-opacity="1" filter="url(#filter-6)" xlink:href="#path-5"></use>
                <use fill="#263238" fill-rule="evenodd" xlink:href="#path-5"></use>
            </g>
            <path d="M13.1777344,49 L11.9667969,49 L11.9667969,44.296875 L10.4160156,44.296875 L10.4160156,43.2890625 L14.7285156,43.2890625 L14.7285156,44.296875 L13.1777344,44.296875 L13.1777344,49 Z M20.6308594,46.1367188 C20.6308594,47.082036 20.3964867,47.8085912 19.9277344,48.3164062 C19.458982,48.8242213 18.7871137,49.078125 17.9121094,49.078125 C17.037105,49.078125 16.3652367,48.8242213 15.8964844,48.3164062 C15.427732,47.8085912 15.1933594,47.0794318 15.1933594,46.1289062 C15.1933594,45.1783807 15.4283831,44.4524765 15.8984375,43.9511719 C16.3684919,43.4498673 17.0423133,43.1992188 17.9199219,43.1992188 C18.7975304,43.1992188 19.4687477,43.4518204 19.9335938,43.9570312 C20.3984398,44.4622421 20.6308594,45.1887973 20.6308594,46.1367188 Z M16.4628906,46.1367188 C16.4628906,46.7747428 16.5839832,47.2552067 16.8261719,47.578125 C17.0683606,47.9010433 17.4303361,48.0625 17.9121094,48.0625 C18.87826,48.0625 19.3613281,47.4205793 19.3613281,46.1367188 C19.3613281,44.850254 18.8808642,44.2070312 17.9199219,44.2070312 C17.4381486,44.2070312 17.074871,44.369139 16.8300781,44.6933594 C16.5852852,45.0175797 16.4628906,45.4986947 16.4628906,46.1367188 Z M23.0253906,45.8242188 L23.4160156,45.8242188 C23.79883,45.8242188 24.0813793,45.7604173 24.2636719,45.6328125 C24.4459645,45.5052077 24.5371094,45.3046889 24.5371094,45.03125 C24.5371094,44.7604153 24.4440113,44.5677089 24.2578125,44.453125 C24.0716137,44.3385411 23.7832051,44.28125 23.3925781,44.28125 L23.0253906,44.28125 L23.0253906,45.8242188 Z M23.0253906,46.8085938 L23.0253906,49 L21.8144531,49 L21.8144531,43.2890625 L23.4785156,43.2890625 C24.2545612,43.2890625 24.8287742,43.4303371 25.2011719,43.7128906 C25.5735696,43.9954441 25.7597656,44.4244763 25.7597656,45 C25.7597656,45.3359392 25.6673186,45.6347643 25.4824219,45.8964844 C25.2975251,46.1582044 25.035809,46.3632805 24.6972656,46.5117188 C25.5566449,47.7955793 26.1165352,48.6249981 26.3769531,49 L25.0332031,49 L23.6699219,46.8085938 L23.0253906,46.8085938 Z M29.2988281,49 L28.0878906,49 L28.0878906,44.296875 L26.5371094,44.296875 L26.5371094,43.2890625 L30.8496094,43.2890625 L30.8496094,44.296875 L29.2988281,44.296875 L29.2988281,49 Z M36.3769531,43.2890625 L36.3769531,46.984375 C36.3769531,47.4062521 36.282553,47.7760401 36.09375,48.09375 C35.904947,48.4114599 35.6321632,48.6549471 35.2753906,48.8242188 C34.918618,48.9934904 34.4967472,49.078125 34.0097656,49.078125 C33.275387,49.078125 32.7050802,48.8899758 32.2988281,48.5136719 C31.8925761,48.1373679 31.6894531,47.6223991 31.6894531,46.96875 L31.6894531,43.2890625 L32.8964844,43.2890625 L32.8964844,46.7851562 C32.8964844,47.2252626 32.9850252,47.5481761 33.1621094,47.7539062 C33.3391936,47.9596364 33.6321594,48.0625 34.0410156,48.0625 C34.4368509,48.0625 34.7239574,47.9589854 34.9023438,47.7519531 C35.0807301,47.5449208 35.1699219,47.2200543 35.1699219,46.7773438 L35.1699219,43.2890625 L36.3769531,43.2890625 Z M39.9433594,45.7929688 L42.2089844,45.7929688 L42.2089844,48.7539062 C41.841795,48.8736985 41.4960954,48.9576821 41.171875,49.0058594 C40.8476546,49.0540367 40.5162777,49.078125 40.1777344,49.078125 C39.3157509,49.078125 38.6575544,48.8248723 38.203125,48.3183594 C37.7486956,47.8118464 37.5214844,47.0846402 37.5214844,46.1367188 C37.5214844,45.2148391 37.7851536,44.4960963 38.3125,43.9804688 C38.8398464,43.4648412 39.5709589,43.2070312 40.5058594,43.2070312 C41.0917998,43.2070312 41.6568983,43.3242176 42.2011719,43.5585938 L41.7988281,44.5273438 C41.3821594,44.3190094 40.94857,44.2148438 40.4980469,44.2148438 C39.9746068,44.2148438 39.5553401,44.3906232 39.2402344,44.7421875 C38.9251286,45.0937518 38.7675781,45.5664033 38.7675781,46.1601562 C38.7675781,46.779951 38.89453,47.2532536 39.1484375,47.5800781 C39.402345,47.9069027 39.771482,48.0703125 40.2558594,48.0703125 C40.5084648,48.0703125 40.7649727,48.0442711 41.0253906,47.9921875 L41.0253906,46.8007812 L39.9433594,46.8007812 L39.9433594,45.7929688 Z M48.2167969,43.2890625 L48.2167969,46.984375 C48.2167969,47.4062521 48.1223968,47.7760401 47.9335938,48.09375 C47.7447907,48.4114599 47.472007,48.6549471 47.1152344,48.8242188 C46.7584618,48.9934904 46.336591,49.078125 45.8496094,49.078125 C45.1152307,49.078125 44.5449239,48.8899758 44.1386719,48.5136719 C43.7324198,48.1373679 43.5292969,47.6223991 43.5292969,46.96875 L43.5292969,43.2890625 L44.7363281,43.2890625 L44.7363281,46.7851562 C44.7363281,47.2252626 44.8248689,47.5481761 45.0019531,47.7539062 C45.1790373,47.9596364 45.4720032,48.0625 45.8808594,48.0625 C46.2766947,48.0625 46.5638012,47.9589854 46.7421875,47.7519531 C46.9205738,47.5449208 47.0097656,47.2200543 47.0097656,46.7773438 L47.0097656,43.2890625 L48.2167969,43.2890625 Z M52.9042969,49 L49.6152344,49 L49.6152344,43.2890625 L52.9042969,43.2890625 L52.9042969,44.28125 L50.8261719,44.28125 L50.8261719,45.5351562 L52.7597656,45.5351562 L52.7597656,46.5273438 L50.8261719,46.5273438 L50.8261719,48 L52.9042969,48 L52.9042969,49 Z M59.2792969,46.1367188 C59.2792969,47.082036 59.0449242,47.8085912 58.5761719,48.3164062 C58.1074195,48.8242213 57.4355513,49.078125 56.5605469,49.078125 C55.6855425,49.078125 55.0136742,48.8242213 54.5449219,48.3164062 C54.0761695,47.8085912 53.8417969,47.0794318 53.8417969,46.1289062 C53.8417969,45.1783807 54.0768206,44.4524765 54.546875,43.9511719 C55.0169294,43.4498673 55.6907508,43.1992188 56.5683594,43.1992188 C57.4459679,43.1992188 58.1171852,43.4518204 58.5820312,43.9570312 C59.0468773,44.4622421 59.2792969,45.1887973 59.2792969,46.1367188 Z M55.1113281,46.1367188 C55.1113281,46.7747428 55.2324207,47.2552067 55.4746094,47.578125 C55.7167981,47.9010433 56.0787736,48.0625 56.5605469,48.0625 C57.5266975,48.0625 58.0097656,47.4205793 58.0097656,46.1367188 C58.0097656,44.850254 57.5293017,44.2070312 56.5683594,44.2070312 C56.0865861,44.2070312 55.7233085,44.369139 55.4785156,44.6933594 C55.2337227,45.0175797 55.1113281,45.4986947 55.1113281,46.1367188 Z" id="tortugueo" fill="#FFFFFF"></path>
        </g>
    </g>
</svg>