<?xml version="1.0" encoding="UTF-8"?>
<svg width="78px" height="41px" viewBox="0 0 78 41" version="1.1" xmlns="http://www.w3.org/2000/svg" xmlns:xlink="http://www.w3.org/1999/xlink">
    <!-- Generator: Sketch 48.2 (47327) - http://www.bohemiancoding.com/sketch -->
    <title>TORTUGUERO</title>
    <desc>Created with Sketch.</desc>
    <defs>
        <polygon id="path-1" points="7.62968209e-05 0.0820178694 33.4861189 0.0820178694 33.4861189 22.7079038 7.62968209e-05 22.7079038"></polygon>
        <rect id="path-3" x="0" y="22" width="70" height="14" rx="7"></rect>
        <filter x="-9.3%" y="-39.3%" width="118.6%" height="192.9%" filterUnits="objectBoundingBox" id="filter-4">
            <feOffset dx="0" dy="1" in="SourceAlpha" result="shadowOffsetOuter1"></feOffset>
            <feGaussianBlur stdDeviation="2" in="shadowOffsetOuter1" result="shadowBlurOuter1"></feGaussianBlur>
            <feColorMatrix values="0 0 0 0 0   0 0 0 0 0   0 0 0 0 0  0 0 0 0.5 0" type="matrix" in="shadowBlurOuter1"></feColorMatrix>
        </filter>
    </defs>
    <g id="Volcanes-fallas" stroke="none" stroke-width="1" fill="none" fill-rule="evenodd">
        <g id="TORTUGUERO" transform="translate(4.000000, 0.000000)">
            <g id="Page-1-Copy-2" transform="translate(18.000000, 0.000000)">
                <g id="Group-3" transform="translate(0.000000, 0.003849)">
                    <mask id="mask-2" fill="white">
                        <use xlink:href="#path-1"></use>
                    </mask>
                    <g id="Clip-2"></g>
                    <path d="M33.4237819,21.9839835 C30.984388,17.6533168 28.544605,13.3226502 26.1052111,8.99159863 C24.4767435,6.10115189 22.848665,3.21070515 21.2201974,0.320258419 C21.1373149,0.173234364 20.9688259,0.0820178694 20.8003369,0.0820178694 L12.6860155,0.0820178694 C12.5171374,0.0820178694 12.3490375,0.173234364 12.2657658,0.320258419 C8.19829346,7.54137182 4.13043199,14.7628701 0.0625705113,21.9839835 C-0.116035612,22.3007395 0.108097562,22.7079423 0.482431094,22.7079423 L33.0039213,22.7079423 C33.3782548,22.7079423 33.602388,22.3007395 33.4237819,21.9839835" id="Fill-1" fill="#FF6D00" mask="url(#mask-2)"></path>
                </g>
            </g>
            <path d="M31.4944112,5 L26,14.7371169" id="Line" stroke="#FFFFFF" stroke-linecap="round"></path>
            <path d="M31.4944112,10 L27.5,17.5" id="Line-Copy-2" stroke="#FFFFFF" stroke-linecap="round"></path>
            <path d="M42.5,13.5 L47.5,23.5" id="Line-Copy" stroke="#FFFFFF" stroke-linecap="round"></path>
            <path d="M40.5,9.5 L41.5,11.5" id="Line" stroke="#FFFFFF" stroke-linecap="round"></path>
            <g id="Rectangle-2-Copy-4">
                <use fill="black" fill-opacity="1" filter="url(#filter-4)" xlink:href="#path-3"></use>
                <use fill="#263238" fill-rule="evenodd" xlink:href="#path-3"></use>
            </g>
            <path d="M10.5371094,32 L9.32617188,32 L9.32617188,27.296875 L7.77539062,27.296875 L7.77539062,26.2890625 L12.0878906,26.2890625 L12.0878906,27.296875 L10.5371094,27.296875 L10.5371094,32 Z M17.9902344,29.1367188 C17.9902344,30.082036 17.7558617,30.8085912 17.2871094,31.3164062 C16.818357,31.8242213 16.1464887,32.078125 15.2714844,32.078125 C14.39648,32.078125 13.7246117,31.8242213 13.2558594,31.3164062 C12.787107,30.8085912 12.5527344,30.0794318 12.5527344,29.1289062 C12.5527344,28.1783807 12.7877581,27.4524765 13.2578125,26.9511719 C13.7278669,26.4498673 14.4016883,26.1992188 15.2792969,26.1992188 C16.1569054,26.1992188 16.8281227,26.4518204 17.2929688,26.9570312 C17.7578148,27.4622421 17.9902344,28.1887973 17.9902344,29.1367188 Z M13.8222656,29.1367188 C13.8222656,29.7747428 13.9433582,30.2552067 14.1855469,30.578125 C14.4277356,30.9010433 14.7897111,31.0625 15.2714844,31.0625 C16.237635,31.0625 16.7207031,30.4205793 16.7207031,29.1367188 C16.7207031,27.850254 16.2402392,27.2070312 15.2792969,27.2070312 C14.7975236,27.2070312 14.434246,27.369139 14.1894531,27.6933594 C13.9446602,28.0175797 13.8222656,28.4986947 13.8222656,29.1367188 Z M20.3847656,28.8242188 L20.7753906,28.8242188 C21.158205,28.8242188 21.4407543,28.7604173 21.6230469,28.6328125 C21.8053395,28.5052077 21.8964844,28.3046889 21.8964844,28.03125 C21.8964844,27.7604153 21.8033863,27.5677089 21.6171875,27.453125 C21.4309887,27.3385411 21.1425801,27.28125 20.7519531,27.28125 L20.3847656,27.28125 L20.3847656,28.8242188 Z M20.3847656,29.8085938 L20.3847656,32 L19.1738281,32 L19.1738281,26.2890625 L20.8378906,26.2890625 C21.6139362,26.2890625 22.1881492,26.4303371 22.5605469,26.7128906 C22.9329446,26.9954441 23.1191406,27.4244763 23.1191406,28 C23.1191406,28.3359392 23.0266936,28.6347643 22.8417969,28.8964844 C22.6569001,29.1582044 22.395184,29.3632805 22.0566406,29.5117188 C22.9160199,30.7955793 23.4759102,31.6249981 23.7363281,32 L22.3925781,32 L21.0292969,29.8085938 L20.3847656,29.8085938 Z M26.6582031,32 L25.4472656,32 L25.4472656,27.296875 L23.8964844,27.296875 L23.8964844,26.2890625 L28.2089844,26.2890625 L28.2089844,27.296875 L26.6582031,27.296875 L26.6582031,32 Z M33.7363281,26.2890625 L33.7363281,29.984375 C33.7363281,30.4062521 33.641928,30.7760401 33.453125,31.09375 C33.264322,31.4114599 32.9915382,31.6549471 32.6347656,31.8242188 C32.277993,31.9934904 31.8561222,32.078125 31.3691406,32.078125 C30.634762,32.078125 30.0644552,31.8899758 29.6582031,31.5136719 C29.2519511,31.1373679 29.0488281,30.6223991 29.0488281,29.96875 L29.0488281,26.2890625 L30.2558594,26.2890625 L30.2558594,29.7851562 C30.2558594,30.2252626 30.3444002,30.5481761 30.5214844,30.7539062 C30.6985686,30.9596364 30.9915344,31.0625 31.4003906,31.0625 C31.7962259,31.0625 32.0833324,30.9589854 32.2617188,30.7519531 C32.4401051,30.5449208 32.5292969,30.2200543 32.5292969,29.7773438 L32.5292969,26.2890625 L33.7363281,26.2890625 Z M37.3027344,28.7929688 L39.5683594,28.7929688 L39.5683594,31.7539062 C39.20117,31.8736985 38.8554704,31.9576821 38.53125,32.0058594 C38.2070296,32.0540367 37.8756527,32.078125 37.5371094,32.078125 C36.6751259,32.078125 36.0169294,31.8248723 35.5625,31.3183594 C35.1080706,30.8118464 34.8808594,30.0846402 34.8808594,29.1367188 C34.8808594,28.2148391 35.1445286,27.4960963 35.671875,26.9804688 C36.1992214,26.4648412 36.9303339,26.2070312 37.8652344,26.2070312 C38.4511748,26.2070312 39.0162733,26.3242176 39.5605469,26.5585938 L39.1582031,27.5273438 C38.7415344,27.3190094 38.307945,27.2148438 37.8574219,27.2148438 C37.3339818,27.2148438 36.9147151,27.3906232 36.5996094,27.7421875 C36.2845036,28.0937518 36.1269531,28.5664033 36.1269531,29.1601562 C36.1269531,29.779951 36.253905,30.2532536 36.5078125,30.5800781 C36.76172,30.9069027 37.130857,31.0703125 37.6152344,31.0703125 C37.8678398,31.0703125 38.1243477,31.0442711 38.3847656,30.9921875 L38.3847656,29.8007812 L37.3027344,29.8007812 L37.3027344,28.7929688 Z M45.5761719,26.2890625 L45.5761719,29.984375 C45.5761719,30.4062521 45.4817718,30.7760401 45.2929688,31.09375 C45.1041657,31.4114599 44.831382,31.6549471 44.4746094,31.8242188 C44.1178368,31.9934904 43.695966,32.078125 43.2089844,32.078125 C42.4746057,32.078125 41.9042989,31.8899758 41.4980469,31.5136719 C41.0917948,31.1373679 40.8886719,30.6223991 40.8886719,29.96875 L40.8886719,26.2890625 L42.0957031,26.2890625 L42.0957031,29.7851562 C42.0957031,30.2252626 42.1842439,30.5481761 42.3613281,30.7539062 C42.5384123,30.9596364 42.8313782,31.0625 43.2402344,31.0625 C43.6360697,31.0625 43.9231762,30.9589854 44.1015625,30.7519531 C44.2799488,30.5449208 44.3691406,30.2200543 44.3691406,29.7773438 L44.3691406,26.2890625 L45.5761719,26.2890625 Z M50.2636719,32 L46.9746094,32 L46.9746094,26.2890625 L50.2636719,26.2890625 L50.2636719,27.28125 L48.1855469,27.28125 L48.1855469,28.5351562 L50.1191406,28.5351562 L50.1191406,29.5273438 L48.1855469,29.5273438 L48.1855469,31 L50.2636719,31 L50.2636719,32 Z M52.6660156,28.8242188 L53.0566406,28.8242188 C53.439455,28.8242188 53.7220043,28.7604173 53.9042969,28.6328125 C54.0865895,28.5052077 54.1777344,28.3046889 54.1777344,28.03125 C54.1777344,27.7604153 54.0846363,27.5677089 53.8984375,27.453125 C53.7122387,27.3385411 53.4238301,27.28125 53.0332031,27.28125 L52.6660156,27.28125 L52.6660156,28.8242188 Z M52.6660156,29.8085938 L52.6660156,32 L51.4550781,32 L51.4550781,26.2890625 L53.1191406,26.2890625 C53.8951862,26.2890625 54.4693992,26.4303371 54.8417969,26.7128906 C55.2141946,26.9954441 55.4003906,27.4244763 55.4003906,28 C55.4003906,28.3359392 55.3079436,28.6347643 55.1230469,28.8964844 C54.9381501,29.1582044 54.676434,29.3632805 54.3378906,29.5117188 C55.1972699,30.7955793 55.7571602,31.6249981 56.0175781,32 L54.6738281,32 L53.3105469,29.8085938 L52.6660156,29.8085938 Z M61.9199219,29.1367188 C61.9199219,30.082036 61.6855492,30.8085912 61.2167969,31.3164062 C60.7480445,31.8242213 60.0761762,32.078125 59.2011719,32.078125 C58.3261675,32.078125 57.6542992,31.8242213 57.1855469,31.3164062 C56.7167945,30.8085912 56.4824219,30.0794318 56.4824219,29.1289062 C56.4824219,28.1783807 56.7174456,27.4524765 57.1875,26.9511719 C57.6575544,26.4498673 58.3313758,26.1992188 59.2089844,26.1992188 C60.0865929,26.1992188 60.7578102,26.4518204 61.2226562,26.9570312 C61.6875023,27.4622421 61.9199219,28.1887973 61.9199219,29.1367188 Z M57.7519531,29.1367188 C57.7519531,29.7747428 57.8730457,30.2552067 58.1152344,30.578125 C58.3574231,30.9010433 58.7193986,31.0625 59.2011719,31.0625 C60.1673225,31.0625 60.6503906,30.4205793 60.6503906,29.1367188 C60.6503906,27.850254 60.1699267,27.2070312 59.2089844,27.2070312 C58.7272111,27.2070312 58.3639335,27.369139 58.1191406,27.6933594 C57.8743477,28.0175797 57.7519531,28.4986947 57.7519531,29.1367188 Z" fill="#FFFFFF"></path>
        </g>
    </g>
</svg>