<?xml version="1.0" encoding="UTF-8"?>
<svg width="78px" height="57px" viewBox="0 0 78 57" version="1.1" xmlns="http://www.w3.org/2000/svg" xmlns:xlink="http://www.w3.org/1999/xlink">
    <!-- Generator: Sketch 48.2 (47327) - http://www.bohemiancoding.com/sketch -->
    <title>TURRIALBA</title>
    <desc>Created with Sketch.</desc>
    <defs>
        <polygon id="path-1" points="7.62968209e-05 0.0820178694 33.4861189 0.0820178694 33.4861189 22.7079038 7.62968209e-05 22.7079038"></polygon>
        <polygon id="path-3" points="0.0333598711 0.052173913 12.9893383 0.052173913 12.9893383 14.9285217 0.0333598711 14.9285217"></polygon>
        <rect id="path-5" x="0" y="38" width="70" height="14" rx="7"></rect>
        <filter x="-9.3%" y="-39.3%" width="118.6%" height="192.9%" filterUnits="objectBoundingBox" id="filter-6">
            <feOffset dx="0" dy="1" in="SourceAlpha" result="shadowOffsetOuter1"></feOffset>
            <feGaussianBlur stdDeviation="2" in="shadowOffsetOuter1" result="shadowBlurOuter1"></feGaussianBlur>
            <feColorMatrix values="0 0 0 0 0   0 0 0 0 0   0 0 0 0 0  0 0 0 0.5 0" type="matrix" in="shadowBlurOuter1"></feColorMatrix>
        </filter>
    </defs>
    <g id="Volcanes-fallas" stroke="none" stroke-width="1" fill="none" fill-rule="evenodd">
        <g id="TURRIALBA" transform="translate(4.000000, 0.000000)">
            <g id="Page-1-Copy-2" transform="translate(18.000000, 0.000000)">
                <g id="Group-3" transform="translate(0.000000, 16.003849)">
                    <mask id="mask-2" fill="white">
                        <use xlink:href="#path-1"></use>
                    </mask>
                    <g id="Clip-2"></g>
                    <path d="M33.4237819,21.9839835 C30.984388,17.6533168 28.544605,13.3226502 26.1052111,8.99159863 C24.4767435,6.10115189 22.848665,3.21070515 21.2201974,0.320258419 C21.1373149,0.173234364 20.9688259,0.0820178694 20.8003369,0.0820178694 L12.6860155,0.0820178694 C12.5171374,0.0820178694 12.3490375,0.173234364 12.2657658,0.320258419 C8.19829346,7.54137182 4.13043199,14.7628701 0.0625705113,21.9839835 C-0.116035612,22.3007395 0.108097562,22.7079423 0.482431094,22.7079423 L33.0039213,22.7079423 C33.3782548,22.7079423 33.602388,22.3007395 33.4237819,21.9839835" id="Fill-1" fill="#FF6D00" mask="url(#mask-2)"></path>
                </g>
                <g id="Group-8" transform="translate(10.000000, 0.000000)">
                    <mask id="mask-4" fill="white">
                        <use xlink:href="#path-3"></use>
                    </mask>
                    <g id="Clip-7"></g>
                    <path d="M12.2268683,4.77156522 C12.4600017,2.66591304 10.6406517,0.975913043 8.573435,1.52156522 C6.23516833,-1.35930435 1.35496833,0.257 1.576835,4.10243478 C-0.983298333,5.517 -0.214131667,9.54417391 2.81855167,9.61656522 C3.54156833,11.2974348 4.26436833,12.9783043 4.987385,14.6593913 C5.06040167,14.8289565 5.28226833,14.9285217 5.45516833,14.9285217 L7.55705167,14.9285217 C7.729735,14.9285217 7.95181833,14.8289565 8.024835,14.6593913 L9.799985,10.5317826 C12.6818683,10.4104783 13.9077683,6.95569565 12.2268683,4.77156522" id="Fill-6" fill="#FF6D00" mask="url(#mask-4)"></path>
                </g>
                <path d="M19.0045947,3.00099981 C19.9085797,3.03927535 20.5284089,4.03289936 20.2867958,5.1103336 C20.2103268,5.45195373 20.6431123,5.5977967 20.7195812,5.25639655 C21.0399969,3.82678342 20.197941,2.5016581 19.0045947,2.451064 C18.7157719,2.43874544 18.7161309,2.98868125 19.0045947,3.00099981" id="Fill-9" stroke="#FFFFFF" stroke-width="0.4" fill="#FFFFFF" transform="translate(19.788112, 3.950860) rotate(-12.000000) translate(-19.788112, -3.950860) "></path>
            </g>
            <path d="M31.4944112,21 L26,30.7371169" id="Line" stroke="#FFFFFF" stroke-linecap="round"></path>
            <path d="M31.4944112,26 L27.5,33.5" id="Line-Copy-2" stroke="#FFFFFF" stroke-linecap="round"></path>
            <path d="M42.5,29.5 L47.5,39.5" id="Line-Copy" stroke="#FFFFFF" stroke-linecap="round"></path>
            <path d="M40.5,25.5 L41.5,27.5" id="Line" stroke="#FFFFFF" stroke-linecap="round"></path>
            <g id="Rectangle-2-Copy-4">
                <use fill="black" fill-opacity="1" filter="url(#filter-6)" xlink:href="#path-5"></use>
                <use fill="#263238" fill-rule="evenodd" xlink:href="#path-5"></use>
            </g>
            <path d="M15.5898438,48 L14.3789062,48 L14.3789062,43.296875 L12.828125,43.296875 L12.828125,42.2890625 L17.140625,42.2890625 L17.140625,43.296875 L15.5898438,43.296875 L15.5898438,48 Z M22.6679688,42.2890625 L22.6679688,45.984375 C22.6679688,46.4062521 22.5735687,46.7760401 22.3847656,47.09375 C22.1959626,47.4114599 21.9231789,47.6549471 21.5664062,47.8242188 C21.2096336,47.9934904 20.7877629,48.078125 20.3007812,48.078125 C19.5664026,48.078125 18.9960958,47.8899758 18.5898438,47.5136719 C18.1835917,47.1373679 17.9804688,46.6223991 17.9804688,45.96875 L17.9804688,42.2890625 L19.1875,42.2890625 L19.1875,45.7851562 C19.1875,46.2252626 19.2760408,46.5481761 19.453125,46.7539062 C19.6302092,46.9596364 19.923175,47.0625 20.3320312,47.0625 C20.7278666,47.0625 21.0149731,46.9589854 21.1933594,46.7519531 C21.3717457,46.5449208 21.4609375,46.2200543 21.4609375,45.7773438 L21.4609375,42.2890625 L22.6679688,42.2890625 Z M25.2773438,44.8242188 L25.6679688,44.8242188 C26.0507832,44.8242188 26.3333324,44.7604173 26.515625,44.6328125 C26.6979176,44.5052077 26.7890625,44.3046889 26.7890625,44.03125 C26.7890625,43.7604153 26.6959645,43.5677089 26.5097656,43.453125 C26.3235668,43.3385411 26.0351582,43.28125 25.6445312,43.28125 L25.2773438,43.28125 L25.2773438,44.8242188 Z M25.2773438,45.8085938 L25.2773438,48 L24.0664062,48 L24.0664062,42.2890625 L25.7304688,42.2890625 C26.5065143,42.2890625 27.0807273,42.4303371 27.453125,42.7128906 C27.8255227,42.9954441 28.0117188,43.4244763 28.0117188,44 C28.0117188,44.3359392 27.9192718,44.6347643 27.734375,44.8964844 C27.5494782,45.1582044 27.2877621,45.3632805 26.9492188,45.5117188 C27.808598,46.7955793 28.3684883,47.6249981 28.6289062,48 L27.2851562,48 L25.921875,45.8085938 L25.2773438,45.8085938 Z M30.5585938,44.8242188 L30.9492188,44.8242188 C31.3320332,44.8242188 31.6145824,44.7604173 31.796875,44.6328125 C31.9791676,44.5052077 32.0703125,44.3046889 32.0703125,44.03125 C32.0703125,43.7604153 31.9772145,43.5677089 31.7910156,43.453125 C31.6048168,43.3385411 31.3164082,43.28125 30.9257812,43.28125 L30.5585938,43.28125 L30.5585938,44.8242188 Z M30.5585938,45.8085938 L30.5585938,48 L29.3476562,48 L29.3476562,42.2890625 L31.0117188,42.2890625 C31.7877643,42.2890625 32.3619773,42.4303371 32.734375,42.7128906 C33.1067727,42.9954441 33.2929688,43.4244763 33.2929688,44 C33.2929688,44.3359392 33.2005218,44.6347643 33.015625,44.8964844 C32.8307282,45.1582044 32.5690121,45.3632805 32.2304688,45.5117188 C33.089848,46.7955793 33.6497383,47.6249981 33.9101562,48 L32.5664062,48 L31.203125,45.8085938 L30.5585938,45.8085938 Z M34.6289062,48 L34.6289062,42.2890625 L35.8398438,42.2890625 L35.8398438,48 L34.6289062,48 Z M40.7734375,48 L40.359375,46.640625 L38.2773438,46.640625 L37.8632812,48 L36.5585938,48 L38.5742188,42.265625 L40.0546875,42.265625 L42.078125,48 L40.7734375,48 Z M40.0703125,45.625 C39.6874981,44.393223 39.4720054,43.6966154 39.4238281,43.5351562 C39.3756508,43.3736971 39.3411459,43.2460942 39.3203125,43.1523438 C39.2343746,43.4856787 38.9882833,44.3098893 38.5820312,45.625 L40.0703125,45.625 Z M42.796875,48 L42.796875,42.2890625 L44.0078125,42.2890625 L44.0078125,47 L46.3242188,47 L46.3242188,48 L42.796875,48 Z M47.3164062,42.2890625 L49.09375,42.2890625 C49.9036499,42.2890625 50.4915346,42.4042957 50.8574219,42.6347656 C51.2233091,42.8652355 51.40625,43.2317683 51.40625,43.734375 C51.40625,44.0755225 51.3261727,44.3554677 51.1660156,44.5742188 C51.0058586,44.7929698 50.7929701,44.9244789 50.5273438,44.96875 L50.5273438,45.0078125 C50.8893247,45.0885421 51.1503898,45.2395822 51.3105469,45.4609375 C51.4707039,45.6822928 51.5507812,45.9765607 51.5507812,46.34375 C51.5507812,46.8645859 51.3626321,47.2708319 50.9863281,47.5625 C50.6100242,47.8541681 50.0989616,48 49.453125,48 L47.3164062,48 L47.3164062,42.2890625 Z M48.5273438,44.5507812 L49.2304688,44.5507812 C49.5585954,44.5507812 49.7962232,44.5000005 49.9433594,44.3984375 C50.0904955,44.2968745 50.1640625,44.1289074 50.1640625,43.8945312 C50.1640625,43.6757802 50.0839852,43.5188807 49.9238281,43.4238281 C49.7636711,43.3287756 49.5104184,43.28125 49.1640625,43.28125 L48.5273438,43.28125 L48.5273438,44.5507812 Z M48.5273438,45.5117188 L48.5273438,47 L49.3164062,47 C49.6497412,47 49.8958325,46.9361986 50.0546875,46.8085938 C50.2135425,46.6809889 50.2929688,46.4856784 50.2929688,46.2226562 C50.2929688,45.7486955 49.9544305,45.5117188 49.2773438,45.5117188 L48.5273438,45.5117188 Z M56.0273438,48 L55.6132812,46.640625 L53.53125,46.640625 L53.1171875,48 L51.8125,48 L53.828125,42.265625 L55.3085938,42.265625 L57.3320312,48 L56.0273438,48 Z M55.3242187,45.625 C54.9414043,44.393223 54.7259117,43.6966154 54.6777344,43.5351562 C54.6295571,43.3736971 54.5950522,43.2460942 54.5742187,43.1523438 C54.4882808,43.4856787 54.2421895,44.3098893 53.8359375,45.625 L55.3242187,45.625 Z" fill="#FFFFFF"></path>
        </g>
    </g>
</svg>