<?xml version="1.0" encoding="UTF-8"?>
<svg width="88px" height="27px" viewBox="0 0 88 27" version="1.1" xmlns="http://www.w3.org/2000/svg" xmlns:xlink="http://www.w3.org/1999/xlink">
    <!-- Generator: Sketch 48.2 (47327) - http://www.bohemiancoding.com/sketch -->
    <title>agua_caliente</title>
    <desc>Created with Sketch.</desc>
    <defs>
        <path d="M30.6751405,6 C29.6123291,7.89393294 29,10.1192398 29,12.5 C29,15.3140148 29.8554731,17.9108487 31.2991578,20 L9,20 C5.13400675,20 2,16.8659932 2,13 C2,9.13400675 5.13400675,6 9,6 L30.6751405,6 Z M50.3248595,6 L72,6 C75.8659932,6 79,9.13400675 79,13 C79,16.8659932 75.8659932,20 72,20 L49.7008422,20 C51.1445269,17.9108487 52,15.3140148 52,12.5 C52,10.1192398 51.3876709,7.89393294 50.3248595,6 Z" id="path-1"></path>
        <filter x="-8.4%" y="-39.3%" width="116.9%" height="192.9%" filterUnits="objectBoundingBox" id="filter-2">
            <feOffset dx="0" dy="1" in="SourceAlpha" result="shadowOffsetOuter1"></feOffset>
            <feGaussianBlur stdDeviation="2" in="shadowOffsetOuter1" result="shadowBlurOuter1"></feGaussianBlur>
            <feColorMatrix values="0 0 0 0 0   0 0 0 0 0   0 0 0 0 0  0 0 0 0.5 0" type="matrix" in="shadowBlurOuter1"></feColorMatrix>
        </filter>
        <rect id="path-3" x="0" y="6" width="80" height="14" rx="7"></rect>
        <filter x="-8.1%" y="-39.3%" width="116.2%" height="192.9%" filterUnits="objectBoundingBox" id="filter-4">
            <feOffset dx="0" dy="1" in="SourceAlpha" result="shadowOffsetOuter1"></feOffset>
            <feGaussianBlur stdDeviation="2" in="shadowOffsetOuter1" result="shadowBlurOuter1"></feGaussianBlur>
            <feColorMatrix values="0 0 0 0 0   0 0 0 0 0   0 0 0 0 0  0 0 0 0.5 0" type="matrix" in="shadowBlurOuter1"></feColorMatrix>
        </filter>
    </defs>
    <g id="Volcanes-fallas" stroke="none" stroke-width="1" fill="none" fill-rule="evenodd">
        <g id="agua_caliente" transform="translate(4.000000, 1.000000)">
            <g id="ic_volcano_label-copy-18">
                <g id="Group-Copy-3">
                    <g id="Group-26-Copy-4" transform="translate(28.000000, 0.000000)" fill="#FF6D00" stroke="#FFFFFF" stroke-width="0.5">
                        <circle id="Oval-2-Copy-5" cx="12.5" cy="12.5" r="12.5"></circle>
                    </g>
                    <g id="Combined-Shape">
                        <use fill="black" fill-opacity="1" filter="url(#filter-2)" xlink:href="#path-1"></use>
                        <use fill="#263238" fill-rule="evenodd" xlink:href="#path-1"></use>
                    </g>
                    <g id="Rectangle-2-Copy-4">
                        <use fill="black" fill-opacity="1" filter="url(#filter-4)" xlink:href="#path-3"></use>
                        <use fill="#263238" fill-rule="evenodd" xlink:href="#path-3"></use>
                    </g>
                </g>
                <path d="M12.9140625,16 L12.5,14.640625 L10.4179688,14.640625 L10.0039062,16 L8.69921875,16 L10.7148438,10.265625 L12.1953125,10.265625 L14.21875,16 L12.9140625,16 Z M12.2109375,13.625 C11.8281231,12.393223 11.6126304,11.6966154 11.5644531,11.5351562 C11.5162758,11.3736971 11.4817709,11.2460942 11.4609375,11.1523438 C11.3749996,11.4856787 11.1289083,12.3098893 10.7226562,13.625 L12.2109375,13.625 Z M16.9453125,12.7929688 L19.2109375,12.7929688 L19.2109375,15.7539062 C18.8437482,15.8736985 18.4980485,15.9576821 18.1738281,16.0058594 C17.8496078,16.0540367 17.5182309,16.078125 17.1796875,16.078125 C16.317704,16.078125 15.6595075,15.8248723 15.2050781,15.3183594 C14.7506488,14.8118464 14.5234375,14.0846402 14.5234375,13.1367188 C14.5234375,12.2148391 14.7871067,11.4960963 15.3144531,10.9804688 C15.8417995,10.4648412 16.572912,10.2070312 17.5078125,10.2070312 C18.0937529,10.2070312 18.6588514,10.3242176 19.203125,10.5585938 L18.8007812,11.5273438 C18.3841125,11.3190094 17.9505231,11.2148438 17.5,11.2148438 C16.9765599,11.2148438 16.5572932,11.3906232 16.2421875,11.7421875 C15.9270818,12.0937518 15.7695312,12.5664033 15.7695312,13.1601562 C15.7695312,13.779951 15.8964831,14.2532536 16.1503906,14.5800781 C16.4042981,14.9069027 16.7734351,15.0703125 17.2578125,15.0703125 C17.5104179,15.0703125 17.7669258,15.0442711 18.0273438,14.9921875 L18.0273438,13.8007812 L16.9453125,13.8007812 L16.9453125,12.7929688 Z M25.21875,10.2890625 L25.21875,13.984375 C25.21875,14.4062521 25.1243499,14.7760401 24.9355469,15.09375 C24.7467438,15.4114599 24.4739601,15.6549471 24.1171875,15.8242188 C23.7604149,15.9934904 23.3385441,16.078125 22.8515625,16.078125 C22.1171838,16.078125 21.546877,15.8899758 21.140625,15.5136719 C20.734373,15.1373679 20.53125,14.6223991 20.53125,13.96875 L20.53125,10.2890625 L21.7382812,10.2890625 L21.7382812,13.7851562 C21.7382812,14.2252626 21.826822,14.5481761 22.0039062,14.7539062 C22.1809905,14.9596364 22.4739563,15.0625 22.8828125,15.0625 C23.2786478,15.0625 23.5657543,14.9589854 23.7441406,14.7519531 C23.9225269,14.5449208 24.0117188,14.2200543 24.0117188,13.7773438 L24.0117188,10.2890625 L25.21875,10.2890625 Z M30.0351563,16 L29.6210938,14.640625 L27.5390625,14.640625 L27.125,16 L25.8203125,16 L27.8359375,10.265625 L29.3164063,10.265625 L31.3398438,16 L30.0351563,16 Z M29.3320312,13.625 C28.9492168,12.393223 28.7337242,11.6966154 28.6855469,11.5351562 C28.6373696,11.3736971 28.6028647,11.2460942 28.5820312,11.1523438 C28.4960933,11.4856787 28.250002,12.3098893 27.84375,13.625 L29.3320312,13.625 Z M36.5625,11.2148438 C36.1067686,11.2148438 35.7539075,11.386066 35.5039062,11.7285156 C35.253905,12.0709653 35.1289062,12.548174 35.1289062,13.1601562 C35.1289062,14.4336001 35.6067661,15.0703125 36.5625,15.0703125 C36.9635437,15.0703125 37.4492159,14.9700531 38.0195312,14.7695312 L38.0195312,15.7851562 C37.5507789,15.9804697 37.0273466,16.078125 36.4492188,16.078125 C35.6184854,16.078125 34.9830751,15.8261744 34.5429688,15.3222656 C34.1028624,14.8183569 33.8828125,14.0950568 33.8828125,13.1523438 C33.8828125,12.5585908 33.9908843,12.0384137 34.2070312,11.5917969 C34.4231782,11.1451801 34.7337219,10.8027356 35.1386719,10.5644531 C35.5436218,10.3261707 36.0182264,10.2070312 36.5625,10.2070312 C37.1171903,10.2070312 37.6744764,10.3411445 38.234375,10.609375 L37.84375,11.59375 C37.6302073,11.492187 37.4153657,11.4036462 37.1992188,11.328125 C36.9830718,11.2526038 36.7708344,11.2148438 36.5625,11.2148438 Z M42.7304688,16 L42.3164062,14.640625 L40.234375,14.640625 L39.8203125,16 L38.515625,16 L40.53125,10.265625 L42.0117188,10.265625 L44.0351562,16 L42.7304688,16 Z M42.0273438,13.625 C41.6445293,12.393223 41.4290367,11.6966154 41.3808594,11.5351562 C41.3326821,11.3736971 41.2981772,11.2460942 41.2773438,11.1523438 C41.1914058,11.4856787 40.9453145,12.3098893 40.5390625,13.625 L42.0273438,13.625 Z M44.7539063,16 L44.7539063,10.2890625 L45.9648438,10.2890625 L45.9648438,15 L48.28125,15 L48.28125,16 L44.7539063,16 Z M49.2734375,16 L49.2734375,10.2890625 L50.484375,10.2890625 L50.484375,16 L49.2734375,16 Z M55.2109375,16 L51.921875,16 L51.921875,10.2890625 L55.2109375,10.2890625 L55.2109375,11.28125 L53.1328125,11.28125 L53.1328125,12.5351562 L55.0664062,12.5351562 L55.0664062,13.5273438 L53.1328125,13.5273438 L53.1328125,15 L55.2109375,15 L55.2109375,16 Z M61.46875,16 L59.9296875,16 L57.4453125,11.6796875 L57.4101563,11.6796875 C57.4596357,12.4427121 57.484375,12.9869775 57.484375,13.3125 L57.484375,16 L56.4023438,16 L56.4023438,10.2890625 L57.9296875,10.2890625 L60.4101563,14.5664062 L60.4375,14.5664062 C60.3984373,13.824215 60.3789063,13.2994807 60.3789063,12.9921875 L60.3789063,10.2890625 L61.46875,10.2890625 L61.46875,16 Z M65.109375,16 L63.8984375,16 L63.8984375,11.296875 L62.3476562,11.296875 L62.3476562,10.2890625 L66.6601562,10.2890625 L66.6601562,11.296875 L65.109375,11.296875 L65.109375,16 Z M70.828125,16 L67.5390625,16 L67.5390625,10.2890625 L70.828125,10.2890625 L70.828125,11.28125 L68.75,11.28125 L68.75,12.5351562 L70.6835938,12.5351562 L70.6835938,13.5273438 L68.75,13.5273438 L68.75,15 L70.828125,15 L70.828125,16 Z" id="agua-caliente" fill="#FFFFFF"></path>
            </g>
        </g>
    </g>
</svg>