<?xml version="1.0" encoding="UTF-8"?>
<svg width="65px" height="27px" viewBox="0 0 65 27" version="1.1" xmlns="http://www.w3.org/2000/svg" xmlns:xlink="http://www.w3.org/1999/xlink">
    <!-- Generator: Sketch 48.2 (47327) - http://www.bohemiancoding.com/sketch -->
    <title>alajuela</title>
    <desc>Created with Sketch.</desc>
    <defs>
        <path d="M17.8208049,6 C16.6655751,7.89393294 16,10.1192398 16,12.5 C16,15.3140148 16.9298621,17.9108487 18.4990845,20 L7,20 C3.13400675,20 4.73447626e-16,16.8659932 0,13 C-4.73447626e-16,9.13400675 3.13400675,6 7,6 L17.8208049,6 Z M39.1791951,6 L50,6 C53.8659932,6 57,9.13400675 57,13 C57,16.8659932 53.8659932,20 50,20 L38.5009155,20 C40.0701379,17.9108487 41,15.3140148 41,12.5 C41,10.1192398 40.3344249,7.89393294 39.1791951,6 Z" id="path-1"></path>
        <filter x="-11.4%" y="-39.3%" width="122.8%" height="192.9%" filterUnits="objectBoundingBox" id="filter-2">
            <feOffset dx="0" dy="1" in="SourceAlpha" result="shadowOffsetOuter1"></feOffset>
            <feGaussianBlur stdDeviation="2" in="shadowOffsetOuter1" result="shadowBlurOuter1"></feGaussianBlur>
            <feColorMatrix values="0 0 0 0 0   0 0 0 0 0   0 0 0 0 0  0 0 0 0.5 0" type="matrix" in="shadowBlurOuter1"></feColorMatrix>
        </filter>
    </defs>
    <g id="Volcanes-fallas" stroke="none" stroke-width="1" fill="none" fill-rule="evenodd">
        <g id="alajuela" transform="translate(4.000000, 1.000000)">
            <g id="ic_volcano_label-copy-19">
                <g id="Group-Copy-3" transform="translate(16.000000, 0.000000)">
                    <g id="Group-26-Copy-4"></g>
                </g>
                <circle id="Oval-2-Copy-5" stroke="#FFFFFF" stroke-width="0.5" fill="#FF6D00" cx="28.5" cy="12.5" r="12.5"></circle>
                <g id="Combined-Shape">
                    <use fill="black" fill-opacity="1" filter="url(#filter-2)" xlink:href="#path-1"></use>
                    <use fill="#263238" fill-rule="evenodd" xlink:href="#path-1"></use>
                </g>
                <rect id="Rectangle-2-Copy-4" fill="#263238" x="0" y="6" width="57" height="14" rx="7"></rect>
            </g>
            <path d="M12.8085938,16 L12.3945312,14.640625 L10.3125,14.640625 L9.8984375,16 L8.59375,16 L10.609375,10.265625 L12.0898438,10.265625 L14.1132812,16 L12.8085938,16 Z M12.1054688,13.625 C11.7226543,12.393223 11.5071617,11.6966154 11.4589844,11.5351562 C11.4108071,11.3736971 11.3763022,11.2460942 11.3554688,11.1523438 C11.2695308,11.4856787 11.0234395,12.3098893 10.6171875,13.625 L12.1054688,13.625 Z M14.8320312,16 L14.8320312,10.2890625 L16.0429688,10.2890625 L16.0429688,15 L18.359375,15 L18.359375,16 L14.8320312,16 Z M22.8476562,16 L22.4335938,14.640625 L20.3515625,14.640625 L19.9375,16 L18.6328125,16 L20.6484375,10.265625 L22.1289062,10.265625 L24.1523438,16 L22.8476562,16 Z M22.1445312,13.625 C21.7617168,12.393223 21.5462242,11.6966154 21.4980469,11.5351562 C21.4498696,11.3736971 21.4153647,11.2460942 21.3945312,11.1523438 C21.3085933,11.4856787 21.062502,12.3098893 20.65625,13.625 L22.1445312,13.625 Z M25.3125,17.6796875 C25.0390611,17.6796875 24.8007823,17.651042 24.5976562,17.59375 L24.5976562,16.5859375 C24.8059906,16.6380211 24.9960929,16.6640625 25.1679688,16.6640625 C25.4335951,16.6640625 25.6236973,16.581381 25.7382812,16.4160156 C25.8528652,16.2506502 25.9101562,15.9921893 25.9101562,15.640625 L25.9101562,10.2890625 L27.1210938,10.2890625 L27.1210938,15.6328125 C27.1210938,16.2994825 26.9687515,16.8072899 26.6640625,17.15625 C26.3593735,17.5052101 25.9088571,17.6796875 25.3125,17.6796875 Z M33.2070312,10.2890625 L33.2070312,13.984375 C33.2070312,14.4062521 33.1126312,14.7760401 32.9238281,15.09375 C32.7350251,15.4114599 32.4622414,15.6549471 32.1054688,15.8242188 C31.7486961,15.9934904 31.3268254,16.078125 30.8398438,16.078125 C30.1054651,16.078125 29.5351583,15.8899758 29.1289062,15.5136719 C28.7226542,15.1373679 28.5195312,14.6223991 28.5195312,13.96875 L28.5195312,10.2890625 L29.7265625,10.2890625 L29.7265625,13.7851562 C29.7265625,14.2252626 29.8151033,14.5481761 29.9921875,14.7539062 C30.1692717,14.9596364 30.4622375,15.0625 30.8710938,15.0625 C31.2669291,15.0625 31.5540356,14.9589854 31.7324219,14.7519531 C31.9108082,14.5449208 32,14.2200543 32,13.7773438 L32,10.2890625 L33.2070312,10.2890625 Z M37.8945312,16 L34.6054688,16 L34.6054688,10.2890625 L37.8945312,10.2890625 L37.8945312,11.28125 L35.8164062,11.28125 L35.8164062,12.5351562 L37.75,12.5351562 L37.75,13.5273438 L35.8164062,13.5273438 L35.8164062,15 L37.8945312,15 L37.8945312,16 Z M39.0859375,16 L39.0859375,10.2890625 L40.296875,10.2890625 L40.296875,15 L42.6132812,15 L42.6132812,16 L39.0859375,16 Z M47.1015625,16 L46.6875,14.640625 L44.6054688,14.640625 L44.1914062,16 L42.8867188,16 L44.9023438,10.265625 L46.3828125,10.265625 L48.40625,16 L47.1015625,16 Z M46.3984375,13.625 C46.0156231,12.393223 45.8001304,11.6966154 45.7519531,11.5351562 C45.7037758,11.3736971 45.6692709,11.2460942 45.6484375,11.1523438 C45.5624996,11.4856787 45.3164083,12.3098893 44.9101562,13.625 L46.3984375,13.625 Z" id="Alajuela" fill="#FFFFFF"></path>
        </g>
    </g>
</svg>