<?xml version="1.0" encoding="UTF-8"?>
<svg width="88px" height="27px" viewBox="0 0 88 27" version="1.1" xmlns="http://www.w3.org/2000/svg" xmlns:xlink="http://www.w3.org/1999/xlink">
    <!-- Generator: Sketch 48.2 (47327) - http://www.bohemiancoding.com/sketch -->
    <title>alto_grande</title>
    <desc>Created with Sketch.</desc>
    <defs>
        <path d="M30.6751405,6 C29.6123291,7.89393294 29,10.1192398 29,12.5 C29,15.3140148 29.8554731,17.9108487 31.2991578,20 L9,20 C5.13400675,20 2,16.8659932 2,13 C2,9.13400675 5.13400675,6 9,6 L30.6751405,6 Z M50.3248595,6 L72,6 C75.8659932,6 79,9.13400675 79,13 C79,16.8659932 75.8659932,20 72,20 L49.7008422,20 C51.1445269,17.9108487 52,15.3140148 52,12.5 C52,10.1192398 51.3876709,7.89393294 50.3248595,6 Z" id="path-1"></path>
        <filter x="-8.4%" y="-39.3%" width="116.9%" height="192.9%" filterUnits="objectBoundingBox" id="filter-2">
            <feOffset dx="0" dy="1" in="SourceAlpha" result="shadowOffsetOuter1"></feOffset>
            <feGaussianBlur stdDeviation="2" in="shadowOffsetOuter1" result="shadowBlurOuter1"></feGaussianBlur>
            <feColorMatrix values="0 0 0 0 0   0 0 0 0 0   0 0 0 0 0  0 0 0 0.5 0" type="matrix" in="shadowBlurOuter1"></feColorMatrix>
        </filter>
        <rect id="path-3" x="0" y="6" width="80" height="14" rx="7"></rect>
        <filter x="-8.1%" y="-39.3%" width="116.2%" height="192.9%" filterUnits="objectBoundingBox" id="filter-4">
            <feOffset dx="0" dy="1" in="SourceAlpha" result="shadowOffsetOuter1"></feOffset>
            <feGaussianBlur stdDeviation="2" in="shadowOffsetOuter1" result="shadowBlurOuter1"></feGaussianBlur>
            <feColorMatrix values="0 0 0 0 0   0 0 0 0 0   0 0 0 0 0  0 0 0 0.5 0" type="matrix" in="shadowBlurOuter1"></feColorMatrix>
        </filter>
    </defs>
    <g id="Volcanes-fallas" stroke="none" stroke-width="1" fill="none" fill-rule="evenodd">
        <g id="alto_grande" transform="translate(4.000000, 1.000000)">
            <g id="ic_volcano_label-copy-18">
                <g id="Group-Copy-3">
                    <g id="Group-26-Copy-4" transform="translate(28.000000, 0.000000)" fill="#FF6D00" stroke="#FFFFFF" stroke-width="0.5">
                        <circle id="Oval-2-Copy-5" cx="12.5" cy="12.5" r="12.5"></circle>
                    </g>
                    <g id="Combined-Shape">
                        <use fill="black" fill-opacity="1" filter="url(#filter-2)" xlink:href="#path-1"></use>
                        <use fill="#263238" fill-rule="evenodd" xlink:href="#path-1"></use>
                    </g>
                    <g id="Rectangle-2-Copy-4">
                        <use fill="black" fill-opacity="1" filter="url(#filter-4)" xlink:href="#path-3"></use>
                        <use fill="#263238" fill-rule="evenodd" xlink:href="#path-3"></use>
                    </g>
                </g>
                <path d="M16.0664062,16 L15.6523438,14.640625 L13.5703125,14.640625 L13.15625,16 L11.8515625,16 L13.8671875,10.265625 L15.3476562,10.265625 L17.3710938,16 L16.0664062,16 Z M15.3632812,13.625 C14.9804668,12.393223 14.7649742,11.6966154 14.7167969,11.5351562 C14.6686196,11.3736971 14.6341147,11.2460942 14.6132812,11.1523438 C14.5273433,11.4856787 14.281252,12.3098893 13.875,13.625 L15.3632812,13.625 Z M18.0898438,16 L18.0898438,10.2890625 L19.3007812,10.2890625 L19.3007812,15 L21.6171875,15 L21.6171875,16 L18.0898438,16 Z M24.6523438,16 L23.4414062,16 L23.4414062,11.296875 L21.890625,11.296875 L21.890625,10.2890625 L26.203125,10.2890625 L26.203125,11.296875 L24.6523438,11.296875 L24.6523438,16 Z M32.1054688,13.1367188 C32.1054688,14.082036 31.8710961,14.8085912 31.4023438,15.3164062 C30.9335914,15.8242213 30.2617231,16.078125 29.3867188,16.078125 C28.5117144,16.078125 27.8398461,15.8242213 27.3710938,15.3164062 C26.9023414,14.8085912 26.6679688,14.0794318 26.6679688,13.1289062 C26.6679688,12.1783807 26.9029924,11.4524765 27.3730469,10.9511719 C27.8431013,10.4498673 28.5169227,10.1992188 29.3945312,10.1992188 C30.2721398,10.1992188 30.9433571,10.4518204 31.4082031,10.9570312 C31.8730492,11.4622421 32.1054688,12.1887973 32.1054688,13.1367188 Z M27.9375,13.1367188 C27.9375,13.7747428 28.0585925,14.2552067 28.3007812,14.578125 C28.54297,14.9010433 28.9049455,15.0625 29.3867188,15.0625 C30.3528694,15.0625 30.8359375,14.4205793 30.8359375,13.1367188 C30.8359375,11.850254 30.3554736,11.2070312 29.3945312,11.2070312 C28.912758,11.2070312 28.5494804,11.369139 28.3046875,11.6933594 C28.0598946,12.0175797 27.9375,12.4986947 27.9375,13.1367188 Z M37.5351562,12.7929688 L39.8007812,12.7929688 L39.8007812,15.7539062 C39.4335919,15.8736985 39.0878922,15.9576821 38.7636719,16.0058594 C38.4394515,16.0540367 38.1080746,16.078125 37.7695312,16.078125 C36.9075478,16.078125 36.2493512,15.8248723 35.7949219,15.3183594 C35.3404925,14.8118464 35.1132812,14.0846402 35.1132812,13.1367188 C35.1132812,12.2148391 35.3769505,11.4960963 35.9042969,10.9804688 C36.4316433,10.4648412 37.1627557,10.2070312 38.0976562,10.2070312 C38.6835967,10.2070312 39.2486952,10.3242176 39.7929688,10.5585938 L39.390625,11.5273438 C38.9739563,11.3190094 38.5403668,11.2148438 38.0898438,11.2148438 C37.5664036,11.2148438 37.147137,11.3906232 36.8320312,11.7421875 C36.5169255,12.0937518 36.359375,12.5664033 36.359375,13.1601562 C36.359375,13.779951 36.4863269,14.2532536 36.7402344,14.5800781 C36.9941419,14.9069027 37.3632788,15.0703125 37.8476562,15.0703125 C38.1002617,15.0703125 38.3567695,15.0442711 38.6171875,14.9921875 L38.6171875,13.8007812 L37.5351562,13.8007812 L37.5351562,12.7929688 Z M42.3710938,12.8242188 L42.7617188,12.8242188 C43.1445332,12.8242188 43.4270824,12.7604173 43.609375,12.6328125 C43.7916676,12.5052077 43.8828125,12.3046889 43.8828125,12.03125 C43.8828125,11.7604153 43.7897145,11.5677089 43.6035156,11.453125 C43.4173168,11.3385411 43.1289082,11.28125 42.7382812,11.28125 L42.3710938,11.28125 L42.3710938,12.8242188 Z M42.3710938,13.8085938 L42.3710938,16 L41.1601563,16 L41.1601563,10.2890625 L42.8242188,10.2890625 C43.6002643,10.2890625 44.1744773,10.4303371 44.546875,10.7128906 C44.9192727,10.9954441 45.1054688,11.4244763 45.1054688,12 C45.1054688,12.3359392 45.0130218,12.6347643 44.828125,12.8964844 C44.6432282,13.1582044 44.3815121,13.3632805 44.0429688,13.5117188 C44.902348,14.7955793 45.4622383,15.6249981 45.7226563,16 L44.3789063,16 L43.015625,13.8085938 L42.3710938,13.8085938 Z M49.9375,16 L49.5234375,14.640625 L47.4414063,14.640625 L47.0273438,16 L45.7226563,16 L47.7382813,10.265625 L49.21875,10.265625 L51.2421875,16 L49.9375,16 Z M49.234375,13.625 C48.8515606,12.393223 48.6360679,11.6966154 48.5878906,11.5351562 C48.5397133,11.3736971 48.5052084,11.2460942 48.484375,11.1523438 C48.3984371,11.4856787 48.1523458,12.3098893 47.7460938,13.625 L49.234375,13.625 Z M57.0273438,16 L55.4882812,16 L53.0039062,11.6796875 L52.96875,11.6796875 C53.0182294,12.4427121 53.0429688,12.9869775 53.0429688,13.3125 L53.0429688,16 L51.9609375,16 L51.9609375,10.2890625 L53.4882812,10.2890625 L55.96875,14.5664062 L55.9960938,14.5664062 C55.9570311,13.824215 55.9375,13.2994807 55.9375,12.9921875 L55.9375,10.2890625 L57.0273438,10.2890625 L57.0273438,16 Z M63.203125,13.0898438 C63.203125,14.0299526 62.9355496,14.7499975 62.4003906,15.25 C61.8652317,15.7500025 61.092453,16 60.0820313,16 L58.4648438,16 L58.4648438,10.2890625 L60.2578125,10.2890625 C61.1901088,10.2890625 61.9140599,10.5351538 62.4296875,11.0273438 C62.9453151,11.5195337 63.203125,12.2070268 63.203125,13.0898438 Z M61.9453125,13.1210938 C61.9453125,11.8945251 61.4036512,11.28125 60.3203125,11.28125 L59.6757812,11.28125 L59.6757812,15 L60.1953125,15 C61.361985,15 61.9453125,14.3737042 61.9453125,13.1210938 Z M67.6757812,16 L64.3867188,16 L64.3867188,10.2890625 L67.6757812,10.2890625 L67.6757812,11.28125 L65.5976562,11.28125 L65.5976562,12.5351562 L67.53125,12.5351562 L67.53125,13.5273438 L65.5976562,13.5273438 L65.5976562,15 L67.6757812,15 L67.6757812,16 Z" id="alto-grande" fill="#FFFFFF"></path>
            </g>
        </g>
    </g>
</svg>