<?xml version="1.0" encoding="UTF-8"?>
<svg width="65px" height="27px" viewBox="0 0 65 27" version="1.1" xmlns="http://www.w3.org/2000/svg" xmlns:xlink="http://www.w3.org/1999/xlink">
    <!-- Generator: Sketch 48.2 (47327) - http://www.bohemiancoding.com/sketch -->
    <title>alturas</title>
    <desc>Created with Sketch.</desc>
    <defs>
        <path d="M17.8208049,6 C16.6655751,7.89393294 16,10.1192398 16,12.5 C16,15.3140148 16.9298621,17.9108487 18.4990845,20 L7,20 C3.13400675,20 4.73447626e-16,16.8659932 0,13 C-4.73447626e-16,9.13400675 3.13400675,6 7,6 L17.8208049,6 Z M39.1791951,6 L50,6 C53.8659932,6 57,9.13400675 57,13 C57,16.8659932 53.8659932,20 50,20 L38.5009155,20 C40.0701379,17.9108487 41,15.3140148 41,12.5 C41,10.1192398 40.3344249,7.89393294 39.1791951,6 Z" id="path-1"></path>
        <filter x="-11.4%" y="-39.3%" width="122.8%" height="192.9%" filterUnits="objectBoundingBox" id="filter-2">
            <feOffset dx="0" dy="1" in="SourceAlpha" result="shadowOffsetOuter1"></feOffset>
            <feGaussianBlur stdDeviation="2" in="shadowOffsetOuter1" result="shadowBlurOuter1"></feGaussianBlur>
            <feColorMatrix values="0 0 0 0 0   0 0 0 0 0   0 0 0 0 0  0 0 0 0.5 0" type="matrix" in="shadowBlurOuter1"></feColorMatrix>
        </filter>
    </defs>
    <g id="Volcanes-fallas" stroke="none" stroke-width="1" fill="none" fill-rule="evenodd">
        <g id="alturas" transform="translate(4.000000, 1.000000)">
            <g id="ic_volcano_label-copy-19">
                <g id="Group-Copy-3" transform="translate(16.000000, 0.000000)">
                    <g id="Group-26-Copy-4"></g>
                </g>
                <circle id="Oval-2-Copy-5" stroke="#FFFFFF" stroke-width="0.5" fill="#FF6D00" cx="28.5" cy="12.5" r="12.5"></circle>
                <g id="Combined-Shape">
                    <use fill="black" fill-opacity="1" filter="url(#filter-2)" xlink:href="#path-1"></use>
                    <use fill="#263238" fill-rule="evenodd" xlink:href="#path-1"></use>
                </g>
                <rect id="Rectangle-2-Copy-4" fill="#263238" x="0" y="6" width="57" height="14" rx="7"></rect>
            </g>
            <path d="M14.8320312,16 L14.4179688,14.640625 L12.3359375,14.640625 L11.921875,16 L10.6171875,16 L12.6328125,10.265625 L14.1132812,10.265625 L16.1367188,16 L14.8320312,16 Z M14.1289062,13.625 C13.7460918,12.393223 13.5305992,11.6966154 13.4824219,11.5351562 C13.4342446,11.3736971 13.3997397,11.2460942 13.3789062,11.1523438 C13.2929683,11.4856787 13.046877,12.3098893 12.640625,13.625 L14.1289062,13.625 Z M16.8554688,16 L16.8554688,10.2890625 L18.0664062,10.2890625 L18.0664062,15 L20.3828125,15 L20.3828125,16 L16.8554688,16 Z M23.4179688,16 L22.2070312,16 L22.2070312,11.296875 L20.65625,11.296875 L20.65625,10.2890625 L24.96875,10.2890625 L24.96875,11.296875 L23.4179688,11.296875 L23.4179688,16 Z M30.4960938,10.2890625 L30.4960938,13.984375 C30.4960938,14.4062521 30.4016937,14.7760401 30.2128906,15.09375 C30.0240876,15.4114599 29.7513039,15.6549471 29.3945312,15.8242188 C29.0377586,15.9934904 28.6158879,16.078125 28.1289062,16.078125 C27.3945276,16.078125 26.8242208,15.8899758 26.4179688,15.5136719 C26.0117167,15.1373679 25.8085938,14.6223991 25.8085938,13.96875 L25.8085938,10.2890625 L27.015625,10.2890625 L27.015625,13.7851562 C27.015625,14.2252626 27.1041658,14.5481761 27.28125,14.7539062 C27.4583342,14.9596364 27.7513,15.0625 28.1601562,15.0625 C28.5559916,15.0625 28.8430981,14.9589854 29.0214844,14.7519531 C29.1998707,14.5449208 29.2890625,14.2200543 29.2890625,13.7773438 L29.2890625,10.2890625 L30.4960938,10.2890625 Z M33.1054688,12.8242188 L33.4960938,12.8242188 C33.8789082,12.8242188 34.1614574,12.7604173 34.34375,12.6328125 C34.5260426,12.5052077 34.6171875,12.3046889 34.6171875,12.03125 C34.6171875,11.7604153 34.5240895,11.5677089 34.3378906,11.453125 C34.1516918,11.3385411 33.8632832,11.28125 33.4726562,11.28125 L33.1054688,11.28125 L33.1054688,12.8242188 Z M33.1054688,13.8085938 L33.1054688,16 L31.8945313,16 L31.8945313,10.2890625 L33.5585938,10.2890625 C34.3346393,10.2890625 34.9088523,10.4303371 35.28125,10.7128906 C35.6536477,10.9954441 35.8398438,11.4244763 35.8398438,12 C35.8398438,12.3359392 35.7473968,12.6347643 35.5625,12.8964844 C35.3776032,13.1582044 35.1158871,13.3632805 34.7773438,13.5117188 C35.636723,14.7955793 36.1966133,15.6249981 36.4570312,16 L35.1132812,16 L33.75,13.8085938 L33.1054688,13.8085938 Z M40.671875,16 L40.2578125,14.640625 L38.1757812,14.640625 L37.7617188,16 L36.4570312,16 L38.4726562,10.265625 L39.953125,10.265625 L41.9765625,16 L40.671875,16 Z M39.96875,13.625 C39.5859356,12.393223 39.3704429,11.6966154 39.3222656,11.5351562 C39.2740883,11.3736971 39.2395834,11.2460942 39.21875,11.1523438 C39.1328121,11.4856787 38.8867208,12.3098893 38.4804688,13.625 L39.96875,13.625 Z M46.0664062,14.4140625 C46.0664062,14.9296901 45.8808612,15.335936 45.5097656,15.6328125 C45.13867,15.929689 44.6223991,16.078125 43.9609375,16.078125 C43.3515595,16.078125 42.8125023,15.9635428 42.34375,15.734375 L42.34375,14.609375 C42.7291686,14.7812509 43.0553372,14.9023434 43.3222656,14.9726562 C43.589194,15.0429691 43.8333322,15.078125 44.0546875,15.078125 C44.3203138,15.078125 44.5240878,15.0273443 44.6660156,14.9257812 C44.8079434,14.8242182 44.8789062,14.6731781 44.8789062,14.4726562 C44.8789062,14.3606765 44.8476566,14.2610681 44.7851562,14.1738281 C44.7226559,14.0865881 44.63086,14.0026046 44.5097656,13.921875 C44.3886713,13.8411454 44.1419289,13.7122405 43.7695312,13.5351562 C43.4205712,13.3710929 43.158855,13.2135424 42.984375,13.0625 C42.809895,12.9114576 42.6705734,12.7356781 42.5664062,12.5351562 C42.4622391,12.3346344 42.4101562,12.1002618 42.4101562,11.8320312 C42.4101562,11.3268204 42.5813785,10.9296889 42.9238281,10.640625 C43.2662778,10.3515611 43.7395803,10.2070312 44.34375,10.2070312 C44.6406265,10.2070312 44.9238268,10.2421871 45.1933594,10.3125 C45.462892,10.3828129 45.7447902,10.4817702 46.0390625,10.609375 L45.6484375,11.5507812 C45.3437485,11.4257806 45.0917979,11.3385419 44.8925781,11.2890625 C44.6933584,11.2395831 44.4973968,11.2148438 44.3046875,11.2148438 C44.0755197,11.2148438 43.8997402,11.2682286 43.7773438,11.375 C43.6549473,11.4817714 43.59375,11.6210929 43.59375,11.7929688 C43.59375,11.8997401 43.6184893,11.9928381 43.6679688,12.0722656 C43.7174482,12.1516931 43.7962234,12.2285153 43.9042969,12.3027344 C44.0123703,12.3769535 44.2682271,12.5104157 44.671875,12.703125 C45.2057318,12.9583346 45.5716136,13.2141914 45.7695312,13.4707031 C45.9674489,13.7272148 46.0664062,14.0416648 46.0664062,14.4140625 Z" fill="#FFFFFF"></path>
        </g>
    </g>
</svg>