<?xml version="1.0" encoding="UTF-8"?>
<svg width="65px" height="27px" viewBox="0 0 65 27" version="1.1" xmlns="http://www.w3.org/2000/svg" xmlns:xlink="http://www.w3.org/1999/xlink">
    <!-- Generator: Sketch 48.2 (47327) - http://www.bohemiancoding.com/sketch -->
    <title>angel</title>
    <desc>Created with Sketch.</desc>
    <defs>
        <path d="M17.8208049,6 C16.6655751,7.89393294 16,10.1192398 16,12.5 C16,15.3140148 16.9298621,17.9108487 18.4990845,20 L7,20 C3.13400675,20 4.73447626e-16,16.8659932 0,13 C-4.73447626e-16,9.13400675 3.13400675,6 7,6 L17.8208049,6 Z M39.1791951,6 L50,6 C53.8659932,6 57,9.13400675 57,13 C57,16.8659932 53.8659932,20 50,20 L38.5009155,20 C40.0701379,17.9108487 41,15.3140148 41,12.5 C41,10.1192398 40.3344249,7.89393294 39.1791951,6 Z" id="path-1"></path>
        <filter x="-11.4%" y="-39.3%" width="122.8%" height="192.9%" filterUnits="objectBoundingBox" id="filter-2">
            <feOffset dx="0" dy="1" in="SourceAlpha" result="shadowOffsetOuter1"></feOffset>
            <feGaussianBlur stdDeviation="2" in="shadowOffsetOuter1" result="shadowBlurOuter1"></feGaussianBlur>
            <feColorMatrix values="0 0 0 0 0   0 0 0 0 0   0 0 0 0 0  0 0 0 0.5 0" type="matrix" in="shadowBlurOuter1"></feColorMatrix>
        </filter>
    </defs>
    <g id="Volcanes-fallas" stroke="none" stroke-width="1" fill="none" fill-rule="evenodd">
        <g id="angel" transform="translate(4.000000, 1.000000)">
            <g id="ic_volcano_label-copy-19">
                <g id="Group-Copy-3" transform="translate(16.000000, 0.000000)">
                    <g id="Group-26-Copy-4"></g>
                </g>
                <circle id="Oval-2-Copy-5" stroke="#FFFFFF" stroke-width="0.5" fill="#FF6D00" cx="28.5" cy="12.5" r="12.5"></circle>
                <g id="Combined-Shape">
                    <use fill="black" fill-opacity="1" filter="url(#filter-2)" xlink:href="#path-1"></use>
                    <use fill="#263238" fill-rule="evenodd" xlink:href="#path-1"></use>
                </g>
                <rect id="Rectangle-2-Copy-4" fill="#263238" x="0" y="6" width="57" height="14" rx="7"></rect>
            </g>
            <path d="M19.3066406,16 L18.8925781,14.640625 L16.8105469,14.640625 L16.3964844,16 L15.0917969,16 L17.1074219,10.265625 L18.5878906,10.265625 L20.6113281,16 L19.3066406,16 Z M18.6035156,13.625 C18.2207012,12.393223 18.0052086,11.6966154 17.9570312,11.5351562 C17.9088539,11.3736971 17.8743491,11.2460942 17.8535156,11.1523438 C17.7675777,11.4856787 17.5214864,12.3098893 17.1152344,13.625 L18.6035156,13.625 Z M17.2050781,9.83203125 L17.2050781,9.7265625 C17.652997,9.20572656 17.9589836,8.8138034 18.1230469,8.55078125 L19.4589844,8.55078125 L19.4589844,8.6328125 C19.323567,8.76822984 19.0924496,8.96939971 18.765625,9.23632812 C18.4388004,9.50325654 18.1829436,9.70182227 17.9980469,9.83203125 L17.2050781,9.83203125 Z M26.3964844,16 L24.8574219,16 L22.3730469,11.6796875 L22.3378906,11.6796875 C22.38737,12.4427121 22.4121094,12.9869775 22.4121094,13.3125 L22.4121094,16 L21.3300781,16 L21.3300781,10.2890625 L22.8574219,10.2890625 L25.3378906,14.5664062 L25.3652344,14.5664062 C25.3261717,13.824215 25.3066406,13.2994807 25.3066406,12.9921875 L25.3066406,10.2890625 L26.3964844,10.2890625 L26.3964844,16 Z M30.0019531,12.7929688 L32.2675781,12.7929688 L32.2675781,15.7539062 C31.9003888,15.8736985 31.5546891,15.9576821 31.2304688,16.0058594 C30.9062484,16.0540367 30.5748715,16.078125 30.2363281,16.078125 C29.3743446,16.078125 28.7161481,15.8248723 28.2617188,15.3183594 C27.8072894,14.8118464 27.5800781,14.0846402 27.5800781,13.1367188 C27.5800781,12.2148391 27.8437474,11.4960963 28.3710938,10.9804688 C28.8984401,10.4648412 29.6295526,10.2070312 30.5644531,10.2070312 C31.1503936,10.2070312 31.7154921,10.3242176 32.2597656,10.5585938 L31.8574219,11.5273438 C31.4407531,11.3190094 31.0071637,11.2148438 30.5566406,11.2148438 C30.0332005,11.2148438 29.6139339,11.3906232 29.2988281,11.7421875 C28.9837224,12.0937518 28.8261719,12.5664033 28.8261719,13.1601562 C28.8261719,13.779951 28.9531237,14.2532536 29.2070312,14.5800781 C29.4609388,14.9069027 29.8300757,15.0703125 30.3144531,15.0703125 C30.5670586,15.0703125 30.8235664,15.0442711 31.0839844,14.9921875 L31.0839844,13.8007812 L30.0019531,13.8007812 L30.0019531,12.7929688 Z M36.9160156,16 L33.6269531,16 L33.6269531,10.2890625 L36.9160156,10.2890625 L36.9160156,11.28125 L34.8378906,11.28125 L34.8378906,12.5351562 L36.7714844,12.5351562 L36.7714844,13.5273438 L34.8378906,13.5273438 L34.8378906,15 L36.9160156,15 L36.9160156,16 Z M38.1074219,16 L38.1074219,10.2890625 L39.3183594,10.2890625 L39.3183594,15 L41.6347656,15 L41.6347656,16 L38.1074219,16 Z" id="ángel" fill="#FFFFFF"></path>
        </g>
    </g>
</svg>