<?xml version="1.0" encoding="UTF-8"?>
<svg width="88px" height="27px" viewBox="0 0 88 27" version="1.1" xmlns="http://www.w3.org/2000/svg" xmlns:xlink="http://www.w3.org/1999/xlink">
    <!-- Generator: Sketch 48.2 (47327) - http://www.bohemiancoding.com/sketch -->
    <title>ariete_elia</title>
    <desc>Created with Sketch.</desc>
    <defs>
        <path d="M30.6751405,6 C29.6123291,7.89393294 29,10.1192398 29,12.5 C29,15.3140148 29.8554731,17.9108487 31.2991578,20 L9,20 C5.13400675,20 2,16.8659932 2,13 C2,9.13400675 5.13400675,6 9,6 L30.6751405,6 Z M50.3248595,6 L72,6 C75.8659932,6 79,9.13400675 79,13 C79,16.8659932 75.8659932,20 72,20 L49.7008422,20 C51.1445269,17.9108487 52,15.3140148 52,12.5 C52,10.1192398 51.3876709,7.89393294 50.3248595,6 Z" id="path-1"></path>
        <filter x="-8.4%" y="-39.3%" width="116.9%" height="192.9%" filterUnits="objectBoundingBox" id="filter-2">
            <feOffset dx="0" dy="1" in="SourceAlpha" result="shadowOffsetOuter1"></feOffset>
            <feGaussianBlur stdDeviation="2" in="shadowOffsetOuter1" result="shadowBlurOuter1"></feGaussianBlur>
            <feColorMatrix values="0 0 0 0 0   0 0 0 0 0   0 0 0 0 0  0 0 0 0.5 0" type="matrix" in="shadowBlurOuter1"></feColorMatrix>
        </filter>
        <rect id="path-3" x="0" y="6" width="80" height="14" rx="7"></rect>
        <filter x="-8.1%" y="-39.3%" width="116.2%" height="192.9%" filterUnits="objectBoundingBox" id="filter-4">
            <feOffset dx="0" dy="1" in="SourceAlpha" result="shadowOffsetOuter1"></feOffset>
            <feGaussianBlur stdDeviation="2" in="shadowOffsetOuter1" result="shadowBlurOuter1"></feGaussianBlur>
            <feColorMatrix values="0 0 0 0 0   0 0 0 0 0   0 0 0 0 0  0 0 0 0.5 0" type="matrix" in="shadowBlurOuter1"></feColorMatrix>
        </filter>
    </defs>
    <g id="Volcanes-fallas" stroke="none" stroke-width="1" fill="none" fill-rule="evenodd">
        <g id="ariete_elia" transform="translate(4.000000, 1.000000)">
            <g id="ic_volcano_label-copy-18">
                <g id="Group-Copy-3">
                    <g id="Group-26-Copy-4" transform="translate(28.000000, 0.000000)" fill="#FF6D00" stroke="#FFFFFF" stroke-width="0.5">
                        <circle id="Oval-2-Copy-5" cx="12.5" cy="12.5" r="12.5"></circle>
                    </g>
                    <g id="Combined-Shape">
                        <use fill="black" fill-opacity="1" filter="url(#filter-2)" xlink:href="#path-1"></use>
                        <use fill="#263238" fill-rule="evenodd" xlink:href="#path-1"></use>
                    </g>
                    <g id="Rectangle-2-Copy-4">
                        <use fill="black" fill-opacity="1" filter="url(#filter-4)" xlink:href="#path-3"></use>
                        <use fill="#263238" fill-rule="evenodd" xlink:href="#path-3"></use>
                    </g>
                </g>
                <path d="M20.8222656,16 L20.4082031,14.640625 L18.3261719,14.640625 L17.9121094,16 L16.6074219,16 L18.6230469,10.265625 L20.1035156,10.265625 L22.1269531,16 L20.8222656,16 Z M20.1191406,13.625 C19.7363262,12.393223 19.5208336,11.6966154 19.4726562,11.5351562 C19.4244789,11.3736971 19.3899741,11.2460942 19.3691406,11.1523438 C19.2832027,11.4856787 19.0371114,12.3098893 18.6308594,13.625 L20.1191406,13.625 Z M24.0566406,12.8242188 L24.4472656,12.8242188 C24.83008,12.8242188 25.1126293,12.7604173 25.2949219,12.6328125 C25.4772145,12.5052077 25.5683594,12.3046889 25.5683594,12.03125 C25.5683594,11.7604153 25.4752613,11.5677089 25.2890625,11.453125 C25.1028637,11.3385411 24.8144551,11.28125 24.4238281,11.28125 L24.0566406,11.28125 L24.0566406,12.8242188 Z M24.0566406,13.8085938 L24.0566406,16 L22.8457031,16 L22.8457031,10.2890625 L24.5097656,10.2890625 C25.2858112,10.2890625 25.8600242,10.4303371 26.2324219,10.7128906 C26.6048196,10.9954441 26.7910156,11.4244763 26.7910156,12 C26.7910156,12.3359392 26.6985686,12.6347643 26.5136719,12.8964844 C26.3287751,13.1582044 26.067059,13.3632805 25.7285156,13.5117188 C26.5878949,14.7955793 27.1477852,15.6249981 27.4082031,16 L26.0644531,16 L24.7011719,13.8085938 L24.0566406,13.8085938 Z M28.1269531,16 L28.1269531,10.2890625 L29.3378906,10.2890625 L29.3378906,16 L28.1269531,16 Z M34.0644531,16 L30.7753906,16 L30.7753906,10.2890625 L34.0644531,10.2890625 L34.0644531,11.28125 L31.9863281,11.28125 L31.9863281,12.5351562 L33.9199219,12.5351562 L33.9199219,13.5273438 L31.9863281,13.5273438 L31.9863281,15 L34.0644531,15 L34.0644531,16 Z M37.4589844,16 L36.2480469,16 L36.2480469,11.296875 L34.6972656,11.296875 L34.6972656,10.2890625 L39.0097656,10.2890625 L39.0097656,11.296875 L37.4589844,11.296875 L37.4589844,16 Z M43.1777344,16 L39.8886719,16 L39.8886719,10.2890625 L43.1777344,10.2890625 L43.1777344,11.28125 L41.0996094,11.28125 L41.0996094,12.5351562 L43.0332031,12.5351562 L43.0332031,13.5273438 L41.0996094,13.5273438 L41.0996094,15 L43.1777344,15 L43.1777344,16 Z M43.8886719,14.34375 L43.8886719,13.3671875 L45.9863281,13.3671875 L45.9863281,14.34375 L43.8886719,14.34375 Z M50.2324219,16 L46.9433594,16 L46.9433594,10.2890625 L50.2324219,10.2890625 L50.2324219,11.28125 L48.1542969,11.28125 L48.1542969,12.5351562 L50.0878906,12.5351562 L50.0878906,13.5273438 L48.1542969,13.5273438 L48.1542969,15 L50.2324219,15 L50.2324219,16 Z M51.4238281,16 L51.4238281,10.2890625 L52.6347656,10.2890625 L52.6347656,15 L54.9511719,15 L54.9511719,16 L51.4238281,16 Z M55.9433594,16 L55.9433594,10.2890625 L57.1542969,10.2890625 L57.1542969,16 L55.9433594,16 Z M62.0878906,16 L61.6738281,14.640625 L59.5917969,14.640625 L59.1777344,16 L57.8730469,16 L59.8886719,10.265625 L61.3691406,10.265625 L63.3925781,16 L62.0878906,16 Z M61.3847656,13.625 C61.0019512,12.393223 60.7864586,11.6966154 60.7382812,11.5351562 C60.6901039,11.3736971 60.6555991,11.2460942 60.6347656,11.1523438 C60.5488277,11.4856787 60.3027364,12.3098893 59.8964844,13.625 L61.3847656,13.625 Z" id="ariete-elia" fill="#FFFFFF"></path>
            </g>
        </g>
    </g>
</svg>