<?xml version="1.0" encoding="UTF-8"?>
<svg width="65px" height="27px" viewBox="0 0 65 27" version="1.1" xmlns="http://www.w3.org/2000/svg" xmlns:xlink="http://www.w3.org/1999/xlink">
    <!-- Generator: Sketch 48.2 (47327) - http://www.bohemiancoding.com/sketch -->
    <title>artillo</title>
    <desc>Created with Sketch.</desc>
    <defs>
        <path d="M17.8208049,6 C16.6655751,7.89393294 16,10.1192398 16,12.5 C16,15.3140148 16.9298621,17.9108487 18.4990845,20 L7,20 C3.13400675,20 4.73447626e-16,16.8659932 0,13 C-4.73447626e-16,9.13400675 3.13400675,6 7,6 L17.8208049,6 Z M39.1791951,6 L50,6 C53.8659932,6 57,9.13400675 57,13 C57,16.8659932 53.8659932,20 50,20 L38.5009155,20 C40.0701379,17.9108487 41,15.3140148 41,12.5 C41,10.1192398 40.3344249,7.89393294 39.1791951,6 Z" id="path-1"></path>
        <filter x="-11.4%" y="-39.3%" width="122.8%" height="192.9%" filterUnits="objectBoundingBox" id="filter-2">
            <feOffset dx="0" dy="1" in="SourceAlpha" result="shadowOffsetOuter1"></feOffset>
            <feGaussianBlur stdDeviation="2" in="shadowOffsetOuter1" result="shadowBlurOuter1"></feGaussianBlur>
            <feColorMatrix values="0 0 0 0 0   0 0 0 0 0   0 0 0 0 0  0 0 0 0.5 0" type="matrix" in="shadowBlurOuter1"></feColorMatrix>
        </filter>
    </defs>
    <g id="Volcanes-fallas" stroke="none" stroke-width="1" fill="none" fill-rule="evenodd">
        <g id="artillo" transform="translate(4.000000, 1.000000)">
            <g id="ic_volcano_label-copy-19">
                <g id="Group-Copy-3" transform="translate(16.000000, 0.000000)">
                    <g id="Group-26-Copy-4"></g>
                </g>
                <circle id="Oval-2-Copy-5" stroke="#FFFFFF" stroke-width="0.5" fill="#FF6D00" cx="28.5" cy="12.5" r="12.5"></circle>
                <g id="Combined-Shape">
                    <use fill="black" fill-opacity="1" filter="url(#filter-2)" xlink:href="#path-1"></use>
                    <use fill="#263238" fill-rule="evenodd" xlink:href="#path-1"></use>
                </g>
                <rect id="Rectangle-2-Copy-4" fill="#263238" x="0" y="6" width="57" height="14" rx="7"></rect>
            </g>
            <path d="M16.0507812,16 L15.6367188,14.640625 L13.5546875,14.640625 L13.140625,16 L11.8359375,16 L13.8515625,10.265625 L15.3320312,10.265625 L17.3554688,16 L16.0507812,16 Z M15.3476562,13.625 C14.9648418,12.393223 14.7493492,11.6966154 14.7011719,11.5351562 C14.6529946,11.3736971 14.6184897,11.2460942 14.5976562,11.1523438 C14.5117183,11.4856787 14.265627,12.3098893 13.859375,13.625 L15.3476562,13.625 Z M19.2851562,12.8242188 L19.6757812,12.8242188 C20.0585957,12.8242188 20.3411449,12.7604173 20.5234375,12.6328125 C20.7057301,12.5052077 20.796875,12.3046889 20.796875,12.03125 C20.796875,11.7604153 20.703777,11.5677089 20.5175781,11.453125 C20.3313793,11.3385411 20.0429707,11.28125 19.6523438,11.28125 L19.2851562,11.28125 L19.2851562,12.8242188 Z M19.2851562,13.8085938 L19.2851562,16 L18.0742188,16 L18.0742188,10.2890625 L19.7382812,10.2890625 C20.5143268,10.2890625 21.0885398,10.4303371 21.4609375,10.7128906 C21.8333352,10.9954441 22.0195312,11.4244763 22.0195312,12 C22.0195312,12.3359392 21.9270843,12.6347643 21.7421875,12.8964844 C21.5572907,13.1582044 21.2955746,13.3632805 20.9570312,13.5117188 C21.8164105,14.7955793 22.3763008,15.6249981 22.6367188,16 L21.2929688,16 L19.9296875,13.8085938 L19.2851562,13.8085938 Z M25.5585938,16 L24.3476562,16 L24.3476562,11.296875 L22.796875,11.296875 L22.796875,10.2890625 L27.109375,10.2890625 L27.109375,11.296875 L25.5585938,11.296875 L25.5585938,16 Z M27.9882812,16 L27.9882812,10.2890625 L29.1992188,10.2890625 L29.1992188,16 L27.9882812,16 Z M30.6367188,16 L30.6367188,10.2890625 L31.8476562,10.2890625 L31.8476562,15 L34.1640625,15 L34.1640625,16 L30.6367188,16 Z M35.15625,16 L35.15625,10.2890625 L36.3671875,10.2890625 L36.3671875,15 L38.6835938,15 L38.6835938,16 L35.15625,16 Z M44.6992188,13.1367188 C44.6992188,14.082036 44.4648461,14.8085912 43.9960938,15.3164062 C43.5273414,15.8242213 42.8554731,16.078125 41.9804688,16.078125 C41.1054644,16.078125 40.4335961,15.8242213 39.9648438,15.3164062 C39.4960914,14.8085912 39.2617188,14.0794318 39.2617188,13.1289062 C39.2617188,12.1783807 39.4967424,11.4524765 39.9667969,10.9511719 C40.4368513,10.4498673 41.1106727,10.1992188 41.9882812,10.1992188 C42.8658898,10.1992188 43.5371071,10.4518204 44.0019531,10.9570312 C44.4667992,11.4622421 44.6992188,12.1887973 44.6992188,13.1367188 Z M40.53125,13.1367188 C40.53125,13.7747428 40.6523425,14.2552067 40.8945312,14.578125 C41.13672,14.9010433 41.4986955,15.0625 41.9804688,15.0625 C42.9466194,15.0625 43.4296875,14.4205793 43.4296875,13.1367188 C43.4296875,11.850254 42.9492236,11.2070312 41.9882812,11.2070312 C41.506508,11.2070312 41.1432304,11.369139 40.8984375,11.6933594 C40.6536446,12.0175797 40.53125,12.4986947 40.53125,13.1367188 Z" fill="#FFFFFF"></path>
        </g>
    </g>
</svg>