<?xml version="1.0" encoding="UTF-8"?>
<svg width="65px" height="27px" viewBox="0 0 65 27" version="1.1" xmlns="http://www.w3.org/2000/svg" xmlns:xlink="http://www.w3.org/1999/xlink">
    <!-- Generator: Sketch 48.2 (47327) - http://www.bohemiancoding.com/sketch -->
    <title>atirro</title>
    <desc>Created with Sketch.</desc>
    <defs>
        <path d="M17.8208049,6 C16.6655751,7.89393294 16,10.1192398 16,12.5 C16,15.3140148 16.9298621,17.9108487 18.4990845,20 L7,20 C3.13400675,20 4.73447626e-16,16.8659932 0,13 C-4.73447626e-16,9.13400675 3.13400675,6 7,6 L17.8208049,6 Z M39.1791951,6 L50,6 C53.8659932,6 57,9.13400675 57,13 C57,16.8659932 53.8659932,20 50,20 L38.5009155,20 C40.0701379,17.9108487 41,15.3140148 41,12.5 C41,10.1192398 40.3344249,7.89393294 39.1791951,6 Z" id="path-1"></path>
        <filter x="-11.4%" y="-39.3%" width="122.8%" height="192.9%" filterUnits="objectBoundingBox" id="filter-2">
            <feOffset dx="0" dy="1" in="SourceAlpha" result="shadowOffsetOuter1"></feOffset>
            <feGaussianBlur stdDeviation="2" in="shadowOffsetOuter1" result="shadowBlurOuter1"></feGaussianBlur>
            <feColorMatrix values="0 0 0 0 0   0 0 0 0 0   0 0 0 0 0  0 0 0 0.5 0" type="matrix" in="shadowBlurOuter1"></feColorMatrix>
        </filter>
    </defs>
    <g id="Volcanes-fallas" stroke="none" stroke-width="1" fill="none" fill-rule="evenodd">
        <g id="atirro" transform="translate(4.000000, 1.000000)">
            <g id="ic_volcano_label-copy-19">
                <g id="Group-Copy-3" transform="translate(16.000000, 0.000000)">
                    <g id="Group-26-Copy-4"></g>
                </g>
                <circle id="Oval-2-Copy-5" stroke="#FFFFFF" stroke-width="0.5" fill="#FF6D00" cx="28.5" cy="12.5" r="12.5"></circle>
                <g id="Combined-Shape">
                    <use fill="black" fill-opacity="1" filter="url(#filter-2)" xlink:href="#path-1"></use>
                    <use fill="#263238" fill-rule="evenodd" xlink:href="#path-1"></use>
                </g>
                <rect id="Rectangle-2-Copy-4" fill="#263238" x="0" y="6" width="57" height="14" rx="7"></rect>
            </g>
            <path d="M18.1289062,16 L17.7148438,14.640625 L15.6328125,14.640625 L15.21875,16 L13.9140625,16 L15.9296875,10.265625 L17.4101562,10.265625 L19.4335938,16 L18.1289062,16 Z M17.4257812,13.625 C17.0429668,12.393223 16.8274742,11.6966154 16.7792969,11.5351562 C16.7311196,11.3736971 16.6966147,11.2460942 16.6757812,11.1523438 C16.5898433,11.4856787 16.343752,12.3098893 15.9375,13.625 L17.4257812,13.625 Z M21.796875,16 L20.5859375,16 L20.5859375,11.296875 L19.0351562,11.296875 L19.0351562,10.2890625 L23.3476562,10.2890625 L23.3476562,11.296875 L21.796875,11.296875 L21.796875,16 Z M24.2265625,16 L24.2265625,10.2890625 L25.4375,10.2890625 L25.4375,16 L24.2265625,16 Z M28.0859375,12.8242188 L28.4765625,12.8242188 C28.8593769,12.8242188 29.1419262,12.7604173 29.3242188,12.6328125 C29.5065113,12.5052077 29.5976562,12.3046889 29.5976562,12.03125 C29.5976562,11.7604153 29.5045582,11.5677089 29.3183594,11.453125 C29.1321605,11.3385411 28.843752,11.28125 28.453125,11.28125 L28.0859375,11.28125 L28.0859375,12.8242188 Z M28.0859375,13.8085938 L28.0859375,16 L26.875,16 L26.875,10.2890625 L28.5390625,10.2890625 C29.315108,10.2890625 29.8893211,10.4303371 30.2617188,10.7128906 C30.6341164,10.9954441 30.8203125,11.4244763 30.8203125,12 C30.8203125,12.3359392 30.7278655,12.6347643 30.5429688,12.8964844 C30.358072,13.1582044 30.0963559,13.3632805 29.7578125,13.5117188 C30.6171918,14.7955793 31.177082,15.6249981 31.4375,16 L30.09375,16 L28.7304688,13.8085938 L28.0859375,13.8085938 Z M33.3671875,12.8242188 L33.7578125,12.8242188 C34.1406269,12.8242188 34.4231762,12.7604173 34.6054688,12.6328125 C34.7877613,12.5052077 34.8789062,12.3046889 34.8789062,12.03125 C34.8789062,11.7604153 34.7858082,11.5677089 34.5996094,11.453125 C34.4134105,11.3385411 34.125002,11.28125 33.734375,11.28125 L33.3671875,11.28125 L33.3671875,12.8242188 Z M33.3671875,13.8085938 L33.3671875,16 L32.15625,16 L32.15625,10.2890625 L33.8203125,10.2890625 C34.596358,10.2890625 35.1705711,10.4303371 35.5429688,10.7128906 C35.9153664,10.9954441 36.1015625,11.4244763 36.1015625,12 C36.1015625,12.3359392 36.0091155,12.6347643 35.8242188,12.8964844 C35.639322,13.1582044 35.3776059,13.3632805 35.0390625,13.5117188 C35.8984418,14.7955793 36.458332,15.6249981 36.71875,16 L35.375,16 L34.0117188,13.8085938 L33.3671875,13.8085938 Z M42.6210938,13.1367188 C42.6210938,14.082036 42.3867211,14.8085912 41.9179688,15.3164062 C41.4492164,15.8242213 40.7773481,16.078125 39.9023438,16.078125 C39.0273394,16.078125 38.3554711,15.8242213 37.8867188,15.3164062 C37.4179664,14.8085912 37.1835938,14.0794318 37.1835938,13.1289062 C37.1835938,12.1783807 37.4186174,11.4524765 37.8886719,10.9511719 C38.3587263,10.4498673 39.0325477,10.1992188 39.9101562,10.1992188 C40.7877648,10.1992188 41.4589821,10.4518204 41.9238281,10.9570312 C42.3886742,11.4622421 42.6210938,12.1887973 42.6210938,13.1367188 Z M38.453125,13.1367188 C38.453125,13.7747428 38.5742175,14.2552067 38.8164062,14.578125 C39.058595,14.9010433 39.4205705,15.0625 39.9023438,15.0625 C40.8684944,15.0625 41.3515625,14.4205793 41.3515625,13.1367188 C41.3515625,11.850254 40.8710986,11.2070312 39.9101562,11.2070312 C39.428383,11.2070312 39.0651054,11.369139 38.8203125,11.6933594 C38.5755196,12.0175797 38.453125,12.4986947 38.453125,13.1367188 Z" id="Atirro" fill="#FFFFFF"></path>
        </g>
    </g>
</svg>