<?xml version="1.0" encoding="UTF-8"?>
<svg width="65px" height="27px" viewBox="0 0 65 27" version="1.1" xmlns="http://www.w3.org/2000/svg" xmlns:xlink="http://www.w3.org/1999/xlink">
    <!-- Generator: Sketch 48.2 (47327) - http://www.bohemiancoding.com/sketch -->
    <title>barranca</title>
    <desc>Created with Sketch.</desc>
    <defs>
        <path d="M17.8208049,6 C16.6655751,7.89393294 16,10.1192398 16,12.5 C16,15.3140148 16.9298621,17.9108487 18.4990845,20 L7,20 C3.13400675,20 4.73447626e-16,16.8659932 0,13 C-4.73447626e-16,9.13400675 3.13400675,6 7,6 L17.8208049,6 Z M39.1791951,6 L50,6 C53.8659932,6 57,9.13400675 57,13 C57,16.8659932 53.8659932,20 50,20 L38.5009155,20 C40.0701379,17.9108487 41,15.3140148 41,12.5 C41,10.1192398 40.3344249,7.89393294 39.1791951,6 Z" id="path-1"></path>
        <filter x="-11.4%" y="-39.3%" width="122.8%" height="192.9%" filterUnits="objectBoundingBox" id="filter-2">
            <feOffset dx="0" dy="1" in="SourceAlpha" result="shadowOffsetOuter1"></feOffset>
            <feGaussianBlur stdDeviation="2" in="shadowOffsetOuter1" result="shadowBlurOuter1"></feGaussianBlur>
            <feColorMatrix values="0 0 0 0 0   0 0 0 0 0   0 0 0 0 0  0 0 0 0.5 0" type="matrix" in="shadowBlurOuter1"></feColorMatrix>
        </filter>
    </defs>
    <g id="Volcanes-fallas" stroke="none" stroke-width="1" fill="none" fill-rule="evenodd">
        <g id="barranca" transform="translate(4.000000, 1.000000)">
            <g id="ic_volcano_label-copy-19">
                <g id="Group-Copy-3" transform="translate(16.000000, 0.000000)">
                    <g id="Group-26-Copy-4"></g>
                </g>
                <circle id="Oval-2-Copy-5" stroke="#FFFFFF" stroke-width="0.5" fill="#FF6D00" cx="28.5" cy="12.5" r="12.5"></circle>
                <g id="Combined-Shape">
                    <use fill="black" fill-opacity="1" filter="url(#filter-2)" xlink:href="#path-1"></use>
                    <use fill="#263238" fill-rule="evenodd" xlink:href="#path-1"></use>
                </g>
                <rect id="Rectangle-2-Copy-4" fill="#263238" x="0" y="6" width="57" height="14" rx="7"></rect>
            </g>
            <path d="M7.25,10.2890625 L9.02734375,10.2890625 C9.83724363,10.2890625 10.4251284,10.4042957 10.7910156,10.6347656 C11.1569029,10.8652355 11.3398438,11.2317683 11.3398438,11.734375 C11.3398438,12.0755225 11.2597664,12.3554677 11.0996094,12.5742188 C10.9394523,12.7929698 10.7265638,12.9244789 10.4609375,12.96875 L10.4609375,13.0078125 C10.8229185,13.0885421 11.0839836,13.2395822 11.2441406,13.4609375 C11.4042977,13.6822928 11.484375,13.9765607 11.484375,14.34375 C11.484375,14.8645859 11.2962258,15.2708319 10.9199219,15.5625 C10.5436179,15.8541681 10.0325553,16 9.38671875,16 L7.25,16 L7.25,10.2890625 Z M8.4609375,12.5507812 L9.1640625,12.5507812 C9.49218914,12.5507812 9.72981697,12.5000005 9.87695312,12.3984375 C10.0240893,12.2968745 10.0976562,12.1289074 10.0976562,11.8945312 C10.0976562,11.6757802 10.0175789,11.5188807 9.85742188,11.4238281 C9.69726482,11.3287756 9.44401215,11.28125 9.09765625,11.28125 L8.4609375,11.28125 L8.4609375,12.5507812 Z M8.4609375,13.5117188 L8.4609375,15 L9.25,15 C9.583335,15 9.82942629,14.9361986 9.98828125,14.8085938 C10.1471362,14.6809889 10.2265625,14.4856784 10.2265625,14.2226562 C10.2265625,13.7486955 9.88802422,13.5117188 9.2109375,13.5117188 L8.4609375,13.5117188 Z M15.9609375,16 L15.546875,14.640625 L13.4648438,14.640625 L13.0507812,16 L11.7460938,16 L13.7617188,10.265625 L15.2421875,10.265625 L17.265625,16 L15.9609375,16 Z M15.2578125,13.625 C14.8749981,12.393223 14.6595054,11.6966154 14.6113281,11.5351562 C14.5631508,11.3736971 14.5286459,11.2460942 14.5078125,11.1523438 C14.4218746,11.4856787 14.1757833,12.3098893 13.7695312,13.625 L15.2578125,13.625 Z M19.1953125,12.8242188 L19.5859375,12.8242188 C19.9687519,12.8242188 20.2513012,12.7604173 20.4335938,12.6328125 C20.6158863,12.5052077 20.7070312,12.3046889 20.7070312,12.03125 C20.7070312,11.7604153 20.6139332,11.5677089 20.4277344,11.453125 C20.2415355,11.3385411 19.953127,11.28125 19.5625,11.28125 L19.1953125,11.28125 L19.1953125,12.8242188 Z M19.1953125,13.8085938 L19.1953125,16 L17.984375,16 L17.984375,10.2890625 L19.6484375,10.2890625 C20.424483,10.2890625 20.9986961,10.4303371 21.3710938,10.7128906 C21.7434914,10.9954441 21.9296875,11.4244763 21.9296875,12 C21.9296875,12.3359392 21.8372405,12.6347643 21.6523438,12.8964844 C21.467447,13.1582044 21.2057309,13.3632805 20.8671875,13.5117188 C21.7265668,14.7955793 22.286457,15.6249981 22.546875,16 L21.203125,16 L19.8398438,13.8085938 L19.1953125,13.8085938 Z M24.4765625,12.8242188 L24.8671875,12.8242188 C25.2500019,12.8242188 25.5325512,12.7604173 25.7148438,12.6328125 C25.8971363,12.5052077 25.9882812,12.3046889 25.9882812,12.03125 C25.9882812,11.7604153 25.8951832,11.5677089 25.7089844,11.453125 C25.5227855,11.3385411 25.234377,11.28125 24.84375,11.28125 L24.4765625,11.28125 L24.4765625,12.8242188 Z M24.4765625,13.8085938 L24.4765625,16 L23.265625,16 L23.265625,10.2890625 L24.9296875,10.2890625 C25.705733,10.2890625 26.2799461,10.4303371 26.6523438,10.7128906 C27.0247414,10.9954441 27.2109375,11.4244763 27.2109375,12 C27.2109375,12.3359392 27.1184905,12.6347643 26.9335938,12.8964844 C26.748697,13.1582044 26.4869809,13.3632805 26.1484375,13.5117188 C27.0078168,14.7955793 27.567707,15.6249981 27.828125,16 L26.484375,16 L25.1210938,13.8085938 L24.4765625,13.8085938 Z M32.0429688,16 L31.6289062,14.640625 L29.546875,14.640625 L29.1328125,16 L27.828125,16 L29.84375,10.265625 L31.3242188,10.265625 L33.3476562,16 L32.0429688,16 Z M31.3398438,13.625 C30.9570293,12.393223 30.7415367,11.6966154 30.6933594,11.5351562 C30.6451821,11.3736971 30.6106772,11.2460942 30.5898438,11.1523438 C30.5039058,11.4856787 30.2578145,12.3098893 29.8515625,13.625 L31.3398438,13.625 Z M39.1328125,16 L37.59375,16 L35.109375,11.6796875 L35.0742188,11.6796875 C35.1236982,12.4427121 35.1484375,12.9869775 35.1484375,13.3125 L35.1484375,16 L34.0664062,16 L34.0664062,10.2890625 L35.59375,10.2890625 L38.0742188,14.5664062 L38.1015625,14.5664062 C38.0624998,13.824215 38.0429688,13.2994807 38.0429688,12.9921875 L38.0429688,10.2890625 L39.1328125,10.2890625 L39.1328125,16 Z M42.9960938,11.2148438 C42.5403623,11.2148438 42.1875012,11.386066 41.9375,11.7285156 C41.6874988,12.0709653 41.5625,12.548174 41.5625,13.1601562 C41.5625,14.4336001 42.0403598,15.0703125 42.9960938,15.0703125 C43.3971374,15.0703125 43.8828096,14.9700531 44.453125,14.7695312 L44.453125,15.7851562 C43.9843727,15.9804697 43.4609404,16.078125 42.8828125,16.078125 C42.0520792,16.078125 41.4166689,15.8261744 40.9765625,15.3222656 C40.5364561,14.8183569 40.3164062,14.0950568 40.3164062,13.1523438 C40.3164062,12.5585908 40.4244781,12.0384137 40.640625,11.5917969 C40.8567719,11.1451801 41.1673157,10.8027356 41.5722656,10.5644531 C41.9772156,10.3261707 42.4518202,10.2070312 42.9960938,10.2070312 C43.550784,10.2070312 44.1080701,10.3411445 44.6679688,10.609375 L44.2773438,11.59375 C44.063801,11.492187 43.8489594,11.4036462 43.6328125,11.328125 C43.4166656,11.2526038 43.2044281,11.2148438 42.9960938,11.2148438 Z M49.1640625,16 L48.75,14.640625 L46.6679688,14.640625 L46.2539062,16 L44.9492188,16 L46.9648438,10.265625 L48.4453125,10.265625 L50.46875,16 L49.1640625,16 Z M48.4609375,13.625 C48.0781231,12.393223 47.8626304,11.6966154 47.8144531,11.5351562 C47.7662758,11.3736971 47.7317709,11.2460942 47.7109375,11.1523438 C47.6249996,11.4856787 47.3789083,12.3098893 46.9726562,13.625 L48.4609375,13.625 Z" fill="#FFFFFF"></path>
        </g>
    </g>
</svg>