<?xml version="1.0" encoding="UTF-8"?>
<svg width="65px" height="27px" viewBox="0 0 65 27" version="1.1" xmlns="http://www.w3.org/2000/svg" xmlns:xlink="http://www.w3.org/1999/xlink">
    <!-- Generator: Sketch 48.2 (47327) - http://www.bohemiancoding.com/sketch -->
    <title>bijagua</title>
    <desc>Created with Sketch.</desc>
    <defs>
        <path d="M17.8208049,6 C16.6655751,7.89393294 16,10.1192398 16,12.5 C16,15.3140148 16.9298621,17.9108487 18.4990845,20 L7,20 C3.13400675,20 4.73447626e-16,16.8659932 0,13 C-4.73447626e-16,9.13400675 3.13400675,6 7,6 L17.8208049,6 Z M39.1791951,6 L50,6 C53.8659932,6 57,9.13400675 57,13 C57,16.8659932 53.8659932,20 50,20 L38.5009155,20 C40.0701379,17.9108487 41,15.3140148 41,12.5 C41,10.1192398 40.3344249,7.89393294 39.1791951,6 Z" id="path-1"></path>
        <filter x="-11.4%" y="-39.3%" width="122.8%" height="192.9%" filterUnits="objectBoundingBox" id="filter-2">
            <feOffset dx="0" dy="1" in="SourceAlpha" result="shadowOffsetOuter1"></feOffset>
            <feGaussianBlur stdDeviation="2" in="shadowOffsetOuter1" result="shadowBlurOuter1"></feGaussianBlur>
            <feColorMatrix values="0 0 0 0 0   0 0 0 0 0   0 0 0 0 0  0 0 0 0.5 0" type="matrix" in="shadowBlurOuter1"></feColorMatrix>
        </filter>
    </defs>
    <g id="Volcanes-fallas" stroke="none" stroke-width="1" fill="none" fill-rule="evenodd">
        <g id="bijagua" transform="translate(4.000000, 1.000000)">
            <g id="ic_volcano_label-copy-19">
                <g id="Group-Copy-3" transform="translate(16.000000, 0.000000)">
                    <g id="Group-26-Copy-4"></g>
                </g>
                <circle id="Oval-2-Copy-5" stroke="#FFFFFF" stroke-width="0.5" fill="#FF6D00" cx="28.5" cy="12.5" r="12.5"></circle>
                <g id="Combined-Shape">
                    <use fill="black" fill-opacity="1" filter="url(#filter-2)" xlink:href="#path-1"></use>
                    <use fill="#263238" fill-rule="evenodd" xlink:href="#path-1"></use>
                </g>
                <rect id="Rectangle-2-Copy-4" fill="#263238" x="0" y="6" width="57" height="14" rx="7"></rect>
            </g>
            <path d="M12.5625,10.2890625 L14.3398438,10.2890625 C15.1497436,10.2890625 15.7376284,10.4042957 16.1035156,10.6347656 C16.4694029,10.8652355 16.6523438,11.2317683 16.6523438,11.734375 C16.6523438,12.0755225 16.5722664,12.3554677 16.4121094,12.5742188 C16.2519523,12.7929698 16.0390638,12.9244789 15.7734375,12.96875 L15.7734375,13.0078125 C16.1354185,13.0885421 16.3964836,13.2395822 16.5566406,13.4609375 C16.7167977,13.6822928 16.796875,13.9765607 16.796875,14.34375 C16.796875,14.8645859 16.6087258,15.2708319 16.2324219,15.5625 C15.8561179,15.8541681 15.3450553,16 14.6992188,16 L12.5625,16 L12.5625,10.2890625 Z M13.7734375,12.5507812 L14.4765625,12.5507812 C14.8046891,12.5507812 15.042317,12.5000005 15.1894531,12.3984375 C15.3365893,12.2968745 15.4101562,12.1289074 15.4101562,11.8945312 C15.4101562,11.6757802 15.3300789,11.5188807 15.1699219,11.4238281 C15.0097648,11.3287756 14.7565121,11.28125 14.4101562,11.28125 L13.7734375,11.28125 L13.7734375,12.5507812 Z M13.7734375,13.5117188 L13.7734375,15 L14.5625,15 C14.895835,15 15.1419263,14.9361986 15.3007812,14.8085938 C15.4596362,14.6809889 15.5390625,14.4856784 15.5390625,14.2226562 C15.5390625,13.7486955 15.2005242,13.5117188 14.5234375,13.5117188 L13.7734375,13.5117188 Z M17.9375,16 L17.9375,10.2890625 L19.1484375,10.2890625 L19.1484375,16 L17.9375,16 Z M19.9882812,17.6796875 C19.7148424,17.6796875 19.4765635,17.651042 19.2734375,17.59375 L19.2734375,16.5859375 C19.4817719,16.6380211 19.6718741,16.6640625 19.84375,16.6640625 C20.1093763,16.6640625 20.2994786,16.581381 20.4140625,16.4160156 C20.5286464,16.2506502 20.5859375,15.9921893 20.5859375,15.640625 L20.5859375,10.2890625 L21.796875,10.2890625 L21.796875,15.6328125 C21.796875,16.2994825 21.6445328,16.8072899 21.3398438,17.15625 C21.0351547,17.5052101 20.5846384,17.6796875 19.9882812,17.6796875 Z M26.7304688,16 L26.3164062,14.640625 L24.234375,14.640625 L23.8203125,16 L22.515625,16 L24.53125,10.265625 L26.0117188,10.265625 L28.0351562,16 L26.7304688,16 Z M26.0273438,13.625 C25.6445293,12.393223 25.4290367,11.6966154 25.3808594,11.5351562 C25.3326821,11.3736971 25.2981772,11.2460942 25.2773438,11.1523438 C25.1914058,11.4856787 24.9453145,12.3098893 24.5390625,13.625 L26.0273438,13.625 Z M30.7617188,12.7929688 L33.0273438,12.7929688 L33.0273438,15.7539062 C32.6601544,15.8736985 32.3144547,15.9576821 31.9902344,16.0058594 C31.666014,16.0540367 31.3346371,16.078125 30.9960938,16.078125 C30.1341103,16.078125 29.4759137,15.8248723 29.0214844,15.3183594 C28.567055,14.8118464 28.3398438,14.0846402 28.3398438,13.1367188 C28.3398438,12.2148391 28.603513,11.4960963 29.1308594,10.9804688 C29.6582058,10.4648412 30.3893182,10.2070312 31.3242188,10.2070312 C31.9101592,10.2070312 32.4752577,10.3242176 33.0195312,10.5585938 L32.6171875,11.5273438 C32.2005188,11.3190094 31.7669293,11.2148438 31.3164062,11.2148438 C30.7929661,11.2148438 30.3736995,11.3906232 30.0585938,11.7421875 C29.743488,12.0937518 29.5859375,12.5664033 29.5859375,13.1601562 C29.5859375,13.779951 29.7128894,14.2532536 29.9667969,14.5800781 C30.2207044,14.9069027 30.5898413,15.0703125 31.0742188,15.0703125 C31.3268242,15.0703125 31.583332,15.0442711 31.84375,14.9921875 L31.84375,13.8007812 L30.7617188,13.8007812 L30.7617188,12.7929688 Z M39.0351562,10.2890625 L39.0351562,13.984375 C39.0351562,14.4062521 38.9407562,14.7760401 38.7519531,15.09375 C38.5631501,15.4114599 38.2903664,15.6549471 37.9335938,15.8242188 C37.5768211,15.9934904 37.1549504,16.078125 36.6679688,16.078125 C35.9335901,16.078125 35.3632833,15.8899758 34.9570312,15.5136719 C34.5507792,15.1373679 34.3476562,14.6223991 34.3476562,13.96875 L34.3476562,10.2890625 L35.5546875,10.2890625 L35.5546875,13.7851562 C35.5546875,14.2252626 35.6432283,14.5481761 35.8203125,14.7539062 C35.9973967,14.9596364 36.2903625,15.0625 36.6992188,15.0625 C37.0950541,15.0625 37.3821606,14.9589854 37.5605469,14.7519531 C37.7389332,14.5449208 37.828125,14.2200543 37.828125,13.7773438 L37.828125,10.2890625 L39.0351562,10.2890625 Z M43.8515625,16 L43.4375,14.640625 L41.3554688,14.640625 L40.9414062,16 L39.6367188,16 L41.6523438,10.265625 L43.1328125,10.265625 L45.15625,16 L43.8515625,16 Z M43.1484375,13.625 C42.7656231,12.393223 42.5501304,11.6966154 42.5019531,11.5351562 C42.4537758,11.3736971 42.4192709,11.2460942 42.3984375,11.1523438 C42.3124996,11.4856787 42.0664083,12.3098893 41.6601562,13.625 L43.1484375,13.625 Z" id="BIJAGUA" fill="#FFFFFF"></path>
        </g>
    </g>
</svg>