<?xml version="1.0" encoding="UTF-8"?>
<svg width="65px" height="27px" viewBox="0 0 65 27" version="1.1" xmlns="http://www.w3.org/2000/svg" xmlns:xlink="http://www.w3.org/1999/xlink">
    <!-- Generator: Sketch 48.2 (47327) - http://www.bohemiancoding.com/sketch -->
    <title>blanquito</title>
    <desc>Created with Sketch.</desc>
    <defs>
        <path d="M17.8208049,6 C16.6655751,7.89393294 16,10.1192398 16,12.5 C16,15.3140148 16.9298621,17.9108487 18.4990845,20 L7,20 C3.13400675,20 4.73447626e-16,16.8659932 0,13 C-4.73447626e-16,9.13400675 3.13400675,6 7,6 L17.8208049,6 Z M39.1791951,6 L50,6 C53.8659932,6 57,9.13400675 57,13 C57,16.8659932 53.8659932,20 50,20 L38.5009155,20 C40.0701379,17.9108487 41,15.3140148 41,12.5 C41,10.1192398 40.3344249,7.89393294 39.1791951,6 Z" id="path-1"></path>
        <filter x="-11.4%" y="-39.3%" width="122.8%" height="192.9%" filterUnits="objectBoundingBox" id="filter-2">
            <feOffset dx="0" dy="1" in="SourceAlpha" result="shadowOffsetOuter1"></feOffset>
            <feGaussianBlur stdDeviation="2" in="shadowOffsetOuter1" result="shadowBlurOuter1"></feGaussianBlur>
            <feColorMatrix values="0 0 0 0 0   0 0 0 0 0   0 0 0 0 0  0 0 0 0.5 0" type="matrix" in="shadowBlurOuter1"></feColorMatrix>
        </filter>
    </defs>
    <g id="Volcanes-fallas" stroke="none" stroke-width="1" fill="none" fill-rule="evenodd">
        <g id="blanquito" transform="translate(4.000000, 1.000000)">
            <g id="ic_volcano_label-copy-19">
                <g id="Group-Copy-3" transform="translate(16.000000, 0.000000)">
                    <g id="Group-26-Copy-4"></g>
                </g>
                <circle id="Oval-2-Copy-5" stroke="#FFFFFF" stroke-width="0.5" fill="#FF6D00" cx="28.5" cy="12.5" r="12.5"></circle>
                <g id="Combined-Shape">
                    <use fill="black" fill-opacity="1" filter="url(#filter-2)" xlink:href="#path-1"></use>
                    <use fill="#263238" fill-rule="evenodd" xlink:href="#path-1"></use>
                </g>
                <rect id="Rectangle-2-Copy-4" fill="#263238" x="0" y="6" width="57" height="14" rx="7"></rect>
            </g>
            <path d="M5.30859375,10.2890625 L7.0859375,10.2890625 C7.89583738,10.2890625 8.48372213,10.4042957 8.84960938,10.6347656 C9.21549662,10.8652355 9.3984375,11.2317683 9.3984375,11.734375 C9.3984375,12.0755225 9.31836018,12.3554677 9.15820312,12.5742188 C8.99804607,12.7929698 8.78515758,12.9244789 8.51953125,12.96875 L8.51953125,13.0078125 C8.88151223,13.0885421 9.14257732,13.2395822 9.30273438,13.4609375 C9.46289143,13.6822928 9.54296875,13.9765607 9.54296875,14.34375 C9.54296875,14.8645859 9.35481959,15.2708319 8.97851562,15.5625 C8.60221166,15.8541681 8.09114906,16 7.4453125,16 L5.30859375,16 L5.30859375,10.2890625 Z M6.51953125,12.5507812 L7.22265625,12.5507812 C7.55078289,12.5507812 7.78841072,12.5000005 7.93554688,12.3984375 C8.08268303,12.2968745 8.15625,12.1289074 8.15625,11.8945312 C8.15625,11.6757802 8.07617268,11.5188807 7.91601562,11.4238281 C7.75585857,11.3287756 7.5026059,11.28125 7.15625,11.28125 L6.51953125,11.28125 L6.51953125,12.5507812 Z M6.51953125,13.5117188 L6.51953125,15 L7.30859375,15 C7.64192875,15 7.88802004,14.9361986 8.046875,14.8085938 C8.20572996,14.6809889 8.28515625,14.4856784 8.28515625,14.2226562 C8.28515625,13.7486955 7.94661797,13.5117188 7.26953125,13.5117188 L6.51953125,13.5117188 Z M10.6835938,16 L10.6835938,10.2890625 L11.8945312,10.2890625 L11.8945312,15 L14.2109375,15 L14.2109375,16 L10.6835938,16 Z M18.6992188,16 L18.2851562,14.640625 L16.203125,14.640625 L15.7890625,16 L14.484375,16 L16.5,10.265625 L17.9804688,10.265625 L20.0039062,16 L18.6992188,16 Z M17.9960938,13.625 C17.6132793,12.393223 17.3977867,11.6966154 17.3496094,11.5351562 C17.3014321,11.3736971 17.2669272,11.2460942 17.2460938,11.1523438 C17.1601558,11.4856787 16.9140645,12.3098893 16.5078125,13.625 L17.9960938,13.625 Z M25.7890625,16 L24.25,16 L21.765625,11.6796875 L21.7304688,11.6796875 C21.7799482,12.4427121 21.8046875,12.9869775 21.8046875,13.3125 L21.8046875,16 L20.7226563,16 L20.7226563,10.2890625 L22.25,10.2890625 L24.7304688,14.5664062 L24.7578125,14.5664062 C24.7187498,13.824215 24.6992188,13.2994807 24.6992188,12.9921875 L24.6992188,10.2890625 L25.7890625,10.2890625 L25.7890625,16 Z M32.4101562,13.1367188 C32.4101562,13.8085971 32.2910168,14.3717425 32.0527344,14.8261719 C31.8144519,15.2806012 31.4648461,15.6132802 31.0039062,15.8242188 L32.3789062,17.359375 L30.828125,17.359375 L29.78125,16.078125 L29.6914062,16.078125 C28.8164019,16.078125 28.1445336,15.8242213 27.6757812,15.3164062 C27.2070289,14.8085912 26.9726562,14.0794318 26.9726562,13.1289062 C26.9726562,12.1783807 27.2076799,11.4524765 27.6777344,10.9511719 C28.1477888,10.4498673 28.8216102,10.1992188 29.6992187,10.1992188 C30.5768273,10.1992188 31.2480446,10.4518204 31.7128906,10.9570312 C32.1777367,11.4622421 32.4101562,12.1887973 32.4101562,13.1367188 Z M28.2421875,13.1367188 C28.2421875,13.7747428 28.36328,14.2552067 28.6054688,14.578125 C28.8476575,14.9010433 29.209633,15.0625 29.6914062,15.0625 C30.6575569,15.0625 31.140625,14.4205793 31.140625,13.1367188 C31.140625,11.850254 30.6601611,11.2070312 29.6992188,11.2070312 C29.2174455,11.2070312 28.8541679,11.369139 28.609375,11.6933594 C28.3645821,12.0175797 28.2421875,12.4986947 28.2421875,13.1367188 Z M38.2421875,10.2890625 L38.2421875,13.984375 C38.2421875,14.4062521 38.1477874,14.7760401 37.9589844,15.09375 C37.7701813,15.4114599 37.4973976,15.6549471 37.140625,15.8242188 C36.7838524,15.9934904 36.3619816,16.078125 35.875,16.078125 C35.1406213,16.078125 34.5703145,15.8899758 34.1640625,15.5136719 C33.7578105,15.1373679 33.5546875,14.6223991 33.5546875,13.96875 L33.5546875,10.2890625 L34.7617188,10.2890625 L34.7617188,13.7851562 C34.7617188,14.2252626 34.8502595,14.5481761 35.0273438,14.7539062 C35.204428,14.9596364 35.4973938,15.0625 35.90625,15.0625 C36.3020853,15.0625 36.5891918,14.9589854 36.7675781,14.7519531 C36.9459644,14.5449208 37.0351562,14.2200543 37.0351562,13.7773438 L37.0351562,10.2890625 L38.2421875,10.2890625 Z M39.640625,16 L39.640625,10.2890625 L40.8515625,10.2890625 L40.8515625,16 L39.640625,16 Z M44.4921875,16 L43.28125,16 L43.28125,11.296875 L41.7304688,11.296875 L41.7304688,10.2890625 L46.0429688,10.2890625 L46.0429688,11.296875 L44.4921875,11.296875 L44.4921875,16 Z M51.9453125,13.1367188 C51.9453125,14.082036 51.7109398,14.8085912 51.2421875,15.3164062 C50.7734352,15.8242213 50.1015669,16.078125 49.2265625,16.078125 C48.3515581,16.078125 47.6796898,15.8242213 47.2109375,15.3164062 C46.7421852,14.8085912 46.5078125,14.0794318 46.5078125,13.1289062 C46.5078125,12.1783807 46.7428362,11.4524765 47.2128906,10.9511719 C47.6829451,10.4498673 48.3567664,10.1992188 49.234375,10.1992188 C50.1119836,10.1992188 50.7832008,10.4518204 51.2480469,10.9570312 C51.7128929,11.4622421 51.9453125,12.1887973 51.9453125,13.1367188 Z M47.7773438,13.1367188 C47.7773438,13.7747428 47.8984363,14.2552067 48.140625,14.578125 C48.3828137,14.9010433 48.7447893,15.0625 49.2265625,15.0625 C50.1927132,15.0625 50.6757812,14.4205793 50.6757812,13.1367188 C50.6757812,11.850254 50.1953173,11.2070312 49.234375,11.2070312 C48.7526018,11.2070312 48.3893241,11.369139 48.1445312,11.6933594 C47.8997384,12.0175797 47.7773438,12.4986947 47.7773438,13.1367188 Z" fill="#FFFFFF"></path>
        </g>
    </g>
</svg>