<?xml version="1.0" encoding="UTF-8"?>
<svg width="88px" height="27px" viewBox="0 0 88 27" version="1.1" xmlns="http://www.w3.org/2000/svg" xmlns:xlink="http://www.w3.org/1999/xlink">
    <!-- Generator: Sketch 48.2 (47327) - http://www.bohemiancoding.com/sketch -->
    <title>buenavista</title>
    <desc>Created with Sketch.</desc>
    <defs>
        <path d="M30.6751405,6 C29.6123291,7.89393294 29,10.1192398 29,12.5 C29,15.3140148 29.8554731,17.9108487 31.2991578,20 L9,20 C5.13400675,20 2,16.8659932 2,13 C2,9.13400675 5.13400675,6 9,6 L30.6751405,6 Z M50.3248595,6 L72,6 C75.8659932,6 79,9.13400675 79,13 C79,16.8659932 75.8659932,20 72,20 L49.7008422,20 C51.1445269,17.9108487 52,15.3140148 52,12.5 C52,10.1192398 51.3876709,7.89393294 50.3248595,6 Z" id="path-1"></path>
        <filter x="-8.4%" y="-39.3%" width="116.9%" height="192.9%" filterUnits="objectBoundingBox" id="filter-2">
            <feOffset dx="0" dy="1" in="SourceAlpha" result="shadowOffsetOuter1"></feOffset>
            <feGaussianBlur stdDeviation="2" in="shadowOffsetOuter1" result="shadowBlurOuter1"></feGaussianBlur>
            <feColorMatrix values="0 0 0 0 0   0 0 0 0 0   0 0 0 0 0  0 0 0 0.5 0" type="matrix" in="shadowBlurOuter1"></feColorMatrix>
        </filter>
        <rect id="path-3" x="0" y="6" width="80" height="14" rx="7"></rect>
        <filter x="-8.1%" y="-39.3%" width="116.2%" height="192.9%" filterUnits="objectBoundingBox" id="filter-4">
            <feOffset dx="0" dy="1" in="SourceAlpha" result="shadowOffsetOuter1"></feOffset>
            <feGaussianBlur stdDeviation="2" in="shadowOffsetOuter1" result="shadowBlurOuter1"></feGaussianBlur>
            <feColorMatrix values="0 0 0 0 0   0 0 0 0 0   0 0 0 0 0  0 0 0 0.5 0" type="matrix" in="shadowBlurOuter1"></feColorMatrix>
        </filter>
    </defs>
    <g id="Volcanes-fallas" stroke="none" stroke-width="1" fill="none" fill-rule="evenodd">
        <g id="buenavista" transform="translate(4.000000, 1.000000)">
            <g id="ic_volcano_label-copy-18">
                <g id="Group-Copy-3">
                    <g id="Group-26-Copy-4" transform="translate(28.000000, 0.000000)" fill="#FF6D00" stroke="#FFFFFF" stroke-width="0.5">
                        <circle id="Oval-2-Copy-5" cx="12.5" cy="12.5" r="12.5"></circle>
                    </g>
                    <g id="Combined-Shape">
                        <use fill="black" fill-opacity="1" filter="url(#filter-2)" xlink:href="#path-1"></use>
                        <use fill="#263238" fill-rule="evenodd" xlink:href="#path-1"></use>
                    </g>
                    <g id="Rectangle-2-Copy-4">
                        <use fill="black" fill-opacity="1" filter="url(#filter-4)" xlink:href="#path-3"></use>
                        <use fill="#263238" fill-rule="evenodd" xlink:href="#path-3"></use>
                    </g>
                </g>
                <path d="M15.9921875,10.2890625 L17.7695312,10.2890625 C18.5794311,10.2890625 19.1673159,10.4042957 19.5332031,10.6347656 C19.8990904,10.8652355 20.0820312,11.2317683 20.0820312,11.734375 C20.0820312,12.0755225 20.0019539,12.3554677 19.8417969,12.5742188 C19.6816398,12.7929698 19.4687513,12.9244789 19.203125,12.96875 L19.203125,13.0078125 C19.565106,13.0885421 19.8261711,13.2395822 19.9863281,13.4609375 C20.1464852,13.6822928 20.2265625,13.9765607 20.2265625,14.34375 C20.2265625,14.8645859 20.0384133,15.2708319 19.6621094,15.5625 C19.2858054,15.8541681 18.7747428,16 18.1289062,16 L15.9921875,16 L15.9921875,10.2890625 Z M17.203125,12.5507812 L17.90625,12.5507812 C18.2343766,12.5507812 18.4720045,12.5000005 18.6191406,12.3984375 C18.7662768,12.2968745 18.8398438,12.1289074 18.8398438,11.8945312 C18.8398438,11.6757802 18.7597664,11.5188807 18.5996094,11.4238281 C18.4394523,11.3287756 18.1861996,11.28125 17.8398438,11.28125 L17.203125,11.28125 L17.203125,12.5507812 Z M17.203125,13.5117188 L17.203125,15 L17.9921875,15 C18.3255225,15 18.5716138,14.9361986 18.7304688,14.8085938 C18.8893237,14.6809889 18.96875,14.4856784 18.96875,14.2226562 C18.96875,13.7486955 18.6302117,13.5117188 17.953125,13.5117188 L17.203125,13.5117188 Z M26.015625,10.2890625 L26.015625,13.984375 C26.015625,14.4062521 25.9212249,14.7760401 25.7324219,15.09375 C25.5436188,15.4114599 25.2708351,15.6549471 24.9140625,15.8242188 C24.5572899,15.9934904 24.1354191,16.078125 23.6484375,16.078125 C22.9140588,16.078125 22.343752,15.8899758 21.9375,15.5136719 C21.531248,15.1373679 21.328125,14.6223991 21.328125,13.96875 L21.328125,10.2890625 L22.5351562,10.2890625 L22.5351562,13.7851562 C22.5351562,14.2252626 22.623697,14.5481761 22.8007812,14.7539062 C22.9778655,14.9596364 23.2708313,15.0625 23.6796875,15.0625 C24.0755228,15.0625 24.3626293,14.9589854 24.5410156,14.7519531 C24.7194019,14.5449208 24.8085938,14.2200543 24.8085938,13.7773438 L24.8085938,10.2890625 L26.015625,10.2890625 Z M30.703125,16 L27.4140625,16 L27.4140625,10.2890625 L30.703125,10.2890625 L30.703125,11.28125 L28.625,11.28125 L28.625,12.5351562 L30.5585938,12.5351562 L30.5585938,13.5273438 L28.625,13.5273438 L28.625,15 L30.703125,15 L30.703125,16 Z M36.9609375,16 L35.421875,16 L32.9375,11.6796875 L32.9023438,11.6796875 C32.9518232,12.4427121 32.9765625,12.9869775 32.9765625,13.3125 L32.9765625,16 L31.8945312,16 L31.8945312,10.2890625 L33.421875,10.2890625 L35.9023438,14.5664062 L35.9296875,14.5664062 C35.8906248,13.824215 35.8710938,13.2994807 35.8710938,12.9921875 L35.8710938,10.2890625 L36.9609375,10.2890625 L36.9609375,16 Z M41.8945312,16 L41.4804688,14.640625 L39.3984375,14.640625 L38.984375,16 L37.6796875,16 L39.6953125,10.265625 L41.1757812,10.265625 L43.1992188,16 L41.8945312,16 Z M41.1914062,13.625 C40.8085918,12.393223 40.5930992,11.6966154 40.5449219,11.5351562 C40.4967446,11.3736971 40.4622397,11.2460942 40.4414062,11.1523438 C40.3554683,11.4856787 40.109377,12.3098893 39.703125,13.625 L41.1914062,13.625 Z M46.8554688,10.2890625 L48.078125,10.2890625 L46.1367188,16 L44.8164062,16 L42.8789062,10.2890625 L44.1015625,10.2890625 L45.1757812,13.6875 C45.2356774,13.8880218 45.2975257,14.1217435 45.3613281,14.3886719 C45.4251305,14.6556003 45.4648437,14.8411453 45.4804688,14.9453125 C45.5091147,14.705728 45.60677,14.2864613 45.7734375,13.6875 L46.8554688,10.2890625 Z M48.796875,16 L48.796875,10.2890625 L50.0078125,10.2890625 L50.0078125,16 L48.796875,16 Z M54.8164062,14.4140625 C54.8164062,14.9296901 54.6308612,15.335936 54.2597656,15.6328125 C53.88867,15.929689 53.3723991,16.078125 52.7109375,16.078125 C52.1015595,16.078125 51.5625023,15.9635428 51.09375,15.734375 L51.09375,14.609375 C51.4791686,14.7812509 51.8053372,14.9023434 52.0722656,14.9726562 C52.339194,15.0429691 52.5833322,15.078125 52.8046875,15.078125 C53.0703138,15.078125 53.2740878,15.0273443 53.4160156,14.9257812 C53.5579434,14.8242182 53.6289062,14.6731781 53.6289062,14.4726562 C53.6289062,14.3606765 53.5976566,14.2610681 53.5351562,14.1738281 C53.4726559,14.0865881 53.38086,14.0026046 53.2597656,13.921875 C53.1386713,13.8411454 52.8919289,13.7122405 52.5195312,13.5351562 C52.1705712,13.3710929 51.908855,13.2135424 51.734375,13.0625 C51.559895,12.9114576 51.4205734,12.7356781 51.3164062,12.5351562 C51.2122391,12.3346344 51.1601562,12.1002618 51.1601562,11.8320312 C51.1601562,11.3268204 51.3313785,10.9296889 51.6738281,10.640625 C52.0162778,10.3515611 52.4895803,10.2070312 53.09375,10.2070312 C53.3906265,10.2070312 53.6738268,10.2421871 53.9433594,10.3125 C54.212892,10.3828129 54.4947902,10.4817702 54.7890625,10.609375 L54.3984375,11.5507812 C54.0937485,11.4257806 53.8417979,11.3385419 53.6425781,11.2890625 C53.4433584,11.2395831 53.2473968,11.2148438 53.0546875,11.2148438 C52.8255197,11.2148438 52.6497402,11.2682286 52.5273438,11.375 C52.4049473,11.4817714 52.34375,11.6210929 52.34375,11.7929688 C52.34375,11.8997401 52.3684893,11.9928381 52.4179688,12.0722656 C52.4674482,12.1516931 52.5462234,12.2285153 52.6542969,12.3027344 C52.7623703,12.3769535 53.0182271,12.5104157 53.421875,12.703125 C53.9557318,12.9583346 54.3216136,13.2141914 54.5195312,13.4707031 C54.7174489,13.7272148 54.8164062,14.0416648 54.8164062,14.4140625 Z M58.0546875,16 L56.84375,16 L56.84375,11.296875 L55.2929688,11.296875 L55.2929688,10.2890625 L59.6054688,10.2890625 L59.6054688,11.296875 L58.0546875,11.296875 L58.0546875,16 Z M63.421875,16 L63.0078125,14.640625 L60.9257812,14.640625 L60.5117188,16 L59.2070312,16 L61.2226562,10.265625 L62.703125,10.265625 L64.7265625,16 L63.421875,16 Z M62.71875,13.625 C62.3359356,12.393223 62.1204429,11.6966154 62.0722656,11.5351562 C62.0240883,11.3736971 61.9895834,11.2460942 61.96875,11.1523438 C61.8828121,11.4856787 61.6367208,12.3098893 61.2304688,13.625 L62.71875,13.625 Z" id="buenavista" fill="#FFFFFF"></path>
            </g>
        </g>
    </g>
</svg>