<?xml version="1.0" encoding="UTF-8"?>
<svg width="88px" height="27px" viewBox="0 0 88 27" version="1.1" xmlns="http://www.w3.org/2000/svg" xmlns:xlink="http://www.w3.org/1999/xlink">
    <!-- Generator: Sketch 48.2 (47327) - http://www.bohemiancoding.com/sketch -->
    <title>camaronal</title>
    <desc>Created with Sketch.</desc>
    <defs>
        <path d="M30.6751405,6 C29.6123291,7.89393294 29,10.1192398 29,12.5 C29,15.3140148 29.8554731,17.9108487 31.2991578,20 L9,20 C5.13400675,20 2,16.8659932 2,13 C2,9.13400675 5.13400675,6 9,6 L30.6751405,6 Z M50.3248595,6 L72,6 C75.8659932,6 79,9.13400675 79,13 C79,16.8659932 75.8659932,20 72,20 L49.7008422,20 C51.1445269,17.9108487 52,15.3140148 52,12.5 C52,10.1192398 51.3876709,7.89393294 50.3248595,6 Z" id="path-1"></path>
        <filter x="-8.4%" y="-39.3%" width="116.9%" height="192.9%" filterUnits="objectBoundingBox" id="filter-2">
            <feOffset dx="0" dy="1" in="SourceAlpha" result="shadowOffsetOuter1"></feOffset>
            <feGaussianBlur stdDeviation="2" in="shadowOffsetOuter1" result="shadowBlurOuter1"></feGaussianBlur>
            <feColorMatrix values="0 0 0 0 0   0 0 0 0 0   0 0 0 0 0  0 0 0 0.5 0" type="matrix" in="shadowBlurOuter1"></feColorMatrix>
        </filter>
        <rect id="path-3" x="0" y="6" width="80" height="14" rx="7"></rect>
        <filter x="-8.1%" y="-39.3%" width="116.2%" height="192.9%" filterUnits="objectBoundingBox" id="filter-4">
            <feOffset dx="0" dy="1" in="SourceAlpha" result="shadowOffsetOuter1"></feOffset>
            <feGaussianBlur stdDeviation="2" in="shadowOffsetOuter1" result="shadowBlurOuter1"></feGaussianBlur>
            <feColorMatrix values="0 0 0 0 0   0 0 0 0 0   0 0 0 0 0  0 0 0 0.5 0" type="matrix" in="shadowBlurOuter1"></feColorMatrix>
        </filter>
    </defs>
    <g id="Volcanes-fallas" stroke="none" stroke-width="1" fill="none" fill-rule="evenodd">
        <g id="camaronal" transform="translate(4.000000, 1.000000)">
            <g id="ic_volcano_label-copy-18">
                <g id="Group-Copy-3">
                    <g id="Group-26-Copy-4" transform="translate(28.000000, 0.000000)" fill="#FF6D00" stroke="#FFFFFF" stroke-width="0.5">
                        <circle id="Oval-2-Copy-5" cx="12.5" cy="12.5" r="12.5"></circle>
                    </g>
                    <g id="Combined-Shape">
                        <use fill="black" fill-opacity="1" filter="url(#filter-2)" xlink:href="#path-1"></use>
                        <use fill="#263238" fill-rule="evenodd" xlink:href="#path-1"></use>
                    </g>
                    <g id="Rectangle-2-Copy-4">
                        <use fill="black" fill-opacity="1" filter="url(#filter-4)" xlink:href="#path-3"></use>
                        <use fill="#263238" fill-rule="evenodd" xlink:href="#path-3"></use>
                    </g>
                </g>
                <path d="M17.2089844,11.2148438 C16.7532529,11.2148438 16.4003919,11.386066 16.1503906,11.7285156 C15.9003894,12.0709653 15.7753906,12.548174 15.7753906,13.1601562 C15.7753906,14.4336001 16.2532504,15.0703125 17.2089844,15.0703125 C17.610028,15.0703125 18.0957003,14.9700531 18.6660156,14.7695312 L18.6660156,15.7851562 C18.1972633,15.9804697 17.673831,16.078125 17.0957031,16.078125 C16.2649698,16.078125 15.6295595,15.8261744 15.1894531,15.3222656 C14.7493468,14.8183569 14.5292969,14.0950568 14.5292969,13.1523438 C14.5292969,12.5585908 14.6373687,12.0384137 14.8535156,11.5917969 C15.0696625,11.1451801 15.3802063,10.8027356 15.7851562,10.5644531 C16.1901062,10.3261707 16.6647108,10.2070312 17.2089844,10.2070312 C17.7636746,10.2070312 18.3209607,10.3411445 18.8808594,10.609375 L18.4902344,11.59375 C18.2766916,11.492187 18.06185,11.4036462 17.8457031,11.328125 C17.6295562,11.2526038 17.4173187,11.2148438 17.2089844,11.2148438 Z M23.3769531,16 L22.9628906,14.640625 L20.8808594,14.640625 L20.4667969,16 L19.1621094,16 L21.1777344,10.265625 L22.6582031,10.265625 L24.6816406,16 L23.3769531,16 Z M22.6738281,13.625 C22.2910137,12.393223 22.0755211,11.6966154 22.0273438,11.5351562 C21.9791664,11.3736971 21.9446616,11.2460942 21.9238281,11.1523438 C21.8378902,11.4856787 21.5917989,12.3098893 21.1855469,13.625 L22.6738281,13.625 Z M27.8183594,16 L26.4433594,11.5195312 L26.4082031,11.5195312 C26.4576825,12.4309941 26.4824219,13.039061 26.4824219,13.34375 L26.4824219,16 L25.4003906,16 L25.4003906,10.2890625 L27.0488281,10.2890625 L28.4003906,14.65625 L28.4238281,14.65625 L29.8574219,10.2890625 L31.5058594,10.2890625 L31.5058594,16 L30.3769531,16 L30.3769531,13.296875 C30.3769531,13.1692702 30.3789062,13.0221362 30.3828125,12.8554688 C30.3867188,12.6888013 30.4042967,12.2460973 30.4355469,11.5273438 L30.4003906,11.5273438 L28.9277344,16 L27.8183594,16 Z M36.4394531,16 L36.0253906,14.640625 L33.9433594,14.640625 L33.5292969,16 L32.2246094,16 L34.2402344,10.265625 L35.7207031,10.265625 L37.7441406,16 L36.4394531,16 Z M35.7363281,13.625 C35.3535137,12.393223 35.1380211,11.6966154 35.0898438,11.5351562 C35.0416664,11.3736971 35.0071616,11.2460942 34.9863281,11.1523438 C34.9003902,11.4856787 34.6542989,12.3098893 34.2480469,13.625 L35.7363281,13.625 Z M39.6738281,12.8242188 L40.0644531,12.8242188 C40.4472675,12.8242188 40.7298168,12.7604173 40.9121094,12.6328125 C41.094402,12.5052077 41.1855469,12.3046889 41.1855469,12.03125 C41.1855469,11.7604153 41.0924488,11.5677089 40.90625,11.453125 C40.7200512,11.3385411 40.4316426,11.28125 40.0410156,11.28125 L39.6738281,11.28125 L39.6738281,12.8242188 Z M39.6738281,13.8085938 L39.6738281,16 L38.4628906,16 L38.4628906,10.2890625 L40.1269531,10.2890625 C40.9029987,10.2890625 41.4772117,10.4303371 41.8496094,10.7128906 C42.2220071,10.9954441 42.4082031,11.4244763 42.4082031,12 C42.4082031,12.3359392 42.3157561,12.6347643 42.1308594,12.8964844 C41.9459626,13.1582044 41.6842465,13.3632805 41.3457031,13.5117188 C42.2050824,14.7955793 42.7649727,15.6249981 43.0253906,16 L41.6816406,16 L40.3183594,13.8085938 L39.6738281,13.8085938 Z M48.9277344,13.1367188 C48.9277344,14.082036 48.6933617,14.8085912 48.2246094,15.3164062 C47.755857,15.8242213 47.0839888,16.078125 46.2089844,16.078125 C45.33398,16.078125 44.6621117,15.8242213 44.1933594,15.3164062 C43.724607,14.8085912 43.4902344,14.0794318 43.4902344,13.1289062 C43.4902344,12.1783807 43.7252581,11.4524765 44.1953125,10.9511719 C44.6653669,10.4498673 45.3391883,10.1992188 46.2167969,10.1992188 C47.0944054,10.1992188 47.7656227,10.4518204 48.2304688,10.9570312 C48.6953148,11.4622421 48.9277344,12.1887973 48.9277344,13.1367188 Z M44.7597656,13.1367188 C44.7597656,13.7747428 44.8808582,14.2552067 45.1230469,14.578125 C45.3652356,14.9010433 45.7272111,15.0625 46.2089844,15.0625 C47.175135,15.0625 47.6582031,14.4205793 47.6582031,13.1367188 C47.6582031,11.850254 47.1777392,11.2070312 46.2167969,11.2070312 C45.7350236,11.2070312 45.371746,11.369139 45.1269531,11.6933594 C44.8821602,12.0175797 44.7597656,12.4986947 44.7597656,13.1367188 Z M55.1777344,16 L53.6386719,16 L51.1542969,11.6796875 L51.1191406,11.6796875 C51.16862,12.4427121 51.1933594,12.9869775 51.1933594,13.3125 L51.1933594,16 L50.1113281,16 L50.1113281,10.2890625 L51.6386719,10.2890625 L54.1191406,14.5664062 L54.1464844,14.5664062 C54.1074217,13.824215 54.0878906,13.2994807 54.0878906,12.9921875 L54.0878906,10.2890625 L55.1777344,10.2890625 L55.1777344,16 Z M60.1113281,16 L59.6972656,14.640625 L57.6152344,14.640625 L57.2011719,16 L55.8964844,16 L57.9121094,10.265625 L59.3925781,10.265625 L61.4160156,16 L60.1113281,16 Z M59.4082031,13.625 C59.0253887,12.393223 58.8098961,11.6966154 58.7617188,11.5351562 C58.7135414,11.3736971 58.6790366,11.2460942 58.6582031,11.1523438 C58.5722652,11.4856787 58.3261739,12.3098893 57.9199219,13.625 L59.4082031,13.625 Z M62.1347656,16 L62.1347656,10.2890625 L63.3457031,10.2890625 L63.3457031,15 L65.6621094,15 L65.6621094,16 L62.1347656,16 Z" id="camaronal" fill="#FFFFFF"></path>
            </g>
        </g>
    </g>
</svg>