<?xml version="1.0" encoding="UTF-8"?>
<svg width="88px" height="27px" viewBox="0 0 88 27" version="1.1" xmlns="http://www.w3.org/2000/svg" xmlns:xlink="http://www.w3.org/1999/xlink">
    <!-- Generator: Sketch 48.2 (47327) - http://www.bohemiancoding.com/sketch -->
    <title>candelaria</title>
    <desc>Created with Sketch.</desc>
    <defs>
        <path d="M30.6751405,6 C29.6123291,7.89393294 29,10.1192398 29,12.5 C29,15.3140148 29.8554731,17.9108487 31.2991578,20 L9,20 C5.13400675,20 2,16.8659932 2,13 C2,9.13400675 5.13400675,6 9,6 L30.6751405,6 Z M50.3248595,6 L72,6 C75.8659932,6 79,9.13400675 79,13 C79,16.8659932 75.8659932,20 72,20 L49.7008422,20 C51.1445269,17.9108487 52,15.3140148 52,12.5 C52,10.1192398 51.3876709,7.89393294 50.3248595,6 Z" id="path-1"></path>
        <filter x="-8.4%" y="-39.3%" width="116.9%" height="192.9%" filterUnits="objectBoundingBox" id="filter-2">
            <feOffset dx="0" dy="1" in="SourceAlpha" result="shadowOffsetOuter1"></feOffset>
            <feGaussianBlur stdDeviation="2" in="shadowOffsetOuter1" result="shadowBlurOuter1"></feGaussianBlur>
            <feColorMatrix values="0 0 0 0 0   0 0 0 0 0   0 0 0 0 0  0 0 0 0.5 0" type="matrix" in="shadowBlurOuter1"></feColorMatrix>
        </filter>
        <rect id="path-3" x="0" y="6" width="80" height="14" rx="7"></rect>
        <filter x="-8.1%" y="-39.3%" width="116.2%" height="192.9%" filterUnits="objectBoundingBox" id="filter-4">
            <feOffset dx="0" dy="1" in="SourceAlpha" result="shadowOffsetOuter1"></feOffset>
            <feGaussianBlur stdDeviation="2" in="shadowOffsetOuter1" result="shadowBlurOuter1"></feGaussianBlur>
            <feColorMatrix values="0 0 0 0 0   0 0 0 0 0   0 0 0 0 0  0 0 0 0.5 0" type="matrix" in="shadowBlurOuter1"></feColorMatrix>
        </filter>
    </defs>
    <g id="Volcanes-fallas" stroke="none" stroke-width="1" fill="none" fill-rule="evenodd">
        <g id="candelaria" transform="translate(4.000000, 1.000000)">
            <g id="ic_volcano_label-copy-18">
                <g id="Group-Copy-3">
                    <g id="Group-26-Copy-4" transform="translate(28.000000, 0.000000)" fill="#FF6D00" stroke="#FFFFFF" stroke-width="0.5">
                        <circle id="Oval-2-Copy-5" cx="12.5" cy="12.5" r="12.5"></circle>
                    </g>
                    <g id="Combined-Shape">
                        <use fill="black" fill-opacity="1" filter="url(#filter-2)" xlink:href="#path-1"></use>
                        <use fill="#263238" fill-rule="evenodd" xlink:href="#path-1"></use>
                    </g>
                    <g id="Rectangle-2-Copy-4">
                        <use fill="black" fill-opacity="1" filter="url(#filter-4)" xlink:href="#path-3"></use>
                        <use fill="#263238" fill-rule="evenodd" xlink:href="#path-3"></use>
                    </g>
                </g>
                <path d="M17.6386719,11.2148438 C17.1829404,11.2148438 16.8300794,11.386066 16.5800781,11.7285156 C16.3300769,12.0709653 16.2050781,12.548174 16.2050781,13.1601562 C16.2050781,14.4336001 16.6829379,15.0703125 17.6386719,15.0703125 C18.0397155,15.0703125 18.5253878,14.9700531 19.0957031,14.7695312 L19.0957031,15.7851562 C18.6269508,15.9804697 18.1035185,16.078125 17.5253906,16.078125 C16.6946573,16.078125 16.059247,15.8261744 15.6191406,15.3222656 C15.1790343,14.8183569 14.9589844,14.0950568 14.9589844,13.1523438 C14.9589844,12.5585908 15.0670562,12.0384137 15.2832031,11.5917969 C15.49935,11.1451801 15.8098938,10.8027356 16.2148438,10.5644531 C16.6197937,10.3261707 17.0943983,10.2070312 17.6386719,10.2070312 C18.1933621,10.2070312 18.7506482,10.3411445 19.3105469,10.609375 L18.9199219,11.59375 C18.7063791,11.492187 18.4915375,11.4036462 18.2753906,11.328125 C18.0592437,11.2526038 17.8470062,11.2148438 17.6386719,11.2148438 Z M23.8066406,16 L23.3925781,14.640625 L21.3105469,14.640625 L20.8964844,16 L19.5917969,16 L21.6074219,10.265625 L23.0878906,10.265625 L25.1113281,16 L23.8066406,16 Z M23.1035156,13.625 C22.7207012,12.393223 22.5052086,11.6966154 22.4570312,11.5351562 C22.4088539,11.3736971 22.3743491,11.2460942 22.3535156,11.1523438 C22.2675777,11.4856787 22.0214864,12.3098893 21.6152344,13.625 L23.1035156,13.625 Z M30.8964844,16 L29.3574219,16 L26.8730469,11.6796875 L26.8378906,11.6796875 C26.88737,12.4427121 26.9121094,12.9869775 26.9121094,13.3125 L26.9121094,16 L25.8300781,16 L25.8300781,10.2890625 L27.3574219,10.2890625 L29.8378906,14.5664062 L29.8652344,14.5664062 C29.8261717,13.824215 29.8066406,13.2994807 29.8066406,12.9921875 L29.8066406,10.2890625 L30.8964844,10.2890625 L30.8964844,16 Z M37.0722656,13.0898438 C37.0722656,14.0299526 36.8046902,14.7499975 36.2695312,15.25 C35.7343723,15.7500025 34.9615936,16 33.9511719,16 L32.3339844,16 L32.3339844,10.2890625 L34.1269531,10.2890625 C35.0592495,10.2890625 35.7832005,10.5351538 36.2988281,11.0273438 C36.8144557,11.5195337 37.0722656,12.2070268 37.0722656,13.0898438 Z M35.8144531,13.1210938 C35.8144531,11.8945251 35.2727919,11.28125 34.1894531,11.28125 L33.5449219,11.28125 L33.5449219,15 L34.0644531,15 C35.2311256,15 35.8144531,14.3737042 35.8144531,13.1210938 Z M41.5449219,16 L38.2558594,16 L38.2558594,10.2890625 L41.5449219,10.2890625 L41.5449219,11.28125 L39.4667969,11.28125 L39.4667969,12.5351562 L41.4003906,12.5351562 L41.4003906,13.5273438 L39.4667969,13.5273438 L39.4667969,15 L41.5449219,15 L41.5449219,16 Z M42.7363281,16 L42.7363281,10.2890625 L43.9472656,10.2890625 L43.9472656,15 L46.2636719,15 L46.2636719,16 L42.7363281,16 Z M50.7519531,16 L50.3378906,14.640625 L48.2558594,14.640625 L47.8417969,16 L46.5371094,16 L48.5527344,10.265625 L50.0332031,10.265625 L52.0566406,16 L50.7519531,16 Z M50.0488281,13.625 C49.6660137,12.393223 49.4505211,11.6966154 49.4023438,11.5351562 C49.3541664,11.3736971 49.3196616,11.2460942 49.2988281,11.1523438 C49.2128902,11.4856787 48.9667989,12.3098893 48.5605469,13.625 L50.0488281,13.625 Z M53.9863281,12.8242188 L54.3769531,12.8242188 C54.7597675,12.8242188 55.0423168,12.7604173 55.2246094,12.6328125 C55.406902,12.5052077 55.4980469,12.3046889 55.4980469,12.03125 C55.4980469,11.7604153 55.4049488,11.5677089 55.21875,11.453125 C55.0325512,11.3385411 54.7441426,11.28125 54.3535156,11.28125 L53.9863281,11.28125 L53.9863281,12.8242188 Z M53.9863281,13.8085938 L53.9863281,16 L52.7753906,16 L52.7753906,10.2890625 L54.4394531,10.2890625 C55.2154987,10.2890625 55.7897117,10.4303371 56.1621094,10.7128906 C56.5345071,10.9954441 56.7207031,11.4244763 56.7207031,12 C56.7207031,12.3359392 56.6282561,12.6347643 56.4433594,12.8964844 C56.2584626,13.1582044 55.9967465,13.3632805 55.6582031,13.5117188 C56.5175824,14.7955793 57.0774727,15.6249981 57.3378906,16 L55.9941406,16 L54.6308594,13.8085938 L53.9863281,13.8085938 Z M58.0566406,16 L58.0566406,10.2890625 L59.2675781,10.2890625 L59.2675781,16 L58.0566406,16 Z M64.2011719,16 L63.7871094,14.640625 L61.7050781,14.640625 L61.2910156,16 L59.9863281,16 L62.0019531,10.265625 L63.4824219,10.265625 L65.5058594,16 L64.2011719,16 Z M63.4980469,13.625 C63.1152325,12.393223 62.8997398,11.6966154 62.8515625,11.5351562 C62.8033852,11.3736971 62.7688803,11.2460942 62.7480469,11.1523438 C62.6621089,11.4856787 62.4160177,12.3098893 62.0097656,13.625 L63.4980469,13.625 Z" id="candelaria" fill="#FFFFFF"></path>
            </g>
        </g>
    </g>
</svg>