<?xml version="1.0" encoding="UTF-8"?>
<svg width="65px" height="27px" viewBox="0 0 65 27" version="1.1" xmlns="http://www.w3.org/2000/svg" xmlns:xlink="http://www.w3.org/1999/xlink">
    <!-- Generator: Sketch 48.2 (47327) - http://www.bohemiancoding.com/sketch -->
    <title>cangreja</title>
    <desc>Created with Sketch.</desc>
    <defs>
        <path d="M17.8208049,6 C16.6655751,7.89393294 16,10.1192398 16,12.5 C16,15.3140148 16.9298621,17.9108487 18.4990845,20 L7,20 C3.13400675,20 4.73447626e-16,16.8659932 0,13 C-4.73447626e-16,9.13400675 3.13400675,6 7,6 L17.8208049,6 Z M39.1791951,6 L50,6 C53.8659932,6 57,9.13400675 57,13 C57,16.8659932 53.8659932,20 50,20 L38.5009155,20 C40.0701379,17.9108487 41,15.3140148 41,12.5 C41,10.1192398 40.3344249,7.89393294 39.1791951,6 Z" id="path-1"></path>
        <filter x="-11.4%" y="-39.3%" width="122.8%" height="192.9%" filterUnits="objectBoundingBox" id="filter-2">
            <feOffset dx="0" dy="1" in="SourceAlpha" result="shadowOffsetOuter1"></feOffset>
            <feGaussianBlur stdDeviation="2" in="shadowOffsetOuter1" result="shadowBlurOuter1"></feGaussianBlur>
            <feColorMatrix values="0 0 0 0 0   0 0 0 0 0   0 0 0 0 0  0 0 0 0.5 0" type="matrix" in="shadowBlurOuter1"></feColorMatrix>
        </filter>
    </defs>
    <g id="Volcanes-fallas" stroke="none" stroke-width="1" fill="none" fill-rule="evenodd">
        <g id="cangreja" transform="translate(4.000000, 1.000000)">
            <g id="ic_volcano_label-copy-19">
                <g id="Group-Copy-3" transform="translate(16.000000, 0.000000)">
                    <g id="Group-26-Copy-4"></g>
                </g>
                <circle id="Oval-2-Copy-5" stroke="#FFFFFF" stroke-width="0.5" fill="#FF6D00" cx="28.5" cy="12.5" r="12.5"></circle>
                <g id="Combined-Shape">
                    <use fill="black" fill-opacity="1" filter="url(#filter-2)" xlink:href="#path-1"></use>
                    <use fill="#263238" fill-rule="evenodd" xlink:href="#path-1"></use>
                </g>
                <rect id="Rectangle-2-Copy-4" fill="#263238" x="0" y="6" width="57" height="14" rx="7"></rect>
            </g>
            <path d="M10.9824219,11.2148438 C10.5266904,11.2148438 10.1738294,11.386066 9.92382812,11.7285156 C9.67382687,12.0709653 9.54882812,12.548174 9.54882812,13.1601562 C9.54882812,14.4336001 10.0266879,15.0703125 10.9824219,15.0703125 C11.3834655,15.0703125 11.8691378,14.9700531 12.4394531,14.7695312 L12.4394531,15.7851562 C11.9707008,15.9804697 11.4472685,16.078125 10.8691406,16.078125 C10.0384073,16.078125 9.40299699,15.8261744 8.96289062,15.3222656 C8.52278426,14.8183569 8.30273438,14.0950568 8.30273438,13.1523438 C8.30273438,12.5585908 8.41080621,12.0384137 8.62695312,11.5917969 C8.84310004,11.1451801 9.15364381,10.8027356 9.55859375,10.5644531 C9.96354369,10.3261707 10.4381483,10.2070312 10.9824219,10.2070312 C11.5371121,10.2070312 12.0943982,10.3411445 12.6542969,10.609375 L12.2636719,11.59375 C12.0501291,11.492187 11.8352875,11.4036462 11.6191406,11.328125 C11.4029937,11.2526038 11.1907562,11.2148438 10.9824219,11.2148438 Z M17.1503906,16 L16.7363281,14.640625 L14.6542969,14.640625 L14.2402344,16 L12.9355469,16 L14.9511719,10.265625 L16.4316406,10.265625 L18.4550781,16 L17.1503906,16 Z M16.4472656,13.625 C16.0644512,12.393223 15.8489586,11.6966154 15.8007812,11.5351562 C15.7526039,11.3736971 15.7180991,11.2460942 15.6972656,11.1523438 C15.6113277,11.4856787 15.3652364,12.3098893 14.9589844,13.625 L16.4472656,13.625 Z M24.2402344,16 L22.7011719,16 L20.2167969,11.6796875 L20.1816406,11.6796875 C20.23112,12.4427121 20.2558594,12.9869775 20.2558594,13.3125 L20.2558594,16 L19.1738281,16 L19.1738281,10.2890625 L20.7011719,10.2890625 L23.1816406,14.5664062 L23.2089844,14.5664062 C23.1699217,13.824215 23.1503906,13.2994807 23.1503906,12.9921875 L23.1503906,10.2890625 L24.2402344,10.2890625 L24.2402344,16 Z M27.8457031,12.7929688 L30.1113281,12.7929688 L30.1113281,15.7539062 C29.7441388,15.8736985 29.3984391,15.9576821 29.0742188,16.0058594 C28.7499984,16.0540367 28.4186215,16.078125 28.0800781,16.078125 C27.2180946,16.078125 26.5598981,15.8248723 26.1054688,15.3183594 C25.6510394,14.8118464 25.4238281,14.0846402 25.4238281,13.1367188 C25.4238281,12.2148391 25.6874974,11.4960963 26.2148438,10.9804688 C26.7421901,10.4648412 27.4733026,10.2070312 28.4082031,10.2070312 C28.9941436,10.2070312 29.5592421,10.3242176 30.1035156,10.5585938 L29.7011719,11.5273438 C29.2845031,11.3190094 28.8509137,11.2148438 28.4003906,11.2148438 C27.8769505,11.2148438 27.4576839,11.3906232 27.1425781,11.7421875 C26.8274724,12.0937518 26.6699219,12.5664033 26.6699219,13.1601562 C26.6699219,13.779951 26.7968737,14.2532536 27.0507812,14.5800781 C27.3046888,14.9069027 27.6738257,15.0703125 28.1582031,15.0703125 C28.4108086,15.0703125 28.6673164,15.0442711 28.9277344,14.9921875 L28.9277344,13.8007812 L27.8457031,13.8007812 L27.8457031,12.7929688 Z M32.6816406,12.8242188 L33.0722656,12.8242188 C33.45508,12.8242188 33.7376293,12.7604173 33.9199219,12.6328125 C34.1022145,12.5052077 34.1933594,12.3046889 34.1933594,12.03125 C34.1933594,11.7604153 34.1002613,11.5677089 33.9140625,11.453125 C33.7278637,11.3385411 33.4394551,11.28125 33.0488281,11.28125 L32.6816406,11.28125 L32.6816406,12.8242188 Z M32.6816406,13.8085938 L32.6816406,16 L31.4707031,16 L31.4707031,10.2890625 L33.1347656,10.2890625 C33.9108112,10.2890625 34.4850242,10.4303371 34.8574219,10.7128906 C35.2298196,10.9954441 35.4160156,11.4244763 35.4160156,12 C35.4160156,12.3359392 35.3235686,12.6347643 35.1386719,12.8964844 C34.9537751,13.1582044 34.692059,13.3632805 34.3535156,13.5117188 C35.2128949,14.7955793 35.7727852,15.6249981 36.0332031,16 L34.6894531,16 L33.3261719,13.8085938 L32.6816406,13.8085938 Z M40.0410156,16 L36.7519531,16 L36.7519531,10.2890625 L40.0410156,10.2890625 L40.0410156,11.28125 L37.9628906,11.28125 L37.9628906,12.5351562 L39.8964844,12.5351562 L39.8964844,13.5273438 L37.9628906,13.5273438 L37.9628906,15 L40.0410156,15 L40.0410156,16 Z M41.1152344,17.6796875 C40.8417955,17.6796875 40.6035166,17.651042 40.4003906,17.59375 L40.4003906,16.5859375 C40.608725,16.6380211 40.7988273,16.6640625 40.9707031,16.6640625 C41.2363295,16.6640625 41.4264317,16.581381 41.5410156,16.4160156 C41.6555995,16.2506502 41.7128906,15.9921893 41.7128906,15.640625 L41.7128906,10.2890625 L42.9238281,10.2890625 L42.9238281,15.6328125 C42.9238281,16.2994825 42.7714859,16.8072899 42.4667969,17.15625 C42.1621079,17.5052101 41.7115915,17.6796875 41.1152344,17.6796875 Z M47.8574219,16 L47.4433594,14.640625 L45.3613281,14.640625 L44.9472656,16 L43.6425781,16 L45.6582031,10.265625 L47.1386719,10.265625 L49.1621094,16 L47.8574219,16 Z M47.1542969,13.625 C46.7714825,12.393223 46.5559898,11.6966154 46.5078125,11.5351562 C46.4596352,11.3736971 46.4251303,11.2460942 46.4042969,11.1523438 C46.3183589,11.4856787 46.0722677,12.3098893 45.6660156,13.625 L47.1542969,13.625 Z" fill="#FFFFFF"></path>
        </g>
    </g>
</svg>