<?xml version="1.0" encoding="UTF-8"?>
<svg width="65px" height="27px" viewBox="0 0 65 27" version="1.1" xmlns="http://www.w3.org/2000/svg" xmlns:xlink="http://www.w3.org/1999/xlink">
    <!-- Generator: Sketch 48.2 (47327) - http://www.bohemiancoding.com/sketch -->
    <title>canoas</title>
    <desc>Created with Sketch.</desc>
    <defs>
        <path d="M17.8208049,6 C16.6655751,7.89393294 16,10.1192398 16,12.5 C16,15.3140148 16.9298621,17.9108487 18.4990845,20 L7,20 C3.13400675,20 4.73447626e-16,16.8659932 0,13 C-4.73447626e-16,9.13400675 3.13400675,6 7,6 L17.8208049,6 Z M39.1791951,6 L50,6 C53.8659932,6 57,9.13400675 57,13 C57,16.8659932 53.8659932,20 50,20 L38.5009155,20 C40.0701379,17.9108487 41,15.3140148 41,12.5 C41,10.1192398 40.3344249,7.89393294 39.1791951,6 Z" id="path-1"></path>
        <filter x="-11.4%" y="-39.3%" width="122.8%" height="192.9%" filterUnits="objectBoundingBox" id="filter-2">
            <feOffset dx="0" dy="1" in="SourceAlpha" result="shadowOffsetOuter1"></feOffset>
            <feGaussianBlur stdDeviation="2" in="shadowOffsetOuter1" result="shadowBlurOuter1"></feGaussianBlur>
            <feColorMatrix values="0 0 0 0 0   0 0 0 0 0   0 0 0 0 0  0 0 0 0.5 0" type="matrix" in="shadowBlurOuter1"></feColorMatrix>
        </filter>
    </defs>
    <g id="Volcanes-fallas" stroke="none" stroke-width="1" fill="none" fill-rule="evenodd">
        <g id="canoas" transform="translate(4.000000, 1.000000)">
            <g id="ic_volcano_label-copy-19">
                <g id="Group-Copy-3" transform="translate(16.000000, 0.000000)">
                    <g id="Group-26-Copy-4"></g>
                </g>
                <circle id="Oval-2-Copy-5" stroke="#FFFFFF" stroke-width="0.5" fill="#FF6D00" cx="28.5" cy="12.5" r="12.5"></circle>
                <g id="Combined-Shape">
                    <use fill="black" fill-opacity="1" filter="url(#filter-2)" xlink:href="#path-1"></use>
                    <use fill="#263238" fill-rule="evenodd" xlink:href="#path-1"></use>
                </g>
                <rect id="Rectangle-2-Copy-4" fill="#263238" x="0" y="6" width="57" height="14" rx="7"></rect>
            </g>
            <path d="M15.0175781,11.2148438 C14.5618467,11.2148438 14.2089856,11.386066 13.9589844,11.7285156 C13.7089831,12.0709653 13.5839844,12.548174 13.5839844,13.1601562 C13.5839844,14.4336001 14.0618442,15.0703125 15.0175781,15.0703125 C15.4186218,15.0703125 15.904294,14.9700531 16.4746094,14.7695312 L16.4746094,15.7851562 C16.005857,15.9804697 15.4824248,16.078125 14.9042969,16.078125 C14.0735636,16.078125 13.4381532,15.8261744 12.9980469,15.3222656 C12.5579405,14.8183569 12.3378906,14.0950568 12.3378906,13.1523438 C12.3378906,12.5585908 12.4459625,12.0384137 12.6621094,11.5917969 C12.8782563,11.1451801 13.1888001,10.8027356 13.59375,10.5644531 C13.9986999,10.3261707 14.4733046,10.2070312 15.0175781,10.2070312 C15.5722684,10.2070312 16.1295545,10.3411445 16.6894531,10.609375 L16.2988281,11.59375 C16.0852854,11.492187 15.8704438,11.4036462 15.6542969,11.328125 C15.43815,11.2526038 15.2259125,11.2148438 15.0175781,11.2148438 Z M21.1855469,16 L20.7714844,14.640625 L18.6894531,14.640625 L18.2753906,16 L16.9707031,16 L18.9863281,10.265625 L20.4667969,10.265625 L22.4902344,16 L21.1855469,16 Z M20.4824219,13.625 C20.0996075,12.393223 19.8841148,11.6966154 19.8359375,11.5351562 C19.7877602,11.3736971 19.7532553,11.2460942 19.7324219,11.1523438 C19.6464839,11.4856787 19.4003927,12.3098893 18.9941406,13.625 L20.4824219,13.625 Z M28.2753906,16 L26.7363281,16 L24.2519531,11.6796875 L24.2167969,11.6796875 C24.2662763,12.4427121 24.2910156,12.9869775 24.2910156,13.3125 L24.2910156,16 L23.2089844,16 L23.2089844,10.2890625 L24.7363281,10.2890625 L27.2167969,14.5664062 L27.2441406,14.5664062 C27.2050779,13.824215 27.1855469,13.2994807 27.1855469,12.9921875 L27.1855469,10.2890625 L28.2753906,10.2890625 L28.2753906,16 Z M34.8964844,13.1367188 C34.8964844,14.082036 34.6621117,14.8085912 34.1933594,15.3164062 C33.724607,15.8242213 33.0527388,16.078125 32.1777344,16.078125 C31.30273,16.078125 30.6308617,15.8242213 30.1621094,15.3164062 C29.693357,14.8085912 29.4589844,14.0794318 29.4589844,13.1289062 C29.4589844,12.1783807 29.6940081,11.4524765 30.1640625,10.9511719 C30.6341169,10.4498673 31.3079383,10.1992188 32.1855469,10.1992188 C33.0631554,10.1992188 33.7343727,10.4518204 34.1992188,10.9570312 C34.6640648,11.4622421 34.8964844,12.1887973 34.8964844,13.1367188 Z M30.7285156,13.1367188 C30.7285156,13.7747428 30.8496082,14.2552067 31.0917969,14.578125 C31.3339856,14.9010433 31.6959611,15.0625 32.1777344,15.0625 C33.143885,15.0625 33.6269531,14.4205793 33.6269531,13.1367188 C33.6269531,11.850254 33.1464892,11.2070312 32.1855469,11.2070312 C31.7037736,11.2070312 31.340496,11.369139 31.0957031,11.6933594 C30.8509102,12.0175797 30.7285156,12.4986947 30.7285156,13.1367188 Z M39.4160156,16 L39.0019531,14.640625 L36.9199219,14.640625 L36.5058594,16 L35.2011719,16 L37.2167969,10.265625 L38.6972656,10.265625 L40.7207031,16 L39.4160156,16 Z M38.7128906,13.625 C38.3300762,12.393223 38.1145836,11.6966154 38.0664062,11.5351562 C38.0182289,11.3736971 37.9837241,11.2460942 37.9628906,11.1523438 C37.8769527,11.4856787 37.6308614,12.3098893 37.2246094,13.625 L38.7128906,13.625 Z M44.8105469,14.4140625 C44.8105469,14.9296901 44.6250019,15.335936 44.2539062,15.6328125 C43.8828106,15.929689 43.3665398,16.078125 42.7050781,16.078125 C42.0957001,16.078125 41.556643,15.9635428 41.0878906,15.734375 L41.0878906,14.609375 C41.4733092,14.7812509 41.7994778,14.9023434 42.0664062,14.9726562 C42.3333347,15.0429691 42.5774729,15.078125 42.7988281,15.078125 C43.0644545,15.078125 43.2682285,15.0273443 43.4101562,14.9257812 C43.552084,14.8242182 43.6230469,14.6731781 43.6230469,14.4726562 C43.6230469,14.3606765 43.5917972,14.2610681 43.5292969,14.1738281 C43.4667966,14.0865881 43.3750006,14.0026046 43.2539062,13.921875 C43.1328119,13.8411454 42.8860696,13.7122405 42.5136719,13.5351562 C42.1647118,13.3710929 41.9029957,13.2135424 41.7285156,13.0625 C41.5540356,12.9114576 41.4147141,12.7356781 41.3105469,12.5351562 C41.2063797,12.3346344 41.1542969,12.1002618 41.1542969,11.8320312 C41.1542969,11.3268204 41.3255191,10.9296889 41.6679688,10.640625 C42.0104184,10.3515611 42.4837209,10.2070312 43.0878906,10.2070312 C43.3847671,10.2070312 43.6679674,10.2421871 43.9375,10.3125 C44.2070326,10.3828129 44.4889308,10.4817702 44.7832031,10.609375 L44.3925781,11.5507812 C44.0878891,11.4257806 43.8359385,11.3385419 43.6367188,11.2890625 C43.437499,11.2395831 43.2415374,11.2148438 43.0488281,11.2148438 C42.8196603,11.2148438 42.6438808,11.2682286 42.5214844,11.375 C42.3990879,11.4817714 42.3378906,11.6210929 42.3378906,11.7929688 C42.3378906,11.8997401 42.36263,11.9928381 42.4121094,12.0722656 C42.4615888,12.1516931 42.540364,12.2285153 42.6484375,12.3027344 C42.756511,12.3769535 43.0123678,12.5104157 43.4160156,12.703125 C43.9498725,12.9583346 44.3157542,13.2141914 44.5136719,13.4707031 C44.7115895,13.7272148 44.8105469,14.0416648 44.8105469,14.4140625 Z" fill="#FFFFFF"></path>
        </g>
    </g>
</svg>