<?xml version="1.0" encoding="UTF-8"?>
<svg width="65px" height="27px" viewBox="0 0 65 27" version="1.1" xmlns="http://www.w3.org/2000/svg" xmlns:xlink="http://www.w3.org/1999/xlink">
    <!-- Generator: Sketch 48.2 (47327) - http://www.bohemiancoding.com/sketch -->
    <title>cañas</title>
    <desc>Created with Sketch.</desc>
    <defs>
        <path d="M17.8208049,6 C16.6655751,7.89393294 16,10.1192398 16,12.5 C16,15.3140148 16.9298621,17.9108487 18.4990845,20 L7,20 C3.13400675,20 4.73447626e-16,16.8659932 0,13 C-4.73447626e-16,9.13400675 3.13400675,6 7,6 L17.8208049,6 Z M39.1791951,6 L50,6 C53.8659932,6 57,9.13400675 57,13 C57,16.8659932 53.8659932,20 50,20 L38.5009155,20 C40.0701379,17.9108487 41,15.3140148 41,12.5 C41,10.1192398 40.3344249,7.89393294 39.1791951,6 Z" id="path-1"></path>
        <filter x="-11.4%" y="-39.3%" width="122.8%" height="192.9%" filterUnits="objectBoundingBox" id="filter-2">
            <feOffset dx="0" dy="1" in="SourceAlpha" result="shadowOffsetOuter1"></feOffset>
            <feGaussianBlur stdDeviation="2" in="shadowOffsetOuter1" result="shadowBlurOuter1"></feGaussianBlur>
            <feColorMatrix values="0 0 0 0 0   0 0 0 0 0   0 0 0 0 0  0 0 0 0.5 0" type="matrix" in="shadowBlurOuter1"></feColorMatrix>
        </filter>
    </defs>
    <g id="Volcanes-fallas" stroke="none" stroke-width="1" fill="none" fill-rule="evenodd">
        <g id="cañas" transform="translate(4.000000, 1.000000)">
            <g id="ic_volcano_label-copy-19">
                <g id="Group-Copy-3" transform="translate(16.000000, 0.000000)">
                    <g id="Group-26-Copy-4"></g>
                </g>
                <circle id="Oval-2-Copy-5" stroke="#FFFFFF" stroke-width="0.5" fill="#FF6D00" cx="28.5" cy="12.5" r="12.5"></circle>
                <g id="Combined-Shape">
                    <use fill="black" fill-opacity="1" filter="url(#filter-2)" xlink:href="#path-1"></use>
                    <use fill="#263238" fill-rule="evenodd" xlink:href="#path-1"></use>
                </g>
                <rect id="Rectangle-2-Copy-4" fill="#263238" x="0" y="6" width="57" height="14" rx="7"></rect>
            </g>
            <path d="M18.1210938,11.2148438 C17.6653623,11.2148438 17.3125013,11.386066 17.0625,11.7285156 C16.8124987,12.0709653 16.6875,12.548174 16.6875,13.1601562 C16.6875,14.4336001 17.1653598,15.0703125 18.1210938,15.0703125 C18.5221374,15.0703125 19.0078096,14.9700531 19.578125,14.7695312 L19.578125,15.7851562 C19.1093727,15.9804697 18.5859404,16.078125 18.0078125,16.078125 C17.1770792,16.078125 16.5416689,15.8261744 16.1015625,15.3222656 C15.6614561,14.8183569 15.4414062,14.0950568 15.4414062,13.1523438 C15.4414062,12.5585908 15.5494781,12.0384137 15.765625,11.5917969 C15.9817719,11.1451801 16.2923157,10.8027356 16.6972656,10.5644531 C17.1022156,10.3261707 17.5768202,10.2070312 18.1210938,10.2070312 C18.675784,10.2070312 19.2330701,10.3411445 19.7929688,10.609375 L19.4023438,11.59375 C19.188801,11.492187 18.9739594,11.4036462 18.7578125,11.328125 C18.5416656,11.2526038 18.3294281,11.2148438 18.1210938,11.2148438 Z M24.2890625,16 L23.875,14.640625 L21.7929688,14.640625 L21.3789062,16 L20.0742188,16 L22.0898438,10.265625 L23.5703125,10.265625 L25.59375,16 L24.2890625,16 Z M23.5859375,13.625 C23.2031231,12.393223 22.9876304,11.6966154 22.9394531,11.5351562 C22.8912758,11.3736971 22.8567709,11.2460942 22.8359375,11.1523438 C22.7499996,11.4856787 22.5039083,12.3098893 22.0976562,13.625 L23.5859375,13.625 Z M31.3789062,16 L29.8398438,16 L27.3554688,11.6796875 L27.3203125,11.6796875 C27.3697919,12.4427121 27.3945312,12.9869775 27.3945312,13.3125 L27.3945312,16 L26.3125,16 L26.3125,10.2890625 L27.8398438,10.2890625 L30.3203125,14.5664062 L30.3476562,14.5664062 C30.3085936,13.824215 30.2890625,13.2994807 30.2890625,12.9921875 L30.2890625,10.2890625 L31.3789062,10.2890625 L31.3789062,16 Z M28.203125,9.421875 C28.1223954,9.421875 28.0449222,9.45637986 27.9707031,9.52539062 C27.896484,9.59440139 27.8424481,9.69921805 27.8085938,9.83984375 L27.2265625,9.83984375 C27.2552085,9.4622377 27.3626293,9.16666773 27.5488281,8.953125 C27.735027,8.73958227 27.9817693,8.6328125 28.2890625,8.6328125 C28.3958339,8.6328125 28.5006505,8.65429666 28.6035156,8.69726562 C28.7063807,8.74023459 28.8079422,8.78710912 28.9082031,8.83789062 C29.008464,8.88867213 29.1067704,8.93489562 29.203125,8.9765625 C29.2994796,9.01822938 29.3945308,9.0390625 29.4882812,9.0390625 C29.5690108,9.0390625 29.646484,9.00520867 29.7207031,8.9375 C29.7949222,8.86979133 29.8489582,8.7656257 29.8828125,8.625 L30.4648438,8.625 C30.4361978,9.00260605 30.3274749,9.29817602 30.1386719,9.51171875 C29.9498688,9.72526148 29.7044286,9.83203125 29.4023438,9.83203125 C29.2955724,9.83203125 29.1907557,9.81054709 29.0878906,9.76757812 C28.9850255,9.72460916 28.883464,9.67773463 28.7832031,9.62695312 C28.6829422,9.57617162 28.5846359,9.52929709 28.4882812,9.48632812 C28.3919266,9.44335916 28.2968755,9.421875 28.203125,9.421875 Z M36.3125,16 L35.8984375,14.640625 L33.8164062,14.640625 L33.4023438,16 L32.0976562,16 L34.1132812,10.265625 L35.59375,10.265625 L37.6171875,16 L36.3125,16 Z M35.609375,13.625 C35.2265606,12.393223 35.0110679,11.6966154 34.9628906,11.5351562 C34.9147133,11.3736971 34.8802084,11.2460942 34.859375,11.1523438 C34.7734371,11.4856787 34.5273458,12.3098893 34.1210938,13.625 L35.609375,13.625 Z M41.7070312,14.4140625 C41.7070312,14.9296901 41.5214862,15.335936 41.1503906,15.6328125 C40.779295,15.929689 40.2630241,16.078125 39.6015625,16.078125 C38.9921845,16.078125 38.4531273,15.9635428 37.984375,15.734375 L37.984375,14.609375 C38.3697936,14.7812509 38.6959622,14.9023434 38.9628906,14.9726562 C39.229819,15.0429691 39.4739572,15.078125 39.6953125,15.078125 C39.9609388,15.078125 40.1647128,15.0273443 40.3066406,14.9257812 C40.4485684,14.8242182 40.5195312,14.6731781 40.5195312,14.4726562 C40.5195312,14.3606765 40.4882816,14.2610681 40.4257812,14.1738281 C40.3632809,14.0865881 40.271485,14.0026046 40.1503906,13.921875 C40.0292963,13.8411454 39.7825539,13.7122405 39.4101562,13.5351562 C39.0611962,13.3710929 38.79948,13.2135424 38.625,13.0625 C38.45052,12.9114576 38.3111984,12.7356781 38.2070312,12.5351562 C38.1028641,12.3346344 38.0507812,12.1002618 38.0507812,11.8320312 C38.0507812,11.3268204 38.2220035,10.9296889 38.5644531,10.640625 C38.9069028,10.3515611 39.3802053,10.2070312 39.984375,10.2070312 C40.2812515,10.2070312 40.5644518,10.2421871 40.8339844,10.3125 C41.103517,10.3828129 41.3854152,10.4817702 41.6796875,10.609375 L41.2890625,11.5507812 C40.9843735,11.4257806 40.7324229,11.3385419 40.5332031,11.2890625 C40.3339834,11.2395831 40.1380218,11.2148438 39.9453125,11.2148438 C39.7161447,11.2148438 39.5403652,11.2682286 39.4179688,11.375 C39.2955723,11.4817714 39.234375,11.6210929 39.234375,11.7929688 C39.234375,11.8997401 39.2591143,11.9928381 39.3085938,12.0722656 C39.3580732,12.1516931 39.4368484,12.2285153 39.5449219,12.3027344 C39.6529953,12.3769535 39.9088521,12.5104157 40.3125,12.703125 C40.8463568,12.9583346 41.2122386,13.2141914 41.4101562,13.4707031 C41.6080739,13.7272148 41.7070312,14.0416648 41.7070312,14.4140625 Z" fill="#FFFFFF"></path>
        </g>
    </g>
</svg>