<?xml version="1.0" encoding="UTF-8"?>
<svg width="88px" height="27px" viewBox="0 0 88 27" version="1.1" xmlns="http://www.w3.org/2000/svg" xmlns:xlink="http://www.w3.org/1999/xlink">
    <!-- Generator: Sketch 48.2 (47327) - http://www.bohemiancoding.com/sketch -->
    <title>carbonera</title>
    <desc>Created with Sketch.</desc>
    <defs>
        <path d="M30.6751405,6 C29.6123291,7.89393294 29,10.1192398 29,12.5 C29,15.3140148 29.8554731,17.9108487 31.2991578,20 L9,20 C5.13400675,20 2,16.8659932 2,13 C2,9.13400675 5.13400675,6 9,6 L30.6751405,6 Z M50.3248595,6 L72,6 C75.8659932,6 79,9.13400675 79,13 C79,16.8659932 75.8659932,20 72,20 L49.7008422,20 C51.1445269,17.9108487 52,15.3140148 52,12.5 C52,10.1192398 51.3876709,7.89393294 50.3248595,6 Z" id="path-1"></path>
        <filter x="-8.4%" y="-39.3%" width="116.9%" height="192.9%" filterUnits="objectBoundingBox" id="filter-2">
            <feOffset dx="0" dy="1" in="SourceAlpha" result="shadowOffsetOuter1"></feOffset>
            <feGaussianBlur stdDeviation="2" in="shadowOffsetOuter1" result="shadowBlurOuter1"></feGaussianBlur>
            <feColorMatrix values="0 0 0 0 0   0 0 0 0 0   0 0 0 0 0  0 0 0 0.5 0" type="matrix" in="shadowBlurOuter1"></feColorMatrix>
        </filter>
        <rect id="path-3" x="0" y="6" width="80" height="14" rx="7"></rect>
        <filter x="-8.1%" y="-39.3%" width="116.2%" height="192.9%" filterUnits="objectBoundingBox" id="filter-4">
            <feOffset dx="0" dy="1" in="SourceAlpha" result="shadowOffsetOuter1"></feOffset>
            <feGaussianBlur stdDeviation="2" in="shadowOffsetOuter1" result="shadowBlurOuter1"></feGaussianBlur>
            <feColorMatrix values="0 0 0 0 0   0 0 0 0 0   0 0 0 0 0  0 0 0 0.5 0" type="matrix" in="shadowBlurOuter1"></feColorMatrix>
        </filter>
    </defs>
    <g id="Volcanes-fallas" stroke="none" stroke-width="1" fill="none" fill-rule="evenodd">
        <g id="carbonera" transform="translate(4.000000, 1.000000)">
            <g id="ic_volcano_label-copy-18">
                <g id="Group-Copy-3">
                    <g id="Group-26-Copy-4" transform="translate(28.000000, 0.000000)" fill="#FF6D00" stroke="#FFFFFF" stroke-width="0.5">
                        <circle id="Oval-2-Copy-5" cx="12.5" cy="12.5" r="12.5"></circle>
                    </g>
                    <g id="Combined-Shape">
                        <use fill="black" fill-opacity="1" filter="url(#filter-2)" xlink:href="#path-1"></use>
                        <use fill="#263238" fill-rule="evenodd" xlink:href="#path-1"></use>
                    </g>
                    <g id="Rectangle-2-Copy-4">
                        <use fill="black" fill-opacity="1" filter="url(#filter-4)" xlink:href="#path-3"></use>
                        <use fill="#263238" fill-rule="evenodd" xlink:href="#path-3"></use>
                    </g>
                </g>
                <path d="M18.4316406,11.2148438 C17.9759092,11.2148438 17.6230481,11.386066 17.3730469,11.7285156 C17.1230456,12.0709653 16.9980469,12.548174 16.9980469,13.1601562 C16.9980469,14.4336001 17.4759067,15.0703125 18.4316406,15.0703125 C18.8326843,15.0703125 19.3183565,14.9700531 19.8886719,14.7695312 L19.8886719,15.7851562 C19.4199195,15.9804697 18.8964873,16.078125 18.3183594,16.078125 C17.4876261,16.078125 16.8522157,15.8261744 16.4121094,15.3222656 C15.972003,14.8183569 15.7519531,14.0950568 15.7519531,13.1523438 C15.7519531,12.5585908 15.860025,12.0384137 16.0761719,11.5917969 C16.2923188,11.1451801 16.6028626,10.8027356 17.0078125,10.5644531 C17.4127624,10.3261707 17.8873671,10.2070312 18.4316406,10.2070312 C18.9863309,10.2070312 19.543617,10.3411445 20.1035156,10.609375 L19.7128906,11.59375 C19.4993479,11.492187 19.2845063,11.4036462 19.0683594,11.328125 C18.8522125,11.2526038 18.639975,11.2148438 18.4316406,11.2148438 Z M24.5996094,16 L24.1855469,14.640625 L22.1035156,14.640625 L21.6894531,16 L20.3847656,16 L22.4003906,10.265625 L23.8808594,10.265625 L25.9042969,16 L24.5996094,16 Z M23.8964844,13.625 C23.51367,12.393223 23.2981773,11.6966154 23.25,11.5351562 C23.2018227,11.3736971 23.1673178,11.2460942 23.1464844,11.1523438 C23.0605464,11.4856787 22.8144552,12.3098893 22.4082031,13.625 L23.8964844,13.625 Z M27.8339844,12.8242188 L28.2246094,12.8242188 C28.6074238,12.8242188 28.889973,12.7604173 29.0722656,12.6328125 C29.2545582,12.5052077 29.3457031,12.3046889 29.3457031,12.03125 C29.3457031,11.7604153 29.2526051,11.5677089 29.0664062,11.453125 C28.8802074,11.3385411 28.5917988,11.28125 28.2011719,11.28125 L27.8339844,11.28125 L27.8339844,12.8242188 Z M27.8339844,13.8085938 L27.8339844,16 L26.6230469,16 L26.6230469,10.2890625 L28.2871094,10.2890625 C29.0631549,10.2890625 29.6373679,10.4303371 30.0097656,10.7128906 C30.3821633,10.9954441 30.5683594,11.4244763 30.5683594,12 C30.5683594,12.3359392 30.4759124,12.6347643 30.2910156,12.8964844 C30.1061189,13.1582044 29.8444027,13.3632805 29.5058594,13.5117188 C30.3652387,14.7955793 30.9251289,15.6249981 31.1855469,16 L29.8417969,16 L28.4785156,13.8085938 L27.8339844,13.8085938 Z M31.9042969,10.2890625 L33.6816406,10.2890625 C34.4915405,10.2890625 35.0794253,10.4042957 35.4453125,10.6347656 C35.8111997,10.8652355 35.9941406,11.2317683 35.9941406,11.734375 C35.9941406,12.0755225 35.9140633,12.3554677 35.7539062,12.5742188 C35.5937492,12.7929698 35.3808607,12.9244789 35.1152344,12.96875 L35.1152344,13.0078125 C35.4772154,13.0885421 35.7382804,13.2395822 35.8984375,13.4609375 C36.0585946,13.6822928 36.1386719,13.9765607 36.1386719,14.34375 C36.1386719,14.8645859 35.9505227,15.2708319 35.5742188,15.5625 C35.1979148,15.8541681 34.6868522,16 34.0410156,16 L31.9042969,16 L31.9042969,10.2890625 Z M33.1152344,12.5507812 L33.8183594,12.5507812 C34.146486,12.5507812 34.3841138,12.5000005 34.53125,12.3984375 C34.6783862,12.2968745 34.7519531,12.1289074 34.7519531,11.8945312 C34.7519531,11.6757802 34.6718758,11.5188807 34.5117188,11.4238281 C34.3515617,11.3287756 34.098309,11.28125 33.7519531,11.28125 L33.1152344,11.28125 L33.1152344,12.5507812 Z M33.1152344,13.5117188 L33.1152344,15 L33.9042969,15 C34.2376319,15 34.4837232,14.9361986 34.6425781,14.8085938 C34.8014331,14.6809889 34.8808594,14.4856784 34.8808594,14.2226562 C34.8808594,13.7486955 34.5423211,13.5117188 33.8652344,13.5117188 L33.1152344,13.5117188 Z M42.4628906,13.1367188 C42.4628906,14.082036 42.228518,14.8085912 41.7597656,15.3164062 C41.2910133,15.8242213 40.619145,16.078125 39.7441406,16.078125 C38.8691363,16.078125 38.197268,15.8242213 37.7285156,15.3164062 C37.2597633,14.8085912 37.0253906,14.0794318 37.0253906,13.1289062 C37.0253906,12.1783807 37.2604143,11.4524765 37.7304688,10.9511719 C38.2005232,10.4498673 38.8743446,10.1992188 39.7519531,10.1992188 C40.6295617,10.1992188 41.3007789,10.4518204 41.765625,10.9570312 C42.2304711,11.4622421 42.4628906,12.1887973 42.4628906,13.1367188 Z M38.2949219,13.1367188 C38.2949219,13.7747428 38.4160144,14.2552067 38.6582031,14.578125 C38.9003918,14.9010433 39.2623674,15.0625 39.7441406,15.0625 C40.7102913,15.0625 41.1933594,14.4205793 41.1933594,13.1367188 C41.1933594,11.850254 40.7128954,11.2070312 39.7519531,11.2070312 C39.2701799,11.2070312 38.9069023,11.369139 38.6621094,11.6933594 C38.4173165,12.0175797 38.2949219,12.4986947 38.2949219,13.1367188 Z M48.7128906,16 L47.1738281,16 L44.6894531,11.6796875 L44.6542969,11.6796875 C44.7037763,12.4427121 44.7285156,12.9869775 44.7285156,13.3125 L44.7285156,16 L43.6464844,16 L43.6464844,10.2890625 L45.1738281,10.2890625 L47.6542969,14.5664062 L47.6816406,14.5664062 C47.6425779,13.824215 47.6230469,13.2994807 47.6230469,12.9921875 L47.6230469,10.2890625 L48.7128906,10.2890625 L48.7128906,16 Z M53.4394531,16 L50.1503906,16 L50.1503906,10.2890625 L53.4394531,10.2890625 L53.4394531,11.28125 L51.3613281,11.28125 L51.3613281,12.5351562 L53.2949219,12.5351562 L53.2949219,13.5273438 L51.3613281,13.5273438 L51.3613281,15 L53.4394531,15 L53.4394531,16 Z M55.8417969,12.8242188 L56.2324219,12.8242188 C56.6152363,12.8242188 56.8977855,12.7604173 57.0800781,12.6328125 C57.2623707,12.5052077 57.3535156,12.3046889 57.3535156,12.03125 C57.3535156,11.7604153 57.2604176,11.5677089 57.0742188,11.453125 C56.8880199,11.3385411 56.5996113,11.28125 56.2089844,11.28125 L55.8417969,11.28125 L55.8417969,12.8242188 Z M55.8417969,13.8085938 L55.8417969,16 L54.6308594,16 L54.6308594,10.2890625 L56.2949219,10.2890625 C57.0709674,10.2890625 57.6451804,10.4303371 58.0175781,10.7128906 C58.3899758,10.9954441 58.5761719,11.4244763 58.5761719,12 C58.5761719,12.3359392 58.4837249,12.6347643 58.2988281,12.8964844 C58.1139314,13.1582044 57.8522152,13.3632805 57.5136719,13.5117188 C58.3730512,14.7955793 58.9329414,15.6249981 59.1933594,16 L57.8496094,16 L56.4863281,13.8085938 L55.8417969,13.8085938 Z M63.4082031,16 L62.9941406,14.640625 L60.9121094,14.640625 L60.4980469,16 L59.1933594,16 L61.2089844,10.265625 L62.6894531,10.265625 L64.7128906,16 L63.4082031,16 Z M62.7050781,13.625 C62.3222637,12.393223 62.1067711,11.6966154 62.0585938,11.5351562 C62.0104164,11.3736971 61.9759116,11.2460942 61.9550781,11.1523438 C61.8691402,11.4856787 61.6230489,12.3098893 61.2167969,13.625 L62.7050781,13.625 Z" id="carbonera" fill="#FFFFFF"></path>
            </g>
        </g>
    </g>
</svg>