<?xml version="1.0" encoding="UTF-8"?>
<svg width="65px" height="27px" viewBox="0 0 65 27" version="1.1" xmlns="http://www.w3.org/2000/svg" xmlns:xlink="http://www.w3.org/1999/xlink">
    <!-- Generator: Sketch 48.2 (47327) - http://www.bohemiancoding.com/sketch -->
    <title>chiripa</title>
    <desc>Created with Sketch.</desc>
    <defs>
        <path d="M17.8208049,6 C16.6655751,7.89393294 16,10.1192398 16,12.5 C16,15.3140148 16.9298621,17.9108487 18.4990845,20 L7,20 C3.13400675,20 4.73447626e-16,16.8659932 0,13 C-4.73447626e-16,9.13400675 3.13400675,6 7,6 L17.8208049,6 Z M39.1791951,6 L50,6 C53.8659932,6 57,9.13400675 57,13 C57,16.8659932 53.8659932,20 50,20 L38.5009155,20 C40.0701379,17.9108487 41,15.3140148 41,12.5 C41,10.1192398 40.3344249,7.89393294 39.1791951,6 Z" id="path-1"></path>
        <filter x="-11.4%" y="-39.3%" width="122.8%" height="192.9%" filterUnits="objectBoundingBox" id="filter-2">
            <feOffset dx="0" dy="1" in="SourceAlpha" result="shadowOffsetOuter1"></feOffset>
            <feGaussianBlur stdDeviation="2" in="shadowOffsetOuter1" result="shadowBlurOuter1"></feGaussianBlur>
            <feColorMatrix values="0 0 0 0 0   0 0 0 0 0   0 0 0 0 0  0 0 0 0.5 0" type="matrix" in="shadowBlurOuter1"></feColorMatrix>
        </filter>
    </defs>
    <g id="Volcanes-fallas" stroke="none" stroke-width="1" fill="none" fill-rule="evenodd">
        <g id="chiripa" transform="translate(4.000000, 1.000000)">
            <g id="ic_volcano_label-copy-19">
                <g id="Group-Copy-3" transform="translate(16.000000, 0.000000)">
                    <g id="Group-26-Copy-4"></g>
                </g>
                <circle id="Oval-2-Copy-5" stroke="#FFFFFF" stroke-width="0.5" fill="#FF6D00" cx="28.5" cy="12.5" r="12.5"></circle>
                <g id="Combined-Shape">
                    <use fill="black" fill-opacity="1" filter="url(#filter-2)" xlink:href="#path-1"></use>
                    <use fill="#263238" fill-rule="evenodd" xlink:href="#path-1"></use>
                </g>
                <rect id="Rectangle-2-Copy-4" fill="#263238" x="0" y="6" width="57" height="14" rx="7"></rect>
            </g>
            <path d="M15.6738281,11.2148438 C15.2180967,11.2148438 14.8652356,11.386066 14.6152344,11.7285156 C14.3652331,12.0709653 14.2402344,12.548174 14.2402344,13.1601562 C14.2402344,14.4336001 14.7180942,15.0703125 15.6738281,15.0703125 C16.0748718,15.0703125 16.560544,14.9700531 17.1308594,14.7695312 L17.1308594,15.7851562 C16.662107,15.9804697 16.1386748,16.078125 15.5605469,16.078125 C14.7298136,16.078125 14.0944032,15.8261744 13.6542969,15.3222656 C13.2141905,14.8183569 12.9941406,14.0950568 12.9941406,13.1523438 C12.9941406,12.5585908 13.1022125,12.0384137 13.3183594,11.5917969 C13.5345063,11.1451801 13.8450501,10.8027356 14.25,10.5644531 C14.6549499,10.3261707 15.1295546,10.2070312 15.6738281,10.2070312 C16.2285184,10.2070312 16.7858045,10.3411445 17.3457031,10.609375 L16.9550781,11.59375 C16.7415354,11.492187 16.5266938,11.4036462 16.3105469,11.328125 C16.0944,11.2526038 15.8821625,11.2148438 15.6738281,11.2148438 Z M23.0253906,16 L21.8183594,16 L21.8183594,13.5351562 L19.5566406,13.5351562 L19.5566406,16 L18.3457031,16 L18.3457031,10.2890625 L19.5566406,10.2890625 L19.5566406,12.5273438 L21.8183594,12.5273438 L21.8183594,10.2890625 L23.0253906,10.2890625 L23.0253906,16 Z M24.4667969,16 L24.4667969,10.2890625 L25.6777344,10.2890625 L25.6777344,16 L24.4667969,16 Z M28.3261719,12.8242188 L28.7167969,12.8242188 C29.0996113,12.8242188 29.3821605,12.7604173 29.5644531,12.6328125 C29.7467457,12.5052077 29.8378906,12.3046889 29.8378906,12.03125 C29.8378906,11.7604153 29.7447926,11.5677089 29.5585938,11.453125 C29.3723949,11.3385411 29.0839863,11.28125 28.6933594,11.28125 L28.3261719,11.28125 L28.3261719,12.8242188 Z M28.3261719,13.8085938 L28.3261719,16 L27.1152344,16 L27.1152344,10.2890625 L28.7792969,10.2890625 C29.5553424,10.2890625 30.1295554,10.4303371 30.5019531,10.7128906 C30.8743508,10.9954441 31.0605469,11.4244763 31.0605469,12 C31.0605469,12.3359392 30.9680999,12.6347643 30.7832031,12.8964844 C30.5983064,13.1582044 30.3365902,13.3632805 29.9980469,13.5117188 C30.8574262,14.7955793 31.4173164,15.6249981 31.6777344,16 L30.3339844,16 L28.9707031,13.8085938 L28.3261719,13.8085938 Z M32.3964844,16 L32.3964844,10.2890625 L33.6074219,10.2890625 L33.6074219,16 L32.3964844,16 Z M36.2558594,12.9765625 L36.6542969,12.9765625 C37.0266946,12.9765625 37.3053376,12.9029955 37.4902344,12.7558594 C37.6751311,12.6087232 37.7675781,12.3945327 37.7675781,12.1132812 C37.7675781,11.8294257 37.6901049,11.6197923 37.5351562,11.484375 C37.3802076,11.3489577 37.1373714,11.28125 36.8066406,11.28125 L36.2558594,11.28125 L36.2558594,12.9765625 Z M38.9902344,12.0703125 C38.9902344,12.6848989 38.798179,13.1549463 38.4140625,13.4804688 C38.029946,13.8059912 37.4837275,13.96875 36.7753906,13.96875 L36.2558594,13.96875 L36.2558594,16 L35.0449219,16 L35.0449219,10.2890625 L36.8691406,10.2890625 C37.5618524,10.2890625 38.0885399,10.4381496 38.4492188,10.7363281 C38.8098976,11.0345067 38.9902344,11.4791637 38.9902344,12.0703125 Z M43.1660156,16 L42.7519531,14.640625 L40.6699219,14.640625 L40.2558594,16 L38.9511719,16 L40.9667969,10.265625 L42.4472656,10.265625 L44.4707031,16 L43.1660156,16 Z M42.4628906,13.625 C42.0800762,12.393223 41.8645836,11.6966154 41.8164062,11.5351562 C41.7682289,11.3736971 41.7337241,11.2460942 41.7128906,11.1523438 C41.6269527,11.4856787 41.3808614,12.3098893 40.9746094,13.625 L42.4628906,13.625 Z" fill="#FFFFFF"></path>
        </g>
    </g>
</svg>