<?xml version="1.0" encoding="UTF-8"?>
<svg width="65px" height="27px" viewBox="0 0 65 27" version="1.1" xmlns="http://www.w3.org/2000/svg" xmlns:xlink="http://www.w3.org/1999/xlink">
    <!-- Generator: Sketch 48.2 (47327) - http://www.bohemiancoding.com/sketch -->
    <title>cipreses</title>
    <desc>Created with Sketch.</desc>
    <defs>
        <path d="M17.8208049,6 C16.6655751,7.89393294 16,10.1192398 16,12.5 C16,15.3140148 16.9298621,17.9108487 18.4990845,20 L7,20 C3.13400675,20 4.73447626e-16,16.8659932 0,13 C-4.73447626e-16,9.13400675 3.13400675,6 7,6 L17.8208049,6 Z M39.1791951,6 L50,6 C53.8659932,6 57,9.13400675 57,13 C57,16.8659932 53.8659932,20 50,20 L38.5009155,20 C40.0701379,17.9108487 41,15.3140148 41,12.5 C41,10.1192398 40.3344249,7.89393294 39.1791951,6 Z" id="path-1"></path>
        <filter x="-11.4%" y="-39.3%" width="122.8%" height="192.9%" filterUnits="objectBoundingBox" id="filter-2">
            <feOffset dx="0" dy="1" in="SourceAlpha" result="shadowOffsetOuter1"></feOffset>
            <feGaussianBlur stdDeviation="2" in="shadowOffsetOuter1" result="shadowBlurOuter1"></feGaussianBlur>
            <feColorMatrix values="0 0 0 0 0   0 0 0 0 0   0 0 0 0 0  0 0 0 0.5 0" type="matrix" in="shadowBlurOuter1"></feColorMatrix>
        </filter>
    </defs>
    <g id="Volcanes-fallas" stroke="none" stroke-width="1" fill="none" fill-rule="evenodd">
        <g id="cipreses" transform="translate(4.000000, 1.000000)">
            <g id="ic_volcano_label-copy-19">
                <g id="Group-Copy-3" transform="translate(16.000000, 0.000000)">
                    <g id="Group-26-Copy-4"></g>
                </g>
                <circle id="Oval-2-Copy-5" stroke="#FFFFFF" stroke-width="0.5" fill="#FF6D00" cx="28.5" cy="12.5" r="12.5"></circle>
                <g id="Combined-Shape">
                    <use fill="black" fill-opacity="1" filter="url(#filter-2)" xlink:href="#path-1"></use>
                    <use fill="#263238" fill-rule="evenodd" xlink:href="#path-1"></use>
                </g>
                <rect id="Rectangle-2-Copy-4" fill="#263238" x="0" y="6" width="57" height="14" rx="7"></rect>
            </g>
            <path d="M13.7324219,11.2148438 C13.2766904,11.2148438 12.9238294,11.386066 12.6738281,11.7285156 C12.4238269,12.0709653 12.2988281,12.548174 12.2988281,13.1601562 C12.2988281,14.4336001 12.7766879,15.0703125 13.7324219,15.0703125 C14.1334655,15.0703125 14.6191378,14.9700531 15.1894531,14.7695312 L15.1894531,15.7851562 C14.7207008,15.9804697 14.1972685,16.078125 13.6191406,16.078125 C12.7884073,16.078125 12.152997,15.8261744 11.7128906,15.3222656 C11.2727843,14.8183569 11.0527344,14.0950568 11.0527344,13.1523438 C11.0527344,12.5585908 11.1608062,12.0384137 11.3769531,11.5917969 C11.5931,11.1451801 11.9036438,10.8027356 12.3085938,10.5644531 C12.7135437,10.3261707 13.1881483,10.2070312 13.7324219,10.2070312 C14.2871121,10.2070312 14.8443982,10.3411445 15.4042969,10.609375 L15.0136719,11.59375 C14.8001291,11.492187 14.5852875,11.4036462 14.3691406,11.328125 C14.1529937,11.2526038 13.9407562,11.2148438 13.7324219,11.2148438 Z M16.4042969,16 L16.4042969,10.2890625 L17.6152344,10.2890625 L17.6152344,16 L16.4042969,16 Z M20.2636719,12.9765625 L20.6621094,12.9765625 C21.0345071,12.9765625 21.3131501,12.9029955 21.4980469,12.7558594 C21.6829436,12.6087232 21.7753906,12.3945327 21.7753906,12.1132812 C21.7753906,11.8294257 21.6979174,11.6197923 21.5429688,11.484375 C21.3880201,11.3489577 21.1451839,11.28125 20.8144531,11.28125 L20.2636719,11.28125 L20.2636719,12.9765625 Z M22.9980469,12.0703125 C22.9980469,12.6848989 22.8059915,13.1549463 22.421875,13.4804688 C22.0377585,13.8059912 21.49154,13.96875 20.7832031,13.96875 L20.2636719,13.96875 L20.2636719,16 L19.0527344,16 L19.0527344,10.2890625 L20.8769531,10.2890625 C21.5696649,10.2890625 22.0963524,10.4381496 22.4570312,10.7363281 C22.8177101,11.0345067 22.9980469,11.4791637 22.9980469,12.0703125 Z M25.2871094,12.8242188 L25.6777344,12.8242188 C26.0605488,12.8242188 26.343098,12.7604173 26.5253906,12.6328125 C26.7076832,12.5052077 26.7988281,12.3046889 26.7988281,12.03125 C26.7988281,11.7604153 26.7057301,11.5677089 26.5195312,11.453125 C26.3333324,11.3385411 26.0449238,11.28125 25.6542969,11.28125 L25.2871094,11.28125 L25.2871094,12.8242188 Z M25.2871094,13.8085938 L25.2871094,16 L24.0761719,16 L24.0761719,10.2890625 L25.7402344,10.2890625 C26.5162799,10.2890625 27.0904929,10.4303371 27.4628906,10.7128906 C27.8352883,10.9954441 28.0214844,11.4244763 28.0214844,12 C28.0214844,12.3359392 27.9290374,12.6347643 27.7441406,12.8964844 C27.5592439,13.1582044 27.2975277,13.3632805 26.9589844,13.5117188 C27.8183637,14.7955793 28.3782539,15.6249981 28.6386719,16 L27.2949219,16 L25.9316406,13.8085938 L25.2871094,13.8085938 Z M32.6464844,16 L29.3574219,16 L29.3574219,10.2890625 L32.6464844,10.2890625 L32.6464844,11.28125 L30.5683594,11.28125 L30.5683594,12.5351562 L32.5019531,12.5351562 L32.5019531,13.5273438 L30.5683594,13.5273438 L30.5683594,15 L32.6464844,15 L32.6464844,16 Z M37.2089844,14.4140625 C37.2089844,14.9296901 37.0234394,15.335936 36.6523438,15.6328125 C36.2812481,15.929689 35.7649773,16.078125 35.1035156,16.078125 C34.4941376,16.078125 33.9550805,15.9635428 33.4863281,15.734375 L33.4863281,14.609375 C33.8717467,14.7812509 34.1979153,14.9023434 34.4648438,14.9726562 C34.7317722,15.0429691 34.9759104,15.078125 35.1972656,15.078125 C35.462892,15.078125 35.666666,15.0273443 35.8085938,14.9257812 C35.9505215,14.8242182 36.0214844,14.6731781 36.0214844,14.4726562 C36.0214844,14.3606765 35.9902347,14.2610681 35.9277344,14.1738281 C35.8652341,14.0865881 35.7734381,14.0026046 35.6523438,13.921875 C35.5312494,13.8411454 35.2845071,13.7122405 34.9121094,13.5351562 C34.5631493,13.3710929 34.3014332,13.2135424 34.1269531,13.0625 C33.9524731,12.9114576 33.8131516,12.7356781 33.7089844,12.5351562 C33.6048172,12.3346344 33.5527344,12.1002618 33.5527344,11.8320312 C33.5527344,11.3268204 33.7239566,10.9296889 34.0664062,10.640625 C34.4088559,10.3515611 34.8821584,10.2070312 35.4863281,10.2070312 C35.7832046,10.2070312 36.0664049,10.2421871 36.3359375,10.3125 C36.6054701,10.3828129 36.8873683,10.4817702 37.1816406,10.609375 L36.7910156,11.5507812 C36.4863266,11.4257806 36.234376,11.3385419 36.0351562,11.2890625 C35.8359365,11.2395831 35.6399749,11.2148438 35.4472656,11.2148438 C35.2180978,11.2148438 35.0423183,11.2682286 34.9199219,11.375 C34.7975254,11.4817714 34.7363281,11.6210929 34.7363281,11.7929688 C34.7363281,11.8997401 34.7610675,11.9928381 34.8105469,12.0722656 C34.8600263,12.1516931 34.9388015,12.2285153 35.046875,12.3027344 C35.1549485,12.3769535 35.4108053,12.5104157 35.8144531,12.703125 C36.34831,12.9583346 36.7141917,13.2141914 36.9121094,13.4707031 C37.110027,13.7272148 37.2089844,14.0416648 37.2089844,14.4140625 Z M41.5332031,16 L38.2441406,16 L38.2441406,10.2890625 L41.5332031,10.2890625 L41.5332031,11.28125 L39.4550781,11.28125 L39.4550781,12.5351562 L41.3886719,12.5351562 L41.3886719,13.5273438 L39.4550781,13.5273438 L39.4550781,15 L41.5332031,15 L41.5332031,16 Z M46.0957031,14.4140625 C46.0957031,14.9296901 45.9101581,15.335936 45.5390625,15.6328125 C45.1679669,15.929689 44.651696,16.078125 43.9902344,16.078125 C43.3808563,16.078125 42.8417992,15.9635428 42.3730469,15.734375 L42.3730469,14.609375 C42.7584655,14.7812509 43.0846341,14.9023434 43.3515625,14.9726562 C43.6184909,15.0429691 43.8626291,15.078125 44.0839844,15.078125 C44.3496107,15.078125 44.5533847,15.0273443 44.6953125,14.9257812 C44.8372403,14.8242182 44.9082031,14.6731781 44.9082031,14.4726562 C44.9082031,14.3606765 44.8769534,14.2610681 44.8144531,14.1738281 C44.7519528,14.0865881 44.6601569,14.0026046 44.5390625,13.921875 C44.4179681,13.8411454 44.1712258,13.7122405 43.7988281,13.5351562 C43.449868,13.3710929 43.1881519,13.2135424 43.0136719,13.0625 C42.8391918,12.9114576 42.6998703,12.7356781 42.5957031,12.5351562 C42.4915359,12.3346344 42.4394531,12.1002618 42.4394531,11.8320312 C42.4394531,11.3268204 42.6106754,10.9296889 42.953125,10.640625 C43.2955746,10.3515611 43.7688772,10.2070312 44.3730469,10.2070312 C44.6699234,10.2070312 44.9531237,10.2421871 45.2226562,10.3125 C45.4921888,10.3828129 45.7740871,10.4817702 46.0683594,10.609375 L45.6777344,11.5507812 C45.3730454,11.4257806 45.1210947,11.3385419 44.921875,11.2890625 C44.7226553,11.2395831 44.5266937,11.2148438 44.3339844,11.2148438 C44.1048166,11.2148438 43.9290371,11.2682286 43.8066406,11.375 C43.6842442,11.4817714 43.6230469,11.6210929 43.6230469,11.7929688 C43.6230469,11.8997401 43.6477862,11.9928381 43.6972656,12.0722656 C43.746745,12.1516931 43.8255203,12.2285153 43.9335938,12.3027344 C44.0416672,12.3769535 44.297524,12.5104157 44.7011719,12.703125 C45.2350287,12.9583346 45.6009105,13.2141914 45.7988281,13.4707031 C45.9967458,13.7272148 46.0957031,14.0416648 46.0957031,14.4140625 Z" fill="#FFFFFF"></path>
        </g>
    </g>
</svg>