<?xml version="1.0" encoding="UTF-8"?>
<svg width="65px" height="27px" viewBox="0 0 65 27" version="1.1" xmlns="http://www.w3.org/2000/svg" xmlns:xlink="http://www.w3.org/1999/xlink">
    <!-- Generator: Sketch 48.2 (47327) - http://www.bohemiancoding.com/sketch -->
    <title>congo</title>
    <desc>Created with Sketch.</desc>
    <defs>
        <path d="M17.8208049,6 C16.6655751,7.89393294 16,10.1192398 16,12.5 C16,15.3140148 16.9298621,17.9108487 18.4990845,20 L7,20 C3.13400675,20 4.73447626e-16,16.8659932 0,13 C-4.73447626e-16,9.13400675 3.13400675,6 7,6 L17.8208049,6 Z M39.1791951,6 L50,6 C53.8659932,6 57,9.13400675 57,13 C57,16.8659932 53.8659932,20 50,20 L38.5009155,20 C40.0701379,17.9108487 41,15.3140148 41,12.5 C41,10.1192398 40.3344249,7.89393294 39.1791951,6 Z" id="path-1"></path>
        <filter x="-11.4%" y="-39.3%" width="122.8%" height="192.9%" filterUnits="objectBoundingBox" id="filter-2">
            <feOffset dx="0" dy="1" in="SourceAlpha" result="shadowOffsetOuter1"></feOffset>
            <feGaussianBlur stdDeviation="2" in="shadowOffsetOuter1" result="shadowBlurOuter1"></feGaussianBlur>
            <feColorMatrix values="0 0 0 0 0   0 0 0 0 0   0 0 0 0 0  0 0 0 0.5 0" type="matrix" in="shadowBlurOuter1"></feColorMatrix>
        </filter>
    </defs>
    <g id="Volcanes-fallas" stroke="none" stroke-width="1" fill="none" fill-rule="evenodd">
        <g id="congo" transform="translate(4.000000, 1.000000)">
            <g id="ic_volcano_label-copy-19">
                <g id="Group-Copy-3" transform="translate(16.000000, 0.000000)">
                    <g id="Group-26-Copy-4"></g>
                </g>
                <circle id="Oval-2-Copy-5" stroke="#FFFFFF" stroke-width="0.5" fill="#FF6D00" cx="28.5" cy="12.5" r="12.5"></circle>
                <g id="Combined-Shape">
                    <use fill="black" fill-opacity="1" filter="url(#filter-2)" xlink:href="#path-1"></use>
                    <use fill="#263238" fill-rule="evenodd" xlink:href="#path-1"></use>
                </g>
                <rect id="Rectangle-2-Copy-4" fill="#263238" x="0" y="6" width="57" height="14" rx="7"></rect>
            </g>
            <path d="M16.6601562,11.2148438 C16.2044248,11.2148438 15.8515638,11.386066 15.6015625,11.7285156 C15.3515612,12.0709653 15.2265625,12.548174 15.2265625,13.1601562 C15.2265625,14.4336001 15.7044223,15.0703125 16.6601562,15.0703125 C17.0611999,15.0703125 17.5468721,14.9700531 18.1171875,14.7695312 L18.1171875,15.7851562 C17.6484352,15.9804697 17.1250029,16.078125 16.546875,16.078125 C15.7161417,16.078125 15.0807314,15.8261744 14.640625,15.3222656 C14.2005186,14.8183569 13.9804688,14.0950568 13.9804688,13.1523438 C13.9804688,12.5585908 14.0885406,12.0384137 14.3046875,11.5917969 C14.5208344,11.1451801 14.8313782,10.8027356 15.2363281,10.5644531 C15.6412781,10.3261707 16.1158827,10.2070312 16.6601562,10.2070312 C17.2148465,10.2070312 17.7721326,10.3411445 18.3320312,10.609375 L17.9414062,11.59375 C17.7278635,11.492187 17.5130219,11.4036462 17.296875,11.328125 C17.0807281,11.2526038 16.8684906,11.2148438 16.6601562,11.2148438 Z M24.3554688,13.1367188 C24.3554688,14.082036 24.1210961,14.8085912 23.6523438,15.3164062 C23.1835914,15.8242213 22.5117231,16.078125 21.6367188,16.078125 C20.7617144,16.078125 20.0898461,15.8242213 19.6210938,15.3164062 C19.1523414,14.8085912 18.9179688,14.0794318 18.9179688,13.1289062 C18.9179688,12.1783807 19.1529924,11.4524765 19.6230469,10.9511719 C20.0931013,10.4498673 20.7669227,10.1992188 21.6445312,10.1992188 C22.5221398,10.1992188 23.1933571,10.4518204 23.6582031,10.9570312 C24.1230492,11.4622421 24.3554688,12.1887973 24.3554688,13.1367188 Z M20.1875,13.1367188 C20.1875,13.7747428 20.3085925,14.2552067 20.5507812,14.578125 C20.79297,14.9010433 21.1549455,15.0625 21.6367188,15.0625 C22.6028694,15.0625 23.0859375,14.4205793 23.0859375,13.1367188 C23.0859375,11.850254 22.6054736,11.2070312 21.6445312,11.2070312 C21.162758,11.2070312 20.7994804,11.369139 20.5546875,11.6933594 C20.3098946,12.0175797 20.1875,12.4986947 20.1875,13.1367188 Z M30.6054688,16 L29.0664062,16 L26.5820312,11.6796875 L26.546875,11.6796875 C26.5963544,12.4427121 26.6210938,12.9869775 26.6210938,13.3125 L26.6210938,16 L25.5390625,16 L25.5390625,10.2890625 L27.0664062,10.2890625 L29.546875,14.5664062 L29.5742188,14.5664062 C29.5351561,13.824215 29.515625,13.2994807 29.515625,12.9921875 L29.515625,10.2890625 L30.6054688,10.2890625 L30.6054688,16 Z M34.2109375,12.7929688 L36.4765625,12.7929688 L36.4765625,15.7539062 C36.1093732,15.8736985 35.7636735,15.9576821 35.4394531,16.0058594 C35.1152328,16.0540367 34.7838559,16.078125 34.4453125,16.078125 C33.583329,16.078125 32.9251325,15.8248723 32.4707031,15.3183594 C32.0162738,14.8118464 31.7890625,14.0846402 31.7890625,13.1367188 C31.7890625,12.2148391 32.0527317,11.4960963 32.5800781,10.9804688 C33.1074245,10.4648412 33.838537,10.2070312 34.7734375,10.2070312 C35.3593779,10.2070312 35.9244764,10.3242176 36.46875,10.5585938 L36.0664062,11.5273438 C35.6497375,11.3190094 35.2161481,11.2148438 34.765625,11.2148438 C34.2421849,11.2148438 33.8229182,11.3906232 33.5078125,11.7421875 C33.1927068,12.0937518 33.0351562,12.5664033 33.0351562,13.1601562 C33.0351562,13.779951 33.1621081,14.2532536 33.4160156,14.5800781 C33.6699231,14.9069027 34.0390601,15.0703125 34.5234375,15.0703125 C34.7760429,15.0703125 35.0325508,15.0442711 35.2929688,14.9921875 L35.2929688,13.8007812 L34.2109375,13.8007812 L34.2109375,12.7929688 Z M43.0195312,13.1367188 C43.0195312,14.082036 42.7851586,14.8085912 42.3164062,15.3164062 C41.8476539,15.8242213 41.1757856,16.078125 40.3007812,16.078125 C39.4257769,16.078125 38.7539086,15.8242213 38.2851562,15.3164062 C37.8164039,14.8085912 37.5820312,14.0794318 37.5820312,13.1289062 C37.5820312,12.1783807 37.8170549,11.4524765 38.2871094,10.9511719 C38.7571638,10.4498673 39.4309852,10.1992188 40.3085938,10.1992188 C41.1862023,10.1992188 41.8574196,10.4518204 42.3222656,10.9570312 C42.7871117,11.4622421 43.0195312,12.1887973 43.0195312,13.1367188 Z M38.8515625,13.1367188 C38.8515625,13.7747428 38.972655,14.2552067 39.2148438,14.578125 C39.4570325,14.9010433 39.819008,15.0625 40.3007812,15.0625 C41.2669319,15.0625 41.75,14.4205793 41.75,13.1367188 C41.75,11.850254 41.2695361,11.2070312 40.3085938,11.2070312 C39.8268205,11.2070312 39.4635429,11.369139 39.21875,11.6933594 C38.9739571,12.0175797 38.8515625,12.4986947 38.8515625,13.1367188 Z" fill="#FFFFFF"></path>
        </g>
    </g>
</svg>