<?xml version="1.0" encoding="UTF-8"?>
<svg width="118px" height="27px" viewBox="0 0 118 27" version="1.1" xmlns="http://www.w3.org/2000/svg" xmlns:xlink="http://www.w3.org/1999/xlink">
    <!-- Generator: Sketch 48.2 (47327) - http://www.bohemiancoding.com/sketch -->
    <title>costanera_caribe</title>
    <desc>Created with Sketch.</desc>
    <defs>
        <path d="M42.9664693,6 C41.7188212,7.89393294 41,10.1192398 41,12.5 C41,15.3140148 42.004251,17.9108487 43.6990113,20 L9,20 C5.13400675,20 2,16.8659932 2,13 C2,9.13400675 5.13400675,6 9,6 L42.9664693,6 Z M66.0335307,6 L103,6 C106.865993,6 110,9.13400675 110,13 C110,16.8659932 106.865993,20 103,20 L65.3009887,20 C66.995749,17.9108487 68,15.3140148 68,12.5 C68,10.1192398 67.2811788,7.89393294 66.0335307,6 Z" id="path-1"></path>
        <filter x="-6.0%" y="-39.3%" width="112.0%" height="192.9%" filterUnits="objectBoundingBox" id="filter-2">
            <feOffset dx="0" dy="1" in="SourceAlpha" result="shadowOffsetOuter1"></feOffset>
            <feGaussianBlur stdDeviation="2" in="shadowOffsetOuter1" result="shadowBlurOuter1"></feGaussianBlur>
            <feColorMatrix values="0 0 0 0 0   0 0 0 0 0   0 0 0 0 0  0 0 0 0.5 0" type="matrix" in="shadowBlurOuter1"></feColorMatrix>
        </filter>
        <rect id="path-3" x="0" y="6" width="110" height="14" rx="7"></rect>
        <filter x="-5.9%" y="-39.3%" width="111.8%" height="192.9%" filterUnits="objectBoundingBox" id="filter-4">
            <feOffset dx="0" dy="1" in="SourceAlpha" result="shadowOffsetOuter1"></feOffset>
            <feGaussianBlur stdDeviation="2" in="shadowOffsetOuter1" result="shadowBlurOuter1"></feGaussianBlur>
            <feColorMatrix values="0 0 0 0 0   0 0 0 0 0   0 0 0 0 0  0 0 0 0.5 0" type="matrix" in="shadowBlurOuter1"></feColorMatrix>
        </filter>
    </defs>
    <g id="Volcanes-fallas" stroke="none" stroke-width="1" fill="none" fill-rule="evenodd">
        <g id="costanera_caribe" transform="translate(4.000000, 1.000000)">
            <g id="ic_volcano_label-copy-18">
                <g id="Group-Copy-3">
                    <g id="Group-26-Copy-4" transform="translate(43.000000, 0.000000)" fill="#FF6D00" stroke="#FFFFFF" stroke-width="0.5">
                        <circle id="Oval-2-Copy-5" cx="12.5" cy="12.5" r="12.5"></circle>
                    </g>
                    <g id="Combined-Shape">
                        <use fill="black" fill-opacity="1" filter="url(#filter-2)" xlink:href="#path-1"></use>
                        <use fill="#263238" fill-rule="evenodd" xlink:href="#path-1"></use>
                    </g>
                    <g id="Rectangle-2-Copy-4">
                        <use fill="black" fill-opacity="1" filter="url(#filter-4)" xlink:href="#path-3"></use>
                        <use fill="#263238" fill-rule="evenodd" xlink:href="#path-3"></use>
                    </g>
                </g>
                <path d="M16.5917969,11.2148438 C16.1360654,11.2148438 15.7832044,11.386066 15.5332031,11.7285156 C15.2832019,12.0709653 15.1582031,12.548174 15.1582031,13.1601562 C15.1582031,14.4336001 15.6360629,15.0703125 16.5917969,15.0703125 C16.9928405,15.0703125 17.4785128,14.9700531 18.0488281,14.7695312 L18.0488281,15.7851562 C17.5800758,15.9804697 17.0566435,16.078125 16.4785156,16.078125 C15.6477823,16.078125 15.012372,15.8261744 14.5722656,15.3222656 C14.1321593,14.8183569 13.9121094,14.0950568 13.9121094,13.1523438 C13.9121094,12.5585908 14.0201812,12.0384137 14.2363281,11.5917969 C14.452475,11.1451801 14.7630188,10.8027356 15.1679688,10.5644531 C15.5729187,10.3261707 16.0475233,10.2070312 16.5917969,10.2070312 C17.1464871,10.2070312 17.7037732,10.3411445 18.2636719,10.609375 L17.8730469,11.59375 C17.6595041,11.492187 17.4446625,11.4036462 17.2285156,11.328125 C17.0123687,11.2526038 16.8001312,11.2148438 16.5917969,11.2148438 Z M24.2871094,13.1367188 C24.2871094,14.082036 24.0527367,14.8085912 23.5839844,15.3164062 C23.115232,15.8242213 22.4433637,16.078125 21.5683594,16.078125 C20.693355,16.078125 20.0214867,15.8242213 19.5527344,15.3164062 C19.083982,14.8085912 18.8496094,14.0794318 18.8496094,13.1289062 C18.8496094,12.1783807 19.0846331,11.4524765 19.5546875,10.9511719 C20.0247419,10.4498673 20.6985633,10.1992188 21.5761719,10.1992188 C22.4537804,10.1992188 23.1249977,10.4518204 23.5898438,10.9570312 C24.0546898,11.4622421 24.2871094,12.1887973 24.2871094,13.1367188 Z M20.1191406,13.1367188 C20.1191406,13.7747428 20.2402332,14.2552067 20.4824219,14.578125 C20.7246106,14.9010433 21.0865861,15.0625 21.5683594,15.0625 C22.53451,15.0625 23.0175781,14.4205793 23.0175781,13.1367188 C23.0175781,11.850254 22.5371142,11.2070312 21.5761719,11.2070312 C21.0943986,11.2070312 20.731121,11.369139 20.4863281,11.6933594 C20.2415352,12.0175797 20.1191406,12.4986947 20.1191406,13.1367188 Z M28.8417969,14.4140625 C28.8417969,14.9296901 28.6562519,15.335936 28.2851562,15.6328125 C27.9140606,15.929689 27.3977898,16.078125 26.7363281,16.078125 C26.1269501,16.078125 25.587893,15.9635428 25.1191406,15.734375 L25.1191406,14.609375 C25.5045592,14.7812509 25.8307278,14.9023434 26.0976562,14.9726562 C26.3645847,15.0429691 26.6087229,15.078125 26.8300781,15.078125 C27.0957045,15.078125 27.2994785,15.0273443 27.4414062,14.9257812 C27.583334,14.8242182 27.6542969,14.6731781 27.6542969,14.4726562 C27.6542969,14.3606765 27.6230472,14.2610681 27.5605469,14.1738281 C27.4980466,14.0865881 27.4062506,14.0026046 27.2851562,13.921875 C27.1640619,13.8411454 26.9173196,13.7122405 26.5449219,13.5351562 C26.1959618,13.3710929 25.9342457,13.2135424 25.7597656,13.0625 C25.5852856,12.9114576 25.4459641,12.7356781 25.3417969,12.5351562 C25.2376297,12.3346344 25.1855469,12.1002618 25.1855469,11.8320312 C25.1855469,11.3268204 25.3567691,10.9296889 25.6992188,10.640625 C26.0416684,10.3515611 26.5149709,10.2070312 27.1191406,10.2070312 C27.4160171,10.2070312 27.6992174,10.2421871 27.96875,10.3125 C28.2382826,10.3828129 28.5201808,10.4817702 28.8144531,10.609375 L28.4238281,11.5507812 C28.1191391,11.4257806 27.8671885,11.3385419 27.6679688,11.2890625 C27.468749,11.2395831 27.2727874,11.2148438 27.0800781,11.2148438 C26.8509103,11.2148438 26.6751308,11.2682286 26.5527344,11.375 C26.4303379,11.4817714 26.3691406,11.6210929 26.3691406,11.7929688 C26.3691406,11.8997401 26.39388,11.9928381 26.4433594,12.0722656 C26.4928388,12.1516931 26.571614,12.2285153 26.6796875,12.3027344 C26.787761,12.3769535 27.0436178,12.5104157 27.4472656,12.703125 C27.9811225,12.9583346 28.3470042,13.2141914 28.5449219,13.4707031 C28.7428395,13.7272148 28.8417969,14.0416648 28.8417969,14.4140625 Z M32.0800781,16 L30.8691406,16 L30.8691406,11.296875 L29.3183594,11.296875 L29.3183594,10.2890625 L33.6308594,10.2890625 L33.6308594,11.296875 L32.0800781,11.296875 L32.0800781,16 Z M37.7988281,16 L34.5097656,16 L34.5097656,10.2890625 L37.7988281,10.2890625 L37.7988281,11.28125 L35.7207031,11.28125 L35.7207031,12.5351562 L37.6542969,12.5351562 L37.6542969,13.5273438 L35.7207031,13.5273438 L35.7207031,15 L37.7988281,15 L37.7988281,16 Z M40.2011719,12.8242188 L40.5917969,12.8242188 C40.9746113,12.8242188 41.2571605,12.7604173 41.4394531,12.6328125 C41.6217457,12.5052077 41.7128906,12.3046889 41.7128906,12.03125 C41.7128906,11.7604153 41.6197926,11.5677089 41.4335938,11.453125 C41.2473949,11.3385411 40.9589863,11.28125 40.5683594,11.28125 L40.2011719,11.28125 L40.2011719,12.8242188 Z M40.2011719,13.8085938 L40.2011719,16 L38.9902344,16 L38.9902344,10.2890625 L40.6542969,10.2890625 C41.4303424,10.2890625 42.0045554,10.4303371 42.3769531,10.7128906 C42.7493508,10.9954441 42.9355469,11.4244763 42.9355469,12 C42.9355469,12.3359392 42.8430999,12.6347643 42.6582031,12.8964844 C42.4733064,13.1582044 42.2115902,13.3632805 41.8730469,13.5117188 C42.7324262,14.7955793 43.2923164,15.6249981 43.5527344,16 L42.2089844,16 L40.8457031,13.8085938 L40.2011719,13.8085938 Z M47.7675781,16 L47.3535156,14.640625 L45.2714844,14.640625 L44.8574219,16 L43.5527344,16 L45.5683594,10.265625 L47.0488281,10.265625 L49.0722656,16 L47.7675781,16 Z M47.0644531,13.625 C46.6816387,12.393223 46.4661461,11.6966154 46.4179688,11.5351562 C46.3697914,11.3736971 46.3352866,11.2460942 46.3144531,11.1523438 C46.2285152,11.4856787 45.9824239,12.3098893 45.5761719,13.625 L47.0644531,13.625 Z M56.6074219,13.0898438 C56.6074219,14.0299526 56.3398464,14.7499975 55.8046875,15.25 C55.2695286,15.7500025 54.4967498,16 53.4863281,16 L51.8691406,16 L51.8691406,10.2890625 L53.6621094,10.2890625 C54.5944057,10.2890625 55.3183568,10.5351538 55.8339844,11.0273438 C56.349612,11.5195337 56.6074219,12.2070268 56.6074219,13.0898438 Z M55.3496094,13.1210938 C55.3496094,11.8945251 54.8079481,11.28125 53.7246094,11.28125 L53.0800781,11.28125 L53.0800781,15 L53.5996094,15 C54.7662819,15 55.3496094,14.3737042 55.3496094,13.1210938 Z M61.0800781,16 L57.7910156,16 L57.7910156,10.2890625 L61.0800781,10.2890625 L61.0800781,11.28125 L59.0019531,11.28125 L59.0019531,12.5351562 L60.9355469,12.5351562 L60.9355469,13.5273438 L59.0019531,13.5273438 L59.0019531,15 L61.0800781,15 L61.0800781,16 Z M62.2714844,16 L62.2714844,10.2890625 L63.4824219,10.2890625 L63.4824219,15 L65.7988281,15 L65.7988281,16 L62.2714844,16 Z M71.2949219,11.2148438 C70.8391904,11.2148438 70.4863294,11.386066 70.2363281,11.7285156 C69.9863269,12.0709653 69.8613281,12.548174 69.8613281,13.1601562 C69.8613281,14.4336001 70.3391879,15.0703125 71.2949219,15.0703125 C71.6959655,15.0703125 72.1816378,14.9700531 72.7519531,14.7695312 L72.7519531,15.7851562 C72.2832008,15.9804697 71.7597685,16.078125 71.1816406,16.078125 C70.3509073,16.078125 69.715497,15.8261744 69.2753906,15.3222656 C68.8352843,14.8183569 68.6152344,14.0950568 68.6152344,13.1523438 C68.6152344,12.5585908 68.7233062,12.0384137 68.9394531,11.5917969 C69.1556,11.1451801 69.4661438,10.8027356 69.8710938,10.5644531 C70.2760437,10.3261707 70.7506483,10.2070312 71.2949219,10.2070312 C71.8496121,10.2070312 72.4068982,10.3411445 72.9667969,10.609375 L72.5761719,11.59375 C72.3626291,11.492187 72.1477875,11.4036462 71.9316406,11.328125 C71.7154937,11.2526038 71.5032562,11.2148438 71.2949219,11.2148438 Z M77.4628906,16 L77.0488281,14.640625 L74.9667969,14.640625 L74.5527344,16 L73.2480469,16 L75.2636719,10.265625 L76.7441406,10.265625 L78.7675781,16 L77.4628906,16 Z M76.7597656,13.625 C76.3769512,12.393223 76.1614586,11.6966154 76.1132812,11.5351562 C76.0651039,11.3736971 76.0305991,11.2460942 76.0097656,11.1523438 C75.9238277,11.4856787 75.6777364,12.3098893 75.2714844,13.625 L76.7597656,13.625 Z M80.6972656,12.8242188 L81.0878906,12.8242188 C81.470705,12.8242188 81.7532543,12.7604173 81.9355469,12.6328125 C82.1178395,12.5052077 82.2089844,12.3046889 82.2089844,12.03125 C82.2089844,11.7604153 82.1158863,11.5677089 81.9296875,11.453125 C81.7434887,11.3385411 81.4550801,11.28125 81.0644531,11.28125 L80.6972656,11.28125 L80.6972656,12.8242188 Z M80.6972656,13.8085938 L80.6972656,16 L79.4863281,16 L79.4863281,10.2890625 L81.1503906,10.2890625 C81.9264362,10.2890625 82.5006492,10.4303371 82.8730469,10.7128906 C83.2454446,10.9954441 83.4316406,11.4244763 83.4316406,12 C83.4316406,12.3359392 83.3391936,12.6347643 83.1542969,12.8964844 C82.9694001,13.1582044 82.707684,13.3632805 82.3691406,13.5117188 C83.2285199,14.7955793 83.7884102,15.6249981 84.0488281,16 L82.7050781,16 L81.3417969,13.8085938 L80.6972656,13.8085938 Z M84.7675781,16 L84.7675781,10.2890625 L85.9785156,10.2890625 L85.9785156,16 L84.7675781,16 Z M87.4160156,10.2890625 L89.1933594,10.2890625 C90.0032593,10.2890625 90.591144,10.4042957 90.9570312,10.6347656 C91.3229185,10.8652355 91.5058594,11.2317683 91.5058594,11.734375 C91.5058594,12.0755225 91.4257821,12.3554677 91.265625,12.5742188 C91.1054679,12.7929698 90.8925795,12.9244789 90.6269531,12.96875 L90.6269531,13.0078125 C90.9889341,13.0885421 91.2499992,13.2395822 91.4101562,13.4609375 C91.5703133,13.6822928 91.6503906,13.9765607 91.6503906,14.34375 C91.6503906,14.8645859 91.4622415,15.2708319 91.0859375,15.5625 C90.7096335,15.8541681 90.1985709,16 89.5527344,16 L87.4160156,16 L87.4160156,10.2890625 Z M88.6269531,12.5507812 L89.3300781,12.5507812 C89.6582048,12.5507812 89.8958326,12.5000005 90.0429688,12.3984375 C90.1901049,12.2968745 90.2636719,12.1289074 90.2636719,11.8945312 C90.2636719,11.6757802 90.1835946,11.5188807 90.0234375,11.4238281 C89.8632804,11.3287756 89.6100278,11.28125 89.2636719,11.28125 L88.6269531,11.28125 L88.6269531,12.5507812 Z M88.6269531,13.5117188 L88.6269531,15 L89.4160156,15 C89.7493506,15 89.9954419,14.9361986 90.1542969,14.8085938 C90.3131518,14.6809889 90.3925781,14.4856784 90.3925781,14.2226562 C90.3925781,13.7486955 90.0540398,13.5117188 89.3769531,13.5117188 L88.6269531,13.5117188 Z M96.0800781,16 L92.7910156,16 L92.7910156,10.2890625 L96.0800781,10.2890625 L96.0800781,11.28125 L94.0019531,11.28125 L94.0019531,12.5351562 L95.9355469,12.5351562 L95.9355469,13.5273438 L94.0019531,13.5273438 L94.0019531,15 L96.0800781,15 L96.0800781,16 Z" id="costera-del-caribe" fill="#FFFFFF"></path>
            </g>
        </g>
    </g>
</svg>