<?xml version="1.0" encoding="UTF-8"?>
<svg width="65px" height="27px" viewBox="0 0 65 27" version="1.1" xmlns="http://www.w3.org/2000/svg" xmlns:xlink="http://www.w3.org/1999/xlink">
    <!-- Generator: Sketch 48.2 (47327) - http://www.bohemiancoding.com/sketch -->
    <title>cote</title>
    <desc>Created with Sketch.</desc>
    <defs>
        <path d="M17.8208049,6 C16.6655751,7.89393294 16,10.1192398 16,12.5 C16,15.3140148 16.9298621,17.9108487 18.4990845,20 L7,20 C3.13400675,20 4.73447626e-16,16.8659932 0,13 C-4.73447626e-16,9.13400675 3.13400675,6 7,6 L17.8208049,6 Z M39.1791951,6 L50,6 C53.8659932,6 57,9.13400675 57,13 C57,16.8659932 53.8659932,20 50,20 L38.5009155,20 C40.0701379,17.9108487 41,15.3140148 41,12.5 C41,10.1192398 40.3344249,7.89393294 39.1791951,6 Z" id="path-1"></path>
        <filter x="-11.4%" y="-39.3%" width="122.8%" height="192.9%" filterUnits="objectBoundingBox" id="filter-2">
            <feOffset dx="0" dy="1" in="SourceAlpha" result="shadowOffsetOuter1"></feOffset>
            <feGaussianBlur stdDeviation="2" in="shadowOffsetOuter1" result="shadowBlurOuter1"></feGaussianBlur>
            <feColorMatrix values="0 0 0 0 0   0 0 0 0 0   0 0 0 0 0  0 0 0 0.5 0" type="matrix" in="shadowBlurOuter1"></feColorMatrix>
        </filter>
    </defs>
    <g id="Volcanes-fallas" stroke="none" stroke-width="1" fill="none" fill-rule="evenodd">
        <g id="cote" transform="translate(4.000000, 1.000000)">
            <g id="ic_volcano_label-copy-19">
                <g id="Group-Copy-3" transform="translate(16.000000, 0.000000)">
                    <g id="Group-26-Copy-4"></g>
                </g>
                <circle id="Oval-2-Copy-5" stroke="#FFFFFF" stroke-width="0.5" fill="#FF6D00" cx="28.5" cy="12.5" r="12.5"></circle>
                <g id="Combined-Shape">
                    <use fill="black" fill-opacity="1" filter="url(#filter-2)" xlink:href="#path-1"></use>
                    <use fill="#263238" fill-rule="evenodd" xlink:href="#path-1"></use>
                </g>
                <rect id="Rectangle-2-Copy-4" fill="#263238" x="0" y="6" width="57" height="14" rx="7"></rect>
            </g>
            <path d="M21.5546875,11.2148438 C21.0989561,11.2148438 20.746095,11.386066 20.4960938,11.7285156 C20.2460925,12.0709653 20.1210938,12.548174 20.1210938,13.1601562 C20.1210938,14.4336001 20.5989536,15.0703125 21.5546875,15.0703125 C21.9557312,15.0703125 22.4414034,14.9700531 23.0117188,14.7695312 L23.0117188,15.7851562 C22.5429664,15.9804697 22.0195341,16.078125 21.4414062,16.078125 C20.6106729,16.078125 19.9752626,15.8261744 19.5351562,15.3222656 C19.0950499,14.8183569 18.875,14.0950568 18.875,13.1523438 C18.875,12.5585908 18.9830718,12.0384137 19.1992188,11.5917969 C19.4153657,11.1451801 19.7259094,10.8027356 20.1308594,10.5644531 C20.5358093,10.3261707 21.0104139,10.2070312 21.5546875,10.2070312 C22.1093778,10.2070312 22.6666639,10.3411445 23.2265625,10.609375 L22.8359375,11.59375 C22.6223948,11.492187 22.4075532,11.4036462 22.1914062,11.328125 C21.9752593,11.2526038 21.7630219,11.2148438 21.5546875,11.2148438 Z M29.25,13.1367188 C29.25,14.082036 29.0156273,14.8085912 28.546875,15.3164062 C28.0781227,15.8242213 27.4062544,16.078125 26.53125,16.078125 C25.6562456,16.078125 24.9843773,15.8242213 24.515625,15.3164062 C24.0468727,14.8085912 23.8125,14.0794318 23.8125,13.1289062 C23.8125,12.1783807 24.0475237,11.4524765 24.5175781,10.9511719 C24.9876326,10.4498673 25.6614539,10.1992188 26.5390625,10.1992188 C27.4166711,10.1992188 28.0878883,10.4518204 28.5527344,10.9570312 C29.0175804,11.4622421 29.25,12.1887973 29.25,13.1367188 Z M25.0820312,13.1367188 C25.0820312,13.7747428 25.2031238,14.2552067 25.4453125,14.578125 C25.6875012,14.9010433 26.0494768,15.0625 26.53125,15.0625 C27.4974007,15.0625 27.9804688,14.4205793 27.9804688,13.1367188 C27.9804688,11.850254 27.5000048,11.2070312 26.5390625,11.2070312 C26.0572893,11.2070312 25.6940116,11.369139 25.4492188,11.6933594 C25.2044259,12.0175797 25.0820312,12.4986947 25.0820312,13.1367188 Z M32.3984375,16 L31.1875,16 L31.1875,11.296875 L29.6367188,11.296875 L29.6367188,10.2890625 L33.9492188,10.2890625 L33.9492188,11.296875 L32.3984375,11.296875 L32.3984375,16 Z M38.1171875,16 L34.828125,16 L34.828125,10.2890625 L38.1171875,10.2890625 L38.1171875,11.28125 L36.0390625,11.28125 L36.0390625,12.5351562 L37.9726562,12.5351562 L37.9726562,13.5273438 L36.0390625,13.5273438 L36.0390625,15 L38.1171875,15 L38.1171875,16 Z" fill="#FFFFFF"></path>
        </g>
    </g>
</svg>