<?xml version="1.0" encoding="UTF-8"?>
<svg width="88px" height="27px" viewBox="0 0 88 27" version="1.1" xmlns="http://www.w3.org/2000/svg" xmlns:xlink="http://www.w3.org/1999/xlink">
    <!-- Generator: Sketch 48.2 (47327) - http://www.bohemiancoding.com/sketch -->
    <title>cv_guanacaste</title>
    <desc>Created with Sketch.</desc>
    <defs>
        <path d="M30.6751405,6 C29.6123291,7.89393294 29,10.1192398 29,12.5 C29,15.3140148 29.8554731,17.9108487 31.2991578,20 L9,20 C5.13400675,20 2,16.8659932 2,13 C2,9.13400675 5.13400675,6 9,6 L30.6751405,6 Z M50.3248595,6 L72,6 C75.8659932,6 79,9.13400675 79,13 C79,16.8659932 75.8659932,20 72,20 L49.7008422,20 C51.1445269,17.9108487 52,15.3140148 52,12.5 C52,10.1192398 51.3876709,7.89393294 50.3248595,6 Z" id="path-1"></path>
        <filter x="-8.4%" y="-39.3%" width="116.9%" height="192.9%" filterUnits="objectBoundingBox" id="filter-2">
            <feOffset dx="0" dy="1" in="SourceAlpha" result="shadowOffsetOuter1"></feOffset>
            <feGaussianBlur stdDeviation="2" in="shadowOffsetOuter1" result="shadowBlurOuter1"></feGaussianBlur>
            <feColorMatrix values="0 0 0 0 0   0 0 0 0 0   0 0 0 0 0  0 0 0 0.5 0" type="matrix" in="shadowBlurOuter1"></feColorMatrix>
        </filter>
        <rect id="path-3" x="0" y="6" width="80" height="14" rx="7"></rect>
        <filter x="-8.1%" y="-39.3%" width="116.2%" height="192.9%" filterUnits="objectBoundingBox" id="filter-4">
            <feOffset dx="0" dy="1" in="SourceAlpha" result="shadowOffsetOuter1"></feOffset>
            <feGaussianBlur stdDeviation="2" in="shadowOffsetOuter1" result="shadowBlurOuter1"></feGaussianBlur>
            <feColorMatrix values="0 0 0 0 0   0 0 0 0 0   0 0 0 0 0  0 0 0 0.5 0" type="matrix" in="shadowBlurOuter1"></feColorMatrix>
        </filter>
    </defs>
    <g id="Volcanes-fallas" stroke="none" stroke-width="1" fill="none" fill-rule="evenodd">
        <g id="cv_guanacaste" transform="translate(4.000000, 1.000000)">
            <g id="ic_volcano_label-copy-18">
                <g id="Group-Copy-3">
                    <g id="Group-26-Copy-4" transform="translate(28.000000, 0.000000)" fill="#FF6D00" stroke="#FFFFFF" stroke-width="0.5">
                        <circle id="Oval-2-Copy-5" cx="12.5" cy="12.5" r="12.5"></circle>
                    </g>
                    <g id="Combined-Shape">
                        <use fill="black" fill-opacity="1" filter="url(#filter-2)" xlink:href="#path-1"></use>
                        <use fill="#263238" fill-rule="evenodd" xlink:href="#path-1"></use>
                    </g>
                    <g id="Rectangle-2-Copy-4">
                        <use fill="black" fill-opacity="1" filter="url(#filter-4)" xlink:href="#path-3"></use>
                        <use fill="#263238" fill-rule="evenodd" xlink:href="#path-3"></use>
                    </g>
                </g>
                <path d="M8.47460938,11.2148438 C8.01887793,11.2148438 7.66601688,11.386066 7.41601562,11.7285156 C7.16601438,12.0709653 7.04101562,12.548174 7.04101562,13.1601562 C7.04101562,14.4336001 7.51887543,15.0703125 8.47460938,15.0703125 C8.87565305,15.0703125 9.36132527,14.9700531 9.93164062,14.7695312 L9.93164062,15.7851562 C9.46288828,15.9804697 8.93945602,16.078125 8.36132812,16.078125 C7.5305948,16.078125 6.89518449,15.8261744 6.45507812,15.3222656 C6.01497176,14.8183569 5.79492188,14.0950568 5.79492188,13.1523438 C5.79492188,12.5585908 5.90299371,12.0384137 6.11914062,11.5917969 C6.33528754,11.1451801 6.64583131,10.8027356 7.05078125,10.5644531 C7.45573119,10.3261707 7.93033582,10.2070312 8.47460938,10.2070312 C9.02929965,10.2070312 9.58658574,10.3411445 10.1464844,10.609375 L9.75585938,11.59375 C9.54231664,11.492187 9.32747504,11.4036462 9.11132812,11.328125 C8.89518121,11.2526038 8.68294375,11.2148438 8.47460938,11.2148438 Z M10.8847656,15.4414062 C10.8847656,15.2226552 10.9433588,15.0572922 11.0605469,14.9453125 C11.177735,14.8333328 11.3483062,14.7773438 11.5722656,14.7773438 C11.7884125,14.7773438 11.9557286,14.8346348 12.0742188,14.9492188 C12.1927089,15.0638027 12.2519531,15.2278635 12.2519531,15.4414062 C12.2519531,15.6471364 12.1920579,15.8092442 12.0722656,15.9277344 C11.9524734,16.0462246 11.7858084,16.1054688 11.5722656,16.1054688 C11.3535145,16.1054688 11.1842454,16.0475266 11.0644531,15.9316406 C10.9446609,15.8157546 10.8847656,15.6523448 10.8847656,15.4414062 Z M16.2050781,10.2890625 L17.4277344,10.2890625 L15.4863281,16 L14.1660156,16 L12.2285156,10.2890625 L13.4511719,10.2890625 L14.5253906,13.6875 C14.5852868,13.8880218 14.6471351,14.1217435 14.7109375,14.3886719 C14.7747399,14.6556003 14.814453,14.8411453 14.8300781,14.9453125 C14.8587241,14.705728 14.9563794,14.2864613 15.1230469,13.6875 L16.2050781,10.2890625 Z M17.4863281,15.4414062 C17.4863281,15.2226552 17.5449213,15.0572922 17.6621094,14.9453125 C17.7792975,14.8333328 17.9498687,14.7773438 18.1738281,14.7773438 C18.389975,14.7773438 18.5572911,14.8346348 18.6757812,14.9492188 C18.7942714,15.0638027 18.8535156,15.2278635 18.8535156,15.4414062 C18.8535156,15.6471364 18.7936204,15.8092442 18.6738281,15.9277344 C18.5540359,16.0462246 18.3873709,16.1054688 18.1738281,16.1054688 C17.955077,16.1054688 17.7858079,16.0475266 17.6660156,15.9316406 C17.5462234,15.8157546 17.4863281,15.6523448 17.4863281,15.4414062 Z M24.2753906,12.7929688 L26.5410156,12.7929688 L26.5410156,15.7539062 C26.1738263,15.8736985 25.8281266,15.9576821 25.5039062,16.0058594 C25.1796859,16.0540367 24.848309,16.078125 24.5097656,16.078125 C23.6477821,16.078125 22.9895856,15.8248723 22.5351562,15.3183594 C22.0807269,14.8118464 21.8535156,14.0846402 21.8535156,13.1367188 C21.8535156,12.2148391 22.1171849,11.4960963 22.6445312,10.9804688 C23.1718776,10.4648412 23.9029901,10.2070312 24.8378906,10.2070312 C25.4238311,10.2070312 25.9889296,10.3242176 26.5332031,10.5585938 L26.1308594,11.5273438 C25.7141906,11.3190094 25.2806012,11.2148438 24.8300781,11.2148438 C24.306638,11.2148438 23.8873714,11.3906232 23.5722656,11.7421875 C23.2571599,12.0937518 23.0996094,12.5664033 23.0996094,13.1601562 C23.0996094,13.779951 23.2265612,14.2532536 23.4804688,14.5800781 C23.7343763,14.9069027 24.1035132,15.0703125 24.5878906,15.0703125 C24.8404961,15.0703125 25.0970039,15.0442711 25.3574219,14.9921875 L25.3574219,13.8007812 L24.2753906,13.8007812 L24.2753906,12.7929688 Z M32.5488281,10.2890625 L32.5488281,13.984375 C32.5488281,14.4062521 32.454428,14.7760401 32.265625,15.09375 C32.076822,15.4114599 31.8040382,15.6549471 31.4472656,15.8242188 C31.090493,15.9934904 30.6686222,16.078125 30.1816406,16.078125 C29.447262,16.078125 28.8769552,15.8899758 28.4707031,15.5136719 C28.0644511,15.1373679 27.8613281,14.6223991 27.8613281,13.96875 L27.8613281,10.2890625 L29.0683594,10.2890625 L29.0683594,13.7851562 C29.0683594,14.2252626 29.1569002,14.5481761 29.3339844,14.7539062 C29.5110686,14.9596364 29.8040344,15.0625 30.2128906,15.0625 C30.6087259,15.0625 30.8958324,14.9589854 31.0742188,14.7519531 C31.2526051,14.5449208 31.3417969,14.2200543 31.3417969,13.7773438 L31.3417969,10.2890625 L32.5488281,10.2890625 Z M37.3652344,16 L36.9511719,14.640625 L34.8691406,14.640625 L34.4550781,16 L33.1503906,16 L35.1660156,10.265625 L36.6464844,10.265625 L38.6699219,16 L37.3652344,16 Z M36.6621094,13.625 C36.279295,12.393223 36.0638023,11.6966154 36.015625,11.5351562 C35.9674477,11.3736971 35.9329428,11.2460942 35.9121094,11.1523438 C35.8261714,11.4856787 35.5800802,12.3098893 35.1738281,13.625 L36.6621094,13.625 Z M44.4550781,16 L42.9160156,16 L40.4316406,11.6796875 L40.3964844,11.6796875 C40.4459638,12.4427121 40.4707031,12.9869775 40.4707031,13.3125 L40.4707031,16 L39.3886719,16 L39.3886719,10.2890625 L40.9160156,10.2890625 L43.3964844,14.5664062 L43.4238281,14.5664062 C43.3847654,13.824215 43.3652344,13.2994807 43.3652344,12.9921875 L43.3652344,10.2890625 L44.4550781,10.2890625 L44.4550781,16 Z M49.3886719,16 L48.9746094,14.640625 L46.8925781,14.640625 L46.4785156,16 L45.1738281,16 L47.1894531,10.265625 L48.6699219,10.265625 L50.6933594,16 L49.3886719,16 Z M48.6855469,13.625 C48.3027325,12.393223 48.0872398,11.6966154 48.0390625,11.5351562 C47.9908852,11.3736971 47.9563803,11.2460942 47.9355469,11.1523438 C47.8496089,11.4856787 47.6035177,12.3098893 47.1972656,13.625 L48.6855469,13.625 Z M53.6777344,11.2148438 C53.2220029,11.2148438 52.8691419,11.386066 52.6191406,11.7285156 C52.3691394,12.0709653 52.2441406,12.548174 52.2441406,13.1601562 C52.2441406,14.4336001 52.7220004,15.0703125 53.6777344,15.0703125 C54.078778,15.0703125 54.5644503,14.9700531 55.1347656,14.7695312 L55.1347656,15.7851562 C54.6660133,15.9804697 54.142581,16.078125 53.5644531,16.078125 C52.7337198,16.078125 52.0983095,15.8261744 51.6582031,15.3222656 C51.2180968,14.8183569 50.9980469,14.0950568 50.9980469,13.1523438 C50.9980469,12.5585908 51.1061187,12.0384137 51.3222656,11.5917969 C51.5384125,11.1451801 51.8489563,10.8027356 52.2539062,10.5644531 C52.6588562,10.3261707 53.1334608,10.2070312 53.6777344,10.2070312 C54.2324246,10.2070312 54.7897107,10.3411445 55.3496094,10.609375 L54.9589844,11.59375 C54.7454416,11.492187 54.5306,11.4036462 54.3144531,11.328125 C54.0983062,11.2526038 53.8860687,11.2148438 53.6777344,11.2148438 Z M59.8457031,16 L59.4316406,14.640625 L57.3496094,14.640625 L56.9355469,16 L55.6308594,16 L57.6464844,10.265625 L59.1269531,10.265625 L61.1503906,16 L59.8457031,16 Z M59.1425781,13.625 C58.7597637,12.393223 58.5442711,11.6966154 58.4960937,11.5351562 C58.4479164,11.3736971 58.4134116,11.2460942 58.3925781,11.1523438 C58.3066402,11.4856787 58.0605489,12.3098893 57.6542969,13.625 L59.1425781,13.625 Z M65.2402344,14.4140625 C65.2402344,14.9296901 65.0546894,15.335936 64.6835938,15.6328125 C64.3124981,15.929689 63.7962273,16.078125 63.1347656,16.078125 C62.5253876,16.078125 61.9863305,15.9635428 61.5175781,15.734375 L61.5175781,14.609375 C61.9029967,14.7812509 62.2291653,14.9023434 62.4960937,14.9726562 C62.7630222,15.0429691 63.0071604,15.078125 63.2285156,15.078125 C63.494142,15.078125 63.697916,15.0273443 63.8398437,14.9257812 C63.9817715,14.8242182 64.0527344,14.6731781 64.0527344,14.4726562 C64.0527344,14.3606765 64.0214847,14.2610681 63.9589844,14.1738281 C63.8964841,14.0865881 63.8046881,14.0026046 63.6835937,13.921875 C63.5624994,13.8411454 63.3157571,13.7122405 62.9433594,13.5351562 C62.5943993,13.3710929 62.3326832,13.2135424 62.1582031,13.0625 C61.9837231,12.9114576 61.8444016,12.7356781 61.7402344,12.5351562 C61.6360672,12.3346344 61.5839844,12.1002618 61.5839844,11.8320312 C61.5839844,11.3268204 61.7552066,10.9296889 62.0976562,10.640625 C62.4401059,10.3515611 62.9134084,10.2070312 63.5175781,10.2070312 C63.8144546,10.2070312 64.0976549,10.2421871 64.3671875,10.3125 C64.6367201,10.3828129 64.9186183,10.4817702 65.2128906,10.609375 L64.8222656,11.5507812 C64.5175766,11.4257806 64.265626,11.3385419 64.0664062,11.2890625 C63.8671865,11.2395831 63.6712249,11.2148438 63.4785156,11.2148438 C63.2493478,11.2148438 63.0735683,11.2682286 62.9511719,11.375 C62.8287754,11.4817714 62.7675781,11.6210929 62.7675781,11.7929688 C62.7675781,11.8997401 62.7923175,11.9928381 62.8417969,12.0722656 C62.8912763,12.1516931 62.9700515,12.2285153 63.078125,12.3027344 C63.1861985,12.3769535 63.4420553,12.5104157 63.8457031,12.703125 C64.37956,12.9583346 64.7454417,13.2141914 64.9433594,13.4707031 C65.141277,13.7272148 65.2402344,14.0416648 65.2402344,14.4140625 Z M68.4785156,16 L67.2675781,16 L67.2675781,11.296875 L65.7167969,11.296875 L65.7167969,10.2890625 L70.0292969,10.2890625 L70.0292969,11.296875 L68.4785156,11.296875 L68.4785156,16 Z M74.1972656,16 L70.9082031,16 L70.9082031,10.2890625 L74.1972656,10.2890625 L74.1972656,11.28125 L72.1191406,11.28125 L72.1191406,12.5351562 L74.0527344,12.5351562 L74.0527344,13.5273438 L72.1191406,13.5273438 L72.1191406,15 L74.1972656,15 L74.1972656,16 Z" id="C.V.-guanacaste" fill="#FFFFFF"></path>
            </g>
        </g>
    </g>
</svg>