<?xml version="1.0" encoding="UTF-8"?>
<svg width="65px" height="27px" viewBox="0 0 65 27" version="1.1" xmlns="http://www.w3.org/2000/svg" xmlns:xlink="http://www.w3.org/1999/xlink">
    <!-- Generator: Sketch 48.2 (47327) - http://www.bohemiancoding.com/sketch -->
    <title>danta</title>
    <desc>Created with Sketch.</desc>
    <defs>
        <path d="M17.8208049,6 C16.6655751,7.89393294 16,10.1192398 16,12.5 C16,15.3140148 16.9298621,17.9108487 18.4990845,20 L7,20 C3.13400675,20 4.73447626e-16,16.8659932 0,13 C-4.73447626e-16,9.13400675 3.13400675,6 7,6 L17.8208049,6 Z M39.1791951,6 L50,6 C53.8659932,6 57,9.13400675 57,13 C57,16.8659932 53.8659932,20 50,20 L38.5009155,20 C40.0701379,17.9108487 41,15.3140148 41,12.5 C41,10.1192398 40.3344249,7.89393294 39.1791951,6 Z" id="path-1"></path>
        <filter x="-11.4%" y="-39.3%" width="122.8%" height="192.9%" filterUnits="objectBoundingBox" id="filter-2">
            <feOffset dx="0" dy="1" in="SourceAlpha" result="shadowOffsetOuter1"></feOffset>
            <feGaussianBlur stdDeviation="2" in="shadowOffsetOuter1" result="shadowBlurOuter1"></feGaussianBlur>
            <feColorMatrix values="0 0 0 0 0   0 0 0 0 0   0 0 0 0 0  0 0 0 0.5 0" type="matrix" in="shadowBlurOuter1"></feColorMatrix>
        </filter>
    </defs>
    <g id="Volcanes-fallas" stroke="none" stroke-width="1" fill="none" fill-rule="evenodd">
        <g id="danta" transform="translate(4.000000, 1.000000)">
            <g id="ic_volcano_label-copy-19">
                <g id="Group-Copy-3" transform="translate(16.000000, 0.000000)">
                    <g id="Group-26-Copy-4"></g>
                </g>
                <circle id="Oval-2-Copy-5" stroke="#FFFFFF" stroke-width="0.5" fill="#FF6D00" cx="28.5" cy="12.5" r="12.5"></circle>
                <g id="Combined-Shape">
                    <use fill="black" fill-opacity="1" filter="url(#filter-2)" xlink:href="#path-1"></use>
                    <use fill="#263238" fill-rule="evenodd" xlink:href="#path-1"></use>
                </g>
                <rect id="Rectangle-2-Copy-4" fill="#263238" x="0" y="6" width="57" height="14" rx="7"></rect>
            </g>
            <path d="M20.2675781,13.0898438 C20.2675781,14.0299526 20.0000027,14.7499975 19.4648438,15.25 C18.9296848,15.7500025 18.1569061,16 17.1464844,16 L15.5292969,16 L15.5292969,10.2890625 L17.3222656,10.2890625 C18.254562,10.2890625 18.978513,10.5351538 19.4941406,11.0273438 C20.0097682,11.5195337 20.2675781,12.2070268 20.2675781,13.0898438 Z M19.0097656,13.1210938 C19.0097656,11.8945251 18.4681044,11.28125 17.3847656,11.28125 L16.7402344,11.28125 L16.7402344,15 L17.2597656,15 C18.4264381,15 19.0097656,14.3737042 19.0097656,13.1210938 Z M24.7871094,16 L24.3730469,14.640625 L22.2910156,14.640625 L21.8769531,16 L20.5722656,16 L22.5878906,10.265625 L24.0683594,10.265625 L26.0917969,16 L24.7871094,16 Z M24.0839844,13.625 C23.70117,12.393223 23.4856773,11.6966154 23.4375,11.5351562 C23.3893227,11.3736971 23.3548178,11.2460942 23.3339844,11.1523438 C23.2480464,11.4856787 23.0019552,12.3098893 22.5957031,13.625 L24.0839844,13.625 Z M31.8769531,16 L30.3378906,16 L27.8535156,11.6796875 L27.8183594,11.6796875 C27.8678388,12.4427121 27.8925781,12.9869775 27.8925781,13.3125 L27.8925781,16 L26.8105469,16 L26.8105469,10.2890625 L28.3378906,10.2890625 L30.8183594,14.5664062 L30.8457031,14.5664062 C30.8066404,13.824215 30.7871094,13.2994807 30.7871094,12.9921875 L30.7871094,10.2890625 L31.8769531,10.2890625 L31.8769531,16 Z M35.5175781,16 L34.3066406,16 L34.3066406,11.296875 L32.7558594,11.296875 L32.7558594,10.2890625 L37.0683594,10.2890625 L37.0683594,11.296875 L35.5175781,11.296875 L35.5175781,16 Z M40.8847656,16 L40.4707031,14.640625 L38.3886719,14.640625 L37.9746094,16 L36.6699219,16 L38.6855469,10.265625 L40.1660156,10.265625 L42.1894531,16 L40.8847656,16 Z M40.1816406,13.625 C39.7988262,12.393223 39.5833336,11.6966154 39.5351562,11.5351562 C39.4869789,11.3736971 39.4524741,11.2460942 39.4316406,11.1523438 C39.3457027,11.4856787 39.0996114,12.3098893 38.6933594,13.625 L40.1816406,13.625 Z" id="Danta" fill="#FFFFFF"></path>
        </g>
    </g>
</svg>