<?xml version="1.0" encoding="UTF-8"?>
<svg width="65px" height="27px" viewBox="0 0 65 27" version="1.1" xmlns="http://www.w3.org/2000/svg" xmlns:xlink="http://www.w3.org/1999/xlink">
    <!-- Generator: Sketch 48.2 (47327) - http://www.bohemiancoding.com/sketch -->
    <title>dante</title>
    <desc>Created with Sketch.</desc>
    <defs>
        <path d="M17.8208049,6 C16.6655751,7.89393294 16,10.1192398 16,12.5 C16,15.3140148 16.9298621,17.9108487 18.4990845,20 L7,20 C3.13400675,20 4.73447626e-16,16.8659932 0,13 C-4.73447626e-16,9.13400675 3.13400675,6 7,6 L17.8208049,6 Z M39.1791951,6 L50,6 C53.8659932,6 57,9.13400675 57,13 C57,16.8659932 53.8659932,20 50,20 L38.5009155,20 C40.0701379,17.9108487 41,15.3140148 41,12.5 C41,10.1192398 40.3344249,7.89393294 39.1791951,6 Z" id="path-1"></path>
        <filter x="-11.4%" y="-39.3%" width="122.8%" height="192.9%" filterUnits="objectBoundingBox" id="filter-2">
            <feOffset dx="0" dy="1" in="SourceAlpha" result="shadowOffsetOuter1"></feOffset>
            <feGaussianBlur stdDeviation="2" in="shadowOffsetOuter1" result="shadowBlurOuter1"></feGaussianBlur>
            <feColorMatrix values="0 0 0 0 0   0 0 0 0 0   0 0 0 0 0  0 0 0 0.5 0" type="matrix" in="shadowBlurOuter1"></feColorMatrix>
        </filter>
    </defs>
    <g id="Volcanes-fallas" stroke="none" stroke-width="1" fill="none" fill-rule="evenodd">
        <g id="dante" transform="translate(4.000000, 1.000000)">
            <g id="ic_volcano_label-copy-19">
                <g id="Group-Copy-3" transform="translate(16.000000, 0.000000)">
                    <g id="Group-26-Copy-4"></g>
                </g>
                <circle id="Oval-2-Copy-5" stroke="#FFFFFF" stroke-width="0.5" fill="#FF6D00" cx="28.5" cy="12.5" r="12.5"></circle>
                <g id="Combined-Shape">
                    <use fill="black" fill-opacity="1" filter="url(#filter-2)" xlink:href="#path-1"></use>
                    <use fill="#263238" fill-rule="evenodd" xlink:href="#path-1"></use>
                </g>
                <rect id="Rectangle-2-Copy-4" fill="#263238" x="0" y="6" width="57" height="14" rx="7"></rect>
            </g>
            <path d="M20.5078125,13.0898438 C20.5078125,14.0299526 20.2402371,14.7499975 19.7050781,15.25 C19.1699192,15.7500025 18.3971405,16 17.3867188,16 L15.7695312,16 L15.7695312,10.2890625 L17.5625,10.2890625 C18.4947963,10.2890625 19.2187474,10.5351538 19.734375,11.0273438 C20.2500026,11.5195337 20.5078125,12.2070268 20.5078125,13.0898438 Z M19.25,13.1210938 C19.25,11.8945251 18.7083387,11.28125 17.625,11.28125 L16.9804688,11.28125 L16.9804688,15 L17.5,15 C18.6666725,15 19.25,14.3737042 19.25,13.1210938 Z M25.0273438,16 L24.6132812,14.640625 L22.53125,14.640625 L22.1171875,16 L20.8125,16 L22.828125,10.265625 L24.3085938,10.265625 L26.3320312,16 L25.0273438,16 Z M24.3242188,13.625 C23.9414043,12.393223 23.7259117,11.6966154 23.6777344,11.5351562 C23.6295571,11.3736971 23.5950522,11.2460942 23.5742188,11.1523438 C23.4882808,11.4856787 23.2421895,12.3098893 22.8359375,13.625 L24.3242188,13.625 Z M32.1171875,16 L30.578125,16 L28.09375,11.6796875 L28.0585938,11.6796875 C28.1080732,12.4427121 28.1328125,12.9869775 28.1328125,13.3125 L28.1328125,16 L27.0507812,16 L27.0507812,10.2890625 L28.578125,10.2890625 L31.0585938,14.5664062 L31.0859375,14.5664062 C31.0468748,13.824215 31.0273438,13.2994807 31.0273438,12.9921875 L31.0273438,10.2890625 L32.1171875,10.2890625 L32.1171875,16 Z M35.7578125,16 L34.546875,16 L34.546875,11.296875 L32.9960938,11.296875 L32.9960938,10.2890625 L37.3085938,10.2890625 L37.3085938,11.296875 L35.7578125,11.296875 L35.7578125,16 Z M41.4765625,16 L38.1875,16 L38.1875,10.2890625 L41.4765625,10.2890625 L41.4765625,11.28125 L39.3984375,11.28125 L39.3984375,12.5351562 L41.3320312,12.5351562 L41.3320312,13.5273438 L39.3984375,13.5273438 L39.3984375,15 L41.4765625,15 L41.4765625,16 Z" fill="#FFFFFF"></path>
        </g>
    </g>
</svg>