<?xml version="1.0" encoding="UTF-8"?>
<svg width="65px" height="27px" viewBox="0 0 65 27" version="1.1" xmlns="http://www.w3.org/2000/svg" xmlns:xlink="http://www.w3.org/1999/xlink">
    <!-- Generator: Sketch 48.2 (47327) - http://www.bohemiancoding.com/sketch -->
    <title>delicias</title>
    <desc>Created with Sketch.</desc>
    <defs>
        <path d="M17.8208049,6 C16.6655751,7.89393294 16,10.1192398 16,12.5 C16,15.3140148 16.9298621,17.9108487 18.4990845,20 L7,20 C3.13400675,20 4.73447626e-16,16.8659932 0,13 C-4.73447626e-16,9.13400675 3.13400675,6 7,6 L17.8208049,6 Z M39.1791951,6 L50,6 C53.8659932,6 57,9.13400675 57,13 C57,16.8659932 53.8659932,20 50,20 L38.5009155,20 C40.0701379,17.9108487 41,15.3140148 41,12.5 C41,10.1192398 40.3344249,7.89393294 39.1791951,6 Z" id="path-1"></path>
        <filter x="-11.4%" y="-39.3%" width="122.8%" height="192.9%" filterUnits="objectBoundingBox" id="filter-2">
            <feOffset dx="0" dy="1" in="SourceAlpha" result="shadowOffsetOuter1"></feOffset>
            <feGaussianBlur stdDeviation="2" in="shadowOffsetOuter1" result="shadowBlurOuter1"></feGaussianBlur>
            <feColorMatrix values="0 0 0 0 0   0 0 0 0 0   0 0 0 0 0  0 0 0 0.5 0" type="matrix" in="shadowBlurOuter1"></feColorMatrix>
        </filter>
    </defs>
    <g id="Volcanes-fallas" stroke="none" stroke-width="1" fill="none" fill-rule="evenodd">
        <g id="delicias" transform="translate(4.000000, 1.000000)">
            <g id="ic_volcano_label-copy-19">
                <g id="Group-Copy-3" transform="translate(16.000000, 0.000000)">
                    <g id="Group-26-Copy-4"></g>
                </g>
                <circle id="Oval-2-Copy-5" stroke="#FFFFFF" stroke-width="0.5" fill="#FF6D00" cx="28.5" cy="12.5" r="12.5"></circle>
                <g id="Combined-Shape">
                    <use fill="black" fill-opacity="1" filter="url(#filter-2)" xlink:href="#path-1"></use>
                    <use fill="#263238" fill-rule="evenodd" xlink:href="#path-1"></use>
                </g>
                <rect id="Rectangle-2-Copy-4" fill="#263238" x="0" y="6" width="57" height="14" rx="7"></rect>
            </g>
            <path d="M16.3359375,13.0898438 C16.3359375,14.0299526 16.0683621,14.7499975 15.5332031,15.25 C14.9980442,15.7500025 14.2252655,16 13.2148438,16 L11.5976562,16 L11.5976562,10.2890625 L13.390625,10.2890625 C14.3229213,10.2890625 15.0468724,10.5351538 15.5625,11.0273438 C16.0781276,11.5195337 16.3359375,12.2070268 16.3359375,13.0898438 Z M15.078125,13.1210938 C15.078125,11.8945251 14.5364637,11.28125 13.453125,11.28125 L12.8085938,11.28125 L12.8085938,15 L13.328125,15 C14.4947975,15 15.078125,14.3737042 15.078125,13.1210938 Z M20.8085938,16 L17.5195312,16 L17.5195312,10.2890625 L20.8085938,10.2890625 L20.8085938,11.28125 L18.7304688,11.28125 L18.7304688,12.5351562 L20.6640625,12.5351562 L20.6640625,13.5273438 L18.7304688,13.5273438 L18.7304688,15 L20.8085938,15 L20.8085938,16 Z M22,16 L22,10.2890625 L23.2109375,10.2890625 L23.2109375,15 L25.5273438,15 L25.5273438,16 L22,16 Z M26.5195312,16 L26.5195312,10.2890625 L27.7304688,10.2890625 L27.7304688,16 L26.5195312,16 Z M31.59375,11.2148438 C31.1380186,11.2148438 30.7851575,11.386066 30.5351562,11.7285156 C30.285155,12.0709653 30.1601562,12.548174 30.1601562,13.1601562 C30.1601562,14.4336001 30.6380161,15.0703125 31.59375,15.0703125 C31.9947937,15.0703125 32.4804659,14.9700531 33.0507812,14.7695312 L33.0507812,15.7851562 C32.5820289,15.9804697 32.0585966,16.078125 31.4804688,16.078125 C30.6497354,16.078125 30.0143251,15.8261744 29.5742188,15.3222656 C29.1341124,14.8183569 28.9140625,14.0950568 28.9140625,13.1523438 C28.9140625,12.5585908 29.0221343,12.0384137 29.2382812,11.5917969 C29.4544282,11.1451801 29.7649719,10.8027356 30.1699219,10.5644531 C30.5748718,10.3261707 31.0494764,10.2070312 31.59375,10.2070312 C32.1484403,10.2070312 32.7057264,10.3411445 33.265625,10.609375 L32.875,11.59375 C32.6614573,11.492187 32.4466157,11.4036462 32.2304688,11.328125 C32.0143218,11.2526038 31.8020844,11.2148438 31.59375,11.2148438 Z M34.265625,16 L34.265625,10.2890625 L35.4765625,10.2890625 L35.4765625,16 L34.265625,16 Z M40.4101562,16 L39.9960938,14.640625 L37.9140625,14.640625 L37.5,16 L36.1953125,16 L38.2109375,10.265625 L39.6914062,10.265625 L41.7148438,16 L40.4101562,16 Z M39.7070312,13.625 C39.3242168,12.393223 39.1087242,11.6966154 39.0605469,11.5351562 C39.0123696,11.3736971 38.9778647,11.2460942 38.9570312,11.1523438 C38.8710933,11.4856787 38.625002,12.3098893 38.21875,13.625 L39.7070312,13.625 Z M45.8046875,14.4140625 C45.8046875,14.9296901 45.6191425,15.335936 45.2480469,15.6328125 C44.8769513,15.929689 44.3606804,16.078125 43.6992187,16.078125 C43.0898407,16.078125 42.5507836,15.9635428 42.0820312,15.734375 L42.0820312,14.609375 C42.4674498,14.7812509 42.7936185,14.9023434 43.0605469,14.9726562 C43.3274753,15.0429691 43.5716135,15.078125 43.7929687,15.078125 C44.0585951,15.078125 44.2623691,15.0273443 44.4042969,14.9257812 C44.5462247,14.8242182 44.6171875,14.6731781 44.6171875,14.4726562 C44.6171875,14.3606765 44.5859378,14.2610681 44.5234375,14.1738281 C44.4609372,14.0865881 44.3691412,14.0026046 44.2480469,13.921875 C44.1269525,13.8411454 43.8802102,13.7122405 43.5078125,13.5351562 C43.1588524,13.3710929 42.8971363,13.2135424 42.7226562,13.0625 C42.5481762,12.9114576 42.4088547,12.7356781 42.3046875,12.5351562 C42.2005203,12.3346344 42.1484375,12.1002618 42.1484375,11.8320312 C42.1484375,11.3268204 42.3196597,10.9296889 42.6621094,10.640625 C43.004559,10.3515611 43.4778616,10.2070312 44.0820312,10.2070312 C44.3789077,10.2070312 44.662108,10.2421871 44.9316406,10.3125 C45.2011732,10.3828129 45.4830714,10.4817702 45.7773437,10.609375 L45.3867187,11.5507812 C45.0820297,11.4257806 44.8300791,11.3385419 44.6308594,11.2890625 C44.4316396,11.2395831 44.235678,11.2148438 44.0429687,11.2148438 C43.8138009,11.2148438 43.6380214,11.2682286 43.515625,11.375 C43.3932286,11.4817714 43.3320312,11.6210929 43.3320312,11.7929688 C43.3320312,11.8997401 43.3567706,11.9928381 43.40625,12.0722656 C43.4557294,12.1516931 43.5345047,12.2285153 43.6425781,12.3027344 C43.7506516,12.3769535 44.0065084,12.5104157 44.4101562,12.703125 C44.9440131,12.9583346 45.3098948,13.2141914 45.5078125,13.4707031 C45.7057302,13.7272148 45.8046875,14.0416648 45.8046875,14.4140625 Z" fill="#FFFFFF"></path>
        </g>
    </g>
</svg>