<?xml version="1.0" encoding="UTF-8"?>
<svg width="65px" height="27px" viewBox="0 0 65 27" version="1.1" xmlns="http://www.w3.org/2000/svg" xmlns:xlink="http://www.w3.org/1999/xlink">
    <!-- Generator: Sketch 48.2 (47327) - http://www.bohemiancoding.com/sketch -->
    <title>duan</title>
    <desc>Created with Sketch.</desc>
    <defs>
        <path d="M17.8208049,6 C16.6655751,7.89393294 16,10.1192398 16,12.5 C16,15.3140148 16.9298621,17.9108487 18.4990845,20 L7,20 C3.13400675,20 4.73447626e-16,16.8659932 0,13 C-4.73447626e-16,9.13400675 3.13400675,6 7,6 L17.8208049,6 Z M39.1791951,6 L50,6 C53.8659932,6 57,9.13400675 57,13 C57,16.8659932 53.8659932,20 50,20 L38.5009155,20 C40.0701379,17.9108487 41,15.3140148 41,12.5 C41,10.1192398 40.3344249,7.89393294 39.1791951,6 Z" id="path-1"></path>
        <filter x="-11.4%" y="-39.3%" width="122.8%" height="192.9%" filterUnits="objectBoundingBox" id="filter-2">
            <feOffset dx="0" dy="1" in="SourceAlpha" result="shadowOffsetOuter1"></feOffset>
            <feGaussianBlur stdDeviation="2" in="shadowOffsetOuter1" result="shadowBlurOuter1"></feGaussianBlur>
            <feColorMatrix values="0 0 0 0 0   0 0 0 0 0   0 0 0 0 0  0 0 0 0.5 0" type="matrix" in="shadowBlurOuter1"></feColorMatrix>
        </filter>
    </defs>
    <g id="Volcanes-fallas" stroke="none" stroke-width="1" fill="none" fill-rule="evenodd">
        <g id="duan" transform="translate(4.000000, 1.000000)">
            <g id="ic_volcano_label-copy-19">
                <g id="Group-Copy-3" transform="translate(16.000000, 0.000000)">
                    <g id="Group-26-Copy-4"></g>
                </g>
                <circle id="Oval-2-Copy-5" stroke="#FFFFFF" stroke-width="0.5" fill="#FF6D00" cx="28.5" cy="12.5" r="12.5"></circle>
                <g id="Combined-Shape">
                    <use fill="black" fill-opacity="1" filter="url(#filter-2)" xlink:href="#path-1"></use>
                    <use fill="#263238" fill-rule="evenodd" xlink:href="#path-1"></use>
                </g>
                <rect id="Rectangle-2-Copy-4" fill="#263238" x="0" y="6" width="57" height="14" rx="7"></rect>
            </g>
            <path d="M22,13.0898438 C22,14.0299526 21.7324246,14.7499975 21.1972656,15.25 C20.6621067,15.7500025 19.889328,16 18.8789062,16 L17.2617188,16 L17.2617188,10.2890625 L19.0546875,10.2890625 C19.9869838,10.2890625 20.7109349,10.5351538 21.2265625,11.0273438 C21.7421901,11.5195337 22,12.2070268 22,13.0898438 Z M20.7421875,13.1210938 C20.7421875,11.8945251 20.2005262,11.28125 19.1171875,11.28125 L18.4726562,11.28125 L18.4726562,15 L18.9921875,15 C20.15886,15 20.7421875,14.3737042 20.7421875,13.1210938 Z M27.8320312,10.2890625 L27.8320312,13.984375 C27.8320312,14.4062521 27.7376312,14.7760401 27.5488281,15.09375 C27.3600251,15.4114599 27.0872414,15.6549471 26.7304688,15.8242188 C26.3736961,15.9934904 25.9518254,16.078125 25.4648438,16.078125 C24.7304651,16.078125 24.1601583,15.8899758 23.7539062,15.5136719 C23.3476542,15.1373679 23.1445312,14.6223991 23.1445312,13.96875 L23.1445312,10.2890625 L24.3515625,10.2890625 L24.3515625,13.7851562 C24.3515625,14.2252626 24.4401033,14.5481761 24.6171875,14.7539062 C24.7942717,14.9596364 25.0872375,15.0625 25.4960938,15.0625 C25.8919291,15.0625 26.1790356,14.9589854 26.3574219,14.7519531 C26.5358082,14.5449208 26.625,14.2200543 26.625,13.7773438 L26.625,10.2890625 L27.8320312,10.2890625 Z M32.6484375,16 L32.234375,14.640625 L30.1523438,14.640625 L29.7382812,16 L28.4335938,16 L30.4492188,10.265625 L31.9296875,10.265625 L33.953125,16 L32.6484375,16 Z M31.9453125,13.625 C31.5624981,12.393223 31.3470054,11.6966154 31.2988281,11.5351562 C31.2506508,11.3736971 31.2161459,11.2460942 31.1953125,11.1523438 C31.1093746,11.4856787 30.8632833,12.3098893 30.4570312,13.625 L31.9453125,13.625 Z M30.546875,9.83203125 L30.546875,9.7265625 C30.9947939,9.20572656 31.3007804,8.8138034 31.4648438,8.55078125 L32.8007812,8.55078125 L32.8007812,8.6328125 C32.6653639,8.76822984 32.4342464,8.96939971 32.1074219,9.23632812 C31.7805973,9.50325654 31.5247405,9.70182227 31.3398438,9.83203125 L30.546875,9.83203125 Z M39.7382812,16 L38.1992188,16 L35.7148438,11.6796875 L35.6796875,11.6796875 C35.7291669,12.4427121 35.7539062,12.9869775 35.7539062,13.3125 L35.7539062,16 L34.671875,16 L34.671875,10.2890625 L36.1992188,10.2890625 L38.6796875,14.5664062 L38.7070312,14.5664062 C38.6679686,13.824215 38.6484375,13.2994807 38.6484375,12.9921875 L38.6484375,10.2890625 L39.7382812,10.2890625 L39.7382812,16 Z" id="duán" fill="#FFFFFF"></path>
        </g>
    </g>
</svg>