<?xml version="1.0" encoding="UTF-8"?>
<svg width="118px" height="27px" viewBox="0 0 118 27" version="1.1" xmlns="http://www.w3.org/2000/svg" xmlns:xlink="http://www.w3.org/1999/xlink">
    <!-- Generator: Sketch 48.2 (47327) - http://www.bohemiancoding.com/sketch -->
    <title>florencia_palmira</title>
    <desc>Created with Sketch.</desc>
    <defs>
        <path d="M42.9664693,6 C41.7188212,7.89393294 41,10.1192398 41,12.5 C41,15.3140148 42.004251,17.9108487 43.6990113,20 L9,20 C5.13400675,20 2,16.8659932 2,13 C2,9.13400675 5.13400675,6 9,6 L42.9664693,6 Z M66.0335307,6 L103,6 C106.865993,6 110,9.13400675 110,13 C110,16.8659932 106.865993,20 103,20 L65.3009887,20 C66.995749,17.9108487 68,15.3140148 68,12.5 C68,10.1192398 67.2811788,7.89393294 66.0335307,6 Z" id="path-1"></path>
        <filter x="-6.0%" y="-39.3%" width="112.0%" height="192.9%" filterUnits="objectBoundingBox" id="filter-2">
            <feOffset dx="0" dy="1" in="SourceAlpha" result="shadowOffsetOuter1"></feOffset>
            <feGaussianBlur stdDeviation="2" in="shadowOffsetOuter1" result="shadowBlurOuter1"></feGaussianBlur>
            <feColorMatrix values="0 0 0 0 0   0 0 0 0 0   0 0 0 0 0  0 0 0 0.5 0" type="matrix" in="shadowBlurOuter1"></feColorMatrix>
        </filter>
        <rect id="path-3" x="0" y="6" width="110" height="14" rx="7"></rect>
        <filter x="-5.9%" y="-39.3%" width="111.8%" height="192.9%" filterUnits="objectBoundingBox" id="filter-4">
            <feOffset dx="0" dy="1" in="SourceAlpha" result="shadowOffsetOuter1"></feOffset>
            <feGaussianBlur stdDeviation="2" in="shadowOffsetOuter1" result="shadowBlurOuter1"></feGaussianBlur>
            <feColorMatrix values="0 0 0 0 0   0 0 0 0 0   0 0 0 0 0  0 0 0 0.5 0" type="matrix" in="shadowBlurOuter1"></feColorMatrix>
        </filter>
    </defs>
    <g id="Volcanes-fallas" stroke="none" stroke-width="1" fill="none" fill-rule="evenodd">
        <g id="florencia_palmira" transform="translate(4.000000, 1.000000)">
            <g id="ic_volcano_label-copy-18">
                <g id="Group-Copy-3">
                    <g id="Group-26-Copy-4" transform="translate(43.000000, 0.000000)" fill="#FF6D00" stroke="#FFFFFF" stroke-width="0.5">
                        <circle id="Oval-2-Copy-5" cx="12.5" cy="12.5" r="12.5"></circle>
                    </g>
                    <g id="Combined-Shape">
                        <use fill="black" fill-opacity="1" filter="url(#filter-2)" xlink:href="#path-1"></use>
                        <use fill="#263238" fill-rule="evenodd" xlink:href="#path-1"></use>
                    </g>
                    <g id="Rectangle-2-Copy-4">
                        <use fill="black" fill-opacity="1" filter="url(#filter-4)" xlink:href="#path-3"></use>
                        <use fill="#263238" fill-rule="evenodd" xlink:href="#path-3"></use>
                    </g>
                </g>
                <path d="M15.4707031,16 L14.2792969,16 L14.2792969,10.2890625 L17.5527344,10.2890625 L17.5527344,11.28125 L15.4707031,11.28125 L15.4707031,12.7539062 L17.4082031,12.7539062 L17.4082031,13.7421875 L15.4707031,13.7421875 L15.4707031,16 Z M18.6699219,16 L18.6699219,10.2890625 L19.8808594,10.2890625 L19.8808594,15 L22.1972656,15 L22.1972656,16 L18.6699219,16 Z M28.2128906,13.1367188 C28.2128906,14.082036 27.978518,14.8085912 27.5097656,15.3164062 C27.0410133,15.8242213 26.369145,16.078125 25.4941406,16.078125 C24.6191363,16.078125 23.947268,15.8242213 23.4785156,15.3164062 C23.0097633,14.8085912 22.7753906,14.0794318 22.7753906,13.1289062 C22.7753906,12.1783807 23.0104143,11.4524765 23.4804688,10.9511719 C23.9505232,10.4498673 24.6243446,10.1992188 25.5019531,10.1992188 C26.3795617,10.1992188 27.0507789,10.4518204 27.515625,10.9570312 C27.9804711,11.4622421 28.2128906,12.1887973 28.2128906,13.1367188 Z M24.0449219,13.1367188 C24.0449219,13.7747428 24.1660144,14.2552067 24.4082031,14.578125 C24.6503918,14.9010433 25.0123674,15.0625 25.4941406,15.0625 C26.4602913,15.0625 26.9433594,14.4205793 26.9433594,13.1367188 C26.9433594,11.850254 26.4628954,11.2070312 25.5019531,11.2070312 C25.0201799,11.2070312 24.6569023,11.369139 24.4121094,11.6933594 C24.1673165,12.0175797 24.0449219,12.4986947 24.0449219,13.1367188 Z M30.6074219,12.8242188 L30.9980469,12.8242188 C31.3808613,12.8242188 31.6634105,12.7604173 31.8457031,12.6328125 C32.0279957,12.5052077 32.1191406,12.3046889 32.1191406,12.03125 C32.1191406,11.7604153 32.0260426,11.5677089 31.8398438,11.453125 C31.6536449,11.3385411 31.3652363,11.28125 30.9746094,11.28125 L30.6074219,11.28125 L30.6074219,12.8242188 Z M30.6074219,13.8085938 L30.6074219,16 L29.3964844,16 L29.3964844,10.2890625 L31.0605469,10.2890625 C31.8365924,10.2890625 32.4108054,10.4303371 32.7832031,10.7128906 C33.1556008,10.9954441 33.3417969,11.4244763 33.3417969,12 C33.3417969,12.3359392 33.2493499,12.6347643 33.0644531,12.8964844 C32.8795564,13.1582044 32.6178402,13.3632805 32.2792969,13.5117188 C33.1386762,14.7955793 33.6985664,15.6249981 33.9589844,16 L32.6152344,16 L31.2519531,13.8085938 L30.6074219,13.8085938 Z M37.9667969,16 L34.6777344,16 L34.6777344,10.2890625 L37.9667969,10.2890625 L37.9667969,11.28125 L35.8886719,11.28125 L35.8886719,12.5351562 L37.8222656,12.5351562 L37.8222656,13.5273438 L35.8886719,13.5273438 L35.8886719,15 L37.9667969,15 L37.9667969,16 Z M44.2246094,16 L42.6855469,16 L40.2011719,11.6796875 L40.1660156,11.6796875 C40.215495,12.4427121 40.2402344,12.9869775 40.2402344,13.3125 L40.2402344,16 L39.1582031,16 L39.1582031,10.2890625 L40.6855469,10.2890625 L43.1660156,14.5664062 L43.1933594,14.5664062 C43.1542967,13.824215 43.1347656,13.2994807 43.1347656,12.9921875 L43.1347656,10.2890625 L44.2246094,10.2890625 L44.2246094,16 Z M48.0878906,11.2148438 C47.6321592,11.2148438 47.2792981,11.386066 47.0292969,11.7285156 C46.7792956,12.0709653 46.6542969,12.548174 46.6542969,13.1601562 C46.6542969,14.4336001 47.1321567,15.0703125 48.0878906,15.0703125 C48.4889343,15.0703125 48.9746065,14.9700531 49.5449219,14.7695312 L49.5449219,15.7851562 C49.0761695,15.9804697 48.5527373,16.078125 47.9746094,16.078125 C47.1438761,16.078125 46.5084657,15.8261744 46.0683594,15.3222656 C45.628253,14.8183569 45.4082031,14.0950568 45.4082031,13.1523438 C45.4082031,12.5585908 45.516275,12.0384137 45.7324219,11.5917969 C45.9485688,11.1451801 46.2591126,10.8027356 46.6640625,10.5644531 C47.0690124,10.3261707 47.5436171,10.2070312 48.0878906,10.2070312 C48.6425809,10.2070312 49.199867,10.3411445 49.7597656,10.609375 L49.3691406,11.59375 C49.1555979,11.492187 48.9407563,11.4036462 48.7246094,11.328125 C48.5084625,11.2526038 48.296225,11.2148438 48.0878906,11.2148438 Z M50.7597656,16 L50.7597656,10.2890625 L51.9707031,10.2890625 L51.9707031,16 L50.7597656,16 Z M56.9042969,16 L56.4902344,14.640625 L54.4082031,14.640625 L53.9941406,16 L52.6894531,16 L54.7050781,10.265625 L56.1855469,10.265625 L58.2089844,16 L56.9042969,16 Z M56.2011719,13.625 C55.8183575,12.393223 55.6028648,11.6966154 55.5546875,11.5351562 C55.5065102,11.3736971 55.4720053,11.2460942 55.4511719,11.1523438 C55.3652339,11.4856787 55.1191427,12.3098893 54.7128906,13.625 L56.2011719,13.625 Z M58.4472656,14.34375 L58.4472656,13.3671875 L60.5449219,13.3671875 L60.5449219,14.34375 L58.4472656,14.34375 Z M62.7128906,12.9765625 L63.1113281,12.9765625 C63.4837258,12.9765625 63.7623689,12.9029955 63.9472656,12.7558594 C64.1321624,12.6087232 64.2246094,12.3945327 64.2246094,12.1132812 C64.2246094,11.8294257 64.1471362,11.6197923 63.9921875,11.484375 C63.8372388,11.3489577 63.5944027,11.28125 63.2636719,11.28125 L62.7128906,11.28125 L62.7128906,12.9765625 Z M65.4472656,12.0703125 C65.4472656,12.6848989 65.2552103,13.1549463 64.8710938,13.4804688 C64.4869772,13.8059912 63.9407588,13.96875 63.2324219,13.96875 L62.7128906,13.96875 L62.7128906,16 L61.5019531,16 L61.5019531,10.2890625 L63.3261719,10.2890625 C64.0188837,10.2890625 64.5455711,10.4381496 64.90625,10.7363281 C65.2669289,11.0345067 65.4472656,11.4791637 65.4472656,12.0703125 Z M69.6230469,16 L69.2089844,14.640625 L67.1269531,14.640625 L66.7128906,16 L65.4082031,16 L67.4238281,10.265625 L68.9042969,10.265625 L70.9277344,16 L69.6230469,16 Z M68.9199219,13.625 C68.5371075,12.393223 68.3216148,11.6966154 68.2734375,11.5351562 C68.2252602,11.3736971 68.1907553,11.2460942 68.1699219,11.1523438 C68.0839839,11.4856787 67.8378927,12.3098893 67.4316406,13.625 L68.9199219,13.625 Z M71.6464844,16 L71.6464844,10.2890625 L72.8574219,10.2890625 L72.8574219,15 L75.1738281,15 L75.1738281,16 L71.6464844,16 Z M78.5839844,16 L77.2089844,11.5195312 L77.1738281,11.5195312 C77.2233075,12.4309941 77.2480469,13.039061 77.2480469,13.34375 L77.2480469,16 L76.1660156,16 L76.1660156,10.2890625 L77.8144531,10.2890625 L79.1660156,14.65625 L79.1894531,14.65625 L80.6230469,10.2890625 L82.2714844,10.2890625 L82.2714844,16 L81.1425781,16 L81.1425781,13.296875 C81.1425781,13.1692702 81.1445312,13.0221362 81.1484375,12.8554688 C81.1523438,12.6888013 81.1699217,12.2460973 81.2011719,11.5273438 L81.1660156,11.5273438 L79.6933594,16 L78.5839844,16 Z M83.7089844,16 L83.7089844,10.2890625 L84.9199219,10.2890625 L84.9199219,16 L83.7089844,16 Z M87.5683594,12.8242188 L87.9589844,12.8242188 C88.3417988,12.8242188 88.624348,12.7604173 88.8066406,12.6328125 C88.9889332,12.5052077 89.0800781,12.3046889 89.0800781,12.03125 C89.0800781,11.7604153 88.9869801,11.5677089 88.8007812,11.453125 C88.6145824,11.3385411 88.3261738,11.28125 87.9355469,11.28125 L87.5683594,11.28125 L87.5683594,12.8242188 Z M87.5683594,13.8085938 L87.5683594,16 L86.3574219,16 L86.3574219,10.2890625 L88.0214844,10.2890625 C88.7975299,10.2890625 89.3717429,10.4303371 89.7441406,10.7128906 C90.1165383,10.9954441 90.3027344,11.4244763 90.3027344,12 C90.3027344,12.3359392 90.2102874,12.6347643 90.0253906,12.8964844 C89.8404939,13.1582044 89.5787777,13.3632805 89.2402344,13.5117188 C90.0996137,14.7955793 90.6595039,15.6249981 90.9199219,16 L89.5761719,16 L88.2128906,13.8085938 L87.5683594,13.8085938 Z M95.1347656,16 L94.7207031,14.640625 L92.6386719,14.640625 L92.2246094,16 L90.9199219,16 L92.9355469,10.265625 L94.4160156,10.265625 L96.4394531,16 L95.1347656,16 Z M94.4316406,13.625 C94.0488262,12.393223 93.8333336,11.6966154 93.7851562,11.5351562 C93.7369789,11.3736971 93.7024741,11.2460942 93.6816406,11.1523438 C93.5957027,11.4856787 93.3496114,12.3098893 92.9433594,13.625 L94.4316406,13.625 Z" id="florencia-palmira" fill="#FFFFFF"></path>
            </g>
        </g>
    </g>
</svg>