<?xml version="1.0" encoding="UTF-8"?>
<svg width="121px" height="27px" viewBox="0 0 121 27" version="1.1" xmlns="http://www.w3.org/2000/svg" xmlns:xlink="http://www.w3.org/1999/xlink">
    <!-- Generator: Sketch 48.2 (47327) - http://www.bohemiancoding.com/sketch -->
    <title>frailes_pirris</title>
    <desc>Created with Sketch.</desc>
    <defs>
        <path d="M46.7479727,6 C45.6389521,7.89393294 45,10.1192398 45,12.5 C45,15.3140148 45.8926676,17.9108487 47.3991212,20 L8,20 C4.13400675,20 1,16.8659932 1,13 C1,9.13400675 4.13400675,6 8,6 L46.7479727,6 Z M67.2520273,6 L105,6 C108.865993,6 112,9.13400675 112,13 C112,16.8659932 108.865993,20 105,20 L66.6008788,20 C68.1073324,17.9108487 69,15.3140148 69,12.5 C69,10.1192398 68.3610479,7.89393294 67.2520273,6 Z" id="path-1"></path>
        <filter x="-5.9%" y="-39.3%" width="111.7%" height="192.9%" filterUnits="objectBoundingBox" id="filter-2">
            <feOffset dx="0" dy="1" in="SourceAlpha" result="shadowOffsetOuter1"></feOffset>
            <feGaussianBlur stdDeviation="2" in="shadowOffsetOuter1" result="shadowBlurOuter1"></feGaussianBlur>
            <feColorMatrix values="0 0 0 0 0   0 0 0 0 0   0 0 0 0 0  0 0 0 0.5 0" type="matrix" in="shadowBlurOuter1"></feColorMatrix>
        </filter>
        <rect id="path-3" x="0" y="6" width="113" height="14" rx="7"></rect>
        <filter x="-5.8%" y="-39.3%" width="111.5%" height="192.9%" filterUnits="objectBoundingBox" id="filter-4">
            <feOffset dx="0" dy="1" in="SourceAlpha" result="shadowOffsetOuter1"></feOffset>
            <feGaussianBlur stdDeviation="2" in="shadowOffsetOuter1" result="shadowBlurOuter1"></feGaussianBlur>
            <feColorMatrix values="0 0 0 0 0   0 0 0 0 0   0 0 0 0 0  0 0 0 0.5 0" type="matrix" in="shadowBlurOuter1"></feColorMatrix>
        </filter>
    </defs>
    <g id="Volcanes-fallas" stroke="none" stroke-width="1" fill="none" fill-rule="evenodd">
        <g id="frailes_pirris" transform="translate(4.000000, 1.000000)">
            <g id="ic_volcano_label-copy-18">
                <g id="Group-Copy-3">
                    <g id="Group-26-Copy-4" transform="translate(45.000000, 0.000000)" fill="#FF6D00" stroke="#FFFFFF" stroke-width="0.5">
                        <circle id="Oval-2-Copy-5" cx="12.5" cy="12.5" r="12.5"></circle>
                    </g>
                    <g id="Combined-Shape">
                        <use fill="black" fill-opacity="1" filter="url(#filter-2)" xlink:href="#path-1"></use>
                        <use fill="#263238" fill-rule="evenodd" xlink:href="#path-1"></use>
                    </g>
                    <g id="Rectangle-2-Copy-4">
                        <use fill="black" fill-opacity="1" filter="url(#filter-4)" xlink:href="#path-3"></use>
                        <use fill="#263238" fill-rule="evenodd" xlink:href="#path-3"></use>
                    </g>
                </g>
                <path d="M6.328125,16 L5.13671875,16 L5.13671875,10.2890625 L8.41015625,10.2890625 L8.41015625,11.28125 L6.328125,11.28125 L6.328125,12.7539062 L8.265625,12.7539062 L8.265625,13.7421875 L6.328125,13.7421875 L6.328125,16 Z M10.7382812,12.8242188 L11.1289062,12.8242188 C11.5117207,12.8242188 11.7942699,12.7604173 11.9765625,12.6328125 C12.1588551,12.5052077 12.25,12.3046889 12.25,12.03125 C12.25,11.7604153 12.156902,11.5677089 11.9707031,11.453125 C11.7845043,11.3385411 11.4960957,11.28125 11.1054688,11.28125 L10.7382812,11.28125 L10.7382812,12.8242188 Z M10.7382812,13.8085938 L10.7382812,16 L9.52734375,16 L9.52734375,10.2890625 L11.1914062,10.2890625 C11.9674518,10.2890625 12.5416648,10.4303371 12.9140625,10.7128906 C13.2864602,10.9954441 13.4726562,11.4244763 13.4726562,12 C13.4726562,12.3359392 13.3802093,12.6347643 13.1953125,12.8964844 C13.0104157,13.1582044 12.7486996,13.3632805 12.4101562,13.5117188 C13.2695355,14.7955793 13.8294258,15.6249981 14.0898438,16 L12.7460938,16 L11.3828125,13.8085938 L10.7382812,13.8085938 Z M18.3046875,16 L17.890625,14.640625 L15.8085938,14.640625 L15.3945312,16 L14.0898438,16 L16.1054688,10.265625 L17.5859375,10.265625 L19.609375,16 L18.3046875,16 Z M17.6015625,13.625 C17.2187481,12.393223 17.0032554,11.6966154 16.9550781,11.5351562 C16.9069008,11.3736971 16.8723959,11.2460942 16.8515625,11.1523438 C16.7656246,11.4856787 16.5195333,12.3098893 16.1132812,13.625 L17.6015625,13.625 Z M20.328125,16 L20.328125,10.2890625 L21.5390625,10.2890625 L21.5390625,16 L20.328125,16 Z M22.9765625,16 L22.9765625,10.2890625 L24.1875,10.2890625 L24.1875,15 L26.5039062,15 L26.5039062,16 L22.9765625,16 Z M30.7851562,16 L27.4960937,16 L27.4960937,10.2890625 L30.7851562,10.2890625 L30.7851562,11.28125 L28.7070312,11.28125 L28.7070312,12.5351562 L30.640625,12.5351562 L30.640625,13.5273438 L28.7070312,13.5273438 L28.7070312,15 L30.7851562,15 L30.7851562,16 Z M35.3476562,14.4140625 C35.3476562,14.9296901 35.1621112,15.335936 34.7910156,15.6328125 C34.41992,15.929689 33.9036491,16.078125 33.2421875,16.078125 C32.6328095,16.078125 32.0937523,15.9635428 31.625,15.734375 L31.625,14.609375 C32.0104186,14.7812509 32.3365872,14.9023434 32.6035156,14.9726562 C32.870444,15.0429691 33.1145822,15.078125 33.3359375,15.078125 C33.6015638,15.078125 33.8053378,15.0273443 33.9472656,14.9257812 C34.0891934,14.8242182 34.1601562,14.6731781 34.1601562,14.4726562 C34.1601562,14.3606765 34.1289066,14.2610681 34.0664062,14.1738281 C34.0039059,14.0865881 33.91211,14.0026046 33.7910156,13.921875 C33.6699213,13.8411454 33.4231789,13.7122405 33.0507812,13.5351562 C32.7018212,13.3710929 32.440105,13.2135424 32.265625,13.0625 C32.091145,12.9114576 31.9518234,12.7356781 31.8476562,12.5351562 C31.7434891,12.3346344 31.6914062,12.1002618 31.6914062,11.8320312 C31.6914062,11.3268204 31.8626285,10.9296889 32.2050781,10.640625 C32.5475278,10.3515611 33.0208303,10.2070312 33.625,10.2070312 C33.9218765,10.2070312 34.2050768,10.2421871 34.4746094,10.3125 C34.744142,10.3828129 35.0260402,10.4817702 35.3203125,10.609375 L34.9296875,11.5507812 C34.6249985,11.4257806 34.3730479,11.3385419 34.1738281,11.2890625 C33.9746084,11.2395831 33.7786468,11.2148438 33.5859375,11.2148438 C33.3567697,11.2148438 33.1809902,11.2682286 33.0585938,11.375 C32.9361973,11.4817714 32.875,11.6210929 32.875,11.7929688 C32.875,11.8997401 32.8997393,11.9928381 32.9492188,12.0722656 C32.9986982,12.1516931 33.0774734,12.2285153 33.1855469,12.3027344 C33.2936203,12.3769535 33.5494771,12.5104157 33.953125,12.703125 C34.4869818,12.9583346 34.8528636,13.2141914 35.0507812,13.4707031 C35.2486989,13.7272148 35.3476562,14.0416648 35.3476562,14.4140625 Z M35.9023438,14.34375 L35.9023438,13.3671875 L38,13.3671875 L38,14.34375 L35.9023438,14.34375 Z M40.1679687,12.9765625 L40.5664062,12.9765625 C40.9388039,12.9765625 41.217447,12.9029955 41.4023437,12.7558594 C41.5872405,12.6087232 41.6796875,12.3945327 41.6796875,12.1132812 C41.6796875,11.8294257 41.6022143,11.6197923 41.4472656,11.484375 C41.2923169,11.3489577 41.0494808,11.28125 40.71875,11.28125 L40.1679687,11.28125 L40.1679687,12.9765625 Z M42.9023437,12.0703125 C42.9023437,12.6848989 42.7102884,13.1549463 42.3261719,13.4804688 C41.9420554,13.8059912 41.3958369,13.96875 40.6875,13.96875 L40.1679687,13.96875 L40.1679687,16 L38.9570312,16 L38.9570312,10.2890625 L40.78125,10.2890625 C41.4739618,10.2890625 42.0006492,10.4381496 42.3613281,10.7363281 C42.722007,11.0345067 42.9023437,11.4791637 42.9023437,12.0703125 Z M43.9804687,16 L43.9804687,10.2890625 L45.1914062,10.2890625 L45.1914062,16 L43.9804687,16 Z M47.8398438,12.8242188 L48.2304688,12.8242188 C48.6132832,12.8242188 48.8958324,12.7604173 49.078125,12.6328125 C49.2604176,12.5052077 49.3515625,12.3046889 49.3515625,12.03125 C49.3515625,11.7604153 49.2584645,11.5677089 49.0722656,11.453125 C48.8860668,11.3385411 48.5976582,11.28125 48.2070312,11.28125 L47.8398438,11.28125 L47.8398438,12.8242188 Z M47.8398437,13.8085938 L47.8398437,16 L46.6289062,16 L46.6289062,10.2890625 L48.2929687,10.2890625 C49.0690143,10.2890625 49.6432273,10.4303371 50.015625,10.7128906 C50.3880227,10.9954441 50.5742187,11.4244763 50.5742187,12 C50.5742187,12.3359392 50.4817718,12.6347643 50.296875,12.8964844 C50.1119782,13.1582044 49.8502621,13.3632805 49.5117187,13.5117188 C50.371098,14.7955793 50.9309883,15.6249981 51.1914062,16 L49.8476562,16 L48.484375,13.8085938 L47.8398437,13.8085938 Z M53.1210938,12.8242188 L53.5117188,12.8242188 C53.8945332,12.8242188 54.1770824,12.7604173 54.359375,12.6328125 C54.5416676,12.5052077 54.6328125,12.3046889 54.6328125,12.03125 C54.6328125,11.7604153 54.5397145,11.5677089 54.3535156,11.453125 C54.1673168,11.3385411 53.8789082,11.28125 53.4882812,11.28125 L53.1210938,11.28125 L53.1210938,12.8242188 Z M53.1210937,13.8085938 L53.1210937,16 L51.9101562,16 L51.9101562,10.2890625 L53.5742187,10.2890625 C54.3502643,10.2890625 54.9244773,10.4303371 55.296875,10.7128906 C55.6692727,10.9954441 55.8554687,11.4244763 55.8554687,12 C55.8554687,12.3359392 55.7630218,12.6347643 55.578125,12.8964844 C55.3932282,13.1582044 55.1315121,13.3632805 54.7929687,13.5117188 C55.652348,14.7955793 56.2122383,15.6249981 56.4726562,16 L55.1289062,16 L53.765625,13.8085938 L53.1210937,13.8085938 Z M57.1914062,16 L57.1914062,10.2890625 L58.4023437,10.2890625 L58.4023437,16 L57.1914062,16 Z M57.125,9.83203125 L57.125,9.7265625 C57.5729189,9.20572656 57.8789054,8.8138034 58.0429688,8.55078125 L59.3789062,8.55078125 L59.3789062,8.6328125 C59.2434889,8.76822984 59.0123714,8.96939971 58.6855469,9.23632812 C58.3587223,9.50325654 58.1028655,9.70182227 57.9179688,9.83203125 L57.125,9.83203125 Z M63.2109375,14.4140625 C63.2109375,14.9296901 63.0253925,15.335936 62.6542969,15.6328125 C62.2832013,15.929689 61.7669304,16.078125 61.1054688,16.078125 C60.4960907,16.078125 59.9570336,15.9635428 59.4882812,15.734375 L59.4882812,14.609375 C59.8736998,14.7812509 60.1998685,14.9023434 60.4667969,14.9726562 C60.7337253,15.0429691 60.9778635,15.078125 61.1992188,15.078125 C61.4648451,15.078125 61.6686191,15.0273443 61.8105469,14.9257812 C61.9524747,14.8242182 62.0234375,14.6731781 62.0234375,14.4726562 C62.0234375,14.3606765 61.9921878,14.2610681 61.9296875,14.1738281 C61.8671872,14.0865881 61.7753912,14.0026046 61.6542969,13.921875 C61.5332025,13.8411454 61.2864602,13.7122405 60.9140625,13.5351562 C60.5651024,13.3710929 60.3033863,13.2135424 60.1289062,13.0625 C59.9544262,12.9114576 59.8151047,12.7356781 59.7109375,12.5351562 C59.6067703,12.3346344 59.5546875,12.1002618 59.5546875,11.8320312 C59.5546875,11.3268204 59.7259097,10.9296889 60.0683594,10.640625 C60.410809,10.3515611 60.8841116,10.2070312 61.4882812,10.2070312 C61.7851577,10.2070312 62.068358,10.2421871 62.3378906,10.3125 C62.6074232,10.3828129 62.8893214,10.4817702 63.1835938,10.609375 L62.7929688,11.5507812 C62.4882797,11.4257806 62.2363291,11.3385419 62.0371094,11.2890625 C61.8378896,11.2395831 61.641928,11.2148438 61.4492188,11.2148438 C61.2200509,11.2148438 61.0442714,11.2682286 60.921875,11.375 C60.7994786,11.4817714 60.7382812,11.6210929 60.7382812,11.7929688 C60.7382812,11.8997401 60.7630206,11.9928381 60.8125,12.0722656 C60.8619794,12.1516931 60.9407547,12.2285153 61.0488281,12.3027344 C61.1569016,12.3769535 61.4127584,12.5104157 61.8164062,12.703125 C62.3502631,12.9583346 62.7161448,13.2141914 62.9140625,13.4707031 C63.1119802,13.7272148 63.2109375,14.0416648 63.2109375,14.4140625 Z M63.765625,14.34375 L63.765625,13.3671875 L65.8632812,13.3671875 L65.8632812,14.34375 L63.765625,14.34375 Z M68.03125,12.9765625 L68.4296875,12.9765625 C68.8020852,12.9765625 69.0807282,12.9029955 69.265625,12.7558594 C69.4505218,12.6087232 69.5429687,12.3945327 69.5429687,12.1132812 C69.5429687,11.8294257 69.4654956,11.6197923 69.3105469,11.484375 C69.1555982,11.3489577 68.9127621,11.28125 68.5820312,11.28125 L68.03125,11.28125 L68.03125,12.9765625 Z M70.765625,12.0703125 C70.765625,12.6848989 70.5735696,13.1549463 70.1894531,13.4804688 C69.8053366,13.8059912 69.2591181,13.96875 68.5507812,13.96875 L68.03125,13.96875 L68.03125,16 L66.8203125,16 L66.8203125,10.2890625 L68.6445312,10.2890625 C69.337243,10.2890625 69.8639305,10.4381496 70.2246094,10.7363281 C70.5852883,11.0345067 70.765625,11.4791637 70.765625,12.0703125 Z M74.9414062,16 L74.5273438,14.640625 L72.4453125,14.640625 L72.03125,16 L70.7265625,16 L72.7421875,10.265625 L74.2226562,10.265625 L76.2460938,16 L74.9414062,16 Z M74.2382812,13.625 C73.8554668,12.393223 73.6399742,11.6966154 73.5917969,11.5351562 C73.5436196,11.3736971 73.5091147,11.2460942 73.4882812,11.1523438 C73.4023433,11.4856787 73.156252,12.3098893 72.75,13.625 L74.2382812,13.625 Z M82.03125,16 L80.4921875,16 L78.0078125,11.6796875 L77.9726562,11.6796875 C78.0221357,12.4427121 78.046875,12.9869775 78.046875,13.3125 L78.046875,16 L76.9648438,16 L76.9648438,10.2890625 L78.4921875,10.2890625 L80.9726562,14.5664062 L81,14.5664062 C80.9609373,13.824215 80.9414062,13.2994807 80.9414062,12.9921875 L80.9414062,10.2890625 L82.03125,10.2890625 L82.03125,16 Z M85.6367187,12.7929688 L87.9023437,12.7929688 L87.9023437,15.7539062 C87.5351544,15.8736985 87.1894547,15.9576821 86.8652344,16.0058594 C86.541014,16.0540367 86.2096371,16.078125 85.8710937,16.078125 C85.0091103,16.078125 84.3509137,15.8248723 83.8964844,15.3183594 C83.442055,14.8118464 83.2148437,14.0846402 83.2148437,13.1367188 C83.2148437,12.2148391 83.478513,11.4960963 84.0058594,10.9804688 C84.5332058,10.4648412 85.2643182,10.2070312 86.1992187,10.2070312 C86.7851592,10.2070312 87.3502577,10.3242176 87.8945312,10.5585938 L87.4921875,11.5273438 C87.0755187,11.3190094 86.6419293,11.2148438 86.1914062,11.2148438 C85.6679661,11.2148438 85.2486995,11.3906232 84.9335937,11.7421875 C84.618488,12.0937518 84.4609375,12.5664033 84.4609375,13.1601562 C84.4609375,13.779951 84.5878894,14.2532536 84.8417969,14.5800781 C85.0957044,14.9069027 85.4648413,15.0703125 85.9492187,15.0703125 C86.2018242,15.0703125 86.458332,15.0442711 86.71875,14.9921875 L86.71875,13.8007812 L85.6367187,13.8007812 L85.6367187,12.7929688 Z M94.4453125,13.1367188 C94.4453125,14.082036 94.2109398,14.8085912 93.7421875,15.3164062 C93.2734352,15.8242213 92.6015669,16.078125 91.7265625,16.078125 C90.8515581,16.078125 90.1796898,15.8242213 89.7109375,15.3164062 C89.2421852,14.8085912 89.0078125,14.0794318 89.0078125,13.1289062 C89.0078125,12.1783807 89.2428362,11.4524765 89.7128906,10.9511719 C90.1829451,10.4498673 90.8567664,10.1992188 91.734375,10.1992188 C92.6119836,10.1992188 93.2832008,10.4518204 93.7480469,10.9570312 C94.2128929,11.4622421 94.4453125,12.1887973 94.4453125,13.1367188 Z M90.2773437,13.1367188 C90.2773437,13.7747428 90.3984363,14.2552067 90.640625,14.578125 C90.8828137,14.9010433 91.2447893,15.0625 91.7265625,15.0625 C92.6927132,15.0625 93.1757812,14.4205793 93.1757812,13.1367188 C93.1757812,11.850254 92.6953173,11.2070312 91.734375,11.2070312 C91.2526018,11.2070312 90.8893241,11.369139 90.6445312,11.6933594 C90.3997384,12.0175797 90.2773437,12.4986947 90.2773437,13.1367188 Z M95.6289062,16 L95.6289062,10.2890625 L96.8398437,10.2890625 L96.8398437,15 L99.15625,15 L99.15625,16 L95.6289062,16 Z M100.148437,16 L100.148437,10.2890625 L101.359375,10.2890625 L101.359375,16 L100.148437,16 Z M100.082031,9.83203125 L100.082031,9.7265625 C100.52995,9.20572656 100.835937,8.8138034 101,8.55078125 L102.335937,8.55078125 L102.335937,8.6328125 C102.20052,8.76822984 101.969403,8.96939971 101.642578,9.23632812 C101.315754,9.50325654 101.059897,9.70182227 100.875,9.83203125 L100.082031,9.83203125 Z M107.863281,16 L106.324219,16 L103.839844,11.6796875 L103.804688,11.6796875 C103.854167,12.4427121 103.878906,12.9869775 103.878906,13.3125 L103.878906,16 L102.796875,16 L102.796875,10.2890625 L104.324219,10.2890625 L106.804688,14.5664062 L106.832031,14.5664062 C106.792969,13.824215 106.773438,13.2994807 106.773438,12.9921875 L106.773438,10.2890625 L107.863281,10.2890625 L107.863281,16 Z" id="frailes-pirrís-pango" fill="#FFFFFF"></path>
            </g>
        </g>
    </g>
</svg>