<?xml version="1.0" encoding="UTF-8"?>
<svg width="121px" height="27px" viewBox="0 0 121 27" version="1.1" xmlns="http://www.w3.org/2000/svg" xmlns:xlink="http://www.w3.org/1999/xlink">
    <!-- Generator: Sketch 48.2 (47327) - http://www.bohemiancoding.com/sketch -->
    <title>frailes_pirris</title>
    <desc>Created with Sketch.</desc>
    <defs>
        <path d="M46.7479727,6 C45.6389521,7.89393294 45,10.1192398 45,12.5 C45,15.3140148 45.8926676,17.9108487 47.3991212,20 L8,20 C4.13400675,20 1,16.8659932 1,13 C1,9.13400675 4.13400675,6 8,6 L46.7479727,6 Z M67.2520273,6 L105,6 C108.865993,6 112,9.13400675 112,13 C112,16.8659932 108.865993,20 105,20 L66.6008788,20 C68.1073324,17.9108487 69,15.3140148 69,12.5 C69,10.1192398 68.3610479,7.89393294 67.2520273,6 Z" id="path-1"></path>
        <filter x="-5.9%" y="-39.3%" width="111.7%" height="192.9%" filterUnits="objectBoundingBox" id="filter-2">
            <feOffset dx="0" dy="1" in="SourceAlpha" result="shadowOffsetOuter1"></feOffset>
            <feGaussianBlur stdDeviation="2" in="shadowOffsetOuter1" result="shadowBlurOuter1"></feGaussianBlur>
            <feColorMatrix values="0 0 0 0 0   0 0 0 0 0   0 0 0 0 0  0 0 0 0.5 0" type="matrix" in="shadowBlurOuter1"></feColorMatrix>
        </filter>
        <rect id="path-3" x="0" y="6" width="113" height="14" rx="7"></rect>
        <filter x="-5.8%" y="-39.3%" width="111.5%" height="192.9%" filterUnits="objectBoundingBox" id="filter-4">
            <feOffset dx="0" dy="1" in="SourceAlpha" result="shadowOffsetOuter1"></feOffset>
            <feGaussianBlur stdDeviation="2" in="shadowOffsetOuter1" result="shadowBlurOuter1"></feGaussianBlur>
            <feColorMatrix values="0 0 0 0 0   0 0 0 0 0   0 0 0 0 0  0 0 0 0.5 0" type="matrix" in="shadowBlurOuter1"></feColorMatrix>
        </filter>
    </defs>
    <g id="Volcanes-fallas" stroke="none" stroke-width="1" fill="none" fill-rule="evenodd">
        <g id="frailes_pirris" transform="translate(4.000000, 1.000000)">
            <g id="ic_volcano_label-copy-18">
                <g id="Group-Copy-3">
                    <g id="Group-26-Copy-4" transform="translate(45.000000, 0.000000)" fill="#FF6D00" stroke="#FFFFFF" stroke-width="0.5">
                        <circle id="Oval-2-Copy-5" cx="12.5" cy="12.5" r="12.5"></circle>
                    </g>
                    <g id="Combined-Shape">
                        <use fill="black" fill-opacity="1" filter="url(#filter-2)" xlink:href="#path-1"></use>
                        <use fill="#263238" fill-rule="evenodd" xlink:href="#path-1"></use>
                    </g>
                    <g id="Rectangle-2-Copy-4">
                        <use fill="black" fill-opacity="1" filter="url(#filter-4)" xlink:href="#path-3"></use>
                        <use fill="#263238" fill-rule="evenodd" xlink:href="#path-3"></use>
                    </g>
                </g>
                <text id="frailes-pirrís-pango" font-family="OpenSans-Bold, Open Sans" font-size="8" font-weight="bold" fill="#FFFFFF">
                    <tspan x="13.4550781" y="15">frailes-pirrís-pangolín</tspan>
                </text>
            </g>
        </g>
    </g>
</svg>