<?xml version="1.0" encoding="UTF-8"?>
<svg width="118px" height="27px" viewBox="0 0 118 27" version="1.1" xmlns="http://www.w3.org/2000/svg" xmlns:xlink="http://www.w3.org/1999/xlink">
    <!-- Generator: Sketch 48.2 (47327) - http://www.bohemiancoding.com/sketch -->
    <title>golfito</title>
    <desc>Created with Sketch.</desc>
    <defs>
        <path d="M42.9664693,6 C41.7188212,7.89393294 41,10.1192398 41,12.5 C41,15.3140148 42.004251,17.9108487 43.6990113,20 L9,20 C5.13400675,20 2,16.8659932 2,13 C2,9.13400675 5.13400675,6 9,6 L42.9664693,6 Z M66.0335307,6 L103,6 C106.865993,6 110,9.13400675 110,13 C110,16.8659932 106.865993,20 103,20 L65.3009887,20 C66.995749,17.9108487 68,15.3140148 68,12.5 C68,10.1192398 67.2811788,7.89393294 66.0335307,6 Z" id="path-1"></path>
        <filter x="-6.0%" y="-39.3%" width="112.0%" height="192.9%" filterUnits="objectBoundingBox" id="filter-2">
            <feOffset dx="0" dy="1" in="SourceAlpha" result="shadowOffsetOuter1"></feOffset>
            <feGaussianBlur stdDeviation="2" in="shadowOffsetOuter1" result="shadowBlurOuter1"></feGaussianBlur>
            <feColorMatrix values="0 0 0 0 0   0 0 0 0 0   0 0 0 0 0  0 0 0 0.5 0" type="matrix" in="shadowBlurOuter1"></feColorMatrix>
        </filter>
        <rect id="path-3" x="0" y="6" width="110" height="14" rx="7"></rect>
        <filter x="-5.9%" y="-39.3%" width="111.8%" height="192.9%" filterUnits="objectBoundingBox" id="filter-4">
            <feOffset dx="0" dy="1" in="SourceAlpha" result="shadowOffsetOuter1"></feOffset>
            <feGaussianBlur stdDeviation="2" in="shadowOffsetOuter1" result="shadowBlurOuter1"></feGaussianBlur>
            <feColorMatrix values="0 0 0 0 0   0 0 0 0 0   0 0 0 0 0  0 0 0 0.5 0" type="matrix" in="shadowBlurOuter1"></feColorMatrix>
        </filter>
    </defs>
    <g id="Volcanes-fallas" stroke="none" stroke-width="1" fill="none" fill-rule="evenodd">
        <g id="golfito" transform="translate(4.000000, 1.000000)">
            <g id="ic_volcano_label-copy-18">
                <g id="Group-Copy-3">
                    <g id="Group-26-Copy-4" transform="translate(43.000000, 0.000000)" fill="#FF6D00" stroke="#FFFFFF" stroke-width="0.5">
                        <circle id="Oval-2-Copy-5" cx="12.5" cy="12.5" r="12.5"></circle>
                    </g>
                    <g id="Combined-Shape">
                        <use fill="black" fill-opacity="1" filter="url(#filter-2)" xlink:href="#path-1"></use>
                        <use fill="#263238" fill-rule="evenodd" xlink:href="#path-1"></use>
                    </g>
                    <g id="Rectangle-2-Copy-4">
                        <use fill="black" fill-opacity="1" filter="url(#filter-4)" xlink:href="#path-3"></use>
                        <use fill="#263238" fill-rule="evenodd" xlink:href="#path-3"></use>
                    </g>
                </g>
                <path d="M13.0703125,12.7929688 L15.3359375,12.7929688 L15.3359375,15.7539062 C14.9687482,15.8736985 14.6230485,15.9576821 14.2988281,16.0058594 C13.9746078,16.0540367 13.6432309,16.078125 13.3046875,16.078125 C12.442704,16.078125 11.7845075,15.8248723 11.3300781,15.3183594 C10.8756488,14.8118464 10.6484375,14.0846402 10.6484375,13.1367188 C10.6484375,12.2148391 10.9121067,11.4960963 11.4394531,10.9804688 C11.9667995,10.4648412 12.697912,10.2070312 13.6328125,10.2070312 C14.2187529,10.2070312 14.7838514,10.3242176 15.328125,10.5585938 L14.9257812,11.5273438 C14.5091125,11.3190094 14.0755231,11.2148438 13.625,11.2148438 C13.1015599,11.2148438 12.6822932,11.3906232 12.3671875,11.7421875 C12.0520818,12.0937518 11.8945312,12.5664033 11.8945312,13.1601562 C11.8945312,13.779951 12.0214831,14.2532536 12.2753906,14.5800781 C12.5292981,14.9069027 12.8984351,15.0703125 13.3828125,15.0703125 C13.6354179,15.0703125 13.8919258,15.0442711 14.1523438,14.9921875 L14.1523438,13.8007812 L13.0703125,13.8007812 L13.0703125,12.7929688 Z M21.8789063,13.1367188 C21.8789063,14.082036 21.6445336,14.8085912 21.1757813,15.3164062 C20.7070289,15.8242213 20.0351606,16.078125 19.1601562,16.078125 C18.2851519,16.078125 17.6132836,15.8242213 17.1445312,15.3164062 C16.6757789,14.8085912 16.4414062,14.0794318 16.4414062,13.1289062 C16.4414062,12.1783807 16.6764299,11.4524765 17.1464844,10.9511719 C17.6165388,10.4498673 18.2903602,10.1992188 19.1679688,10.1992188 C20.0455773,10.1992188 20.7167946,10.4518204 21.1816406,10.9570312 C21.6464867,11.4622421 21.8789063,12.1887973 21.8789063,13.1367188 Z M17.7109375,13.1367188 C17.7109375,13.7747428 17.83203,14.2552067 18.0742188,14.578125 C18.3164075,14.9010433 18.678383,15.0625 19.1601562,15.0625 C20.1263069,15.0625 20.609375,14.4205793 20.609375,13.1367188 C20.609375,11.850254 20.1289111,11.2070312 19.1679688,11.2070312 C18.6861955,11.2070312 18.3229179,11.369139 18.078125,11.6933594 C17.8333321,12.0175797 17.7109375,12.4986947 17.7109375,13.1367188 Z M23.0625,16 L23.0625,10.2890625 L24.2734375,10.2890625 L24.2734375,15 L26.5898438,15 L26.5898438,16 L23.0625,16 Z M28.7734375,16 L27.5820312,16 L27.5820312,10.2890625 L30.8554688,10.2890625 L30.8554688,11.28125 L28.7734375,11.28125 L28.7734375,12.7539062 L30.7109375,12.7539062 L30.7109375,13.7421875 L28.7734375,13.7421875 L28.7734375,16 Z M31.9726562,16 L31.9726562,10.2890625 L33.1835938,10.2890625 L33.1835938,16 L31.9726562,16 Z M36.8242188,16 L35.6132812,16 L35.6132812,11.296875 L34.0625,11.296875 L34.0625,10.2890625 L38.375,10.2890625 L38.375,11.296875 L36.8242188,11.296875 L36.8242188,16 Z M44.2773438,13.1367188 C44.2773438,14.082036 44.0429711,14.8085912 43.5742188,15.3164062 C43.1054664,15.8242213 42.4335981,16.078125 41.5585938,16.078125 C40.6835894,16.078125 40.0117211,15.8242213 39.5429688,15.3164062 C39.0742164,14.8085912 38.8398438,14.0794318 38.8398438,13.1289062 C38.8398438,12.1783807 39.0748674,11.4524765 39.5449219,10.9511719 C40.0149763,10.4498673 40.6887977,10.1992188 41.5664062,10.1992188 C42.4440148,10.1992188 43.1152321,10.4518204 43.5800781,10.9570312 C44.0449242,11.4622421 44.2773438,12.1887973 44.2773438,13.1367188 Z M40.109375,13.1367188 C40.109375,13.7747428 40.2304675,14.2552067 40.4726562,14.578125 C40.714845,14.9010433 41.0768205,15.0625 41.5585938,15.0625 C42.5247444,15.0625 43.0078125,14.4205793 43.0078125,13.1367188 C43.0078125,11.850254 42.5273486,11.2070312 41.5664062,11.2070312 C41.084633,11.2070312 40.7213554,11.369139 40.4765625,11.6933594 C40.2317696,12.0175797 40.109375,12.4986947 40.109375,13.1367188 Z M44.9804688,14.34375 L44.9804688,13.3671875 L47.078125,13.3671875 L47.078125,14.34375 L44.9804688,14.34375 Z M49.2265625,16 L48.0351562,16 L48.0351562,10.2890625 L51.3085938,10.2890625 L51.3085938,11.28125 L49.2265625,11.28125 L49.2265625,12.7539062 L51.1640625,12.7539062 L51.1640625,13.7421875 L49.2265625,13.7421875 L49.2265625,16 Z M55.7617188,16 L55.3476562,14.640625 L53.265625,14.640625 L52.8515625,16 L51.546875,16 L53.5625,10.265625 L55.0429688,10.265625 L57.0664062,16 L55.7617188,16 Z M55.0585938,13.625 C54.6757793,12.393223 54.4602867,11.6966154 54.4121094,11.5351562 C54.3639321,11.3736971 54.3294272,11.2460942 54.3085938,11.1523438 C54.2226558,11.4856787 53.9765645,12.3098893 53.5703125,13.625 L55.0585938,13.625 Z M57.7851562,16 L57.7851562,10.2890625 L58.9960938,10.2890625 L58.9960938,15 L61.3125,15 L61.3125,16 L57.7851562,16 Z M62.3046875,16 L62.3046875,10.2890625 L63.515625,10.2890625 L63.515625,15 L65.8320312,15 L65.8320312,16 L62.3046875,16 Z M70.3203125,16 L69.90625,14.640625 L67.8242188,14.640625 L67.4101562,16 L66.1054688,16 L68.1210938,10.265625 L69.6015625,10.265625 L71.625,16 L70.3203125,16 Z M69.6171875,13.625 C69.2343731,12.393223 69.0188804,11.6966154 68.9707031,11.5351562 C68.9225258,11.3736971 68.8880209,11.2460942 68.8671875,11.1523438 C68.7812496,11.4856787 68.5351583,12.3098893 68.1289062,13.625 L69.6171875,13.625 Z M76.8398438,16 L75.4648438,11.5195312 L75.4296875,11.5195312 C75.4791669,12.4309941 75.5039062,13.039061 75.5039062,13.34375 L75.5039062,16 L74.421875,16 L74.421875,10.2890625 L76.0703125,10.2890625 L77.421875,14.65625 L77.4453125,14.65625 L78.8789062,10.2890625 L80.5273438,10.2890625 L80.5273438,16 L79.3984375,16 L79.3984375,13.296875 C79.3984375,13.1692702 79.4003906,13.0221362 79.4042969,12.8554688 C79.4082031,12.6888013 79.4257811,12.2460973 79.4570312,11.5273438 L79.421875,11.5273438 L77.9492188,16 L76.8398438,16 Z M85.2539062,16 L81.9648438,16 L81.9648438,10.2890625 L85.2539062,10.2890625 L85.2539062,11.28125 L83.1757812,11.28125 L83.1757812,12.5351562 L85.109375,12.5351562 L85.109375,13.5273438 L83.1757812,13.5273438 L83.1757812,15 L85.2539062,15 L85.2539062,16 Z M91.1835938,13.0898438 C91.1835938,14.0299526 90.9160183,14.7499975 90.3808594,15.25 C89.8457004,15.7500025 89.0729217,16 88.0625,16 L86.4453125,16 L86.4453125,10.2890625 L88.2382812,10.2890625 C89.1705776,10.2890625 89.8945287,10.5351538 90.4101562,11.0273438 C90.9257838,11.5195337 91.1835938,12.2070268 91.1835938,13.0898438 Z M89.9257812,13.1210938 C89.9257812,11.8945251 89.38412,11.28125 88.3007812,11.28125 L87.65625,11.28125 L87.65625,15 L88.1757812,15 C89.3424538,15 89.9257812,14.3737042 89.9257812,13.1210938 Z M92.3671875,16 L92.3671875,10.2890625 L93.578125,10.2890625 L93.578125,16 L92.3671875,16 Z M98.5117188,16 L98.0976562,14.640625 L96.015625,14.640625 L95.6015625,16 L94.296875,16 L96.3125,10.265625 L97.7929688,10.265625 L99.8164062,16 L98.5117188,16 Z M97.8085938,13.625 C97.4257793,12.393223 97.2102867,11.6966154 97.1621094,11.5351562 C97.1139321,11.3736971 97.0794272,11.2460942 97.0585938,11.1523438 C96.9726558,11.4856787 96.7265645,12.3098893 96.3203125,13.625 L97.8085938,13.625 Z" id="golfito-falla-media" fill="#FFFFFF"></path>
            </g>
        </g>
    </g>
</svg>