<?xml version="1.0" encoding="UTF-8"?>
<svg width="88px" height="27px" viewBox="0 0 88 27" version="1.1" xmlns="http://www.w3.org/2000/svg" xmlns:xlink="http://www.w3.org/1999/xlink">
    <!-- Generator: Sketch 48.2 (47327) - http://www.bohemiancoding.com/sketch -->
    <title>guaplies</title>
    <desc>Created with Sketch.</desc>
    <defs>
        <path d="M30.6751405,6 C29.6123291,7.89393294 29,10.1192398 29,12.5 C29,15.3140148 29.8554731,17.9108487 31.2991578,20 L9,20 C5.13400675,20 2,16.8659932 2,13 C2,9.13400675 5.13400675,6 9,6 L30.6751405,6 Z M50.3248595,6 L72,6 C75.8659932,6 79,9.13400675 79,13 C79,16.8659932 75.8659932,20 72,20 L49.7008422,20 C51.1445269,17.9108487 52,15.3140148 52,12.5 C52,10.1192398 51.3876709,7.89393294 50.3248595,6 Z" id="path-1"></path>
        <filter x="-8.4%" y="-39.3%" width="116.9%" height="192.9%" filterUnits="objectBoundingBox" id="filter-2">
            <feOffset dx="0" dy="1" in="SourceAlpha" result="shadowOffsetOuter1"></feOffset>
            <feGaussianBlur stdDeviation="2" in="shadowOffsetOuter1" result="shadowBlurOuter1"></feGaussianBlur>
            <feColorMatrix values="0 0 0 0 0   0 0 0 0 0   0 0 0 0 0  0 0 0 0.5 0" type="matrix" in="shadowBlurOuter1"></feColorMatrix>
        </filter>
        <rect id="path-3" x="0" y="6" width="80" height="14" rx="7"></rect>
        <filter x="-8.1%" y="-39.3%" width="116.2%" height="192.9%" filterUnits="objectBoundingBox" id="filter-4">
            <feOffset dx="0" dy="1" in="SourceAlpha" result="shadowOffsetOuter1"></feOffset>
            <feGaussianBlur stdDeviation="2" in="shadowOffsetOuter1" result="shadowBlurOuter1"></feGaussianBlur>
            <feColorMatrix values="0 0 0 0 0   0 0 0 0 0   0 0 0 0 0  0 0 0 0.5 0" type="matrix" in="shadowBlurOuter1"></feColorMatrix>
        </filter>
    </defs>
    <g id="Volcanes-fallas" stroke="none" stroke-width="1" fill="none" fill-rule="evenodd">
        <g id="guaplies" transform="translate(4.000000, 1.000000)">
            <g id="ic_volcano_label-copy-18">
                <g id="Group-Copy-3">
                    <g id="Group-26-Copy-4" transform="translate(28.000000, 0.000000)" fill="#FF6D00" stroke="#FFFFFF" stroke-width="0.5">
                        <circle id="Oval-2-Copy-5" cx="12.5" cy="12.5" r="12.5"></circle>
                    </g>
                    <g id="Combined-Shape">
                        <use fill="black" fill-opacity="1" filter="url(#filter-2)" xlink:href="#path-1"></use>
                        <use fill="#263238" fill-rule="evenodd" xlink:href="#path-1"></use>
                    </g>
                    <g id="Rectangle-2-Copy-4">
                        <use fill="black" fill-opacity="1" filter="url(#filter-4)" xlink:href="#path-3"></use>
                        <use fill="#263238" fill-rule="evenodd" xlink:href="#path-3"></use>
                    </g>
                </g>
                <path d="M23.7070312,12.7929688 L25.9726562,12.7929688 L25.9726562,15.7539062 C25.6054669,15.8736985 25.2597672,15.9576821 24.9355469,16.0058594 C24.6113265,16.0540367 24.2799496,16.078125 23.9414062,16.078125 C23.0794228,16.078125 22.4212262,15.8248723 21.9667969,15.3183594 C21.5123675,14.8118464 21.2851562,14.0846402 21.2851562,13.1367188 C21.2851562,12.2148391 21.5488255,11.4960963 22.0761719,10.9804688 C22.6035183,10.4648412 23.3346307,10.2070312 24.2695312,10.2070312 C24.8554717,10.2070312 25.4205702,10.3242176 25.9648438,10.5585938 L25.5625,11.5273438 C25.1458313,11.3190094 24.7122418,11.2148438 24.2617188,11.2148438 C23.7382786,11.2148438 23.319012,11.3906232 23.0039062,11.7421875 C22.6888005,12.0937518 22.53125,12.5664033 22.53125,13.1601562 C22.53125,13.779951 22.6582019,14.2532536 22.9121094,14.5800781 C23.1660169,14.9069027 23.5351538,15.0703125 24.0195312,15.0703125 C24.2721367,15.0703125 24.5286445,15.0442711 24.7890625,14.9921875 L24.7890625,13.8007812 L23.7070312,13.8007812 L23.7070312,12.7929688 Z M31.9804688,10.2890625 L31.9804688,13.984375 C31.9804688,14.4062521 31.8860687,14.7760401 31.6972656,15.09375 C31.5084626,15.4114599 31.2356789,15.6549471 30.8789062,15.8242188 C30.5221336,15.9934904 30.1002629,16.078125 29.6132812,16.078125 C28.8789026,16.078125 28.3085958,15.8899758 27.9023438,15.5136719 C27.4960917,15.1373679 27.2929688,14.6223991 27.2929688,13.96875 L27.2929688,10.2890625 L28.5,10.2890625 L28.5,13.7851562 C28.5,14.2252626 28.5885408,14.5481761 28.765625,14.7539062 C28.9427092,14.9596364 29.235675,15.0625 29.6445312,15.0625 C30.0403666,15.0625 30.3274731,14.9589854 30.5058594,14.7519531 C30.6842457,14.5449208 30.7734375,14.2200543 30.7734375,13.7773438 L30.7734375,10.2890625 L31.9804688,10.2890625 Z M36.796875,16 L36.3828125,14.640625 L34.3007812,14.640625 L33.8867188,16 L32.5820312,16 L34.5976562,10.265625 L36.078125,10.265625 L38.1015625,16 L36.796875,16 Z M36.09375,13.625 C35.7109356,12.393223 35.4954429,11.6966154 35.4472656,11.5351562 C35.3990883,11.3736971 35.3645834,11.2460942 35.34375,11.1523438 C35.2578121,11.4856787 35.0117208,12.3098893 34.6054688,13.625 L36.09375,13.625 Z M34.6953125,9.83203125 L34.6953125,9.7265625 C35.1432314,9.20572656 35.4492179,8.8138034 35.6132812,8.55078125 L36.9492188,8.55078125 L36.9492188,8.6328125 C36.8138014,8.76822984 36.5826839,8.96939971 36.2558594,9.23632812 C35.9290348,9.50325654 35.673178,9.70182227 35.4882812,9.83203125 L34.6953125,9.83203125 Z M40.03125,12.9765625 L40.4296875,12.9765625 C40.8020852,12.9765625 41.0807282,12.9029955 41.265625,12.7558594 C41.4505218,12.6087232 41.5429688,12.3945327 41.5429688,12.1132812 C41.5429688,11.8294257 41.4654956,11.6197923 41.3105469,11.484375 C41.1555982,11.3489577 40.9127621,11.28125 40.5820312,11.28125 L40.03125,11.28125 L40.03125,12.9765625 Z M42.765625,12.0703125 C42.765625,12.6848989 42.5735696,13.1549463 42.1894531,13.4804688 C41.8053366,13.8059912 41.2591181,13.96875 40.5507812,13.96875 L40.03125,13.96875 L40.03125,16 L38.8203125,16 L38.8203125,10.2890625 L40.6445312,10.2890625 C41.337243,10.2890625 41.8639305,10.4381496 42.2246094,10.7363281 C42.5852883,11.0345067 42.765625,11.4791637 42.765625,12.0703125 Z M43.84375,16 L43.84375,10.2890625 L45.0546875,10.2890625 L45.0546875,16 L43.84375,16 Z M46.4921875,16 L46.4921875,10.2890625 L47.703125,10.2890625 L47.703125,15 L50.0195312,15 L50.0195312,16 L46.4921875,16 Z M54.3007812,16 L51.0117188,16 L51.0117188,10.2890625 L54.3007812,10.2890625 L54.3007812,11.28125 L52.2226562,11.28125 L52.2226562,12.5351562 L54.15625,12.5351562 L54.15625,13.5273438 L52.2226562,13.5273438 L52.2226562,15 L54.3007812,15 L54.3007812,16 Z M58.8632812,14.4140625 C58.8632812,14.9296901 58.6777362,15.335936 58.3066406,15.6328125 C57.935545,15.929689 57.4192741,16.078125 56.7578125,16.078125 C56.1484345,16.078125 55.6093773,15.9635428 55.140625,15.734375 L55.140625,14.609375 C55.5260436,14.7812509 55.8522122,14.9023434 56.1191406,14.9726562 C56.386069,15.0429691 56.6302072,15.078125 56.8515625,15.078125 C57.1171888,15.078125 57.3209628,15.0273443 57.4628906,14.9257812 C57.6048184,14.8242182 57.6757812,14.6731781 57.6757812,14.4726562 C57.6757812,14.3606765 57.6445316,14.2610681 57.5820312,14.1738281 C57.5195309,14.0865881 57.427735,14.0026046 57.3066406,13.921875 C57.1855463,13.8411454 56.9388039,13.7122405 56.5664062,13.5351562 C56.2174462,13.3710929 55.95573,13.2135424 55.78125,13.0625 C55.60677,12.9114576 55.4674484,12.7356781 55.3632812,12.5351562 C55.2591141,12.3346344 55.2070312,12.1002618 55.2070312,11.8320312 C55.2070312,11.3268204 55.3782535,10.9296889 55.7207031,10.640625 C56.0631528,10.3515611 56.5364553,10.2070312 57.140625,10.2070312 C57.4375015,10.2070312 57.7207018,10.2421871 57.9902344,10.3125 C58.259767,10.3828129 58.5416652,10.4817702 58.8359375,10.609375 L58.4453125,11.5507812 C58.1406235,11.4257806 57.8886729,11.3385419 57.6894531,11.2890625 C57.4902334,11.2395831 57.2942718,11.2148438 57.1015625,11.2148438 C56.8723947,11.2148438 56.6966152,11.2682286 56.5742188,11.375 C56.4518223,11.4817714 56.390625,11.6210929 56.390625,11.7929688 C56.390625,11.8997401 56.4153643,11.9928381 56.4648438,12.0722656 C56.5143232,12.1516931 56.5930984,12.2285153 56.7011719,12.3027344 C56.8092453,12.3769535 57.0651021,12.5104157 57.46875,12.703125 C58.0026068,12.9583346 58.3684886,13.2141914 58.5664062,13.4707031 C58.7643239,13.7272148 58.8632812,14.0416648 58.8632812,14.4140625 Z" id="guápiles" fill="#FFFFFF"></path>
            </g>
        </g>
    </g>
</svg>