<?xml version="1.0" encoding="UTF-8"?>
<svg width="88px" height="27px" viewBox="0 0 88 27" version="1.1" xmlns="http://www.w3.org/2000/svg" xmlns:xlink="http://www.w3.org/1999/xlink">
    <!-- Generator: Sketch 48.2 (47327) - http://www.bohemiancoding.com/sketch -->
    <title>herradura</title>
    <desc>Created with Sketch.</desc>
    <defs>
        <path d="M30.6751405,6 C29.6123291,7.89393294 29,10.1192398 29,12.5 C29,15.3140148 29.8554731,17.9108487 31.2991578,20 L9,20 C5.13400675,20 2,16.8659932 2,13 C2,9.13400675 5.13400675,6 9,6 L30.6751405,6 Z M50.3248595,6 L72,6 C75.8659932,6 79,9.13400675 79,13 C79,16.8659932 75.8659932,20 72,20 L49.7008422,20 C51.1445269,17.9108487 52,15.3140148 52,12.5 C52,10.1192398 51.3876709,7.89393294 50.3248595,6 Z" id="path-1"></path>
        <filter x="-8.4%" y="-39.3%" width="116.9%" height="192.9%" filterUnits="objectBoundingBox" id="filter-2">
            <feOffset dx="0" dy="1" in="SourceAlpha" result="shadowOffsetOuter1"></feOffset>
            <feGaussianBlur stdDeviation="2" in="shadowOffsetOuter1" result="shadowBlurOuter1"></feGaussianBlur>
            <feColorMatrix values="0 0 0 0 0   0 0 0 0 0   0 0 0 0 0  0 0 0 0.5 0" type="matrix" in="shadowBlurOuter1"></feColorMatrix>
        </filter>
        <rect id="path-3" x="0" y="6" width="80" height="14" rx="7"></rect>
        <filter x="-8.1%" y="-39.3%" width="116.2%" height="192.9%" filterUnits="objectBoundingBox" id="filter-4">
            <feOffset dx="0" dy="1" in="SourceAlpha" result="shadowOffsetOuter1"></feOffset>
            <feGaussianBlur stdDeviation="2" in="shadowOffsetOuter1" result="shadowBlurOuter1"></feGaussianBlur>
            <feColorMatrix values="0 0 0 0 0   0 0 0 0 0   0 0 0 0 0  0 0 0 0.5 0" type="matrix" in="shadowBlurOuter1"></feColorMatrix>
        </filter>
    </defs>
    <g id="Volcanes-fallas" stroke="none" stroke-width="1" fill="none" fill-rule="evenodd">
        <g id="herradura" transform="translate(4.000000, 1.000000)">
            <g id="ic_volcano_label-copy-18">
                <g id="Group-Copy-3">
                    <g id="Group-26-Copy-4" transform="translate(28.000000, 0.000000)" fill="#FF6D00" stroke="#FFFFFF" stroke-width="0.5">
                        <circle id="Oval-2-Copy-5" cx="12.5" cy="12.5" r="12.5"></circle>
                    </g>
                    <g id="Combined-Shape">
                        <use fill="black" fill-opacity="1" filter="url(#filter-2)" xlink:href="#path-1"></use>
                        <use fill="#263238" fill-rule="evenodd" xlink:href="#path-1"></use>
                    </g>
                    <g id="Rectangle-2-Copy-4">
                        <use fill="black" fill-opacity="1" filter="url(#filter-4)" xlink:href="#path-3"></use>
                        <use fill="#263238" fill-rule="evenodd" xlink:href="#path-3"></use>
                    </g>
                </g>
                <path d="M20.671875,16 L19.4648438,16 L19.4648438,13.5351562 L17.203125,13.5351562 L17.203125,16 L15.9921875,16 L15.9921875,10.2890625 L17.203125,10.2890625 L17.203125,12.5273438 L19.4648438,12.5273438 L19.4648438,10.2890625 L20.671875,10.2890625 L20.671875,16 Z M25.4023438,16 L22.1132812,16 L22.1132812,10.2890625 L25.4023438,10.2890625 L25.4023438,11.28125 L23.3242188,11.28125 L23.3242188,12.5351562 L25.2578125,12.5351562 L25.2578125,13.5273438 L23.3242188,13.5273438 L23.3242188,15 L25.4023438,15 L25.4023438,16 Z M27.8046875,12.8242188 L28.1953125,12.8242188 C28.5781269,12.8242188 28.8606762,12.7604173 29.0429688,12.6328125 C29.2252613,12.5052077 29.3164062,12.3046889 29.3164062,12.03125 C29.3164062,11.7604153 29.2233082,11.5677089 29.0371094,11.453125 C28.8509105,11.3385411 28.562502,11.28125 28.171875,11.28125 L27.8046875,11.28125 L27.8046875,12.8242188 Z M27.8046875,13.8085938 L27.8046875,16 L26.59375,16 L26.59375,10.2890625 L28.2578125,10.2890625 C29.033858,10.2890625 29.6080711,10.4303371 29.9804688,10.7128906 C30.3528664,10.9954441 30.5390625,11.4244763 30.5390625,12 C30.5390625,12.3359392 30.4466155,12.6347643 30.2617188,12.8964844 C30.076822,13.1582044 29.8151059,13.3632805 29.4765625,13.5117188 C30.3359418,14.7955793 30.895832,15.6249981 31.15625,16 L29.8125,16 L28.4492188,13.8085938 L27.8046875,13.8085938 Z M33.0859375,12.8242188 L33.4765625,12.8242188 C33.8593769,12.8242188 34.1419262,12.7604173 34.3242188,12.6328125 C34.5065113,12.5052077 34.5976562,12.3046889 34.5976562,12.03125 C34.5976562,11.7604153 34.5045582,11.5677089 34.3183594,11.453125 C34.1321605,11.3385411 33.843752,11.28125 33.453125,11.28125 L33.0859375,11.28125 L33.0859375,12.8242188 Z M33.0859375,13.8085938 L33.0859375,16 L31.875,16 L31.875,10.2890625 L33.5390625,10.2890625 C34.315108,10.2890625 34.8893211,10.4303371 35.2617188,10.7128906 C35.6341164,10.9954441 35.8203125,11.4244763 35.8203125,12 C35.8203125,12.3359392 35.7278655,12.6347643 35.5429688,12.8964844 C35.358072,13.1582044 35.0963559,13.3632805 34.7578125,13.5117188 C35.6171918,14.7955793 36.177082,15.6249981 36.4375,16 L35.09375,16 L33.7304688,13.8085938 L33.0859375,13.8085938 Z M40.6523438,16 L40.2382812,14.640625 L38.15625,14.640625 L37.7421875,16 L36.4375,16 L38.453125,10.265625 L39.9335938,10.265625 L41.9570312,16 L40.6523438,16 Z M39.9492188,13.625 C39.5664043,12.393223 39.3509117,11.6966154 39.3027344,11.5351562 C39.2545571,11.3736971 39.2200522,11.2460942 39.1992188,11.1523438 C39.1132808,11.4856787 38.8671895,12.3098893 38.4609375,13.625 L39.9492188,13.625 Z M47.4140625,13.0898438 C47.4140625,14.0299526 47.1464871,14.7499975 46.6113281,15.25 C46.0761692,15.7500025 45.3033905,16 44.2929688,16 L42.6757812,16 L42.6757812,10.2890625 L44.46875,10.2890625 C45.4010463,10.2890625 46.1249974,10.5351538 46.640625,11.0273438 C47.1562526,11.5195337 47.4140625,12.2070268 47.4140625,13.0898438 Z M46.15625,13.1210938 C46.15625,11.8945251 45.6145887,11.28125 44.53125,11.28125 L43.8867188,11.28125 L43.8867188,15 L44.40625,15 C45.5729225,15 46.15625,14.3737042 46.15625,13.1210938 Z M53.2460938,10.2890625 L53.2460938,13.984375 C53.2460938,14.4062521 53.1516937,14.7760401 52.9628906,15.09375 C52.7740876,15.4114599 52.5013039,15.6549471 52.1445312,15.8242188 C51.7877586,15.9934904 51.3658879,16.078125 50.8789062,16.078125 C50.1445276,16.078125 49.5742208,15.8899758 49.1679688,15.5136719 C48.7617167,15.1373679 48.5585938,14.6223991 48.5585938,13.96875 L48.5585938,10.2890625 L49.765625,10.2890625 L49.765625,13.7851562 C49.765625,14.2252626 49.8541658,14.5481761 50.03125,14.7539062 C50.2083342,14.9596364 50.5013,15.0625 50.9101562,15.0625 C51.3059916,15.0625 51.5930981,14.9589854 51.7714844,14.7519531 C51.9498707,14.5449208 52.0390625,14.2200543 52.0390625,13.7773438 L52.0390625,10.2890625 L53.2460938,10.2890625 Z M55.8554688,12.8242188 L56.2460938,12.8242188 C56.6289082,12.8242188 56.9114574,12.7604173 57.09375,12.6328125 C57.2760426,12.5052077 57.3671875,12.3046889 57.3671875,12.03125 C57.3671875,11.7604153 57.2740895,11.5677089 57.0878906,11.453125 C56.9016918,11.3385411 56.6132832,11.28125 56.2226562,11.28125 L55.8554688,11.28125 L55.8554688,12.8242188 Z M55.8554688,13.8085938 L55.8554688,16 L54.6445312,16 L54.6445312,10.2890625 L56.3085938,10.2890625 C57.0846393,10.2890625 57.6588523,10.4303371 58.03125,10.7128906 C58.4036477,10.9954441 58.5898438,11.4244763 58.5898438,12 C58.5898438,12.3359392 58.4973968,12.6347643 58.3125,12.8964844 C58.1276032,13.1582044 57.8658871,13.3632805 57.5273438,13.5117188 C58.386723,14.7955793 58.9466133,15.6249981 59.2070312,16 L57.8632812,16 L56.5,13.8085938 L55.8554688,13.8085938 Z M63.421875,16 L63.0078125,14.640625 L60.9257812,14.640625 L60.5117188,16 L59.2070312,16 L61.2226562,10.265625 L62.703125,10.265625 L64.7265625,16 L63.421875,16 Z M62.71875,13.625 C62.3359356,12.393223 62.1204429,11.6966154 62.0722656,11.5351562 C62.0240883,11.3736971 61.9895834,11.2460942 61.96875,11.1523438 C61.8828121,11.4856787 61.6367208,12.3098893 61.2304688,13.625 L62.71875,13.625 Z" id="Herradura" fill="#FFFFFF"></path>
            </g>
        </g>
    </g>
</svg>