<?xml version="1.0" encoding="UTF-8"?>
<svg width="88px" height="27px" viewBox="0 0 88 27" version="1.1" xmlns="http://www.w3.org/2000/svg" xmlns:xlink="http://www.w3.org/1999/xlink">
    <!-- Generator: Sketch 48.2 (47327) - http://www.bohemiancoding.com/sketch -->
    <title>jamaical</title>
    <desc>Created with Sketch.</desc>
    <defs>
        <path d="M30.6751405,6 C29.6123291,7.89393294 29,10.1192398 29,12.5 C29,15.3140148 29.8554731,17.9108487 31.2991578,20 L9,20 C5.13400675,20 2,16.8659932 2,13 C2,9.13400675 5.13400675,6 9,6 L30.6751405,6 Z M50.3248595,6 L72,6 C75.8659932,6 79,9.13400675 79,13 C79,16.8659932 75.8659932,20 72,20 L49.7008422,20 C51.1445269,17.9108487 52,15.3140148 52,12.5 C52,10.1192398 51.3876709,7.89393294 50.3248595,6 Z" id="path-1"></path>
        <filter x="-8.4%" y="-39.3%" width="116.9%" height="192.9%" filterUnits="objectBoundingBox" id="filter-2">
            <feOffset dx="0" dy="1" in="SourceAlpha" result="shadowOffsetOuter1"></feOffset>
            <feGaussianBlur stdDeviation="2" in="shadowOffsetOuter1" result="shadowBlurOuter1"></feGaussianBlur>
            <feColorMatrix values="0 0 0 0 0   0 0 0 0 0   0 0 0 0 0  0 0 0 0.5 0" type="matrix" in="shadowBlurOuter1"></feColorMatrix>
        </filter>
        <rect id="path-3" x="0" y="6" width="80" height="14" rx="7"></rect>
        <filter x="-8.1%" y="-39.3%" width="116.2%" height="192.9%" filterUnits="objectBoundingBox" id="filter-4">
            <feOffset dx="0" dy="1" in="SourceAlpha" result="shadowOffsetOuter1"></feOffset>
            <feGaussianBlur stdDeviation="2" in="shadowOffsetOuter1" result="shadowBlurOuter1"></feGaussianBlur>
            <feColorMatrix values="0 0 0 0 0   0 0 0 0 0   0 0 0 0 0  0 0 0 0.5 0" type="matrix" in="shadowBlurOuter1"></feColorMatrix>
        </filter>
    </defs>
    <g id="Volcanes-fallas" stroke="none" stroke-width="1" fill="none" fill-rule="evenodd">
        <g id="jamaical" transform="translate(4.000000, 1.000000)">
            <g id="ic_volcano_label-copy-18">
                <g id="Group-Copy-3">
                    <g id="Group-26-Copy-4" transform="translate(28.000000, 0.000000)" fill="#FF6D00" stroke="#FFFFFF" stroke-width="0.5">
                        <circle id="Oval-2-Copy-5" cx="12.5" cy="12.5" r="12.5"></circle>
                    </g>
                    <g id="Combined-Shape">
                        <use fill="black" fill-opacity="1" filter="url(#filter-2)" xlink:href="#path-1"></use>
                        <use fill="#263238" fill-rule="evenodd" xlink:href="#path-1"></use>
                    </g>
                    <g id="Rectangle-2-Copy-4">
                        <use fill="black" fill-opacity="1" filter="url(#filter-4)" xlink:href="#path-3"></use>
                        <use fill="#263238" fill-rule="evenodd" xlink:href="#path-3"></use>
                    </g>
                </g>
                <path d="M20.6132812,17.6796875 C20.3398424,17.6796875 20.1015635,17.651042 19.8984375,17.59375 L19.8984375,16.5859375 C20.1067719,16.6380211 20.2968741,16.6640625 20.46875,16.6640625 C20.7343763,16.6640625 20.9244786,16.581381 21.0390625,16.4160156 C21.1536464,16.2506502 21.2109375,15.9921893 21.2109375,15.640625 L21.2109375,10.2890625 L22.421875,10.2890625 L22.421875,15.6328125 C22.421875,16.2994825 22.2695328,16.8072899 21.9648438,17.15625 C21.6601547,17.5052101 21.2096384,17.6796875 20.6132812,17.6796875 Z M27.3554688,16 L26.9414062,14.640625 L24.859375,14.640625 L24.4453125,16 L23.140625,16 L25.15625,10.265625 L26.6367188,10.265625 L28.6601562,16 L27.3554688,16 Z M26.6523438,13.625 C26.2695293,12.393223 26.0540367,11.6966154 26.0058594,11.5351562 C25.9576821,11.3736971 25.9231772,11.2460942 25.9023438,11.1523438 C25.8164058,11.4856787 25.5703145,12.3098893 25.1640625,13.625 L26.6523438,13.625 Z M31.796875,16 L30.421875,11.5195312 L30.3867188,11.5195312 C30.4361982,12.4309941 30.4609375,13.039061 30.4609375,13.34375 L30.4609375,16 L29.3789062,16 L29.3789062,10.2890625 L31.0273438,10.2890625 L32.3789062,14.65625 L32.4023438,14.65625 L33.8359375,10.2890625 L35.484375,10.2890625 L35.484375,16 L34.3554688,16 L34.3554688,13.296875 C34.3554688,13.1692702 34.3574219,13.0221362 34.3613281,12.8554688 C34.3652344,12.6888013 34.3828123,12.2460973 34.4140625,11.5273438 L34.3789062,11.5273438 L32.90625,16 L31.796875,16 Z M40.4179688,16 L40.0039062,14.640625 L37.921875,14.640625 L37.5078125,16 L36.203125,16 L38.21875,10.265625 L39.6992188,10.265625 L41.7226562,16 L40.4179688,16 Z M39.7148438,13.625 C39.3320293,12.393223 39.1165367,11.6966154 39.0683594,11.5351562 C39.0201821,11.3736971 38.9856772,11.2460942 38.9648438,11.1523438 C38.8789058,11.4856787 38.6328145,12.3098893 38.2265625,13.625 L39.7148438,13.625 Z M42.4414062,16 L42.4414062,10.2890625 L43.6523438,10.2890625 L43.6523438,16 L42.4414062,16 Z M47.515625,11.2148438 C47.0598936,11.2148438 46.7070325,11.386066 46.4570312,11.7285156 C46.20703,12.0709653 46.0820312,12.548174 46.0820312,13.1601562 C46.0820312,14.4336001 46.5598911,15.0703125 47.515625,15.0703125 C47.9166687,15.0703125 48.4023409,14.9700531 48.9726562,14.7695312 L48.9726562,15.7851562 C48.5039039,15.9804697 47.9804716,16.078125 47.4023438,16.078125 C46.5716104,16.078125 45.9362001,15.8261744 45.4960938,15.3222656 C45.0559874,14.8183569 44.8359375,14.0950568 44.8359375,13.1523438 C44.8359375,12.5585908 44.9440093,12.0384137 45.1601562,11.5917969 C45.3763032,11.1451801 45.6868469,10.8027356 46.0917969,10.5644531 C46.4967468,10.3261707 46.9713514,10.2070312 47.515625,10.2070312 C48.0703153,10.2070312 48.6276014,10.3411445 49.1875,10.609375 L48.796875,11.59375 C48.5833323,11.492187 48.3684907,11.4036462 48.1523438,11.328125 C47.9361968,11.2526038 47.7239594,11.2148438 47.515625,11.2148438 Z M53.6835938,16 L53.2695312,14.640625 L51.1875,14.640625 L50.7734375,16 L49.46875,16 L51.484375,10.265625 L52.9648438,10.265625 L54.9882812,16 L53.6835938,16 Z M52.9804688,13.625 C52.5976543,12.393223 52.3821617,11.6966154 52.3339844,11.5351562 C52.2858071,11.3736971 52.2513022,11.2460942 52.2304688,11.1523438 C52.1445308,11.4856787 51.8984395,12.3098893 51.4921875,13.625 L52.9804688,13.625 Z M55.7070312,16 L55.7070312,10.2890625 L56.9179688,10.2890625 L56.9179688,15 L59.234375,15 L59.234375,16 L55.7070312,16 Z" id="jamaical" fill="#FFFFFF"></path>
            </g>
        </g>
    </g>
</svg>