<?xml version="1.0" encoding="UTF-8"?>
<svg width="65px" height="27px" viewBox="0 0 65 27" version="1.1" xmlns="http://www.w3.org/2000/svg" xmlns:xlink="http://www.w3.org/1999/xlink">
    <!-- Generator: Sketch 48.2 (47327) - http://www.bohemiancoding.com/sketch -->
    <title>jaris</title>
    <desc>Created with Sketch.</desc>
    <defs>
        <path d="M17.8208049,6 C16.6655751,7.89393294 16,10.1192398 16,12.5 C16,15.3140148 16.9298621,17.9108487 18.4990845,20 L7,20 C3.13400675,20 4.73447626e-16,16.8659932 0,13 C-4.73447626e-16,9.13400675 3.13400675,6 7,6 L17.8208049,6 Z M39.1791951,6 L50,6 C53.8659932,6 57,9.13400675 57,13 C57,16.8659932 53.8659932,20 50,20 L38.5009155,20 C40.0701379,17.9108487 41,15.3140148 41,12.5 C41,10.1192398 40.3344249,7.89393294 39.1791951,6 Z" id="path-1"></path>
        <filter x="-11.4%" y="-39.3%" width="122.8%" height="192.9%" filterUnits="objectBoundingBox" id="filter-2">
            <feOffset dx="0" dy="1" in="SourceAlpha" result="shadowOffsetOuter1"></feOffset>
            <feGaussianBlur stdDeviation="2" in="shadowOffsetOuter1" result="shadowBlurOuter1"></feGaussianBlur>
            <feColorMatrix values="0 0 0 0 0   0 0 0 0 0   0 0 0 0 0  0 0 0 0.5 0" type="matrix" in="shadowBlurOuter1"></feColorMatrix>
        </filter>
    </defs>
    <g id="Volcanes-fallas" stroke="none" stroke-width="1" fill="none" fill-rule="evenodd">
        <g id="jaris" transform="translate(4.000000, 1.000000)">
            <g id="ic_volcano_label-copy-19">
                <g id="Group-Copy-3" transform="translate(16.000000, 0.000000)">
                    <g id="Group-26-Copy-4"></g>
                </g>
                <circle id="Oval-2-Copy-5" stroke="#FFFFFF" stroke-width="0.5" fill="#FF6D00" cx="28.5" cy="12.5" r="12.5"></circle>
                <g id="Combined-Shape">
                    <use fill="black" fill-opacity="1" filter="url(#filter-2)" xlink:href="#path-1"></use>
                    <use fill="#263238" fill-rule="evenodd" xlink:href="#path-1"></use>
                </g>
                <rect id="Rectangle-2-Copy-4" fill="#263238" x="0" y="6" width="57" height="14" rx="7"></rect>
            </g>
            <path d="M18.3691406,17.6796875 C18.0957018,17.6796875 17.8574229,17.651042 17.6542969,17.59375 L17.6542969,16.5859375 C17.8626312,16.6380211 18.0527335,16.6640625 18.2246094,16.6640625 C18.4902357,16.6640625 18.680338,16.581381 18.7949219,16.4160156 C18.9095058,16.2506502 18.9667969,15.9921893 18.9667969,15.640625 L18.9667969,10.2890625 L20.1777344,10.2890625 L20.1777344,15.6328125 C20.1777344,16.2994825 20.0253921,16.8072899 19.7207031,17.15625 C19.4160141,17.5052101 18.9654978,17.6796875 18.3691406,17.6796875 Z M25.1113281,16 L24.6972656,14.640625 L22.6152344,14.640625 L22.2011719,16 L20.8964844,16 L22.9121094,10.265625 L24.3925781,10.265625 L26.4160156,16 L25.1113281,16 Z M24.4082031,13.625 C24.0253887,12.393223 23.8098961,11.6966154 23.7617188,11.5351562 C23.7135414,11.3736971 23.6790366,11.2460942 23.6582031,11.1523438 C23.5722652,11.4856787 23.3261739,12.3098893 22.9199219,13.625 L24.4082031,13.625 Z M28.3457031,12.8242188 L28.7363281,12.8242188 C29.1191425,12.8242188 29.4016918,12.7604173 29.5839844,12.6328125 C29.766277,12.5052077 29.8574219,12.3046889 29.8574219,12.03125 C29.8574219,11.7604153 29.7643238,11.5677089 29.578125,11.453125 C29.3919262,11.3385411 29.1035176,11.28125 28.7128906,11.28125 L28.3457031,11.28125 L28.3457031,12.8242188 Z M28.3457031,13.8085938 L28.3457031,16 L27.1347656,16 L27.1347656,10.2890625 L28.7988281,10.2890625 C29.5748737,10.2890625 30.1490867,10.4303371 30.5214844,10.7128906 C30.8938821,10.9954441 31.0800781,11.4244763 31.0800781,12 C31.0800781,12.3359392 30.9876311,12.6347643 30.8027344,12.8964844 C30.6178376,13.1582044 30.3561215,13.3632805 30.0175781,13.5117188 C30.8769574,14.7955793 31.4368477,15.6249981 31.6972656,16 L30.3535156,16 L28.9902344,13.8085938 L28.3457031,13.8085938 Z M32.4160156,16 L32.4160156,10.2890625 L33.6269531,10.2890625 L33.6269531,16 L32.4160156,16 Z M38.4355469,14.4140625 C38.4355469,14.9296901 38.2500019,15.335936 37.8789062,15.6328125 C37.5078106,15.929689 36.9915398,16.078125 36.3300781,16.078125 C35.7207001,16.078125 35.181643,15.9635428 34.7128906,15.734375 L34.7128906,14.609375 C35.0983092,14.7812509 35.4244778,14.9023434 35.6914062,14.9726562 C35.9583347,15.0429691 36.2024729,15.078125 36.4238281,15.078125 C36.6894545,15.078125 36.8932285,15.0273443 37.0351562,14.9257812 C37.177084,14.8242182 37.2480469,14.6731781 37.2480469,14.4726562 C37.2480469,14.3606765 37.2167972,14.2610681 37.1542969,14.1738281 C37.0917966,14.0865881 37.0000006,14.0026046 36.8789062,13.921875 C36.7578119,13.8411454 36.5110696,13.7122405 36.1386719,13.5351562 C35.7897118,13.3710929 35.5279957,13.2135424 35.3535156,13.0625 C35.1790356,12.9114576 35.0397141,12.7356781 34.9355469,12.5351562 C34.8313797,12.3346344 34.7792969,12.1002618 34.7792969,11.8320312 C34.7792969,11.3268204 34.9505191,10.9296889 35.2929688,10.640625 C35.6354184,10.3515611 36.1087209,10.2070312 36.7128906,10.2070312 C37.0097671,10.2070312 37.2929674,10.2421871 37.5625,10.3125 C37.8320326,10.3828129 38.1139308,10.4817702 38.4082031,10.609375 L38.0175781,11.5507812 C37.7128891,11.4257806 37.4609385,11.3385419 37.2617188,11.2890625 C37.062499,11.2395831 36.8665374,11.2148438 36.6738281,11.2148438 C36.4446603,11.2148438 36.2688808,11.2682286 36.1464844,11.375 C36.0240879,11.4817714 35.9628906,11.6210929 35.9628906,11.7929688 C35.9628906,11.8997401 35.98763,11.9928381 36.0371094,12.0722656 C36.0865888,12.1516931 36.165364,12.2285153 36.2734375,12.3027344 C36.381511,12.3769535 36.6373678,12.5104157 37.0410156,12.703125 C37.5748725,12.9583346 37.9407542,13.2141914 38.1386719,13.4707031 C38.3365895,13.7272148 38.4355469,14.0416648 38.4355469,14.4140625 Z" fill="#FFFFFF"></path>
        </g>
    </g>
</svg>