<?xml version="1.0" encoding="UTF-8"?>
<svg width="65px" height="27px" viewBox="0 0 65 27" version="1.1" xmlns="http://www.w3.org/2000/svg" xmlns:xlink="http://www.w3.org/1999/xlink">
    <!-- Generator: Sketch 48.2 (47327) - http://www.bohemiancoding.com/sketch -->
    <title>javillos</title>
    <desc>Created with Sketch.</desc>
    <defs>
        <path d="M17.8208049,6 C16.6655751,7.89393294 16,10.1192398 16,12.5 C16,15.3140148 16.9298621,17.9108487 18.4990845,20 L7,20 C3.13400675,20 4.73447626e-16,16.8659932 0,13 C-4.73447626e-16,9.13400675 3.13400675,6 7,6 L17.8208049,6 Z M39.1791951,6 L50,6 C53.8659932,6 57,9.13400675 57,13 C57,16.8659932 53.8659932,20 50,20 L38.5009155,20 C40.0701379,17.9108487 41,15.3140148 41,12.5 C41,10.1192398 40.3344249,7.89393294 39.1791951,6 Z" id="path-1"></path>
        <filter x="-11.4%" y="-39.3%" width="122.8%" height="192.9%" filterUnits="objectBoundingBox" id="filter-2">
            <feOffset dx="0" dy="1" in="SourceAlpha" result="shadowOffsetOuter1"></feOffset>
            <feGaussianBlur stdDeviation="2" in="shadowOffsetOuter1" result="shadowBlurOuter1"></feGaussianBlur>
            <feColorMatrix values="0 0 0 0 0   0 0 0 0 0   0 0 0 0 0  0 0 0 0.5 0" type="matrix" in="shadowBlurOuter1"></feColorMatrix>
        </filter>
    </defs>
    <g id="Volcanes-fallas" stroke="none" stroke-width="1" fill="none" fill-rule="evenodd">
        <g id="javillos" transform="translate(4.000000, 1.000000)">
            <g id="ic_volcano_label-copy-19">
                <g id="Group-Copy-3" transform="translate(16.000000, 0.000000)">
                    <g id="Group-26-Copy-4"></g>
                </g>
                <circle id="Oval-2-Copy-5" stroke="#FFFFFF" stroke-width="0.5" fill="#FF6D00" cx="28.5" cy="12.5" r="12.5"></circle>
                <g id="Combined-Shape">
                    <use fill="black" fill-opacity="1" filter="url(#filter-2)" xlink:href="#path-1"></use>
                    <use fill="#263238" fill-rule="evenodd" xlink:href="#path-1"></use>
                </g>
                <rect id="Rectangle-2-Copy-4" fill="#263238" x="0" y="6" width="57" height="14" rx="7"></rect>
            </g>
            <path d="M10.9472656,17.6796875 C10.6738268,17.6796875 10.4355479,17.651042 10.2324219,17.59375 L10.2324219,16.5859375 C10.4407562,16.6380211 10.6308585,16.6640625 10.8027344,16.6640625 C11.0683607,16.6640625 11.258463,16.581381 11.3730469,16.4160156 C11.4876308,16.2506502 11.5449219,15.9921893 11.5449219,15.640625 L11.5449219,10.2890625 L12.7558594,10.2890625 L12.7558594,15.6328125 C12.7558594,16.2994825 12.6035171,16.8072899 12.2988281,17.15625 C11.9941391,17.5052101 11.5436228,17.6796875 10.9472656,17.6796875 Z M17.6894531,16 L17.2753906,14.640625 L15.1933594,14.640625 L14.7792969,16 L13.4746094,16 L15.4902344,10.265625 L16.9707031,10.265625 L18.9941406,16 L17.6894531,16 Z M16.9863281,13.625 C16.6035137,12.393223 16.3880211,11.6966154 16.3398438,11.5351562 C16.2916664,11.3736971 16.2571616,11.2460942 16.2363281,11.1523438 C16.1503902,11.4856787 15.9042989,12.3098893 15.4980469,13.625 L16.9863281,13.625 Z M22.6503906,10.2890625 L23.8730469,10.2890625 L21.9316406,16 L20.6113281,16 L18.6738281,10.2890625 L19.8964844,10.2890625 L20.9707031,13.6875 C21.0305993,13.8880218 21.0924476,14.1217435 21.15625,14.3886719 C21.2200524,14.6556003 21.2597655,14.8411453 21.2753906,14.9453125 C21.3040366,14.705728 21.4016919,14.2864613 21.5683594,13.6875 L22.6503906,10.2890625 Z M24.5917969,16 L24.5917969,10.2890625 L25.8027344,10.2890625 L25.8027344,16 L24.5917969,16 Z M27.2402344,16 L27.2402344,10.2890625 L28.4511719,10.2890625 L28.4511719,15 L30.7675781,15 L30.7675781,16 L27.2402344,16 Z M31.7597656,16 L31.7597656,10.2890625 L32.9707031,10.2890625 L32.9707031,15 L35.2871094,15 L35.2871094,16 L31.7597656,16 Z M41.3027344,13.1367188 C41.3027344,14.082036 41.0683617,14.8085912 40.5996094,15.3164062 C40.130857,15.8242213 39.4589887,16.078125 38.5839844,16.078125 C37.70898,16.078125 37.0371117,15.8242213 36.5683594,15.3164062 C36.099607,14.8085912 35.8652344,14.0794318 35.8652344,13.1289062 C35.8652344,12.1783807 36.1002581,11.4524765 36.5703125,10.9511719 C37.0403669,10.4498673 37.7141883,10.1992188 38.5917969,10.1992188 C39.4694054,10.1992188 40.1406227,10.4518204 40.6054688,10.9570312 C41.0703148,11.4622421 41.3027344,12.1887973 41.3027344,13.1367188 Z M37.1347656,13.1367188 C37.1347656,13.7747428 37.2558582,14.2552067 37.4980469,14.578125 C37.7402356,14.9010433 38.1022111,15.0625 38.5839844,15.0625 C39.550135,15.0625 40.0332031,14.4205793 40.0332031,13.1367188 C40.0332031,11.850254 39.5527392,11.2070312 38.5917969,11.2070312 C38.1100236,11.2070312 37.746746,11.369139 37.5019531,11.6933594 C37.2571602,12.0175797 37.1347656,12.4986947 37.1347656,13.1367188 Z M45.8574219,14.4140625 C45.8574219,14.9296901 45.6718769,15.335936 45.3007813,15.6328125 C44.9296856,15.929689 44.4134148,16.078125 43.7519531,16.078125 C43.1425751,16.078125 42.603518,15.9635428 42.1347656,15.734375 L42.1347656,14.609375 C42.5201842,14.7812509 42.8463528,14.9023434 43.1132813,14.9726562 C43.3802097,15.0429691 43.6243479,15.078125 43.8457031,15.078125 C44.1113295,15.078125 44.3151035,15.0273443 44.4570313,14.9257812 C44.598959,14.8242182 44.6699219,14.6731781 44.6699219,14.4726562 C44.6699219,14.3606765 44.6386722,14.2610681 44.5761719,14.1738281 C44.5136716,14.0865881 44.4218756,14.0026046 44.3007813,13.921875 C44.1796869,13.8411454 43.9329446,13.7122405 43.5605469,13.5351562 C43.2115868,13.3710929 42.9498707,13.2135424 42.7753906,13.0625 C42.6009106,12.9114576 42.4615891,12.7356781 42.3574219,12.5351562 C42.2532547,12.3346344 42.2011719,12.1002618 42.2011719,11.8320312 C42.2011719,11.3268204 42.3723941,10.9296889 42.7148438,10.640625 C43.0572934,10.3515611 43.5305959,10.2070312 44.1347656,10.2070312 C44.4316421,10.2070312 44.7148424,10.2421871 44.984375,10.3125 C45.2539076,10.3828129 45.5358058,10.4817702 45.8300781,10.609375 L45.4394531,11.5507812 C45.1347641,11.4257806 44.8828135,11.3385419 44.6835938,11.2890625 C44.484374,11.2395831 44.2884124,11.2148438 44.0957031,11.2148438 C43.8665353,11.2148438 43.6907558,11.2682286 43.5683594,11.375 C43.4459629,11.4817714 43.3847656,11.6210929 43.3847656,11.7929688 C43.3847656,11.8997401 43.409505,11.9928381 43.4589844,12.0722656 C43.5084638,12.1516931 43.587239,12.2285153 43.6953125,12.3027344 C43.803386,12.3769535 44.0592428,12.5104157 44.4628906,12.703125 C44.9967475,12.9583346 45.3626292,13.2141914 45.5605469,13.4707031 C45.7584645,13.7272148 45.8574219,14.0416648 45.8574219,14.4140625 Z" fill="#FFFFFF"></path>
        </g>
    </g>
</svg>