<?xml version="1.0" encoding="UTF-8"?>
<svg width="88px" height="27px" viewBox="0 0 88 27" version="1.1" xmlns="http://www.w3.org/2000/svg" xmlns:xlink="http://www.w3.org/1999/xlink">
    <!-- Generator: Sketch 48.2 (47327) - http://www.bohemiancoding.com/sketch -->
    <title>jesus_maria</title>
    <desc>Created with Sketch.</desc>
    <defs>
        <path d="M30.6751405,6 C29.6123291,7.89393294 29,10.1192398 29,12.5 C29,15.3140148 29.8554731,17.9108487 31.2991578,20 L9,20 C5.13400675,20 2,16.8659932 2,13 C2,9.13400675 5.13400675,6 9,6 L30.6751405,6 Z M50.3248595,6 L72,6 C75.8659932,6 79,9.13400675 79,13 C79,16.8659932 75.8659932,20 72,20 L49.7008422,20 C51.1445269,17.9108487 52,15.3140148 52,12.5 C52,10.1192398 51.3876709,7.89393294 50.3248595,6 Z" id="path-1"></path>
        <filter x="-8.4%" y="-39.3%" width="116.9%" height="192.9%" filterUnits="objectBoundingBox" id="filter-2">
            <feOffset dx="0" dy="1" in="SourceAlpha" result="shadowOffsetOuter1"></feOffset>
            <feGaussianBlur stdDeviation="2" in="shadowOffsetOuter1" result="shadowBlurOuter1"></feGaussianBlur>
            <feColorMatrix values="0 0 0 0 0   0 0 0 0 0   0 0 0 0 0  0 0 0 0.5 0" type="matrix" in="shadowBlurOuter1"></feColorMatrix>
        </filter>
        <rect id="path-3" x="0" y="6" width="80" height="14" rx="7"></rect>
        <filter x="-8.1%" y="-39.3%" width="116.2%" height="192.9%" filterUnits="objectBoundingBox" id="filter-4">
            <feOffset dx="0" dy="1" in="SourceAlpha" result="shadowOffsetOuter1"></feOffset>
            <feGaussianBlur stdDeviation="2" in="shadowOffsetOuter1" result="shadowBlurOuter1"></feGaussianBlur>
            <feColorMatrix values="0 0 0 0 0   0 0 0 0 0   0 0 0 0 0  0 0 0 0.5 0" type="matrix" in="shadowBlurOuter1"></feColorMatrix>
        </filter>
    </defs>
    <g id="Volcanes-fallas" stroke="none" stroke-width="1" fill="none" fill-rule="evenodd">
        <g id="jesus_maria" transform="translate(4.000000, 1.000000)">
            <g id="ic_volcano_label-copy-18">
                <g id="Group-Copy-3">
                    <g id="Group-26-Copy-4" transform="translate(28.000000, 0.000000)" fill="#FF6D00" stroke="#FFFFFF" stroke-width="0.5">
                        <circle id="Oval-2-Copy-5" cx="12.5" cy="12.5" r="12.5"></circle>
                    </g>
                    <g id="Combined-Shape">
                        <use fill="black" fill-opacity="1" filter="url(#filter-2)" xlink:href="#path-1"></use>
                        <use fill="#263238" fill-rule="evenodd" xlink:href="#path-1"></use>
                    </g>
                    <g id="Rectangle-2-Copy-4">
                        <use fill="black" fill-opacity="1" filter="url(#filter-4)" xlink:href="#path-3"></use>
                        <use fill="#263238" fill-rule="evenodd" xlink:href="#path-3"></use>
                    </g>
                </g>
                <path d="M14.8320312,17.6796875 C14.5585924,17.6796875 14.3203135,17.651042 14.1171875,17.59375 L14.1171875,16.5859375 C14.3255219,16.6380211 14.5156241,16.6640625 14.6875,16.6640625 C14.9531263,16.6640625 15.1432286,16.581381 15.2578125,16.4160156 C15.3723964,16.2506502 15.4296875,15.9921893 15.4296875,15.640625 L15.4296875,10.2890625 L16.640625,10.2890625 L16.640625,15.6328125 C16.640625,16.2994825 16.4882828,16.8072899 16.1835938,17.15625 C15.8789047,17.5052101 15.4283884,17.6796875 14.8320312,17.6796875 Z M21.3671875,16 L18.078125,16 L18.078125,10.2890625 L21.3671875,10.2890625 L21.3671875,11.28125 L19.2890625,11.28125 L19.2890625,12.5351562 L21.2226562,12.5351562 L21.2226562,13.5273438 L19.2890625,13.5273438 L19.2890625,15 L21.3671875,15 L21.3671875,16 Z M25.9296875,14.4140625 C25.9296875,14.9296901 25.7441425,15.335936 25.3730469,15.6328125 C25.0019513,15.929689 24.4856804,16.078125 23.8242188,16.078125 C23.2148407,16.078125 22.6757836,15.9635428 22.2070312,15.734375 L22.2070312,14.609375 C22.5924498,14.7812509 22.9186185,14.9023434 23.1855469,14.9726562 C23.4524753,15.0429691 23.6966135,15.078125 23.9179688,15.078125 C24.1835951,15.078125 24.3873691,15.0273443 24.5292969,14.9257812 C24.6712247,14.8242182 24.7421875,14.6731781 24.7421875,14.4726562 C24.7421875,14.3606765 24.7109378,14.2610681 24.6484375,14.1738281 C24.5859372,14.0865881 24.4941412,14.0026046 24.3730469,13.921875 C24.2519525,13.8411454 24.0052102,13.7122405 23.6328125,13.5351562 C23.2838524,13.3710929 23.0221363,13.2135424 22.8476562,13.0625 C22.6731762,12.9114576 22.5338547,12.7356781 22.4296875,12.5351562 C22.3255203,12.3346344 22.2734375,12.1002618 22.2734375,11.8320312 C22.2734375,11.3268204 22.4446597,10.9296889 22.7871094,10.640625 C23.129559,10.3515611 23.6028616,10.2070312 24.2070312,10.2070312 C24.5039077,10.2070312 24.787108,10.2421871 25.0566406,10.3125 C25.3261732,10.3828129 25.6080714,10.4817702 25.9023438,10.609375 L25.5117188,11.5507812 C25.2070297,11.4257806 24.9550791,11.3385419 24.7558594,11.2890625 C24.5566396,11.2395831 24.360678,11.2148438 24.1679688,11.2148438 C23.9388009,11.2148438 23.7630214,11.2682286 23.640625,11.375 C23.5182286,11.4817714 23.4570312,11.6210929 23.4570312,11.7929688 C23.4570312,11.8997401 23.4817706,11.9928381 23.53125,12.0722656 C23.5807294,12.1516931 23.6595047,12.2285153 23.7675781,12.3027344 C23.8756516,12.3769535 24.1315084,12.5104157 24.5351562,12.703125 C25.0690131,12.9583346 25.4348948,13.2141914 25.6328125,13.4707031 C25.8307302,13.7272148 25.9296875,14.0416648 25.9296875,14.4140625 Z M31.6132812,10.2890625 L31.6132812,13.984375 C31.6132812,14.4062521 31.5188812,14.7760401 31.3300781,15.09375 C31.1412751,15.4114599 30.8684914,15.6549471 30.5117188,15.8242188 C30.1549461,15.9934904 29.7330754,16.078125 29.2460938,16.078125 C28.5117151,16.078125 27.9414083,15.8899758 27.5351562,15.5136719 C27.1289042,15.1373679 26.9257812,14.6223991 26.9257812,13.96875 L26.9257812,10.2890625 L28.1328125,10.2890625 L28.1328125,13.7851562 C28.1328125,14.2252626 28.2213533,14.5481761 28.3984375,14.7539062 C28.5755217,14.9596364 28.8684875,15.0625 29.2773438,15.0625 C29.6731791,15.0625 29.9602856,14.9589854 30.1386719,14.7519531 C30.3170582,14.5449208 30.40625,14.2200543 30.40625,13.7773438 L30.40625,10.2890625 L31.6132812,10.2890625 Z M28.5976562,9.83203125 L28.5976562,9.7265625 C29.0455752,9.20572656 29.3515617,8.8138034 29.515625,8.55078125 L30.8515625,8.55078125 L30.8515625,8.6328125 C30.7161452,8.76822984 30.4850277,8.96939971 30.1582031,9.23632812 C29.8313786,9.50325654 29.5755218,9.70182227 29.390625,9.83203125 L28.5976562,9.83203125 Z M36.3828125,14.4140625 C36.3828125,14.9296901 36.1972675,15.335936 35.8261719,15.6328125 C35.4550763,15.929689 34.9388054,16.078125 34.2773438,16.078125 C33.6679657,16.078125 33.1289086,15.9635428 32.6601562,15.734375 L32.6601562,14.609375 C33.0455748,14.7812509 33.3717435,14.9023434 33.6386719,14.9726562 C33.9056003,15.0429691 34.1497385,15.078125 34.3710938,15.078125 C34.6367201,15.078125 34.8404941,15.0273443 34.9824219,14.9257812 C35.1243497,14.8242182 35.1953125,14.6731781 35.1953125,14.4726562 C35.1953125,14.3606765 35.1640628,14.2610681 35.1015625,14.1738281 C35.0390622,14.0865881 34.9472662,14.0026046 34.8261719,13.921875 C34.7050775,13.8411454 34.4583352,13.7122405 34.0859375,13.5351562 C33.7369774,13.3710929 33.4752613,13.2135424 33.3007812,13.0625 C33.1263012,12.9114576 32.9869797,12.7356781 32.8828125,12.5351562 C32.7786453,12.3346344 32.7265625,12.1002618 32.7265625,11.8320312 C32.7265625,11.3268204 32.8977847,10.9296889 33.2402344,10.640625 C33.582684,10.3515611 34.0559866,10.2070312 34.6601562,10.2070312 C34.9570327,10.2070312 35.240233,10.2421871 35.5097656,10.3125 C35.7792982,10.3828129 36.0611964,10.4817702 36.3554688,10.609375 L35.9648438,11.5507812 C35.6601547,11.4257806 35.4082041,11.3385419 35.2089844,11.2890625 C35.0097646,11.2395831 34.813803,11.2148438 34.6210938,11.2148438 C34.3919259,11.2148438 34.2161464,11.2682286 34.09375,11.375 C33.9713536,11.4817714 33.9101562,11.6210929 33.9101562,11.7929688 C33.9101562,11.8997401 33.9348956,11.9928381 33.984375,12.0722656 C34.0338544,12.1516931 34.1126297,12.2285153 34.2207031,12.3027344 C34.3287766,12.3769535 34.5846334,12.5104157 34.9882812,12.703125 C35.5221381,12.9583346 35.8880198,13.2141914 36.0859375,13.4707031 C36.2838552,13.7272148 36.3828125,14.0416648 36.3828125,14.4140625 Z M41.9140625,16 L40.5390625,11.5195312 L40.5039062,11.5195312 C40.5533857,12.4309941 40.578125,13.039061 40.578125,13.34375 L40.578125,16 L39.4960938,16 L39.4960938,10.2890625 L41.1445312,10.2890625 L42.4960938,14.65625 L42.5195312,14.65625 L43.953125,10.2890625 L45.6015625,10.2890625 L45.6015625,16 L44.4726562,16 L44.4726562,13.296875 C44.4726562,13.1692702 44.4746094,13.0221362 44.4785156,12.8554688 C44.4824219,12.6888013 44.4999998,12.2460973 44.53125,11.5273438 L44.4960938,11.5273438 L43.0234375,16 L41.9140625,16 Z M50.5351562,16 L50.1210938,14.640625 L48.0390625,14.640625 L47.625,16 L46.3203125,16 L48.3359375,10.265625 L49.8164062,10.265625 L51.8398438,16 L50.5351562,16 Z M49.8320312,13.625 C49.4492168,12.393223 49.2337242,11.6966154 49.1855469,11.5351562 C49.1373696,11.3736971 49.1028647,11.2460942 49.0820312,11.1523438 C48.9960933,11.4856787 48.750002,12.3098893 48.34375,13.625 L49.8320312,13.625 Z M53.7695312,12.8242188 L54.1601562,12.8242188 C54.5429707,12.8242188 54.8255199,12.7604173 55.0078125,12.6328125 C55.1901051,12.5052077 55.28125,12.3046889 55.28125,12.03125 C55.28125,11.7604153 55.188152,11.5677089 55.0019531,11.453125 C54.8157543,11.3385411 54.5273457,11.28125 54.1367188,11.28125 L53.7695312,11.28125 L53.7695312,12.8242188 Z M53.7695312,13.8085938 L53.7695312,16 L52.5585938,16 L52.5585938,10.2890625 L54.2226562,10.2890625 C54.9987018,10.2890625 55.5729148,10.4303371 55.9453125,10.7128906 C56.3177102,10.9954441 56.5039062,11.4244763 56.5039062,12 C56.5039062,12.3359392 56.4114593,12.6347643 56.2265625,12.8964844 C56.0416657,13.1582044 55.7799496,13.3632805 55.4414062,13.5117188 C56.3007855,14.7955793 56.8606758,15.6249981 57.1210938,16 L55.7773438,16 L54.4140625,13.8085938 L53.7695312,13.8085938 Z M57.8398438,16 L57.8398438,10.2890625 L59.0507812,10.2890625 L59.0507812,16 L57.8398438,16 Z M57.7734375,9.83203125 L57.7734375,9.7265625 C58.2213564,9.20572656 58.5273429,8.8138034 58.6914062,8.55078125 L60.0273438,8.55078125 L60.0273438,8.6328125 C59.8919264,8.76822984 59.6608089,8.96939971 59.3339844,9.23632812 C59.0071598,9.50325654 58.751303,9.70182227 58.5664062,9.83203125 L57.7734375,9.83203125 Z M63.984375,16 L63.5703125,14.640625 L61.4882812,14.640625 L61.0742188,16 L59.7695312,16 L61.7851562,10.265625 L63.265625,10.265625 L65.2890625,16 L63.984375,16 Z M63.28125,13.625 C62.8984356,12.393223 62.6829429,11.6966154 62.6347656,11.5351562 C62.5865883,11.3736971 62.5520834,11.2460942 62.53125,11.1523438 C62.4453121,11.4856787 62.1992208,12.3098893 61.7929688,13.625 L63.28125,13.625 Z" id="jesús-maría" fill="#FFFFFF"></path>
            </g>
        </g>
    </g>
</svg>