<?xml version="1.0" encoding="UTF-8"?>
<svg width="65px" height="27px" viewBox="0 0 65 27" version="1.1" xmlns="http://www.w3.org/2000/svg" xmlns:xlink="http://www.w3.org/1999/xlink">
    <!-- Generator: Sketch 48.2 (47327) - http://www.bohemiancoding.com/sketch -->
    <title>kabebeta</title>
    <desc>Created with Sketch.</desc>
    <defs>
        <path d="M17.8208049,6 C16.6655751,7.89393294 16,10.1192398 16,12.5 C16,15.3140148 16.9298621,17.9108487 18.4990845,20 L7,20 C3.13400675,20 4.73447626e-16,16.8659932 0,13 C-4.73447626e-16,9.13400675 3.13400675,6 7,6 L17.8208049,6 Z M39.1791951,6 L50,6 C53.8659932,6 57,9.13400675 57,13 C57,16.8659932 53.8659932,20 50,20 L38.5009155,20 C40.0701379,17.9108487 41,15.3140148 41,12.5 C41,10.1192398 40.3344249,7.89393294 39.1791951,6 Z" id="path-1"></path>
        <filter x="-11.4%" y="-39.3%" width="122.8%" height="192.9%" filterUnits="objectBoundingBox" id="filter-2">
            <feOffset dx="0" dy="1" in="SourceAlpha" result="shadowOffsetOuter1"></feOffset>
            <feGaussianBlur stdDeviation="2" in="shadowOffsetOuter1" result="shadowBlurOuter1"></feGaussianBlur>
            <feColorMatrix values="0 0 0 0 0   0 0 0 0 0   0 0 0 0 0  0 0 0 0.5 0" type="matrix" in="shadowBlurOuter1"></feColorMatrix>
        </filter>
    </defs>
    <g id="Volcanes-fallas" stroke="none" stroke-width="1" fill="none" fill-rule="evenodd">
        <g id="kabebeta" transform="translate(4.000000, 1.000000)">
            <g id="ic_volcano_label-copy-19">
                <g id="Group-Copy-3" transform="translate(16.000000, 0.000000)">
                    <g id="Group-26-Copy-4"></g>
                </g>
                <circle id="Oval-2-Copy-5" stroke="#FFFFFF" stroke-width="0.5" fill="#FF6D00" cx="28.5" cy="12.5" r="12.5"></circle>
                <g id="Combined-Shape">
                    <use fill="black" fill-opacity="1" filter="url(#filter-2)" xlink:href="#path-1"></use>
                    <use fill="#263238" fill-rule="evenodd" xlink:href="#path-1"></use>
                </g>
                <rect id="Rectangle-2-Copy-4" fill="#263238" x="0" y="6" width="57" height="14" rx="7"></rect>
            </g>
            <path d="M13.7441406,16 L12.3691406,16 L10.8730469,13.59375 L10.3613281,13.9609375 L10.3613281,16 L9.15039062,16 L9.15039062,10.2890625 L10.3613281,10.2890625 L10.3613281,12.9023438 L10.8378906,12.2304688 L12.3847656,10.2890625 L13.7285156,10.2890625 L11.7363281,12.8164062 L13.7441406,16 Z M17.9589844,16 L17.5449219,14.640625 L15.4628906,14.640625 L15.0488281,16 L13.7441406,16 L15.7597656,10.265625 L17.2402344,10.265625 L19.2636719,16 L17.9589844,16 Z M17.2558594,13.625 C16.873045,12.393223 16.6575523,11.6966154 16.609375,11.5351562 C16.5611977,11.3736971 16.5266928,11.2460942 16.5058594,11.1523438 C16.4199214,11.4856787 16.1738302,12.3098893 15.7675781,13.625 L17.2558594,13.625 Z M19.9824219,10.2890625 L21.7597656,10.2890625 C22.5696655,10.2890625 23.1575503,10.4042957 23.5234375,10.6347656 C23.8893247,10.8652355 24.0722656,11.2317683 24.0722656,11.734375 C24.0722656,12.0755225 23.9921883,12.3554677 23.8320312,12.5742188 C23.6718742,12.7929698 23.4589857,12.9244789 23.1933594,12.96875 L23.1933594,13.0078125 C23.5553404,13.0885421 23.8164054,13.2395822 23.9765625,13.4609375 C24.1367196,13.6822928 24.2167969,13.9765607 24.2167969,14.34375 C24.2167969,14.8645859 24.0286477,15.2708319 23.6523438,15.5625 C23.2760398,15.8541681 22.7649772,16 22.1191406,16 L19.9824219,16 L19.9824219,10.2890625 Z M21.1933594,12.5507812 L21.8964844,12.5507812 C22.224611,12.5507812 22.4622388,12.5000005 22.609375,12.3984375 C22.7565112,12.2968745 22.8300781,12.1289074 22.8300781,11.8945312 C22.8300781,11.6757802 22.7500008,11.5188807 22.5898438,11.4238281 C22.4296867,11.3287756 22.176434,11.28125 21.8300781,11.28125 L21.1933594,11.28125 L21.1933594,12.5507812 Z M21.1933594,13.5117188 L21.1933594,15 L21.9824219,15 C22.3157569,15 22.5618482,14.9361986 22.7207031,14.8085938 C22.8795581,14.6809889 22.9589844,14.4856784 22.9589844,14.2226562 C22.9589844,13.7486955 22.6204461,13.5117188 21.9433594,13.5117188 L21.1933594,13.5117188 Z M28.6464844,16 L25.3574219,16 L25.3574219,10.2890625 L28.6464844,10.2890625 L28.6464844,11.28125 L26.5683594,11.28125 L26.5683594,12.5351562 L28.5019531,12.5351562 L28.5019531,13.5273438 L26.5683594,13.5273438 L26.5683594,15 L28.6464844,15 L28.6464844,16 Z M26.2949219,9.83203125 L26.2949219,9.7265625 C26.7428408,9.20572656 27.0488273,8.8138034 27.2128906,8.55078125 L28.5488281,8.55078125 L28.5488281,8.6328125 C28.4134108,8.76822984 28.1822933,8.96939971 27.8554688,9.23632812 C27.5286442,9.50325654 27.2727874,9.70182227 27.0878906,9.83203125 L26.2949219,9.83203125 Z M29.8378906,10.2890625 L31.6152344,10.2890625 C32.4251343,10.2890625 33.013019,10.4042957 33.3789062,10.6347656 C33.7447935,10.8652355 33.9277344,11.2317683 33.9277344,11.734375 C33.9277344,12.0755225 33.8476571,12.3554677 33.6875,12.5742188 C33.5273429,12.7929698 33.3144545,12.9244789 33.0488281,12.96875 L33.0488281,13.0078125 C33.4108091,13.0885421 33.6718742,13.2395822 33.8320312,13.4609375 C33.9921883,13.6822928 34.0722656,13.9765607 34.0722656,14.34375 C34.0722656,14.8645859 33.8841165,15.2708319 33.5078125,15.5625 C33.1315085,15.8541681 32.6204459,16 31.9746094,16 L29.8378906,16 L29.8378906,10.2890625 Z M31.0488281,12.5507812 L31.7519531,12.5507812 C32.0800798,12.5507812 32.3177076,12.5000005 32.4648438,12.3984375 C32.6119799,12.2968745 32.6855469,12.1289074 32.6855469,11.8945312 C32.6855469,11.6757802 32.6054696,11.5188807 32.4453125,11.4238281 C32.2851554,11.3287756 32.0319028,11.28125 31.6855469,11.28125 L31.0488281,11.28125 L31.0488281,12.5507812 Z M31.0488281,13.5117188 L31.0488281,15 L31.8378906,15 C32.1712256,15 32.4173169,14.9361986 32.5761719,14.8085938 C32.7350268,14.6809889 32.8144531,14.4856784 32.8144531,14.2226562 C32.8144531,13.7486955 32.4759148,13.5117188 31.7988281,13.5117188 L31.0488281,13.5117188 Z M38.5019531,16 L35.2128906,16 L35.2128906,10.2890625 L38.5019531,10.2890625 L38.5019531,11.28125 L36.4238281,11.28125 L36.4238281,12.5351562 L38.3574219,12.5351562 L38.3574219,13.5273438 L36.4238281,13.5273438 L36.4238281,15 L38.5019531,15 L38.5019531,16 Z M41.8964844,16 L40.6855469,16 L40.6855469,11.296875 L39.1347656,11.296875 L39.1347656,10.2890625 L43.4472656,10.2890625 L43.4472656,11.296875 L41.8964844,11.296875 L41.8964844,16 Z M47.2636719,16 L46.8496094,14.640625 L44.7675781,14.640625 L44.3535156,16 L43.0488281,16 L45.0644531,10.265625 L46.5449219,10.265625 L48.5683594,16 L47.2636719,16 Z M46.5605469,13.625 C46.1777325,12.393223 45.9622398,11.6966154 45.9140625,11.5351562 C45.8658852,11.3736971 45.8313803,11.2460942 45.8105469,11.1523438 C45.7246089,11.4856787 45.4785177,12.3098893 45.0722656,13.625 L46.5605469,13.625 Z" id="kabébeta" fill="#FFFFFF"></path>
        </g>
    </g>
</svg>