<?xml version="1.0" encoding="UTF-8"?>
<svg width="88px" height="27px" viewBox="0 0 88 27" version="1.1" xmlns="http://www.w3.org/2000/svg" xmlns:xlink="http://www.w3.org/1999/xlink">
    <!-- Generator: Sketch 48.2 (47327) - http://www.bohemiancoding.com/sketch -->
    <title>la_estrella</title>
    <desc>Created with Sketch.</desc>
    <defs>
        <path d="M30.6751405,6 C29.6123291,7.89393294 29,10.1192398 29,12.5 C29,15.3140148 29.8554731,17.9108487 31.2991578,20 L9,20 C5.13400675,20 2,16.8659932 2,13 C2,9.13400675 5.13400675,6 9,6 L30.6751405,6 Z M50.3248595,6 L72,6 C75.8659932,6 79,9.13400675 79,13 C79,16.8659932 75.8659932,20 72,20 L49.7008422,20 C51.1445269,17.9108487 52,15.3140148 52,12.5 C52,10.1192398 51.3876709,7.89393294 50.3248595,6 Z" id="path-1"></path>
        <filter x="-8.4%" y="-39.3%" width="116.9%" height="192.9%" filterUnits="objectBoundingBox" id="filter-2">
            <feOffset dx="0" dy="1" in="SourceAlpha" result="shadowOffsetOuter1"></feOffset>
            <feGaussianBlur stdDeviation="2" in="shadowOffsetOuter1" result="shadowBlurOuter1"></feGaussianBlur>
            <feColorMatrix values="0 0 0 0 0   0 0 0 0 0   0 0 0 0 0  0 0 0 0.5 0" type="matrix" in="shadowBlurOuter1"></feColorMatrix>
        </filter>
        <rect id="path-3" x="0" y="6" width="80" height="14" rx="7"></rect>
        <filter x="-8.1%" y="-39.3%" width="116.2%" height="192.9%" filterUnits="objectBoundingBox" id="filter-4">
            <feOffset dx="0" dy="1" in="SourceAlpha" result="shadowOffsetOuter1"></feOffset>
            <feGaussianBlur stdDeviation="2" in="shadowOffsetOuter1" result="shadowBlurOuter1"></feGaussianBlur>
            <feColorMatrix values="0 0 0 0 0   0 0 0 0 0   0 0 0 0 0  0 0 0 0.5 0" type="matrix" in="shadowBlurOuter1"></feColorMatrix>
        </filter>
    </defs>
    <g id="Volcanes-fallas" stroke="none" stroke-width="1" fill="none" fill-rule="evenodd">
        <g id="la_estrella" transform="translate(4.000000, 1.000000)">
            <g id="ic_volcano_label-copy-18">
                <g id="Group-Copy-3">
                    <g id="Group-26-Copy-4" transform="translate(28.000000, 0.000000)" fill="#FF6D00" stroke="#FFFFFF" stroke-width="0.5">
                        <circle id="Oval-2-Copy-5" cx="12.5" cy="12.5" r="12.5"></circle>
                    </g>
                    <g id="Combined-Shape">
                        <use fill="black" fill-opacity="1" filter="url(#filter-2)" xlink:href="#path-1"></use>
                        <use fill="#263238" fill-rule="evenodd" xlink:href="#path-1"></use>
                    </g>
                    <g id="Rectangle-2-Copy-4">
                        <use fill="black" fill-opacity="1" filter="url(#filter-4)" xlink:href="#path-3"></use>
                        <use fill="#263238" fill-rule="evenodd" xlink:href="#path-3"></use>
                    </g>
                </g>
                <path d="M15.7402344,16 L15.7402344,10.2890625 L16.9511719,10.2890625 L16.9511719,15 L19.2675781,15 L19.2675781,16 L15.7402344,16 Z M23.7558594,16 L23.3417969,14.640625 L21.2597656,14.640625 L20.8457031,16 L19.5410156,16 L21.5566406,10.265625 L23.0371094,10.265625 L25.0605469,16 L23.7558594,16 Z M23.0527344,13.625 C22.66992,12.393223 22.4544273,11.6966154 22.40625,11.5351562 C22.3580727,11.3736971 22.3235678,11.2460942 22.3027344,11.1523438 C22.2167964,11.4856787 21.9707052,12.3098893 21.5644531,13.625 L23.0527344,13.625 Z M31.1464844,16 L27.8574219,16 L27.8574219,10.2890625 L31.1464844,10.2890625 L31.1464844,11.28125 L29.0683594,11.28125 L29.0683594,12.5351562 L31.0019531,12.5351562 L31.0019531,13.5273438 L29.0683594,13.5273438 L29.0683594,15 L31.1464844,15 L31.1464844,16 Z M35.7089844,14.4140625 C35.7089844,14.9296901 35.5234394,15.335936 35.1523438,15.6328125 C34.7812481,15.929689 34.2649773,16.078125 33.6035156,16.078125 C32.9941376,16.078125 32.4550805,15.9635428 31.9863281,15.734375 L31.9863281,14.609375 C32.3717467,14.7812509 32.6979153,14.9023434 32.9648438,14.9726562 C33.2317722,15.0429691 33.4759104,15.078125 33.6972656,15.078125 C33.962892,15.078125 34.166666,15.0273443 34.3085938,14.9257812 C34.4505215,14.8242182 34.5214844,14.6731781 34.5214844,14.4726562 C34.5214844,14.3606765 34.4902347,14.2610681 34.4277344,14.1738281 C34.3652341,14.0865881 34.2734381,14.0026046 34.1523438,13.921875 C34.0312494,13.8411454 33.7845071,13.7122405 33.4121094,13.5351562 C33.0631493,13.3710929 32.8014332,13.2135424 32.6269531,13.0625 C32.4524731,12.9114576 32.3131516,12.7356781 32.2089844,12.5351562 C32.1048172,12.3346344 32.0527344,12.1002618 32.0527344,11.8320312 C32.0527344,11.3268204 32.2239566,10.9296889 32.5664062,10.640625 C32.9088559,10.3515611 33.3821584,10.2070312 33.9863281,10.2070312 C34.2832046,10.2070312 34.5664049,10.2421871 34.8359375,10.3125 C35.1054701,10.3828129 35.3873683,10.4817702 35.6816406,10.609375 L35.2910156,11.5507812 C34.9863266,11.4257806 34.734376,11.3385419 34.5351562,11.2890625 C34.3359365,11.2395831 34.1399749,11.2148438 33.9472656,11.2148438 C33.7180978,11.2148438 33.5423183,11.2682286 33.4199219,11.375 C33.2975254,11.4817714 33.2363281,11.6210929 33.2363281,11.7929688 C33.2363281,11.8997401 33.2610675,11.9928381 33.3105469,12.0722656 C33.3600263,12.1516931 33.4388015,12.2285153 33.546875,12.3027344 C33.6549485,12.3769535 33.9108053,12.5104157 34.3144531,12.703125 C34.84831,12.9583346 35.2141917,13.2141914 35.4121094,13.4707031 C35.610027,13.7272148 35.7089844,14.0416648 35.7089844,14.4140625 Z M38.9472656,16 L37.7363281,16 L37.7363281,11.296875 L36.1855469,11.296875 L36.1855469,10.2890625 L40.4980469,10.2890625 L40.4980469,11.296875 L38.9472656,11.296875 L38.9472656,16 Z M42.5878906,12.8242188 L42.9785156,12.8242188 C43.36133,12.8242188 43.6438793,12.7604173 43.8261719,12.6328125 C44.0084645,12.5052077 44.0996094,12.3046889 44.0996094,12.03125 C44.0996094,11.7604153 44.0065113,11.5677089 43.8203125,11.453125 C43.6341137,11.3385411 43.3457051,11.28125 42.9550781,11.28125 L42.5878906,11.28125 L42.5878906,12.8242188 Z M42.5878906,13.8085938 L42.5878906,16 L41.3769531,16 L41.3769531,10.2890625 L43.0410156,10.2890625 C43.8170612,10.2890625 44.3912742,10.4303371 44.7636719,10.7128906 C45.1360696,10.9954441 45.3222656,11.4244763 45.3222656,12 C45.3222656,12.3359392 45.2298186,12.6347643 45.0449219,12.8964844 C44.8600251,13.1582044 44.598309,13.3632805 44.2597656,13.5117188 C45.1191449,14.7955793 45.6790352,15.6249981 45.9394531,16 L44.5957031,16 L43.2324219,13.8085938 L42.5878906,13.8085938 Z M49.9472656,16 L46.6582031,16 L46.6582031,10.2890625 L49.9472656,10.2890625 L49.9472656,11.28125 L47.8691406,11.28125 L47.8691406,12.5351562 L49.8027344,12.5351562 L49.8027344,13.5273438 L47.8691406,13.5273438 L47.8691406,15 L49.9472656,15 L49.9472656,16 Z M51.1386719,16 L51.1386719,10.2890625 L52.3496094,10.2890625 L52.3496094,15 L54.6660156,15 L54.6660156,16 L51.1386719,16 Z M55.6582031,16 L55.6582031,10.2890625 L56.8691406,10.2890625 L56.8691406,15 L59.1855469,15 L59.1855469,16 L55.6582031,16 Z M63.6738281,16 L63.2597656,14.640625 L61.1777344,14.640625 L60.7636719,16 L59.4589844,16 L61.4746094,10.265625 L62.9550781,10.265625 L64.9785156,16 L63.6738281,16 Z M62.9707031,13.625 C62.5878887,12.393223 62.3723961,11.6966154 62.3242188,11.5351562 C62.2760414,11.3736971 62.2415366,11.2460942 62.2207031,11.1523438 C62.1347652,11.4856787 61.8886739,12.3098893 61.4824219,13.625 L62.9707031,13.625 Z" id="la-estrella" fill="#FFFFFF"></path>
            </g>
        </g>
    </g>
</svg>