<?xml version="1.0" encoding="UTF-8"?>
<svg width="65px" height="27px" viewBox="0 0 65 27" version="1.1" xmlns="http://www.w3.org/2000/svg" xmlns:xlink="http://www.w3.org/1999/xlink">
    <!-- Generator: Sketch 48.2 (47327) - http://www.bohemiancoding.com/sketch -->
    <title>la_garita</title>
    <desc>Created with Sketch.</desc>
    <defs>
        <path d="M17.8208049,6 C16.6655751,7.89393294 16,10.1192398 16,12.5 C16,15.3140148 16.9298621,17.9108487 18.4990845,20 L7,20 C3.13400675,20 4.73447626e-16,16.8659932 0,13 C-4.73447626e-16,9.13400675 3.13400675,6 7,6 L17.8208049,6 Z M39.1791951,6 L50,6 C53.8659932,6 57,9.13400675 57,13 C57,16.8659932 53.8659932,20 50,20 L38.5009155,20 C40.0701379,17.9108487 41,15.3140148 41,12.5 C41,10.1192398 40.3344249,7.89393294 39.1791951,6 Z" id="path-1"></path>
        <filter x="-11.4%" y="-39.3%" width="122.8%" height="192.9%" filterUnits="objectBoundingBox" id="filter-2">
            <feOffset dx="0" dy="1" in="SourceAlpha" result="shadowOffsetOuter1"></feOffset>
            <feGaussianBlur stdDeviation="2" in="shadowOffsetOuter1" result="shadowBlurOuter1"></feGaussianBlur>
            <feColorMatrix values="0 0 0 0 0   0 0 0 0 0   0 0 0 0 0  0 0 0 0.5 0" type="matrix" in="shadowBlurOuter1"></feColorMatrix>
        </filter>
    </defs>
    <g id="Volcanes-fallas" stroke="none" stroke-width="1" fill="none" fill-rule="evenodd">
        <g id="la_garita" transform="translate(4.000000, 1.000000)">
            <g id="ic_volcano_label-copy-19">
                <g id="Group-Copy-3" transform="translate(16.000000, 0.000000)">
                    <g id="Group-26-Copy-4"></g>
                </g>
                <circle id="Oval-2-Copy-5" stroke="#FFFFFF" stroke-width="0.5" fill="#FF6D00" cx="28.5" cy="12.5" r="12.5"></circle>
                <g id="Combined-Shape">
                    <use fill="black" fill-opacity="1" filter="url(#filter-2)" xlink:href="#path-1"></use>
                    <use fill="#263238" fill-rule="evenodd" xlink:href="#path-1"></use>
                </g>
                <rect id="Rectangle-2-Copy-4" fill="#263238" x="0" y="6" width="57" height="14" rx="7"></rect>
            </g>
            <path d="M8.7421875,16 L8.7421875,10.2890625 L9.953125,10.2890625 L9.953125,15 L12.2695312,15 L12.2695312,16 L8.7421875,16 Z M16.7578125,16 L16.34375,14.640625 L14.2617188,14.640625 L13.8476562,16 L12.5429688,16 L14.5585938,10.265625 L16.0390625,10.265625 L18.0625,16 L16.7578125,16 Z M16.0546875,13.625 C15.6718731,12.393223 15.4563804,11.6966154 15.4082031,11.5351562 C15.3600258,11.3736971 15.3255209,11.2460942 15.3046875,11.1523438 C15.2187496,11.4856787 14.9726583,12.3098893 14.5664062,13.625 L16.0546875,13.625 Z M23.0273438,12.7929688 L25.2929688,12.7929688 L25.2929688,15.7539062 C24.9257794,15.8736985 24.5800797,15.9576821 24.2558594,16.0058594 C23.931639,16.0540367 23.6002621,16.078125 23.2617188,16.078125 C22.3997353,16.078125 21.7415387,15.8248723 21.2871094,15.3183594 C20.83268,14.8118464 20.6054688,14.0846402 20.6054688,13.1367188 C20.6054688,12.2148391 20.869138,11.4960963 21.3964844,10.9804688 C21.9238308,10.4648412 22.6549432,10.2070312 23.5898438,10.2070312 C24.1757842,10.2070312 24.7408827,10.3242176 25.2851562,10.5585938 L24.8828125,11.5273438 C24.4661438,11.3190094 24.0325543,11.2148438 23.5820312,11.2148438 C23.0585911,11.2148438 22.6393245,11.3906232 22.3242188,11.7421875 C22.009113,12.0937518 21.8515625,12.5664033 21.8515625,13.1601562 C21.8515625,13.779951 21.9785144,14.2532536 22.2324219,14.5800781 C22.4863294,14.9069027 22.8554663,15.0703125 23.3398438,15.0703125 C23.5924492,15.0703125 23.848957,15.0442711 24.109375,14.9921875 L24.109375,13.8007812 L23.0273438,13.8007812 L23.0273438,12.7929688 Z M30.1484375,16 L29.734375,14.640625 L27.6523438,14.640625 L27.2382812,16 L25.9335938,16 L27.9492188,10.265625 L29.4296875,10.265625 L31.453125,16 L30.1484375,16 Z M29.4453125,13.625 C29.0624981,12.393223 28.8470054,11.6966154 28.7988281,11.5351562 C28.7506508,11.3736971 28.7161459,11.2460942 28.6953125,11.1523438 C28.6093746,11.4856787 28.3632833,12.3098893 27.9570312,13.625 L29.4453125,13.625 Z M33.3828125,12.8242188 L33.7734375,12.8242188 C34.1562519,12.8242188 34.4388012,12.7604173 34.6210938,12.6328125 C34.8033863,12.5052077 34.8945312,12.3046889 34.8945312,12.03125 C34.8945312,11.7604153 34.8014332,11.5677089 34.6152344,11.453125 C34.4290355,11.3385411 34.140627,11.28125 33.75,11.28125 L33.3828125,11.28125 L33.3828125,12.8242188 Z M33.3828125,13.8085938 L33.3828125,16 L32.171875,16 L32.171875,10.2890625 L33.8359375,10.2890625 C34.611983,10.2890625 35.1861961,10.4303371 35.5585938,10.7128906 C35.9309914,10.9954441 36.1171875,11.4244763 36.1171875,12 C36.1171875,12.3359392 36.0247405,12.6347643 35.8398438,12.8964844 C35.654947,13.1582044 35.3932309,13.3632805 35.0546875,13.5117188 C35.9140668,14.7955793 36.473957,15.6249981 36.734375,16 L35.390625,16 L34.0273438,13.8085938 L33.3828125,13.8085938 Z M37.453125,16 L37.453125,10.2890625 L38.6640625,10.2890625 L38.6640625,16 L37.453125,16 Z M42.3046875,16 L41.09375,16 L41.09375,11.296875 L39.5429688,11.296875 L39.5429688,10.2890625 L43.8554688,10.2890625 L43.8554688,11.296875 L42.3046875,11.296875 L42.3046875,16 Z M47.671875,16 L47.2578125,14.640625 L45.1757813,14.640625 L44.7617188,16 L43.4570313,16 L45.4726563,10.265625 L46.953125,10.265625 L48.9765625,16 L47.671875,16 Z M46.96875,13.625 C46.5859356,12.393223 46.3704429,11.6966154 46.3222656,11.5351562 C46.2740883,11.3736971 46.2395834,11.2460942 46.21875,11.1523438 C46.1328121,11.4856787 45.8867208,12.3098893 45.4804688,13.625 L46.96875,13.625 Z" id="la-garita" fill="#FFFFFF"></path>
        </g>
    </g>
</svg>