<?xml version="1.0" encoding="UTF-8"?>
<svg width="65px" height="27px" viewBox="0 0 65 27" version="1.1" xmlns="http://www.w3.org/2000/svg" xmlns:xlink="http://www.w3.org/1999/xlink">
    <!-- Generator: Sketch 48.2 (47327) - http://www.bohemiancoding.com/sketch -->
    <title>la_lucha</title>
    <desc>Created with Sketch.</desc>
    <defs>
        <path d="M17.8208049,6 C16.6655751,7.89393294 16,10.1192398 16,12.5 C16,15.3140148 16.9298621,17.9108487 18.4990845,20 L7,20 C3.13400675,20 4.73447626e-16,16.8659932 0,13 C-4.73447626e-16,9.13400675 3.13400675,6 7,6 L17.8208049,6 Z M39.1791951,6 L50,6 C53.8659932,6 57,9.13400675 57,13 C57,16.8659932 53.8659932,20 50,20 L38.5009155,20 C40.0701379,17.9108487 41,15.3140148 41,12.5 C41,10.1192398 40.3344249,7.89393294 39.1791951,6 Z" id="path-1"></path>
        <filter x="-11.4%" y="-39.3%" width="122.8%" height="192.9%" filterUnits="objectBoundingBox" id="filter-2">
            <feOffset dx="0" dy="1" in="SourceAlpha" result="shadowOffsetOuter1"></feOffset>
            <feGaussianBlur stdDeviation="2" in="shadowOffsetOuter1" result="shadowBlurOuter1"></feGaussianBlur>
            <feColorMatrix values="0 0 0 0 0   0 0 0 0 0   0 0 0 0 0  0 0 0 0.5 0" type="matrix" in="shadowBlurOuter1"></feColorMatrix>
        </filter>
    </defs>
    <g id="Volcanes-fallas" stroke="none" stroke-width="1" fill="none" fill-rule="evenodd">
        <g id="la_lucha" transform="translate(4.000000, 1.000000)">
            <g id="ic_volcano_label-copy-19">
                <g id="Group-Copy-3" transform="translate(16.000000, 0.000000)">
                    <g id="Group-26-Copy-4"></g>
                </g>
                <circle id="Oval-2-Copy-5" stroke="#FFFFFF" stroke-width="0.5" fill="#FF6D00" cx="28.5" cy="12.5" r="12.5"></circle>
                <g id="Combined-Shape">
                    <use fill="black" fill-opacity="1" filter="url(#filter-2)" xlink:href="#path-1"></use>
                    <use fill="#263238" fill-rule="evenodd" xlink:href="#path-1"></use>
                </g>
                <rect id="Rectangle-2-Copy-4" fill="#263238" x="0" y="6" width="57" height="14" rx="7"></rect>
            </g>
            <path d="M9.546875,16 L9.546875,10.2890625 L10.7578125,10.2890625 L10.7578125,15 L13.0742188,15 L13.0742188,16 L9.546875,16 Z M17.5625,16 L17.1484375,14.640625 L15.0664062,14.640625 L14.6523438,16 L13.3476562,16 L15.3632812,10.265625 L16.84375,10.265625 L18.8671875,16 L17.5625,16 Z M16.859375,13.625 C16.4765606,12.393223 16.2610679,11.6966154 16.2128906,11.5351562 C16.1647133,11.3736971 16.1302084,11.2460942 16.109375,11.1523438 C16.0234371,11.4856787 15.7773458,12.3098893 15.3710938,13.625 L16.859375,13.625 Z M21.6640625,16 L21.6640625,10.2890625 L22.875,10.2890625 L22.875,15 L25.1914062,15 L25.1914062,16 L21.6640625,16 Z M30.7539062,10.2890625 L30.7539062,13.984375 C30.7539062,14.4062521 30.6595062,14.7760401 30.4707031,15.09375 C30.2819001,15.4114599 30.0091164,15.6549471 29.6523438,15.8242188 C29.2955711,15.9934904 28.8737004,16.078125 28.3867188,16.078125 C27.6523401,16.078125 27.0820333,15.8899758 26.6757812,15.5136719 C26.2695292,15.1373679 26.0664062,14.6223991 26.0664062,13.96875 L26.0664062,10.2890625 L27.2734375,10.2890625 L27.2734375,13.7851562 C27.2734375,14.2252626 27.3619783,14.5481761 27.5390625,14.7539062 C27.7161467,14.9596364 28.0091125,15.0625 28.4179688,15.0625 C28.8138041,15.0625 29.1009106,14.9589854 29.2792969,14.7519531 C29.4576832,14.5449208 29.546875,14.2200543 29.546875,13.7773438 L29.546875,10.2890625 L30.7539062,10.2890625 Z M34.578125,11.2148438 C34.1223936,11.2148438 33.7695325,11.386066 33.5195312,11.7285156 C33.26953,12.0709653 33.1445312,12.548174 33.1445312,13.1601562 C33.1445312,14.4336001 33.6223911,15.0703125 34.578125,15.0703125 C34.9791687,15.0703125 35.4648409,14.9700531 36.0351562,14.7695312 L36.0351562,15.7851562 C35.5664039,15.9804697 35.0429716,16.078125 34.4648438,16.078125 C33.6341104,16.078125 32.9987001,15.8261744 32.5585938,15.3222656 C32.1184874,14.8183569 31.8984375,14.0950568 31.8984375,13.1523438 C31.8984375,12.5585908 32.0065093,12.0384137 32.2226562,11.5917969 C32.4388032,11.1451801 32.7493469,10.8027356 33.1542969,10.5644531 C33.5592468,10.3261707 34.0338514,10.2070312 34.578125,10.2070312 C35.1328153,10.2070312 35.6901014,10.3411445 36.25,10.609375 L35.859375,11.59375 C35.6458323,11.492187 35.4309907,11.4036462 35.2148438,11.328125 C34.9986968,11.2526038 34.7864594,11.2148438 34.578125,11.2148438 Z M41.9296875,16 L40.7226562,16 L40.7226562,13.5351562 L38.4609375,13.5351562 L38.4609375,16 L37.25,16 L37.25,10.2890625 L38.4609375,10.2890625 L38.4609375,12.5273438 L40.7226562,12.5273438 L40.7226562,10.2890625 L41.9296875,10.2890625 L41.9296875,16 Z M46.8671875,16 L46.453125,14.640625 L44.3710938,14.640625 L43.9570312,16 L42.6523438,16 L44.6679688,10.265625 L46.1484375,10.265625 L48.171875,16 L46.8671875,16 Z M46.1640625,13.625 C45.7812481,12.393223 45.5657554,11.6966154 45.5175781,11.5351562 C45.4694008,11.3736971 45.4348959,11.2460942 45.4140625,11.1523438 C45.3281246,11.4856787 45.0820333,12.3098893 44.6757812,13.625 L46.1640625,13.625 Z" id="la-lucha" fill="#FFFFFF"></path>
        </g>
    </g>
</svg>