<?xml version="1.0" encoding="UTF-8"?>
<svg width="65px" height="27px" viewBox="0 0 65 27" version="1.1" xmlns="http://www.w3.org/2000/svg" xmlns:xlink="http://www.w3.org/1999/xlink">
    <!-- Generator: Sketch 48.2 (47327) - http://www.bohemiancoding.com/sketch -->
    <title>lara</title>
    <desc>Created with Sketch.</desc>
    <defs>
        <path d="M17.8208049,6 C16.6655751,7.89393294 16,10.1192398 16,12.5 C16,15.3140148 16.9298621,17.9108487 18.4990845,20 L7,20 C3.13400675,20 4.73447626e-16,16.8659932 0,13 C-4.73447626e-16,9.13400675 3.13400675,6 7,6 L17.8208049,6 Z M39.1791951,6 L50,6 C53.8659932,6 57,9.13400675 57,13 C57,16.8659932 53.8659932,20 50,20 L38.5009155,20 C40.0701379,17.9108487 41,15.3140148 41,12.5 C41,10.1192398 40.3344249,7.89393294 39.1791951,6 Z" id="path-1"></path>
        <filter x="-11.4%" y="-39.3%" width="122.8%" height="192.9%" filterUnits="objectBoundingBox" id="filter-2">
            <feOffset dx="0" dy="1" in="SourceAlpha" result="shadowOffsetOuter1"></feOffset>
            <feGaussianBlur stdDeviation="2" in="shadowOffsetOuter1" result="shadowBlurOuter1"></feGaussianBlur>
            <feColorMatrix values="0 0 0 0 0   0 0 0 0 0   0 0 0 0 0  0 0 0 0.5 0" type="matrix" in="shadowBlurOuter1"></feColorMatrix>
        </filter>
    </defs>
    <g id="Volcanes-fallas" stroke="none" stroke-width="1" fill="none" fill-rule="evenodd">
        <g id="lara" transform="translate(4.000000, 1.000000)">
            <g id="ic_volcano_label-copy-19">
                <g id="Group-Copy-3" transform="translate(16.000000, 0.000000)">
                    <g id="Group-26-Copy-4"></g>
                </g>
                <circle id="Oval-2-Copy-5" stroke="#FFFFFF" stroke-width="0.5" fill="#FF6D00" cx="28.5" cy="12.5" r="12.5"></circle>
                <g id="Combined-Shape">
                    <use fill="black" fill-opacity="1" filter="url(#filter-2)" xlink:href="#path-1"></use>
                    <use fill="#263238" fill-rule="evenodd" xlink:href="#path-1"></use>
                </g>
                <rect id="Rectangle-2-Copy-4" fill="#263238" x="0" y="6" width="57" height="14" rx="7"></rect>
            </g>
            <path d="M18.7988281,16 L18.7988281,10.2890625 L20.0097656,10.2890625 L20.0097656,15 L22.3261719,15 L22.3261719,16 L18.7988281,16 Z M26.8144531,16 L26.4003906,14.640625 L24.3183594,14.640625 L23.9042969,16 L22.5996094,16 L24.6152344,10.265625 L26.0957031,10.265625 L28.1191406,16 L26.8144531,16 Z M26.1113281,13.625 C25.7285137,12.393223 25.5130211,11.6966154 25.4648438,11.5351562 C25.4166664,11.3736971 25.3821616,11.2460942 25.3613281,11.1523438 C25.2753902,11.4856787 25.0292989,12.3098893 24.6230469,13.625 L26.1113281,13.625 Z M30.0488281,12.8242188 L30.4394531,12.8242188 C30.8222675,12.8242188 31.1048168,12.7604173 31.2871094,12.6328125 C31.469402,12.5052077 31.5605469,12.3046889 31.5605469,12.03125 C31.5605469,11.7604153 31.4674488,11.5677089 31.28125,11.453125 C31.0950512,11.3385411 30.8066426,11.28125 30.4160156,11.28125 L30.0488281,11.28125 L30.0488281,12.8242188 Z M30.0488281,13.8085938 L30.0488281,16 L28.8378906,16 L28.8378906,10.2890625 L30.5019531,10.2890625 C31.2779987,10.2890625 31.8522117,10.4303371 32.2246094,10.7128906 C32.5970071,10.9954441 32.7832031,11.4244763 32.7832031,12 C32.7832031,12.3359392 32.6907561,12.6347643 32.5058594,12.8964844 C32.3209626,13.1582044 32.0592465,13.3632805 31.7207031,13.5117188 C32.5800824,14.7955793 33.1399727,15.6249981 33.4003906,16 L32.0566406,16 L30.6933594,13.8085938 L30.0488281,13.8085938 Z M37.6152344,16 L37.2011719,14.640625 L35.1191406,14.640625 L34.7050781,16 L33.4003906,16 L35.4160156,10.265625 L36.8964844,10.265625 L38.9199219,16 L37.6152344,16 Z M36.9121094,13.625 C36.529295,12.393223 36.3138023,11.6966154 36.265625,11.5351562 C36.2174477,11.3736971 36.1829428,11.2460942 36.1621094,11.1523438 C36.0761714,11.4856787 35.8300802,12.3098893 35.4238281,13.625 L36.9121094,13.625 Z" fill="#FFFFFF"></path>
        </g>
    </g>
</svg>