<?xml version="1.0" encoding="UTF-8"?>
<svg width="65px" height="27px" viewBox="0 0 65 27" version="1.1" xmlns="http://www.w3.org/2000/svg" xmlns:xlink="http://www.w3.org/1999/xlink">
    <!-- Generator: Sketch 48.2 (47327) - http://www.bohemiancoding.com/sketch -->
    <title>liberia</title>
    <desc>Created with Sketch.</desc>
    <defs>
        <path d="M17.8208049,6 C16.6655751,7.89393294 16,10.1192398 16,12.5 C16,15.3140148 16.9298621,17.9108487 18.4990845,20 L7,20 C3.13400675,20 4.73447626e-16,16.8659932 0,13 C-4.73447626e-16,9.13400675 3.13400675,6 7,6 L17.8208049,6 Z M39.1791951,6 L50,6 C53.8659932,6 57,9.13400675 57,13 C57,16.8659932 53.8659932,20 50,20 L38.5009155,20 C40.0701379,17.9108487 41,15.3140148 41,12.5 C41,10.1192398 40.3344249,7.89393294 39.1791951,6 Z" id="path-1"></path>
        <filter x="-11.4%" y="-39.3%" width="122.8%" height="192.9%" filterUnits="objectBoundingBox" id="filter-2">
            <feOffset dx="0" dy="1" in="SourceAlpha" result="shadowOffsetOuter1"></feOffset>
            <feGaussianBlur stdDeviation="2" in="shadowOffsetOuter1" result="shadowBlurOuter1"></feGaussianBlur>
            <feColorMatrix values="0 0 0 0 0   0 0 0 0 0   0 0 0 0 0  0 0 0 0.5 0" type="matrix" in="shadowBlurOuter1"></feColorMatrix>
        </filter>
    </defs>
    <g id="Volcanes-fallas" stroke="none" stroke-width="1" fill="none" fill-rule="evenodd">
        <g id="liberia" transform="translate(4.000000, 1.000000)">
            <g id="ic_volcano_label-copy-19">
                <g id="Group-Copy-3" transform="translate(16.000000, 0.000000)">
                    <g id="Group-26-Copy-4"></g>
                </g>
                <circle id="Oval-2-Copy-5" stroke="#FFFFFF" stroke-width="0.5" fill="#FF6D00" cx="28.5" cy="12.5" r="12.5"></circle>
                <g id="Combined-Shape">
                    <use fill="black" fill-opacity="1" filter="url(#filter-2)" xlink:href="#path-1"></use>
                    <use fill="#263238" fill-rule="evenodd" xlink:href="#path-1"></use>
                </g>
                <rect id="Rectangle-2-Copy-4" fill="#263238" x="0" y="6" width="57" height="14" rx="7"></rect>
            </g>
            <path d="M13.9824219,16 L13.9824219,10.2890625 L15.1933594,10.2890625 L15.1933594,15 L17.5097656,15 L17.5097656,16 L13.9824219,16 Z M18.5019531,16 L18.5019531,10.2890625 L19.7128906,10.2890625 L19.7128906,16 L18.5019531,16 Z M21.1503906,10.2890625 L22.9277344,10.2890625 C23.7376343,10.2890625 24.325519,10.4042957 24.6914062,10.6347656 C25.0572935,10.8652355 25.2402344,11.2317683 25.2402344,11.734375 C25.2402344,12.0755225 25.1601571,12.3554677 25,12.5742188 C24.8398429,12.7929698 24.6269545,12.9244789 24.3613281,12.96875 L24.3613281,13.0078125 C24.7233091,13.0885421 24.9843742,13.2395822 25.1445312,13.4609375 C25.3046883,13.6822928 25.3847656,13.9765607 25.3847656,14.34375 C25.3847656,14.8645859 25.1966165,15.2708319 24.8203125,15.5625 C24.4440085,15.8541681 23.9329459,16 23.2871094,16 L21.1503906,16 L21.1503906,10.2890625 Z M22.3613281,12.5507812 L23.0644531,12.5507812 C23.3925798,12.5507812 23.6302076,12.5000005 23.7773438,12.3984375 C23.9244799,12.2968745 23.9980469,12.1289074 23.9980469,11.8945312 C23.9980469,11.6757802 23.9179696,11.5188807 23.7578125,11.4238281 C23.5976554,11.3287756 23.3444028,11.28125 22.9980469,11.28125 L22.3613281,11.28125 L22.3613281,12.5507812 Z M22.3613281,13.5117188 L22.3613281,15 L23.1503906,15 C23.4837256,15 23.7298169,14.9361986 23.8886719,14.8085938 C24.0475268,14.6809889 24.1269531,14.4856784 24.1269531,14.2226562 C24.1269531,13.7486955 23.7884148,13.5117188 23.1113281,13.5117188 L22.3613281,13.5117188 Z M29.8144531,16 L26.5253906,16 L26.5253906,10.2890625 L29.8144531,10.2890625 L29.8144531,11.28125 L27.7363281,11.28125 L27.7363281,12.5351562 L29.6699219,12.5351562 L29.6699219,13.5273438 L27.7363281,13.5273438 L27.7363281,15 L29.8144531,15 L29.8144531,16 Z M32.2167969,12.8242188 L32.6074219,12.8242188 C32.9902363,12.8242188 33.2727855,12.7604173 33.4550781,12.6328125 C33.6373707,12.5052077 33.7285156,12.3046889 33.7285156,12.03125 C33.7285156,11.7604153 33.6354176,11.5677089 33.4492188,11.453125 C33.2630199,11.3385411 32.9746113,11.28125 32.5839844,11.28125 L32.2167969,11.28125 L32.2167969,12.8242188 Z M32.2167969,13.8085938 L32.2167969,16 L31.0058594,16 L31.0058594,10.2890625 L32.6699219,10.2890625 C33.4459674,10.2890625 34.0201804,10.4303371 34.3925781,10.7128906 C34.7649758,10.9954441 34.9511719,11.4244763 34.9511719,12 C34.9511719,12.3359392 34.8587249,12.6347643 34.6738281,12.8964844 C34.4889314,13.1582044 34.2272152,13.3632805 33.8886719,13.5117188 C34.7480512,14.7955793 35.3079414,15.6249981 35.5683594,16 L34.2246094,16 L32.8613281,13.8085938 L32.2167969,13.8085938 Z M36.2871094,16 L36.2871094,10.2890625 L37.4980469,10.2890625 L37.4980469,16 L36.2871094,16 Z M42.4316406,16 L42.0175781,14.640625 L39.9355469,14.640625 L39.5214844,16 L38.2167969,16 L40.2324219,10.265625 L41.7128906,10.265625 L43.7363281,16 L42.4316406,16 Z M41.7285156,13.625 C41.3457012,12.393223 41.1302086,11.6966154 41.0820312,11.5351562 C41.0338539,11.3736971 40.9993491,11.2460942 40.9785156,11.1523438 C40.8925777,11.4856787 40.6464864,12.3098893 40.2402344,13.625 L41.7285156,13.625 Z" fill="#FFFFFF"></path>
        </g>
    </g>
</svg>