<?xml version="1.0" encoding="UTF-8"?>
<svg width="88px" height="27px" viewBox="0 0 88 27" version="1.1" xmlns="http://www.w3.org/2000/svg" xmlns:xlink="http://www.w3.org/1999/xlink">
    <!-- Generator: Sketch 48.2 (47327) - http://www.bohemiancoding.com/sketch -->
    <title>limones_cañas</title>
    <desc>Created with Sketch.</desc>
    <defs>
        <path d="M30.6751405,6 C29.6123291,7.89393294 29,10.1192398 29,12.5 C29,15.3140148 29.8554731,17.9108487 31.2991578,20 L9,20 C5.13400675,20 2,16.8659932 2,13 C2,9.13400675 5.13400675,6 9,6 L30.6751405,6 Z M50.3248595,6 L72,6 C75.8659932,6 79,9.13400675 79,13 C79,16.8659932 75.8659932,20 72,20 L49.7008422,20 C51.1445269,17.9108487 52,15.3140148 52,12.5 C52,10.1192398 51.3876709,7.89393294 50.3248595,6 Z" id="path-1"></path>
        <filter x="-8.4%" y="-39.3%" width="116.9%" height="192.9%" filterUnits="objectBoundingBox" id="filter-2">
            <feOffset dx="0" dy="1" in="SourceAlpha" result="shadowOffsetOuter1"></feOffset>
            <feGaussianBlur stdDeviation="2" in="shadowOffsetOuter1" result="shadowBlurOuter1"></feGaussianBlur>
            <feColorMatrix values="0 0 0 0 0   0 0 0 0 0   0 0 0 0 0  0 0 0 0.5 0" type="matrix" in="shadowBlurOuter1"></feColorMatrix>
        </filter>
        <rect id="path-3" x="0" y="6" width="80" height="14" rx="7"></rect>
        <filter x="-8.1%" y="-39.3%" width="116.2%" height="192.9%" filterUnits="objectBoundingBox" id="filter-4">
            <feOffset dx="0" dy="1" in="SourceAlpha" result="shadowOffsetOuter1"></feOffset>
            <feGaussianBlur stdDeviation="2" in="shadowOffsetOuter1" result="shadowBlurOuter1"></feGaussianBlur>
            <feColorMatrix values="0 0 0 0 0   0 0 0 0 0   0 0 0 0 0  0 0 0 0.5 0" type="matrix" in="shadowBlurOuter1"></feColorMatrix>
        </filter>
    </defs>
    <g id="Volcanes-fallas" stroke="none" stroke-width="1" fill="none" fill-rule="evenodd">
        <g id="limones_cañas" transform="translate(4.000000, 1.000000)">
            <g id="ic_volcano_label-copy-18">
                <g id="Group-Copy-3">
                    <g id="Group-26-Copy-4" transform="translate(28.000000, 0.000000)" fill="#FF6D00" stroke="#FFFFFF" stroke-width="0.5">
                        <circle id="Oval-2-Copy-5" cx="12.5" cy="12.5" r="12.5"></circle>
                    </g>
                    <g id="Combined-Shape">
                        <use fill="black" fill-opacity="1" filter="url(#filter-2)" xlink:href="#path-1"></use>
                        <use fill="#263238" fill-rule="evenodd" xlink:href="#path-1"></use>
                    </g>
                    <g id="Rectangle-2-Copy-4">
                        <use fill="black" fill-opacity="1" filter="url(#filter-4)" xlink:href="#path-3"></use>
                        <use fill="#263238" fill-rule="evenodd" xlink:href="#path-3"></use>
                    </g>
                </g>
                <path d="M7.67382812,16 L7.67382812,10.2890625 L8.88476562,10.2890625 L8.88476562,15 L11.2011719,15 L11.2011719,16 L7.67382812,16 Z M12.1933594,16 L12.1933594,10.2890625 L13.4042969,10.2890625 L13.4042969,16 L12.1933594,16 Z M17.2597656,16 L15.8847656,11.5195312 L15.8496094,11.5195312 C15.8990888,12.4309941 15.9238281,13.039061 15.9238281,13.34375 L15.9238281,16 L14.8417969,16 L14.8417969,10.2890625 L16.4902344,10.2890625 L17.8417969,14.65625 L17.8652344,14.65625 L19.2988281,10.2890625 L20.9472656,10.2890625 L20.9472656,16 L19.8183594,16 L19.8183594,13.296875 C19.8183594,13.1692702 19.8203125,13.0221362 19.8242188,12.8554688 C19.828125,12.6888013 19.845703,12.2460973 19.8769531,11.5273438 L19.8417969,11.5273438 L18.3691406,16 L17.2597656,16 Z M27.5683594,13.1367188 C27.5683594,14.082036 27.3339867,14.8085912 26.8652344,15.3164063 C26.396482,15.8242213 25.7246137,16.078125 24.8496094,16.078125 C23.974605,16.078125 23.3027367,15.8242213 22.8339844,15.3164063 C22.365232,14.8085912 22.1308594,14.0794318 22.1308594,13.1289062 C22.1308594,12.1783807 22.3658831,11.4524765 22.8359375,10.9511719 C23.3059919,10.4498673 23.9798133,10.1992188 24.8574219,10.1992188 C25.7350304,10.1992188 26.4062477,10.4518204 26.8710938,10.9570312 C27.3359398,11.4622421 27.5683594,12.1887973 27.5683594,13.1367188 Z M23.4003906,13.1367188 C23.4003906,13.7747428 23.5214832,14.2552067 23.7636719,14.578125 C24.0058606,14.9010433 24.3678361,15.0625 24.8496094,15.0625 C25.81576,15.0625 26.2988281,14.4205793 26.2988281,13.1367188 C26.2988281,11.850254 25.8183642,11.2070312 24.8574219,11.2070312 C24.3756486,11.2070312 24.012371,11.369139 23.7675781,11.6933594 C23.5227852,12.0175797 23.4003906,12.4986947 23.4003906,13.1367188 Z M33.8183594,16 L32.2792969,16 L29.7949219,11.6796875 L29.7597656,11.6796875 C29.809245,12.4427121 29.8339844,12.9869775 29.8339844,13.3125 L29.8339844,16 L28.7519531,16 L28.7519531,10.2890625 L30.2792969,10.2890625 L32.7597656,14.5664062 L32.7871094,14.5664062 C32.7480467,13.824215 32.7285156,13.2994807 32.7285156,12.9921875 L32.7285156,10.2890625 L33.8183594,10.2890625 L33.8183594,16 Z M38.5449219,16 L35.2558594,16 L35.2558594,10.2890625 L38.5449219,10.2890625 L38.5449219,11.28125 L36.4667969,11.28125 L36.4667969,12.5351562 L38.4003906,12.5351562 L38.4003906,13.5273438 L36.4667969,13.5273438 L36.4667969,15 L38.5449219,15 L38.5449219,16 Z M43.1074219,14.4140625 C43.1074219,14.9296901 42.9218769,15.335936 42.5507812,15.6328125 C42.1796856,15.929689 41.6634148,16.078125 41.0019531,16.078125 C40.3925751,16.078125 39.853518,15.9635428 39.3847656,15.734375 L39.3847656,14.609375 C39.7701842,14.7812509 40.0963528,14.9023434 40.3632812,14.9726562 C40.6302097,15.0429691 40.8743479,15.078125 41.0957031,15.078125 C41.3613295,15.078125 41.5651035,15.0273443 41.7070312,14.9257812 C41.848959,14.8242182 41.9199219,14.6731781 41.9199219,14.4726562 C41.9199219,14.3606765 41.8886722,14.2610681 41.8261719,14.1738281 C41.7636716,14.0865881 41.6718756,14.0026046 41.5507812,13.921875 C41.4296869,13.8411454 41.1829446,13.7122405 40.8105469,13.5351562 C40.4615868,13.3710929 40.1998707,13.2135424 40.0253906,13.0625 C39.8509106,12.9114576 39.7115891,12.7356781 39.6074219,12.5351562 C39.5032547,12.3346344 39.4511719,12.1002618 39.4511719,11.8320312 C39.4511719,11.3268204 39.6223941,10.9296889 39.9648438,10.640625 C40.3072934,10.3515611 40.7805959,10.2070312 41.3847656,10.2070312 C41.6816421,10.2070312 41.9648424,10.2421871 42.234375,10.3125 C42.5039076,10.3828129 42.7858058,10.4817702 43.0800781,10.609375 L42.6894531,11.5507812 C42.3847641,11.4257806 42.1328135,11.3385419 41.9335938,11.2890625 C41.734374,11.2395831 41.5384124,11.2148438 41.3457031,11.2148438 C41.1165353,11.2148438 40.9407558,11.2682286 40.8183594,11.375 C40.6959629,11.4817714 40.6347656,11.6210929 40.6347656,11.7929688 C40.6347656,11.8997401 40.659505,11.9928381 40.7089844,12.0722656 C40.7584638,12.1516931 40.837239,12.2285153 40.9453125,12.3027344 C41.053386,12.3769535 41.3092428,12.5104157 41.7128906,12.703125 C42.2467475,12.9583346 42.6126292,13.2141914 42.8105469,13.4707031 C43.0084645,13.7272148 43.1074219,14.0416648 43.1074219,14.4140625 Z M43.6621094,14.34375 L43.6621094,13.3671875 L45.7597656,13.3671875 L45.7597656,14.34375 L43.6621094,14.34375 Z M49.1425781,11.2148438 C48.6868467,11.2148438 48.3339856,11.386066 48.0839844,11.7285156 C47.8339831,12.0709653 47.7089844,12.548174 47.7089844,13.1601562 C47.7089844,14.4336001 48.1868442,15.0703125 49.1425781,15.0703125 C49.5436218,15.0703125 50.029294,14.9700531 50.5996094,14.7695312 L50.5996094,15.7851562 C50.130857,15.9804697 49.6074248,16.078125 49.0292969,16.078125 C48.1985636,16.078125 47.5631532,15.8261744 47.1230469,15.3222656 C46.6829405,14.8183569 46.4628906,14.0950568 46.4628906,13.1523438 C46.4628906,12.5585908 46.5709625,12.0384137 46.7871094,11.5917969 C47.0032563,11.1451801 47.3138001,10.8027356 47.71875,10.5644531 C48.1236999,10.3261707 48.5983046,10.2070312 49.1425781,10.2070312 C49.6972684,10.2070312 50.2545545,10.3411445 50.8144531,10.609375 L50.4238281,11.59375 C50.2102854,11.492187 49.9954438,11.4036462 49.7792969,11.328125 C49.56315,11.2526038 49.3509125,11.2148438 49.1425781,11.2148438 Z M55.3105469,16 L54.8964844,14.640625 L52.8144531,14.640625 L52.4003906,16 L51.0957031,16 L53.1113281,10.265625 L54.5917969,10.265625 L56.6152344,16 L55.3105469,16 Z M54.6074219,13.625 C54.2246075,12.393223 54.0091148,11.6966154 53.9609375,11.5351562 C53.9127602,11.3736971 53.8782553,11.2460942 53.8574219,11.1523438 C53.7714839,11.4856787 53.5253927,12.3098893 53.1191406,13.625 L54.6074219,13.625 Z M62.4003906,16 L60.8613281,16 L58.3769531,11.6796875 L58.3417969,11.6796875 C58.3912763,12.4427121 58.4160156,12.9869775 58.4160156,13.3125 L58.4160156,16 L57.3339844,16 L57.3339844,10.2890625 L58.8613281,10.2890625 L61.3417969,14.5664062 L61.3691406,14.5664062 C61.3300779,13.824215 61.3105469,13.2994807 61.3105469,12.9921875 L61.3105469,10.2890625 L62.4003906,10.2890625 L62.4003906,16 Z M59.2246094,9.421875 C59.1438798,9.421875 59.0664066,9.45637986 58.9921875,9.52539062 C58.9179684,9.59440139 58.8639325,9.69921805 58.8300781,9.83984375 L58.2480469,9.83984375 C58.2766929,9.4622377 58.3841137,9.16666773 58.5703125,8.953125 C58.7565113,8.73958227 59.0032537,8.6328125 59.3105469,8.6328125 C59.4173182,8.6328125 59.5221349,8.65429666 59.625,8.69726562 C59.7278651,8.74023459 59.8294266,8.78710912 59.9296875,8.83789062 C60.0299484,8.88867213 60.1282547,8.93489563 60.2246094,8.9765625 C60.320964,9.01822938 60.4160152,9.0390625 60.5097656,9.0390625 C60.5904952,9.0390625 60.6679684,9.00520867 60.7421875,8.9375 C60.8164066,8.86979133 60.8704425,8.7656257 60.9042969,8.625 L61.4863281,8.625 C61.4576821,9.00260605 61.3489593,9.29817602 61.1601562,9.51171875 C60.9713532,9.72526148 60.725913,9.83203125 60.4238281,9.83203125 C60.3170568,9.83203125 60.2122401,9.81054709 60.109375,9.76757812 C60.0065099,9.72460916 59.9049484,9.67773463 59.8046875,9.62695312 C59.7044266,9.57617162 59.6061203,9.52929709 59.5097656,9.48632812 C59.413411,9.44335916 59.3183598,9.421875 59.2246094,9.421875 Z M67.3339844,16 L66.9199219,14.640625 L64.8378906,14.640625 L64.4238281,16 L63.1191406,16 L65.1347656,10.265625 L66.6152344,10.265625 L68.6386719,16 L67.3339844,16 Z M66.6308594,13.625 C66.248045,12.393223 66.0325523,11.6966154 65.984375,11.5351562 C65.9361977,11.3736971 65.9016928,11.2460942 65.8808594,11.1523438 C65.7949214,11.4856787 65.5488302,12.3098893 65.1425781,13.625 L66.6308594,13.625 Z M72.7285156,14.4140625 C72.7285156,14.9296901 72.5429706,15.335936 72.171875,15.6328125 C71.8007794,15.929689 71.2845085,16.078125 70.6230469,16.078125 C70.0136688,16.078125 69.4746117,15.9635428 69.0058594,15.734375 L69.0058594,14.609375 C69.391278,14.7812509 69.7174466,14.9023434 69.984375,14.9726562 C70.2513034,15.0429691 70.4954416,15.078125 70.7167969,15.078125 C70.9824232,15.078125 71.1861972,15.0273443 71.328125,14.9257812 C71.4700528,14.8242182 71.5410156,14.6731781 71.5410156,14.4726562 C71.5410156,14.3606765 71.5097659,14.2610681 71.4472656,14.1738281 C71.3847653,14.0865881 71.2929694,14.0026046 71.171875,13.921875 C71.0507806,13.8411454 70.8040383,13.7122405 70.4316406,13.5351562 C70.0826805,13.3710929 69.8209644,13.2135424 69.6464844,13.0625 C69.4720043,12.9114576 69.3326828,12.7356781 69.2285156,12.5351562 C69.1243484,12.3346344 69.0722656,12.1002618 69.0722656,11.8320312 C69.0722656,11.3268204 69.2434879,10.9296889 69.5859375,10.640625 C69.9283871,10.3515611 70.4016897,10.2070312 71.0058594,10.2070312 C71.3027359,10.2070312 71.5859362,10.2421871 71.8554688,10.3125 C72.1250013,10.3828129 72.4068996,10.4817702 72.7011719,10.609375 L72.3105469,11.5507812 C72.0058579,11.4257806 71.7539072,11.3385419 71.5546875,11.2890625 C71.3554678,11.2395831 71.1595062,11.2148438 70.9667969,11.2148438 C70.7376291,11.2148438 70.5618496,11.2682286 70.4394531,11.375 C70.3170567,11.4817714 70.2558594,11.6210929 70.2558594,11.7929688 C70.2558594,11.8997401 70.2805987,11.9928381 70.3300781,12.0722656 C70.3795575,12.1516931 70.4583328,12.2285153 70.5664062,12.3027344 C70.6744797,12.3769535 70.9303365,12.5104157 71.3339844,12.703125 C71.8678412,12.9583346 72.233723,13.2141914 72.4316406,13.4707031 C72.6295583,13.7272148 72.7285156,14.0416648 72.7285156,14.4140625 Z" id="limones-cañas" fill="#FFFFFF"></path>
            </g>
        </g>
    </g>
</svg>