<?xml version="1.0" encoding="UTF-8"?>
<svg width="88px" height="27px" viewBox="0 0 88 27" version="1.1" xmlns="http://www.w3.org/2000/svg" xmlns:xlink="http://www.w3.org/1999/xlink">
    <!-- Generator: Sketch 48.2 (47327) - http://www.bohemiancoding.com/sketch -->
    <title>longitudinal</title>
    <desc>Created with Sketch.</desc>
    <defs>
        <path d="M30.6751405,6 C29.6123291,7.89393294 29,10.1192398 29,12.5 C29,15.3140148 29.8554731,17.9108487 31.2991578,20 L9,20 C5.13400675,20 2,16.8659932 2,13 C2,9.13400675 5.13400675,6 9,6 L30.6751405,6 Z M50.3248595,6 L72,6 C75.8659932,6 79,9.13400675 79,13 C79,16.8659932 75.8659932,20 72,20 L49.7008422,20 C51.1445269,17.9108487 52,15.3140148 52,12.5 C52,10.1192398 51.3876709,7.89393294 50.3248595,6 Z" id="path-1"></path>
        <filter x="-8.4%" y="-39.3%" width="116.9%" height="192.9%" filterUnits="objectBoundingBox" id="filter-2">
            <feOffset dx="0" dy="1" in="SourceAlpha" result="shadowOffsetOuter1"></feOffset>
            <feGaussianBlur stdDeviation="2" in="shadowOffsetOuter1" result="shadowBlurOuter1"></feGaussianBlur>
            <feColorMatrix values="0 0 0 0 0   0 0 0 0 0   0 0 0 0 0  0 0 0 0.5 0" type="matrix" in="shadowBlurOuter1"></feColorMatrix>
        </filter>
        <rect id="path-3" x="0" y="6" width="80" height="14" rx="7"></rect>
        <filter x="-8.1%" y="-39.3%" width="116.2%" height="192.9%" filterUnits="objectBoundingBox" id="filter-4">
            <feOffset dx="0" dy="1" in="SourceAlpha" result="shadowOffsetOuter1"></feOffset>
            <feGaussianBlur stdDeviation="2" in="shadowOffsetOuter1" result="shadowBlurOuter1"></feGaussianBlur>
            <feColorMatrix values="0 0 0 0 0   0 0 0 0 0   0 0 0 0 0  0 0 0 0.5 0" type="matrix" in="shadowBlurOuter1"></feColorMatrix>
        </filter>
    </defs>
    <g id="Volcanes-fallas" stroke="none" stroke-width="1" fill="none" fill-rule="evenodd">
        <g id="longitudinal" transform="translate(4.000000, 1.000000)">
            <g id="ic_volcano_label-copy-18">
                <g id="Group-Copy-3">
                    <g id="Group-26-Copy-4" transform="translate(28.000000, 0.000000)" fill="#FF6D00" stroke="#FFFFFF" stroke-width="0.5">
                        <circle id="Oval-2-Copy-5" cx="12.5" cy="12.5" r="12.5"></circle>
                    </g>
                    <g id="Combined-Shape">
                        <use fill="black" fill-opacity="1" filter="url(#filter-2)" xlink:href="#path-1"></use>
                        <use fill="#263238" fill-rule="evenodd" xlink:href="#path-1"></use>
                    </g>
                    <g id="Rectangle-2-Copy-4">
                        <use fill="black" fill-opacity="1" filter="url(#filter-4)" xlink:href="#path-3"></use>
                        <use fill="#263238" fill-rule="evenodd" xlink:href="#path-3"></use>
                    </g>
                </g>
                <path d="M9.98632812,16 L9.98632812,10.2890625 L11.1972656,10.2890625 L11.1972656,15 L13.5136719,15 L13.5136719,16 L9.98632812,16 Z M19.5292969,13.1367188 C19.5292969,14.082036 19.2949242,14.8085912 18.8261719,15.3164062 C18.3574195,15.8242213 17.6855512,16.078125 16.8105469,16.078125 C15.9355425,16.078125 15.2636742,15.8242213 14.7949219,15.3164062 C14.3261695,14.8085912 14.0917969,14.0794318 14.0917969,13.1289062 C14.0917969,12.1783807 14.3268206,11.4524765 14.796875,10.9511719 C15.2669294,10.4498673 15.9407508,10.1992188 16.8183594,10.1992188 C17.6959679,10.1992188 18.3671852,10.4518204 18.8320312,10.9570312 C19.2968773,11.4622421 19.5292969,12.1887973 19.5292969,13.1367188 Z M15.3613281,13.1367188 C15.3613281,13.7747428 15.4824207,14.2552067 15.7246094,14.578125 C15.9667981,14.9010433 16.3287736,15.0625 16.8105469,15.0625 C17.7766975,15.0625 18.2597656,14.4205793 18.2597656,13.1367188 C18.2597656,11.850254 17.7793017,11.2070312 16.8183594,11.2070312 C16.3365861,11.2070312 15.9733085,11.369139 15.7285156,11.6933594 C15.4837227,12.0175797 15.3613281,12.4986947 15.3613281,13.1367188 Z M25.7792969,16 L24.2402344,16 L21.7558594,11.6796875 L21.7207031,11.6796875 C21.7701825,12.4427121 21.7949219,12.9869775 21.7949219,13.3125 L21.7949219,16 L20.7128906,16 L20.7128906,10.2890625 L22.2402344,10.2890625 L24.7207031,14.5664062 L24.7480469,14.5664062 C24.7089842,13.824215 24.6894531,13.2994807 24.6894531,12.9921875 L24.6894531,10.2890625 L25.7792969,10.2890625 L25.7792969,16 Z M29.3847656,12.7929688 L31.6503906,12.7929688 L31.6503906,15.7539062 C31.2832013,15.8736985 30.9375016,15.9576821 30.6132812,16.0058594 C30.2890609,16.0540367 29.957684,16.078125 29.6191406,16.078125 C28.7571571,16.078125 28.0989606,15.8248723 27.6445312,15.3183594 C27.1901019,14.8118464 26.9628906,14.0846402 26.9628906,13.1367188 C26.9628906,12.2148391 27.2265599,11.4960963 27.7539062,10.9804688 C28.2812526,10.4648412 29.0123651,10.2070312 29.9472656,10.2070312 C30.5332061,10.2070312 31.0983046,10.3242176 31.6425781,10.5585938 L31.2402344,11.5273438 C30.8235656,11.3190094 30.3899762,11.2148438 29.9394531,11.2148438 C29.416013,11.2148438 28.9967464,11.3906232 28.6816406,11.7421875 C28.3665349,12.0937518 28.2089844,12.5664033 28.2089844,13.1601562 C28.2089844,13.779951 28.3359362,14.2532536 28.5898438,14.5800781 C28.8437513,14.9069027 29.2128882,15.0703125 29.6972656,15.0703125 C29.9498711,15.0703125 30.2063789,15.0442711 30.4667969,14.9921875 L30.4667969,13.8007812 L29.3847656,13.8007812 L29.3847656,12.7929688 Z M33.0097656,16 L33.0097656,10.2890625 L34.2207031,10.2890625 L34.2207031,16 L33.0097656,16 Z M37.8613281,16 L36.6503906,16 L36.6503906,11.296875 L35.0996094,11.296875 L35.0996094,10.2890625 L39.4121094,10.2890625 L39.4121094,11.296875 L37.8613281,11.296875 L37.8613281,16 Z M44.9394531,10.2890625 L44.9394531,13.984375 C44.9394531,14.4062521 44.845053,14.7760401 44.65625,15.09375 C44.467447,15.4114599 44.1946632,15.6549471 43.8378906,15.8242188 C43.481118,15.9934904 43.0592472,16.078125 42.5722656,16.078125 C41.837887,16.078125 41.2675802,15.8899758 40.8613281,15.5136719 C40.4550761,15.1373679 40.2519531,14.6223991 40.2519531,13.96875 L40.2519531,10.2890625 L41.4589844,10.2890625 L41.4589844,13.7851562 C41.4589844,14.2252626 41.5475252,14.5481761 41.7246094,14.7539062 C41.9016936,14.9596364 42.1946594,15.0625 42.6035156,15.0625 C42.9993509,15.0625 43.2864574,14.9589854 43.4648437,14.7519531 C43.6432301,14.5449208 43.7324219,14.2200543 43.7324219,13.7773438 L43.7324219,10.2890625 L44.9394531,10.2890625 Z M51.0761719,13.0898438 C51.0761719,14.0299526 50.8085964,14.7499975 50.2734375,15.25 C49.7382786,15.7500025 48.9654998,16 47.9550781,16 L46.3378906,16 L46.3378906,10.2890625 L48.1308594,10.2890625 C49.0631557,10.2890625 49.7871068,10.5351538 50.3027344,11.0273438 C50.818362,11.5195337 51.0761719,12.2070268 51.0761719,13.0898438 Z M49.8183594,13.1210938 C49.8183594,11.8945251 49.2766981,11.28125 48.1933594,11.28125 L47.5488281,11.28125 L47.5488281,15 L48.0683594,15 C49.2350319,15 49.8183594,14.3737042 49.8183594,13.1210938 Z M52.2597656,16 L52.2597656,10.2890625 L53.4707031,10.2890625 L53.4707031,16 L52.2597656,16 Z M59.9746094,16 L58.4355469,16 L55.9511719,11.6796875 L55.9160156,11.6796875 C55.965495,12.4427121 55.9902344,12.9869775 55.9902344,13.3125 L55.9902344,16 L54.9082031,16 L54.9082031,10.2890625 L56.4355469,10.2890625 L58.9160156,14.5664062 L58.9433594,14.5664062 C58.9042967,13.824215 58.8847656,13.2994807 58.8847656,12.9921875 L58.8847656,10.2890625 L59.9746094,10.2890625 L59.9746094,16 Z M64.9082031,16 L64.4941406,14.640625 L62.4121094,14.640625 L61.9980469,16 L60.6933594,16 L62.7089844,10.265625 L64.1894531,10.265625 L66.2128906,16 L64.9082031,16 Z M64.2050781,13.625 C63.8222637,12.393223 63.6067711,11.6966154 63.5585938,11.5351562 C63.5104164,11.3736971 63.4759116,11.2460942 63.4550781,11.1523438 C63.3691402,11.4856787 63.1230489,12.3098893 62.7167969,13.625 L64.2050781,13.625 Z M66.9316406,16 L66.9316406,10.2890625 L68.1425781,10.2890625 L68.1425781,15 L70.4589844,15 L70.4589844,16 L66.9316406,16 Z" id="longitudinal" fill="#FFFFFF"></path>
            </g>
        </g>
    </g>
</svg>