<?xml version="1.0" encoding="UTF-8"?>
<svg width="118px" height="27px" viewBox="0 0 118 27" version="1.1" xmlns="http://www.w3.org/2000/svg" xmlns:xlink="http://www.w3.org/1999/xlink">
    <!-- Generator: Sketch 48.2 (47327) - http://www.bohemiancoding.com/sketch -->
    <title>macho_caño</title>
    <desc>Created with Sketch.</desc>
    <defs>
        <path d="M42.9664693,6 C41.7188212,7.89393294 41,10.1192398 41,12.5 C41,15.3140148 42.004251,17.9108487 43.6990113,20 L9,20 C5.13400675,20 2,16.8659932 2,13 C2,9.13400675 5.13400675,6 9,6 L42.9664693,6 Z M66.0335307,6 L103,6 C106.865993,6 110,9.13400675 110,13 C110,16.8659932 106.865993,20 103,20 L65.3009887,20 C66.995749,17.9108487 68,15.3140148 68,12.5 C68,10.1192398 67.2811788,7.89393294 66.0335307,6 Z" id="path-1"></path>
        <filter x="-6.0%" y="-39.3%" width="112.0%" height="192.9%" filterUnits="objectBoundingBox" id="filter-2">
            <feOffset dx="0" dy="1" in="SourceAlpha" result="shadowOffsetOuter1"></feOffset>
            <feGaussianBlur stdDeviation="2" in="shadowOffsetOuter1" result="shadowBlurOuter1"></feGaussianBlur>
            <feColorMatrix values="0 0 0 0 0   0 0 0 0 0   0 0 0 0 0  0 0 0 0.5 0" type="matrix" in="shadowBlurOuter1"></feColorMatrix>
        </filter>
        <rect id="path-3" x="0" y="6" width="110" height="14" rx="7"></rect>
        <filter x="-5.9%" y="-39.3%" width="111.8%" height="192.9%" filterUnits="objectBoundingBox" id="filter-4">
            <feOffset dx="0" dy="1" in="SourceAlpha" result="shadowOffsetOuter1"></feOffset>
            <feGaussianBlur stdDeviation="2" in="shadowOffsetOuter1" result="shadowBlurOuter1"></feGaussianBlur>
            <feColorMatrix values="0 0 0 0 0   0 0 0 0 0   0 0 0 0 0  0 0 0 0.5 0" type="matrix" in="shadowBlurOuter1"></feColorMatrix>
        </filter>
    </defs>
    <g id="Volcanes-fallas" stroke="none" stroke-width="1" fill="none" fill-rule="evenodd">
        <g id="macho_caño" transform="translate(4.000000, 1.000000)">
            <g id="ic_volcano_label-copy-18">
                <g id="Group-Copy-3">
                    <g id="Group-26-Copy-4" transform="translate(43.000000, 0.000000)" fill="#FF6D00" stroke="#FFFFFF" stroke-width="0.5">
                        <circle id="Oval-2-Copy-5" cx="12.5" cy="12.5" r="12.5"></circle>
                    </g>
                    <g id="Combined-Shape">
                        <use fill="black" fill-opacity="1" filter="url(#filter-2)" xlink:href="#path-1"></use>
                        <use fill="#263238" fill-rule="evenodd" xlink:href="#path-1"></use>
                    </g>
                    <g id="Rectangle-2-Copy-4">
                        <use fill="black" fill-opacity="1" filter="url(#filter-4)" xlink:href="#path-3"></use>
                        <use fill="#263238" fill-rule="evenodd" xlink:href="#path-3"></use>
                    </g>
                </g>
                <path d="M14.609375,16 L13.234375,11.5195312 L13.1992188,11.5195312 C13.2486982,12.4309941 13.2734375,13.039061 13.2734375,13.34375 L13.2734375,16 L12.1914062,16 L12.1914062,10.2890625 L13.8398438,10.2890625 L15.1914062,14.65625 L15.2148438,14.65625 L16.6484375,10.2890625 L18.296875,10.2890625 L18.296875,16 L17.1679688,16 L17.1679688,13.296875 C17.1679688,13.1692702 17.1699219,13.0221362 17.1738281,12.8554688 C17.1777344,12.6888013 17.1953123,12.2460973 17.2265625,11.5273438 L17.1914062,11.5273438 L15.71875,16 L14.609375,16 Z M23.2304688,16 L22.8164062,14.640625 L20.734375,14.640625 L20.3203125,16 L19.015625,16 L21.03125,10.265625 L22.5117188,10.265625 L24.5351562,16 L23.2304688,16 Z M22.5273438,13.625 C22.1445293,12.393223 21.9290367,11.6966154 21.8808594,11.5351562 C21.8326821,11.3736971 21.7981772,11.2460942 21.7773438,11.1523438 C21.6914058,11.4856787 21.4453145,12.3098893 21.0390625,13.625 L22.5273438,13.625 Z M27.5195312,11.2148438 C27.0637998,11.2148438 26.7109388,11.386066 26.4609375,11.7285156 C26.2109362,12.0709653 26.0859375,12.548174 26.0859375,13.1601562 C26.0859375,14.4336001 26.5637973,15.0703125 27.5195312,15.0703125 C27.9205749,15.0703125 28.4062471,14.9700531 28.9765625,14.7695312 L28.9765625,15.7851562 C28.5078102,15.9804697 27.9843779,16.078125 27.40625,16.078125 C26.5755167,16.078125 25.9401064,15.8261744 25.5,15.3222656 C25.0598936,14.8183569 24.8398438,14.0950568 24.8398438,13.1523438 C24.8398438,12.5585908 24.9479156,12.0384137 25.1640625,11.5917969 C25.3802094,11.1451801 25.6907532,10.8027356 26.0957031,10.5644531 C26.5006531,10.3261707 26.9752577,10.2070312 27.5195312,10.2070312 C28.0742215,10.2070312 28.6315076,10.3411445 29.1914062,10.609375 L28.8007812,11.59375 C28.5872385,11.492187 28.3723969,11.4036462 28.15625,11.328125 C27.9401031,11.2526038 27.7278656,11.2148438 27.5195312,11.2148438 Z M34.8710938,16 L33.6640625,16 L33.6640625,13.5351562 L31.4023438,13.5351562 L31.4023438,16 L30.1914062,16 L30.1914062,10.2890625 L31.4023438,10.2890625 L31.4023438,12.5273438 L33.6640625,12.5273438 L33.6640625,10.2890625 L34.8710938,10.2890625 L34.8710938,16 Z M41.4960938,13.1367188 C41.4960938,14.082036 41.2617211,14.8085912 40.7929688,15.3164063 C40.3242164,15.8242213 39.6523481,16.078125 38.7773438,16.078125 C37.9023394,16.078125 37.2304711,15.8242213 36.7617188,15.3164063 C36.2929664,14.8085912 36.0585938,14.0794318 36.0585938,13.1289062 C36.0585938,12.1783807 36.2936174,11.4524765 36.7636719,10.9511719 C37.2337263,10.4498673 37.9075477,10.1992188 38.7851562,10.1992188 C39.6627648,10.1992188 40.3339821,10.4518204 40.7988281,10.9570312 C41.2636742,11.4622421 41.4960938,12.1887973 41.4960938,13.1367188 Z M37.328125,13.1367188 C37.328125,13.7747428 37.4492175,14.2552067 37.6914062,14.578125 C37.933595,14.9010433 38.2955705,15.0625 38.7773438,15.0625 C39.7434944,15.0625 40.2265625,14.4205793 40.2265625,13.1367188 C40.2265625,11.850254 39.7460986,11.2070312 38.7851562,11.2070312 C38.303383,11.2070312 37.9401054,11.369139 37.6953125,11.6933594 C37.4505196,12.0175797 37.328125,12.4986947 37.328125,13.1367188 Z M42.1992188,14.34375 L42.1992188,13.3671875 L44.296875,13.3671875 L44.296875,14.34375 L42.1992188,14.34375 Z M47.6796875,11.2148438 C47.2239561,11.2148438 46.871095,11.386066 46.6210938,11.7285156 C46.3710925,12.0709653 46.2460938,12.548174 46.2460938,13.1601562 C46.2460938,14.4336001 46.7239536,15.0703125 47.6796875,15.0703125 C48.0807312,15.0703125 48.5664034,14.9700531 49.1367188,14.7695312 L49.1367188,15.7851562 C48.6679664,15.9804697 48.1445341,16.078125 47.5664062,16.078125 C46.7356729,16.078125 46.1002626,15.8261744 45.6601562,15.3222656 C45.2200499,14.8183569 45,14.0950568 45,13.1523438 C45,12.5585908 45.1080718,12.0384137 45.3242188,11.5917969 C45.5403657,11.1451801 45.8509094,10.8027356 46.2558594,10.5644531 C46.6608093,10.3261707 47.1354139,10.2070312 47.6796875,10.2070312 C48.2343778,10.2070312 48.7916639,10.3411445 49.3515625,10.609375 L48.9609375,11.59375 C48.7473948,11.492187 48.5325532,11.4036462 48.3164062,11.328125 C48.1002593,11.2526038 47.8880219,11.2148438 47.6796875,11.2148438 Z M53.8476562,16 L53.4335938,14.640625 L51.3515625,14.640625 L50.9375,16 L49.6328125,16 L51.6484375,10.265625 L53.1289062,10.265625 L55.1523438,16 L53.8476562,16 Z M53.1445312,13.625 C52.7617168,12.393223 52.5462242,11.6966154 52.4980469,11.5351562 C52.4498696,11.3736971 52.4153647,11.2460942 52.3945312,11.1523438 C52.3085933,11.4856787 52.062502,12.3098893 51.65625,13.625 L53.1445312,13.625 Z M60.9375,16 L59.3984375,16 L56.9140625,11.6796875 L56.8789062,11.6796875 C56.9283857,12.4427121 56.953125,12.9869775 56.953125,13.3125 L56.953125,16 L55.8710938,16 L55.8710938,10.2890625 L57.3984375,10.2890625 L59.8789062,14.5664062 L59.90625,14.5664062 C59.8671873,13.824215 59.8476562,13.2994807 59.8476562,12.9921875 L59.8476562,10.2890625 L60.9375,10.2890625 L60.9375,16 Z M57.7617187,9.421875 C57.6809892,9.421875 57.603516,9.45637986 57.5292969,9.52539062 C57.4550778,9.59440139 57.4010418,9.69921805 57.3671875,9.83984375 L56.7851562,9.83984375 C56.8138022,9.4622377 56.921223,9.16666773 57.1074219,8.953125 C57.2936207,8.73958227 57.540363,8.6328125 57.8476562,8.6328125 C57.9544276,8.6328125 58.0592443,8.65429666 58.1621094,8.69726562 C58.2649745,8.74023459 58.366536,8.78710912 58.4667969,8.83789062 C58.5670578,8.88867213 58.6653641,8.93489563 58.7617187,8.9765625 C58.8580734,9.01822938 58.9531245,9.0390625 59.046875,9.0390625 C59.1276046,9.0390625 59.2050778,9.00520867 59.2792969,8.9375 C59.353516,8.86979133 59.4075519,8.7656257 59.4414062,8.625 L60.0234375,8.625 C59.9947915,9.00260605 59.8860687,9.29817602 59.6972656,9.51171875 C59.5084626,9.72526148 59.2630223,9.83203125 58.9609375,9.83203125 C58.8541661,9.83203125 58.7493495,9.81054709 58.6464844,9.76757812 C58.5436193,9.72460916 58.4420578,9.67773463 58.3417969,9.62695312 C58.241536,9.57617162 58.1432296,9.52929709 58.046875,9.48632812 C57.9505204,9.44335916 57.8554692,9.421875 57.7617187,9.421875 Z M67.5585938,13.1367188 C67.5585938,14.082036 67.3242211,14.8085912 66.8554688,15.3164063 C66.3867164,15.8242213 65.7148481,16.078125 64.8398438,16.078125 C63.9648394,16.078125 63.2929711,15.8242213 62.8242188,15.3164063 C62.3554664,14.8085912 62.1210938,14.0794318 62.1210938,13.1289062 C62.1210938,12.1783807 62.3561174,11.4524765 62.8261719,10.9511719 C63.2962263,10.4498673 63.9700477,10.1992188 64.8476562,10.1992188 C65.7252648,10.1992188 66.3964821,10.4518204 66.8613281,10.9570312 C67.3261742,11.4622421 67.5585938,12.1887973 67.5585938,13.1367188 Z M63.390625,13.1367188 C63.390625,13.7747428 63.5117175,14.2552067 63.7539062,14.578125 C63.996095,14.9010433 64.3580705,15.0625 64.8398438,15.0625 C65.8059944,15.0625 66.2890625,14.4205793 66.2890625,13.1367188 C66.2890625,11.850254 65.8085986,11.2070312 64.8476562,11.2070312 C64.365883,11.2070312 64.0026054,11.369139 63.7578125,11.6933594 C63.5130196,12.0175797 63.390625,12.4986947 63.390625,13.1367188 Z M75.8867188,16 L74.3476562,16 L71.8632812,11.6796875 L71.828125,11.6796875 C71.8776044,12.4427121 71.9023438,12.9869775 71.9023438,13.3125 L71.9023438,16 L70.8203125,16 L70.8203125,10.2890625 L72.3476562,10.2890625 L74.828125,14.5664062 L74.8554688,14.5664062 C74.8164061,13.824215 74.796875,13.2994807 74.796875,12.9921875 L74.796875,10.2890625 L75.8867188,10.2890625 L75.8867188,16 Z M80.6132812,16 L77.3242188,16 L77.3242188,10.2890625 L80.6132812,10.2890625 L80.6132812,11.28125 L78.5351562,11.28125 L78.5351562,12.5351562 L80.46875,12.5351562 L80.46875,13.5273438 L78.5351562,13.5273438 L78.5351562,15 L80.6132812,15 L80.6132812,16 Z M83.9726562,12.7929688 L86.2382812,12.7929688 L86.2382812,15.7539062 C85.8710919,15.8736985 85.5253922,15.9576821 85.2011719,16.0058594 C84.8769515,16.0540367 84.5455746,16.078125 84.2070312,16.078125 C83.3450478,16.078125 82.6868512,15.8248723 82.2324219,15.3183594 C81.7779925,14.8118464 81.5507812,14.0846402 81.5507812,13.1367188 C81.5507812,12.2148391 81.8144505,11.4960963 82.3417969,10.9804688 C82.8691433,10.4648412 83.6002557,10.2070312 84.5351562,10.2070312 C85.1210967,10.2070312 85.6861952,10.3242176 86.2304688,10.5585938 L85.828125,11.5273438 C85.4114563,11.3190094 84.9778668,11.2148438 84.5273438,11.2148438 C84.0039036,11.2148438 83.584637,11.3906232 83.2695312,11.7421875 C82.9544255,12.0937518 82.796875,12.5664033 82.796875,13.1601562 C82.796875,13.779951 82.9238269,14.2532536 83.1777344,14.5800781 C83.4316419,14.9069027 83.8007788,15.0703125 84.2851562,15.0703125 C84.5377617,15.0703125 84.7942695,15.0442711 85.0546875,14.9921875 L85.0546875,13.8007812 L83.9726562,13.8007812 L83.9726562,12.7929688 Z M88.8085937,12.8242188 L89.1992187,12.8242188 C89.5820332,12.8242188 89.8645824,12.7604173 90.046875,12.6328125 C90.2291676,12.5052077 90.3203125,12.3046889 90.3203125,12.03125 C90.3203125,11.7604153 90.2272145,11.5677089 90.0410156,11.453125 C89.8548168,11.3385411 89.5664082,11.28125 89.1757812,11.28125 L88.8085937,11.28125 L88.8085937,12.8242188 Z M88.8085938,13.8085938 L88.8085938,16 L87.5976562,16 L87.5976562,10.2890625 L89.2617188,10.2890625 C90.0377643,10.2890625 90.6119773,10.4303371 90.984375,10.7128906 C91.3567727,10.9954441 91.5429688,11.4244763 91.5429688,12 C91.5429688,12.3359392 91.4505218,12.6347643 91.265625,12.8964844 C91.0807282,13.1582044 90.8190121,13.3632805 90.4804688,13.5117188 C91.339848,14.7955793 91.8997383,15.6249981 92.1601562,16 L90.8164062,16 L89.453125,13.8085938 L88.8085938,13.8085938 Z M98.0625,13.1367188 C98.0625,14.082036 97.8281273,14.8085912 97.359375,15.3164063 C96.8906227,15.8242213 96.2187544,16.078125 95.34375,16.078125 C94.4687456,16.078125 93.7968773,15.8242213 93.328125,15.3164063 C92.8593727,14.8085912 92.625,14.0794318 92.625,13.1289062 C92.625,12.1783807 92.8600237,11.4524765 93.3300781,10.9511719 C93.8001326,10.4498673 94.4739539,10.1992188 95.3515625,10.1992188 C96.2291711,10.1992188 96.9003883,10.4518204 97.3652344,10.9570312 C97.8300804,11.4622421 98.0625,12.1887973 98.0625,13.1367188 Z M93.8945312,13.1367188 C93.8945312,13.7747428 94.0156238,14.2552067 94.2578125,14.578125 C94.5000012,14.9010433 94.8619768,15.0625 95.34375,15.0625 C96.3099007,15.0625 96.7929688,14.4205793 96.7929688,13.1367188 C96.7929688,11.850254 96.3125048,11.2070312 95.3515625,11.2070312 C94.8697893,11.2070312 94.5065116,11.369139 94.2617188,11.6933594 C94.0169259,12.0175797 93.8945312,12.4986947 93.8945312,13.1367188 Z" id="macho-caño-negro" fill="#FFFFFF"></path>
            </g>
        </g>
    </g>
</svg>