<?xml version="1.0" encoding="UTF-8"?>
<svg width="88px" height="27px" viewBox="0 0 88 27" version="1.1" xmlns="http://www.w3.org/2000/svg" xmlns:xlink="http://www.w3.org/1999/xlink">
    <!-- Generator: Sketch 48.2 (47327) - http://www.bohemiancoding.com/sketch -->
    <title>manchuria</title>
    <desc>Created with Sketch.</desc>
    <defs>
        <path d="M30.6751405,6 C29.6123291,7.89393294 29,10.1192398 29,12.5 C29,15.3140148 29.8554731,17.9108487 31.2991578,20 L9,20 C5.13400675,20 2,16.8659932 2,13 C2,9.13400675 5.13400675,6 9,6 L30.6751405,6 Z M50.3248595,6 L72,6 C75.8659932,6 79,9.13400675 79,13 C79,16.8659932 75.8659932,20 72,20 L49.7008422,20 C51.1445269,17.9108487 52,15.3140148 52,12.5 C52,10.1192398 51.3876709,7.89393294 50.3248595,6 Z" id="path-1"></path>
        <filter x="-8.4%" y="-39.3%" width="116.9%" height="192.9%" filterUnits="objectBoundingBox" id="filter-2">
            <feOffset dx="0" dy="1" in="SourceAlpha" result="shadowOffsetOuter1"></feOffset>
            <feGaussianBlur stdDeviation="2" in="shadowOffsetOuter1" result="shadowBlurOuter1"></feGaussianBlur>
            <feColorMatrix values="0 0 0 0 0   0 0 0 0 0   0 0 0 0 0  0 0 0 0.5 0" type="matrix" in="shadowBlurOuter1"></feColorMatrix>
        </filter>
        <rect id="path-3" x="0" y="6" width="80" height="14" rx="7"></rect>
        <filter x="-8.1%" y="-39.3%" width="116.2%" height="192.9%" filterUnits="objectBoundingBox" id="filter-4">
            <feOffset dx="0" dy="1" in="SourceAlpha" result="shadowOffsetOuter1"></feOffset>
            <feGaussianBlur stdDeviation="2" in="shadowOffsetOuter1" result="shadowBlurOuter1"></feGaussianBlur>
            <feColorMatrix values="0 0 0 0 0   0 0 0 0 0   0 0 0 0 0  0 0 0 0.5 0" type="matrix" in="shadowBlurOuter1"></feColorMatrix>
        </filter>
    </defs>
    <g id="Volcanes-fallas" stroke="none" stroke-width="1" fill="none" fill-rule="evenodd">
        <g id="manchuria" transform="translate(4.000000, 1.000000)">
            <g id="ic_volcano_label-copy-18">
                <g id="Group-Copy-3">
                    <g id="Group-26-Copy-4" transform="translate(28.000000, 0.000000)" fill="#FF6D00" stroke="#FFFFFF" stroke-width="0.5">
                        <circle id="Oval-2-Copy-5" cx="12.5" cy="12.5" r="12.5"></circle>
                    </g>
                    <g id="Combined-Shape">
                        <use fill="black" fill-opacity="1" filter="url(#filter-2)" xlink:href="#path-1"></use>
                        <use fill="#263238" fill-rule="evenodd" xlink:href="#path-1"></use>
                    </g>
                    <g id="Rectangle-2-Copy-4">
                        <use fill="black" fill-opacity="1" filter="url(#filter-4)" xlink:href="#path-3"></use>
                        <use fill="#263238" fill-rule="evenodd" xlink:href="#path-3"></use>
                    </g>
                </g>
                <path d="M17.9960938,16 L16.6210938,11.5195312 L16.5859375,11.5195312 C16.6354169,12.4309941 16.6601562,13.039061 16.6601562,13.34375 L16.6601562,16 L15.578125,16 L15.578125,10.2890625 L17.2265625,10.2890625 L18.578125,14.65625 L18.6015625,14.65625 L20.0351562,10.2890625 L21.6835938,10.2890625 L21.6835938,16 L20.5546875,16 L20.5546875,13.296875 C20.5546875,13.1692702 20.5566406,13.0221362 20.5605469,12.8554688 C20.5644531,12.6888013 20.5820311,12.2460973 20.6132812,11.5273438 L20.578125,11.5273438 L19.1054688,16 L17.9960938,16 Z M26.6171875,16 L26.203125,14.640625 L24.1210938,14.640625 L23.7070312,16 L22.4023438,16 L24.4179688,10.265625 L25.8984375,10.265625 L27.921875,16 L26.6171875,16 Z M25.9140625,13.625 C25.5312481,12.393223 25.3157554,11.6966154 25.2675781,11.5351562 C25.2194008,11.3736971 25.1848959,11.2460942 25.1640625,11.1523438 C25.0781246,11.4856787 24.8320333,12.3098893 24.4257812,13.625 L25.9140625,13.625 Z M33.7070312,16 L32.1679688,16 L29.6835938,11.6796875 L29.6484375,11.6796875 C29.6979169,12.4427121 29.7226562,12.9869775 29.7226562,13.3125 L29.7226562,16 L28.640625,16 L28.640625,10.2890625 L30.1679688,10.2890625 L32.6484375,14.5664062 L32.6757812,14.5664062 C32.6367186,13.824215 32.6171875,13.2994807 32.6171875,12.9921875 L32.6171875,10.2890625 L33.7070312,10.2890625 L33.7070312,16 Z M37.5703125,11.2148438 C37.1145811,11.2148438 36.76172,11.386066 36.5117188,11.7285156 C36.2617175,12.0709653 36.1367188,12.548174 36.1367188,13.1601562 C36.1367188,14.4336001 36.6145786,15.0703125 37.5703125,15.0703125 C37.9713562,15.0703125 38.4570284,14.9700531 39.0273438,14.7695312 L39.0273438,15.7851562 C38.5585914,15.9804697 38.0351591,16.078125 37.4570312,16.078125 C36.6262979,16.078125 35.9908876,15.8261744 35.5507812,15.3222656 C35.1106749,14.8183569 34.890625,14.0950568 34.890625,13.1523438 C34.890625,12.5585908 34.9986968,12.0384137 35.2148438,11.5917969 C35.4309907,11.1451801 35.7415344,10.8027356 36.1464844,10.5644531 C36.5514343,10.3261707 37.0260389,10.2070312 37.5703125,10.2070312 C38.1250028,10.2070312 38.6822889,10.3411445 39.2421875,10.609375 L38.8515625,11.59375 C38.6380198,11.492187 38.4231782,11.4036462 38.2070312,11.328125 C37.9908843,11.2526038 37.7786469,11.2148438 37.5703125,11.2148438 Z M44.921875,16 L43.7148438,16 L43.7148438,13.5351562 L41.453125,13.5351562 L41.453125,16 L40.2421875,16 L40.2421875,10.2890625 L41.453125,10.2890625 L41.453125,12.5273438 L43.7148438,12.5273438 L43.7148438,10.2890625 L44.921875,10.2890625 L44.921875,16 Z M51.0117188,10.2890625 L51.0117188,13.984375 C51.0117188,14.4062521 50.9173187,14.7760401 50.7285156,15.09375 C50.5397126,15.4114599 50.2669289,15.6549471 49.9101562,15.8242188 C49.5533836,15.9934904 49.1315129,16.078125 48.6445312,16.078125 C47.9101526,16.078125 47.3398458,15.8899758 46.9335938,15.5136719 C46.5273417,15.1373679 46.3242188,14.6223991 46.3242188,13.96875 L46.3242188,10.2890625 L47.53125,10.2890625 L47.53125,13.7851562 C47.53125,14.2252626 47.6197908,14.5481761 47.796875,14.7539062 C47.9739592,14.9596364 48.266925,15.0625 48.6757812,15.0625 C49.0716166,15.0625 49.3587231,14.9589854 49.5371094,14.7519531 C49.7154957,14.5449208 49.8046875,14.2200543 49.8046875,13.7773438 L49.8046875,10.2890625 L51.0117188,10.2890625 Z M53.6210938,12.8242188 L54.0117188,12.8242188 C54.3945332,12.8242188 54.6770824,12.7604173 54.859375,12.6328125 C55.0416676,12.5052077 55.1328125,12.3046889 55.1328125,12.03125 C55.1328125,11.7604153 55.0397145,11.5677089 54.8535156,11.453125 C54.6673168,11.3385411 54.3789082,11.28125 53.9882812,11.28125 L53.6210938,11.28125 L53.6210938,12.8242188 Z M53.6210938,13.8085938 L53.6210938,16 L52.4101562,16 L52.4101562,10.2890625 L54.0742188,10.2890625 C54.8502643,10.2890625 55.4244773,10.4303371 55.796875,10.7128906 C56.1692727,10.9954441 56.3554688,11.4244763 56.3554688,12 C56.3554688,12.3359392 56.2630218,12.6347643 56.078125,12.8964844 C55.8932282,13.1582044 55.6315121,13.3632805 55.2929688,13.5117188 C56.152348,14.7955793 56.7122383,15.6249981 56.9726562,16 L55.6289062,16 L54.265625,13.8085938 L53.6210938,13.8085938 Z M57.6914062,16 L57.6914062,10.2890625 L58.9023438,10.2890625 L58.9023438,16 L57.6914062,16 Z M63.8359375,16 L63.421875,14.640625 L61.3398438,14.640625 L60.9257812,16 L59.6210938,16 L61.6367188,10.265625 L63.1171875,10.265625 L65.140625,16 L63.8359375,16 Z M63.1328125,13.625 C62.7499981,12.393223 62.5345054,11.6966154 62.4863281,11.5351562 C62.4381508,11.3736971 62.4036459,11.2460942 62.3828125,11.1523438 C62.2968746,11.4856787 62.0507833,12.3098893 61.6445312,13.625 L63.1328125,13.625 Z" id="manchuria" fill="#FFFFFF"></path>
            </g>
        </g>
    </g>
</svg>