<?xml version="1.0" encoding="UTF-8"?>
<svg width="88px" height="27px" viewBox="0 0 88 27" version="1.1" xmlns="http://www.w3.org/2000/svg" xmlns:xlink="http://www.w3.org/1999/xlink">
    <!-- Generator: Sketch 48.2 (47327) - http://www.bohemiancoding.com/sketch -->
    <title>montaña</title>
    <desc>Created with Sketch.</desc>
    <defs>
        <path d="M30.6751405,6 C29.6123291,7.89393294 29,10.1192398 29,12.5 C29,15.3140148 29.8554731,17.9108487 31.2991578,20 L9,20 C5.13400675,20 2,16.8659932 2,13 C2,9.13400675 5.13400675,6 9,6 L30.6751405,6 Z M50.3248595,6 L72,6 C75.8659932,6 79,9.13400675 79,13 C79,16.8659932 75.8659932,20 72,20 L49.7008422,20 C51.1445269,17.9108487 52,15.3140148 52,12.5 C52,10.1192398 51.3876709,7.89393294 50.3248595,6 Z" id="path-1"></path>
        <filter x="-8.4%" y="-39.3%" width="116.9%" height="192.9%" filterUnits="objectBoundingBox" id="filter-2">
            <feOffset dx="0" dy="1" in="SourceAlpha" result="shadowOffsetOuter1"></feOffset>
            <feGaussianBlur stdDeviation="2" in="shadowOffsetOuter1" result="shadowBlurOuter1"></feGaussianBlur>
            <feColorMatrix values="0 0 0 0 0   0 0 0 0 0   0 0 0 0 0  0 0 0 0.5 0" type="matrix" in="shadowBlurOuter1"></feColorMatrix>
        </filter>
        <rect id="path-3" x="0" y="6" width="80" height="14" rx="7"></rect>
        <filter x="-8.1%" y="-39.3%" width="116.2%" height="192.9%" filterUnits="objectBoundingBox" id="filter-4">
            <feOffset dx="0" dy="1" in="SourceAlpha" result="shadowOffsetOuter1"></feOffset>
            <feGaussianBlur stdDeviation="2" in="shadowOffsetOuter1" result="shadowBlurOuter1"></feGaussianBlur>
            <feColorMatrix values="0 0 0 0 0   0 0 0 0 0   0 0 0 0 0  0 0 0 0.5 0" type="matrix" in="shadowBlurOuter1"></feColorMatrix>
        </filter>
    </defs>
    <g id="Volcanes-fallas" stroke="none" stroke-width="1" fill="none" fill-rule="evenodd">
        <g id="montaña" transform="translate(4.000000, 1.000000)">
            <g id="ic_volcano_label-copy-18">
                <g id="Group-Copy-3">
                    <g id="Group-26-Copy-4" transform="translate(28.000000, 0.000000)" fill="#FF6D00" stroke="#FFFFFF" stroke-width="0.5">
                        <circle id="Oval-2-Copy-5" cx="12.5" cy="12.5" r="12.5"></circle>
                    </g>
                    <g id="Combined-Shape">
                        <use fill="black" fill-opacity="1" filter="url(#filter-2)" xlink:href="#path-1"></use>
                        <use fill="#263238" fill-rule="evenodd" xlink:href="#path-1"></use>
                    </g>
                    <g id="Rectangle-2-Copy-4">
                        <use fill="black" fill-opacity="1" filter="url(#filter-4)" xlink:href="#path-3"></use>
                        <use fill="#263238" fill-rule="evenodd" xlink:href="#path-3"></use>
                    </g>
                </g>
                <path d="M22.1210938,16 L20.7460938,11.5195312 L20.7109375,11.5195312 C20.7604169,12.4309941 20.7851562,13.039061 20.7851562,13.34375 L20.7851562,16 L19.703125,16 L19.703125,10.2890625 L21.3515625,10.2890625 L22.703125,14.65625 L22.7265625,14.65625 L24.1601562,10.2890625 L25.8085938,10.2890625 L25.8085938,16 L24.6796875,16 L24.6796875,13.296875 C24.6796875,13.1692702 24.6816406,13.0221362 24.6855469,12.8554688 C24.6894531,12.6888013 24.7070311,12.2460973 24.7382812,11.5273438 L24.703125,11.5273438 L23.2304688,16 L22.1210938,16 Z M32.4296875,13.1367188 C32.4296875,14.082036 32.1953148,14.8085912 31.7265625,15.3164063 C31.2578102,15.8242213 30.5859419,16.078125 29.7109375,16.078125 C28.8359331,16.078125 28.1640648,15.8242213 27.6953125,15.3164063 C27.2265602,14.8085912 26.9921875,14.0794318 26.9921875,13.1289062 C26.9921875,12.1783807 27.2272112,11.4524765 27.6972656,10.9511719 C28.1673201,10.4498673 28.8411414,10.1992188 29.71875,10.1992188 C30.5963586,10.1992188 31.2675758,10.4518204 31.7324219,10.9570312 C32.1972679,11.4622421 32.4296875,12.1887973 32.4296875,13.1367188 Z M28.2617188,13.1367188 C28.2617188,13.7747428 28.3828113,14.2552067 28.625,14.578125 C28.8671887,14.9010433 29.2291643,15.0625 29.7109375,15.0625 C30.6770882,15.0625 31.1601562,14.4205793 31.1601562,13.1367188 C31.1601562,11.850254 30.6796923,11.2070312 29.71875,11.2070312 C29.2369768,11.2070312 28.8736991,11.369139 28.6289062,11.6933594 C28.3841134,12.0175797 28.2617188,12.4986947 28.2617188,13.1367188 Z M38.6796875,16 L37.140625,16 L34.65625,11.6796875 L34.6210938,11.6796875 C34.6705732,12.4427121 34.6953125,12.9869775 34.6953125,13.3125 L34.6953125,16 L33.6132812,16 L33.6132812,10.2890625 L35.140625,10.2890625 L37.6210938,14.5664062 L37.6484375,14.5664062 C37.6093748,13.824215 37.5898438,13.2994807 37.5898438,12.9921875 L37.5898438,10.2890625 L38.6796875,10.2890625 L38.6796875,16 Z M42.3203125,16 L41.109375,16 L41.109375,11.296875 L39.5585938,11.296875 L39.5585938,10.2890625 L43.8710938,10.2890625 L43.8710938,11.296875 L42.3203125,11.296875 L42.3203125,16 Z M47.6875,16 L47.2734375,14.640625 L45.1914062,14.640625 L44.7773438,16 L43.4726562,16 L45.4882812,10.265625 L46.96875,10.265625 L48.9921875,16 L47.6875,16 Z M46.984375,13.625 C46.6015606,12.393223 46.3860679,11.6966154 46.3378906,11.5351562 C46.2897133,11.3736971 46.2552084,11.2460942 46.234375,11.1523438 C46.1484371,11.4856787 45.9023458,12.3098893 45.4960938,13.625 L46.984375,13.625 Z M54.7773438,16 L53.2382812,16 L50.7539062,11.6796875 L50.71875,11.6796875 C50.7682294,12.4427121 50.7929688,12.9869775 50.7929688,13.3125 L50.7929688,16 L49.7109375,16 L49.7109375,10.2890625 L51.2382812,10.2890625 L53.71875,14.5664062 L53.7460938,14.5664062 C53.7070311,13.824215 53.6875,13.2994807 53.6875,12.9921875 L53.6875,10.2890625 L54.7773438,10.2890625 L54.7773438,16 Z M51.6015625,9.421875 C51.5208329,9.421875 51.4433597,9.45637986 51.3691406,9.52539062 C51.2949215,9.59440139 51.2408856,9.69921805 51.2070312,9.83984375 L50.625,9.83984375 C50.653646,9.4622377 50.7610668,9.16666773 50.9472656,8.953125 C51.1334645,8.73958227 51.3802068,8.6328125 51.6875,8.6328125 C51.7942714,8.6328125 51.899088,8.65429666 52.0019531,8.69726562 C52.1048182,8.74023459 52.2063797,8.78710912 52.3066406,8.83789062 C52.4069015,8.88867213 52.5052079,8.93489563 52.6015625,8.9765625 C52.6979171,9.01822938 52.7929683,9.0390625 52.8867188,9.0390625 C52.9674483,9.0390625 53.0449215,9.00520867 53.1191406,8.9375 C53.1933597,8.86979133 53.2473957,8.7656257 53.28125,8.625 L53.8632812,8.625 C53.8346353,9.00260605 53.7259124,9.29817602 53.5371094,9.51171875 C53.3483063,9.72526148 53.1028661,9.83203125 52.8007812,9.83203125 C52.6940099,9.83203125 52.5891932,9.81054709 52.4863281,9.76757812 C52.383463,9.72460916 52.2819015,9.67773463 52.1816406,9.62695312 C52.0813797,9.57617162 51.9830734,9.52929709 51.8867188,9.48632812 C51.7903641,9.44335916 51.695313,9.421875 51.6015625,9.421875 Z M59.7109375,16 L59.296875,14.640625 L57.2148438,14.640625 L56.8007812,16 L55.4960938,16 L57.5117188,10.265625 L58.9921875,10.265625 L61.015625,16 L59.7109375,16 Z M59.0078125,13.625 C58.6249981,12.393223 58.4095054,11.6966154 58.3613281,11.5351562 C58.3131508,11.3736971 58.2786459,11.2460942 58.2578125,11.1523438 C58.1718746,11.4856787 57.9257833,12.3098893 57.5195312,13.625 L59.0078125,13.625 Z" id="montaña" fill="#FFFFFF"></path>
            </g>
        </g>
    </g>
</svg>