<?xml version="1.0" encoding="UTF-8"?>
<svg width="88px" height="27px" viewBox="0 0 88 27" version="1.1" xmlns="http://www.w3.org/2000/svg" xmlns:xlink="http://www.w3.org/1999/xlink">
    <!-- Generator: Sketch 48.2 (47327) - http://www.bohemiancoding.com/sketch -->
    <title>navarro</title>
    <desc>Created with Sketch.</desc>
    <defs>
        <path d="M30.6751405,6 C29.6123291,7.89393294 29,10.1192398 29,12.5 C29,15.3140148 29.8554731,17.9108487 31.2991578,20 L9,20 C5.13400675,20 2,16.8659932 2,13 C2,9.13400675 5.13400675,6 9,6 L30.6751405,6 Z M50.3248595,6 L72,6 C75.8659932,6 79,9.13400675 79,13 C79,16.8659932 75.8659932,20 72,20 L49.7008422,20 C51.1445269,17.9108487 52,15.3140148 52,12.5 C52,10.1192398 51.3876709,7.89393294 50.3248595,6 Z" id="path-1"></path>
        <filter x="-8.4%" y="-39.3%" width="116.9%" height="192.9%" filterUnits="objectBoundingBox" id="filter-2">
            <feOffset dx="0" dy="1" in="SourceAlpha" result="shadowOffsetOuter1"></feOffset>
            <feGaussianBlur stdDeviation="2" in="shadowOffsetOuter1" result="shadowBlurOuter1"></feGaussianBlur>
            <feColorMatrix values="0 0 0 0 0   0 0 0 0 0   0 0 0 0 0  0 0 0 0.5 0" type="matrix" in="shadowBlurOuter1"></feColorMatrix>
        </filter>
        <rect id="path-3" x="0" y="6" width="80" height="14" rx="7"></rect>
        <filter x="-8.1%" y="-39.3%" width="116.2%" height="192.9%" filterUnits="objectBoundingBox" id="filter-4">
            <feOffset dx="0" dy="1" in="SourceAlpha" result="shadowOffsetOuter1"></feOffset>
            <feGaussianBlur stdDeviation="2" in="shadowOffsetOuter1" result="shadowBlurOuter1"></feGaussianBlur>
            <feColorMatrix values="0 0 0 0 0   0 0 0 0 0   0 0 0 0 0  0 0 0 0.5 0" type="matrix" in="shadowBlurOuter1"></feColorMatrix>
        </filter>
    </defs>
    <g id="Volcanes-fallas" stroke="none" stroke-width="1" fill="none" fill-rule="evenodd">
        <g id="navarro" transform="translate(4.000000, 1.000000)">
            <g id="ic_volcano_label-copy-18">
                <g id="Group-Copy-3">
                    <g id="Group-26-Copy-4" transform="translate(28.000000, 0.000000)" fill="#FF6D00" stroke="#FFFFFF" stroke-width="0.5">
                        <circle id="Oval-2-Copy-5" cx="12.5" cy="12.5" r="12.5"></circle>
                    </g>
                    <g id="Combined-Shape">
                        <use fill="black" fill-opacity="1" filter="url(#filter-2)" xlink:href="#path-1"></use>
                        <use fill="#263238" fill-rule="evenodd" xlink:href="#path-1"></use>
                    </g>
                    <g id="Rectangle-2-Copy-4">
                        <use fill="black" fill-opacity="1" filter="url(#filter-4)" xlink:href="#path-3"></use>
                        <use fill="#263238" fill-rule="evenodd" xlink:href="#path-3"></use>
                    </g>
                </g>
                <path d="M26.2695312,16 L24.7304688,16 L22.2460938,11.6796875 L22.2109375,11.6796875 C22.2604169,12.4427121 22.2851562,12.9869775 22.2851562,13.3125 L22.2851562,16 L21.203125,16 L21.203125,10.2890625 L22.7304688,10.2890625 L25.2109375,14.5664062 L25.2382812,14.5664062 C25.1992186,13.824215 25.1796875,13.2994807 25.1796875,12.9921875 L25.1796875,10.2890625 L26.2695312,10.2890625 L26.2695312,16 Z M31.203125,16 L30.7890625,14.640625 L28.7070312,14.640625 L28.2929688,16 L26.9882812,16 L29.0039062,10.265625 L30.484375,10.265625 L32.5078125,16 L31.203125,16 Z M30.5,13.625 C30.1171856,12.393223 29.9016929,11.6966154 29.8535156,11.5351562 C29.8053383,11.3736971 29.7708334,11.2460942 29.75,11.1523438 C29.6640621,11.4856787 29.4179708,12.3098893 29.0117188,13.625 L30.5,13.625 Z M36.1640625,10.2890625 L37.3867188,10.2890625 L35.4453125,16 L34.125,16 L32.1875,10.2890625 L33.4101562,10.2890625 L34.484375,13.6875 C34.5442711,13.8880218 34.6061195,14.1217435 34.6699219,14.3886719 C34.7337243,14.6556003 34.7734374,14.8411453 34.7890625,14.9453125 C34.8177085,14.705728 34.9153637,14.2864613 35.0820312,13.6875 L36.1640625,10.2890625 Z M41.28125,16 L40.8671875,14.640625 L38.7851562,14.640625 L38.3710938,16 L37.0664062,16 L39.0820312,10.265625 L40.5625,10.265625 L42.5859375,16 L41.28125,16 Z M40.578125,13.625 C40.1953106,12.393223 39.9798179,11.6966154 39.9316406,11.5351562 C39.8834633,11.3736971 39.8489584,11.2460942 39.828125,11.1523438 C39.7421871,11.4856787 39.4960958,12.3098893 39.0898438,13.625 L40.578125,13.625 Z M44.515625,12.8242188 L44.90625,12.8242188 C45.2890644,12.8242188 45.5716137,12.7604173 45.7539062,12.6328125 C45.9361988,12.5052077 46.0273438,12.3046889 46.0273438,12.03125 C46.0273438,11.7604153 45.9342457,11.5677089 45.7480469,11.453125 C45.561848,11.3385411 45.2734395,11.28125 44.8828125,11.28125 L44.515625,11.28125 L44.515625,12.8242188 Z M44.515625,13.8085938 L44.515625,16 L43.3046875,16 L43.3046875,10.2890625 L44.96875,10.2890625 C45.7447955,10.2890625 46.3190086,10.4303371 46.6914062,10.7128906 C47.0638039,10.9954441 47.25,11.4244763 47.25,12 C47.25,12.3359392 47.157553,12.6347643 46.9726562,12.8964844 C46.7877595,13.1582044 46.5260434,13.3632805 46.1875,13.5117188 C47.0468793,14.7955793 47.6067695,15.6249981 47.8671875,16 L46.5234375,16 L45.1601562,13.8085938 L44.515625,13.8085938 Z M49.796875,12.8242188 L50.1875,12.8242188 C50.5703144,12.8242188 50.8528637,12.7604173 51.0351562,12.6328125 C51.2174488,12.5052077 51.3085938,12.3046889 51.3085938,12.03125 C51.3085938,11.7604153 51.2154957,11.5677089 51.0292969,11.453125 C50.843098,11.3385411 50.5546895,11.28125 50.1640625,11.28125 L49.796875,11.28125 L49.796875,12.8242188 Z M49.796875,13.8085938 L49.796875,16 L48.5859375,16 L48.5859375,10.2890625 L50.25,10.2890625 C51.0260455,10.2890625 51.6002586,10.4303371 51.9726562,10.7128906 C52.3450539,10.9954441 52.53125,11.4244763 52.53125,12 C52.53125,12.3359392 52.438803,12.6347643 52.2539062,12.8964844 C52.0690095,13.1582044 51.8072934,13.3632805 51.46875,13.5117188 C52.3281293,14.7955793 52.8880195,15.6249981 53.1484375,16 L51.8046875,16 L50.4414062,13.8085938 L49.796875,13.8085938 Z M59.0507813,13.1367188 C59.0507813,14.082036 58.8164086,14.8085912 58.3476563,15.3164062 C57.8789039,15.8242213 57.2070356,16.078125 56.3320313,16.078125 C55.4570269,16.078125 54.7851586,15.8242213 54.3164063,15.3164062 C53.8476539,14.8085912 53.6132813,14.0794318 53.6132813,13.1289062 C53.6132813,12.1783807 53.8483049,11.4524765 54.3183594,10.9511719 C54.7884138,10.4498673 55.4622352,10.1992188 56.3398438,10.1992188 C57.2174523,10.1992188 57.8886696,10.4518204 58.3535156,10.9570312 C58.8183617,11.4622421 59.0507813,12.1887973 59.0507813,13.1367188 Z M54.8828125,13.1367188 C54.8828125,13.7747428 55.003905,14.2552067 55.2460938,14.578125 C55.4882825,14.9010433 55.850258,15.0625 56.3320312,15.0625 C57.2981819,15.0625 57.78125,14.4205793 57.78125,13.1367188 C57.78125,11.850254 57.3007861,11.2070312 56.3398438,11.2070312 C55.8580705,11.2070312 55.4947929,11.369139 55.25,11.6933594 C55.0052071,12.0175797 54.8828125,12.4986947 54.8828125,13.1367188 Z" id="navarro" fill="#FFFFFF"></path>
            </g>
        </g>
    </g>
</svg>