<?xml version="1.0" encoding="UTF-8"?>
<svg width="88px" height="27px" viewBox="0 0 88 27" version="1.1" xmlns="http://www.w3.org/2000/svg" xmlns:xlink="http://www.w3.org/1999/xlink">
    <!-- Generator: Sketch 48.2 (47327) - http://www.bohemiancoding.com/sketch -->
    <title>ochomogo</title>
    <desc>Created with Sketch.</desc>
    <defs>
        <path d="M30.6751405,6 C29.6123291,7.89393294 29,10.1192398 29,12.5 C29,15.3140148 29.8554731,17.9108487 31.2991578,20 L9,20 C5.13400675,20 2,16.8659932 2,13 C2,9.13400675 5.13400675,6 9,6 L30.6751405,6 Z M50.3248595,6 L72,6 C75.8659932,6 79,9.13400675 79,13 C79,16.8659932 75.8659932,20 72,20 L49.7008422,20 C51.1445269,17.9108487 52,15.3140148 52,12.5 C52,10.1192398 51.3876709,7.89393294 50.3248595,6 Z" id="path-1"></path>
        <filter x="-8.4%" y="-39.3%" width="116.9%" height="192.9%" filterUnits="objectBoundingBox" id="filter-2">
            <feOffset dx="0" dy="1" in="SourceAlpha" result="shadowOffsetOuter1"></feOffset>
            <feGaussianBlur stdDeviation="2" in="shadowOffsetOuter1" result="shadowBlurOuter1"></feGaussianBlur>
            <feColorMatrix values="0 0 0 0 0   0 0 0 0 0   0 0 0 0 0  0 0 0 0.5 0" type="matrix" in="shadowBlurOuter1"></feColorMatrix>
        </filter>
        <rect id="path-3" x="0" y="6" width="80" height="14" rx="7"></rect>
        <filter x="-8.1%" y="-39.3%" width="116.2%" height="192.9%" filterUnits="objectBoundingBox" id="filter-4">
            <feOffset dx="0" dy="1" in="SourceAlpha" result="shadowOffsetOuter1"></feOffset>
            <feGaussianBlur stdDeviation="2" in="shadowOffsetOuter1" result="shadowBlurOuter1"></feGaussianBlur>
            <feColorMatrix values="0 0 0 0 0   0 0 0 0 0   0 0 0 0 0  0 0 0 0.5 0" type="matrix" in="shadowBlurOuter1"></feColorMatrix>
        </filter>
    </defs>
    <g id="Volcanes-fallas" stroke="none" stroke-width="1" fill="none" fill-rule="evenodd">
        <g id="ochomogo" transform="translate(4.000000, 1.000000)">
            <g id="ic_volcano_label-copy-18">
                <g id="Group-Copy-3">
                    <g id="Group-26-Copy-4" transform="translate(28.000000, 0.000000)" fill="#FF6D00" stroke="#FFFFFF" stroke-width="0.5">
                        <circle id="Oval-2-Copy-5" cx="12.5" cy="12.5" r="12.5"></circle>
                    </g>
                    <g id="Combined-Shape">
                        <use fill="black" fill-opacity="1" filter="url(#filter-2)" xlink:href="#path-1"></use>
                        <use fill="#263238" fill-rule="evenodd" xlink:href="#path-1"></use>
                    </g>
                    <g id="Rectangle-2-Copy-4">
                        <use fill="black" fill-opacity="1" filter="url(#filter-4)" xlink:href="#path-3"></use>
                        <use fill="#263238" fill-rule="evenodd" xlink:href="#path-3"></use>
                    </g>
                </g>
                <path d="M20.890625,13.1367188 C20.890625,14.082036 20.6562523,14.8085912 20.1875,15.3164062 C19.7187477,15.8242213 19.0468794,16.078125 18.171875,16.078125 C17.2968706,16.078125 16.6250023,15.8242213 16.15625,15.3164062 C15.6874977,14.8085912 15.453125,14.0794318 15.453125,13.1289062 C15.453125,12.1783807 15.6881487,11.4524765 16.1582031,10.9511719 C16.6282576,10.4498673 17.3020789,10.1992188 18.1796875,10.1992188 C19.0572961,10.1992188 19.7285133,10.4518204 20.1933594,10.9570312 C20.6582054,11.4622421 20.890625,12.1887973 20.890625,13.1367188 Z M16.7226562,13.1367188 C16.7226562,13.7747428 16.8437488,14.2552067 17.0859375,14.578125 C17.3281262,14.9010433 17.6901018,15.0625 18.171875,15.0625 C19.1380257,15.0625 19.6210938,14.4205793 19.6210938,13.1367188 C19.6210938,11.850254 19.1406298,11.2070312 18.1796875,11.2070312 C17.6979143,11.2070312 17.3346366,11.369139 17.0898438,11.6933594 C16.8450509,12.0175797 16.7226562,12.4986947 16.7226562,13.1367188 Z M24.5,11.2148438 C24.0442686,11.2148438 23.6914075,11.386066 23.4414062,11.7285156 C23.191405,12.0709653 23.0664062,12.548174 23.0664062,13.1601562 C23.0664062,14.4336001 23.5442661,15.0703125 24.5,15.0703125 C24.9010437,15.0703125 25.3867159,14.9700531 25.9570312,14.7695312 L25.9570312,15.7851562 C25.4882789,15.9804697 24.9648466,16.078125 24.3867188,16.078125 C23.5559854,16.078125 22.9205751,15.8261744 22.4804688,15.3222656 C22.0403624,14.8183569 21.8203125,14.0950568 21.8203125,13.1523438 C21.8203125,12.5585908 21.9283843,12.0384137 22.1445312,11.5917969 C22.3606782,11.1451801 22.6712219,10.8027356 23.0761719,10.5644531 C23.4811218,10.3261707 23.9557264,10.2070312 24.5,10.2070312 C25.0546903,10.2070312 25.6119764,10.3411445 26.171875,10.609375 L25.78125,11.59375 C25.5677073,11.492187 25.3528657,11.4036462 25.1367187,11.328125 C24.9205718,11.2526038 24.7083344,11.2148438 24.5,11.2148438 Z M31.8515625,16 L30.6445312,16 L30.6445312,13.5351562 L28.3828125,13.5351562 L28.3828125,16 L27.171875,16 L27.171875,10.2890625 L28.3828125,10.2890625 L28.3828125,12.5273438 L30.6445312,12.5273438 L30.6445312,10.2890625 L31.8515625,10.2890625 L31.8515625,16 Z M38.4765625,13.1367188 C38.4765625,14.082036 38.2421898,14.8085912 37.7734375,15.3164062 C37.3046852,15.8242213 36.6328169,16.078125 35.7578125,16.078125 C34.8828081,16.078125 34.2109398,15.8242213 33.7421875,15.3164062 C33.2734352,14.8085912 33.0390625,14.0794318 33.0390625,13.1289062 C33.0390625,12.1783807 33.2740862,11.4524765 33.7441406,10.9511719 C34.2141951,10.4498673 34.8880164,10.1992188 35.765625,10.1992188 C36.6432336,10.1992188 37.3144508,10.4518204 37.7792969,10.9570312 C38.2441429,11.4622421 38.4765625,12.1887973 38.4765625,13.1367188 Z M34.3085938,13.1367188 C34.3085938,13.7747428 34.4296863,14.2552067 34.671875,14.578125 C34.9140637,14.9010433 35.2760393,15.0625 35.7578125,15.0625 C36.7239632,15.0625 37.2070312,14.4205793 37.2070312,13.1367188 C37.2070312,11.850254 36.7265673,11.2070312 35.765625,11.2070312 C35.2838518,11.2070312 34.9205741,11.369139 34.6757812,11.6933594 C34.4309884,12.0175797 34.3085938,12.4986947 34.3085938,13.1367188 Z M42.078125,16 L40.703125,11.5195312 L40.6679688,11.5195312 C40.7174482,12.4309941 40.7421875,13.039061 40.7421875,13.34375 L40.7421875,16 L39.6601562,16 L39.6601562,10.2890625 L41.3085938,10.2890625 L42.6601562,14.65625 L42.6835938,14.65625 L44.1171875,10.2890625 L45.765625,10.2890625 L45.765625,16 L44.6367188,16 L44.6367188,13.296875 C44.6367188,13.1692702 44.6386719,13.0221362 44.6425781,12.8554688 C44.6464844,12.6888013 44.6640623,12.2460973 44.6953125,11.5273438 L44.6601562,11.5273438 L43.1875,16 L42.078125,16 Z M52.3867188,13.1367188 C52.3867188,14.082036 52.1523461,14.8085912 51.6835938,15.3164062 C51.2148414,15.8242213 50.5429731,16.078125 49.6679688,16.078125 C48.7929644,16.078125 48.1210961,15.8242213 47.6523438,15.3164062 C47.1835914,14.8085912 46.9492188,14.0794318 46.9492188,13.1289062 C46.9492188,12.1783807 47.1842424,11.4524765 47.6542969,10.9511719 C48.1243513,10.4498673 48.7981727,10.1992188 49.6757812,10.1992188 C50.5533898,10.1992188 51.2246071,10.4518204 51.6894531,10.9570312 C52.1542992,11.4622421 52.3867188,12.1887973 52.3867188,13.1367188 Z M48.21875,13.1367188 C48.21875,13.7747428 48.3398425,14.2552067 48.5820312,14.578125 C48.82422,14.9010433 49.1861955,15.0625 49.6679688,15.0625 C50.6341194,15.0625 51.1171875,14.4205793 51.1171875,13.1367188 C51.1171875,11.850254 50.6367236,11.2070312 49.6757812,11.2070312 C49.194008,11.2070312 48.8307304,11.369139 48.5859375,11.6933594 C48.3411446,12.0175797 48.21875,12.4986947 48.21875,13.1367188 Z M55.7382812,12.7929688 L58.0039062,12.7929688 L58.0039062,15.7539062 C57.6367169,15.8736985 57.2910172,15.9576821 56.9667969,16.0058594 C56.6425765,16.0540367 56.3111996,16.078125 55.9726562,16.078125 C55.1106728,16.078125 54.4524762,15.8248723 53.9980469,15.3183594 C53.5436175,14.8118464 53.3164062,14.0846402 53.3164062,13.1367188 C53.3164062,12.2148391 53.5800755,11.4960963 54.1074219,10.9804688 C54.6347683,10.4648412 55.3658807,10.2070312 56.3007812,10.2070312 C56.8867217,10.2070312 57.4518202,10.3242176 57.9960937,10.5585938 L57.59375,11.5273438 C57.1770812,11.3190094 56.7434918,11.2148438 56.2929687,11.2148438 C55.7695286,11.2148438 55.350262,11.3906232 55.0351562,11.7421875 C54.7200505,12.0937518 54.5625,12.5664033 54.5625,13.1601562 C54.5625,13.779951 54.6894519,14.2532536 54.9433594,14.5800781 C55.1972669,14.9069027 55.5664038,15.0703125 56.0507812,15.0703125 C56.3033867,15.0703125 56.5598945,15.0442711 56.8203125,14.9921875 L56.8203125,13.8007812 L55.7382812,13.8007812 L55.7382812,12.7929688 Z M64.546875,13.1367188 C64.546875,14.082036 64.3125023,14.8085912 63.84375,15.3164062 C63.3749977,15.8242213 62.7031294,16.078125 61.828125,16.078125 C60.9531206,16.078125 60.2812523,15.8242213 59.8125,15.3164062 C59.3437477,14.8085912 59.109375,14.0794318 59.109375,13.1289062 C59.109375,12.1783807 59.3443987,11.4524765 59.8144531,10.9511719 C60.2845076,10.4498673 60.9583289,10.1992188 61.8359375,10.1992188 C62.7135461,10.1992188 63.3847633,10.4518204 63.8496094,10.9570312 C64.3144554,11.4622421 64.546875,12.1887973 64.546875,13.1367188 Z M60.3789062,13.1367188 C60.3789062,13.7747428 60.4999988,14.2552067 60.7421875,14.578125 C60.9843762,14.9010433 61.3463518,15.0625 61.828125,15.0625 C62.7942757,15.0625 63.2773437,14.4205793 63.2773437,13.1367188 C63.2773437,11.850254 62.7968798,11.2070312 61.8359375,11.2070312 C61.3541643,11.2070312 60.9908866,11.369139 60.7460937,11.6933594 C60.5013009,12.0175797 60.3789062,12.4986947 60.3789062,13.1367188 Z" id="ochomogo" fill="#FFFFFF"></path>
            </g>
        </g>
    </g>
</svg>