<?xml version="1.0" encoding="UTF-8"?>
<svg width="65px" height="27px" viewBox="0 0 65 27" version="1.1" xmlns="http://www.w3.org/2000/svg" xmlns:xlink="http://www.w3.org/1999/xlink">
    <!-- Generator: Sketch 48.2 (47327) - http://www.bohemiancoding.com/sketch -->
    <title>orosi</title>
    <desc>Created with Sketch.</desc>
    <defs>
        <path d="M17.8208049,6 C16.6655751,7.89393294 16,10.1192398 16,12.5 C16,15.3140148 16.9298621,17.9108487 18.4990845,20 L7,20 C3.13400675,20 4.73447626e-16,16.8659932 0,13 C-4.73447626e-16,9.13400675 3.13400675,6 7,6 L17.8208049,6 Z M39.1791951,6 L50,6 C53.8659932,6 57,9.13400675 57,13 C57,16.8659932 53.8659932,20 50,20 L38.5009155,20 C40.0701379,17.9108487 41,15.3140148 41,12.5 C41,10.1192398 40.3344249,7.89393294 39.1791951,6 Z" id="path-1"></path>
        <filter x="-11.4%" y="-39.3%" width="122.8%" height="192.9%" filterUnits="objectBoundingBox" id="filter-2">
            <feOffset dx="0" dy="1" in="SourceAlpha" result="shadowOffsetOuter1"></feOffset>
            <feGaussianBlur stdDeviation="2" in="shadowOffsetOuter1" result="shadowBlurOuter1"></feGaussianBlur>
            <feColorMatrix values="0 0 0 0 0   0 0 0 0 0   0 0 0 0 0  0 0 0 0.5 0" type="matrix" in="shadowBlurOuter1"></feColorMatrix>
        </filter>
    </defs>
    <g id="Volcanes-fallas" stroke="none" stroke-width="1" fill="none" fill-rule="evenodd">
        <g id="orosi" transform="translate(4.000000, 1.000000)">
            <g id="ic_volcano_label-copy-19">
                <g id="Group-Copy-3" transform="translate(16.000000, 0.000000)">
                    <g id="Group-26-Copy-4"></g>
                </g>
                <circle id="Oval-2-Copy-5" stroke="#FFFFFF" stroke-width="0.5" fill="#FF6D00" cx="28.5" cy="12.5" r="12.5"></circle>
                <g id="Combined-Shape">
                    <use fill="black" fill-opacity="1" filter="url(#filter-2)" xlink:href="#path-1"></use>
                    <use fill="#263238" fill-rule="evenodd" xlink:href="#path-1"></use>
                </g>
                <rect id="Rectangle-2-Copy-4" fill="#263238" x="0" y="6" width="57" height="14" rx="7"></rect>
            </g>
            <path d="M21.8671875,13.1367188 C21.8671875,14.082036 21.6328148,14.8085912 21.1640625,15.3164062 C20.6953102,15.8242213 20.0234419,16.078125 19.1484375,16.078125 C18.2734331,16.078125 17.6015648,15.8242213 17.1328125,15.3164062 C16.6640602,14.8085912 16.4296875,14.0794318 16.4296875,13.1289062 C16.4296875,12.1783807 16.6647112,11.4524765 17.1347656,10.9511719 C17.6048201,10.4498673 18.2786414,10.1992188 19.15625,10.1992188 C20.0338586,10.1992188 20.7050758,10.4518204 21.1699219,10.9570312 C21.6347679,11.4622421 21.8671875,12.1887973 21.8671875,13.1367188 Z M17.6992188,13.1367188 C17.6992188,13.7747428 17.8203113,14.2552067 18.0625,14.578125 C18.3046887,14.9010433 18.6666643,15.0625 19.1484375,15.0625 C20.1145882,15.0625 20.5976562,14.4205793 20.5976562,13.1367188 C20.5976562,11.850254 20.1171923,11.2070312 19.15625,11.2070312 C18.6744768,11.2070312 18.3111991,11.369139 18.0664062,11.6933594 C17.8216134,12.0175797 17.6992188,12.4986947 17.6992188,13.1367188 Z M24.2617188,12.8242188 L24.6523438,12.8242188 C25.0351582,12.8242188 25.3177074,12.7604173 25.5,12.6328125 C25.6822926,12.5052077 25.7734375,12.3046889 25.7734375,12.03125 C25.7734375,11.7604153 25.6803395,11.5677089 25.4941406,11.453125 C25.3079418,11.3385411 25.0195332,11.28125 24.6289062,11.28125 L24.2617188,11.28125 L24.2617188,12.8242188 Z M24.2617188,13.8085938 L24.2617188,16 L23.0507812,16 L23.0507812,10.2890625 L24.7148438,10.2890625 C25.4908893,10.2890625 26.0651023,10.4303371 26.4375,10.7128906 C26.8098977,10.9954441 26.9960938,11.4244763 26.9960938,12 C26.9960938,12.3359392 26.9036468,12.6347643 26.71875,12.8964844 C26.5338532,13.1582044 26.2721371,13.3632805 25.9335938,13.5117188 C26.792973,14.7955793 27.3528633,15.6249981 27.6132812,16 L26.2695312,16 L24.90625,13.8085938 L24.2617188,13.8085938 Z M33.515625,13.1367188 C33.515625,14.082036 33.2812523,14.8085912 32.8125,15.3164062 C32.3437477,15.8242213 31.6718794,16.078125 30.796875,16.078125 C29.9218706,16.078125 29.2500023,15.8242213 28.78125,15.3164062 C28.3124977,14.8085912 28.078125,14.0794318 28.078125,13.1289062 C28.078125,12.1783807 28.3131487,11.4524765 28.7832031,10.9511719 C29.2532576,10.4498673 29.9270789,10.1992188 30.8046875,10.1992188 C31.6822961,10.1992188 32.3535133,10.4518204 32.8183594,10.9570312 C33.2832054,11.4622421 33.515625,12.1887973 33.515625,13.1367188 Z M29.3476562,13.1367188 C29.3476562,13.7747428 29.4687488,14.2552067 29.7109375,14.578125 C29.9531262,14.9010433 30.3151018,15.0625 30.796875,15.0625 C31.7630257,15.0625 32.2460938,14.4205793 32.2460938,13.1367188 C32.2460938,11.850254 31.7656298,11.2070312 30.8046875,11.2070312 C30.3229143,11.2070312 29.9596366,11.369139 29.7148438,11.6933594 C29.4700509,12.0175797 29.3476562,12.4986947 29.3476562,13.1367188 Z M38.0703125,14.4140625 C38.0703125,14.9296901 37.8847675,15.335936 37.5136719,15.6328125 C37.1425763,15.929689 36.6263054,16.078125 35.9648438,16.078125 C35.3554657,16.078125 34.8164086,15.9635428 34.3476562,15.734375 L34.3476562,14.609375 C34.7330748,14.7812509 35.0592435,14.9023434 35.3261719,14.9726562 C35.5931003,15.0429691 35.8372385,15.078125 36.0585938,15.078125 C36.3242201,15.078125 36.5279941,15.0273443 36.6699219,14.9257812 C36.8118497,14.8242182 36.8828125,14.6731781 36.8828125,14.4726562 C36.8828125,14.3606765 36.8515628,14.2610681 36.7890625,14.1738281 C36.7265622,14.0865881 36.6347662,14.0026046 36.5136719,13.921875 C36.3925775,13.8411454 36.1458352,13.7122405 35.7734375,13.5351562 C35.4244774,13.3710929 35.1627613,13.2135424 34.9882812,13.0625 C34.8138012,12.9114576 34.6744797,12.7356781 34.5703125,12.5351562 C34.4661453,12.3346344 34.4140625,12.1002618 34.4140625,11.8320312 C34.4140625,11.3268204 34.5852847,10.9296889 34.9277344,10.640625 C35.270184,10.3515611 35.7434866,10.2070312 36.3476562,10.2070312 C36.6445327,10.2070312 36.927733,10.2421871 37.1972656,10.3125 C37.4667982,10.3828129 37.7486964,10.4817702 38.0429688,10.609375 L37.6523438,11.5507812 C37.3476547,11.4257806 37.0957041,11.3385419 36.8964844,11.2890625 C36.6972646,11.2395831 36.501303,11.2148438 36.3085938,11.2148438 C36.0794259,11.2148438 35.9036464,11.2682286 35.78125,11.375 C35.6588536,11.4817714 35.5976562,11.6210929 35.5976562,11.7929688 C35.5976562,11.8997401 35.6223956,11.9928381 35.671875,12.0722656 C35.7213544,12.1516931 35.8001297,12.2285153 35.9082031,12.3027344 C36.0162766,12.3769535 36.2721334,12.5104157 36.6757812,12.703125 C37.2096381,12.9583346 37.5755198,13.2141914 37.7734375,13.4707031 C37.9713552,13.7272148 38.0703125,14.0416648 38.0703125,14.4140625 Z M39.1054688,16 L39.1054688,10.2890625 L40.3164062,10.2890625 L40.3164062,16 L39.1054688,16 Z" fill="#FFFFFF"></path>
        </g>
    </g>
</svg>