<?xml version="1.0" encoding="UTF-8"?>
<svg width="65px" height="27px" viewBox="0 0 65 27" version="1.1" xmlns="http://www.w3.org/2000/svg" xmlns:xlink="http://www.w3.org/1999/xlink">
    <!-- Generator: Sketch 48.2 (47327) - http://www.bohemiancoding.com/sketch -->
    <title>osa</title>
    <desc>Created with Sketch.</desc>
    <defs>
        <path d="M17.8208049,6 C16.6655751,7.89393294 16,10.1192398 16,12.5 C16,15.3140148 16.9298621,17.9108487 18.4990845,20 L7,20 C3.13400675,20 4.73447626e-16,16.8659932 0,13 C-4.73447626e-16,9.13400675 3.13400675,6 7,6 L17.8208049,6 Z M39.1791951,6 L50,6 C53.8659932,6 57,9.13400675 57,13 C57,16.8659932 53.8659932,20 50,20 L38.5009155,20 C40.0701379,17.9108487 41,15.3140148 41,12.5 C41,10.1192398 40.3344249,7.89393294 39.1791951,6 Z" id="path-1"></path>
        <filter x="-11.4%" y="-39.3%" width="122.8%" height="192.9%" filterUnits="objectBoundingBox" id="filter-2">
            <feOffset dx="0" dy="1" in="SourceAlpha" result="shadowOffsetOuter1"></feOffset>
            <feGaussianBlur stdDeviation="2" in="shadowOffsetOuter1" result="shadowBlurOuter1"></feGaussianBlur>
            <feColorMatrix values="0 0 0 0 0   0 0 0 0 0   0 0 0 0 0  0 0 0 0.5 0" type="matrix" in="shadowBlurOuter1"></feColorMatrix>
        </filter>
    </defs>
    <g id="Volcanes-fallas" stroke="none" stroke-width="1" fill="none" fill-rule="evenodd">
        <g id="osa" transform="translate(4.000000, 1.000000)">
            <g id="ic_volcano_label-copy-19">
                <g id="Group-Copy-3" transform="translate(16.000000, 0.000000)">
                    <g id="Group-26-Copy-4"></g>
                </g>
                <circle id="Oval-2-Copy-5" stroke="#FFFFFF" stroke-width="0.5" fill="#FF6D00" cx="28.5" cy="12.5" r="12.5"></circle>
                <g id="Combined-Shape">
                    <use fill="black" fill-opacity="1" filter="url(#filter-2)" xlink:href="#path-1"></use>
                    <use fill="#263238" fill-rule="evenodd" xlink:href="#path-1"></use>
                </g>
                <rect id="Rectangle-2-Copy-4" fill="#263238" x="0" y="6" width="57" height="14" rx="7"></rect>
            </g>
            <path d="M26.2558594,13.1367188 C26.2558594,14.082036 26.0214867,14.8085912 25.5527344,15.3164062 C25.083982,15.8242213 24.4121137,16.078125 23.5371094,16.078125 C22.662105,16.078125 21.9902367,15.8242213 21.5214844,15.3164062 C21.052732,14.8085912 20.8183594,14.0794318 20.8183594,13.1289062 C20.8183594,12.1783807 21.0533831,11.4524765 21.5234375,10.9511719 C21.9934919,10.4498673 22.6673133,10.1992188 23.5449219,10.1992188 C24.4225304,10.1992188 25.0937477,10.4518204 25.5585938,10.9570312 C26.0234398,11.4622421 26.2558594,12.1887973 26.2558594,13.1367188 Z M22.0878906,13.1367188 C22.0878906,13.7747428 22.2089832,14.2552067 22.4511719,14.578125 C22.6933606,14.9010433 23.0553361,15.0625 23.5371094,15.0625 C24.50326,15.0625 24.9863281,14.4205793 24.9863281,13.1367188 C24.9863281,11.850254 24.5058642,11.2070312 23.5449219,11.2070312 C23.0631486,11.2070312 22.699871,11.369139 22.4550781,11.6933594 C22.2102852,12.0175797 22.0878906,12.4986947 22.0878906,13.1367188 Z M30.8105469,14.4140625 C30.8105469,14.9296901 30.6250019,15.335936 30.2539062,15.6328125 C29.8828106,15.929689 29.3665398,16.078125 28.7050781,16.078125 C28.0957001,16.078125 27.556643,15.9635428 27.0878906,15.734375 L27.0878906,14.609375 C27.4733092,14.7812509 27.7994778,14.9023434 28.0664062,14.9726562 C28.3333347,15.0429691 28.5774729,15.078125 28.7988281,15.078125 C29.0644545,15.078125 29.2682285,15.0273443 29.4101562,14.9257812 C29.552084,14.8242182 29.6230469,14.6731781 29.6230469,14.4726562 C29.6230469,14.3606765 29.5917972,14.2610681 29.5292969,14.1738281 C29.4667966,14.0865881 29.3750006,14.0026046 29.2539062,13.921875 C29.1328119,13.8411454 28.8860696,13.7122405 28.5136719,13.5351562 C28.1647118,13.3710929 27.9029957,13.2135424 27.7285156,13.0625 C27.5540356,12.9114576 27.4147141,12.7356781 27.3105469,12.5351562 C27.2063797,12.3346344 27.1542969,12.1002618 27.1542969,11.8320312 C27.1542969,11.3268204 27.3255191,10.9296889 27.6679688,10.640625 C28.0104184,10.3515611 28.4837209,10.2070312 29.0878906,10.2070312 C29.3847671,10.2070312 29.6679674,10.2421871 29.9375,10.3125 C30.2070326,10.3828129 30.4889308,10.4817702 30.7832031,10.609375 L30.3925781,11.5507812 C30.0878891,11.4257806 29.8359385,11.3385419 29.6367188,11.2890625 C29.437499,11.2395831 29.2415374,11.2148438 29.0488281,11.2148438 C28.8196603,11.2148438 28.6438808,11.2682286 28.5214844,11.375 C28.3990879,11.4817714 28.3378906,11.6210929 28.3378906,11.7929688 C28.3378906,11.8997401 28.36263,11.9928381 28.4121094,12.0722656 C28.4615888,12.1516931 28.540364,12.2285153 28.6484375,12.3027344 C28.756511,12.3769535 29.0123678,12.5104157 29.4160156,12.703125 C29.9498725,12.9583346 30.3157542,13.2141914 30.5136719,13.4707031 C30.7115895,13.7272148 30.8105469,14.0416648 30.8105469,14.4140625 Z M35.3417969,16 L34.9277344,14.640625 L32.8457031,14.640625 L32.4316406,16 L31.1269531,16 L33.1425781,10.265625 L34.6230469,10.265625 L36.6464844,16 L35.3417969,16 Z M34.6386719,13.625 C34.2558575,12.393223 34.0403648,11.6966154 33.9921875,11.5351562 C33.9440102,11.3736971 33.9095053,11.2460942 33.8886719,11.1523438 C33.8027339,11.4856787 33.5566427,12.3098893 33.1503906,13.625 L34.6386719,13.625 Z" fill="#FFFFFF"></path>
        </g>
    </g>
</svg>