<?xml version="1.0" encoding="UTF-8"?>
<svg width="65px" height="27px" viewBox="0 0 65 27" version="1.1" xmlns="http://www.w3.org/2000/svg" xmlns:xlink="http://www.w3.org/1999/xlink">
    <!-- Generator: Sketch 48.2 (47327) - http://www.bohemiancoding.com/sketch -->
    <title>pacuare</title>
    <desc>Created with Sketch.</desc>
    <defs>
        <path d="M17.8208049,6 C16.6655751,7.89393294 16,10.1192398 16,12.5 C16,15.3140148 16.9298621,17.9108487 18.4990845,20 L7,20 C3.13400675,20 4.73447626e-16,16.8659932 0,13 C-4.73447626e-16,9.13400675 3.13400675,6 7,6 L17.8208049,6 Z M39.1791951,6 L50,6 C53.8659932,6 57,9.13400675 57,13 C57,16.8659932 53.8659932,20 50,20 L38.5009155,20 C40.0701379,17.9108487 41,15.3140148 41,12.5 C41,10.1192398 40.3344249,7.89393294 39.1791951,6 Z" id="path-1"></path>
        <filter x="-11.4%" y="-39.3%" width="122.8%" height="192.9%" filterUnits="objectBoundingBox" id="filter-2">
            <feOffset dx="0" dy="1" in="SourceAlpha" result="shadowOffsetOuter1"></feOffset>
            <feGaussianBlur stdDeviation="2" in="shadowOffsetOuter1" result="shadowBlurOuter1"></feGaussianBlur>
            <feColorMatrix values="0 0 0 0 0   0 0 0 0 0   0 0 0 0 0  0 0 0 0.5 0" type="matrix" in="shadowBlurOuter1"></feColorMatrix>
        </filter>
    </defs>
    <g id="Volcanes-fallas" stroke="none" stroke-width="1" fill="none" fill-rule="evenodd">
        <g id="pacuare" transform="translate(4.000000, 1.000000)">
            <g id="ic_volcano_label-copy-19">
                <g id="Group-Copy-3" transform="translate(16.000000, 0.000000)">
                    <g id="Group-26-Copy-4"></g>
                </g>
                <circle id="Oval-2-Copy-5" stroke="#FFFFFF" stroke-width="0.5" fill="#FF6D00" cx="28.5" cy="12.5" r="12.5"></circle>
                <g id="Combined-Shape">
                    <use fill="black" fill-opacity="1" filter="url(#filter-2)" xlink:href="#path-1"></use>
                    <use fill="#263238" fill-rule="evenodd" xlink:href="#path-1"></use>
                </g>
                <rect id="Rectangle-2-Copy-4" fill="#263238" x="0" y="6" width="57" height="14" rx="7"></rect>
            </g>
            <path d="M12.2636719,12.9765625 L12.6621094,12.9765625 C13.0345071,12.9765625 13.3131501,12.9029955 13.4980469,12.7558594 C13.6829436,12.6087232 13.7753906,12.3945327 13.7753906,12.1132812 C13.7753906,11.8294257 13.6979174,11.6197923 13.5429688,11.484375 C13.3880201,11.3489577 13.1451839,11.28125 12.8144531,11.28125 L12.2636719,11.28125 L12.2636719,12.9765625 Z M14.9980469,12.0703125 C14.9980469,12.6848989 14.8059915,13.1549463 14.421875,13.4804688 C14.0377585,13.8059912 13.49154,13.96875 12.7832031,13.96875 L12.2636719,13.96875 L12.2636719,16 L11.0527344,16 L11.0527344,10.2890625 L12.8769531,10.2890625 C13.5696649,10.2890625 14.0963524,10.4381496 14.4570312,10.7363281 C14.8177101,11.0345067 14.9980469,11.4791637 14.9980469,12.0703125 Z M19.1738281,16 L18.7597656,14.640625 L16.6777344,14.640625 L16.2636719,16 L14.9589844,16 L16.9746094,10.265625 L18.4550781,10.265625 L20.4785156,16 L19.1738281,16 Z M18.4707031,13.625 C18.0878887,12.393223 17.8723961,11.6966154 17.8242188,11.5351562 C17.7760414,11.3736971 17.7415366,11.2460942 17.7207031,11.1523438 C17.6347652,11.4856787 17.3886739,12.3098893 16.9824219,13.625 L18.4707031,13.625 Z M23.4628906,11.2148438 C23.0071592,11.2148438 22.6542981,11.386066 22.4042969,11.7285156 C22.1542956,12.0709653 22.0292969,12.548174 22.0292969,13.1601562 C22.0292969,14.4336001 22.5071567,15.0703125 23.4628906,15.0703125 C23.8639343,15.0703125 24.3496065,14.9700531 24.9199219,14.7695312 L24.9199219,15.7851562 C24.4511695,15.9804697 23.9277373,16.078125 23.3496094,16.078125 C22.5188761,16.078125 21.8834657,15.8261744 21.4433594,15.3222656 C21.003253,14.8183569 20.7832031,14.0950568 20.7832031,13.1523438 C20.7832031,12.5585908 20.891275,12.0384137 21.1074219,11.5917969 C21.3235688,11.1451801 21.6341126,10.8027356 22.0390625,10.5644531 C22.4440124,10.3261707 22.9186171,10.2070312 23.4628906,10.2070312 C24.0175809,10.2070312 24.574867,10.3411445 25.1347656,10.609375 L24.7441406,11.59375 C24.5305979,11.492187 24.3157563,11.4036462 24.0996094,11.328125 C23.8834625,11.2526038 23.671225,11.2148438 23.4628906,11.2148438 Z M30.7832031,10.2890625 L30.7832031,13.984375 C30.7832031,14.4062521 30.688803,14.7760401 30.5,15.09375 C30.311197,15.4114599 30.0384132,15.6549471 29.6816406,15.8242188 C29.324868,15.9934904 28.9029972,16.078125 28.4160156,16.078125 C27.681637,16.078125 27.1113302,15.8899758 26.7050781,15.5136719 C26.2988261,15.1373679 26.0957031,14.6223991 26.0957031,13.96875 L26.0957031,10.2890625 L27.3027344,10.2890625 L27.3027344,13.7851562 C27.3027344,14.2252626 27.3912752,14.5481761 27.5683594,14.7539062 C27.7454436,14.9596364 28.0384094,15.0625 28.4472656,15.0625 C28.8431009,15.0625 29.1302074,14.9589854 29.3085938,14.7519531 C29.4869801,14.5449208 29.5761719,14.2200543 29.5761719,13.7773438 L29.5761719,10.2890625 L30.7832031,10.2890625 Z M35.5996094,16 L35.1855469,14.640625 L33.1035156,14.640625 L32.6894531,16 L31.3847656,16 L33.4003906,10.265625 L34.8808594,10.265625 L36.9042969,16 L35.5996094,16 Z M34.8964844,13.625 C34.51367,12.393223 34.2981773,11.6966154 34.25,11.5351562 C34.2018227,11.3736971 34.1673178,11.2460942 34.1464844,11.1523438 C34.0605464,11.4856787 33.8144552,12.3098893 33.4082031,13.625 L34.8964844,13.625 Z M38.8339844,12.8242188 L39.2246094,12.8242188 C39.6074238,12.8242188 39.889973,12.7604173 40.0722656,12.6328125 C40.2545582,12.5052077 40.3457031,12.3046889 40.3457031,12.03125 C40.3457031,11.7604153 40.2526051,11.5677089 40.0664062,11.453125 C39.8802074,11.3385411 39.5917988,11.28125 39.2011719,11.28125 L38.8339844,11.28125 L38.8339844,12.8242188 Z M38.8339844,13.8085938 L38.8339844,16 L37.6230469,16 L37.6230469,10.2890625 L39.2871094,10.2890625 C40.0631549,10.2890625 40.6373679,10.4303371 41.0097656,10.7128906 C41.3821633,10.9954441 41.5683594,11.4244763 41.5683594,12 C41.5683594,12.3359392 41.4759124,12.6347643 41.2910156,12.8964844 C41.1061189,13.1582044 40.8444027,13.3632805 40.5058594,13.5117188 C41.3652387,14.7955793 41.9251289,15.6249981 42.1855469,16 L40.8417969,16 L39.4785156,13.8085938 L38.8339844,13.8085938 Z M46.1933594,16 L42.9042969,16 L42.9042969,10.2890625 L46.1933594,10.2890625 L46.1933594,11.28125 L44.1152344,11.28125 L44.1152344,12.5351562 L46.0488281,12.5351562 L46.0488281,13.5273438 L44.1152344,13.5273438 L44.1152344,15 L46.1933594,15 L46.1933594,16 Z" fill="#FFFFFF"></path>
        </g>
    </g>
</svg>