<?xml version="1.0" encoding="UTF-8"?>
<svg width="65px" height="27px" viewBox="0 0 65 27" version="1.1" xmlns="http://www.w3.org/2000/svg" xmlns:xlink="http://www.w3.org/1999/xlink">
    <!-- Generator: Sketch 48.2 (47327) - http://www.bohemiancoding.com/sketch -->
    <title>paquita</title>
    <desc>Created with Sketch.</desc>
    <defs>
        <path d="M17.8208049,6 C16.6655751,7.89393294 16,10.1192398 16,12.5 C16,15.3140148 16.9298621,17.9108487 18.4990845,20 L7,20 C3.13400675,20 4.73447626e-16,16.8659932 0,13 C-4.73447626e-16,9.13400675 3.13400675,6 7,6 L17.8208049,6 Z M39.1791951,6 L50,6 C53.8659932,6 57,9.13400675 57,13 C57,16.8659932 53.8659932,20 50,20 L38.5009155,20 C40.0701379,17.9108487 41,15.3140148 41,12.5 C41,10.1192398 40.3344249,7.89393294 39.1791951,6 Z" id="path-1"></path>
        <filter x="-11.4%" y="-39.3%" width="122.8%" height="192.9%" filterUnits="objectBoundingBox" id="filter-2">
            <feOffset dx="0" dy="1" in="SourceAlpha" result="shadowOffsetOuter1"></feOffset>
            <feGaussianBlur stdDeviation="2" in="shadowOffsetOuter1" result="shadowBlurOuter1"></feGaussianBlur>
            <feColorMatrix values="0 0 0 0 0   0 0 0 0 0   0 0 0 0 0  0 0 0 0.5 0" type="matrix" in="shadowBlurOuter1"></feColorMatrix>
        </filter>
    </defs>
    <g id="Volcanes-fallas" stroke="none" stroke-width="1" fill="none" fill-rule="evenodd">
        <g id="paquita" transform="translate(4.000000, 1.000000)">
            <g id="ic_volcano_label-copy-19">
                <g id="Group-Copy-3" transform="translate(16.000000, 0.000000)">
                    <g id="Group-26-Copy-4"></g>
                </g>
                <circle id="Oval-2-Copy-5" stroke="#FFFFFF" stroke-width="0.5" fill="#FF6D00" cx="28.5" cy="12.5" r="12.5"></circle>
                <g id="Combined-Shape">
                    <use fill="black" fill-opacity="1" filter="url(#filter-2)" xlink:href="#path-1"></use>
                    <use fill="#263238" fill-rule="evenodd" xlink:href="#path-1"></use>
                </g>
                <rect id="Rectangle-2-Copy-4" fill="#263238" x="0" y="6" width="57" height="14" rx="7"></rect>
            </g>
            <path d="M13.109375,12.9765625 L13.5078125,12.9765625 C13.8802102,12.9765625 14.1588532,12.9029955 14.34375,12.7558594 C14.5286468,12.6087232 14.6210938,12.3945327 14.6210938,12.1132812 C14.6210938,11.8294257 14.5436206,11.6197923 14.3886719,11.484375 C14.2337232,11.3489577 13.9908871,11.28125 13.6601562,11.28125 L13.109375,11.28125 L13.109375,12.9765625 Z M15.84375,12.0703125 C15.84375,12.6848989 15.6516946,13.1549463 15.2675781,13.4804688 C14.8834616,13.8059912 14.3372431,13.96875 13.6289062,13.96875 L13.109375,13.96875 L13.109375,16 L11.8984375,16 L11.8984375,10.2890625 L13.7226562,10.2890625 C14.415368,10.2890625 14.9420555,10.4381496 15.3027344,10.7363281 C15.6634133,11.0345067 15.84375,11.4791637 15.84375,12.0703125 Z M20.0195312,16 L19.6054688,14.640625 L17.5234375,14.640625 L17.109375,16 L15.8046875,16 L17.8203125,10.265625 L19.3007812,10.265625 L21.3242188,16 L20.0195312,16 Z M19.3164062,13.625 C18.9335918,12.393223 18.7180992,11.6966154 18.6699219,11.5351562 C18.6217446,11.3736971 18.5872397,11.2460942 18.5664062,11.1523438 C18.4804683,11.4856787 18.234377,12.3098893 17.828125,13.625 L19.3164062,13.625 Z M27.0664062,13.1367188 C27.0664062,13.8085971 26.9472668,14.3717425 26.7089844,14.8261719 C26.4707019,15.2806012 26.1210961,15.6132802 25.6601562,15.8242188 L27.0351562,17.359375 L25.484375,17.359375 L24.4375,16.078125 L24.3476562,16.078125 C23.4726519,16.078125 22.8007836,15.8242213 22.3320312,15.3164062 C21.8632789,14.8085912 21.6289062,14.0794318 21.6289062,13.1289062 C21.6289062,12.1783807 21.8639299,11.4524765 22.3339844,10.9511719 C22.8040388,10.4498673 23.4778602,10.1992188 24.3554688,10.1992188 C25.2330773,10.1992188 25.9042946,10.4518204 26.3691406,10.9570312 C26.8339867,11.4622421 27.0664062,12.1887973 27.0664062,13.1367188 Z M22.8984375,13.1367188 C22.8984375,13.7747428 23.01953,14.2552067 23.2617188,14.578125 C23.5039075,14.9010433 23.865883,15.0625 24.3476562,15.0625 C25.3138069,15.0625 25.796875,14.4205793 25.796875,13.1367188 C25.796875,11.850254 25.3164111,11.2070312 24.3554688,11.2070312 C23.8736955,11.2070312 23.5104179,11.369139 23.265625,11.6933594 C23.0208321,12.0175797 22.8984375,12.4986947 22.8984375,13.1367188 Z M32.8984375,10.2890625 L32.8984375,13.984375 C32.8984375,14.4062521 32.8040374,14.7760401 32.6152344,15.09375 C32.4264313,15.4114599 32.1536476,15.6549471 31.796875,15.8242188 C31.4401024,15.9934904 31.0182316,16.078125 30.53125,16.078125 C29.7968713,16.078125 29.2265645,15.8899758 28.8203125,15.5136719 C28.4140605,15.1373679 28.2109375,14.6223991 28.2109375,13.96875 L28.2109375,10.2890625 L29.4179688,10.2890625 L29.4179688,13.7851562 C29.4179688,14.2252626 29.5065095,14.5481761 29.6835938,14.7539062 C29.860678,14.9596364 30.1536438,15.0625 30.5625,15.0625 C30.9583353,15.0625 31.2454418,14.9589854 31.4238281,14.7519531 C31.6022144,14.5449208 31.6914062,14.2200543 31.6914062,13.7773438 L31.6914062,10.2890625 L32.8984375,10.2890625 Z M34.296875,16 L34.296875,10.2890625 L35.5078125,10.2890625 L35.5078125,16 L34.296875,16 Z M39.1484375,16 L37.9375,16 L37.9375,11.296875 L36.3867188,11.296875 L36.3867188,10.2890625 L40.6992188,10.2890625 L40.6992188,11.296875 L39.1484375,11.296875 L39.1484375,16 Z M44.515625,16 L44.1015625,14.640625 L42.0195312,14.640625 L41.6054688,16 L40.3007812,16 L42.3164062,10.265625 L43.796875,10.265625 L45.8203125,16 L44.515625,16 Z M43.8125,13.625 C43.4296856,12.393223 43.2141929,11.6966154 43.1660156,11.5351562 C43.1178383,11.3736971 43.0833334,11.2460942 43.0625,11.1523438 C42.9765621,11.4856787 42.7304708,12.3098893 42.3242188,13.625 L43.8125,13.625 Z" fill="#FFFFFF"></path>
        </g>
    </g>
</svg>