<?xml version="1.0" encoding="UTF-8"?>
<svg width="88px" height="27px" viewBox="0 0 88 27" version="1.1" xmlns="http://www.w3.org/2000/svg" xmlns:xlink="http://www.w3.org/1999/xlink">
    <!-- Generator: Sketch 48.2 (47327) - http://www.bohemiancoding.com/sketch -->
    <title>peñas_blancas</title>
    <desc>Created with Sketch.</desc>
    <defs>
        <path d="M30.6751405,6 C29.6123291,7.89393294 29,10.1192398 29,12.5 C29,15.3140148 29.8554731,17.9108487 31.2991578,20 L9,20 C5.13400675,20 2,16.8659932 2,13 C2,9.13400675 5.13400675,6 9,6 L30.6751405,6 Z M50.3248595,6 L72,6 C75.8659932,6 79,9.13400675 79,13 C79,16.8659932 75.8659932,20 72,20 L49.7008422,20 C51.1445269,17.9108487 52,15.3140148 52,12.5 C52,10.1192398 51.3876709,7.89393294 50.3248595,6 Z" id="path-1"></path>
        <filter x="-8.4%" y="-39.3%" width="116.9%" height="192.9%" filterUnits="objectBoundingBox" id="filter-2">
            <feOffset dx="0" dy="1" in="SourceAlpha" result="shadowOffsetOuter1"></feOffset>
            <feGaussianBlur stdDeviation="2" in="shadowOffsetOuter1" result="shadowBlurOuter1"></feGaussianBlur>
            <feColorMatrix values="0 0 0 0 0   0 0 0 0 0   0 0 0 0 0  0 0 0 0.5 0" type="matrix" in="shadowBlurOuter1"></feColorMatrix>
        </filter>
        <rect id="path-3" x="0" y="6" width="80" height="14" rx="7"></rect>
        <filter x="-8.1%" y="-39.3%" width="116.2%" height="192.9%" filterUnits="objectBoundingBox" id="filter-4">
            <feOffset dx="0" dy="1" in="SourceAlpha" result="shadowOffsetOuter1"></feOffset>
            <feGaussianBlur stdDeviation="2" in="shadowOffsetOuter1" result="shadowBlurOuter1"></feGaussianBlur>
            <feColorMatrix values="0 0 0 0 0   0 0 0 0 0   0 0 0 0 0  0 0 0 0.5 0" type="matrix" in="shadowBlurOuter1"></feColorMatrix>
        </filter>
    </defs>
    <g id="Volcanes-fallas" stroke="none" stroke-width="1" fill="none" fill-rule="evenodd">
        <g id="peñas_blancas" transform="translate(4.000000, 1.000000)">
            <g id="ic_volcano_label-copy-18">
                <g id="Group-Copy-3">
                    <g id="Group-26-Copy-4" transform="translate(28.000000, 0.000000)" fill="#FF6D00" stroke="#FFFFFF" stroke-width="0.5">
                        <circle id="Oval-2-Copy-5" cx="12.5" cy="12.5" r="12.5"></circle>
                    </g>
                    <g id="Combined-Shape">
                        <use fill="black" fill-opacity="1" filter="url(#filter-2)" xlink:href="#path-1"></use>
                        <use fill="#263238" fill-rule="evenodd" xlink:href="#path-1"></use>
                    </g>
                    <g id="Rectangle-2-Copy-4">
                        <use fill="black" fill-opacity="1" filter="url(#filter-4)" xlink:href="#path-3"></use>
                        <use fill="#263238" fill-rule="evenodd" xlink:href="#path-3"></use>
                    </g>
                </g>
                <path d="M9.453125,12.9765625 L9.8515625,12.9765625 C10.2239602,12.9765625 10.5026032,12.9029955 10.6875,12.7558594 C10.8723968,12.6087232 10.9648438,12.3945327 10.9648438,12.1132812 C10.9648438,11.8294257 10.8873706,11.6197923 10.7324219,11.484375 C10.5774732,11.3489577 10.3346371,11.28125 10.0039062,11.28125 L9.453125,11.28125 L9.453125,12.9765625 Z M12.1875,12.0703125 C12.1875,12.6848989 11.9954446,13.1549463 11.6113281,13.4804688 C11.2272116,13.8059912 10.6809931,13.96875 9.97265625,13.96875 L9.453125,13.96875 L9.453125,16 L8.2421875,16 L8.2421875,10.2890625 L10.0664062,10.2890625 C10.759118,10.2890625 11.2858055,10.4381496 11.6464844,10.7363281 C12.0071633,11.0345067 12.1875,11.4791637 12.1875,12.0703125 Z M16.5546875,16 L13.265625,16 L13.265625,10.2890625 L16.5546875,10.2890625 L16.5546875,11.28125 L14.4765625,11.28125 L14.4765625,12.5351562 L16.4101562,12.5351562 L16.4101562,13.5273438 L14.4765625,13.5273438 L14.4765625,15 L16.5546875,15 L16.5546875,16 Z M22.8125,16 L21.2734375,16 L18.7890625,11.6796875 L18.7539062,11.6796875 C18.8033857,12.4427121 18.828125,12.9869775 18.828125,13.3125 L18.828125,16 L17.7460938,16 L17.7460938,10.2890625 L19.2734375,10.2890625 L21.7539062,14.5664062 L21.78125,14.5664062 C21.7421873,13.824215 21.7226563,13.2994807 21.7226563,12.9921875 L21.7226563,10.2890625 L22.8125,10.2890625 L22.8125,16 Z M19.6367188,9.421875 C19.5559892,9.421875 19.478516,9.45637986 19.4042969,9.52539062 C19.3300778,9.59440139 19.2760418,9.69921805 19.2421875,9.83984375 L18.6601562,9.83984375 C18.6888022,9.4622377 18.796223,9.16666773 18.9824219,8.953125 C19.1686207,8.73958227 19.415363,8.6328125 19.7226562,8.6328125 C19.8294276,8.6328125 19.9342443,8.65429666 20.0371094,8.69726562 C20.1399745,8.74023459 20.241536,8.78710912 20.3417969,8.83789062 C20.4420578,8.88867213 20.5403641,8.93489563 20.6367188,8.9765625 C20.7330734,9.01822938 20.8281245,9.0390625 20.921875,9.0390625 C21.0026046,9.0390625 21.0800778,9.00520867 21.1542969,8.9375 C21.228516,8.86979133 21.2825519,8.7656257 21.3164062,8.625 L21.8984375,8.625 C21.8697915,9.00260605 21.7610687,9.29817602 21.5722656,9.51171875 C21.3834626,9.72526148 21.1380223,9.83203125 20.8359375,9.83203125 C20.7291661,9.83203125 20.6243495,9.81054709 20.5214844,9.76757812 C20.4186193,9.72460916 20.3170578,9.67773463 20.2167969,9.62695312 C20.116536,9.57617162 20.0182296,9.52929709 19.921875,9.48632812 C19.8255204,9.44335916 19.7304692,9.421875 19.6367188,9.421875 Z M27.7460938,16 L27.3320312,14.640625 L25.25,14.640625 L24.8359375,16 L23.53125,16 L25.546875,10.265625 L27.0273438,10.265625 L29.0507812,16 L27.7460938,16 Z M27.0429688,13.625 C26.6601543,12.393223 26.4446617,11.6966154 26.3964844,11.5351562 C26.3483071,11.3736971 26.3138022,11.2460942 26.2929688,11.1523438 C26.2070308,11.4856787 25.9609395,12.3098893 25.5546875,13.625 L27.0429688,13.625 Z M33.140625,14.4140625 C33.140625,14.9296901 32.95508,15.335936 32.5839844,15.6328125 C32.2128888,15.929689 31.6966179,16.078125 31.0351562,16.078125 C30.4257782,16.078125 29.8867211,15.9635428 29.4179688,15.734375 L29.4179688,14.609375 C29.8033873,14.7812509 30.129556,14.9023434 30.3964844,14.9726562 C30.6634128,15.0429691 30.907551,15.078125 31.1289062,15.078125 C31.3945326,15.078125 31.5983066,15.0273443 31.7402344,14.9257812 C31.8821622,14.8242182 31.953125,14.6731781 31.953125,14.4726562 C31.953125,14.3606765 31.9218753,14.2610681 31.859375,14.1738281 C31.7968747,14.0865881 31.7050787,14.0026046 31.5839844,13.921875 C31.46289,13.8411454 31.2161477,13.7122405 30.84375,13.5351562 C30.4947899,13.3710929 30.2330738,13.2135424 30.0585938,13.0625 C29.8841137,12.9114576 29.7447922,12.7356781 29.640625,12.5351562 C29.5364578,12.3346344 29.484375,12.1002618 29.484375,11.8320312 C29.484375,11.3268204 29.6555972,10.9296889 29.9980469,10.640625 C30.3404965,10.3515611 30.8137991,10.2070312 31.4179688,10.2070312 C31.7148452,10.2070312 31.9980455,10.2421871 32.2675781,10.3125 C32.5371107,10.3828129 32.8190089,10.4817702 33.1132812,10.609375 L32.7226562,11.5507812 C32.4179672,11.4257806 32.1660166,11.3385419 31.9667969,11.2890625 C31.7675771,11.2395831 31.5716155,11.2148438 31.3789062,11.2148438 C31.1497384,11.2148438 30.9739589,11.2682286 30.8515625,11.375 C30.7291661,11.4817714 30.6679688,11.6210929 30.6679688,11.7929688 C30.6679688,11.8997401 30.6927081,11.9928381 30.7421875,12.0722656 C30.7916669,12.1516931 30.8704422,12.2285153 30.9785156,12.3027344 C31.0865891,12.3769535 31.3424459,12.5104157 31.7460938,12.703125 C32.2799506,12.9583346 32.6458323,13.2141914 32.84375,13.4707031 C33.0416677,13.7272148 33.140625,14.0416648 33.140625,14.4140625 Z M36.2539062,10.2890625 L38.03125,10.2890625 C38.8411499,10.2890625 39.4290346,10.4042957 39.7949219,10.6347656 C40.1608091,10.8652355 40.34375,11.2317683 40.34375,11.734375 C40.34375,12.0755225 40.2636727,12.3554677 40.1035156,12.5742188 C39.9433586,12.7929698 39.7304701,12.9244789 39.4648438,12.96875 L39.4648438,13.0078125 C39.8268247,13.0885421 40.0878898,13.2395822 40.2480469,13.4609375 C40.4082039,13.6822928 40.4882812,13.9765607 40.4882812,14.34375 C40.4882812,14.8645859 40.3001321,15.2708319 39.9238281,15.5625 C39.5475242,15.8541681 39.0364616,16 38.390625,16 L36.2539062,16 L36.2539062,10.2890625 Z M37.4648438,12.5507812 L38.1679688,12.5507812 C38.4960954,12.5507812 38.7337232,12.5000005 38.8808594,12.3984375 C39.0279955,12.2968745 39.1015625,12.1289074 39.1015625,11.8945312 C39.1015625,11.6757802 39.0214852,11.5188807 38.8613281,11.4238281 C38.7011711,11.3287756 38.4479184,11.28125 38.1015625,11.28125 L37.4648438,11.28125 L37.4648438,12.5507812 Z M37.4648438,13.5117188 L37.4648438,15 L38.2539062,15 C38.5872413,15 38.8333325,14.9361986 38.9921875,14.8085938 C39.1510425,14.6809889 39.2304688,14.4856784 39.2304688,14.2226562 C39.2304688,13.7486955 38.8919305,13.5117188 38.2148438,13.5117188 L37.4648438,13.5117188 Z M41.6289062,16 L41.6289062,10.2890625 L42.8398438,10.2890625 L42.8398438,15 L45.15625,15 L45.15625,16 L41.6289062,16 Z M49.6445312,16 L49.2304688,14.640625 L47.1484375,14.640625 L46.734375,16 L45.4296875,16 L47.4453125,10.265625 L48.9257812,10.265625 L50.9492188,16 L49.6445312,16 Z M48.9414062,13.625 C48.5585918,12.393223 48.3430992,11.6966154 48.2949219,11.5351562 C48.2467446,11.3736971 48.2122397,11.2460942 48.1914062,11.1523438 C48.1054683,11.4856787 47.859377,12.3098893 47.453125,13.625 L48.9414062,13.625 Z M56.734375,16 L55.1953125,16 L52.7109375,11.6796875 L52.6757813,11.6796875 C52.7252607,12.4427121 52.75,12.9869775 52.75,13.3125 L52.75,16 L51.6679688,16 L51.6679688,10.2890625 L53.1953125,10.2890625 L55.6757813,14.5664062 L55.703125,14.5664062 C55.6640623,13.824215 55.6445313,13.2994807 55.6445313,12.9921875 L55.6445313,10.2890625 L56.734375,10.2890625 L56.734375,16 Z M60.5976563,11.2148438 C60.1419248,11.2148438 59.7890638,11.386066 59.5390625,11.7285156 C59.2890613,12.0709653 59.1640625,12.548174 59.1640625,13.1601562 C59.1640625,14.4336001 59.6419223,15.0703125 60.5976563,15.0703125 C60.9986999,15.0703125 61.4843721,14.9700531 62.0546875,14.7695312 L62.0546875,15.7851562 C61.5859352,15.9804697 61.0625029,16.078125 60.484375,16.078125 C59.6536417,16.078125 59.0182314,15.8261744 58.578125,15.3222656 C58.1380186,14.8183569 57.9179688,14.0950568 57.9179688,13.1523438 C57.9179688,12.5585908 58.0260406,12.0384137 58.2421875,11.5917969 C58.4583344,11.1451801 58.7688782,10.8027356 59.1738281,10.5644531 C59.5787781,10.3261707 60.0533827,10.2070312 60.5976563,10.2070312 C61.1523465,10.2070312 61.7096326,10.3411445 62.2695313,10.609375 L61.8789063,11.59375 C61.6653635,11.492187 61.4505219,11.4036462 61.234375,11.328125 C61.0182281,11.2526038 60.8059906,11.2148438 60.5976563,11.2148438 Z M66.765625,16 L66.3515625,14.640625 L64.2695312,14.640625 L63.8554688,16 L62.5507812,16 L64.5664062,10.265625 L66.046875,10.265625 L68.0703125,16 L66.765625,16 Z M66.0625,13.625 C65.6796856,12.393223 65.4641929,11.6966154 65.4160156,11.5351562 C65.3678383,11.3736971 65.3333334,11.2460942 65.3125,11.1523438 C65.2265621,11.4856787 64.9804708,12.3098893 64.5742188,13.625 L66.0625,13.625 Z M72.1601562,14.4140625 C72.1601562,14.9296901 71.9746112,15.335936 71.6035156,15.6328125 C71.23242,15.929689 70.7161491,16.078125 70.0546875,16.078125 C69.4453095,16.078125 68.9062523,15.9635428 68.4375,15.734375 L68.4375,14.609375 C68.8229186,14.7812509 69.1490872,14.9023434 69.4160156,14.9726562 C69.682944,15.0429691 69.9270822,15.078125 70.1484375,15.078125 C70.4140638,15.078125 70.6178378,15.0273443 70.7597656,14.9257812 C70.9016934,14.8242182 70.9726562,14.6731781 70.9726562,14.4726562 C70.9726562,14.3606765 70.9414066,14.2610681 70.8789062,14.1738281 C70.8164059,14.0865881 70.72461,14.0026046 70.6035156,13.921875 C70.4824213,13.8411454 70.2356789,13.7122405 69.8632812,13.5351562 C69.5143212,13.3710929 69.252605,13.2135424 69.078125,13.0625 C68.903645,12.9114576 68.7643234,12.7356781 68.6601562,12.5351562 C68.5559891,12.3346344 68.5039062,12.1002618 68.5039062,11.8320312 C68.5039062,11.3268204 68.6751285,10.9296889 69.0175781,10.640625 C69.3600278,10.3515611 69.8333303,10.2070312 70.4375,10.2070312 C70.7343765,10.2070312 71.0175768,10.2421871 71.2871094,10.3125 C71.556642,10.3828129 71.8385402,10.4817702 72.1328125,10.609375 L71.7421875,11.5507812 C71.4374985,11.4257806 71.1855479,11.3385419 70.9863281,11.2890625 C70.7871084,11.2395831 70.5911468,11.2148438 70.3984375,11.2148438 C70.1692697,11.2148438 69.9934902,11.2682286 69.8710938,11.375 C69.7486973,11.4817714 69.6875,11.6210929 69.6875,11.7929688 C69.6875,11.8997401 69.7122393,11.9928381 69.7617188,12.0722656 C69.8111982,12.1516931 69.8899734,12.2285153 69.9980469,12.3027344 C70.1061203,12.3769535 70.3619771,12.5104157 70.765625,12.703125 C71.2994818,12.9583346 71.6653636,13.2141914 71.8632812,13.4707031 C72.0611989,13.7272148 72.1601562,14.0416648 72.1601562,14.4140625 Z" id="peñas-blancas" fill="#FFFFFF"></path>
            </g>
        </g>
    </g>
</svg>