<?xml version="1.0" encoding="UTF-8"?>
<svg width="65px" height="27px" viewBox="0 0 65 27" version="1.1" xmlns="http://www.w3.org/2000/svg" xmlns:xlink="http://www.w3.org/1999/xlink">
    <!-- Generator: Sketch 48.2 (47327) - http://www.bohemiancoding.com/sketch -->
    <title>picagres</title>
    <desc>Created with Sketch.</desc>
    <defs>
        <path d="M17.8208049,6 C16.6655751,7.89393294 16,10.1192398 16,12.5 C16,15.3140148 16.9298621,17.9108487 18.4990845,20 L7,20 C3.13400675,20 4.73447626e-16,16.8659932 0,13 C-4.73447626e-16,9.13400675 3.13400675,6 7,6 L17.8208049,6 Z M39.1791951,6 L50,6 C53.8659932,6 57,9.13400675 57,13 C57,16.8659932 53.8659932,20 50,20 L38.5009155,20 C40.0701379,17.9108487 41,15.3140148 41,12.5 C41,10.1192398 40.3344249,7.89393294 39.1791951,6 Z" id="path-1"></path>
        <filter x="-11.4%" y="-39.3%" width="122.8%" height="192.9%" filterUnits="objectBoundingBox" id="filter-2">
            <feOffset dx="0" dy="1" in="SourceAlpha" result="shadowOffsetOuter1"></feOffset>
            <feGaussianBlur stdDeviation="2" in="shadowOffsetOuter1" result="shadowBlurOuter1"></feGaussianBlur>
            <feColorMatrix values="0 0 0 0 0   0 0 0 0 0   0 0 0 0 0  0 0 0 0.5 0" type="matrix" in="shadowBlurOuter1"></feColorMatrix>
        </filter>
    </defs>
    <g id="Volcanes-fallas" stroke="none" stroke-width="1" fill="none" fill-rule="evenodd">
        <g id="picagres" transform="translate(4.000000, 1.000000)">
            <g id="ic_volcano_label-copy-19">
                <g id="Group-Copy-3" transform="translate(16.000000, 0.000000)">
                    <g id="Group-26-Copy-4"></g>
                </g>
                <circle id="Oval-2-Copy-5" stroke="#FFFFFF" stroke-width="0.5" fill="#FF6D00" cx="28.5" cy="12.5" r="12.5"></circle>
                <g id="Combined-Shape">
                    <use fill="black" fill-opacity="1" filter="url(#filter-2)" xlink:href="#path-1"></use>
                    <use fill="#263238" fill-rule="evenodd" xlink:href="#path-1"></use>
                </g>
                <rect id="Rectangle-2-Copy-4" fill="#263238" x="0" y="6" width="57" height="14" rx="7"></rect>
            </g>
            <path d="M11.3847656,12.9765625 L11.7832031,12.9765625 C12.1556008,12.9765625 12.4342439,12.9029955 12.6191406,12.7558594 C12.8040374,12.6087232 12.8964844,12.3945327 12.8964844,12.1132812 C12.8964844,11.8294257 12.8190112,11.6197923 12.6640625,11.484375 C12.5091138,11.3489577 12.2662777,11.28125 11.9355469,11.28125 L11.3847656,11.28125 L11.3847656,12.9765625 Z M14.1191406,12.0703125 C14.1191406,12.6848989 13.9270853,13.1549463 13.5429688,13.4804688 C13.1588522,13.8059912 12.6126338,13.96875 11.9042969,13.96875 L11.3847656,13.96875 L11.3847656,16 L10.1738281,16 L10.1738281,10.2890625 L11.9980469,10.2890625 C12.6907587,10.2890625 13.2174461,10.4381496 13.578125,10.7363281 C13.9388039,11.0345067 14.1191406,11.4791637 14.1191406,12.0703125 Z M15.1972656,16 L15.1972656,10.2890625 L16.4082031,10.2890625 L16.4082031,16 L15.1972656,16 Z M20.2714844,11.2148438 C19.8157529,11.2148438 19.4628919,11.386066 19.2128906,11.7285156 C18.9628894,12.0709653 18.8378906,12.548174 18.8378906,13.1601562 C18.8378906,14.4336001 19.3157504,15.0703125 20.2714844,15.0703125 C20.672528,15.0703125 21.1582003,14.9700531 21.7285156,14.7695312 L21.7285156,15.7851562 C21.2597633,15.9804697 20.736331,16.078125 20.1582031,16.078125 C19.3274698,16.078125 18.6920595,15.8261744 18.2519531,15.3222656 C17.8118468,14.8183569 17.5917969,14.0950568 17.5917969,13.1523438 C17.5917969,12.5585908 17.6998687,12.0384137 17.9160156,11.5917969 C18.1321625,11.1451801 18.4427063,10.8027356 18.8476562,10.5644531 C19.2526062,10.3261707 19.7272108,10.2070312 20.2714844,10.2070312 C20.8261746,10.2070312 21.3834607,10.3411445 21.9433594,10.609375 L21.5527344,11.59375 C21.3391916,11.492187 21.12435,11.4036462 20.9082031,11.328125 C20.6920562,11.2526038 20.4798187,11.2148438 20.2714844,11.2148438 Z M26.4394531,16 L26.0253906,14.640625 L23.9433594,14.640625 L23.5292969,16 L22.2246094,16 L24.2402344,10.265625 L25.7207031,10.265625 L27.7441406,16 L26.4394531,16 Z M25.7363281,13.625 C25.3535137,12.393223 25.1380211,11.6966154 25.0898438,11.5351562 C25.0416664,11.3736971 25.0071616,11.2460942 24.9863281,11.1523438 C24.9003902,11.4856787 24.6542989,12.3098893 24.2480469,13.625 L25.7363281,13.625 Z M30.4707031,12.7929688 L32.7363281,12.7929688 L32.7363281,15.7539062 C32.3691388,15.8736985 32.0234391,15.9576821 31.6992188,16.0058594 C31.3749984,16.0540367 31.0436215,16.078125 30.7050781,16.078125 C29.8430946,16.078125 29.1848981,15.8248723 28.7304688,15.3183594 C28.2760394,14.8118464 28.0488281,14.0846402 28.0488281,13.1367188 C28.0488281,12.2148391 28.3124974,11.4960963 28.8398438,10.9804688 C29.3671901,10.4648412 30.0983026,10.2070312 31.0332031,10.2070312 C31.6191436,10.2070312 32.1842421,10.3242176 32.7285156,10.5585938 L32.3261719,11.5273438 C31.9095031,11.3190094 31.4759137,11.2148438 31.0253906,11.2148438 C30.5019505,11.2148438 30.0826839,11.3906232 29.7675781,11.7421875 C29.4524724,12.0937518 29.2949219,12.5664033 29.2949219,13.1601562 C29.2949219,13.779951 29.4218737,14.2532536 29.6757812,14.5800781 C29.9296888,14.9069027 30.2988257,15.0703125 30.7832031,15.0703125 C31.0358086,15.0703125 31.2923164,15.0442711 31.5527344,14.9921875 L31.5527344,13.8007812 L30.4707031,13.8007812 L30.4707031,12.7929688 Z M35.3066406,12.8242188 L35.6972656,12.8242188 C36.08008,12.8242188 36.3626293,12.7604173 36.5449219,12.6328125 C36.7272145,12.5052077 36.8183594,12.3046889 36.8183594,12.03125 C36.8183594,11.7604153 36.7252613,11.5677089 36.5390625,11.453125 C36.3528637,11.3385411 36.0644551,11.28125 35.6738281,11.28125 L35.3066406,11.28125 L35.3066406,12.8242188 Z M35.3066406,13.8085938 L35.3066406,16 L34.0957031,16 L34.0957031,10.2890625 L35.7597656,10.2890625 C36.5358112,10.2890625 37.1100242,10.4303371 37.4824219,10.7128906 C37.8548196,10.9954441 38.0410156,11.4244763 38.0410156,12 C38.0410156,12.3359392 37.9485686,12.6347643 37.7636719,12.8964844 C37.5787751,13.1582044 37.317059,13.3632805 36.9785156,13.5117188 C37.8378949,14.7955793 38.3977852,15.6249981 38.6582031,16 L37.3144531,16 L35.9511719,13.8085938 L35.3066406,13.8085938 Z M42.6660156,16 L39.3769531,16 L39.3769531,10.2890625 L42.6660156,10.2890625 L42.6660156,11.28125 L40.5878906,11.28125 L40.5878906,12.5351562 L42.5214844,12.5351562 L42.5214844,13.5273438 L40.5878906,13.5273438 L40.5878906,15 L42.6660156,15 L42.6660156,16 Z M47.2285156,14.4140625 C47.2285156,14.9296901 47.0429706,15.335936 46.671875,15.6328125 C46.3007794,15.929689 45.7845085,16.078125 45.1230469,16.078125 C44.5136688,16.078125 43.9746117,15.9635428 43.5058594,15.734375 L43.5058594,14.609375 C43.891278,14.7812509 44.2174466,14.9023434 44.484375,14.9726562 C44.7513034,15.0429691 44.9954416,15.078125 45.2167969,15.078125 C45.4824232,15.078125 45.6861972,15.0273443 45.828125,14.9257812 C45.9700528,14.8242182 46.0410156,14.6731781 46.0410156,14.4726562 C46.0410156,14.3606765 46.0097659,14.2610681 45.9472656,14.1738281 C45.8847653,14.0865881 45.7929694,14.0026046 45.671875,13.921875 C45.5507806,13.8411454 45.3040383,13.7122405 44.9316406,13.5351562 C44.5826805,13.3710929 44.3209644,13.2135424 44.1464844,13.0625 C43.9720043,12.9114576 43.8326828,12.7356781 43.7285156,12.5351562 C43.6243484,12.3346344 43.5722656,12.1002618 43.5722656,11.8320312 C43.5722656,11.3268204 43.7434879,10.9296889 44.0859375,10.640625 C44.4283871,10.3515611 44.9016897,10.2070312 45.5058594,10.2070312 C45.8027359,10.2070312 46.0859362,10.2421871 46.3554688,10.3125 C46.6250013,10.3828129 46.9068996,10.4817702 47.2011719,10.609375 L46.8105469,11.5507812 C46.5058579,11.4257806 46.2539072,11.3385419 46.0546875,11.2890625 C45.8554678,11.2395831 45.6595062,11.2148438 45.4667969,11.2148438 C45.2376291,11.2148438 45.0618496,11.2682286 44.9394531,11.375 C44.8170567,11.4817714 44.7558594,11.6210929 44.7558594,11.7929688 C44.7558594,11.8997401 44.7805987,11.9928381 44.8300781,12.0722656 C44.8795575,12.1516931 44.9583328,12.2285153 45.0664062,12.3027344 C45.1744797,12.3769535 45.4303365,12.5104157 45.8339844,12.703125 C46.3678412,12.9583346 46.733723,13.2141914 46.9316406,13.4707031 C47.1295583,13.7272148 47.2285156,14.0416648 47.2285156,14.4140625 Z" fill="#FFFFFF"></path>
        </g>
    </g>
</svg>