<?xml version="1.0" encoding="UTF-8"?>
<svg width="65px" height="27px" viewBox="0 0 65 27" version="1.1" xmlns="http://www.w3.org/2000/svg" xmlns:xlink="http://www.w3.org/1999/xlink">
    <!-- Generator: Sketch 48.2 (47327) - http://www.bohemiancoding.com/sketch -->
    <title>porvenir</title>
    <desc>Created with Sketch.</desc>
    <defs>
        <path d="M17.8208049,6 C16.6655751,7.89393294 16,10.1192398 16,12.5 C16,15.3140148 16.9298621,17.9108487 18.4990845,20 L7,20 C3.13400675,20 4.73447626e-16,16.8659932 0,13 C-4.73447626e-16,9.13400675 3.13400675,6 7,6 L17.8208049,6 Z M39.1791951,6 L50,6 C53.8659932,6 57,9.13400675 57,13 C57,16.8659932 53.8659932,20 50,20 L38.5009155,20 C40.0701379,17.9108487 41,15.3140148 41,12.5 C41,10.1192398 40.3344249,7.89393294 39.1791951,6 Z" id="path-1"></path>
        <filter x="-11.4%" y="-39.3%" width="122.8%" height="192.9%" filterUnits="objectBoundingBox" id="filter-2">
            <feOffset dx="0" dy="1" in="SourceAlpha" result="shadowOffsetOuter1"></feOffset>
            <feGaussianBlur stdDeviation="2" in="shadowOffsetOuter1" result="shadowBlurOuter1"></feGaussianBlur>
            <feColorMatrix values="0 0 0 0 0   0 0 0 0 0   0 0 0 0 0  0 0 0 0.5 0" type="matrix" in="shadowBlurOuter1"></feColorMatrix>
        </filter>
    </defs>
    <g id="Volcanes-fallas" stroke="none" stroke-width="1" fill="none" fill-rule="evenodd">
        <g id="porvenir" transform="translate(4.000000, 1.000000)">
            <g id="ic_volcano_label-copy-19">
                <g id="Group-Copy-3" transform="translate(16.000000, 0.000000)">
                    <g id="Group-26-Copy-4"></g>
                </g>
                <circle id="Oval-2-Copy-5" stroke="#FFFFFF" stroke-width="0.5" fill="#FF6D00" cx="28.5" cy="12.5" r="12.5"></circle>
                <g id="Combined-Shape">
                    <use fill="black" fill-opacity="1" filter="url(#filter-2)" xlink:href="#path-1"></use>
                    <use fill="#263238" fill-rule="evenodd" xlink:href="#path-1"></use>
                </g>
                <rect id="Rectangle-2-Copy-4" fill="#263238" x="0" y="6" width="57" height="14" rx="7"></rect>
            </g>
            <path d="M10.0371094,12.9765625 L10.4355469,12.9765625 C10.8079446,12.9765625 11.0865876,12.9029955 11.2714844,12.7558594 C11.4563811,12.6087232 11.5488281,12.3945327 11.5488281,12.1132812 C11.5488281,11.8294257 11.4713549,11.6197923 11.3164062,11.484375 C11.1614576,11.3489577 10.9186214,11.28125 10.5878906,11.28125 L10.0371094,11.28125 L10.0371094,12.9765625 Z M12.7714844,12.0703125 C12.7714844,12.6848989 12.579429,13.1549463 12.1953125,13.4804688 C11.811196,13.8059912 11.2649775,13.96875 10.5566406,13.96875 L10.0371094,13.96875 L10.0371094,16 L8.82617188,16 L8.82617188,10.2890625 L10.6503906,10.2890625 C11.3431024,10.2890625 11.8697899,10.4381496 12.2304688,10.7363281 C12.5911476,11.0345067 12.7714844,11.4791637 12.7714844,12.0703125 Z M19.0332031,13.1367188 C19.0332031,14.082036 18.7988305,14.8085912 18.3300781,15.3164062 C17.8613258,15.8242213 17.1894575,16.078125 16.3144531,16.078125 C15.4394488,16.078125 14.7675805,15.8242213 14.2988281,15.3164062 C13.8300758,14.8085912 13.5957031,14.0794318 13.5957031,13.1289062 C13.5957031,12.1783807 13.8307268,11.4524765 14.3007812,10.9511719 C14.7708357,10.4498673 15.4446571,10.1992188 16.3222656,10.1992188 C17.1998742,10.1992188 17.8710914,10.4518204 18.3359375,10.9570312 C18.8007836,11.4622421 19.0332031,12.1887973 19.0332031,13.1367188 Z M14.8652344,13.1367188 C14.8652344,13.7747428 14.9863269,14.2552067 15.2285156,14.578125 C15.4707043,14.9010433 15.8326799,15.0625 16.3144531,15.0625 C17.2806038,15.0625 17.7636719,14.4205793 17.7636719,13.1367188 C17.7636719,11.850254 17.2832079,11.2070312 16.3222656,11.2070312 C15.8404924,11.2070312 15.4772148,11.369139 15.2324219,11.6933594 C14.987629,12.0175797 14.8652344,12.4986947 14.8652344,13.1367188 Z M21.4277344,12.8242188 L21.8183594,12.8242188 C22.2011738,12.8242188 22.483723,12.7604173 22.6660156,12.6328125 C22.8483082,12.5052077 22.9394531,12.3046889 22.9394531,12.03125 C22.9394531,11.7604153 22.8463551,11.5677089 22.6601562,11.453125 C22.4739574,11.3385411 22.1855488,11.28125 21.7949219,11.28125 L21.4277344,11.28125 L21.4277344,12.8242188 Z M21.4277344,13.8085938 L21.4277344,16 L20.2167969,16 L20.2167969,10.2890625 L21.8808594,10.2890625 C22.6569049,10.2890625 23.2311179,10.4303371 23.6035156,10.7128906 C23.9759133,10.9954441 24.1621094,11.4244763 24.1621094,12 C24.1621094,12.3359392 24.0696624,12.6347643 23.8847656,12.8964844 C23.6998689,13.1582044 23.4381527,13.3632805 23.0996094,13.5117188 C23.9589887,14.7955793 24.5188789,15.6249981 24.7792969,16 L23.4355469,16 L22.0722656,13.8085938 L21.4277344,13.8085938 Z M28.7558594,10.2890625 L29.9785156,10.2890625 L28.0371094,16 L26.7167969,16 L24.7792969,10.2890625 L26.0019531,10.2890625 L27.0761719,13.6875 C27.136068,13.8880218 27.1979163,14.1217435 27.2617187,14.3886719 C27.3255212,14.6556003 27.3652343,14.8411453 27.3808594,14.9453125 C27.4095054,14.705728 27.5071606,14.2864613 27.6738281,13.6875 L28.7558594,10.2890625 Z M33.9863281,16 L30.6972656,16 L30.6972656,10.2890625 L33.9863281,10.2890625 L33.9863281,11.28125 L31.9082031,11.28125 L31.9082031,12.5351562 L33.8417969,12.5351562 L33.8417969,13.5273438 L31.9082031,13.5273438 L31.9082031,15 L33.9863281,15 L33.9863281,16 Z M40.2441406,16 L38.7050781,16 L36.2207031,11.6796875 L36.1855469,11.6796875 C36.2350263,12.4427121 36.2597656,12.9869775 36.2597656,13.3125 L36.2597656,16 L35.1777344,16 L35.1777344,10.2890625 L36.7050781,10.2890625 L39.1855469,14.5664062 L39.2128906,14.5664062 C39.1738279,13.824215 39.1542969,13.2994807 39.1542969,12.9921875 L39.1542969,10.2890625 L40.2441406,10.2890625 L40.2441406,16 Z M41.6816406,16 L41.6816406,10.2890625 L42.8925781,10.2890625 L42.8925781,16 L41.6816406,16 Z M45.5410156,12.8242188 L45.9316406,12.8242188 C46.314455,12.8242188 46.5970043,12.7604173 46.7792969,12.6328125 C46.9615895,12.5052077 47.0527344,12.3046889 47.0527344,12.03125 C47.0527344,11.7604153 46.9596363,11.5677089 46.7734375,11.453125 C46.5872387,11.3385411 46.2988301,11.28125 45.9082031,11.28125 L45.5410156,11.28125 L45.5410156,12.8242188 Z M45.5410156,13.8085938 L45.5410156,16 L44.3300781,16 L44.3300781,10.2890625 L45.9941406,10.2890625 C46.7701862,10.2890625 47.3443992,10.4303371 47.7167969,10.7128906 C48.0891946,10.9954441 48.2753906,11.4244763 48.2753906,12 C48.2753906,12.3359392 48.1829436,12.6347643 47.9980469,12.8964844 C47.8131501,13.1582044 47.551434,13.3632805 47.2128906,13.5117188 C48.0722699,14.7955793 48.6321602,15.6249981 48.8925781,16 L47.5488281,16 L46.1855469,13.8085938 L45.5410156,13.8085938 Z" fill="#FFFFFF"></path>
        </g>
    </g>
</svg>