<?xml version="1.0" encoding="UTF-8"?>
<svg width="65px" height="27px" viewBox="0 0 65 27" version="1.1" xmlns="http://www.w3.org/2000/svg" xmlns:xlink="http://www.w3.org/1999/xlink">
    <!-- Generator: Sketch 48.2 (47327) - http://www.bohemiancoding.com/sketch -->
    <title>purires</title>
    <desc>Created with Sketch.</desc>
    <defs>
        <path d="M17.8208049,6 C16.6655751,7.89393294 16,10.1192398 16,12.5 C16,15.3140148 16.9298621,17.9108487 18.4990845,20 L7,20 C3.13400675,20 4.73447626e-16,16.8659932 0,13 C-4.73447626e-16,9.13400675 3.13400675,6 7,6 L17.8208049,6 Z M39.1791951,6 L50,6 C53.8659932,6 57,9.13400675 57,13 C57,16.8659932 53.8659932,20 50,20 L38.5009155,20 C40.0701379,17.9108487 41,15.3140148 41,12.5 C41,10.1192398 40.3344249,7.89393294 39.1791951,6 Z" id="path-1"></path>
        <filter x="-11.4%" y="-39.3%" width="122.8%" height="192.9%" filterUnits="objectBoundingBox" id="filter-2">
            <feOffset dx="0" dy="1" in="SourceAlpha" result="shadowOffsetOuter1"></feOffset>
            <feGaussianBlur stdDeviation="2" in="shadowOffsetOuter1" result="shadowBlurOuter1"></feGaussianBlur>
            <feColorMatrix values="0 0 0 0 0   0 0 0 0 0   0 0 0 0 0  0 0 0 0.5 0" type="matrix" in="shadowBlurOuter1"></feColorMatrix>
        </filter>
    </defs>
    <g id="Volcanes-fallas" stroke="none" stroke-width="1" fill="none" fill-rule="evenodd">
        <g id="purires" transform="translate(4.000000, 1.000000)">
            <g id="ic_volcano_label-copy-19">
                <g id="Group-Copy-3" transform="translate(16.000000, 0.000000)">
                    <g id="Group-26-Copy-4"></g>
                </g>
                <circle id="Oval-2-Copy-5" stroke="#FFFFFF" stroke-width="0.5" fill="#FF6D00" cx="28.5" cy="12.5" r="12.5"></circle>
                <g id="Combined-Shape">
                    <use fill="black" fill-opacity="1" filter="url(#filter-2)" xlink:href="#path-1"></use>
                    <use fill="#263238" fill-rule="evenodd" xlink:href="#path-1"></use>
                </g>
                <rect id="Rectangle-2-Copy-4" fill="#263238" x="0" y="6" width="57" height="14" rx="7"></rect>
            </g>
            <path d="M13.8457031,12.9765625 L14.2441406,12.9765625 C14.6165383,12.9765625 14.8951814,12.9029955 15.0800781,12.7558594 C15.2649749,12.6087232 15.3574219,12.3945327 15.3574219,12.1132812 C15.3574219,11.8294257 15.2799487,11.6197923 15.125,11.484375 C14.9700513,11.3489577 14.7272152,11.28125 14.3964844,11.28125 L13.8457031,11.28125 L13.8457031,12.9765625 Z M16.5800781,12.0703125 C16.5800781,12.6848989 16.3880228,13.1549463 16.0039062,13.4804688 C15.6197897,13.8059912 15.0735713,13.96875 14.3652344,13.96875 L13.8457031,13.96875 L13.8457031,16 L12.6347656,16 L12.6347656,10.2890625 L14.4589844,10.2890625 C15.1516962,10.2890625 15.6783836,10.4381496 16.0390625,10.7363281 C16.3997414,11.0345067 16.5800781,11.4791637 16.5800781,12.0703125 Z M22.3066406,10.2890625 L22.3066406,13.984375 C22.3066406,14.4062521 22.2122405,14.7760401 22.0234375,15.09375 C21.8346345,15.4114599 21.5618507,15.6549471 21.2050781,15.8242188 C20.8483055,15.9934904 20.4264347,16.078125 19.9394531,16.078125 C19.2050745,16.078125 18.6347677,15.8899758 18.2285156,15.5136719 C17.8222636,15.1373679 17.6191406,14.6223991 17.6191406,13.96875 L17.6191406,10.2890625 L18.8261719,10.2890625 L18.8261719,13.7851562 C18.8261719,14.2252626 18.9147127,14.5481761 19.0917969,14.7539062 C19.2688811,14.9596364 19.5618469,15.0625 19.9707031,15.0625 C20.3665384,15.0625 20.6536449,14.9589854 20.8320312,14.7519531 C21.0104176,14.5449208 21.0996094,14.2200543 21.0996094,13.7773438 L21.0996094,10.2890625 L22.3066406,10.2890625 Z M24.9160156,12.8242188 L25.3066406,12.8242188 C25.689455,12.8242188 25.9720043,12.7604173 26.1542969,12.6328125 C26.3365895,12.5052077 26.4277344,12.3046889 26.4277344,12.03125 C26.4277344,11.7604153 26.3346363,11.5677089 26.1484375,11.453125 C25.9622387,11.3385411 25.6738301,11.28125 25.2832031,11.28125 L24.9160156,11.28125 L24.9160156,12.8242188 Z M24.9160156,13.8085938 L24.9160156,16 L23.7050781,16 L23.7050781,10.2890625 L25.3691406,10.2890625 C26.1451862,10.2890625 26.7193992,10.4303371 27.0917969,10.7128906 C27.4641946,10.9954441 27.6503906,11.4244763 27.6503906,12 C27.6503906,12.3359392 27.5579436,12.6347643 27.3730469,12.8964844 C27.1881501,13.1582044 26.926434,13.3632805 26.5878906,13.5117188 C27.4472699,14.7955793 28.0071602,15.6249981 28.2675781,16 L26.9238281,16 L25.5605469,13.8085938 L24.9160156,13.8085938 Z M28.9863281,16 L28.9863281,10.2890625 L30.1972656,10.2890625 L30.1972656,16 L28.9863281,16 Z M32.8457031,12.8242188 L33.2363281,12.8242188 C33.6191425,12.8242188 33.9016918,12.7604173 34.0839844,12.6328125 C34.266277,12.5052077 34.3574219,12.3046889 34.3574219,12.03125 C34.3574219,11.7604153 34.2643238,11.5677089 34.078125,11.453125 C33.8919262,11.3385411 33.6035176,11.28125 33.2128906,11.28125 L32.8457031,11.28125 L32.8457031,12.8242188 Z M32.8457031,13.8085938 L32.8457031,16 L31.6347656,16 L31.6347656,10.2890625 L33.2988281,10.2890625 C34.0748737,10.2890625 34.6490867,10.4303371 35.0214844,10.7128906 C35.3938821,10.9954441 35.5800781,11.4244763 35.5800781,12 C35.5800781,12.3359392 35.4876311,12.6347643 35.3027344,12.8964844 C35.1178376,13.1582044 34.8561215,13.3632805 34.5175781,13.5117188 C35.3769574,14.7955793 35.9368477,15.6249981 36.1972656,16 L34.8535156,16 L33.4902344,13.8085938 L32.8457031,13.8085938 Z M40.2050781,16 L36.9160156,16 L36.9160156,10.2890625 L40.2050781,10.2890625 L40.2050781,11.28125 L38.1269531,11.28125 L38.1269531,12.5351562 L40.0605469,12.5351562 L40.0605469,13.5273438 L38.1269531,13.5273438 L38.1269531,15 L40.2050781,15 L40.2050781,16 Z M44.7675781,14.4140625 C44.7675781,14.9296901 44.5820331,15.335936 44.2109375,15.6328125 C43.8398419,15.929689 43.323571,16.078125 42.6621094,16.078125 C42.0527313,16.078125 41.5136742,15.9635428 41.0449219,15.734375 L41.0449219,14.609375 C41.4303405,14.7812509 41.7565091,14.9023434 42.0234375,14.9726562 C42.2903659,15.0429691 42.5345041,15.078125 42.7558594,15.078125 C43.0214857,15.078125 43.2252597,15.0273443 43.3671875,14.9257812 C43.5091153,14.8242182 43.5800781,14.6731781 43.5800781,14.4726562 C43.5800781,14.3606765 43.5488284,14.2610681 43.4863281,14.1738281 C43.4238278,14.0865881 43.3320319,14.0026046 43.2109375,13.921875 C43.0898431,13.8411454 42.8431008,13.7122405 42.4707031,13.5351562 C42.121743,13.3710929 41.8600269,13.2135424 41.6855469,13.0625 C41.5110668,12.9114576 41.3717453,12.7356781 41.2675781,12.5351562 C41.1634109,12.3346344 41.1113281,12.1002618 41.1113281,11.8320312 C41.1113281,11.3268204 41.2825504,10.9296889 41.625,10.640625 C41.9674496,10.3515611 42.4407522,10.2070312 43.0449219,10.2070312 C43.3417984,10.2070312 43.6249987,10.2421871 43.8945312,10.3125 C44.1640638,10.3828129 44.4459621,10.4817702 44.7402344,10.609375 L44.3496094,11.5507812 C44.0449204,11.4257806 43.7929697,11.3385419 43.59375,11.2890625 C43.3945303,11.2395831 43.1985687,11.2148438 43.0058594,11.2148438 C42.7766916,11.2148438 42.6009121,11.2682286 42.4785156,11.375 C42.3561192,11.4817714 42.2949219,11.6210929 42.2949219,11.7929688 C42.2949219,11.8997401 42.3196612,11.9928381 42.3691406,12.0722656 C42.41862,12.1516931 42.4973953,12.2285153 42.6054688,12.3027344 C42.7135422,12.3769535 42.969399,12.5104157 43.3730469,12.703125 C43.9069037,12.9583346 44.2727855,13.2141914 44.4707031,13.4707031 C44.6686208,13.7272148 44.7675781,14.0416648 44.7675781,14.4140625 Z" fill="#FFFFFF"></path>
        </g>
    </g>
</svg>