<?xml version="1.0" encoding="UTF-8"?>
<svg width="88px" height="27px" viewBox="0 0 88 27" version="1.1" xmlns="http://www.w3.org/2000/svg" xmlns:xlink="http://www.w3.org/1999/xlink">
    <!-- Generator: Sketch 48.2 (47327) - http://www.bohemiancoding.com/sketch -->
    <title>quebrada_pita</title>
    <desc>Created with Sketch.</desc>
    <defs>
        <path d="M30.6751405,6 C29.6123291,7.89393294 29,10.1192398 29,12.5 C29,15.3140148 29.8554731,17.9108487 31.2991578,20 L9,20 C5.13400675,20 2,16.8659932 2,13 C2,9.13400675 5.13400675,6 9,6 L30.6751405,6 Z M50.3248595,6 L72,6 C75.8659932,6 79,9.13400675 79,13 C79,16.8659932 75.8659932,20 72,20 L49.7008422,20 C51.1445269,17.9108487 52,15.3140148 52,12.5 C52,10.1192398 51.3876709,7.89393294 50.3248595,6 Z" id="path-1"></path>
        <filter x="-8.4%" y="-39.3%" width="116.9%" height="192.9%" filterUnits="objectBoundingBox" id="filter-2">
            <feOffset dx="0" dy="1" in="SourceAlpha" result="shadowOffsetOuter1"></feOffset>
            <feGaussianBlur stdDeviation="2" in="shadowOffsetOuter1" result="shadowBlurOuter1"></feGaussianBlur>
            <feColorMatrix values="0 0 0 0 0   0 0 0 0 0   0 0 0 0 0  0 0 0 0.5 0" type="matrix" in="shadowBlurOuter1"></feColorMatrix>
        </filter>
        <rect id="path-3" x="0" y="6" width="80" height="14" rx="7"></rect>
        <filter x="-8.1%" y="-39.3%" width="116.2%" height="192.9%" filterUnits="objectBoundingBox" id="filter-4">
            <feOffset dx="0" dy="1" in="SourceAlpha" result="shadowOffsetOuter1"></feOffset>
            <feGaussianBlur stdDeviation="2" in="shadowOffsetOuter1" result="shadowBlurOuter1"></feGaussianBlur>
            <feColorMatrix values="0 0 0 0 0   0 0 0 0 0   0 0 0 0 0  0 0 0 0.5 0" type="matrix" in="shadowBlurOuter1"></feColorMatrix>
        </filter>
    </defs>
    <g id="Volcanes-fallas" stroke="none" stroke-width="1" fill="none" fill-rule="evenodd">
        <g id="quebrada_pita" transform="translate(4.000000, 1.000000)">
            <g id="ic_volcano_label-copy-18">
                <g id="Group-Copy-3">
                    <g id="Group-26-Copy-4" transform="translate(28.000000, 0.000000)" fill="#FF6D00" stroke="#FFFFFF" stroke-width="0.5">
                        <circle id="Oval-2-Copy-5" cx="12.5" cy="12.5" r="12.5"></circle>
                    </g>
                    <g id="Combined-Shape">
                        <use fill="black" fill-opacity="1" filter="url(#filter-2)" xlink:href="#path-1"></use>
                        <use fill="#263238" fill-rule="evenodd" xlink:href="#path-1"></use>
                    </g>
                    <g id="Rectangle-2-Copy-4">
                        <use fill="black" fill-opacity="1" filter="url(#filter-4)" xlink:href="#path-3"></use>
                        <use fill="#263238" fill-rule="evenodd" xlink:href="#path-3"></use>
                    </g>
                </g>
                <path d="M14.0546875,13.1367188 C14.0546875,13.8085971 13.9355481,14.3717425 13.6972656,14.8261719 C13.4589832,15.2806012 13.1093773,15.6132802 12.6484375,15.8242188 L14.0234375,17.359375 L12.4726562,17.359375 L11.4257812,16.078125 L11.3359375,16.078125 C10.4609331,16.078125 9.78906484,15.8242213 9.3203125,15.3164062 C8.85156016,14.8085912 8.6171875,14.0794318 8.6171875,13.1289062 C8.6171875,12.1783807 8.85221119,11.4524765 9.32226562,10.9511719 C9.79232006,10.4498673 10.4661414,10.1992188 11.34375,10.1992188 C12.2213586,10.1992188 12.8925758,10.4518204 13.3574219,10.9570312 C13.8222679,11.4622421 14.0546875,12.1887973 14.0546875,13.1367188 Z M9.88671875,13.1367188 C9.88671875,13.7747428 10.0078113,14.2552067 10.25,14.578125 C10.4921887,14.9010433 10.8541643,15.0625 11.3359375,15.0625 C12.3020882,15.0625 12.7851562,14.4205793 12.7851562,13.1367188 C12.7851562,11.850254 12.3046923,11.2070312 11.34375,11.2070312 C10.8619768,11.2070312 10.4986991,11.369139 10.2539062,11.6933594 C10.0091134,12.0175797 9.88671875,12.4986947 9.88671875,13.1367188 Z M19.8867188,10.2890625 L19.8867188,13.984375 C19.8867188,14.4062521 19.7923187,14.7760401 19.6035156,15.09375 C19.4147126,15.4114599 19.1419289,15.6549471 18.7851562,15.8242188 C18.4283836,15.9934904 18.0065129,16.078125 17.5195312,16.078125 C16.7851526,16.078125 16.2148458,15.8899758 15.8085938,15.5136719 C15.4023417,15.1373679 15.1992188,14.6223991 15.1992188,13.96875 L15.1992188,10.2890625 L16.40625,10.2890625 L16.40625,13.7851562 C16.40625,14.2252626 16.4947908,14.5481761 16.671875,14.7539062 C16.8489592,14.9596364 17.141925,15.0625 17.5507812,15.0625 C17.9466166,15.0625 18.2337231,14.9589854 18.4121094,14.7519531 C18.5904957,14.5449208 18.6796875,14.2200543 18.6796875,13.7773438 L18.6796875,10.2890625 L19.8867188,10.2890625 Z M24.5742188,16 L21.2851562,16 L21.2851562,10.2890625 L24.5742188,10.2890625 L24.5742188,11.28125 L22.4960938,11.28125 L22.4960938,12.5351562 L24.4296875,12.5351562 L24.4296875,13.5273438 L22.4960938,13.5273438 L22.4960938,15 L24.5742188,15 L24.5742188,16 Z M25.765625,10.2890625 L27.5429688,10.2890625 C28.3528686,10.2890625 28.9407534,10.4042957 29.3066406,10.6347656 C29.6725279,10.8652355 29.8554688,11.2317683 29.8554688,11.734375 C29.8554688,12.0755225 29.7753914,12.3554677 29.6152344,12.5742188 C29.4550773,12.7929698 29.2421888,12.9244789 28.9765625,12.96875 L28.9765625,13.0078125 C29.3385435,13.0885421 29.5996086,13.2395822 29.7597656,13.4609375 C29.9199227,13.6822928 30,13.9765607 30,14.34375 C30,14.8645859 29.8118508,15.2708319 29.4355469,15.5625 C29.0592429,15.8541681 28.5481803,16 27.9023438,16 L25.765625,16 L25.765625,10.2890625 Z M26.9765625,12.5507812 L27.6796875,12.5507812 C28.0078141,12.5507812 28.245442,12.5000005 28.3925781,12.3984375 C28.5397143,12.2968745 28.6132812,12.1289074 28.6132812,11.8945312 C28.6132812,11.6757802 28.5332039,11.5188807 28.3730469,11.4238281 C28.2128898,11.3287756 27.9596371,11.28125 27.6132812,11.28125 L26.9765625,11.28125 L26.9765625,12.5507812 Z M26.9765625,13.5117188 L26.9765625,15 L27.765625,15 C28.09896,15 28.3450513,14.9361986 28.5039062,14.8085938 C28.6627612,14.6809889 28.7421875,14.4856784 28.7421875,14.2226562 C28.7421875,13.7486955 28.4036492,13.5117188 27.7265625,13.5117188 L26.9765625,13.5117188 Z M32.3515625,12.8242188 L32.7421875,12.8242188 C33.1250019,12.8242188 33.4075512,12.7604173 33.5898438,12.6328125 C33.7721363,12.5052077 33.8632812,12.3046889 33.8632812,12.03125 C33.8632812,11.7604153 33.7701832,11.5677089 33.5839844,11.453125 C33.3977855,11.3385411 33.109377,11.28125 32.71875,11.28125 L32.3515625,11.28125 L32.3515625,12.8242188 Z M32.3515625,13.8085938 L32.3515625,16 L31.140625,16 L31.140625,10.2890625 L32.8046875,10.2890625 C33.580733,10.2890625 34.1549461,10.4303371 34.5273438,10.7128906 C34.8997414,10.9954441 35.0859375,11.4244763 35.0859375,12 C35.0859375,12.3359392 34.9934905,12.6347643 34.8085938,12.8964844 C34.623697,13.1582044 34.3619809,13.3632805 34.0234375,13.5117188 C34.8828168,14.7955793 35.442707,15.6249981 35.703125,16 L34.359375,16 L32.9960938,13.8085938 L32.3515625,13.8085938 Z M39.9179688,16 L39.5039062,14.640625 L37.421875,14.640625 L37.0078125,16 L35.703125,16 L37.71875,10.265625 L39.1992188,10.265625 L41.2226562,16 L39.9179688,16 Z M39.2148438,13.625 C38.8320293,12.393223 38.6165367,11.6966154 38.5683594,11.5351562 C38.5201821,11.3736971 38.4856772,11.2460942 38.4648438,11.1523438 C38.3789058,11.4856787 38.1328145,12.3098893 37.7265625,13.625 L39.2148438,13.625 Z M46.6796875,13.0898438 C46.6796875,14.0299526 46.4121121,14.7499975 45.8769531,15.25 C45.3417942,15.7500025 44.5690155,16 43.5585938,16 L41.9414062,16 L41.9414062,10.2890625 L43.734375,10.2890625 C44.6666713,10.2890625 45.3906224,10.5351538 45.90625,11.0273438 C46.4218776,11.5195337 46.6796875,12.2070268 46.6796875,13.0898438 Z M45.421875,13.1210938 C45.421875,11.8945251 44.8802137,11.28125 43.796875,11.28125 L43.1523438,11.28125 L43.1523438,15 L43.671875,15 C44.8385475,15 45.421875,14.3737042 45.421875,13.1210938 Z M51.1992187,16 L50.7851562,14.640625 L48.703125,14.640625 L48.2890625,16 L46.984375,16 L49,10.265625 L50.4804687,10.265625 L52.5039062,16 L51.1992187,16 Z M50.4960938,13.625 C50.1132793,12.393223 49.8977867,11.6966154 49.8496094,11.5351562 C49.8014321,11.3736971 49.7669272,11.2460942 49.7460938,11.1523438 C49.6601558,11.4856787 49.4140645,12.3098893 49.0078125,13.625 L50.4960938,13.625 Z M56.5117188,12.9765625 L56.9101562,12.9765625 C57.2825539,12.9765625 57.561197,12.9029955 57.7460938,12.7558594 C57.9309905,12.6087232 58.0234375,12.3945327 58.0234375,12.1132812 C58.0234375,11.8294257 57.9459643,11.6197923 57.7910156,11.484375 C57.6360669,11.3489577 57.3932308,11.28125 57.0625,11.28125 L56.5117188,11.28125 L56.5117188,12.9765625 Z M59.2460938,12.0703125 C59.2460938,12.6848989 59.0540384,13.1549463 58.6699219,13.4804688 C58.2858054,13.8059912 57.7395869,13.96875 57.03125,13.96875 L56.5117188,13.96875 L56.5117188,16 L55.3007812,16 L55.3007812,10.2890625 L57.125,10.2890625 C57.8177118,10.2890625 58.3443992,10.4381496 58.7050781,10.7363281 C59.065757,11.0345067 59.2460938,11.4791637 59.2460938,12.0703125 Z M60.3242188,16 L60.3242188,10.2890625 L61.5351562,10.2890625 L61.5351562,16 L60.3242188,16 Z M65.1757812,16 L63.9648437,16 L63.9648437,11.296875 L62.4140625,11.296875 L62.4140625,10.2890625 L66.7265625,10.2890625 L66.7265625,11.296875 L65.1757812,11.296875 L65.1757812,16 Z M70.5429688,16 L70.1289062,14.640625 L68.046875,14.640625 L67.6328125,16 L66.328125,16 L68.34375,10.265625 L69.8242188,10.265625 L71.8476562,16 L70.5429688,16 Z M69.8398438,13.625 C69.4570293,12.393223 69.2415367,11.6966154 69.1933594,11.5351562 C69.1451821,11.3736971 69.1106772,11.2460942 69.0898438,11.1523438 C69.0039058,11.4856787 68.7578145,12.3098893 68.3515625,13.625 L69.8398438,13.625 Z" id="quebrada-pita" fill="#FFFFFF"></path>
            </g>
        </g>
    </g>
</svg>