<?xml version="1.0" encoding="UTF-8"?>
<svg width="65px" height="27px" viewBox="0 0 65 27" version="1.1" xmlns="http://www.w3.org/2000/svg" xmlns:xlink="http://www.w3.org/1999/xlink">
    <!-- Generator: Sketch 48.2 (47327) - http://www.bohemiancoding.com/sketch -->
    <title>quepos</title>
    <desc>Created with Sketch.</desc>
    <defs>
        <path d="M17.8208049,6 C16.6655751,7.89393294 16,10.1192398 16,12.5 C16,15.3140148 16.9298621,17.9108487 18.4990845,20 L7,20 C3.13400675,20 4.73447626e-16,16.8659932 0,13 C-4.73447626e-16,9.13400675 3.13400675,6 7,6 L17.8208049,6 Z M39.1791951,6 L50,6 C53.8659932,6 57,9.13400675 57,13 C57,16.8659932 53.8659932,20 50,20 L38.5009155,20 C40.0701379,17.9108487 41,15.3140148 41,12.5 C41,10.1192398 40.3344249,7.89393294 39.1791951,6 Z" id="path-1"></path>
        <filter x="-11.4%" y="-39.3%" width="122.8%" height="192.9%" filterUnits="objectBoundingBox" id="filter-2">
            <feOffset dx="0" dy="1" in="SourceAlpha" result="shadowOffsetOuter1"></feOffset>
            <feGaussianBlur stdDeviation="2" in="shadowOffsetOuter1" result="shadowBlurOuter1"></feGaussianBlur>
            <feColorMatrix values="0 0 0 0 0   0 0 0 0 0   0 0 0 0 0  0 0 0 0.5 0" type="matrix" in="shadowBlurOuter1"></feColorMatrix>
        </filter>
    </defs>
    <g id="Volcanes-fallas" stroke="none" stroke-width="1" fill="none" fill-rule="evenodd">
        <g id="quepos" transform="translate(4.000000, 1.000000)">
            <g id="ic_volcano_label-copy-19">
                <g id="Group-Copy-3" transform="translate(16.000000, 0.000000)">
                    <g id="Group-26-Copy-4"></g>
                </g>
                <circle id="Oval-2-Copy-5" stroke="#FFFFFF" stroke-width="0.5" fill="#FF6D00" cx="28.5" cy="12.5" r="12.5"></circle>
                <g id="Combined-Shape">
                    <use fill="black" fill-opacity="1" filter="url(#filter-2)" xlink:href="#path-1"></use>
                    <use fill="#263238" fill-rule="evenodd" xlink:href="#path-1"></use>
                </g>
                <rect id="Rectangle-2-Copy-4" fill="#263238" x="0" y="6" width="57" height="14" rx="7"></rect>
            </g>
            <path d="M18.0566406,13.1367188 C18.0566406,13.8085971 17.9375012,14.3717425 17.6992188,14.8261719 C17.4609363,15.2806012 17.1113304,15.6132802 16.6503906,15.8242188 L18.0253906,17.359375 L16.4746094,17.359375 L15.4277344,16.078125 L15.3378906,16.078125 C14.4628863,16.078125 13.791018,15.8242213 13.3222656,15.3164062 C12.8535133,14.8085912 12.6191406,14.0794318 12.6191406,13.1289062 C12.6191406,12.1783807 12.8541643,11.4524765 13.3242188,10.9511719 C13.7942732,10.4498673 14.4680946,10.1992188 15.3457031,10.1992188 C16.2233117,10.1992188 16.8945289,10.4518204 17.359375,10.9570312 C17.8242211,11.4622421 18.0566406,12.1887973 18.0566406,13.1367188 Z M13.8886719,13.1367188 C13.8886719,13.7747428 14.0097644,14.2552067 14.2519531,14.578125 C14.4941418,14.9010433 14.8561174,15.0625 15.3378906,15.0625 C16.3040413,15.0625 16.7871094,14.4205793 16.7871094,13.1367188 C16.7871094,11.850254 16.3066454,11.2070312 15.3457031,11.2070312 C14.8639299,11.2070312 14.5006523,11.369139 14.2558594,11.6933594 C14.0110665,12.0175797 13.8886719,12.4986947 13.8886719,13.1367188 Z M23.8886719,10.2890625 L23.8886719,13.984375 C23.8886719,14.4062521 23.7942718,14.7760401 23.6054688,15.09375 C23.4166657,15.4114599 23.143882,15.6549471 22.7871094,15.8242188 C22.4303368,15.9934904 22.008466,16.078125 21.5214844,16.078125 C20.7871057,16.078125 20.2167989,15.8899758 19.8105469,15.5136719 C19.4042948,15.1373679 19.2011719,14.6223991 19.2011719,13.96875 L19.2011719,10.2890625 L20.4082031,10.2890625 L20.4082031,13.7851562 C20.4082031,14.2252626 20.4967439,14.5481761 20.6738281,14.7539062 C20.8509123,14.9596364 21.1438782,15.0625 21.5527344,15.0625 C21.9485697,15.0625 22.2356762,14.9589854 22.4140625,14.7519531 C22.5924488,14.5449208 22.6816406,14.2200543 22.6816406,13.7773438 L22.6816406,10.2890625 L23.8886719,10.2890625 Z M28.5761719,16 L25.2871094,16 L25.2871094,10.2890625 L28.5761719,10.2890625 L28.5761719,11.28125 L26.4980469,11.28125 L26.4980469,12.5351562 L28.4316406,12.5351562 L28.4316406,13.5273438 L26.4980469,13.5273438 L26.4980469,15 L28.5761719,15 L28.5761719,16 Z M30.9785156,12.9765625 L31.3769531,12.9765625 C31.7493508,12.9765625 32.0279939,12.9029955 32.2128906,12.7558594 C32.3977874,12.6087232 32.4902344,12.3945327 32.4902344,12.1132812 C32.4902344,11.8294257 32.4127612,11.6197923 32.2578125,11.484375 C32.1028638,11.3489577 31.8600277,11.28125 31.5292969,11.28125 L30.9785156,11.28125 L30.9785156,12.9765625 Z M33.7128906,12.0703125 C33.7128906,12.6848989 33.5208353,13.1549463 33.1367188,13.4804688 C32.7526022,13.8059912 32.2063838,13.96875 31.4980469,13.96875 L30.9785156,13.96875 L30.9785156,16 L29.7675781,16 L29.7675781,10.2890625 L31.5917969,10.2890625 C32.2845087,10.2890625 32.8111961,10.4381496 33.171875,10.7363281 C33.5325539,11.0345067 33.7128906,11.4791637 33.7128906,12.0703125 Z M39.9746094,13.1367188 C39.9746094,14.082036 39.7402367,14.8085912 39.2714844,15.3164062 C38.802732,15.8242213 38.1308638,16.078125 37.2558594,16.078125 C36.380855,16.078125 35.7089867,15.8242213 35.2402344,15.3164062 C34.771482,14.8085912 34.5371094,14.0794318 34.5371094,13.1289062 C34.5371094,12.1783807 34.7721331,11.4524765 35.2421875,10.9511719 C35.7122419,10.4498673 36.3860633,10.1992188 37.2636719,10.1992188 C38.1412804,10.1992188 38.8124977,10.4518204 39.2773438,10.9570312 C39.7421898,11.4622421 39.9746094,12.1887973 39.9746094,13.1367188 Z M35.8066406,13.1367188 C35.8066406,13.7747428 35.9277332,14.2552067 36.1699219,14.578125 C36.4121106,14.9010433 36.7740861,15.0625 37.2558594,15.0625 C38.22201,15.0625 38.7050781,14.4205793 38.7050781,13.1367188 C38.7050781,11.850254 38.2246142,11.2070312 37.2636719,11.2070312 C36.7818986,11.2070312 36.418621,11.369139 36.1738281,11.6933594 C35.9290352,12.0175797 35.8066406,12.4986947 35.8066406,13.1367188 Z M44.5292969,14.4140625 C44.5292969,14.9296901 44.3437519,15.335936 43.9726562,15.6328125 C43.6015606,15.929689 43.0852898,16.078125 42.4238281,16.078125 C41.8144501,16.078125 41.275393,15.9635428 40.8066406,15.734375 L40.8066406,14.609375 C41.1920592,14.7812509 41.5182278,14.9023434 41.7851562,14.9726562 C42.0520847,15.0429691 42.2962229,15.078125 42.5175781,15.078125 C42.7832045,15.078125 42.9869785,15.0273443 43.1289062,14.9257812 C43.270834,14.8242182 43.3417969,14.6731781 43.3417969,14.4726562 C43.3417969,14.3606765 43.3105472,14.2610681 43.2480469,14.1738281 C43.1855466,14.0865881 43.0937506,14.0026046 42.9726562,13.921875 C42.8515619,13.8411454 42.6048196,13.7122405 42.2324219,13.5351562 C41.8834618,13.3710929 41.6217457,13.2135424 41.4472656,13.0625 C41.2727856,12.9114576 41.1334641,12.7356781 41.0292969,12.5351562 C40.9251297,12.3346344 40.8730469,12.1002618 40.8730469,11.8320312 C40.8730469,11.3268204 41.0442691,10.9296889 41.3867188,10.640625 C41.7291684,10.3515611 42.2024709,10.2070312 42.8066406,10.2070312 C43.1035171,10.2070312 43.3867174,10.2421871 43.65625,10.3125 C43.9257826,10.3828129 44.2076808,10.4817702 44.5019531,10.609375 L44.1113281,11.5507812 C43.8066391,11.4257806 43.5546885,11.3385419 43.3554688,11.2890625 C43.156249,11.2395831 42.9602874,11.2148438 42.7675781,11.2148438 C42.5384103,11.2148438 42.3626308,11.2682286 42.2402344,11.375 C42.1178379,11.4817714 42.0566406,11.6210929 42.0566406,11.7929688 C42.0566406,11.8997401 42.08138,11.9928381 42.1308594,12.0722656 C42.1803388,12.1516931 42.259114,12.2285153 42.3671875,12.3027344 C42.475261,12.3769535 42.7311178,12.5104157 43.1347656,12.703125 C43.6686225,12.9583346 44.0345042,13.2141914 44.2324219,13.4707031 C44.4303395,13.7272148 44.5292969,14.0416648 44.5292969,14.4140625 Z" fill="#FFFFFF"></path>
        </g>
    </g>
</svg>