<?xml version="1.0" encoding="UTF-8"?>
<svg width="118px" height="27px" viewBox="0 0 118 27" version="1.1" xmlns="http://www.w3.org/2000/svg" xmlns:xlink="http://www.w3.org/1999/xlink">
    <!-- Generator: Sketch 48.2 (47327) - http://www.bohemiancoding.com/sketch -->
    <title>rincon_vieja</title>
    <desc>Created with Sketch.</desc>
    <defs>
        <path d="M42.9664693,6 C41.7188212,7.89393294 41,10.1192398 41,12.5 C41,15.3140148 42.004251,17.9108487 43.6990113,20 L9,20 C5.13400675,20 2,16.8659932 2,13 C2,9.13400675 5.13400675,6 9,6 L42.9664693,6 Z M66.0335307,6 L103,6 C106.865993,6 110,9.13400675 110,13 C110,16.8659932 106.865993,20 103,20 L65.3009887,20 C66.995749,17.9108487 68,15.3140148 68,12.5 C68,10.1192398 67.2811788,7.89393294 66.0335307,6 Z" id="path-1"></path>
        <filter x="-6.0%" y="-39.3%" width="112.0%" height="192.9%" filterUnits="objectBoundingBox" id="filter-2">
            <feOffset dx="0" dy="1" in="SourceAlpha" result="shadowOffsetOuter1"></feOffset>
            <feGaussianBlur stdDeviation="2" in="shadowOffsetOuter1" result="shadowBlurOuter1"></feGaussianBlur>
            <feColorMatrix values="0 0 0 0 0   0 0 0 0 0   0 0 0 0 0  0 0 0 0.5 0" type="matrix" in="shadowBlurOuter1"></feColorMatrix>
        </filter>
        <rect id="path-3" x="0" y="6" width="110" height="14" rx="7"></rect>
        <filter x="-5.9%" y="-39.3%" width="111.8%" height="192.9%" filterUnits="objectBoundingBox" id="filter-4">
            <feOffset dx="0" dy="1" in="SourceAlpha" result="shadowOffsetOuter1"></feOffset>
            <feGaussianBlur stdDeviation="2" in="shadowOffsetOuter1" result="shadowBlurOuter1"></feGaussianBlur>
            <feColorMatrix values="0 0 0 0 0   0 0 0 0 0   0 0 0 0 0  0 0 0 0.5 0" type="matrix" in="shadowBlurOuter1"></feColorMatrix>
        </filter>
    </defs>
    <g id="Volcanes-fallas" stroke="none" stroke-width="1" fill="none" fill-rule="evenodd">
        <g id="rincon_vieja" transform="translate(4.000000, 1.000000)">
            <g id="ic_volcano_label-copy-18">
                <g id="Group-Copy-3">
                    <g id="Group-26-Copy-4" transform="translate(43.000000, 0.000000)" fill="#FF6D00" stroke="#FFFFFF" stroke-width="0.5">
                        <circle id="Oval-2-Copy-5" cx="12.5" cy="12.5" r="12.5"></circle>
                    </g>
                    <g id="Combined-Shape">
                        <use fill="black" fill-opacity="1" filter="url(#filter-2)" xlink:href="#path-1"></use>
                        <use fill="#263238" fill-rule="evenodd" xlink:href="#path-1"></use>
                    </g>
                    <g id="Rectangle-2-Copy-4">
                        <use fill="black" fill-opacity="1" filter="url(#filter-4)" xlink:href="#path-3"></use>
                        <use fill="#263238" fill-rule="evenodd" xlink:href="#path-3"></use>
                    </g>
                </g>
                <path d="M16.9824219,12.8242188 L17.3730469,12.8242188 C17.7558613,12.8242188 18.0384105,12.7604173 18.2207031,12.6328125 C18.4029957,12.5052077 18.4941406,12.3046889 18.4941406,12.03125 C18.4941406,11.7604153 18.4010426,11.5677089 18.2148438,11.453125 C18.0286449,11.3385411 17.7402363,11.28125 17.3496094,11.28125 L16.9824219,11.28125 L16.9824219,12.8242188 Z M16.9824219,13.8085938 L16.9824219,16 L15.7714844,16 L15.7714844,10.2890625 L17.4355469,10.2890625 C18.2115924,10.2890625 18.7858054,10.4303371 19.1582031,10.7128906 C19.5306008,10.9954441 19.7167969,11.4244763 19.7167969,12 C19.7167969,12.3359392 19.6243499,12.6347643 19.4394531,12.8964844 C19.2545564,13.1582044 18.9928402,13.3632805 18.6542969,13.5117188 C19.5136762,14.7955793 20.0735664,15.6249981 20.3339844,16 L18.9902344,16 L17.6269531,13.8085938 L16.9824219,13.8085938 Z M21.0527344,16 L21.0527344,10.2890625 L22.2636719,10.2890625 L22.2636719,16 L21.0527344,16 Z M28.7675781,16 L27.2285156,16 L24.7441406,11.6796875 L24.7089844,11.6796875 C24.7584638,12.4427121 24.7832031,12.9869775 24.7832031,13.3125 L24.7832031,16 L23.7011719,16 L23.7011719,10.2890625 L25.2285156,10.2890625 L27.7089844,14.5664062 L27.7363281,14.5664062 C27.6972654,13.824215 27.6777344,13.2994807 27.6777344,12.9921875 L27.6777344,10.2890625 L28.7675781,10.2890625 L28.7675781,16 Z M32.6308594,11.2148438 C32.1751279,11.2148438 31.8222669,11.386066 31.5722656,11.7285156 C31.3222644,12.0709653 31.1972656,12.548174 31.1972656,13.1601562 C31.1972656,14.4336001 31.6751254,15.0703125 32.6308594,15.0703125 C33.031903,15.0703125 33.5175753,14.9700531 34.0878906,14.7695312 L34.0878906,15.7851562 C33.6191383,15.9804697 33.095706,16.078125 32.5175781,16.078125 C31.6868448,16.078125 31.0514345,15.8261744 30.6113281,15.3222656 C30.1712218,14.8183569 29.9511719,14.0950568 29.9511719,13.1523438 C29.9511719,12.5585908 30.0592437,12.0384137 30.2753906,11.5917969 C30.4915375,11.1451801 30.8020813,10.8027356 31.2070312,10.5644531 C31.6119812,10.3261707 32.0865858,10.2070312 32.6308594,10.2070312 C33.1855496,10.2070312 33.7428357,10.3411445 34.3027344,10.609375 L33.9121094,11.59375 C33.6985666,11.492187 33.483725,11.4036462 33.2675781,11.328125 C33.0514312,11.2526038 32.8391937,11.2148438 32.6308594,11.2148438 Z M40.3261719,13.1367188 C40.3261719,14.082036 40.0917992,14.8085912 39.6230469,15.3164062 C39.1542945,15.8242213 38.4824263,16.078125 37.6074219,16.078125 C36.7324175,16.078125 36.0605492,15.8242213 35.5917969,15.3164062 C35.1230445,14.8085912 34.8886719,14.0794318 34.8886719,13.1289062 C34.8886719,12.1783807 35.1236956,11.4524765 35.59375,10.9511719 C36.0638044,10.4498673 36.7376258,10.1992188 37.6152344,10.1992188 C38.4928429,10.1992188 39.1640602,10.4518204 39.6289062,10.9570312 C40.0937523,11.4622421 40.3261719,12.1887973 40.3261719,13.1367188 Z M36.1582031,13.1367188 C36.1582031,13.7747428 36.2792957,14.2552067 36.5214844,14.578125 C36.7636731,14.9010433 37.1256486,15.0625 37.6074219,15.0625 C38.5735725,15.0625 39.0566406,14.4205793 39.0566406,13.1367188 C39.0566406,11.850254 38.5761767,11.2070312 37.6152344,11.2070312 C37.1334611,11.2070312 36.7701835,11.369139 36.5253906,11.6933594 C36.2805977,12.0175797 36.1582031,12.4986947 36.1582031,13.1367188 Z M36.9941406,9.83203125 L36.9941406,9.7265625 C37.4420595,9.20572656 37.7480461,8.8138034 37.9121094,8.55078125 L39.2480469,8.55078125 L39.2480469,8.6328125 C39.1126295,8.76822984 38.8815121,8.96939971 38.5546875,9.23632812 C38.2278629,9.50325654 37.9720061,9.70182227 37.7871094,9.83203125 L36.9941406,9.83203125 Z M46.5761719,16 L45.0371094,16 L42.5527344,11.6796875 L42.5175781,11.6796875 C42.5670575,12.4427121 42.5917969,12.9869775 42.5917969,13.3125 L42.5917969,16 L41.5097656,16 L41.5097656,10.2890625 L43.0371094,10.2890625 L45.5175781,14.5664062 L45.5449219,14.5664062 C45.5058592,13.824215 45.4863281,13.2994807 45.4863281,12.9921875 L45.4863281,10.2890625 L46.5761719,10.2890625 L46.5761719,16 Z M54.8300781,13.0898438 C54.8300781,14.0299526 54.5625027,14.7499975 54.0273438,15.25 C53.4921848,15.7500025 52.7194061,16 51.7089844,16 L50.0917969,16 L50.0917969,10.2890625 L51.8847656,10.2890625 C52.817062,10.2890625 53.541013,10.5351538 54.0566406,11.0273438 C54.5722682,11.5195337 54.8300781,12.2070268 54.8300781,13.0898438 Z M53.5722656,13.1210938 C53.5722656,11.8945251 53.0306044,11.28125 51.9472656,11.28125 L51.3027344,11.28125 L51.3027344,15 L51.8222656,15 C52.9889381,15 53.5722656,14.3737042 53.5722656,13.1210938 Z M59.3027344,16 L56.0136719,16 L56.0136719,10.2890625 L59.3027344,10.2890625 L59.3027344,11.28125 L57.2246094,11.28125 L57.2246094,12.5351562 L59.1582031,12.5351562 L59.1582031,13.5273438 L57.2246094,13.5273438 L57.2246094,15 L59.3027344,15 L59.3027344,16 Z M62.5722656,16 L62.5722656,10.2890625 L63.7832031,10.2890625 L63.7832031,15 L66.0996094,15 L66.0996094,16 L62.5722656,16 Z M70.5878906,16 L70.1738281,14.640625 L68.0917969,14.640625 L67.6777344,16 L66.3730469,16 L68.3886719,10.265625 L69.8691406,10.265625 L71.8925781,16 L70.5878906,16 Z M69.8847656,13.625 C69.5019512,12.393223 69.2864586,11.6966154 69.2382812,11.5351562 C69.1901039,11.3736971 69.1555991,11.2460942 69.1347656,11.1523438 C69.0488277,11.4856787 68.8027364,12.3098893 68.3964844,13.625 L69.8847656,13.625 Z M77.9472656,10.2890625 L79.1699219,10.2890625 L77.2285156,16 L75.9082031,16 L73.9707031,10.2890625 L75.1933594,10.2890625 L76.2675781,13.6875 C76.3274743,13.8880218 76.3893226,14.1217435 76.453125,14.3886719 C76.5169274,14.6556003 76.5566405,14.8411453 76.5722656,14.9453125 C76.6009116,14.705728 76.6985669,14.2864613 76.8652344,13.6875 L77.9472656,10.2890625 Z M79.8886719,16 L79.8886719,10.2890625 L81.0996094,10.2890625 L81.0996094,16 L79.8886719,16 Z M85.8261719,16 L82.5371094,16 L82.5371094,10.2890625 L85.8261719,10.2890625 L85.8261719,11.28125 L83.7480469,11.28125 L83.7480469,12.5351562 L85.6816406,12.5351562 L85.6816406,13.5273438 L83.7480469,13.5273438 L83.7480469,15 L85.8261719,15 L85.8261719,16 Z M86.9003906,17.6796875 C86.6269518,17.6796875 86.3886729,17.651042 86.1855469,17.59375 L86.1855469,16.5859375 C86.3938812,16.6380211 86.5839835,16.6640625 86.7558594,16.6640625 C87.0214857,16.6640625 87.211588,16.581381 87.3261719,16.4160156 C87.4407558,16.2506502 87.4980469,15.9921893 87.4980469,15.640625 L87.4980469,10.2890625 L88.7089844,10.2890625 L88.7089844,15.6328125 C88.7089844,16.2994825 88.5566421,16.8072899 88.2519531,17.15625 C87.9472641,17.5052101 87.4967478,17.6796875 86.9003906,17.6796875 Z M93.6425781,16 L93.2285156,14.640625 L91.1464844,14.640625 L90.7324219,16 L89.4277344,16 L91.4433594,10.265625 L92.9238281,10.265625 L94.9472656,16 L93.6425781,16 Z M92.9394531,13.625 C92.5566387,12.393223 92.3411461,11.6966154 92.2929688,11.5351562 C92.2447914,11.3736971 92.2102866,11.2460942 92.1894531,11.1523438 C92.1035152,11.4856787 91.8574239,12.3098893 91.4511719,13.625 L92.9394531,13.625 Z" id="rincón-de-la-vieja" fill="#FFFFFF"></path>
            </g>
        </g>
    </g>
</svg>