<?xml version="1.0" encoding="UTF-8"?>
<svg width="65px" height="27px" viewBox="0 0 65 27" version="1.1" xmlns="http://www.w3.org/2000/svg" xmlns:xlink="http://www.w3.org/1999/xlink">
    <!-- Generator: Sketch 48.2 (47327) - http://www.bohemiancoding.com/sketch -->
    <title>rio_blanco</title>
    <desc>Created with Sketch.</desc>
    <defs>
        <path d="M17.8208049,6 C16.6655751,7.89393294 16,10.1192398 16,12.5 C16,15.3140148 16.9298621,17.9108487 18.4990845,20 L7,20 C3.13400675,20 4.73447626e-16,16.8659932 0,13 C-4.73447626e-16,9.13400675 3.13400675,6 7,6 L17.8208049,6 Z M39.1791951,6 L50,6 C53.8659932,6 57,9.13400675 57,13 C57,16.8659932 53.8659932,20 50,20 L38.5009155,20 C40.0701379,17.9108487 41,15.3140148 41,12.5 C41,10.1192398 40.3344249,7.89393294 39.1791951,6 Z" id="path-1"></path>
        <filter x="-11.4%" y="-39.3%" width="122.8%" height="192.9%" filterUnits="objectBoundingBox" id="filter-2">
            <feOffset dx="0" dy="1" in="SourceAlpha" result="shadowOffsetOuter1"></feOffset>
            <feGaussianBlur stdDeviation="2" in="shadowOffsetOuter1" result="shadowBlurOuter1"></feGaussianBlur>
            <feColorMatrix values="0 0 0 0 0   0 0 0 0 0   0 0 0 0 0  0 0 0 0.5 0" type="matrix" in="shadowBlurOuter1"></feColorMatrix>
        </filter>
    </defs>
    <g id="Volcanes-fallas" stroke="none" stroke-width="1" fill="none" fill-rule="evenodd">
        <g id="rio_blanco" transform="translate(4.000000, 1.000000)">
            <g id="ic_volcano_label-copy-19">
                <g id="Group-Copy-3" transform="translate(16.000000, 0.000000)">
                    <g id="Group-26-Copy-4"></g>
                </g>
                <circle id="Oval-2-Copy-5" stroke="#FFFFFF" stroke-width="0.5" fill="#FF6D00" cx="28.5" cy="12.5" r="12.5"></circle>
                <g id="Combined-Shape">
                    <use fill="black" fill-opacity="1" filter="url(#filter-2)" xlink:href="#path-1"></use>
                    <use fill="#263238" fill-rule="evenodd" xlink:href="#path-1"></use>
                </g>
                <rect id="Rectangle-2-Copy-4" fill="#263238" x="0" y="6" width="57" height="14" rx="7"></rect>
            </g>
            <path d="M5.63085938,12.8242188 L6.02148438,12.8242188 C6.40429879,12.8242188 6.68684805,12.7604173 6.86914062,12.6328125 C7.0514332,12.5052077 7.14257812,12.3046889 7.14257812,12.03125 C7.14257812,11.7604153 7.0494801,11.5677089 6.86328125,11.453125 C6.6770824,11.3385411 6.38867383,11.28125 5.99804688,11.28125 L5.63085938,11.28125 L5.63085938,12.8242188 Z M5.63085938,13.8085938 L5.63085938,16 L4.41992188,16 L4.41992188,10.2890625 L6.08398438,10.2890625 C6.86002992,10.2890625 7.43424293,10.4303371 7.80664062,10.7128906 C8.17903832,10.9954441 8.36523438,11.4244763 8.36523438,12 C8.36523438,12.3359392 8.27278738,12.6347643 8.08789062,12.8964844 C7.90299387,13.1582044 7.64127773,13.3632805 7.30273438,13.5117188 C8.16211367,14.7955793 8.72200391,15.6249981 8.98242188,16 L7.63867188,16 L6.27539062,13.8085938 L5.63085938,13.8085938 Z M9.70117188,16 L9.70117188,10.2890625 L10.9121094,10.2890625 L10.9121094,16 L9.70117188,16 Z M9.63476562,9.83203125 L9.63476562,9.7265625 C10.0826845,9.20572656 10.3886711,8.8138034 10.5527344,8.55078125 L11.8886719,8.55078125 L11.8886719,8.6328125 C11.7532545,8.76822984 11.5221371,8.96939971 11.1953125,9.23632812 C10.8684879,9.50325654 10.6126311,9.70182227 10.4277344,9.83203125 L9.63476562,9.83203125 Z M17.5332031,13.1367188 C17.5332031,14.082036 17.2988305,14.8085912 16.8300781,15.3164062 C16.3613258,15.8242213 15.6894575,16.078125 14.8144531,16.078125 C13.9394488,16.078125 13.2675805,15.8242213 12.7988281,15.3164062 C12.3300758,14.8085912 12.0957031,14.0794318 12.0957031,13.1289062 C12.0957031,12.1783807 12.3307268,11.4524765 12.8007812,10.9511719 C13.2708357,10.4498673 13.9446571,10.1992188 14.8222656,10.1992188 C15.6998742,10.1992188 16.3710914,10.4518204 16.8359375,10.9570312 C17.3007836,11.4622421 17.5332031,12.1887973 17.5332031,13.1367188 Z M13.3652344,13.1367188 C13.3652344,13.7747428 13.4863269,14.2552067 13.7285156,14.578125 C13.9707043,14.9010433 14.3326799,15.0625 14.8144531,15.0625 C15.7806038,15.0625 16.2636719,14.4205793 16.2636719,13.1367188 C16.2636719,11.850254 15.7832079,11.2070312 14.8222656,11.2070312 C14.3404924,11.2070312 13.9772148,11.369139 13.7324219,11.6933594 C13.487629,12.0175797 13.3652344,12.4986947 13.3652344,13.1367188 Z M20.7949219,10.2890625 L22.5722656,10.2890625 C23.3821655,10.2890625 23.9700503,10.4042957 24.3359375,10.6347656 C24.7018247,10.8652355 24.8847656,11.2317683 24.8847656,11.734375 C24.8847656,12.0755225 24.8046883,12.3554677 24.6445312,12.5742188 C24.4843742,12.7929698 24.2714857,12.9244789 24.0058594,12.96875 L24.0058594,13.0078125 C24.3678404,13.0885421 24.6289054,13.2395822 24.7890625,13.4609375 C24.9492196,13.6822928 25.0292969,13.9765607 25.0292969,14.34375 C25.0292969,14.8645859 24.8411477,15.2708319 24.4648438,15.5625 C24.0885398,15.8541681 23.5774772,16 22.9316406,16 L20.7949219,16 L20.7949219,10.2890625 Z M22.0058594,12.5507812 L22.7089844,12.5507812 C23.037111,12.5507812 23.2747388,12.5000005 23.421875,12.3984375 C23.5690112,12.2968745 23.6425781,12.1289074 23.6425781,11.8945312 C23.6425781,11.6757802 23.5625008,11.5188807 23.4023437,11.4238281 C23.2421867,11.3287756 22.988934,11.28125 22.6425781,11.28125 L22.0058594,11.28125 L22.0058594,12.5507812 Z M22.0058594,13.5117188 L22.0058594,15 L22.7949219,15 C23.1282569,15 23.3743482,14.9361986 23.5332031,14.8085938 C23.6920581,14.6809889 23.7714844,14.4856784 23.7714844,14.2226562 C23.7714844,13.7486955 23.4329461,13.5117188 22.7558594,13.5117188 L22.0058594,13.5117188 Z M26.1699219,16 L26.1699219,10.2890625 L27.3808594,10.2890625 L27.3808594,15 L29.6972656,15 L29.6972656,16 L26.1699219,16 Z M34.1855469,16 L33.7714844,14.640625 L31.6894531,14.640625 L31.2753906,16 L29.9707031,16 L31.9863281,10.265625 L33.4667969,10.265625 L35.4902344,16 L34.1855469,16 Z M33.4824219,13.625 C33.0996075,12.393223 32.8841148,11.6966154 32.8359375,11.5351562 C32.7877602,11.3736971 32.7532553,11.2460942 32.7324219,11.1523438 C32.6464839,11.4856787 32.4003927,12.3098893 31.9941406,13.625 L33.4824219,13.625 Z M41.2753906,16 L39.7363281,16 L37.2519531,11.6796875 L37.2167969,11.6796875 C37.2662763,12.4427121 37.2910156,12.9869775 37.2910156,13.3125 L37.2910156,16 L36.2089844,16 L36.2089844,10.2890625 L37.7363281,10.2890625 L40.2167969,14.5664062 L40.2441406,14.5664062 C40.2050779,13.824215 40.1855469,13.2994807 40.1855469,12.9921875 L40.1855469,10.2890625 L41.2753906,10.2890625 L41.2753906,16 Z M45.1386719,11.2148438 C44.6829404,11.2148438 44.3300794,11.386066 44.0800781,11.7285156 C43.8300769,12.0709653 43.7050781,12.548174 43.7050781,13.1601562 C43.7050781,14.4336001 44.1829379,15.0703125 45.1386719,15.0703125 C45.5397155,15.0703125 46.0253878,14.9700531 46.5957031,14.7695312 L46.5957031,15.7851562 C46.1269508,15.9804697 45.6035185,16.078125 45.0253906,16.078125 C44.1946573,16.078125 43.559247,15.8261744 43.1191406,15.3222656 C42.6790343,14.8183569 42.4589844,14.0950568 42.4589844,13.1523438 C42.4589844,12.5585908 42.5670562,12.0384137 42.7832031,11.5917969 C42.99935,11.1451801 43.3098938,10.8027356 43.7148438,10.5644531 C44.1197937,10.3261707 44.5943983,10.2070312 45.1386719,10.2070312 C45.6933621,10.2070312 46.2506482,10.3411445 46.8105469,10.609375 L46.4199219,11.59375 C46.2063791,11.492187 45.9915375,11.4036462 45.7753906,11.328125 C45.5592437,11.2526038 45.3470062,11.2148438 45.1386719,11.2148438 Z M52.8339844,13.1367188 C52.8339844,14.082036 52.5996117,14.8085912 52.1308594,15.3164062 C51.662107,15.8242213 50.9902387,16.078125 50.1152344,16.078125 C49.24023,16.078125 48.5683617,15.8242213 48.0996094,15.3164062 C47.630857,14.8085912 47.3964844,14.0794318 47.3964844,13.1289062 C47.3964844,12.1783807 47.6315081,11.4524765 48.1015625,10.9511719 C48.5716169,10.4498673 49.2454383,10.1992188 50.1230469,10.1992188 C51.0006554,10.1992188 51.6718727,10.4518204 52.1367188,10.9570312 C52.6015648,11.4622421 52.8339844,12.1887973 52.8339844,13.1367188 Z M48.6660156,13.1367188 C48.6660156,13.7747428 48.7871082,14.2552067 49.0292969,14.578125 C49.2714856,14.9010433 49.6334611,15.0625 50.1152344,15.0625 C51.081385,15.0625 51.5644531,14.4205793 51.5644531,13.1367188 C51.5644531,11.850254 51.0839892,11.2070312 50.1230469,11.2070312 C49.6412736,11.2070312 49.277996,11.369139 49.0332031,11.6933594 C48.7884102,12.0175797 48.6660156,12.4986947 48.6660156,13.1367188 Z" id="río-blanco" fill="#FFFFFF"></path>
        </g>
    </g>
</svg>