<?xml version="1.0" encoding="UTF-8"?>
<svg width="65px" height="27px" viewBox="0 0 65 27" version="1.1" xmlns="http://www.w3.org/2000/svg" xmlns:xlink="http://www.w3.org/1999/xlink">
    <!-- Generator: Sketch 48.2 (47327) - http://www.bohemiancoding.com/sketch -->
    <title>rio_sucio</title>
    <desc>Created with Sketch.</desc>
    <defs>
        <path d="M17.8208049,6 C16.6655751,7.89393294 16,10.1192398 16,12.5 C16,15.3140148 16.9298621,17.9108487 18.4990845,20 L7,20 C3.13400675,20 4.73447626e-16,16.8659932 0,13 C-4.73447626e-16,9.13400675 3.13400675,6 7,6 L17.8208049,6 Z M39.1791951,6 L50,6 C53.8659932,6 57,9.13400675 57,13 C57,16.8659932 53.8659932,20 50,20 L38.5009155,20 C40.0701379,17.9108487 41,15.3140148 41,12.5 C41,10.1192398 40.3344249,7.89393294 39.1791951,6 Z" id="path-1"></path>
        <filter x="-11.4%" y="-39.3%" width="122.8%" height="192.9%" filterUnits="objectBoundingBox" id="filter-2">
            <feOffset dx="0" dy="1" in="SourceAlpha" result="shadowOffsetOuter1"></feOffset>
            <feGaussianBlur stdDeviation="2" in="shadowOffsetOuter1" result="shadowBlurOuter1"></feGaussianBlur>
            <feColorMatrix values="0 0 0 0 0   0 0 0 0 0   0 0 0 0 0  0 0 0 0.5 0" type="matrix" in="shadowBlurOuter1"></feColorMatrix>
        </filter>
    </defs>
    <g id="Volcanes-fallas" stroke="none" stroke-width="1" fill="none" fill-rule="evenodd">
        <g id="rio_sucio" transform="translate(4.000000, 1.000000)">
            <g id="ic_volcano_label-copy-19">
                <g id="Group-Copy-3" transform="translate(16.000000, 0.000000)">
                    <g id="Group-26-Copy-4"></g>
                </g>
                <circle id="Oval-2-Copy-5" stroke="#FFFFFF" stroke-width="0.5" fill="#FF6D00" cx="28.5" cy="12.5" r="12.5"></circle>
                <g id="Combined-Shape">
                    <use fill="black" fill-opacity="1" filter="url(#filter-2)" xlink:href="#path-1"></use>
                    <use fill="#263238" fill-rule="evenodd" xlink:href="#path-1"></use>
                </g>
                <rect id="Rectangle-2-Copy-4" fill="#263238" x="0" y="6" width="57" height="14" rx="7"></rect>
            </g>
            <path d="M9.95898438,12.8242188 L10.3496094,12.8242188 C10.7324238,12.8242188 11.014973,12.7604173 11.1972656,12.6328125 C11.3795582,12.5052077 11.4707031,12.3046889 11.4707031,12.03125 C11.4707031,11.7604153 11.3776051,11.5677089 11.1914062,11.453125 C11.0052074,11.3385411 10.7167988,11.28125 10.3261719,11.28125 L9.95898438,11.28125 L9.95898438,12.8242188 Z M9.95898438,13.8085938 L9.95898438,16 L8.74804688,16 L8.74804688,10.2890625 L10.4121094,10.2890625 C11.1881549,10.2890625 11.7623679,10.4303371 12.1347656,10.7128906 C12.5071633,10.9954441 12.6933594,11.4244763 12.6933594,12 C12.6933594,12.3359392 12.6009124,12.6347643 12.4160156,12.8964844 C12.2311189,13.1582044 11.9694027,13.3632805 11.6308594,13.5117188 C12.4902387,14.7955793 13.0501289,15.6249981 13.3105469,16 L11.9667969,16 L10.6035156,13.8085938 L9.95898438,13.8085938 Z M14.0292969,16 L14.0292969,10.2890625 L15.2402344,10.2890625 L15.2402344,16 L14.0292969,16 Z M13.9628906,9.83203125 L13.9628906,9.7265625 C14.4108095,9.20572656 14.7167961,8.8138034 14.8808594,8.55078125 L16.2167969,8.55078125 L16.2167969,8.6328125 C16.0813795,8.76822984 15.8502621,8.96939971 15.5234375,9.23632812 C15.1966129,9.50325654 14.9407561,9.70182227 14.7558594,9.83203125 L13.9628906,9.83203125 Z M21.8613281,13.1367188 C21.8613281,14.082036 21.6269555,14.8085912 21.1582031,15.3164062 C20.6894508,15.8242213 20.0175825,16.078125 19.1425781,16.078125 C18.2675738,16.078125 17.5957055,15.8242213 17.1269531,15.3164062 C16.6582008,14.8085912 16.4238281,14.0794318 16.4238281,13.1289062 C16.4238281,12.1783807 16.6588518,11.4524765 17.1289062,10.9511719 C17.5989607,10.4498673 18.2727821,10.1992188 19.1503906,10.1992188 C20.0279992,10.1992188 20.6992164,10.4518204 21.1640625,10.9570312 C21.6289086,11.4622421 21.8613281,12.1887973 21.8613281,13.1367188 Z M17.6933594,13.1367188 C17.6933594,13.7747428 17.8144519,14.2552067 18.0566406,14.578125 C18.2988293,14.9010433 18.6608049,15.0625 19.1425781,15.0625 C20.1087288,15.0625 20.5917969,14.4205793 20.5917969,13.1367188 C20.5917969,11.850254 20.1113329,11.2070312 19.1503906,11.2070312 C18.6686174,11.2070312 18.3053398,11.369139 18.0605469,11.6933594 C17.815754,12.0175797 17.6933594,12.4986947 17.6933594,13.1367188 Z M28.4941406,14.4140625 C28.4941406,14.9296901 28.3085956,15.335936 27.9375,15.6328125 C27.5664044,15.929689 27.0501335,16.078125 26.3886719,16.078125 C25.7792938,16.078125 25.2402367,15.9635428 24.7714844,15.734375 L24.7714844,14.609375 C25.156903,14.7812509 25.4830716,14.9023434 25.75,14.9726562 C26.0169284,15.0429691 26.2610666,15.078125 26.4824219,15.078125 C26.7480482,15.078125 26.9518222,15.0273443 27.09375,14.9257812 C27.2356778,14.8242182 27.3066406,14.6731781 27.3066406,14.4726562 C27.3066406,14.3606765 27.2753909,14.2610681 27.2128906,14.1738281 C27.1503903,14.0865881 27.0585944,14.0026046 26.9375,13.921875 C26.8164056,13.8411454 26.5696633,13.7122405 26.1972656,13.5351562 C25.8483055,13.3710929 25.5865894,13.2135424 25.4121094,13.0625 C25.2376293,12.9114576 25.0983078,12.7356781 24.9941406,12.5351562 C24.8899734,12.3346344 24.8378906,12.1002618 24.8378906,11.8320312 C24.8378906,11.3268204 25.0091129,10.9296889 25.3515625,10.640625 C25.6940121,10.3515611 26.1673147,10.2070312 26.7714844,10.2070312 C27.0683609,10.2070312 27.3515612,10.2421871 27.6210938,10.3125 C27.8906263,10.3828129 28.1725246,10.4817702 28.4667969,10.609375 L28.0761719,11.5507812 C27.7714829,11.4257806 27.5195322,11.3385419 27.3203125,11.2890625 C27.1210928,11.2395831 26.9251312,11.2148438 26.7324219,11.2148438 C26.5032541,11.2148438 26.3274746,11.2682286 26.2050781,11.375 C26.0826817,11.4817714 26.0214844,11.6210929 26.0214844,11.7929688 C26.0214844,11.8997401 26.0462237,11.9928381 26.0957031,12.0722656 C26.1451825,12.1516931 26.2239578,12.2285153 26.3320312,12.3027344 C26.4401047,12.3769535 26.6959615,12.5104157 27.0996094,12.703125 C27.6334662,12.9583346 27.999348,13.2141914 28.1972656,13.4707031 C28.3951833,13.7272148 28.4941406,14.0416648 28.4941406,14.4140625 Z M34.1777344,10.2890625 L34.1777344,13.984375 C34.1777344,14.4062521 34.0833343,14.7760401 33.8945312,15.09375 C33.7057282,15.4114599 33.4329445,15.6549471 33.0761719,15.8242188 C32.7193993,15.9934904 32.2975285,16.078125 31.8105469,16.078125 C31.0761682,16.078125 30.5058614,15.8899758 30.0996094,15.5136719 C29.6933573,15.1373679 29.4902344,14.6223991 29.4902344,13.96875 L29.4902344,10.2890625 L30.6972656,10.2890625 L30.6972656,13.7851562 C30.6972656,14.2252626 30.7858064,14.5481761 30.9628906,14.7539062 C31.1399748,14.9596364 31.4329407,15.0625 31.8417969,15.0625 C32.2376322,15.0625 32.5247387,14.9589854 32.703125,14.7519531 C32.8815113,14.5449208 32.9707031,14.2200543 32.9707031,13.7773438 L32.9707031,10.2890625 L34.1777344,10.2890625 Z M38.0019531,11.2148438 C37.5462217,11.2148438 37.1933606,11.386066 36.9433594,11.7285156 C36.6933581,12.0709653 36.5683594,12.548174 36.5683594,13.1601562 C36.5683594,14.4336001 37.0462192,15.0703125 38.0019531,15.0703125 C38.4029968,15.0703125 38.888669,14.9700531 39.4589844,14.7695312 L39.4589844,15.7851562 C38.990232,15.9804697 38.4667998,16.078125 37.8886719,16.078125 C37.0579386,16.078125 36.4225282,15.8261744 35.9824219,15.3222656 C35.5423155,14.8183569 35.3222656,14.0950568 35.3222656,13.1523438 C35.3222656,12.5585908 35.4303375,12.0384137 35.6464844,11.5917969 C35.8626313,11.1451801 36.1731751,10.8027356 36.578125,10.5644531 C36.9830749,10.3261707 37.4576796,10.2070312 38.0019531,10.2070312 C38.5566434,10.2070312 39.1139295,10.3411445 39.6738281,10.609375 L39.2832031,11.59375 C39.0696604,11.492187 38.8548188,11.4036462 38.6386719,11.328125 C38.422525,11.2526038 38.2102875,11.2148438 38.0019531,11.2148438 Z M40.6738281,16 L40.6738281,10.2890625 L41.8847656,10.2890625 L41.8847656,16 L40.6738281,16 Z M48.5058594,13.1367188 C48.5058594,14.082036 48.2714867,14.8085912 47.8027344,15.3164062 C47.333982,15.8242213 46.6621138,16.078125 45.7871094,16.078125 C44.912105,16.078125 44.2402367,15.8242213 43.7714844,15.3164062 C43.302732,14.8085912 43.0683594,14.0794318 43.0683594,13.1289062 C43.0683594,12.1783807 43.3033831,11.4524765 43.7734375,10.9511719 C44.2434919,10.4498673 44.9173133,10.1992188 45.7949219,10.1992188 C46.6725304,10.1992188 47.3437477,10.4518204 47.8085938,10.9570312 C48.2734398,11.4622421 48.5058594,12.1887973 48.5058594,13.1367188 Z M44.3378906,13.1367188 C44.3378906,13.7747428 44.4589832,14.2552067 44.7011719,14.578125 C44.9433606,14.9010433 45.3053361,15.0625 45.7871094,15.0625 C46.75326,15.0625 47.2363281,14.4205793 47.2363281,13.1367188 C47.2363281,11.850254 46.7558642,11.2070312 45.7949219,11.2070312 C45.3131486,11.2070312 44.949871,11.369139 44.7050781,11.6933594 C44.4602852,12.0175797 44.3378906,12.4986947 44.3378906,13.1367188 Z" id="río-sucio" fill="#FFFFFF"></path>
        </g>
    </g>
</svg>