<?xml version="1.0" encoding="UTF-8"?>
<svg width="65px" height="27px" viewBox="0 0 65 27" version="1.1" xmlns="http://www.w3.org/2000/svg" xmlns:xlink="http://www.w3.org/1999/xlink">
    <!-- Generator: Sketch 48.2 (47327) - http://www.bohemiancoding.com/sketch -->
    <title>rio_azul</title>
    <desc>Created with Sketch.</desc>
    <defs>
        <path d="M17.8208049,6 C16.6655751,7.89393294 16,10.1192398 16,12.5 C16,15.3140148 16.9298621,17.9108487 18.4990845,20 L7,20 C3.13400675,20 4.73447626e-16,16.8659932 0,13 C-4.73447626e-16,9.13400675 3.13400675,6 7,6 L17.8208049,6 Z M39.1791951,6 L50,6 C53.8659932,6 57,9.13400675 57,13 C57,16.8659932 53.8659932,20 50,20 L38.5009155,20 C40.0701379,17.9108487 41,15.3140148 41,12.5 C41,10.1192398 40.3344249,7.89393294 39.1791951,6 Z" id="path-1"></path>
        <filter x="-11.4%" y="-39.3%" width="122.8%" height="192.9%" filterUnits="objectBoundingBox" id="filter-2">
            <feOffset dx="0" dy="1" in="SourceAlpha" result="shadowOffsetOuter1"></feOffset>
            <feGaussianBlur stdDeviation="2" in="shadowOffsetOuter1" result="shadowBlurOuter1"></feGaussianBlur>
            <feColorMatrix values="0 0 0 0 0   0 0 0 0 0   0 0 0 0 0  0 0 0 0.5 0" type="matrix" in="shadowBlurOuter1"></feColorMatrix>
        </filter>
    </defs>
    <g id="Volcanes-fallas" stroke="none" stroke-width="1" fill="none" fill-rule="evenodd">
        <g id="rio_azul" transform="translate(4.000000, 1.000000)">
            <g id="ic_volcano_label-copy-19">
                <g id="Group-Copy-3" transform="translate(16.000000, 0.000000)">
                    <g id="Group-26-Copy-4"></g>
                </g>
                <circle id="Oval-2-Copy-5" stroke="#FFFFFF" stroke-width="0.5" fill="#FF6D00" cx="28.5" cy="12.5" r="12.5"></circle>
                <g id="Combined-Shape">
                    <use fill="black" fill-opacity="1" filter="url(#filter-2)" xlink:href="#path-1"></use>
                    <use fill="#263238" fill-rule="evenodd" xlink:href="#path-1"></use>
                </g>
                <rect id="Rectangle-2-Copy-4" fill="#263238" x="0" y="6" width="57" height="14" rx="7"></rect>
            </g>
            <path d="M11.8828125,12.8242188 L12.2734375,12.8242188 C12.6562519,12.8242188 12.9388012,12.7604173 13.1210938,12.6328125 C13.3033863,12.5052077 13.3945312,12.3046889 13.3945312,12.03125 C13.3945312,11.7604153 13.3014332,11.5677089 13.1152344,11.453125 C12.9290355,11.3385411 12.640627,11.28125 12.25,11.28125 L11.8828125,11.28125 L11.8828125,12.8242188 Z M11.8828125,13.8085938 L11.8828125,16 L10.671875,16 L10.671875,10.2890625 L12.3359375,10.2890625 C13.111983,10.2890625 13.6861961,10.4303371 14.0585938,10.7128906 C14.4309914,10.9954441 14.6171875,11.4244763 14.6171875,12 C14.6171875,12.3359392 14.5247405,12.6347643 14.3398438,12.8964844 C14.154947,13.1582044 13.8932309,13.3632805 13.5546875,13.5117188 C14.4140668,14.7955793 14.973957,15.6249981 15.234375,16 L13.890625,16 L12.5273438,13.8085938 L11.8828125,13.8085938 Z M15.953125,16 L15.953125,10.2890625 L17.1640625,10.2890625 L17.1640625,16 L15.953125,16 Z M15.8867188,9.83203125 L15.8867188,9.7265625 C16.3346377,9.20572656 16.6406242,8.8138034 16.8046875,8.55078125 L18.140625,8.55078125 L18.140625,8.6328125 C18.0052077,8.76822984 17.7740902,8.96939971 17.4472656,9.23632812 C17.1204411,9.50325654 16.8645843,9.70182227 16.6796875,9.83203125 L15.8867188,9.83203125 Z M23.7851562,13.1367188 C23.7851562,14.082036 23.5507836,14.8085912 23.0820312,15.3164062 C22.6132789,15.8242213 21.9414106,16.078125 21.0664062,16.078125 C20.1914019,16.078125 19.5195336,15.8242213 19.0507812,15.3164062 C18.5820289,14.8085912 18.3476562,14.0794318 18.3476562,13.1289062 C18.3476562,12.1783807 18.5826799,11.4524765 19.0527344,10.9511719 C19.5227888,10.4498673 20.1966102,10.1992188 21.0742188,10.1992188 C21.9518273,10.1992188 22.6230446,10.4518204 23.0878906,10.9570312 C23.5527367,11.4622421 23.7851562,12.1887973 23.7851562,13.1367188 Z M19.6171875,13.1367188 C19.6171875,13.7747428 19.73828,14.2552067 19.9804688,14.578125 C20.2226575,14.9010433 20.584633,15.0625 21.0664062,15.0625 C22.0325569,15.0625 22.515625,14.4205793 22.515625,13.1367188 C22.515625,11.850254 22.0351611,11.2070312 21.0742188,11.2070312 C20.5924455,11.2070312 20.2291679,11.369139 19.984375,11.6933594 C19.7395821,12.0175797 19.6171875,12.4986947 19.6171875,13.1367188 Z M30.5429688,16 L30.1289062,14.640625 L28.046875,14.640625 L27.6328125,16 L26.328125,16 L28.34375,10.265625 L29.8242188,10.265625 L31.8476562,16 L30.5429688,16 Z M29.8398438,13.625 C29.4570293,12.393223 29.2415367,11.6966154 29.1933594,11.5351562 C29.1451821,11.3736971 29.1106772,11.2460942 29.0898438,11.1523438 C29.0039058,11.4856787 28.7578145,12.3098893 28.3515625,13.625 L29.8398438,13.625 Z M36.2890625,16 L32.0390625,16 L32.0390625,15.2148438 L34.7773438,11.2890625 L32.1132812,11.2890625 L32.1132812,10.2890625 L36.2148438,10.2890625 L36.2148438,11.0703125 L33.4804688,15 L36.2890625,15 L36.2890625,16 Z M41.8476562,10.2890625 L41.8476562,13.984375 C41.8476562,14.4062521 41.7532562,14.7760401 41.5644531,15.09375 C41.3756501,15.4114599 41.1028664,15.6549471 40.7460938,15.8242188 C40.3893211,15.9934904 39.9674504,16.078125 39.4804688,16.078125 C38.7460901,16.078125 38.1757833,15.8899758 37.7695312,15.5136719 C37.3632792,15.1373679 37.1601562,14.6223991 37.1601562,13.96875 L37.1601562,10.2890625 L38.3671875,10.2890625 L38.3671875,13.7851562 C38.3671875,14.2252626 38.4557283,14.5481761 38.6328125,14.7539062 C38.8098967,14.9596364 39.1028625,15.0625 39.5117188,15.0625 C39.9075541,15.0625 40.1946606,14.9589854 40.3730469,14.7519531 C40.5514332,14.5449208 40.640625,14.2200543 40.640625,13.7773438 L40.640625,10.2890625 L41.8476562,10.2890625 Z M43.2460938,16 L43.2460938,10.2890625 L44.4570312,10.2890625 L44.4570312,15 L46.7734375,15 L46.7734375,16 L43.2460938,16 Z" id="río-azul" fill="#FFFFFF"></path>
        </g>
    </g>
</svg>