<?xml version="1.0" encoding="UTF-8"?>
<svg width="65px" height="27px" viewBox="0 0 65 27" version="1.1" xmlns="http://www.w3.org/2000/svg" xmlns:xlink="http://www.w3.org/1999/xlink">
    <!-- Generator: Sketch 48.2 (47327) - http://www.bohemiancoding.com/sketch -->
    <title>san_vito</title>
    <desc>Created with Sketch.</desc>
    <defs>
        <path d="M17.8208049,6 C16.6655751,7.89393294 16,10.1192398 16,12.5 C16,15.3140148 16.9298621,17.9108487 18.4990845,20 L7,20 C3.13400675,20 4.73447626e-16,16.8659932 0,13 C-4.73447626e-16,9.13400675 3.13400675,6 7,6 L17.8208049,6 Z M39.1791951,6 L50,6 C53.8659932,6 57,9.13400675 57,13 C57,16.8659932 53.8659932,20 50,20 L38.5009155,20 C40.0701379,17.9108487 41,15.3140148 41,12.5 C41,10.1192398 40.3344249,7.89393294 39.1791951,6 Z" id="path-1"></path>
        <filter x="-11.4%" y="-39.3%" width="122.8%" height="192.9%" filterUnits="objectBoundingBox" id="filter-2">
            <feOffset dx="0" dy="1" in="SourceAlpha" result="shadowOffsetOuter1"></feOffset>
            <feGaussianBlur stdDeviation="2" in="shadowOffsetOuter1" result="shadowBlurOuter1"></feGaussianBlur>
            <feColorMatrix values="0 0 0 0 0   0 0 0 0 0   0 0 0 0 0  0 0 0 0.5 0" type="matrix" in="shadowBlurOuter1"></feColorMatrix>
        </filter>
    </defs>
    <g id="Volcanes-fallas" stroke="none" stroke-width="1" fill="none" fill-rule="evenodd">
        <g id="san_vito" transform="translate(4.000000, 1.000000)">
            <g id="ic_volcano_label-copy-19">
                <g id="Group-Copy-3" transform="translate(16.000000, 0.000000)">
                    <g id="Group-26-Copy-4"></g>
                </g>
                <circle id="Oval-2-Copy-5" stroke="#FFFFFF" stroke-width="0.5" fill="#FF6D00" cx="28.5" cy="12.5" r="12.5"></circle>
                <g id="Combined-Shape">
                    <use fill="black" fill-opacity="1" filter="url(#filter-2)" xlink:href="#path-1"></use>
                    <use fill="#263238" fill-rule="evenodd" xlink:href="#path-1"></use>
                </g>
                <rect id="Rectangle-2-Copy-4" fill="#263238" x="0" y="6" width="57" height="14" rx="7"></rect>
            </g>
            <path d="M13.9921875,14.4140625 C13.9921875,14.9296901 13.8066425,15.335936 13.4355469,15.6328125 C13.0644513,15.929689 12.5481804,16.078125 11.8867188,16.078125 C11.2773407,16.078125 10.7382836,15.9635428 10.2695312,15.734375 L10.2695312,14.609375 C10.6549498,14.7812509 10.9811185,14.9023434 11.2480469,14.9726562 C11.5149753,15.0429691 11.7591135,15.078125 11.9804688,15.078125 C12.2460951,15.078125 12.4498691,15.0273443 12.5917969,14.9257812 C12.7337247,14.8242182 12.8046875,14.6731781 12.8046875,14.4726562 C12.8046875,14.3606765 12.7734378,14.2610681 12.7109375,14.1738281 C12.6484372,14.0865881 12.5566412,14.0026046 12.4355469,13.921875 C12.3144525,13.8411454 12.0677102,13.7122405 11.6953125,13.5351562 C11.3463524,13.3710929 11.0846363,13.2135424 10.9101562,13.0625 C10.7356762,12.9114576 10.5963547,12.7356781 10.4921875,12.5351562 C10.3880203,12.3346344 10.3359375,12.1002618 10.3359375,11.8320312 C10.3359375,11.3268204 10.5071597,10.9296889 10.8496094,10.640625 C11.192059,10.3515611 11.6653616,10.2070312 12.2695312,10.2070312 C12.5664077,10.2070312 12.849608,10.2421871 13.1191406,10.3125 C13.3886732,10.3828129 13.6705714,10.4817702 13.9648438,10.609375 L13.5742188,11.5507812 C13.2695297,11.4257806 13.0175791,11.3385419 12.8183594,11.2890625 C12.6191396,11.2395831 12.423178,11.2148438 12.2304688,11.2148438 C12.0013009,11.2148438 11.8255214,11.2682286 11.703125,11.375 C11.5807286,11.4817714 11.5195312,11.6210929 11.5195312,11.7929688 C11.5195312,11.8997401 11.5442706,11.9928381 11.59375,12.0722656 C11.6432294,12.1516931 11.7220047,12.2285153 11.8300781,12.3027344 C11.9381516,12.3769535 12.1940084,12.5104157 12.5976562,12.703125 C13.1315131,12.9583346 13.4973948,13.2141914 13.6953125,13.4707031 C13.8932302,13.7272148 13.9921875,14.0416648 13.9921875,14.4140625 Z M18.5234375,16 L18.109375,14.640625 L16.0273438,14.640625 L15.6132812,16 L14.3085938,16 L16.3242188,10.265625 L17.8046875,10.265625 L19.828125,16 L18.5234375,16 Z M17.8203125,13.625 C17.4374981,12.393223 17.2220054,11.6966154 17.1738281,11.5351562 C17.1256508,11.3736971 17.0911459,11.2460942 17.0703125,11.1523438 C16.9843746,11.4856787 16.7382833,12.3098893 16.3320312,13.625 L17.8203125,13.625 Z M25.6132812,16 L24.0742188,16 L21.5898438,11.6796875 L21.5546875,11.6796875 C21.6041669,12.4427121 21.6289062,12.9869775 21.6289062,13.3125 L21.6289062,16 L20.546875,16 L20.546875,10.2890625 L22.0742188,10.2890625 L24.5546875,14.5664062 L24.5820312,14.5664062 C24.5429686,13.824215 24.5234375,13.2994807 24.5234375,12.9921875 L24.5234375,10.2890625 L25.6132812,10.2890625 L25.6132812,16 Z M32.3867188,10.2890625 L33.609375,10.2890625 L31.6679688,16 L30.3476562,16 L28.4101562,10.2890625 L29.6328125,10.2890625 L30.7070312,13.6875 C30.7669274,13.8880218 30.8287757,14.1217435 30.8925781,14.3886719 C30.9563805,14.6556003 30.9960937,14.8411453 31.0117188,14.9453125 C31.0403647,14.705728 31.13802,14.2864613 31.3046875,13.6875 L32.3867188,10.2890625 Z M34.328125,16 L34.328125,10.2890625 L35.5390625,10.2890625 L35.5390625,16 L34.328125,16 Z M39.1796875,16 L37.96875,16 L37.96875,11.296875 L36.4179688,11.296875 L36.4179688,10.2890625 L40.7304688,10.2890625 L40.7304688,11.296875 L39.1796875,11.296875 L39.1796875,16 Z M46.6328125,13.1367188 C46.6328125,14.082036 46.3984398,14.8085912 45.9296875,15.3164062 C45.4609352,15.8242213 44.7890669,16.078125 43.9140625,16.078125 C43.0390581,16.078125 42.3671898,15.8242213 41.8984375,15.3164062 C41.4296852,14.8085912 41.1953125,14.0794318 41.1953125,13.1289062 C41.1953125,12.1783807 41.4303362,11.4524765 41.9003906,10.9511719 C42.3704451,10.4498673 43.0442664,10.1992188 43.921875,10.1992188 C44.7994836,10.1992188 45.4707008,10.4518204 45.9355469,10.9570312 C46.4003929,11.4622421 46.6328125,12.1887973 46.6328125,13.1367188 Z M42.4648438,13.1367188 C42.4648438,13.7747428 42.5859363,14.2552067 42.828125,14.578125 C43.0703137,14.9010433 43.4322893,15.0625 43.9140625,15.0625 C44.8802132,15.0625 45.3632812,14.4205793 45.3632812,13.1367188 C45.3632812,11.850254 44.8828173,11.2070312 43.921875,11.2070312 C43.4401018,11.2070312 43.0768241,11.369139 42.8320312,11.6933594 C42.5872384,12.0175797 42.4648438,12.4986947 42.4648438,13.1367188 Z" id="san-vito" fill="#FFFFFF"></path>
        </g>
    </g>
</svg>