<?xml version="1.0" encoding="UTF-8"?>
<svg width="65px" height="27px" viewBox="0 0 65 27" version="1.1" xmlns="http://www.w3.org/2000/svg" xmlns:xlink="http://www.w3.org/1999/xlink">
    <!-- Generator: Sketch 48.2 (47327) - http://www.bohemiancoding.com/sketch -->
    <title>san_miguel</title>
    <desc>Created with Sketch.</desc>
    <defs>
        <path d="M17.8208049,6 C16.6655751,7.89393294 16,10.1192398 16,12.5 C16,15.3140148 16.9298621,17.9108487 18.4990845,20 L7,20 C3.13400675,20 4.73447626e-16,16.8659932 0,13 C-4.73447626e-16,9.13400675 3.13400675,6 7,6 L17.8208049,6 Z M39.1791951,6 L50,6 C53.8659932,6 57,9.13400675 57,13 C57,16.8659932 53.8659932,20 50,20 L38.5009155,20 C40.0701379,17.9108487 41,15.3140148 41,12.5 C41,10.1192398 40.3344249,7.89393294 39.1791951,6 Z" id="path-1"></path>
        <filter x="-11.4%" y="-39.3%" width="122.8%" height="192.9%" filterUnits="objectBoundingBox" id="filter-2">
            <feOffset dx="0" dy="1" in="SourceAlpha" result="shadowOffsetOuter1"></feOffset>
            <feGaussianBlur stdDeviation="2" in="shadowOffsetOuter1" result="shadowBlurOuter1"></feGaussianBlur>
            <feColorMatrix values="0 0 0 0 0   0 0 0 0 0   0 0 0 0 0  0 0 0 0.5 0" type="matrix" in="shadowBlurOuter1"></feColorMatrix>
        </filter>
    </defs>
    <g id="Volcanes-fallas" stroke="none" stroke-width="1" fill="none" fill-rule="evenodd">
        <g id="san_miguel" transform="translate(4.000000, 1.000000)">
            <g id="ic_volcano_label-copy-19">
                <g id="Group-Copy-3" transform="translate(16.000000, 0.000000)">
                    <g id="Group-26-Copy-4"></g>
                </g>
                <circle id="Oval-2-Copy-5" stroke="#FFFFFF" stroke-width="0.5" fill="#FF6D00" cx="28.5" cy="12.5" r="12.5"></circle>
                <g id="Combined-Shape">
                    <use fill="black" fill-opacity="1" filter="url(#filter-2)" xlink:href="#path-1"></use>
                    <use fill="#263238" fill-rule="evenodd" xlink:href="#path-1"></use>
                </g>
                <rect id="Rectangle-2-Copy-4" fill="#263238" x="0" y="6" width="57" height="14" rx="7"></rect>
            </g>
            <path d="M7.8203125,14.4140625 C7.8203125,14.9296901 7.63476748,15.335936 7.26367188,15.6328125 C6.89257627,15.929689 6.37630539,16.078125 5.71484375,16.078125 C5.1054657,16.078125 4.56640859,15.9635428 4.09765625,15.734375 L4.09765625,14.609375 C4.48307484,14.7812509 4.80924346,14.9023434 5.07617188,14.9726562 C5.34310029,15.0429691 5.58723848,15.078125 5.80859375,15.078125 C6.07422008,15.078125 6.27799408,15.0273443 6.41992188,14.9257812 C6.56184967,14.8242182 6.6328125,14.6731781 6.6328125,14.4726562 C6.6328125,14.3606765 6.60156281,14.2610681 6.5390625,14.1738281 C6.47656219,14.0865881 6.38476623,14.0026046 6.26367188,13.921875 C6.14257752,13.8411454 5.8958352,13.7122405 5.5234375,13.5351562 C5.17447742,13.3710929 4.91276129,13.2135424 4.73828125,13.0625 C4.56380121,12.9114576 4.42447969,12.7356781 4.3203125,12.5351562 C4.21614531,12.3346344 4.1640625,12.1002618 4.1640625,11.8320312 C4.1640625,11.3268204 4.33528475,10.9296889 4.67773438,10.640625 C5.020184,10.3515611 5.49348656,10.2070312 6.09765625,10.2070312 C6.39453273,10.2070312 6.67773303,10.2421871 6.94726562,10.3125 C7.21679822,10.3828129 7.49869645,10.4817702 7.79296875,10.609375 L7.40234375,11.5507812 C7.09765473,11.4257806 6.84570412,11.3385419 6.64648438,11.2890625 C6.44726463,11.2395831 6.25130305,11.2148438 6.05859375,11.2148438 C5.82942594,11.2148438 5.65364645,11.2682286 5.53125,11.375 C5.40885355,11.4817714 5.34765625,11.6210929 5.34765625,11.7929688 C5.34765625,11.8997401 5.37239559,11.9928381 5.421875,12.0722656 C5.47135441,12.1516931 5.55012967,12.2285153 5.65820312,12.3027344 C5.76627658,12.3769535 6.0221334,12.5104157 6.42578125,12.703125 C6.95963809,12.9583346 7.32551984,13.2141914 7.5234375,13.4707031 C7.72135516,13.7272148 7.8203125,14.0416648 7.8203125,14.4140625 Z M12.3515625,16 L11.9375,14.640625 L9.85546875,14.640625 L9.44140625,16 L8.13671875,16 L10.1523438,10.265625 L11.6328125,10.265625 L13.65625,16 L12.3515625,16 Z M11.6484375,13.625 C11.2656231,12.393223 11.0501304,11.6966154 11.0019531,11.5351562 C10.9537758,11.3736971 10.9192709,11.2460942 10.8984375,11.1523438 C10.8124996,11.4856787 10.5664083,12.3098893 10.1601562,13.625 L11.6484375,13.625 Z M19.4414062,16 L17.9023438,16 L15.4179688,11.6796875 L15.3828125,11.6796875 C15.4322919,12.4427121 15.4570312,12.9869775 15.4570312,13.3125 L15.4570312,16 L14.375,16 L14.375,10.2890625 L15.9023438,10.2890625 L18.3828125,14.5664062 L18.4101562,14.5664062 C18.3710936,13.824215 18.3515625,13.2994807 18.3515625,12.9921875 L18.3515625,10.2890625 L19.4414062,10.2890625 L19.4414062,16 Z M25.375,16 L24,11.5195312 L23.9648438,11.5195312 C24.0143232,12.4309941 24.0390625,13.039061 24.0390625,13.34375 L24.0390625,16 L22.9570312,16 L22.9570312,10.2890625 L24.6054688,10.2890625 L25.9570312,14.65625 L25.9804688,14.65625 L27.4140625,10.2890625 L29.0625,10.2890625 L29.0625,16 L27.9335938,16 L27.9335938,13.296875 C27.9335938,13.1692702 27.9355469,13.0221362 27.9394531,12.8554688 C27.9433594,12.6888013 27.9609373,12.2460973 27.9921875,11.5273438 L27.9570312,11.5273438 L26.484375,16 L25.375,16 Z M30.5,16 L30.5,10.2890625 L31.7109375,10.2890625 L31.7109375,16 L30.5,16 Z M35.3164062,12.7929688 L37.5820313,12.7929688 L37.5820313,15.7539062 C37.2148419,15.8736985 36.8691422,15.9576821 36.5449219,16.0058594 C36.2207015,16.0540367 35.8893246,16.078125 35.5507812,16.078125 C34.6887978,16.078125 34.0306012,15.8248723 33.5761719,15.3183594 C33.1217425,14.8118464 32.8945312,14.0846402 32.8945312,13.1367188 C32.8945312,12.2148391 33.1582005,11.4960963 33.6855469,10.9804688 C34.2128933,10.4648412 34.9440057,10.2070312 35.8789062,10.2070312 C36.4648467,10.2070312 37.0299452,10.3242176 37.5742188,10.5585938 L37.171875,11.5273438 C36.7552063,11.3190094 36.3216168,11.2148438 35.8710938,11.2148438 C35.3476536,11.2148438 34.928387,11.3906232 34.6132812,11.7421875 C34.2981755,12.0937518 34.140625,12.5664033 34.140625,13.1601562 C34.140625,13.779951 34.2675769,14.2532536 34.5214844,14.5800781 C34.7753919,14.9069027 35.1445288,15.0703125 35.6289062,15.0703125 C35.8815117,15.0703125 36.1380195,15.0442711 36.3984375,14.9921875 L36.3984375,13.8007812 L35.3164062,13.8007812 L35.3164062,12.7929688 Z M43.5898438,10.2890625 L43.5898438,13.984375 C43.5898438,14.4062521 43.4954437,14.7760401 43.3066406,15.09375 C43.1178376,15.4114599 42.8450539,15.6549471 42.4882813,15.8242188 C42.1315086,15.9934904 41.7096379,16.078125 41.2226563,16.078125 C40.4882776,16.078125 39.9179708,15.8899758 39.5117188,15.5136719 C39.1054667,15.1373679 38.9023438,14.6223991 38.9023438,13.96875 L38.9023438,10.2890625 L40.109375,10.2890625 L40.109375,13.7851562 C40.109375,14.2252626 40.1979158,14.5481761 40.375,14.7539062 C40.5520842,14.9596364 40.84505,15.0625 41.2539063,15.0625 C41.6497416,15.0625 41.9368481,14.9589854 42.1152344,14.7519531 C42.2936207,14.5449208 42.3828125,14.2200543 42.3828125,13.7773438 L42.3828125,10.2890625 L43.5898438,10.2890625 Z M48.2773437,16 L44.9882812,16 L44.9882812,10.2890625 L48.2773437,10.2890625 L48.2773437,11.28125 L46.1992187,11.28125 L46.1992187,12.5351562 L48.1328125,12.5351562 L48.1328125,13.5273438 L46.1992187,13.5273438 L46.1992187,15 L48.2773437,15 L48.2773437,16 Z M49.46875,16 L49.46875,10.2890625 L50.6796875,10.2890625 L50.6796875,15 L52.9960938,15 L52.9960938,16 L49.46875,16 Z" id="san-miguel" fill="#FFFFFF"></path>
        </g>
    </g>
</svg>