<?xml version="1.0" encoding="UTF-8"?>
<svg width="65px" height="27px" viewBox="0 0 65 27" version="1.1" xmlns="http://www.w3.org/2000/svg" xmlns:xlink="http://www.w3.org/1999/xlink">
    <!-- Generator: Sketch 48.2 (47327) - http://www.bohemiancoding.com/sketch -->
    <title>san_carlos</title>
    <desc>Created with Sketch.</desc>
    <defs>
        <path d="M17.8208049,6 C16.6655751,7.89393294 16,10.1192398 16,12.5 C16,15.3140148 16.9298621,17.9108487 18.4990845,20 L7,20 C3.13400675,20 4.73447626e-16,16.8659932 0,13 C-4.73447626e-16,9.13400675 3.13400675,6 7,6 L17.8208049,6 Z M39.1791951,6 L50,6 C53.8659932,6 57,9.13400675 57,13 C57,16.8659932 53.8659932,20 50,20 L38.5009155,20 C40.0701379,17.9108487 41,15.3140148 41,12.5 C41,10.1192398 40.3344249,7.89393294 39.1791951,6 Z" id="path-1"></path>
        <filter x="-11.4%" y="-39.3%" width="122.8%" height="192.9%" filterUnits="objectBoundingBox" id="filter-2">
            <feOffset dx="0" dy="1" in="SourceAlpha" result="shadowOffsetOuter1"></feOffset>
            <feGaussianBlur stdDeviation="2" in="shadowOffsetOuter1" result="shadowBlurOuter1"></feGaussianBlur>
            <feColorMatrix values="0 0 0 0 0   0 0 0 0 0   0 0 0 0 0  0 0 0 0.5 0" type="matrix" in="shadowBlurOuter1"></feColorMatrix>
        </filter>
    </defs>
    <g id="Volcanes-fallas" stroke="none" stroke-width="1" fill="none" fill-rule="evenodd">
        <g id="san_carlos" transform="translate(4.000000, 1.000000)">
            <g id="ic_volcano_label-copy-19">
                <g id="Group-Copy-3" transform="translate(16.000000, 0.000000)">
                    <g id="Group-26-Copy-4"></g>
                </g>
                <circle id="Oval-2-Copy-5" stroke="#FFFFFF" stroke-width="0.5" fill="#FF6D00" cx="28.5" cy="12.5" r="12.5"></circle>
                <g id="Combined-Shape">
                    <use fill="black" fill-opacity="1" filter="url(#filter-2)" xlink:href="#path-1"></use>
                    <use fill="#263238" fill-rule="evenodd" xlink:href="#path-1"></use>
                </g>
                <rect id="Rectangle-2-Copy-4" fill="#263238" x="0" y="6" width="57" height="14" rx="7"></rect>
            </g>
            <path d="M7.8203125,14.4140625 C7.8203125,14.9296901 7.63476748,15.335936 7.26367188,15.6328125 C6.89257627,15.929689 6.37630539,16.078125 5.71484375,16.078125 C5.1054657,16.078125 4.56640859,15.9635428 4.09765625,15.734375 L4.09765625,14.609375 C4.48307484,14.7812509 4.80924346,14.9023434 5.07617188,14.9726562 C5.34310029,15.0429691 5.58723848,15.078125 5.80859375,15.078125 C6.07422008,15.078125 6.27799408,15.0273443 6.41992188,14.9257812 C6.56184967,14.8242182 6.6328125,14.6731781 6.6328125,14.4726562 C6.6328125,14.3606765 6.60156281,14.2610681 6.5390625,14.1738281 C6.47656219,14.0865881 6.38476623,14.0026046 6.26367188,13.921875 C6.14257752,13.8411454 5.8958352,13.7122405 5.5234375,13.5351562 C5.17447742,13.3710929 4.91276129,13.2135424 4.73828125,13.0625 C4.56380121,12.9114576 4.42447969,12.7356781 4.3203125,12.5351562 C4.21614531,12.3346344 4.1640625,12.1002618 4.1640625,11.8320312 C4.1640625,11.3268204 4.33528475,10.9296889 4.67773438,10.640625 C5.020184,10.3515611 5.49348656,10.2070312 6.09765625,10.2070312 C6.39453273,10.2070312 6.67773303,10.2421871 6.94726562,10.3125 C7.21679822,10.3828129 7.49869645,10.4817702 7.79296875,10.609375 L7.40234375,11.5507812 C7.09765473,11.4257806 6.84570412,11.3385419 6.64648438,11.2890625 C6.44726463,11.2395831 6.25130305,11.2148438 6.05859375,11.2148438 C5.82942594,11.2148438 5.65364645,11.2682286 5.53125,11.375 C5.40885355,11.4817714 5.34765625,11.6210929 5.34765625,11.7929688 C5.34765625,11.8997401 5.37239559,11.9928381 5.421875,12.0722656 C5.47135441,12.1516931 5.55012967,12.2285153 5.65820312,12.3027344 C5.76627658,12.3769535 6.0221334,12.5104157 6.42578125,12.703125 C6.95963809,12.9583346 7.32551984,13.2141914 7.5234375,13.4707031 C7.72135516,13.7272148 7.8203125,14.0416648 7.8203125,14.4140625 Z M12.3515625,16 L11.9375,14.640625 L9.85546875,14.640625 L9.44140625,16 L8.13671875,16 L10.1523438,10.265625 L11.6328125,10.265625 L13.65625,16 L12.3515625,16 Z M11.6484375,13.625 C11.2656231,12.393223 11.0501304,11.6966154 11.0019531,11.5351562 C10.9537758,11.3736971 10.9192709,11.2460942 10.8984375,11.1523438 C10.8124996,11.4856787 10.5664083,12.3098893 10.1601562,13.625 L11.6484375,13.625 Z M19.4414062,16 L17.9023438,16 L15.4179687,11.6796875 L15.3828125,11.6796875 C15.4322919,12.4427121 15.4570312,12.9869775 15.4570312,13.3125 L15.4570312,16 L14.375,16 L14.375,10.2890625 L15.9023437,10.2890625 L18.3828125,14.5664062 L18.4101562,14.5664062 C18.3710936,13.824215 18.3515625,13.2994807 18.3515625,12.9921875 L18.3515625,10.2890625 L19.4414062,10.2890625 L19.4414062,16 Z M25.3828125,11.2148438 C24.9270811,11.2148438 24.57422,11.386066 24.3242188,11.7285156 C24.0742175,12.0709653 23.9492188,12.548174 23.9492188,13.1601562 C23.9492188,14.4336001 24.4270786,15.0703125 25.3828125,15.0703125 C25.7838562,15.0703125 26.2695284,14.9700531 26.8398438,14.7695312 L26.8398438,15.7851562 C26.3710914,15.9804697 25.8476591,16.078125 25.2695312,16.078125 C24.4387979,16.078125 23.8033876,15.8261744 23.3632812,15.3222656 C22.9231749,14.8183569 22.703125,14.0950568 22.703125,13.1523438 C22.703125,12.5585908 22.8111968,12.0384137 23.0273438,11.5917969 C23.2434907,11.1451801 23.5540344,10.8027356 23.9589844,10.5644531 C24.3639343,10.3261707 24.8385389,10.2070312 25.3828125,10.2070312 C25.9375028,10.2070312 26.4947889,10.3411445 27.0546875,10.609375 L26.6640625,11.59375 C26.4505198,11.492187 26.2356782,11.4036462 26.0195312,11.328125 C25.8033843,11.2526038 25.5911469,11.2148438 25.3828125,11.2148438 Z M31.5507813,16 L31.1367188,14.640625 L29.0546875,14.640625 L28.640625,16 L27.3359375,16 L29.3515625,10.265625 L30.8320313,10.265625 L32.8554688,16 L31.5507813,16 Z M30.8476562,13.625 C30.4648418,12.393223 30.2493492,11.6966154 30.2011719,11.5351562 C30.1529946,11.3736971 30.1184897,11.2460942 30.0976562,11.1523438 C30.0117183,11.4856787 29.765627,12.3098893 29.359375,13.625 L30.8476562,13.625 Z M34.7851562,12.8242188 L35.1757812,12.8242188 C35.5585957,12.8242188 35.8411449,12.7604173 36.0234375,12.6328125 C36.2057301,12.5052077 36.296875,12.3046889 36.296875,12.03125 C36.296875,11.7604153 36.203777,11.5677089 36.0175781,11.453125 C35.8313793,11.3385411 35.5429707,11.28125 35.1523438,11.28125 L34.7851562,11.28125 L34.7851562,12.8242188 Z M34.7851562,13.8085938 L34.7851562,16 L33.5742188,16 L33.5742188,10.2890625 L35.2382812,10.2890625 C36.0143268,10.2890625 36.5885398,10.4303371 36.9609375,10.7128906 C37.3333352,10.9954441 37.5195312,11.4244763 37.5195312,12 C37.5195312,12.3359392 37.4270843,12.6347643 37.2421875,12.8964844 C37.0572907,13.1582044 36.7955746,13.3632805 36.4570312,13.5117188 C37.3164105,14.7955793 37.8763008,15.6249981 38.1367188,16 L36.7929688,16 L35.4296875,13.8085938 L34.7851562,13.8085938 Z M38.8554688,16 L38.8554688,10.2890625 L40.0664063,10.2890625 L40.0664063,15 L42.3828125,15 L42.3828125,16 L38.8554688,16 Z M48.3984375,13.1367188 C48.3984375,14.082036 48.1640648,14.8085912 47.6953125,15.3164062 C47.2265602,15.8242213 46.5546919,16.078125 45.6796875,16.078125 C44.8046831,16.078125 44.1328148,15.8242213 43.6640625,15.3164062 C43.1953102,14.8085912 42.9609375,14.0794318 42.9609375,13.1289062 C42.9609375,12.1783807 43.1959612,11.4524765 43.6660156,10.9511719 C44.1360701,10.4498673 44.8098914,10.1992188 45.6875,10.1992188 C46.5651086,10.1992188 47.2363258,10.4518204 47.7011719,10.9570312 C48.1660179,11.4622421 48.3984375,12.1887973 48.3984375,13.1367188 Z M44.2304688,13.1367188 C44.2304688,13.7747428 44.3515613,14.2552067 44.59375,14.578125 C44.8359387,14.9010433 45.1979143,15.0625 45.6796875,15.0625 C46.6458382,15.0625 47.1289063,14.4205793 47.1289063,13.1367188 C47.1289063,11.850254 46.6484423,11.2070312 45.6875,11.2070312 C45.2057268,11.2070312 44.8424491,11.369139 44.5976563,11.6933594 C44.3528634,12.0175797 44.2304688,12.4986947 44.2304688,13.1367188 Z M52.953125,14.4140625 C52.953125,14.9296901 52.76758,15.335936 52.3964844,15.6328125 C52.0253888,15.929689 51.5091179,16.078125 50.8476562,16.078125 C50.2382782,16.078125 49.6992211,15.9635428 49.2304687,15.734375 L49.2304687,14.609375 C49.6158873,14.7812509 49.942056,14.9023434 50.2089844,14.9726562 C50.4759128,15.0429691 50.720051,15.078125 50.9414062,15.078125 C51.2070326,15.078125 51.4108066,15.0273443 51.5527344,14.9257812 C51.6946622,14.8242182 51.765625,14.6731781 51.765625,14.4726562 C51.765625,14.3606765 51.7343753,14.2610681 51.671875,14.1738281 C51.6093747,14.0865881 51.5175787,14.0026046 51.3964844,13.921875 C51.27539,13.8411454 51.0286477,13.7122405 50.65625,13.5351562 C50.3072899,13.3710929 50.0455738,13.2135424 49.8710937,13.0625 C49.6966137,12.9114576 49.5572922,12.7356781 49.453125,12.5351562 C49.3489578,12.3346344 49.296875,12.1002618 49.296875,11.8320312 C49.296875,11.3268204 49.4680972,10.9296889 49.8105469,10.640625 C50.1529965,10.3515611 50.6262991,10.2070312 51.2304687,10.2070312 C51.5273452,10.2070312 51.8105455,10.2421871 52.0800781,10.3125 C52.3496107,10.3828129 52.6315089,10.4817702 52.9257812,10.609375 L52.5351562,11.5507812 C52.2304672,11.4257806 51.9785166,11.3385419 51.7792969,11.2890625 C51.5800771,11.2395831 51.3841155,11.2148438 51.1914062,11.2148438 C50.9622384,11.2148438 50.7864589,11.2682286 50.6640625,11.375 C50.5416661,11.4817714 50.4804687,11.6210929 50.4804687,11.7929688 C50.4804687,11.8997401 50.5052081,11.9928381 50.5546875,12.0722656 C50.6041669,12.1516931 50.6829422,12.2285153 50.7910156,12.3027344 C50.8990891,12.3769535 51.1549459,12.5104157 51.5585937,12.703125 C52.0924506,12.9583346 52.4583323,13.2141914 52.65625,13.4707031 C52.8541677,13.7272148 52.953125,14.0416648 52.953125,14.4140625 Z" id="san-carlos" fill="#FFFFFF"></path>
        </g>
    </g>
</svg>