<?xml version="1.0" encoding="UTF-8"?>
<svg width="88px" height="27px" viewBox="0 0 88 27" version="1.1" xmlns="http://www.w3.org/2000/svg" xmlns:xlink="http://www.w3.org/1999/xlink">
    <!-- Generator: Sketch 48.2 (47327) - http://www.bohemiancoding.com/sketch -->
    <title>santa_clara</title>
    <desc>Created with Sketch.</desc>
    <defs>
        <path d="M30.6751405,6 C29.6123291,7.89393294 29,10.1192398 29,12.5 C29,15.3140148 29.8554731,17.9108487 31.2991578,20 L9,20 C5.13400675,20 2,16.8659932 2,13 C2,9.13400675 5.13400675,6 9,6 L30.6751405,6 Z M50.3248595,6 L72,6 C75.8659932,6 79,9.13400675 79,13 C79,16.8659932 75.8659932,20 72,20 L49.7008422,20 C51.1445269,17.9108487 52,15.3140148 52,12.5 C52,10.1192398 51.3876709,7.89393294 50.3248595,6 Z" id="path-1"></path>
        <filter x="-8.4%" y="-39.3%" width="116.9%" height="192.9%" filterUnits="objectBoundingBox" id="filter-2">
            <feOffset dx="0" dy="1" in="SourceAlpha" result="shadowOffsetOuter1"></feOffset>
            <feGaussianBlur stdDeviation="2" in="shadowOffsetOuter1" result="shadowBlurOuter1"></feGaussianBlur>
            <feColorMatrix values="0 0 0 0 0   0 0 0 0 0   0 0 0 0 0  0 0 0 0.5 0" type="matrix" in="shadowBlurOuter1"></feColorMatrix>
        </filter>
        <rect id="path-3" x="0" y="6" width="80" height="14" rx="7"></rect>
        <filter x="-8.1%" y="-39.3%" width="116.2%" height="192.9%" filterUnits="objectBoundingBox" id="filter-4">
            <feOffset dx="0" dy="1" in="SourceAlpha" result="shadowOffsetOuter1"></feOffset>
            <feGaussianBlur stdDeviation="2" in="shadowOffsetOuter1" result="shadowBlurOuter1"></feGaussianBlur>
            <feColorMatrix values="0 0 0 0 0   0 0 0 0 0   0 0 0 0 0  0 0 0 0.5 0" type="matrix" in="shadowBlurOuter1"></feColorMatrix>
        </filter>
    </defs>
    <g id="Volcanes-fallas" stroke="none" stroke-width="1" fill="none" fill-rule="evenodd">
        <g id="santa_clara" transform="translate(4.000000, 1.000000)">
            <g id="ic_volcano_label-copy-18">
                <g id="Group-Copy-3">
                    <g id="Group-26-Copy-4" transform="translate(28.000000, 0.000000)" fill="#FF6D00" stroke="#FFFFFF" stroke-width="0.5">
                        <circle id="Oval-2-Copy-5" cx="12.5" cy="12.5" r="12.5"></circle>
                    </g>
                    <g id="Combined-Shape">
                        <use fill="black" fill-opacity="1" filter="url(#filter-2)" xlink:href="#path-1"></use>
                        <use fill="#263238" fill-rule="evenodd" xlink:href="#path-1"></use>
                    </g>
                    <g id="Rectangle-2-Copy-4">
                        <use fill="black" fill-opacity="1" filter="url(#filter-4)" xlink:href="#path-3"></use>
                        <use fill="#263238" fill-rule="evenodd" xlink:href="#path-3"></use>
                    </g>
                </g>
                <path d="M17.0703125,14.4140625 C17.0703125,14.9296901 16.8847675,15.335936 16.5136719,15.6328125 C16.1425763,15.929689 15.6263054,16.078125 14.9648438,16.078125 C14.3554657,16.078125 13.8164086,15.9635428 13.3476562,15.734375 L13.3476562,14.609375 C13.7330748,14.7812509 14.0592435,14.9023434 14.3261719,14.9726562 C14.5931003,15.0429691 14.8372385,15.078125 15.0585938,15.078125 C15.3242201,15.078125 15.5279941,15.0273443 15.6699219,14.9257812 C15.8118497,14.8242182 15.8828125,14.6731781 15.8828125,14.4726562 C15.8828125,14.3606765 15.8515628,14.2610681 15.7890625,14.1738281 C15.7265622,14.0865881 15.6347662,14.0026046 15.5136719,13.921875 C15.3925775,13.8411454 15.1458352,13.7122405 14.7734375,13.5351562 C14.4244774,13.3710929 14.1627613,13.2135424 13.9882812,13.0625 C13.8138012,12.9114576 13.6744797,12.7356781 13.5703125,12.5351562 C13.4661453,12.3346344 13.4140625,12.1002618 13.4140625,11.8320312 C13.4140625,11.3268204 13.5852847,10.9296889 13.9277344,10.640625 C14.270184,10.3515611 14.7434866,10.2070312 15.3476562,10.2070312 C15.6445327,10.2070312 15.927733,10.2421871 16.1972656,10.3125 C16.4667982,10.3828129 16.7486964,10.4817702 17.0429688,10.609375 L16.6523438,11.5507812 C16.3476547,11.4257806 16.0957041,11.3385419 15.8964844,11.2890625 C15.6972646,11.2395831 15.501303,11.2148438 15.3085938,11.2148438 C15.0794259,11.2148438 14.9036464,11.2682286 14.78125,11.375 C14.6588536,11.4817714 14.5976562,11.6210929 14.5976562,11.7929688 C14.5976562,11.8997401 14.6223956,11.9928381 14.671875,12.0722656 C14.7213544,12.1516931 14.8001297,12.2285153 14.9082031,12.3027344 C15.0162766,12.3769535 15.2721334,12.5104157 15.6757812,12.703125 C16.2096381,12.9583346 16.5755198,13.2141914 16.7734375,13.4707031 C16.9713552,13.7272148 17.0703125,14.0416648 17.0703125,14.4140625 Z M21.6015625,16 L21.1875,14.640625 L19.1054688,14.640625 L18.6914062,16 L17.3867188,16 L19.4023438,10.265625 L20.8828125,10.265625 L22.90625,16 L21.6015625,16 Z M20.8984375,13.625 C20.5156231,12.393223 20.3001304,11.6966154 20.2519531,11.5351562 C20.2037758,11.3736971 20.1692709,11.2460942 20.1484375,11.1523438 C20.0624996,11.4856787 19.8164083,12.3098893 19.4101562,13.625 L20.8984375,13.625 Z M28.6914062,16 L27.1523438,16 L24.6679688,11.6796875 L24.6328125,11.6796875 C24.6822919,12.4427121 24.7070312,12.9869775 24.7070312,13.3125 L24.7070312,16 L23.625,16 L23.625,10.2890625 L25.1523438,10.2890625 L27.6328125,14.5664062 L27.6601562,14.5664062 C27.6210936,13.824215 27.6015625,13.2994807 27.6015625,12.9921875 L27.6015625,10.2890625 L28.6914062,10.2890625 L28.6914062,16 Z M32.3320312,16 L31.1210938,16 L31.1210938,11.296875 L29.5703125,11.296875 L29.5703125,10.2890625 L33.8828125,10.2890625 L33.8828125,11.296875 L32.3320312,11.296875 L32.3320312,16 Z M37.6992188,16 L37.2851562,14.640625 L35.203125,14.640625 L34.7890625,16 L33.484375,16 L35.5,10.265625 L36.9804688,10.265625 L39.0039062,16 L37.6992188,16 Z M36.9960938,13.625 C36.6132793,12.393223 36.3977867,11.6966154 36.3496094,11.5351562 C36.3014321,11.3736971 36.2669272,11.2460942 36.2460938,11.1523438 C36.1601558,11.4856787 35.9140645,12.3098893 35.5078125,13.625 L36.9960938,13.625 Z M44.2265625,11.2148438 C43.7708311,11.2148438 43.41797,11.386066 43.1679688,11.7285156 C42.9179675,12.0709653 42.7929688,12.548174 42.7929688,13.1601562 C42.7929688,14.4336001 43.2708286,15.0703125 44.2265625,15.0703125 C44.6276062,15.0703125 45.1132784,14.9700531 45.6835938,14.7695312 L45.6835938,15.7851562 C45.2148414,15.9804697 44.6914091,16.078125 44.1132812,16.078125 C43.2825479,16.078125 42.6471376,15.8261744 42.2070312,15.3222656 C41.7669249,14.8183569 41.546875,14.0950568 41.546875,13.1523438 C41.546875,12.5585908 41.6549468,12.0384137 41.8710938,11.5917969 C42.0872407,11.1451801 42.3977844,10.8027356 42.8027344,10.5644531 C43.2076843,10.3261707 43.6822889,10.2070312 44.2265625,10.2070312 C44.7812528,10.2070312 45.3385389,10.3411445 45.8984375,10.609375 L45.5078125,11.59375 C45.2942698,11.492187 45.0794282,11.4036462 44.8632812,11.328125 C44.6471343,11.2526038 44.4348969,11.2148438 44.2265625,11.2148438 Z M46.8984375,16 L46.8984375,10.2890625 L48.109375,10.2890625 L48.109375,15 L50.4257812,15 L50.4257812,16 L46.8984375,16 Z M54.9140625,16 L54.5,14.640625 L52.4179688,14.640625 L52.0039062,16 L50.6992188,16 L52.7148438,10.265625 L54.1953125,10.265625 L56.21875,16 L54.9140625,16 Z M54.2109375,13.625 C53.8281231,12.393223 53.6126304,11.6966154 53.5644531,11.5351562 C53.5162758,11.3736971 53.4817709,11.2460942 53.4609375,11.1523438 C53.3749996,11.4856787 53.1289083,12.3098893 52.7226562,13.625 L54.2109375,13.625 Z M58.1484375,12.8242188 L58.5390625,12.8242188 C58.9218769,12.8242188 59.2044262,12.7604173 59.3867188,12.6328125 C59.5690113,12.5052077 59.6601563,12.3046889 59.6601563,12.03125 C59.6601563,11.7604153 59.5670582,11.5677089 59.3808594,11.453125 C59.1946605,11.3385411 58.906252,11.28125 58.515625,11.28125 L58.1484375,11.28125 L58.1484375,12.8242188 Z M58.1484375,13.8085938 L58.1484375,16 L56.9375,16 L56.9375,10.2890625 L58.6015625,10.2890625 C59.377608,10.2890625 59.9518211,10.4303371 60.3242188,10.7128906 C60.6966164,10.9954441 60.8828125,11.4244763 60.8828125,12 C60.8828125,12.3359392 60.7903655,12.6347643 60.6054688,12.8964844 C60.420572,13.1582044 60.1588559,13.3632805 59.8203125,13.5117188 C60.6796918,14.7955793 61.239582,15.6249981 61.5,16 L60.15625,16 L58.7929688,13.8085938 L58.1484375,13.8085938 Z M65.7148438,16 L65.3007812,14.640625 L63.21875,14.640625 L62.8046875,16 L61.5,16 L63.515625,10.265625 L64.9960938,10.265625 L67.0195312,16 L65.7148438,16 Z M65.0117188,13.625 C64.6289043,12.393223 64.4134117,11.6966154 64.3652344,11.5351562 C64.3170571,11.3736971 64.2825522,11.2460942 64.2617188,11.1523438 C64.1757808,11.4856787 63.9296895,12.3098893 63.5234375,13.625 L65.0117188,13.625 Z" id="santa-clara" fill="#FFFFFF"></path>
            </g>
        </g>
    </g>
</svg>