<?xml version="1.0" encoding="UTF-8"?>
<svg width="118px" height="27px" viewBox="0 0 118 27" version="1.1" xmlns="http://www.w3.org/2000/svg" xmlns:xlink="http://www.w3.org/1999/xlink">
    <!-- Generator: Sketch 48.2 (47327) - http://www.bohemiancoding.com/sketch -->
    <title>siquirres_matina</title>
    <desc>Created with Sketch.</desc>
    <defs>
        <path d="M42.9664693,6 C41.7188212,7.89393294 41,10.1192398 41,12.5 C41,15.3140148 42.004251,17.9108487 43.6990113,20 L9,20 C5.13400675,20 2,16.8659932 2,13 C2,9.13400675 5.13400675,6 9,6 L42.9664693,6 Z M66.0335307,6 L103,6 C106.865993,6 110,9.13400675 110,13 C110,16.8659932 106.865993,20 103,20 L65.3009887,20 C66.995749,17.9108487 68,15.3140148 68,12.5 C68,10.1192398 67.2811788,7.89393294 66.0335307,6 Z" id="path-1"></path>
        <filter x="-6.0%" y="-39.3%" width="112.0%" height="192.9%" filterUnits="objectBoundingBox" id="filter-2">
            <feOffset dx="0" dy="1" in="SourceAlpha" result="shadowOffsetOuter1"></feOffset>
            <feGaussianBlur stdDeviation="2" in="shadowOffsetOuter1" result="shadowBlurOuter1"></feGaussianBlur>
            <feColorMatrix values="0 0 0 0 0   0 0 0 0 0   0 0 0 0 0  0 0 0 0.5 0" type="matrix" in="shadowBlurOuter1"></feColorMatrix>
        </filter>
        <rect id="path-3" x="0" y="6" width="110" height="14" rx="7"></rect>
        <filter x="-5.9%" y="-39.3%" width="111.8%" height="192.9%" filterUnits="objectBoundingBox" id="filter-4">
            <feOffset dx="0" dy="1" in="SourceAlpha" result="shadowOffsetOuter1"></feOffset>
            <feGaussianBlur stdDeviation="2" in="shadowOffsetOuter1" result="shadowBlurOuter1"></feGaussianBlur>
            <feColorMatrix values="0 0 0 0 0   0 0 0 0 0   0 0 0 0 0  0 0 0 0.5 0" type="matrix" in="shadowBlurOuter1"></feColorMatrix>
        </filter>
    </defs>
    <g id="Volcanes-fallas" stroke="none" stroke-width="1" fill="none" fill-rule="evenodd">
        <g id="siquirres_matina" transform="translate(4.000000, 1.000000)">
            <g id="ic_volcano_label-copy-18">
                <g id="Group-Copy-3">
                    <g id="Group-26-Copy-4" transform="translate(43.000000, 0.000000)" fill="#FF6D00" stroke="#FFFFFF" stroke-width="0.5">
                        <circle id="Oval-2-Copy-5" cx="12.5" cy="12.5" r="12.5"></circle>
                    </g>
                    <g id="Combined-Shape">
                        <use fill="black" fill-opacity="1" filter="url(#filter-2)" xlink:href="#path-1"></use>
                        <use fill="#263238" fill-rule="evenodd" xlink:href="#path-1"></use>
                    </g>
                    <g id="Rectangle-2-Copy-4">
                        <use fill="black" fill-opacity="1" filter="url(#filter-4)" xlink:href="#path-3"></use>
                        <use fill="#263238" fill-rule="evenodd" xlink:href="#path-3"></use>
                    </g>
                </g>
                <path d="M21.1152344,14.4140625 C21.1152344,14.9296901 20.9296894,15.335936 20.5585938,15.6328125 C20.1874981,15.929689 19.6712273,16.078125 19.0097656,16.078125 C18.4003876,16.078125 17.8613305,15.9635428 17.3925781,15.734375 L17.3925781,14.609375 C17.7779967,14.7812509 18.1041653,14.9023434 18.3710938,14.9726562 C18.6380222,15.0429691 18.8821604,15.078125 19.1035156,15.078125 C19.369142,15.078125 19.572916,15.0273443 19.7148438,14.9257812 C19.8567715,14.8242182 19.9277344,14.6731781 19.9277344,14.4726562 C19.9277344,14.3606765 19.8964847,14.2610681 19.8339844,14.1738281 C19.7714841,14.0865881 19.6796881,14.0026046 19.5585938,13.921875 C19.4374994,13.8411454 19.1907571,13.7122405 18.8183594,13.5351562 C18.4693993,13.3710929 18.2076832,13.2135424 18.0332031,13.0625 C17.8587231,12.9114576 17.7194016,12.7356781 17.6152344,12.5351562 C17.5110672,12.3346344 17.4589844,12.1002618 17.4589844,11.8320312 C17.4589844,11.3268204 17.6302066,10.9296889 17.9726562,10.640625 C18.3151059,10.3515611 18.7884084,10.2070312 19.3925781,10.2070312 C19.6894546,10.2070312 19.9726549,10.2421871 20.2421875,10.3125 C20.5117201,10.3828129 20.7936183,10.4817702 21.0878906,10.609375 L20.6972656,11.5507812 C20.3925766,11.4257806 20.140626,11.3385419 19.9414062,11.2890625 C19.7421865,11.2395831 19.5462249,11.2148438 19.3535156,11.2148438 C19.1243478,11.2148438 18.9485683,11.2682286 18.8261719,11.375 C18.7037754,11.4817714 18.6425781,11.6210929 18.6425781,11.7929688 C18.6425781,11.8997401 18.6673175,11.9928381 18.7167969,12.0722656 C18.7662763,12.1516931 18.8450515,12.2285153 18.953125,12.3027344 C19.0611985,12.3769535 19.3170553,12.5104157 19.7207031,12.703125 C20.25456,12.9583346 20.6204417,13.2141914 20.8183594,13.4707031 C21.016277,13.7272148 21.1152344,14.0416648 21.1152344,14.4140625 Z M22.1503906,16 L22.1503906,10.2890625 L23.3613281,10.2890625 L23.3613281,16 L22.1503906,16 Z M29.9824219,13.1367188 C29.9824219,13.8085971 29.8632824,14.3717425 29.625,14.8261719 C29.3867176,15.2806012 29.0371117,15.6132802 28.5761719,15.8242188 L29.9511719,17.359375 L28.4003906,17.359375 L27.3535156,16.078125 L27.2636719,16.078125 C26.3886675,16.078125 25.7167992,15.8242213 25.2480469,15.3164062 C24.7792945,14.8085912 24.5449219,14.0794318 24.5449219,13.1289062 C24.5449219,12.1783807 24.7799456,11.4524765 25.25,10.9511719 C25.7200544,10.4498673 26.3938758,10.1992188 27.2714844,10.1992188 C28.1490929,10.1992188 28.8203102,10.4518204 29.2851562,10.9570312 C29.7500023,11.4622421 29.9824219,12.1887973 29.9824219,13.1367188 Z M25.8144531,13.1367188 C25.8144531,13.7747428 25.9355457,14.2552067 26.1777344,14.578125 C26.4199231,14.9010433 26.7818986,15.0625 27.2636719,15.0625 C28.2298225,15.0625 28.7128906,14.4205793 28.7128906,13.1367188 C28.7128906,11.850254 28.2324267,11.2070312 27.2714844,11.2070312 C26.7897111,11.2070312 26.4264335,11.369139 26.1816406,11.6933594 C25.9368477,12.0175797 25.8144531,12.4986947 25.8144531,13.1367188 Z M35.8144531,10.2890625 L35.8144531,13.984375 C35.8144531,14.4062521 35.720053,14.7760401 35.53125,15.09375 C35.342447,15.4114599 35.0696632,15.6549471 34.7128906,15.8242188 C34.356118,15.9934904 33.9342472,16.078125 33.4472656,16.078125 C32.712887,16.078125 32.1425802,15.8899758 31.7363281,15.5136719 C31.3300761,15.1373679 31.1269531,14.6223991 31.1269531,13.96875 L31.1269531,10.2890625 L32.3339844,10.2890625 L32.3339844,13.7851562 C32.3339844,14.2252626 32.4225252,14.5481761 32.5996094,14.7539062 C32.7766936,14.9596364 33.0696594,15.0625 33.4785156,15.0625 C33.8743509,15.0625 34.1614574,14.9589854 34.3398438,14.7519531 C34.5182301,14.5449208 34.6074219,14.2200543 34.6074219,13.7773438 L34.6074219,10.2890625 L35.8144531,10.2890625 Z M37.2128906,16 L37.2128906,10.2890625 L38.4238281,10.2890625 L38.4238281,16 L37.2128906,16 Z M41.0722656,12.8242188 L41.4628906,12.8242188 C41.845705,12.8242188 42.1282543,12.7604173 42.3105469,12.6328125 C42.4928395,12.5052077 42.5839844,12.3046889 42.5839844,12.03125 C42.5839844,11.7604153 42.4908863,11.5677089 42.3046875,11.453125 C42.1184887,11.3385411 41.8300801,11.28125 41.4394531,11.28125 L41.0722656,11.28125 L41.0722656,12.8242188 Z M41.0722656,13.8085938 L41.0722656,16 L39.8613281,16 L39.8613281,10.2890625 L41.5253906,10.2890625 C42.3014362,10.2890625 42.8756492,10.4303371 43.2480469,10.7128906 C43.6204446,10.9954441 43.8066406,11.4244763 43.8066406,12 C43.8066406,12.3359392 43.7141936,12.6347643 43.5292969,12.8964844 C43.3444001,13.1582044 43.082684,13.3632805 42.7441406,13.5117188 C43.6035199,14.7955793 44.1634102,15.6249981 44.4238281,16 L43.0800781,16 L41.7167969,13.8085938 L41.0722656,13.8085938 Z M46.3535156,12.8242188 L46.7441406,12.8242188 C47.126955,12.8242188 47.4095043,12.7604173 47.5917969,12.6328125 C47.7740895,12.5052077 47.8652344,12.3046889 47.8652344,12.03125 C47.8652344,11.7604153 47.7721363,11.5677089 47.5859375,11.453125 C47.3997387,11.3385411 47.1113301,11.28125 46.7207031,11.28125 L46.3535156,11.28125 L46.3535156,12.8242188 Z M46.3535156,13.8085938 L46.3535156,16 L45.1425781,16 L45.1425781,10.2890625 L46.8066406,10.2890625 C47.5826862,10.2890625 48.1568992,10.4303371 48.5292969,10.7128906 C48.9016946,10.9954441 49.0878906,11.4244763 49.0878906,12 C49.0878906,12.3359392 48.9954436,12.6347643 48.8105469,12.8964844 C48.6256501,13.1582044 48.363934,13.3632805 48.0253906,13.5117188 C48.8847699,14.7955793 49.4446602,15.6249981 49.7050781,16 L48.3613281,16 L46.9980469,13.8085938 L46.3535156,13.8085938 Z M53.7128906,16 L50.4238281,16 L50.4238281,10.2890625 L53.7128906,10.2890625 L53.7128906,11.28125 L51.6347656,11.28125 L51.6347656,12.5351562 L53.5683594,12.5351562 L53.5683594,13.5273438 L51.6347656,13.5273438 L51.6347656,15 L53.7128906,15 L53.7128906,16 Z M58.2753906,14.4140625 C58.2753906,14.9296901 58.0898456,15.335936 57.71875,15.6328125 C57.3476544,15.929689 56.8313835,16.078125 56.1699219,16.078125 C55.5605438,16.078125 55.0214867,15.9635428 54.5527344,15.734375 L54.5527344,14.609375 C54.938153,14.7812509 55.2643216,14.9023434 55.53125,14.9726562 C55.7981784,15.0429691 56.0423166,15.078125 56.2636719,15.078125 C56.5292982,15.078125 56.7330722,15.0273443 56.875,14.9257812 C57.0169278,14.8242182 57.0878906,14.6731781 57.0878906,14.4726562 C57.0878906,14.3606765 57.0566409,14.2610681 56.9941406,14.1738281 C56.9316403,14.0865881 56.8398444,14.0026046 56.71875,13.921875 C56.5976556,13.8411454 56.3509133,13.7122405 55.9785156,13.5351562 C55.6295555,13.3710929 55.3678394,13.2135424 55.1933594,13.0625 C55.0188793,12.9114576 54.8795578,12.7356781 54.7753906,12.5351562 C54.6712234,12.3346344 54.6191406,12.1002618 54.6191406,11.8320312 C54.6191406,11.3268204 54.7903629,10.9296889 55.1328125,10.640625 C55.4752621,10.3515611 55.9485647,10.2070312 56.5527344,10.2070312 C56.8496109,10.2070312 57.1328112,10.2421871 57.4023438,10.3125 C57.6718763,10.3828129 57.9537746,10.4817702 58.2480469,10.609375 L57.8574219,11.5507812 C57.5527329,11.4257806 57.3007822,11.3385419 57.1015625,11.2890625 C56.9023428,11.2395831 56.7063812,11.2148438 56.5136719,11.2148438 C56.2845041,11.2148438 56.1087246,11.2682286 55.9863281,11.375 C55.8639317,11.4817714 55.8027344,11.6210929 55.8027344,11.7929688 C55.8027344,11.8997401 55.8274737,11.9928381 55.8769531,12.0722656 C55.9264325,12.1516931 56.0052078,12.2285153 56.1132812,12.3027344 C56.2213547,12.3769535 56.4772115,12.5104157 56.8808594,12.703125 C57.4147162,12.9583346 57.780598,13.2141914 57.9785156,13.4707031 C58.1764333,13.7272148 58.2753906,14.0416648 58.2753906,14.4140625 Z M58.8300781,14.34375 L58.8300781,13.3671875 L60.9277344,13.3671875 L60.9277344,14.34375 L58.8300781,14.34375 Z M64.3027344,16 L62.9277344,11.5195312 L62.8925781,11.5195312 C62.9420575,12.4309941 62.9667969,13.039061 62.9667969,13.34375 L62.9667969,16 L61.8847656,16 L61.8847656,10.2890625 L63.5332031,10.2890625 L64.8847656,14.65625 L64.9082031,14.65625 L66.3417969,10.2890625 L67.9902344,10.2890625 L67.9902344,16 L66.8613281,16 L66.8613281,13.296875 C66.8613281,13.1692702 66.8632812,13.0221362 66.8671875,12.8554688 C66.8710938,12.6888013 66.8886717,12.2460973 66.9199219,11.5273438 L66.8847656,11.5273438 L65.4121094,16 L64.3027344,16 Z M72.9238281,16 L72.5097656,14.640625 L70.4277344,14.640625 L70.0136719,16 L68.7089844,16 L70.7246094,10.265625 L72.2050781,10.265625 L74.2285156,16 L72.9238281,16 Z M72.2207031,13.625 C71.8378887,12.393223 71.6223961,11.6966154 71.5742188,11.5351562 C71.5260414,11.3736971 71.4915366,11.2460942 71.4707031,11.1523438 C71.3847652,11.4856787 71.1386739,12.3098893 70.7324219,13.625 L72.2207031,13.625 Z M76.5917969,16 L75.3808594,16 L75.3808594,11.296875 L73.8300781,11.296875 L73.8300781,10.2890625 L78.1425781,10.2890625 L78.1425781,11.296875 L76.5917969,11.296875 L76.5917969,16 Z M79.0214844,16 L79.0214844,10.2890625 L80.2324219,10.2890625 L80.2324219,16 L79.0214844,16 Z M86.7363281,16 L85.1972656,16 L82.7128906,11.6796875 L82.6777344,11.6796875 C82.7272138,12.4427121 82.7519531,12.9869775 82.7519531,13.3125 L82.7519531,16 L81.6699219,16 L81.6699219,10.2890625 L83.1972656,10.2890625 L85.6777344,14.5664062 L85.7050781,14.5664062 C85.6660154,13.824215 85.6464844,13.2994807 85.6464844,12.9921875 L85.6464844,10.2890625 L86.7363281,10.2890625 L86.7363281,16 Z M91.6699219,16 L91.2558594,14.640625 L89.1738281,14.640625 L88.7597656,16 L87.4550781,16 L89.4707031,10.265625 L90.9511719,10.265625 L92.9746094,16 L91.6699219,16 Z M90.9667969,13.625 C90.5839825,12.393223 90.3684898,11.6966154 90.3203125,11.5351562 C90.2721352,11.3736971 90.2376303,11.2460942 90.2167969,11.1523438 C90.1308589,11.4856787 89.8847677,12.3098893 89.4785156,13.625 L90.9667969,13.625 Z" id="siquirres-matina" fill="#FFFFFF"></path>
            </g>
        </g>
    </g>
</svg>