<?xml version="1.0" encoding="UTF-8"?>
<svg width="124px" height="27px" viewBox="0 0 124 27" version="1.1" xmlns="http://www.w3.org/2000/svg" xmlns:xlink="http://www.w3.org/1999/xlink">
    <!-- Generator: Sketch 48.2 (47327) - http://www.bohemiancoding.com/sketch -->
    <title>sistema_atirro</title>
    <desc>Created with Sketch.</desc>
    <defs>
        <path d="M47.0571686,6 C45.9019388,7.89393294 45.2363636,10.1192398 45.2363636,12.5 C45.2363636,15.3140148 46.1662257,17.9108487 47.7354482,20 L9.10909091,20 C5.24309766,20 2.10909091,16.8659932 2.10909091,13 C2.10909091,9.13400675 5.24309766,6 9.10909091,6 L47.0571686,6 Z M68.4155587,6 L109,6 C112.865993,6 116,9.13400675 116,13 C116,16.8659932 112.865993,20 109,20 L67.7372791,20 C69.3065016,17.9108487 70.2363636,15.3140148 70.2363636,12.5 C70.2363636,10.1192398 69.5707885,7.89393294 68.4155587,6 Z" id="path-1"></path>
        <filter x="-5.7%" y="-39.3%" width="111.4%" height="192.9%" filterUnits="objectBoundingBox" id="filter-2">
            <feOffset dx="0" dy="1" in="SourceAlpha" result="shadowOffsetOuter1"></feOffset>
            <feGaussianBlur stdDeviation="2" in="shadowOffsetOuter1" result="shadowBlurOuter1"></feGaussianBlur>
            <feColorMatrix values="0 0 0 0 0   0 0 0 0 0   0 0 0 0 0  0 0 0 0.5 0" type="matrix" in="shadowBlurOuter1"></feColorMatrix>
        </filter>
        <rect id="path-3" x="0" y="6" width="116" height="14" rx="7"></rect>
        <filter x="-5.6%" y="-39.3%" width="111.2%" height="192.9%" filterUnits="objectBoundingBox" id="filter-4">
            <feOffset dx="0" dy="1" in="SourceAlpha" result="shadowOffsetOuter1"></feOffset>
            <feGaussianBlur stdDeviation="2" in="shadowOffsetOuter1" result="shadowBlurOuter1"></feGaussianBlur>
            <feColorMatrix values="0 0 0 0 0   0 0 0 0 0   0 0 0 0 0  0 0 0 0.5 0" type="matrix" in="shadowBlurOuter1"></feColorMatrix>
        </filter>
    </defs>
    <g id="Volcanes-fallas" stroke="none" stroke-width="1" fill="none" fill-rule="evenodd">
        <g id="sistema_atirro" transform="translate(4.000000, 1.000000)">
            <g id="ic_volcano_label-copy-18">
                <g id="Group-Copy-3">
                    <g id="Group-26-Copy-4" transform="translate(45.345455, 0.000000)" fill="#FF6D00" stroke="#FFFFFF" stroke-width="0.5">
                        <circle id="Oval-2-Copy-5" cx="12.5" cy="12.5" r="12.5"></circle>
                    </g>
                    <g id="Combined-Shape">
                        <use fill="black" fill-opacity="1" filter="url(#filter-2)" xlink:href="#path-1"></use>
                        <use fill="#263238" fill-rule="evenodd" xlink:href="#path-1"></use>
                    </g>
                    <g id="Rectangle-2-Copy-4">
                        <use fill="black" fill-opacity="1" filter="url(#filter-4)" xlink:href="#path-3"></use>
                        <use fill="#263238" fill-rule="evenodd" xlink:href="#path-3"></use>
                    </g>
                </g>
                <path d="M8.00976562,14.4140625 C8.00976562,14.9296901 7.82422061,15.335936 7.453125,15.6328125 C7.08202939,15.929689 6.56575852,16.078125 5.90429688,16.078125 C5.29491883,16.078125 4.75586172,15.9635428 4.28710938,15.734375 L4.28710938,14.609375 C4.67252797,14.7812509 4.99869658,14.9023434 5.265625,14.9726562 C5.53255342,15.0429691 5.7766916,15.078125 5.99804688,15.078125 C6.2636732,15.078125 6.46744721,15.0273443 6.609375,14.9257812 C6.75130279,14.8242182 6.82226562,14.6731781 6.82226562,14.4726562 C6.82226562,14.3606765 6.79101594,14.2610681 6.72851562,14.1738281 C6.66601531,14.0865881 6.57421936,14.0026046 6.453125,13.921875 C6.33203064,13.8411454 6.08528832,13.7122405 5.71289062,13.5351562 C5.36393055,13.3710929 5.10221441,13.2135424 4.92773438,13.0625 C4.75325434,12.9114576 4.61393281,12.7356781 4.50976562,12.5351562 C4.40559844,12.3346344 4.35351562,12.1002618 4.35351562,11.8320312 C4.35351562,11.3268204 4.52473787,10.9296889 4.8671875,10.640625 C5.20963713,10.3515611 5.68293969,10.2070312 6.28710938,10.2070312 C6.58398586,10.2070312 6.86718615,10.2421871 7.13671875,10.3125 C7.40625135,10.3828129 7.68814957,10.4817702 7.98242188,10.609375 L7.59179688,11.5507812 C7.28710785,11.4257806 7.03515725,11.3385419 6.8359375,11.2890625 C6.63671775,11.2395831 6.44075617,11.2148438 6.24804688,11.2148438 C6.01887906,11.2148438 5.84309957,11.2682286 5.72070312,11.375 C5.59830668,11.4817714 5.53710938,11.6210929 5.53710938,11.7929688 C5.53710938,11.8997401 5.56184871,11.9928381 5.61132812,12.0722656 C5.66080754,12.1516931 5.73958279,12.2285153 5.84765625,12.3027344 C5.95572971,12.3769535 6.21158652,12.5104157 6.61523438,12.703125 C7.14909121,12.9583346 7.51497297,13.2141914 7.71289062,13.4707031 C7.91080828,13.7272148 8.00976562,14.0416648 8.00976562,14.4140625 Z M9.04492188,16 L9.04492188,10.2890625 L10.2558594,10.2890625 L10.2558594,16 L9.04492188,16 Z M15.0644531,14.4140625 C15.0644531,14.9296901 14.8789081,15.335936 14.5078125,15.6328125 C14.1367169,15.929689 13.620446,16.078125 12.9589844,16.078125 C12.3496063,16.078125 11.8105492,15.9635428 11.3417969,15.734375 L11.3417969,14.609375 C11.7272155,14.7812509 12.0533841,14.9023434 12.3203125,14.9726562 C12.5872409,15.0429691 12.8313791,15.078125 13.0527344,15.078125 C13.3183607,15.078125 13.5221347,15.0273443 13.6640625,14.9257812 C13.8059903,14.8242182 13.8769531,14.6731781 13.8769531,14.4726562 C13.8769531,14.3606765 13.8457034,14.2610681 13.7832031,14.1738281 C13.7207028,14.0865881 13.6289069,14.0026046 13.5078125,13.921875 C13.3867181,13.8411454 13.1399758,13.7122405 12.7675781,13.5351562 C12.418618,13.3710929 12.1569019,13.2135424 11.9824219,13.0625 C11.8079418,12.9114576 11.6686203,12.7356781 11.5644531,12.5351562 C11.4602859,12.3346344 11.4082031,12.1002618 11.4082031,11.8320312 C11.4082031,11.3268204 11.5794254,10.9296889 11.921875,10.640625 C12.2643246,10.3515611 12.7376272,10.2070312 13.3417969,10.2070312 C13.6386734,10.2070312 13.9218737,10.2421871 14.1914063,10.3125 C14.4609388,10.3828129 14.7428371,10.4817702 15.0371094,10.609375 L14.6464844,11.5507812 C14.3417954,11.4257806 14.0898447,11.3385419 13.890625,11.2890625 C13.6914053,11.2395831 13.4954437,11.2148438 13.3027344,11.2148438 C13.0735666,11.2148438 12.8977871,11.2682286 12.7753906,11.375 C12.6529942,11.4817714 12.5917969,11.6210929 12.5917969,11.7929688 C12.5917969,11.8997401 12.6165362,11.9928381 12.6660156,12.0722656 C12.715495,12.1516931 12.7942703,12.2285153 12.9023438,12.3027344 C13.0104172,12.3769535 13.266274,12.5104157 13.6699219,12.703125 C14.2037787,12.9583346 14.5696605,13.2141914 14.7675781,13.4707031 C14.9654958,13.7272148 15.0644531,14.0416648 15.0644531,14.4140625 Z M18.3027344,16 L17.0917969,16 L17.0917969,11.296875 L15.5410156,11.296875 L15.5410156,10.2890625 L19.8535156,10.2890625 L19.8535156,11.296875 L18.3027344,11.296875 L18.3027344,16 Z M24.0214844,16 L20.7324219,16 L20.7324219,10.2890625 L24.0214844,10.2890625 L24.0214844,11.28125 L21.9433594,11.28125 L21.9433594,12.5351562 L23.8769531,12.5351562 L23.8769531,13.5273438 L21.9433594,13.5273438 L21.9433594,15 L24.0214844,15 L24.0214844,16 Z M27.6308594,16 L26.2558594,11.5195312 L26.2207031,11.5195312 C26.2701825,12.4309941 26.2949219,13.039061 26.2949219,13.34375 L26.2949219,16 L25.2128906,16 L25.2128906,10.2890625 L26.8613281,10.2890625 L28.2128906,14.65625 L28.2363281,14.65625 L29.6699219,10.2890625 L31.3183594,10.2890625 L31.3183594,16 L30.1894531,16 L30.1894531,13.296875 C30.1894531,13.1692702 30.1914062,13.0221362 30.1953125,12.8554688 C30.1992188,12.6888013 30.2167967,12.2460973 30.2480469,11.5273438 L30.2128906,11.5273438 L28.7402344,16 L27.6308594,16 Z M36.2519531,16 L35.8378906,14.640625 L33.7558594,14.640625 L33.3417969,16 L32.0371094,16 L34.0527344,10.265625 L35.5332031,10.265625 L37.5566406,16 L36.2519531,16 Z M35.5488281,13.625 C35.1660137,12.393223 34.9505211,11.6966154 34.9023438,11.5351562 C34.8541664,11.3736971 34.8196616,11.2460942 34.7988281,11.1523438 C34.7128902,11.4856787 34.4667989,12.3098893 34.0605469,13.625 L35.5488281,13.625 Z M45.0917969,13.0898438 C45.0917969,14.0299526 44.8242214,14.7499975 44.2890625,15.25 C43.7539036,15.7500025 42.9811248,16 41.9707031,16 L40.3535156,16 L40.3535156,10.2890625 L42.1464844,10.2890625 C43.0787807,10.2890625 43.8027318,10.5351538 44.3183594,11.0273438 C44.833987,11.5195337 45.0917969,12.2070268 45.0917969,13.0898438 Z M43.8339844,13.1210938 C43.8339844,11.8945251 43.2923231,11.28125 42.2089844,11.28125 L41.5644531,11.28125 L41.5644531,15 L42.0839844,15 C43.2506569,15 43.8339844,14.3737042 43.8339844,13.1210938 Z M49.5644531,16 L46.2753906,16 L46.2753906,10.2890625 L49.5644531,10.2890625 L49.5644531,11.28125 L47.4863281,11.28125 L47.4863281,12.5351562 L49.4199219,12.5351562 L49.4199219,13.5273438 L47.4863281,13.5273438 L47.4863281,15 L49.5644531,15 L49.5644531,16 Z M54.0253906,16 L52.8339844,16 L52.8339844,10.2890625 L56.1074219,10.2890625 L56.1074219,11.28125 L54.0253906,11.28125 L54.0253906,12.7539062 L55.9628906,12.7539062 L55.9628906,13.7421875 L54.0253906,13.7421875 L54.0253906,16 Z M60.5605469,16 L60.1464844,14.640625 L58.0644531,14.640625 L57.6503906,16 L56.3457031,16 L58.3613281,10.265625 L59.8417969,10.265625 L61.8652344,16 L60.5605469,16 Z M59.8574219,13.625 C59.4746075,12.393223 59.2591148,11.6966154 59.2109375,11.5351562 C59.1627602,11.3736971 59.1282553,11.2460942 59.1074219,11.1523438 C59.0214839,11.4856787 58.7753927,12.3098893 58.3691406,13.625 L59.8574219,13.625 Z M62.5839844,16 L62.5839844,10.2890625 L63.7949219,10.2890625 L63.7949219,15 L66.1113281,15 L66.1113281,16 L62.5839844,16 Z M67.1035156,16 L67.1035156,10.2890625 L68.3144531,10.2890625 L68.3144531,15 L70.6308594,15 L70.6308594,16 L67.1035156,16 Z M75.1191406,16 L74.7050781,14.640625 L72.6230469,14.640625 L72.2089844,16 L70.9042969,16 L72.9199219,10.265625 L74.4003906,10.265625 L76.4238281,16 L75.1191406,16 Z M74.4160156,13.625 C74.0332012,12.393223 73.8177086,11.6966154 73.7695313,11.5351562 C73.7213539,11.3736971 73.6868491,11.2460942 73.6660156,11.1523438 C73.5800777,11.4856787 73.3339864,12.3098893 72.9277344,13.625 L74.4160156,13.625 Z M80.5136719,14.4140625 C80.5136719,14.9296901 80.3281269,15.335936 79.9570312,15.6328125 C79.5859356,15.929689 79.0696648,16.078125 78.4082031,16.078125 C77.7988251,16.078125 77.259768,15.9635428 76.7910156,15.734375 L76.7910156,14.609375 C77.1764342,14.7812509 77.5026028,14.9023434 77.7695312,14.9726562 C78.0364597,15.0429691 78.2805979,15.078125 78.5019531,15.078125 C78.7675795,15.078125 78.9713535,15.0273443 79.1132812,14.9257812 C79.255209,14.8242182 79.3261719,14.6731781 79.3261719,14.4726562 C79.3261719,14.3606765 79.2949222,14.2610681 79.2324219,14.1738281 C79.1699216,14.0865881 79.0781256,14.0026046 78.9570312,13.921875 C78.8359369,13.8411454 78.5891946,13.7122405 78.2167969,13.5351562 C77.8678368,13.3710929 77.6061207,13.2135424 77.4316406,13.0625 C77.2571606,12.9114576 77.1178391,12.7356781 77.0136719,12.5351562 C76.9095047,12.3346344 76.8574219,12.1002618 76.8574219,11.8320312 C76.8574219,11.3268204 77.0286441,10.9296889 77.3710938,10.640625 C77.7135434,10.3515611 78.1868459,10.2070312 78.7910156,10.2070312 C79.0878921,10.2070312 79.3710924,10.2421871 79.640625,10.3125 C79.9101576,10.3828129 80.1920558,10.4817702 80.4863281,10.609375 L80.0957031,11.5507812 C79.7910141,11.4257806 79.5390635,11.3385419 79.3398438,11.2890625 C79.140624,11.2395831 78.9446624,11.2148438 78.7519531,11.2148438 C78.5227853,11.2148438 78.3470058,11.2682286 78.2246094,11.375 C78.1022129,11.4817714 78.0410156,11.6210929 78.0410156,11.7929688 C78.0410156,11.8997401 78.065755,11.9928381 78.1152344,12.0722656 C78.1647138,12.1516931 78.243489,12.2285153 78.3515625,12.3027344 C78.459636,12.3769535 78.7154928,12.5104157 79.1191406,12.703125 C79.6529975,12.9583346 80.0188792,13.2141914 80.2167969,13.4707031 C80.4147145,13.7272148 80.5136719,14.0416648 80.5136719,14.4140625 Z M87.1230469,16 L86.7089844,14.640625 L84.6269531,14.640625 L84.2128906,16 L82.9082031,16 L84.9238281,10.265625 L86.4042969,10.265625 L88.4277344,16 L87.1230469,16 Z M86.4199219,13.625 C86.0371075,12.393223 85.8216148,11.6966154 85.7734375,11.5351562 C85.7252602,11.3736971 85.6907553,11.2460942 85.6699219,11.1523438 C85.5839839,11.4856787 85.3378927,12.3098893 84.9316406,13.625 L86.4199219,13.625 Z M90.7910156,16 L89.5800781,16 L89.5800781,11.296875 L88.0292969,11.296875 L88.0292969,10.2890625 L92.3417969,10.2890625 L92.3417969,11.296875 L90.7910156,11.296875 L90.7910156,16 Z M93.2207031,16 L93.2207031,10.2890625 L94.4316406,10.2890625 L94.4316406,16 L93.2207031,16 Z M97.0800781,12.8242188 L97.4707031,12.8242188 C97.8535175,12.8242188 98.1360668,12.7604173 98.3183594,12.6328125 C98.500652,12.5052077 98.5917969,12.3046889 98.5917969,12.03125 C98.5917969,11.7604153 98.4986988,11.5677089 98.3125,11.453125 C98.1263012,11.3385411 97.8378926,11.28125 97.4472656,11.28125 L97.0800781,11.28125 L97.0800781,12.8242188 Z M97.0800781,13.8085938 L97.0800781,16 L95.8691406,16 L95.8691406,10.2890625 L97.5332031,10.2890625 C98.3092487,10.2890625 98.8834617,10.4303371 99.2558594,10.7128906 C99.6282571,10.9954441 99.8144531,11.4244763 99.8144531,12 C99.8144531,12.3359392 99.7220061,12.6347643 99.5371094,12.8964844 C99.3522126,13.1582044 99.0904965,13.3632805 98.7519531,13.5117188 C99.6113324,14.7955793 100.171223,15.6249981 100.431641,16 L99.0878906,16 L97.7246094,13.8085938 L97.0800781,13.8085938 Z M102.361328,12.8242188 L102.751953,12.8242188 C103.134768,12.8242188 103.417317,12.7604173 103.599609,12.6328125 C103.781902,12.5052077 103.873047,12.3046889 103.873047,12.03125 C103.873047,11.7604153 103.779949,11.5677089 103.59375,11.453125 C103.407551,11.3385411 103.119143,11.28125 102.728516,11.28125 L102.361328,11.28125 L102.361328,12.8242188 Z M102.361328,13.8085938 L102.361328,16 L101.150391,16 L101.150391,10.2890625 L102.814453,10.2890625 C103.590499,10.2890625 104.164712,10.4303371 104.537109,10.7128906 C104.909507,10.9954441 105.095703,11.4244763 105.095703,12 C105.095703,12.3359392 105.003256,12.6347643 104.818359,12.8964844 C104.633463,13.1582044 104.371746,13.3632805 104.033203,13.5117188 C104.892582,14.7955793 105.452473,15.6249981 105.712891,16 L104.369141,16 L103.005859,13.8085938 L102.361328,13.8085938 Z M111.615234,13.1367188 C111.615234,14.082036 111.380862,14.8085912 110.912109,15.3164062 C110.443357,15.8242213 109.771489,16.078125 108.896484,16.078125 C108.02148,16.078125 107.349612,15.8242213 106.880859,15.3164062 C106.412107,14.8085912 106.177734,14.0794318 106.177734,13.1289062 C106.177734,12.1783807 106.412758,11.4524765 106.882812,10.9511719 C107.352867,10.4498673 108.026688,10.1992188 108.904297,10.1992188 C109.781905,10.1992188 110.453123,10.4518204 110.917969,10.9570312 C111.382815,11.4622421 111.615234,12.1887973 111.615234,13.1367188 Z M107.447266,13.1367188 C107.447266,13.7747428 107.568358,14.2552067 107.810547,14.578125 C108.052736,14.9010433 108.414711,15.0625 108.896484,15.0625 C109.862635,15.0625 110.345703,14.4205793 110.345703,13.1367188 C110.345703,11.850254 109.865239,11.2070312 108.904297,11.2070312 C108.422524,11.2070312 108.059246,11.369139 107.814453,11.6933594 C107.56966,12.0175797 107.447266,12.4986947 107.447266,13.1367188 Z" id="Sistema-de-Fallas-At" fill="#FFFFFF"></path>
            </g>
        </g>
    </g>
</svg>