<?xml version="1.0" encoding="UTF-8"?>
<svg width="65px" height="27px" viewBox="0 0 65 27" version="1.1" xmlns="http://www.w3.org/2000/svg" xmlns:xlink="http://www.w3.org/1999/xlink">
    <!-- Generator: Sketch 48.2 (47327) - http://www.bohemiancoding.com/sketch -->
    <title>sixaola</title>
    <desc>Created with Sketch.</desc>
    <defs>
        <path d="M17.8208049,6 C16.6655751,7.89393294 16,10.1192398 16,12.5 C16,15.3140148 16.9298621,17.9108487 18.4990845,20 L7,20 C3.13400675,20 4.73447626e-16,16.8659932 0,13 C-4.73447626e-16,9.13400675 3.13400675,6 7,6 L17.8208049,6 Z M39.1791951,6 L50,6 C53.8659932,6 57,9.13400675 57,13 C57,16.8659932 53.8659932,20 50,20 L38.5009155,20 C40.0701379,17.9108487 41,15.3140148 41,12.5 C41,10.1192398 40.3344249,7.89393294 39.1791951,6 Z" id="path-1"></path>
        <filter x="-11.4%" y="-39.3%" width="122.8%" height="192.9%" filterUnits="objectBoundingBox" id="filter-2">
            <feOffset dx="0" dy="1" in="SourceAlpha" result="shadowOffsetOuter1"></feOffset>
            <feGaussianBlur stdDeviation="2" in="shadowOffsetOuter1" result="shadowBlurOuter1"></feGaussianBlur>
            <feColorMatrix values="0 0 0 0 0   0 0 0 0 0   0 0 0 0 0  0 0 0 0.5 0" type="matrix" in="shadowBlurOuter1"></feColorMatrix>
        </filter>
    </defs>
    <g id="Volcanes-fallas" stroke="none" stroke-width="1" fill="none" fill-rule="evenodd">
        <g id="sixaola" transform="translate(4.000000, 1.000000)">
            <g id="ic_volcano_label-copy-19">
                <g id="Group-Copy-3" transform="translate(16.000000, 0.000000)">
                    <g id="Group-26-Copy-4"></g>
                </g>
                <circle id="Oval-2-Copy-5" stroke="#FFFFFF" stroke-width="0.5" fill="#FF6D00" cx="28.5" cy="12.5" r="12.5"></circle>
                <g id="Combined-Shape">
                    <use fill="black" fill-opacity="1" filter="url(#filter-2)" xlink:href="#path-1"></use>
                    <use fill="#263238" fill-rule="evenodd" xlink:href="#path-1"></use>
                </g>
                <rect id="Rectangle-2-Copy-4" fill="#263238" x="0" y="6" width="57" height="14" rx="7"></rect>
            </g>
            <path d="M15.5117188,14.4140625 C15.5117188,14.9296901 15.3261737,15.335936 14.9550781,15.6328125 C14.5839825,15.929689 14.0677116,16.078125 13.40625,16.078125 C12.796872,16.078125 12.2578148,15.9635428 11.7890625,15.734375 L11.7890625,14.609375 C12.1744811,14.7812509 12.5006497,14.9023434 12.7675781,14.9726562 C13.0345065,15.0429691 13.2786447,15.078125 13.5,15.078125 C13.7656263,15.078125 13.9694003,15.0273443 14.1113281,14.9257812 C14.2532559,14.8242182 14.3242188,14.6731781 14.3242188,14.4726562 C14.3242188,14.3606765 14.2929691,14.2610681 14.2304688,14.1738281 C14.1679684,14.0865881 14.0761725,14.0026046 13.9550781,13.921875 C13.8339838,13.8411454 13.5872414,13.7122405 13.2148438,13.5351562 C12.8658837,13.3710929 12.6041675,13.2135424 12.4296875,13.0625 C12.2552075,12.9114576 12.1158859,12.7356781 12.0117188,12.5351562 C11.9075516,12.3346344 11.8554688,12.1002618 11.8554688,11.8320312 C11.8554688,11.3268204 12.026691,10.9296889 12.3691406,10.640625 C12.7115903,10.3515611 13.1848928,10.2070312 13.7890625,10.2070312 C14.085939,10.2070312 14.3691393,10.2421871 14.6386719,10.3125 C14.9082045,10.3828129 15.1901027,10.4817702 15.484375,10.609375 L15.09375,11.5507812 C14.789061,11.4257806 14.5371104,11.3385419 14.3378906,11.2890625 C14.1386709,11.2395831 13.9427093,11.2148438 13.75,11.2148438 C13.5208322,11.2148438 13.3450527,11.2682286 13.2226562,11.375 C13.1002598,11.4817714 13.0390625,11.6210929 13.0390625,11.7929688 C13.0390625,11.8997401 13.0638018,11.9928381 13.1132812,12.0722656 C13.1627607,12.1516931 13.2415359,12.2285153 13.3496094,12.3027344 C13.4576828,12.3769535 13.7135396,12.5104157 14.1171875,12.703125 C14.6510443,12.9583346 15.0169261,13.2141914 15.2148438,13.4707031 C15.4127614,13.7272148 15.5117188,14.0416648 15.5117188,14.4140625 Z M16.546875,16 L16.546875,10.2890625 L17.7578125,10.2890625 L17.7578125,16 L16.546875,16 Z M23.8125,16 L22.4296875,16 L21.1015625,13.8398438 L19.7734375,16 L18.4765625,16 L20.3710938,13.0546875 L18.5976562,10.2890625 L19.9335938,10.2890625 L21.1640625,12.34375 L22.3710938,10.2890625 L23.6757812,10.2890625 L21.8828125,13.1210938 L23.8125,16 Z M28.0273438,16 L27.6132812,14.640625 L25.53125,14.640625 L25.1171875,16 L23.8125,16 L25.828125,10.265625 L27.3085938,10.265625 L29.3320312,16 L28.0273438,16 Z M27.3242188,13.625 C26.9414043,12.393223 26.7259117,11.6966154 26.6777344,11.5351562 C26.6295571,11.3736971 26.5950522,11.2460942 26.5742188,11.1523438 C26.4882808,11.4856787 26.2421895,12.3098893 25.8359375,13.625 L27.3242188,13.625 Z M35.0742188,13.1367188 C35.0742188,14.082036 34.8398461,14.8085912 34.3710938,15.3164062 C33.9023414,15.8242213 33.2304731,16.078125 32.3554688,16.078125 C31.4804644,16.078125 30.8085961,15.8242213 30.3398438,15.3164062 C29.8710914,14.8085912 29.6367188,14.0794318 29.6367188,13.1289062 C29.6367188,12.1783807 29.8717424,11.4524765 30.3417969,10.9511719 C30.8118513,10.4498673 31.4856727,10.1992188 32.3632812,10.1992188 C33.2408898,10.1992188 33.9121071,10.4518204 34.3769531,10.9570312 C34.8417992,11.4622421 35.0742188,12.1887973 35.0742188,13.1367188 Z M30.90625,13.1367188 C30.90625,13.7747428 31.0273425,14.2552067 31.2695312,14.578125 C31.51172,14.9010433 31.8736955,15.0625 32.3554688,15.0625 C33.3216194,15.0625 33.8046875,14.4205793 33.8046875,13.1367188 C33.8046875,11.850254 33.3242236,11.2070312 32.3632812,11.2070312 C31.881508,11.2070312 31.5182304,11.369139 31.2734375,11.6933594 C31.0286446,12.0175797 30.90625,12.4986947 30.90625,13.1367188 Z M36.2578125,16 L36.2578125,10.2890625 L37.46875,10.2890625 L37.46875,15 L39.7851562,15 L39.7851562,16 L36.2578125,16 Z M44.2734375,16 L43.859375,14.640625 L41.7773438,14.640625 L41.3632812,16 L40.0585938,16 L42.0742188,10.265625 L43.5546875,10.265625 L45.578125,16 L44.2734375,16 Z M43.5703125,13.625 C43.1874981,12.393223 42.9720054,11.6966154 42.9238281,11.5351562 C42.8756508,11.3736971 42.8411459,11.2460942 42.8203125,11.1523438 C42.7343746,11.4856787 42.4882833,12.3098893 42.0820312,13.625 L43.5703125,13.625 Z" fill="#FFFFFF"></path>
        </g>
    </g>
</svg>