<?xml version="1.0" encoding="UTF-8"?>
<svg width="65px" height="27px" viewBox="0 0 65 27" version="1.1" xmlns="http://www.w3.org/2000/svg" xmlns:xlink="http://www.w3.org/1999/xlink">
    <!-- Generator: Sketch 48.2 (47327) - http://www.bohemiancoding.com/sketch -->
    <title>sukut</title>
    <desc>Created with Sketch.</desc>
    <defs>
        <path d="M17.8208049,6 C16.6655751,7.89393294 16,10.1192398 16,12.5 C16,15.3140148 16.9298621,17.9108487 18.4990845,20 L7,20 C3.13400675,20 4.73447626e-16,16.8659932 0,13 C-4.73447626e-16,9.13400675 3.13400675,6 7,6 L17.8208049,6 Z M39.1791951,6 L50,6 C53.8659932,6 57,9.13400675 57,13 C57,16.8659932 53.8659932,20 50,20 L38.5009155,20 C40.0701379,17.9108487 41,15.3140148 41,12.5 C41,10.1192398 40.3344249,7.89393294 39.1791951,6 Z" id="path-1"></path>
        <filter x="-11.4%" y="-39.3%" width="122.8%" height="192.9%" filterUnits="objectBoundingBox" id="filter-2">
            <feOffset dx="0" dy="1" in="SourceAlpha" result="shadowOffsetOuter1"></feOffset>
            <feGaussianBlur stdDeviation="2" in="shadowOffsetOuter1" result="shadowBlurOuter1"></feGaussianBlur>
            <feColorMatrix values="0 0 0 0 0   0 0 0 0 0   0 0 0 0 0  0 0 0 0.5 0" type="matrix" in="shadowBlurOuter1"></feColorMatrix>
        </filter>
    </defs>
    <g id="Volcanes-fallas" stroke="none" stroke-width="1" fill="none" fill-rule="evenodd">
        <g id="sukut" transform="translate(4.000000, 1.000000)">
            <g id="ic_volcano_label-copy-19">
                <g id="Group-Copy-3" transform="translate(16.000000, 0.000000)">
                    <g id="Group-26-Copy-4"></g>
                </g>
                <circle id="Oval-2-Copy-5" stroke="#FFFFFF" stroke-width="0.5" fill="#FF6D00" cx="28.5" cy="12.5" r="12.5"></circle>
                <g id="Combined-Shape">
                    <use fill="black" fill-opacity="1" filter="url(#filter-2)" xlink:href="#path-1"></use>
                    <use fill="#263238" fill-rule="evenodd" xlink:href="#path-1"></use>
                </g>
                <rect id="Rectangle-2-Copy-4" fill="#263238" x="0" y="6" width="57" height="14" rx="7"></rect>
            </g>
            <path d="M19.3671875,14.4140625 C19.3671875,14.9296901 19.1816425,15.335936 18.8105469,15.6328125 C18.4394513,15.929689 17.9231804,16.078125 17.2617188,16.078125 C16.6523407,16.078125 16.1132836,15.9635428 15.6445312,15.734375 L15.6445312,14.609375 C16.0299498,14.7812509 16.3561185,14.9023434 16.6230469,14.9726562 C16.8899753,15.0429691 17.1341135,15.078125 17.3554688,15.078125 C17.6210951,15.078125 17.8248691,15.0273443 17.9667969,14.9257812 C18.1087247,14.8242182 18.1796875,14.6731781 18.1796875,14.4726562 C18.1796875,14.3606765 18.1484378,14.2610681 18.0859375,14.1738281 C18.0234372,14.0865881 17.9316412,14.0026046 17.8105469,13.921875 C17.6894525,13.8411454 17.4427102,13.7122405 17.0703125,13.5351562 C16.7213524,13.3710929 16.4596363,13.2135424 16.2851562,13.0625 C16.1106762,12.9114576 15.9713547,12.7356781 15.8671875,12.5351562 C15.7630203,12.3346344 15.7109375,12.1002618 15.7109375,11.8320312 C15.7109375,11.3268204 15.8821597,10.9296889 16.2246094,10.640625 C16.567059,10.3515611 17.0403616,10.2070312 17.6445312,10.2070312 C17.9414077,10.2070312 18.224608,10.2421871 18.4941406,10.3125 C18.7636732,10.3828129 19.0455714,10.4817702 19.3398438,10.609375 L18.9492188,11.5507812 C18.6445297,11.4257806 18.3925791,11.3385419 18.1933594,11.2890625 C17.9941396,11.2395831 17.798178,11.2148438 17.6054688,11.2148438 C17.3763009,11.2148438 17.2005214,11.2682286 17.078125,11.375 C16.9557286,11.4817714 16.8945312,11.6210929 16.8945312,11.7929688 C16.8945312,11.8997401 16.9192706,11.9928381 16.96875,12.0722656 C17.0182294,12.1516931 17.0970047,12.2285153 17.2050781,12.3027344 C17.3131516,12.3769535 17.5690084,12.5104157 17.9726562,12.703125 C18.5065131,12.9583346 18.8723948,13.2141914 19.0703125,13.4707031 C19.2682302,13.7272148 19.3671875,14.0416648 19.3671875,14.4140625 Z M25.0507812,10.2890625 L25.0507812,13.984375 C25.0507812,14.4062521 24.9563812,14.7760401 24.7675781,15.09375 C24.5787751,15.4114599 24.3059914,15.6549471 23.9492188,15.8242188 C23.5924461,15.9934904 23.1705754,16.078125 22.6835938,16.078125 C21.9492151,16.078125 21.3789083,15.8899758 20.9726562,15.5136719 C20.5664042,15.1373679 20.3632812,14.6223991 20.3632812,13.96875 L20.3632812,10.2890625 L21.5703125,10.2890625 L21.5703125,13.7851562 C21.5703125,14.2252626 21.6588533,14.5481761 21.8359375,14.7539062 C22.0130217,14.9596364 22.3059875,15.0625 22.7148438,15.0625 C23.1106791,15.0625 23.3977856,14.9589854 23.5761719,14.7519531 C23.7545582,14.5449208 23.84375,14.2200543 23.84375,13.7773438 L23.84375,10.2890625 L25.0507812,10.2890625 Z M31.0429688,16 L29.6679688,16 L28.171875,13.59375 L27.6601562,13.9609375 L27.6601562,16 L26.4492188,16 L26.4492188,10.2890625 L27.6601562,10.2890625 L27.6601562,12.9023438 L28.1367188,12.2304688 L29.6835938,10.2890625 L31.0273438,10.2890625 L29.0351562,12.8164062 L31.0429688,16 Z M36.4101562,10.2890625 L36.4101562,13.984375 C36.4101562,14.4062521 36.3157562,14.7760401 36.1269531,15.09375 C35.9381501,15.4114599 35.6653664,15.6549471 35.3085938,15.8242188 C34.9518211,15.9934904 34.5299504,16.078125 34.0429688,16.078125 C33.3085901,16.078125 32.7382833,15.8899758 32.3320312,15.5136719 C31.9257792,15.1373679 31.7226562,14.6223991 31.7226562,13.96875 L31.7226562,10.2890625 L32.9296875,10.2890625 L32.9296875,13.7851562 C32.9296875,14.2252626 33.0182283,14.5481761 33.1953125,14.7539062 C33.3723967,14.9596364 33.6653625,15.0625 34.0742188,15.0625 C34.4700541,15.0625 34.7571606,14.9589854 34.9355469,14.7519531 C35.1139332,14.5449208 35.203125,14.2200543 35.203125,13.7773438 L35.203125,10.2890625 L36.4101562,10.2890625 Z M40.0117188,16 L38.8007812,16 L38.8007812,11.296875 L37.25,11.296875 L37.25,10.2890625 L41.5625,10.2890625 L41.5625,11.296875 L40.0117188,11.296875 L40.0117188,16 Z" fill="#FFFFFF"></path>
        </g>
    </g>
</svg>