<?xml version="1.0" encoding="UTF-8"?>
<svg width="65px" height="27px" viewBox="0 0 65 27" version="1.1" xmlns="http://www.w3.org/2000/svg" xmlns:xlink="http://www.w3.org/1999/xlink">
    <!-- Generator: Sketch 48.2 (47327) - http://www.bohemiancoding.com/sketch -->
    <title>tarcoles</title>
    <desc>Created with Sketch.</desc>
    <defs>
        <path d="M17.8208049,6 C16.6655751,7.89393294 16,10.1192398 16,12.5 C16,15.3140148 16.9298621,17.9108487 18.4990845,20 L7,20 C3.13400675,20 4.73447626e-16,16.8659932 0,13 C-4.73447626e-16,9.13400675 3.13400675,6 7,6 L17.8208049,6 Z M39.1791951,6 L50,6 C53.8659932,6 57,9.13400675 57,13 C57,16.8659932 53.8659932,20 50,20 L38.5009155,20 C40.0701379,17.9108487 41,15.3140148 41,12.5 C41,10.1192398 40.3344249,7.89393294 39.1791951,6 Z" id="path-1"></path>
        <filter x="-11.4%" y="-39.3%" width="122.8%" height="192.9%" filterUnits="objectBoundingBox" id="filter-2">
            <feOffset dx="0" dy="1" in="SourceAlpha" result="shadowOffsetOuter1"></feOffset>
            <feGaussianBlur stdDeviation="2" in="shadowOffsetOuter1" result="shadowBlurOuter1"></feGaussianBlur>
            <feColorMatrix values="0 0 0 0 0   0 0 0 0 0   0 0 0 0 0  0 0 0 0.5 0" type="matrix" in="shadowBlurOuter1"></feColorMatrix>
        </filter>
    </defs>
    <g id="Volcanes-fallas" stroke="none" stroke-width="1" fill="none" fill-rule="evenodd">
        <g id="tarcoles" transform="translate(4.000000, 1.000000)">
            <g id="ic_volcano_label-copy-19">
                <g id="Group-Copy-3" transform="translate(16.000000, 0.000000)">
                    <g id="Group-26-Copy-4"></g>
                </g>
                <circle id="Oval-2-Copy-5" stroke="#FFFFFF" stroke-width="0.5" fill="#FF6D00" cx="28.5" cy="12.5" r="12.5"></circle>
                <g id="Combined-Shape">
                    <use fill="black" fill-opacity="1" filter="url(#filter-2)" xlink:href="#path-1"></use>
                    <use fill="#263238" fill-rule="evenodd" xlink:href="#path-1"></use>
                </g>
                <rect id="Rectangle-2-Copy-4" fill="#263238" x="0" y="6" width="57" height="14" rx="7"></rect>
            </g>
            <path d="M11.6289062,16 L10.4179688,16 L10.4179688,11.296875 L8.8671875,11.296875 L8.8671875,10.2890625 L13.1796875,10.2890625 L13.1796875,11.296875 L11.6289062,11.296875 L11.6289062,16 Z M16.9960938,16 L16.5820312,14.640625 L14.5,14.640625 L14.0859375,16 L12.78125,16 L14.796875,10.265625 L16.2773438,10.265625 L18.3007812,16 L16.9960938,16 Z M16.2929688,13.625 C15.9101543,12.393223 15.6946617,11.6966154 15.6464844,11.5351562 C15.5983071,11.3736971 15.5638022,11.2460942 15.5429688,11.1523438 C15.4570308,11.4856787 15.2109395,12.3098893 14.8046875,13.625 L16.2929688,13.625 Z M14.8945312,9.83203125 L14.8945312,9.7265625 C15.3424502,9.20572656 15.6484367,8.8138034 15.8125,8.55078125 L17.1484375,8.55078125 L17.1484375,8.6328125 C17.0130202,8.76822984 16.7819027,8.96939971 16.4550781,9.23632812 C16.1282536,9.50325654 15.8723968,9.70182227 15.6875,9.83203125 L14.8945312,9.83203125 Z M20.2304688,12.8242188 L20.6210938,12.8242188 C21.0039082,12.8242188 21.2864574,12.7604173 21.46875,12.6328125 C21.6510426,12.5052077 21.7421875,12.3046889 21.7421875,12.03125 C21.7421875,11.7604153 21.6490895,11.5677089 21.4628906,11.453125 C21.2766918,11.3385411 20.9882832,11.28125 20.5976562,11.28125 L20.2304688,11.28125 L20.2304688,12.8242188 Z M20.2304688,13.8085938 L20.2304688,16 L19.0195312,16 L19.0195312,10.2890625 L20.6835938,10.2890625 C21.4596393,10.2890625 22.0338523,10.4303371 22.40625,10.7128906 C22.7786477,10.9954441 22.9648438,11.4244763 22.9648438,12 C22.9648438,12.3359392 22.8723968,12.6347643 22.6875,12.8964844 C22.5026032,13.1582044 22.2408871,13.3632805 21.9023438,13.5117188 C22.761723,14.7955793 23.3216133,15.6249981 23.5820312,16 L22.2382812,16 L20.875,13.8085938 L20.2304688,13.8085938 Z M26.7265625,11.2148438 C26.2708311,11.2148438 25.91797,11.386066 25.6679688,11.7285156 C25.4179675,12.0709653 25.2929688,12.548174 25.2929688,13.1601562 C25.2929688,14.4336001 25.7708286,15.0703125 26.7265625,15.0703125 C27.1276062,15.0703125 27.6132784,14.9700531 28.1835938,14.7695312 L28.1835938,15.7851562 C27.7148414,15.9804697 27.1914091,16.078125 26.6132812,16.078125 C25.7825479,16.078125 25.1471376,15.8261744 24.7070312,15.3222656 C24.2669249,14.8183569 24.046875,14.0950568 24.046875,13.1523438 C24.046875,12.5585908 24.1549468,12.0384137 24.3710938,11.5917969 C24.5872407,11.1451801 24.8977844,10.8027356 25.3027344,10.5644531 C25.7076843,10.3261707 26.1822889,10.2070312 26.7265625,10.2070312 C27.2812528,10.2070312 27.8385389,10.3411445 28.3984375,10.609375 L28.0078125,11.59375 C27.7942698,11.492187 27.5794282,11.4036462 27.3632812,11.328125 C27.1471343,11.2526038 26.9348969,11.2148438 26.7265625,11.2148438 Z M34.421875,13.1367188 C34.421875,14.082036 34.1875023,14.8085912 33.71875,15.3164062 C33.2499977,15.8242213 32.5781294,16.078125 31.703125,16.078125 C30.8281206,16.078125 30.1562523,15.8242213 29.6875,15.3164062 C29.2187477,14.8085912 28.984375,14.0794318 28.984375,13.1289062 C28.984375,12.1783807 29.2193987,11.4524765 29.6894531,10.9511719 C30.1595076,10.4498673 30.8333289,10.1992188 31.7109375,10.1992188 C32.5885461,10.1992188 33.2597633,10.4518204 33.7246094,10.9570312 C34.1894554,11.4622421 34.421875,12.1887973 34.421875,13.1367188 Z M30.2539062,13.1367188 C30.2539062,13.7747428 30.3749988,14.2552067 30.6171875,14.578125 C30.8593762,14.9010433 31.2213518,15.0625 31.703125,15.0625 C32.6692757,15.0625 33.1523438,14.4205793 33.1523438,13.1367188 C33.1523438,11.850254 32.6718798,11.2070312 31.7109375,11.2070312 C31.2291643,11.2070312 30.8658866,11.369139 30.6210938,11.6933594 C30.3763009,12.0175797 30.2539062,12.4986947 30.2539062,13.1367188 Z M35.6054688,16 L35.6054688,10.2890625 L36.8164062,10.2890625 L36.8164062,15 L39.1328125,15 L39.1328125,16 L35.6054688,16 Z M43.4140625,16 L40.125,16 L40.125,10.2890625 L43.4140625,10.2890625 L43.4140625,11.28125 L41.3359375,11.28125 L41.3359375,12.5351562 L43.2695312,12.5351562 L43.2695312,13.5273438 L41.3359375,13.5273438 L41.3359375,15 L43.4140625,15 L43.4140625,16 Z M47.9765625,14.4140625 C47.9765625,14.9296901 47.7910175,15.335936 47.4199219,15.6328125 C47.0488263,15.929689 46.5325554,16.078125 45.8710938,16.078125 C45.2617157,16.078125 44.7226586,15.9635428 44.2539062,15.734375 L44.2539062,14.609375 C44.6393248,14.7812509 44.9654935,14.9023434 45.2324219,14.9726562 C45.4993503,15.0429691 45.7434885,15.078125 45.9648438,15.078125 C46.2304701,15.078125 46.4342441,15.0273443 46.5761719,14.9257812 C46.7180997,14.8242182 46.7890625,14.6731781 46.7890625,14.4726562 C46.7890625,14.3606765 46.7578128,14.2610681 46.6953125,14.1738281 C46.6328122,14.0865881 46.5410162,14.0026046 46.4199219,13.921875 C46.2988275,13.8411454 46.0520852,13.7122405 45.6796875,13.5351562 C45.3307274,13.3710929 45.0690113,13.2135424 44.8945312,13.0625 C44.7200512,12.9114576 44.5807297,12.7356781 44.4765625,12.5351562 C44.3723953,12.3346344 44.3203125,12.1002618 44.3203125,11.8320312 C44.3203125,11.3268204 44.4915347,10.9296889 44.8339844,10.640625 C45.176434,10.3515611 45.6497366,10.2070312 46.2539062,10.2070312 C46.5507827,10.2070312 46.833983,10.2421871 47.1035156,10.3125 C47.3730482,10.3828129 47.6549464,10.4817702 47.9492188,10.609375 L47.5585938,11.5507812 C47.2539047,11.4257806 47.0019541,11.3385419 46.8027344,11.2890625 C46.6035146,11.2395831 46.407553,11.2148438 46.2148438,11.2148438 C45.9856759,11.2148438 45.8098964,11.2682286 45.6875,11.375 C45.5651036,11.4817714 45.5039062,11.6210929 45.5039062,11.7929688 C45.5039062,11.8997401 45.5286456,11.9928381 45.578125,12.0722656 C45.6276044,12.1516931 45.7063797,12.2285153 45.8144531,12.3027344 C45.9225266,12.3769535 46.1783834,12.5104157 46.5820312,12.703125 C47.1158881,12.9583346 47.4817698,13.2141914 47.6796875,13.4707031 C47.8776052,13.7272148 47.9765625,14.0416648 47.9765625,14.4140625 Z" id="tárcoles" fill="#FFFFFF"></path>
        </g>
    </g>
</svg>