<?xml version="1.0" encoding="UTF-8"?>
<svg width="65px" height="27px" viewBox="0 0 65 27" version="1.1" xmlns="http://www.w3.org/2000/svg" xmlns:xlink="http://www.w3.org/1999/xlink">
    <!-- Generator: Sketch 48.2 (47327) - http://www.bohemiancoding.com/sketch -->
    <title>telire</title>
    <desc>Created with Sketch.</desc>
    <defs>
        <path d="M17.8208049,6 C16.6655751,7.89393294 16,10.1192398 16,12.5 C16,15.3140148 16.9298621,17.9108487 18.4990845,20 L7,20 C3.13400675,20 4.73447626e-16,16.8659932 0,13 C-4.73447626e-16,9.13400675 3.13400675,6 7,6 L17.8208049,6 Z M39.1791951,6 L50,6 C53.8659932,6 57,9.13400675 57,13 C57,16.8659932 53.8659932,20 50,20 L38.5009155,20 C40.0701379,17.9108487 41,15.3140148 41,12.5 C41,10.1192398 40.3344249,7.89393294 39.1791951,6 Z" id="path-1"></path>
        <filter x="-11.4%" y="-39.3%" width="122.8%" height="192.9%" filterUnits="objectBoundingBox" id="filter-2">
            <feOffset dx="0" dy="1" in="SourceAlpha" result="shadowOffsetOuter1"></feOffset>
            <feGaussianBlur stdDeviation="2" in="shadowOffsetOuter1" result="shadowBlurOuter1"></feGaussianBlur>
            <feColorMatrix values="0 0 0 0 0   0 0 0 0 0   0 0 0 0 0  0 0 0 0.5 0" type="matrix" in="shadowBlurOuter1"></feColorMatrix>
        </filter>
    </defs>
    <g id="Volcanes-fallas" stroke="none" stroke-width="1" fill="none" fill-rule="evenodd">
        <g id="telire" transform="translate(4.000000, 1.000000)">
            <g id="ic_volcano_label-copy-19">
                <g id="Group-Copy-3" transform="translate(16.000000, 0.000000)">
                    <g id="Group-26-Copy-4"></g>
                </g>
                <circle id="Oval-2-Copy-5" stroke="#FFFFFF" stroke-width="0.5" fill="#FF6D00" cx="28.5" cy="12.5" r="12.5"></circle>
                <g id="Combined-Shape">
                    <use fill="black" fill-opacity="1" filter="url(#filter-2)" xlink:href="#path-1"></use>
                    <use fill="#263238" fill-rule="evenodd" xlink:href="#path-1"></use>
                </g>
                <rect id="Rectangle-2-Copy-4" fill="#263238" x="0" y="6" width="57" height="14" rx="7"></rect>
            </g>
            <path d="M18.4003906,16 L17.1894531,16 L17.1894531,11.296875 L15.6386719,11.296875 L15.6386719,10.2890625 L19.9511719,10.2890625 L19.9511719,11.296875 L18.4003906,11.296875 L18.4003906,16 Z M24.1191406,16 L20.8300781,16 L20.8300781,10.2890625 L24.1191406,10.2890625 L24.1191406,11.28125 L22.0410156,11.28125 L22.0410156,12.5351562 L23.9746094,12.5351562 L23.9746094,13.5273438 L22.0410156,13.5273438 L22.0410156,15 L24.1191406,15 L24.1191406,16 Z M25.3105469,16 L25.3105469,10.2890625 L26.5214844,10.2890625 L26.5214844,15 L28.8378906,15 L28.8378906,16 L25.3105469,16 Z M29.8300781,16 L29.8300781,10.2890625 L31.0410156,10.2890625 L31.0410156,16 L29.8300781,16 Z M33.6894531,12.8242188 L34.0800781,12.8242188 C34.4628925,12.8242188 34.7454418,12.7604173 34.9277344,12.6328125 C35.110027,12.5052077 35.2011719,12.3046889 35.2011719,12.03125 C35.2011719,11.7604153 35.1080738,11.5677089 34.921875,11.453125 C34.7356762,11.3385411 34.4472676,11.28125 34.0566406,11.28125 L33.6894531,11.28125 L33.6894531,12.8242188 Z M33.6894531,13.8085938 L33.6894531,16 L32.4785156,16 L32.4785156,10.2890625 L34.1425781,10.2890625 C34.9186237,10.2890625 35.4928367,10.4303371 35.8652344,10.7128906 C36.2376321,10.9954441 36.4238281,11.4244763 36.4238281,12 C36.4238281,12.3359392 36.3313811,12.6347643 36.1464844,12.8964844 C35.9615876,13.1582044 35.6998715,13.3632805 35.3613281,13.5117188 C36.2207074,14.7955793 36.7805977,15.6249981 37.0410156,16 L35.6972656,16 L34.3339844,13.8085938 L33.6894531,13.8085938 Z M41.0488281,16 L37.7597656,16 L37.7597656,10.2890625 L41.0488281,10.2890625 L41.0488281,11.28125 L38.9707031,11.28125 L38.9707031,12.5351562 L40.9042969,12.5351562 L40.9042969,13.5273438 L38.9707031,13.5273438 L38.9707031,15 L41.0488281,15 L41.0488281,16 Z" fill="#FFFFFF"></path>
        </g>
    </g>
</svg>