<?xml version="1.0" encoding="UTF-8"?>
<svg width="65px" height="27px" viewBox="0 0 65 27" version="1.1" xmlns="http://www.w3.org/2000/svg" xmlns:xlink="http://www.w3.org/1999/xlink">
    <!-- Generator: Sketch 48.2 (47327) - http://www.bohemiancoding.com/sketch -->
    <title>tenorio</title>
    <desc>Created with Sketch.</desc>
    <defs>
        <path d="M17.8208049,6 C16.6655751,7.89393294 16,10.1192398 16,12.5 C16,15.3140148 16.9298621,17.9108487 18.4990845,20 L7,20 C3.13400675,20 4.73447626e-16,16.8659932 0,13 C-4.73447626e-16,9.13400675 3.13400675,6 7,6 L17.8208049,6 Z M39.1791951,6 L50,6 C53.8659932,6 57,9.13400675 57,13 C57,16.8659932 53.8659932,20 50,20 L38.5009155,20 C40.0701379,17.9108487 41,15.3140148 41,12.5 C41,10.1192398 40.3344249,7.89393294 39.1791951,6 Z" id="path-1"></path>
        <filter x="-11.4%" y="-39.3%" width="122.8%" height="192.9%" filterUnits="objectBoundingBox" id="filter-2">
            <feOffset dx="0" dy="1" in="SourceAlpha" result="shadowOffsetOuter1"></feOffset>
            <feGaussianBlur stdDeviation="2" in="shadowOffsetOuter1" result="shadowBlurOuter1"></feGaussianBlur>
            <feColorMatrix values="0 0 0 0 0   0 0 0 0 0   0 0 0 0 0  0 0 0 0.5 0" type="matrix" in="shadowBlurOuter1"></feColorMatrix>
        </filter>
    </defs>
    <g id="Volcanes-fallas" stroke="none" stroke-width="1" fill="none" fill-rule="evenodd">
        <g id="tenorio" transform="translate(4.000000, 1.000000)">
            <g id="ic_volcano_label-copy-19">
                <g id="Group-Copy-3" transform="translate(16.000000, 0.000000)">
                    <g id="Group-26-Copy-4"></g>
                </g>
                <circle id="Oval-2-Copy-5" stroke="#FFFFFF" stroke-width="0.5" fill="#FF6D00" cx="28.5" cy="12.5" r="12.5"></circle>
                <g id="Combined-Shape">
                    <use fill="black" fill-opacity="1" filter="url(#filter-2)" xlink:href="#path-1"></use>
                    <use fill="#263238" fill-rule="evenodd" xlink:href="#path-1"></use>
                </g>
                <rect id="Rectangle-2-Copy-4" fill="#263238" x="0" y="6" width="57" height="14" rx="7"></rect>
            </g>
            <path d="M13.28125,16 L12.0703125,16 L12.0703125,11.296875 L10.5195312,11.296875 L10.5195312,10.2890625 L14.8320312,10.2890625 L14.8320312,11.296875 L13.28125,11.296875 L13.28125,16 Z M19,16 L15.7109375,16 L15.7109375,10.2890625 L19,10.2890625 L19,11.28125 L16.921875,11.28125 L16.921875,12.5351562 L18.8554688,12.5351562 L18.8554688,13.5273438 L16.921875,13.5273438 L16.921875,15 L19,15 L19,16 Z M25.2578125,16 L23.71875,16 L21.234375,11.6796875 L21.1992188,11.6796875 C21.2486982,12.4427121 21.2734375,12.9869775 21.2734375,13.3125 L21.2734375,16 L20.1914062,16 L20.1914062,10.2890625 L21.71875,10.2890625 L24.1992188,14.5664062 L24.2265625,14.5664062 C24.1874998,13.824215 24.1679688,13.2994807 24.1679688,12.9921875 L24.1679688,10.2890625 L25.2578125,10.2890625 L25.2578125,16 Z M31.8789062,13.1367188 C31.8789062,14.082036 31.6445336,14.8085912 31.1757812,15.3164062 C30.7070289,15.8242213 30.0351606,16.078125 29.1601562,16.078125 C28.2851519,16.078125 27.6132836,15.8242213 27.1445312,15.3164062 C26.6757789,14.8085912 26.4414062,14.0794318 26.4414062,13.1289062 C26.4414062,12.1783807 26.6764299,11.4524765 27.1464844,10.9511719 C27.6165388,10.4498673 28.2903602,10.1992188 29.1679688,10.1992188 C30.0455773,10.1992188 30.7167946,10.4518204 31.1816406,10.9570312 C31.6464867,11.4622421 31.8789062,12.1887973 31.8789062,13.1367188 Z M27.7109375,13.1367188 C27.7109375,13.7747428 27.83203,14.2552067 28.0742188,14.578125 C28.3164075,14.9010433 28.678383,15.0625 29.1601562,15.0625 C30.1263069,15.0625 30.609375,14.4205793 30.609375,13.1367188 C30.609375,11.850254 30.1289111,11.2070312 29.1679688,11.2070312 C28.6861955,11.2070312 28.3229179,11.369139 28.078125,11.6933594 C27.8333321,12.0175797 27.7109375,12.4986947 27.7109375,13.1367188 Z M34.2734375,12.8242188 L34.6640625,12.8242188 C35.0468769,12.8242188 35.3294262,12.7604173 35.5117188,12.6328125 C35.6940113,12.5052077 35.7851562,12.3046889 35.7851562,12.03125 C35.7851562,11.7604153 35.6920582,11.5677089 35.5058594,11.453125 C35.3196605,11.3385411 35.031252,11.28125 34.640625,11.28125 L34.2734375,11.28125 L34.2734375,12.8242188 Z M34.2734375,13.8085938 L34.2734375,16 L33.0625,16 L33.0625,10.2890625 L34.7265625,10.2890625 C35.502608,10.2890625 36.0768211,10.4303371 36.4492188,10.7128906 C36.8216164,10.9954441 37.0078125,11.4244763 37.0078125,12 C37.0078125,12.3359392 36.9153655,12.6347643 36.7304688,12.8964844 C36.545572,13.1582044 36.2838559,13.3632805 35.9453125,13.5117188 C36.8046918,14.7955793 37.364582,15.6249981 37.625,16 L36.28125,16 L34.9179688,13.8085938 L34.2734375,13.8085938 Z M38.34375,16 L38.34375,10.2890625 L39.5546875,10.2890625 L39.5546875,16 L38.34375,16 Z M46.1757812,13.1367188 C46.1757812,14.082036 45.9414086,14.8085912 45.4726562,15.3164062 C45.0039039,15.8242213 44.3320356,16.078125 43.4570312,16.078125 C42.5820269,16.078125 41.9101586,15.8242213 41.4414062,15.3164062 C40.9726539,14.8085912 40.7382812,14.0794318 40.7382812,13.1289062 C40.7382812,12.1783807 40.9733049,11.4524765 41.4433594,10.9511719 C41.9134138,10.4498673 42.5872352,10.1992188 43.4648438,10.1992188 C44.3424523,10.1992188 45.0136696,10.4518204 45.4785156,10.9570312 C45.9433617,11.4622421 46.1757812,12.1887973 46.1757812,13.1367188 Z M42.0078125,13.1367188 C42.0078125,13.7747428 42.128905,14.2552067 42.3710938,14.578125 C42.6132825,14.9010433 42.975258,15.0625 43.4570312,15.0625 C44.4231819,15.0625 44.90625,14.4205793 44.90625,13.1367188 C44.90625,11.850254 44.4257861,11.2070312 43.4648438,11.2070312 C42.9830705,11.2070312 42.6197929,11.369139 42.375,11.6933594 C42.1302071,12.0175797 42.0078125,12.4986947 42.0078125,13.1367188 Z" id="TENORIO" fill="#FFFFFF"></path>
        </g>
    </g>
</svg>