<?xml version="1.0" encoding="UTF-8"?>
<svg width="65px" height="27px" viewBox="0 0 65 27" version="1.1" xmlns="http://www.w3.org/2000/svg" xmlns:xlink="http://www.w3.org/1999/xlink">
    <!-- Generator: Sketch 48.2 (47327) - http://www.bohemiancoding.com/sketch -->
    <title>tigra</title>
    <desc>Created with Sketch.</desc>
    <defs>
        <path d="M17.8208049,6 C16.6655751,7.89393294 16,10.1192398 16,12.5 C16,15.3140148 16.9298621,17.9108487 18.4990845,20 L7,20 C3.13400675,20 4.73447626e-16,16.8659932 0,13 C-4.73447626e-16,9.13400675 3.13400675,6 7,6 L17.8208049,6 Z M39.1791951,6 L50,6 C53.8659932,6 57,9.13400675 57,13 C57,16.8659932 53.8659932,20 50,20 L38.5009155,20 C40.0701379,17.9108487 41,15.3140148 41,12.5 C41,10.1192398 40.3344249,7.89393294 39.1791951,6 Z" id="path-1"></path>
        <filter x="-11.4%" y="-39.3%" width="122.8%" height="192.9%" filterUnits="objectBoundingBox" id="filter-2">
            <feOffset dx="0" dy="1" in="SourceAlpha" result="shadowOffsetOuter1"></feOffset>
            <feGaussianBlur stdDeviation="2" in="shadowOffsetOuter1" result="shadowBlurOuter1"></feGaussianBlur>
            <feColorMatrix values="0 0 0 0 0   0 0 0 0 0   0 0 0 0 0  0 0 0 0.5 0" type="matrix" in="shadowBlurOuter1"></feColorMatrix>
        </filter>
    </defs>
    <g id="Volcanes-fallas" stroke="none" stroke-width="1" fill="none" fill-rule="evenodd">
        <g id="tigra" transform="translate(4.000000, 1.000000)">
            <g id="ic_volcano_label-copy-19">
                <g id="Group-Copy-3" transform="translate(16.000000, 0.000000)">
                    <g id="Group-26-Copy-4"></g>
                </g>
                <circle id="Oval-2-Copy-5" stroke="#FFFFFF" stroke-width="0.5" fill="#FF6D00" cx="28.5" cy="12.5" r="12.5"></circle>
                <g id="Combined-Shape">
                    <use fill="black" fill-opacity="1" filter="url(#filter-2)" xlink:href="#path-1"></use>
                    <use fill="#263238" fill-rule="evenodd" xlink:href="#path-1"></use>
                </g>
                <rect id="Rectangle-2-Copy-4" fill="#263238" x="0" y="6" width="57" height="14" rx="7"></rect>
            </g>
            <path d="M19.484375,16 L18.2734375,16 L18.2734375,11.296875 L16.7226562,11.296875 L16.7226562,10.2890625 L21.0351562,10.2890625 L21.0351562,11.296875 L19.484375,11.296875 L19.484375,16 Z M21.9140625,16 L21.9140625,10.2890625 L23.125,10.2890625 L23.125,16 L21.9140625,16 Z M26.7304688,12.7929688 L28.9960938,12.7929688 L28.9960938,15.7539062 C28.6289044,15.8736985 28.2832047,15.9576821 27.9589844,16.0058594 C27.634764,16.0540367 27.3033871,16.078125 26.9648438,16.078125 C26.1028603,16.078125 25.4446637,15.8248723 24.9902344,15.3183594 C24.535805,14.8118464 24.3085938,14.0846402 24.3085938,13.1367188 C24.3085938,12.2148391 24.572263,11.4960963 25.0996094,10.9804688 C25.6269558,10.4648412 26.3580682,10.2070312 27.2929688,10.2070312 C27.8789092,10.2070312 28.4440077,10.3242176 28.9882812,10.5585938 L28.5859375,11.5273438 C28.1692688,11.3190094 27.7356793,11.2148438 27.2851562,11.2148438 C26.7617161,11.2148438 26.3424495,11.3906232 26.0273438,11.7421875 C25.712238,12.0937518 25.5546875,12.5664033 25.5546875,13.1601562 C25.5546875,13.779951 25.6816394,14.2532536 25.9355469,14.5800781 C26.1894544,14.9069027 26.5585913,15.0703125 27.0429688,15.0703125 C27.2955742,15.0703125 27.552082,15.0442711 27.8125,14.9921875 L27.8125,13.8007812 L26.7304688,13.8007812 L26.7304688,12.7929688 Z M31.5664062,12.8242188 L31.9570312,12.8242188 C32.3398457,12.8242188 32.6223949,12.7604173 32.8046875,12.6328125 C32.9869801,12.5052077 33.078125,12.3046889 33.078125,12.03125 C33.078125,11.7604153 32.985027,11.5677089 32.7988281,11.453125 C32.6126293,11.3385411 32.3242207,11.28125 31.9335938,11.28125 L31.5664062,11.28125 L31.5664062,12.8242188 Z M31.5664062,13.8085938 L31.5664062,16 L30.3554688,16 L30.3554688,10.2890625 L32.0195312,10.2890625 C32.7955768,10.2890625 33.3697898,10.4303371 33.7421875,10.7128906 C34.1145852,10.9954441 34.3007812,11.4244763 34.3007812,12 C34.3007812,12.3359392 34.2083343,12.6347643 34.0234375,12.8964844 C33.8385407,13.1582044 33.5768246,13.3632805 33.2382812,13.5117188 C34.0976605,14.7955793 34.6575508,15.6249981 34.9179688,16 L33.5742188,16 L32.2109375,13.8085938 L31.5664062,13.8085938 Z M39.1328125,16 L38.71875,14.640625 L36.6367188,14.640625 L36.2226562,16 L34.9179688,16 L36.9335938,10.265625 L38.4140625,10.265625 L40.4375,16 L39.1328125,16 Z M38.4296875,13.625 C38.0468731,12.393223 37.8313804,11.6966154 37.7832031,11.5351562 C37.7350258,11.3736971 37.7005209,11.2460942 37.6796875,11.1523438 C37.5937496,11.4856787 37.3476583,12.3098893 36.9414062,13.625 L38.4296875,13.625 Z" fill="#FFFFFF"></path>
        </g>
    </g>
</svg>