<?xml version="1.0" encoding="UTF-8"?>
<svg width="88px" height="27px" viewBox="0 0 88 27" version="1.1" xmlns="http://www.w3.org/2000/svg" xmlns:xlink="http://www.w3.org/1999/xlink">
    <!-- Generator: Sketch 48.2 (47327) - http://www.bohemiancoding.com/sketch -->
    <title>tivives_bajamar</title>
    <desc>Created with Sketch.</desc>
    <defs>
        <path d="M30.6751405,6 C29.6123291,7.89393294 29,10.1192398 29,12.5 C29,15.3140148 29.8554731,17.9108487 31.2991578,20 L9,20 C5.13400675,20 2,16.8659932 2,13 C2,9.13400675 5.13400675,6 9,6 L30.6751405,6 Z M50.3248595,6 L72,6 C75.8659932,6 79,9.13400675 79,13 C79,16.8659932 75.8659932,20 72,20 L49.7008422,20 C51.1445269,17.9108487 52,15.3140148 52,12.5 C52,10.1192398 51.3876709,7.89393294 50.3248595,6 Z" id="path-1"></path>
        <filter x="-8.4%" y="-39.3%" width="116.9%" height="192.9%" filterUnits="objectBoundingBox" id="filter-2">
            <feOffset dx="0" dy="1" in="SourceAlpha" result="shadowOffsetOuter1"></feOffset>
            <feGaussianBlur stdDeviation="2" in="shadowOffsetOuter1" result="shadowBlurOuter1"></feGaussianBlur>
            <feColorMatrix values="0 0 0 0 0   0 0 0 0 0   0 0 0 0 0  0 0 0 0.5 0" type="matrix" in="shadowBlurOuter1"></feColorMatrix>
        </filter>
        <rect id="path-3" x="0" y="6" width="80" height="14" rx="7"></rect>
        <filter x="-8.1%" y="-39.3%" width="116.2%" height="192.9%" filterUnits="objectBoundingBox" id="filter-4">
            <feOffset dx="0" dy="1" in="SourceAlpha" result="shadowOffsetOuter1"></feOffset>
            <feGaussianBlur stdDeviation="2" in="shadowOffsetOuter1" result="shadowBlurOuter1"></feGaussianBlur>
            <feColorMatrix values="0 0 0 0 0   0 0 0 0 0   0 0 0 0 0  0 0 0 0.5 0" type="matrix" in="shadowBlurOuter1"></feColorMatrix>
        </filter>
    </defs>
    <g id="Volcanes-fallas" stroke="none" stroke-width="1" fill="none" fill-rule="evenodd">
        <g id="tivives_bajamar" transform="translate(4.000000, 1.000000)">
            <g id="ic_volcano_label-copy-18">
                <g id="Group-Copy-3">
                    <g id="Group-26-Copy-4" transform="translate(28.000000, 0.000000)" fill="#FF6D00" stroke="#FFFFFF" stroke-width="0.5">
                        <circle id="Oval-2-Copy-5" cx="12.5" cy="12.5" r="12.5"></circle>
                    </g>
                    <g id="Combined-Shape">
                        <use fill="black" fill-opacity="1" filter="url(#filter-2)" xlink:href="#path-1"></use>
                        <use fill="#263238" fill-rule="evenodd" xlink:href="#path-1"></use>
                    </g>
                    <g id="Rectangle-2-Copy-4">
                        <use fill="black" fill-opacity="1" filter="url(#filter-4)" xlink:href="#path-3"></use>
                        <use fill="#263238" fill-rule="evenodd" xlink:href="#path-3"></use>
                    </g>
                </g>
                <path d="M7.88476562,16 L6.67382812,16 L6.67382812,11.296875 L5.12304688,11.296875 L5.12304688,10.2890625 L9.43554688,10.2890625 L9.43554688,11.296875 L7.88476562,11.296875 L7.88476562,16 Z M10.3144531,16 L10.3144531,10.2890625 L11.5253906,10.2890625 L11.5253906,16 L10.3144531,16 Z M16.2207031,10.2890625 L17.4433594,10.2890625 L15.5019531,16 L14.1816406,16 L12.2441406,10.2890625 L13.4667969,10.2890625 L14.5410156,13.6875 C14.6009118,13.8880218 14.6627601,14.1217435 14.7265625,14.3886719 C14.7903649,14.6556003 14.830078,14.8411453 14.8457031,14.9453125 C14.8743491,14.705728 14.9720044,14.2864613 15.1386719,13.6875 L16.2207031,10.2890625 Z M18.1621094,16 L18.1621094,10.2890625 L19.3730469,10.2890625 L19.3730469,16 L18.1621094,16 Z M24.0683594,10.2890625 L25.2910156,10.2890625 L23.3496094,16 L22.0292969,16 L20.0917969,10.2890625 L21.3144531,10.2890625 L22.3886719,13.6875 C22.448568,13.8880218 22.5104163,14.1217435 22.5742188,14.3886719 C22.6380212,14.6556003 22.6777343,14.8411453 22.6933594,14.9453125 C22.7220054,14.705728 22.8196606,14.2864613 22.9863281,13.6875 L24.0683594,10.2890625 Z M29.2988281,16 L26.0097656,16 L26.0097656,10.2890625 L29.2988281,10.2890625 L29.2988281,11.28125 L27.2207031,11.28125 L27.2207031,12.5351562 L29.1542969,12.5351562 L29.1542969,13.5273438 L27.2207031,13.5273438 L27.2207031,15 L29.2988281,15 L29.2988281,16 Z M33.8613281,14.4140625 C33.8613281,14.9296901 33.6757831,15.335936 33.3046875,15.6328125 C32.9335919,15.929689 32.417321,16.078125 31.7558594,16.078125 C31.1464813,16.078125 30.6074242,15.9635428 30.1386719,15.734375 L30.1386719,14.609375 C30.5240905,14.7812509 30.8502591,14.9023434 31.1171875,14.9726562 C31.3841159,15.0429691 31.6282541,15.078125 31.8496094,15.078125 C32.1152357,15.078125 32.3190097,15.0273443 32.4609375,14.9257812 C32.6028653,14.8242182 32.6738281,14.6731781 32.6738281,14.4726562 C32.6738281,14.3606765 32.6425784,14.2610681 32.5800781,14.1738281 C32.5175778,14.0865881 32.4257819,14.0026046 32.3046875,13.921875 C32.1835931,13.8411454 31.9368508,13.7122405 31.5644531,13.5351562 C31.215493,13.3710929 30.9537769,13.2135424 30.7792969,13.0625 C30.6048168,12.9114576 30.4654953,12.7356781 30.3613281,12.5351562 C30.2571609,12.3346344 30.2050781,12.1002618 30.2050781,11.8320312 C30.2050781,11.3268204 30.3763004,10.9296889 30.71875,10.640625 C31.0611996,10.3515611 31.5345022,10.2070312 32.1386719,10.2070312 C32.4355484,10.2070312 32.7187487,10.2421871 32.9882812,10.3125 C33.2578138,10.3828129 33.5397121,10.4817702 33.8339844,10.609375 L33.4433594,11.5507812 C33.1386704,11.4257806 32.8867197,11.3385419 32.6875,11.2890625 C32.4882803,11.2395831 32.2923187,11.2148438 32.0996094,11.2148438 C31.8704416,11.2148438 31.6946621,11.2682286 31.5722656,11.375 C31.4498692,11.4817714 31.3886719,11.6210929 31.3886719,11.7929688 C31.3886719,11.8997401 31.4134112,11.9928381 31.4628906,12.0722656 C31.51237,12.1516931 31.5911453,12.2285153 31.6992188,12.3027344 C31.8072922,12.3769535 32.063149,12.5104157 32.4667969,12.703125 C33.0006537,12.9583346 33.3665355,13.2141914 33.5644531,13.4707031 C33.7623708,13.7272148 33.8613281,14.0416648 33.8613281,14.4140625 Z M34.4160156,14.34375 L34.4160156,13.3671875 L36.5136719,13.3671875 L36.5136719,14.34375 L34.4160156,14.34375 Z M37.4707031,10.2890625 L39.2480469,10.2890625 C40.0579468,10.2890625 40.6458315,10.4042957 41.0117188,10.6347656 C41.377606,10.8652355 41.5605469,11.2317683 41.5605469,11.734375 C41.5605469,12.0755225 41.4804696,12.3554677 41.3203125,12.5742188 C41.1601554,12.7929698 40.947267,12.9244789 40.6816406,12.96875 L40.6816406,13.0078125 C41.0436216,13.0885421 41.3046867,13.2395822 41.4648438,13.4609375 C41.6250008,13.6822928 41.7050781,13.9765607 41.7050781,14.34375 C41.7050781,14.8645859 41.516929,15.2708319 41.140625,15.5625 C40.764321,15.8541681 40.2532584,16 39.6074219,16 L37.4707031,16 L37.4707031,10.2890625 Z M38.6816406,12.5507812 L39.3847656,12.5507812 C39.7128923,12.5507812 39.9505201,12.5000005 40.0976562,12.3984375 C40.2447924,12.2968745 40.3183594,12.1289074 40.3183594,11.8945312 C40.3183594,11.6757802 40.2382821,11.5188807 40.078125,11.4238281 C39.9179679,11.3287756 39.6647153,11.28125 39.3183594,11.28125 L38.6816406,11.28125 L38.6816406,12.5507812 Z M38.6816406,13.5117188 L38.6816406,15 L39.4707031,15 C39.8040381,15 40.0501294,14.9361986 40.2089844,14.8085938 C40.3678393,14.6809889 40.4472656,14.4856784 40.4472656,14.2226562 C40.4472656,13.7486955 40.1087273,13.5117188 39.4316406,13.5117188 L38.6816406,13.5117188 Z M46.1816406,16 L45.7675781,14.640625 L43.6855469,14.640625 L43.2714844,16 L41.9667969,16 L43.9824219,10.265625 L45.4628906,10.265625 L47.4863281,16 L46.1816406,16 Z M45.4785156,13.625 C45.0957012,12.393223 44.8802086,11.6966154 44.8320313,11.5351562 C44.7838539,11.3736971 44.7493491,11.2460942 44.7285156,11.1523438 C44.6425777,11.4856787 44.3964864,12.3098893 43.9902344,13.625 L45.4785156,13.625 Z M48.6464844,17.6796875 C48.3730455,17.6796875 48.1347666,17.651042 47.9316406,17.59375 L47.9316406,16.5859375 C48.139975,16.6380211 48.3300773,16.6640625 48.5019531,16.6640625 C48.7675795,16.6640625 48.9576817,16.581381 49.0722656,16.4160156 C49.1868495,16.2506502 49.2441406,15.9921893 49.2441406,15.640625 L49.2441406,10.2890625 L50.4550781,10.2890625 L50.4550781,15.6328125 C50.4550781,16.2994825 50.3027359,16.8072899 49.9980469,17.15625 C49.6933579,17.5052101 49.2428415,17.6796875 48.6464844,17.6796875 Z M55.3886719,16 L54.9746094,14.640625 L52.8925781,14.640625 L52.4785156,16 L51.1738281,16 L53.1894531,10.265625 L54.6699219,10.265625 L56.6933594,16 L55.3886719,16 Z M54.6855469,13.625 C54.3027325,12.393223 54.0872398,11.6966154 54.0390625,11.5351562 C53.9908852,11.3736971 53.9563803,11.2460942 53.9355469,11.1523438 C53.8496089,11.4856787 53.6035177,12.3098893 53.1972656,13.625 L54.6855469,13.625 Z M59.8300781,16 L58.4550781,11.5195312 L58.4199219,11.5195312 C58.4694013,12.4309941 58.4941406,13.039061 58.4941406,13.34375 L58.4941406,16 L57.4121094,16 L57.4121094,10.2890625 L59.0605469,10.2890625 L60.4121094,14.65625 L60.4355469,14.65625 L61.8691406,10.2890625 L63.5175781,10.2890625 L63.5175781,16 L62.3886719,16 L62.3886719,13.296875 C62.3886719,13.1692702 62.390625,13.0221362 62.3945312,12.8554688 C62.3984375,12.6888013 62.4160155,12.2460973 62.4472656,11.5273438 L62.4121094,11.5273438 L60.9394531,16 L59.8300781,16 Z M68.4511719,16 L68.0371094,14.640625 L65.9550781,14.640625 L65.5410156,16 L64.2363281,16 L66.2519531,10.265625 L67.7324219,10.265625 L69.7558594,16 L68.4511719,16 Z M67.7480469,13.625 C67.3652325,12.393223 67.1497398,11.6966154 67.1015625,11.5351562 C67.0533852,11.3736971 67.0188803,11.2460942 66.9980469,11.1523438 C66.9121089,11.4856787 66.6660177,12.3098893 66.2597656,13.625 L67.7480469,13.625 Z M71.6855469,12.8242188 L72.0761719,12.8242188 C72.4589863,12.8242188 72.7415355,12.7604173 72.9238281,12.6328125 C73.1061207,12.5052077 73.1972656,12.3046889 73.1972656,12.03125 C73.1972656,11.7604153 73.1041676,11.5677089 72.9179688,11.453125 C72.7317699,11.3385411 72.4433613,11.28125 72.0527344,11.28125 L71.6855469,11.28125 L71.6855469,12.8242188 Z M71.6855469,13.8085938 L71.6855469,16 L70.4746094,16 L70.4746094,10.2890625 L72.1386719,10.2890625 C72.9147174,10.2890625 73.4889304,10.4303371 73.8613281,10.7128906 C74.2337258,10.9954441 74.4199219,11.4244763 74.4199219,12 C74.4199219,12.3359392 74.3274749,12.6347643 74.1425781,12.8964844 C73.9576814,13.1582044 73.6959652,13.3632805 73.3574219,13.5117188 C74.2168012,14.7955793 74.7766914,15.6249981 75.0371094,16 L73.6933594,16 L72.3300781,13.8085938 L71.6855469,13.8085938 Z" id="tivives-bajamar" fill="#FFFFFF"></path>
            </g>
        </g>
    </g>
</svg>