<?xml version="1.0" encoding="UTF-8"?>
<svg width="124px" height="27px" viewBox="0 0 124 27" version="1.1" xmlns="http://www.w3.org/2000/svg" xmlns:xlink="http://www.w3.org/1999/xlink">
    <!-- Generator: Sketch 48.2 (47327) - http://www.bohemiancoding.com/sketch -->
    <title>tobosi_tablon</title>
    <desc>Created with Sketch.</desc>
    <defs>
        <path d="M49.6023083,6 C48.5857061,7.89393294 48,10.1192398 48,12.5 C48,15.3140148 48.8182786,17.9108487 50.1991944,20 L9,20 C5.13400675,20 2,16.8659932 2,13 C2,9.13400675 5.13400675,6 9,6 L49.6023083,6 Z M68.3976917,6 L109,6 C112.865993,6 116,9.13400675 116,13 C116,16.8659932 112.865993,20 109,20 L67.8008056,20 C69.1817214,17.9108487 70,15.3140148 70,12.5 C70,10.1192398 69.4142939,7.89393294 68.3976917,6 Z" id="path-1"></path>
        <filter x="-5.7%" y="-39.3%" width="111.4%" height="192.9%" filterUnits="objectBoundingBox" id="filter-2">
            <feOffset dx="0" dy="1" in="SourceAlpha" result="shadowOffsetOuter1"></feOffset>
            <feGaussianBlur stdDeviation="2" in="shadowOffsetOuter1" result="shadowBlurOuter1"></feGaussianBlur>
            <feColorMatrix values="0 0 0 0 0   0 0 0 0 0   0 0 0 0 0  0 0 0 0.5 0" type="matrix" in="shadowBlurOuter1"></feColorMatrix>
        </filter>
        <rect id="path-3" x="0" y="6" width="116" height="14" rx="7"></rect>
        <filter x="-5.6%" y="-39.3%" width="111.2%" height="192.9%" filterUnits="objectBoundingBox" id="filter-4">
            <feOffset dx="0" dy="1" in="SourceAlpha" result="shadowOffsetOuter1"></feOffset>
            <feGaussianBlur stdDeviation="2" in="shadowOffsetOuter1" result="shadowBlurOuter1"></feGaussianBlur>
            <feColorMatrix values="0 0 0 0 0   0 0 0 0 0   0 0 0 0 0  0 0 0 0.5 0" type="matrix" in="shadowBlurOuter1"></feColorMatrix>
        </filter>
    </defs>
    <g id="Volcanes-fallas" stroke="none" stroke-width="1" fill="none" fill-rule="evenodd">
        <g id="tobosi_tablon" transform="translate(4.000000, 1.000000)">
            <g id="ic_volcano_label-copy-18">
                <g id="Group-Copy-3">
                    <g id="Group-26-Copy-4" transform="translate(47.000000, 0.000000)" fill="#FF6D00" stroke="#FFFFFF" stroke-width="0.5">
                        <circle id="Oval-2-Copy-5" cx="12.5" cy="12.5" r="12.5"></circle>
                    </g>
                    <g id="Combined-Shape">
                        <use fill="black" fill-opacity="1" filter="url(#filter-2)" xlink:href="#path-1"></use>
                        <use fill="#263238" fill-rule="evenodd" xlink:href="#path-1"></use>
                    </g>
                    <g id="Rectangle-2-Copy-4">
                        <use fill="black" fill-opacity="1" filter="url(#filter-4)" xlink:href="#path-3"></use>
                        <use fill="#263238" fill-rule="evenodd" xlink:href="#path-3"></use>
                    </g>
                </g>
                <path d="M8.24609375,16 L7.03515625,16 L7.03515625,11.296875 L5.484375,11.296875 L5.484375,10.2890625 L9.796875,10.2890625 L9.796875,11.296875 L8.24609375,11.296875 L8.24609375,16 Z M15.6992188,13.1367188 C15.6992188,14.082036 15.4648461,14.8085912 14.9960938,15.3164062 C14.5273414,15.8242213 13.8554731,16.078125 12.9804688,16.078125 C12.1054644,16.078125 11.4335961,15.8242213 10.9648438,15.3164062 C10.4960914,14.8085912 10.2617188,14.0794318 10.2617188,13.1289062 C10.2617188,12.1783807 10.4967424,11.4524765 10.9667969,10.9511719 C11.4368513,10.4498673 12.1106727,10.1992188 12.9882812,10.1992188 C13.8658898,10.1992188 14.5371071,10.4518204 15.0019531,10.9570312 C15.4667992,11.4622421 15.6992188,12.1887973 15.6992188,13.1367188 Z M11.53125,13.1367188 C11.53125,13.7747428 11.6523425,14.2552067 11.8945312,14.578125 C12.13672,14.9010433 12.4986955,15.0625 12.9804688,15.0625 C13.9466194,15.0625 14.4296875,14.4205793 14.4296875,13.1367188 C14.4296875,11.850254 13.9492236,11.2070312 12.9882813,11.2070312 C12.506508,11.2070312 12.1432304,11.369139 11.8984375,11.6933594 C11.6536446,12.0175797 11.53125,12.4986947 11.53125,13.1367188 Z M16.8828125,10.2890625 L18.6601562,10.2890625 C19.4700561,10.2890625 20.0579409,10.4042957 20.4238281,10.6347656 C20.7897154,10.8652355 20.9726562,11.2317683 20.9726562,11.734375 C20.9726562,12.0755225 20.8925789,12.3554677 20.7324219,12.5742188 C20.5722648,12.7929698 20.3593763,12.9244789 20.09375,12.96875 L20.09375,13.0078125 C20.455731,13.0885421 20.7167961,13.2395822 20.8769531,13.4609375 C21.0371102,13.6822928 21.1171875,13.9765607 21.1171875,14.34375 C21.1171875,14.8645859 20.9290383,15.2708319 20.5527344,15.5625 C20.1764304,15.8541681 19.6653678,16 19.0195312,16 L16.8828125,16 L16.8828125,10.2890625 Z M18.09375,12.5507812 L18.796875,12.5507812 C19.1250016,12.5507812 19.3626295,12.5000005 19.5097656,12.3984375 C19.6569018,12.2968745 19.7304688,12.1289074 19.7304688,11.8945312 C19.7304688,11.6757802 19.6503914,11.5188807 19.4902344,11.4238281 C19.3300773,11.3287756 19.0768246,11.28125 18.7304688,11.28125 L18.09375,11.28125 L18.09375,12.5507812 Z M18.09375,13.5117188 L18.09375,15 L18.8828125,15 C19.2161475,15 19.4622388,14.9361986 19.6210938,14.8085938 C19.7799487,14.6809889 19.859375,14.4856784 19.859375,14.2226562 C19.859375,13.7486955 19.5208367,13.5117188 18.84375,13.5117188 L18.09375,13.5117188 Z M27.4414062,13.1367188 C27.4414062,14.082036 27.2070336,14.8085912 26.7382812,15.3164062 C26.2695289,15.8242213 25.5976606,16.078125 24.7226562,16.078125 C23.8476519,16.078125 23.1757836,15.8242213 22.7070312,15.3164062 C22.2382789,14.8085912 22.0039062,14.0794318 22.0039062,13.1289062 C22.0039062,12.1783807 22.2389299,11.4524765 22.7089844,10.9511719 C23.1790388,10.4498673 23.8528602,10.1992188 24.7304688,10.1992188 C25.6080773,10.1992188 26.2792946,10.4518204 26.7441406,10.9570312 C27.2089867,11.4622421 27.4414062,12.1887973 27.4414062,13.1367188 Z M23.2734375,13.1367188 C23.2734375,13.7747428 23.39453,14.2552067 23.6367188,14.578125 C23.8789075,14.9010433 24.240883,15.0625 24.7226562,15.0625 C25.6888069,15.0625 26.171875,14.4205793 26.171875,13.1367188 C26.171875,11.850254 25.6914111,11.2070312 24.7304688,11.2070312 C24.2486955,11.2070312 23.8854179,11.369139 23.640625,11.6933594 C23.3958321,12.0175797 23.2734375,12.4986947 23.2734375,13.1367188 Z M31.9960938,14.4140625 C31.9960938,14.9296901 31.8105487,15.335936 31.4394531,15.6328125 C31.0683575,15.929689 30.5520866,16.078125 29.890625,16.078125 C29.281247,16.078125 28.7421898,15.9635428 28.2734375,15.734375 L28.2734375,14.609375 C28.6588561,14.7812509 28.9850247,14.9023434 29.2519531,14.9726562 C29.5188815,15.0429691 29.7630197,15.078125 29.984375,15.078125 C30.2500013,15.078125 30.4537753,15.0273443 30.5957031,14.9257812 C30.7376309,14.8242182 30.8085938,14.6731781 30.8085938,14.4726562 C30.8085938,14.3606765 30.7773441,14.2610681 30.7148438,14.1738281 C30.6523434,14.0865881 30.5605475,14.0026046 30.4394531,13.921875 C30.3183588,13.8411454 30.0716164,13.7122405 29.6992188,13.5351562 C29.3502587,13.3710929 29.0885425,13.2135424 28.9140625,13.0625 C28.7395825,12.9114576 28.6002609,12.7356781 28.4960938,12.5351562 C28.3919266,12.3346344 28.3398438,12.1002618 28.3398438,11.8320312 C28.3398438,11.3268204 28.511066,10.9296889 28.8535156,10.640625 C29.1959653,10.3515611 29.6692678,10.2070312 30.2734375,10.2070312 C30.570314,10.2070312 30.8535143,10.2421871 31.1230469,10.3125 C31.3925795,10.3828129 31.6744777,10.4817702 31.96875,10.609375 L31.578125,11.5507812 C31.273436,11.4257806 31.0214854,11.3385419 30.8222656,11.2890625 C30.6230459,11.2395831 30.4270843,11.2148438 30.234375,11.2148438 C30.0052072,11.2148438 29.8294277,11.2682286 29.7070313,11.375 C29.5846348,11.4817714 29.5234375,11.6210929 29.5234375,11.7929688 C29.5234375,11.8997401 29.5481768,11.9928381 29.5976563,12.0722656 C29.6471357,12.1516931 29.7259109,12.2285153 29.8339844,12.3027344 C29.9420578,12.3769535 30.1979146,12.5104157 30.6015625,12.703125 C31.1354193,12.9583346 31.5013011,13.2141914 31.6992188,13.4707031 C31.8971364,13.7272148 31.9960938,14.0416648 31.9960938,14.4140625 Z M33.03125,16 L33.03125,10.2890625 L34.2421875,10.2890625 L34.2421875,16 L33.03125,16 Z M35.1992188,14.34375 L35.1992188,13.3671875 L37.296875,13.3671875 L37.296875,14.34375 L35.1992188,14.34375 Z M40.1367188,16 L38.9257812,16 L38.9257812,11.296875 L37.375,11.296875 L37.375,10.2890625 L41.6875,10.2890625 L41.6875,11.296875 L40.1367188,11.296875 L40.1367188,16 Z M45.5039063,16 L45.0898438,14.640625 L43.0078125,14.640625 L42.59375,16 L41.2890625,16 L43.3046875,10.265625 L44.7851563,10.265625 L46.8085938,16 L45.5039063,16 Z M44.8007813,13.625 C44.4179668,12.393223 44.2024742,11.6966154 44.1542969,11.5351562 C44.1061196,11.3736971 44.0716147,11.2460942 44.0507813,11.1523438 C43.9648433,11.4856787 43.718752,12.3098893 43.3125,13.625 L44.8007813,13.625 Z M47.5273438,10.2890625 L49.3046875,10.2890625 C50.1145874,10.2890625 50.7024721,10.4042957 51.0683594,10.6347656 C51.4342466,10.8652355 51.6171875,11.2317683 51.6171875,11.734375 C51.6171875,12.0755225 51.5371102,12.3554677 51.3769531,12.5742188 C51.2167961,12.7929698 51.0039076,12.9244789 50.7382813,12.96875 L50.7382813,13.0078125 C51.1002622,13.0885421 51.3613273,13.2395822 51.5214844,13.4609375 C51.6816414,13.6822928 51.7617188,13.9765607 51.7617188,14.34375 C51.7617188,14.8645859 51.5735696,15.2708319 51.1972656,15.5625 C50.8209617,15.8541681 50.3098991,16 49.6640625,16 L47.5273438,16 L47.5273438,10.2890625 Z M48.7382813,12.5507812 L49.4414063,12.5507812 C49.7695329,12.5507812 50.0071607,12.5000005 50.1542969,12.3984375 C50.301433,12.2968745 50.375,12.1289074 50.375,11.8945312 C50.375,11.6757802 50.2949227,11.5188807 50.1347656,11.4238281 C49.9746086,11.3287756 49.7213559,11.28125 49.375,11.28125 L48.7382813,11.28125 L48.7382813,12.5507812 Z M48.7382813,13.5117188 L48.7382813,15 L49.5273438,15 C49.8606788,15 50.10677,14.9361986 50.265625,14.8085938 C50.42448,14.6809889 50.5039063,14.4856784 50.5039063,14.2226562 C50.5039063,13.7486955 50.165368,13.5117188 49.4882813,13.5117188 L48.7382813,13.5117188 Z M52.9023438,16 L52.9023438,10.2890625 L54.1132812,10.2890625 L54.1132812,15 L56.4296875,15 L56.4296875,16 L52.9023438,16 Z M62.4453125,13.1367188 C62.4453125,14.082036 62.2109398,14.8085912 61.7421875,15.3164062 C61.2734352,15.8242213 60.6015669,16.078125 59.7265625,16.078125 C58.8515581,16.078125 58.1796898,15.8242213 57.7109375,15.3164062 C57.2421852,14.8085912 57.0078125,14.0794318 57.0078125,13.1289062 C57.0078125,12.1783807 57.2428362,11.4524765 57.7128906,10.9511719 C58.1829451,10.4498673 58.8567664,10.1992188 59.734375,10.1992188 C60.6119836,10.1992188 61.2832008,10.4518204 61.7480469,10.9570312 C62.2128929,11.4622421 62.4453125,12.1887973 62.4453125,13.1367188 Z M58.2773438,13.1367188 C58.2773438,13.7747428 58.3984363,14.2552067 58.640625,14.578125 C58.8828137,14.9010433 59.2447893,15.0625 59.7265625,15.0625 C60.6927132,15.0625 61.1757813,14.4205793 61.1757813,13.1367188 C61.1757813,11.850254 60.6953173,11.2070312 59.734375,11.2070312 C59.2526018,11.2070312 58.8893241,11.369139 58.6445313,11.6933594 C58.3997384,12.0175797 58.2773438,12.4986947 58.2773438,13.1367188 Z M59.1132812,9.83203125 L59.1132812,9.7265625 C59.5612002,9.20572656 59.8671867,8.8138034 60.03125,8.55078125 L61.3671875,8.55078125 L61.3671875,8.6328125 C61.2317702,8.76822984 61.0006527,8.96939971 60.6738281,9.23632812 C60.3470036,9.50325654 60.0911468,9.70182227 59.90625,9.83203125 L59.1132812,9.83203125 Z M68.6953125,16 L67.15625,16 L64.671875,11.6796875 L64.6367188,11.6796875 C64.6861982,12.4427121 64.7109375,12.9869775 64.7109375,13.3125 L64.7109375,16 L63.6289062,16 L63.6289062,10.2890625 L65.15625,10.2890625 L67.6367188,14.5664062 L67.6640625,14.5664062 C67.6249998,13.824215 67.6054688,13.2994807 67.6054688,12.9921875 L67.6054688,10.2890625 L68.6953125,10.2890625 L68.6953125,16 Z M69.6523438,14.34375 L69.6523438,13.3671875 L71.75,13.3671875 L71.75,14.34375 L69.6523438,14.34375 Z M76.203125,16 L75.7890625,14.640625 L73.7070313,14.640625 L73.2929688,16 L71.9882813,16 L74.0039063,10.265625 L75.484375,10.265625 L77.5078125,16 L76.203125,16 Z M75.5,13.625 C75.1171856,12.393223 74.9016929,11.6966154 74.8535156,11.5351562 C74.8053383,11.3736971 74.7708334,11.2460942 74.75,11.1523438 C74.6640621,11.4856787 74.4179708,12.3098893 74.0117188,13.625 L75.5,13.625 Z M78.2265625,16 L78.2265625,10.2890625 L79.4375,10.2890625 L79.4375,15 L81.7539062,15 L81.7539062,16 L78.2265625,16 Z M87.3164063,10.2890625 L87.3164063,13.984375 C87.3164063,14.4062521 87.2220062,14.7760401 87.0332031,15.09375 C86.8444001,15.4114599 86.5716164,15.6549471 86.2148438,15.8242188 C85.8580711,15.9934904 85.4362004,16.078125 84.9492188,16.078125 C84.2148401,16.078125 83.6445333,15.8899758 83.2382813,15.5136719 C82.8320292,15.1373679 82.6289063,14.6223991 82.6289063,13.96875 L82.6289063,10.2890625 L83.8359375,10.2890625 L83.8359375,13.7851562 C83.8359375,14.2252626 83.9244783,14.5481761 84.1015625,14.7539062 C84.2786467,14.9596364 84.5716125,15.0625 84.9804688,15.0625 C85.3763041,15.0625 85.6634106,14.9589854 85.8417969,14.7519531 C86.0201832,14.5449208 86.109375,14.2200543 86.109375,13.7773438 L86.109375,10.2890625 L87.3164063,10.2890625 Z M91.1328125,16 L89.7578125,11.5195312 L89.7226562,11.5195312 C89.7721357,12.4309941 89.796875,13.039061 89.796875,13.34375 L89.796875,16 L88.7148438,16 L88.7148438,10.2890625 L90.3632812,10.2890625 L91.7148438,14.65625 L91.7382812,14.65625 L93.171875,10.2890625 L94.8203125,10.2890625 L94.8203125,16 L93.6914062,16 L93.6914062,13.296875 C93.6914062,13.1692702 93.6933594,13.0221362 93.6972656,12.8554688 C93.7011719,12.6888013 93.7187498,12.2460973 93.75,11.5273438 L93.7148438,11.5273438 L92.2421875,16 L91.1328125,16 Z M96.2578125,10.2890625 L98.0351562,10.2890625 C98.8450561,10.2890625 99.4329409,10.4042957 99.7988281,10.6347656 C100.164715,10.8652355 100.347656,11.2317683 100.347656,11.734375 C100.347656,12.0755225 100.267579,12.3554677 100.107422,12.5742188 C99.9472648,12.7929698 99.7343763,12.9244789 99.46875,12.96875 L99.46875,13.0078125 C99.830731,13.0885421 100.091796,13.2395822 100.251953,13.4609375 C100.41211,13.6822928 100.492188,13.9765607 100.492188,14.34375 C100.492188,14.8645859 100.304038,15.2708319 99.9277344,15.5625 C99.5514304,15.8541681 99.0403678,16 98.3945312,16 L96.2578125,16 L96.2578125,10.2890625 Z M97.46875,12.5507812 L98.171875,12.5507812 C98.5000016,12.5507812 98.7376295,12.5000005 98.8847656,12.3984375 C99.0319018,12.2968745 99.1054688,12.1289074 99.1054688,11.8945312 C99.1054688,11.6757802 99.0253914,11.5188807 98.8652344,11.4238281 C98.7050773,11.3287756 98.4518246,11.28125 98.1054688,11.28125 L97.46875,11.28125 L97.46875,12.5507812 Z M97.46875,13.5117188 L97.46875,15 L98.2578125,15 C98.5911475,15 98.8372388,14.9361986 98.9960938,14.8085938 C99.1549487,14.6809889 99.234375,14.4856784 99.234375,14.2226562 C99.234375,13.7486955 98.8958367,13.5117188 98.21875,13.5117188 L97.46875,13.5117188 Z M102.84375,12.8242188 L103.234375,12.8242188 C103.617189,12.8242188 103.899739,12.7604173 104.082031,12.6328125 C104.264324,12.5052077 104.355469,12.3046889 104.355469,12.03125 C104.355469,11.7604153 104.262371,11.5677089 104.076172,11.453125 C103.889973,11.3385411 103.601564,11.28125 103.210938,11.28125 L102.84375,11.28125 L102.84375,12.8242188 Z M102.84375,13.8085938 L102.84375,16 L101.632813,16 L101.632813,10.2890625 L103.296875,10.2890625 C104.072921,10.2890625 104.647134,10.4303371 105.019531,10.7128906 C105.391929,10.9954441 105.578125,11.4244763 105.578125,12 C105.578125,12.3359392 105.485678,12.6347643 105.300781,12.8964844 C105.115884,13.1582044 104.854168,13.3632805 104.515625,13.5117188 C105.375004,14.7955793 105.934895,15.6249981 106.195313,16 L104.851563,16 L103.488281,13.8085938 L102.84375,13.8085938 Z M110.203125,16 L106.914062,16 L106.914062,10.2890625 L110.203125,10.2890625 L110.203125,11.28125 L108.125,11.28125 L108.125,12.5351562 L110.058594,12.5351562 L110.058594,13.5273438 L108.125,13.5273438 L108.125,15 L110.203125,15 L110.203125,16 Z" id="tobosi-tablón-alumbr" fill="#FFFFFF"></path>
            </g>
        </g>
    </g>
</svg>