<?xml version="1.0" encoding="UTF-8"?>
<svg width="88px" height="27px" viewBox="0 0 88 27" version="1.1" xmlns="http://www.w3.org/2000/svg" xmlns:xlink="http://www.w3.org/1999/xlink">
    <!-- Generator: Sketch 48.2 (47327) - http://www.bohemiancoding.com/sketch -->
    <title>tronco_negro</title>
    <desc>Created with Sketch.</desc>
    <defs>
        <path d="M30.6751405,6 C29.6123291,7.89393294 29,10.1192398 29,12.5 C29,15.3140148 29.8554731,17.9108487 31.2991578,20 L9,20 C5.13400675,20 2,16.8659932 2,13 C2,9.13400675 5.13400675,6 9,6 L30.6751405,6 Z M50.3248595,6 L72,6 C75.8659932,6 79,9.13400675 79,13 C79,16.8659932 75.8659932,20 72,20 L49.7008422,20 C51.1445269,17.9108487 52,15.3140148 52,12.5 C52,10.1192398 51.3876709,7.89393294 50.3248595,6 Z" id="path-1"></path>
        <filter x="-8.4%" y="-39.3%" width="116.9%" height="192.9%" filterUnits="objectBoundingBox" id="filter-2">
            <feOffset dx="0" dy="1" in="SourceAlpha" result="shadowOffsetOuter1"></feOffset>
            <feGaussianBlur stdDeviation="2" in="shadowOffsetOuter1" result="shadowBlurOuter1"></feGaussianBlur>
            <feColorMatrix values="0 0 0 0 0   0 0 0 0 0   0 0 0 0 0  0 0 0 0.5 0" type="matrix" in="shadowBlurOuter1"></feColorMatrix>
        </filter>
        <rect id="path-3" x="0" y="6" width="80" height="14" rx="7"></rect>
        <filter x="-8.1%" y="-39.3%" width="116.2%" height="192.9%" filterUnits="objectBoundingBox" id="filter-4">
            <feOffset dx="0" dy="1" in="SourceAlpha" result="shadowOffsetOuter1"></feOffset>
            <feGaussianBlur stdDeviation="2" in="shadowOffsetOuter1" result="shadowBlurOuter1"></feGaussianBlur>
            <feColorMatrix values="0 0 0 0 0   0 0 0 0 0   0 0 0 0 0  0 0 0 0.5 0" type="matrix" in="shadowBlurOuter1"></feColorMatrix>
        </filter>
    </defs>
    <g id="Volcanes-fallas" stroke="none" stroke-width="1" fill="none" fill-rule="evenodd">
        <g id="tronco_negro" transform="translate(4.000000, 1.000000)">
            <g id="ic_volcano_label-copy-18">
                <g id="Group-Copy-3">
                    <g id="Group-26-Copy-4" transform="translate(28.000000, 0.000000)" fill="#FF6D00" stroke="#FFFFFF" stroke-width="0.5">
                        <circle id="Oval-2-Copy-5" cx="12.5" cy="12.5" r="12.5"></circle>
                    </g>
                    <g id="Combined-Shape">
                        <use fill="black" fill-opacity="1" filter="url(#filter-2)" xlink:href="#path-1"></use>
                        <use fill="#263238" fill-rule="evenodd" xlink:href="#path-1"></use>
                    </g>
                    <g id="Rectangle-2-Copy-4">
                        <use fill="black" fill-opacity="1" filter="url(#filter-4)" xlink:href="#path-3"></use>
                        <use fill="#263238" fill-rule="evenodd" xlink:href="#path-3"></use>
                    </g>
                </g>
                <path d="M10.625,16 L9.4140625,16 L9.4140625,11.296875 L7.86328125,11.296875 L7.86328125,10.2890625 L12.1757812,10.2890625 L12.1757812,11.296875 L10.625,11.296875 L10.625,16 Z M14.265625,12.8242188 L14.65625,12.8242188 C15.0390644,12.8242188 15.3216137,12.7604173 15.5039062,12.6328125 C15.6861988,12.5052077 15.7773438,12.3046889 15.7773438,12.03125 C15.7773438,11.7604153 15.6842457,11.5677089 15.4980469,11.453125 C15.311848,11.3385411 15.0234395,11.28125 14.6328125,11.28125 L14.265625,11.28125 L14.265625,12.8242188 Z M14.265625,13.8085938 L14.265625,16 L13.0546875,16 L13.0546875,10.2890625 L14.71875,10.2890625 C15.4947955,10.2890625 16.0690086,10.4303371 16.4414062,10.7128906 C16.8138039,10.9954441 17,11.4244763 17,12 C17,12.3359392 16.907553,12.6347643 16.7226562,12.8964844 C16.5377595,13.1582044 16.2760434,13.3632805 15.9375,13.5117188 C16.7968793,14.7955793 17.3567695,15.6249981 17.6171875,16 L16.2734375,16 L14.9101562,13.8085938 L14.265625,13.8085938 Z M23.5195312,13.1367188 C23.5195312,14.082036 23.2851586,14.8085912 22.8164062,15.3164062 C22.3476539,15.8242213 21.6757856,16.078125 20.8007812,16.078125 C19.9257769,16.078125 19.2539086,15.8242213 18.7851562,15.3164062 C18.3164039,14.8085912 18.0820312,14.0794318 18.0820312,13.1289062 C18.0820312,12.1783807 18.3170549,11.4524765 18.7871094,10.9511719 C19.2571638,10.4498673 19.9309852,10.1992188 20.8085938,10.1992188 C21.6862023,10.1992188 22.3574196,10.4518204 22.8222656,10.9570312 C23.2871117,11.4622421 23.5195312,12.1887973 23.5195312,13.1367188 Z M19.3515625,13.1367188 C19.3515625,13.7747428 19.472655,14.2552067 19.7148438,14.578125 C19.9570325,14.9010433 20.319008,15.0625 20.8007812,15.0625 C21.7669319,15.0625 22.25,14.4205793 22.25,13.1367188 C22.25,11.850254 21.7695361,11.2070312 20.8085938,11.2070312 C20.3268205,11.2070312 19.9635429,11.369139 19.71875,11.6933594 C19.4739571,12.0175797 19.3515625,12.4986947 19.3515625,13.1367188 Z M29.7695312,16 L28.2304688,16 L25.7460938,11.6796875 L25.7109375,11.6796875 C25.7604169,12.4427121 25.7851562,12.9869775 25.7851562,13.3125 L25.7851562,16 L24.703125,16 L24.703125,10.2890625 L26.2304688,10.2890625 L28.7109375,14.5664062 L28.7382812,14.5664062 C28.6992186,13.824215 28.6796875,13.2994807 28.6796875,12.9921875 L28.6796875,10.2890625 L29.7695312,10.2890625 L29.7695312,16 Z M33.6328125,11.2148438 C33.1770811,11.2148438 32.82422,11.386066 32.5742188,11.7285156 C32.3242175,12.0709653 32.1992188,12.548174 32.1992188,13.1601562 C32.1992188,14.4336001 32.6770786,15.0703125 33.6328125,15.0703125 C34.0338562,15.0703125 34.5195284,14.9700531 35.0898438,14.7695312 L35.0898438,15.7851562 C34.6210914,15.9804697 34.0976591,16.078125 33.5195312,16.078125 C32.6887979,16.078125 32.0533876,15.8261744 31.6132812,15.3222656 C31.1731749,14.8183569 30.953125,14.0950568 30.953125,13.1523438 C30.953125,12.5585908 31.0611968,12.0384137 31.2773437,11.5917969 C31.4934907,11.1451801 31.8040344,10.8027356 32.2089844,10.5644531 C32.6139343,10.3261707 33.0885389,10.2070312 33.6328125,10.2070312 C34.1875028,10.2070312 34.7447889,10.3411445 35.3046875,10.609375 L34.9140625,11.59375 C34.7005198,11.492187 34.4856782,11.4036462 34.2695312,11.328125 C34.0533843,11.2526038 33.8411469,11.2148438 33.6328125,11.2148438 Z M41.328125,13.1367188 C41.328125,14.082036 41.0937523,14.8085912 40.625,15.3164062 C40.1562477,15.8242213 39.4843794,16.078125 38.609375,16.078125 C37.7343706,16.078125 37.0625023,15.8242213 36.59375,15.3164062 C36.1249977,14.8085912 35.890625,14.0794318 35.890625,13.1289062 C35.890625,12.1783807 36.1256487,11.4524765 36.5957031,10.9511719 C37.0657576,10.4498673 37.7395789,10.1992188 38.6171875,10.1992188 C39.4947961,10.1992188 40.1660133,10.4518204 40.6308594,10.9570312 C41.0957054,11.4622421 41.328125,12.1887973 41.328125,13.1367188 Z M37.1601562,13.1367188 C37.1601562,13.7747428 37.2812488,14.2552067 37.5234375,14.578125 C37.7656262,14.9010433 38.1276018,15.0625 38.609375,15.0625 C39.5755257,15.0625 40.0585938,14.4205793 40.0585938,13.1367188 C40.0585938,11.850254 39.5781298,11.2070312 38.6171875,11.2070312 C38.1354143,11.2070312 37.7721366,11.369139 37.5273438,11.6933594 C37.2825509,12.0175797 37.1601562,12.4986947 37.1601562,13.1367188 Z M49.65625,16 L48.1171875,16 L45.6328125,11.6796875 L45.5976563,11.6796875 C45.6471357,12.4427121 45.671875,12.9869775 45.671875,13.3125 L45.671875,16 L44.5898438,16 L44.5898438,10.2890625 L46.1171875,10.2890625 L48.5976563,14.5664062 L48.625,14.5664062 C48.5859373,13.824215 48.5664063,13.2994807 48.5664063,12.9921875 L48.5664063,10.2890625 L49.65625,10.2890625 L49.65625,16 Z M54.3828125,16 L51.09375,16 L51.09375,10.2890625 L54.3828125,10.2890625 L54.3828125,11.28125 L52.3046875,11.28125 L52.3046875,12.5351562 L54.2382812,12.5351562 L54.2382812,13.5273438 L52.3046875,13.5273438 L52.3046875,15 L54.3828125,15 L54.3828125,16 Z M57.7421875,12.7929688 L60.0078125,12.7929688 L60.0078125,15.7539062 C59.6406232,15.8736985 59.2949235,15.9576821 58.9707031,16.0058594 C58.6464828,16.0540367 58.3151059,16.078125 57.9765625,16.078125 C57.114579,16.078125 56.4563825,15.8248723 56.0019531,15.3183594 C55.5475238,14.8118464 55.3203125,14.0846402 55.3203125,13.1367188 C55.3203125,12.2148391 55.5839817,11.4960963 56.1113281,10.9804688 C56.6386745,10.4648412 57.369787,10.2070312 58.3046875,10.2070312 C58.8906279,10.2070312 59.4557264,10.3242176 60,10.5585938 L59.5976562,11.5273438 C59.1809875,11.3190094 58.7473981,11.2148438 58.296875,11.2148438 C57.7734349,11.2148438 57.3541682,11.3906232 57.0390625,11.7421875 C56.7239568,12.0937518 56.5664062,12.5664033 56.5664062,13.1601562 C56.5664062,13.779951 56.6933581,14.2532536 56.9472656,14.5800781 C57.2011731,14.9069027 57.5703101,15.0703125 58.0546875,15.0703125 C58.3072929,15.0703125 58.5638008,15.0442711 58.8242188,14.9921875 L58.8242188,13.8007812 L57.7421875,13.8007812 L57.7421875,12.7929688 Z M62.578125,12.8242188 L62.96875,12.8242188 C63.3515644,12.8242188 63.6341137,12.7604173 63.8164062,12.6328125 C63.9986988,12.5052077 64.0898438,12.3046889 64.0898438,12.03125 C64.0898438,11.7604153 63.9967457,11.5677089 63.8105469,11.453125 C63.624348,11.3385411 63.3359395,11.28125 62.9453125,11.28125 L62.578125,11.28125 L62.578125,12.8242188 Z M62.578125,13.8085938 L62.578125,16 L61.3671875,16 L61.3671875,10.2890625 L63.03125,10.2890625 C63.8072955,10.2890625 64.3815086,10.4303371 64.7539062,10.7128906 C65.1263039,10.9954441 65.3125,11.4244763 65.3125,12 C65.3125,12.3359392 65.220053,12.6347643 65.0351562,12.8964844 C64.8502595,13.1582044 64.5885434,13.3632805 64.25,13.5117188 C65.1093793,14.7955793 65.6692695,15.6249981 65.9296875,16 L64.5859375,16 L63.2226562,13.8085938 L62.578125,13.8085938 Z M71.8320312,13.1367188 C71.8320312,14.082036 71.5976586,14.8085912 71.1289062,15.3164062 C70.6601539,15.8242213 69.9882856,16.078125 69.1132812,16.078125 C68.2382769,16.078125 67.5664086,15.8242213 67.0976562,15.3164062 C66.6289039,14.8085912 66.3945312,14.0794318 66.3945312,13.1289062 C66.3945312,12.1783807 66.6295549,11.4524765 67.0996094,10.9511719 C67.5696638,10.4498673 68.2434852,10.1992188 69.1210938,10.1992188 C69.9987023,10.1992188 70.6699196,10.4518204 71.1347656,10.9570312 C71.5996117,11.4622421 71.8320312,12.1887973 71.8320312,13.1367188 Z M67.6640625,13.1367188 C67.6640625,13.7747428 67.785155,14.2552067 68.0273438,14.578125 C68.2695325,14.9010433 68.631508,15.0625 69.1132812,15.0625 C70.0794319,15.0625 70.5625,14.4205793 70.5625,13.1367188 C70.5625,11.850254 70.0820361,11.2070312 69.1210938,11.2070312 C68.6393205,11.2070312 68.2760429,11.369139 68.03125,11.6933594 C67.7864571,12.0175797 67.6640625,12.4986947 67.6640625,13.1367188 Z" id="tronco-negro" fill="#FFFFFF"></path>
            </g>
        </g>
    </g>
</svg>