<?xml version="1.0" encoding="UTF-8"?>
<svg width="88px" height="27px" viewBox="0 0 88 27" version="1.1" xmlns="http://www.w3.org/2000/svg" xmlns:xlink="http://www.w3.org/1999/xlink">
    <!-- Generator: Sketch 48.2 (47327) - http://www.bohemiancoding.com/sketch -->
    <title>tucurrique</title>
    <desc>Created with Sketch.</desc>
    <defs>
        <path d="M30.6751405,6 C29.6123291,7.89393294 29,10.1192398 29,12.5 C29,15.3140148 29.8554731,17.9108487 31.2991578,20 L9,20 C5.13400675,20 2,16.8659932 2,13 C2,9.13400675 5.13400675,6 9,6 L30.6751405,6 Z M50.3248595,6 L72,6 C75.8659932,6 79,9.13400675 79,13 C79,16.8659932 75.8659932,20 72,20 L49.7008422,20 C51.1445269,17.9108487 52,15.3140148 52,12.5 C52,10.1192398 51.3876709,7.89393294 50.3248595,6 Z" id="path-1"></path>
        <filter x="-8.4%" y="-39.3%" width="116.9%" height="192.9%" filterUnits="objectBoundingBox" id="filter-2">
            <feOffset dx="0" dy="1" in="SourceAlpha" result="shadowOffsetOuter1"></feOffset>
            <feGaussianBlur stdDeviation="2" in="shadowOffsetOuter1" result="shadowBlurOuter1"></feGaussianBlur>
            <feColorMatrix values="0 0 0 0 0   0 0 0 0 0   0 0 0 0 0  0 0 0 0.5 0" type="matrix" in="shadowBlurOuter1"></feColorMatrix>
        </filter>
        <rect id="path-3" x="0" y="6" width="80" height="14" rx="7"></rect>
        <filter x="-8.1%" y="-39.3%" width="116.2%" height="192.9%" filterUnits="objectBoundingBox" id="filter-4">
            <feOffset dx="0" dy="1" in="SourceAlpha" result="shadowOffsetOuter1"></feOffset>
            <feGaussianBlur stdDeviation="2" in="shadowOffsetOuter1" result="shadowBlurOuter1"></feGaussianBlur>
            <feColorMatrix values="0 0 0 0 0   0 0 0 0 0   0 0 0 0 0  0 0 0 0.5 0" type="matrix" in="shadowBlurOuter1"></feColorMatrix>
        </filter>
    </defs>
    <g id="Volcanes-fallas" stroke="none" stroke-width="1" fill="none" fill-rule="evenodd">
        <g id="tucurrique" transform="translate(4.000000, 1.000000)">
            <g id="ic_volcano_label-copy-18">
                <g id="Group-Copy-3">
                    <g id="Group-26-Copy-4" transform="translate(28.000000, 0.000000)" fill="#FF6D00" stroke="#FFFFFF" stroke-width="0.5">
                        <circle id="Oval-2-Copy-5" cx="12.5" cy="12.5" r="12.5"></circle>
                    </g>
                    <g id="Combined-Shape">
                        <use fill="black" fill-opacity="1" filter="url(#filter-2)" xlink:href="#path-1"></use>
                        <use fill="#263238" fill-rule="evenodd" xlink:href="#path-1"></use>
                    </g>
                    <g id="Rectangle-2-Copy-4">
                        <use fill="black" fill-opacity="1" filter="url(#filter-4)" xlink:href="#path-3"></use>
                        <use fill="#263238" fill-rule="evenodd" xlink:href="#path-3"></use>
                    </g>
                </g>
                <path d="M16.9570312,16 L15.7460938,16 L15.7460938,11.296875 L14.1953125,11.296875 L14.1953125,10.2890625 L18.5078125,10.2890625 L18.5078125,11.296875 L16.9570312,11.296875 L16.9570312,16 Z M24.0351563,10.2890625 L24.0351563,13.984375 C24.0351563,14.4062521 23.9407562,14.7760401 23.7519531,15.09375 C23.5631501,15.4114599 23.2903664,15.6549471 22.9335938,15.8242188 C22.5768211,15.9934904 22.1549504,16.078125 21.6679688,16.078125 C20.9335901,16.078125 20.3632833,15.8899758 19.9570312,15.5136719 C19.5507792,15.1373679 19.3476562,14.6223991 19.3476562,13.96875 L19.3476562,10.2890625 L20.5546875,10.2890625 L20.5546875,13.7851562 C20.5546875,14.2252626 20.6432283,14.5481761 20.8203125,14.7539062 C20.9973967,14.9596364 21.2903625,15.0625 21.6992188,15.0625 C22.0950541,15.0625 22.3821606,14.9589854 22.5605469,14.7519531 C22.7389332,14.5449208 22.828125,14.2200543 22.828125,13.7773438 L22.828125,10.2890625 L24.0351563,10.2890625 Z M27.859375,11.2148438 C27.4036436,11.2148438 27.0507825,11.386066 26.8007812,11.7285156 C26.55078,12.0709653 26.4257812,12.548174 26.4257812,13.1601562 C26.4257812,14.4336001 26.9036411,15.0703125 27.859375,15.0703125 C28.2604187,15.0703125 28.7460909,14.9700531 29.3164062,14.7695312 L29.3164062,15.7851562 C28.8476539,15.9804697 28.3242216,16.078125 27.7460938,16.078125 C26.9153604,16.078125 26.2799501,15.8261744 25.8398438,15.3222656 C25.3997374,14.8183569 25.1796875,14.0950568 25.1796875,13.1523438 C25.1796875,12.5585908 25.2877593,12.0384137 25.5039062,11.5917969 C25.7200532,11.1451801 26.0305969,10.8027356 26.4355469,10.5644531 C26.8404968,10.3261707 27.3151014,10.2070312 27.859375,10.2070312 C28.4140653,10.2070312 28.9713514,10.3411445 29.53125,10.609375 L29.140625,11.59375 C28.9270823,11.492187 28.7122407,11.4036462 28.4960938,11.328125 C28.2799468,11.2526038 28.0677094,11.2148438 27.859375,11.2148438 Z M35.1796875,10.2890625 L35.1796875,13.984375 C35.1796875,14.4062521 35.0852874,14.7760401 34.8964844,15.09375 C34.7076813,15.4114599 34.4348976,15.6549471 34.078125,15.8242188 C33.7213524,15.9934904 33.2994816,16.078125 32.8125,16.078125 C32.0781213,16.078125 31.5078145,15.8899758 31.1015625,15.5136719 C30.6953105,15.1373679 30.4921875,14.6223991 30.4921875,13.96875 L30.4921875,10.2890625 L31.6992188,10.2890625 L31.6992188,13.7851562 C31.6992188,14.2252626 31.7877595,14.5481761 31.9648438,14.7539062 C32.141928,14.9596364 32.4348938,15.0625 32.84375,15.0625 C33.2395853,15.0625 33.5266918,14.9589854 33.7050781,14.7519531 C33.8834644,14.5449208 33.9726562,14.2200543 33.9726562,13.7773438 L33.9726562,10.2890625 L35.1796875,10.2890625 Z M37.7890625,12.8242188 L38.1796875,12.8242188 C38.5625019,12.8242188 38.8450512,12.7604173 39.0273438,12.6328125 C39.2096363,12.5052077 39.3007812,12.3046889 39.3007812,12.03125 C39.3007812,11.7604153 39.2076832,11.5677089 39.0214844,11.453125 C38.8352855,11.3385411 38.546877,11.28125 38.15625,11.28125 L37.7890625,11.28125 L37.7890625,12.8242188 Z M37.7890625,13.8085938 L37.7890625,16 L36.578125,16 L36.578125,10.2890625 L38.2421875,10.2890625 C39.018233,10.2890625 39.5924461,10.4303371 39.9648438,10.7128906 C40.3372414,10.9954441 40.5234375,11.4244763 40.5234375,12 C40.5234375,12.3359392 40.4309905,12.6347643 40.2460938,12.8964844 C40.061197,13.1582044 39.7994809,13.3632805 39.4609375,13.5117188 C40.3203168,14.7955793 40.880207,15.6249981 41.140625,16 L39.796875,16 L38.4335938,13.8085938 L37.7890625,13.8085938 Z M43.0703125,12.8242188 L43.4609375,12.8242188 C43.8437519,12.8242188 44.1263012,12.7604173 44.3085938,12.6328125 C44.4908863,12.5052077 44.5820312,12.3046889 44.5820312,12.03125 C44.5820312,11.7604153 44.4889332,11.5677089 44.3027344,11.453125 C44.1165355,11.3385411 43.828127,11.28125 43.4375,11.28125 L43.0703125,11.28125 L43.0703125,12.8242188 Z M43.0703125,13.8085938 L43.0703125,16 L41.859375,16 L41.859375,10.2890625 L43.5234375,10.2890625 C44.299483,10.2890625 44.8736961,10.4303371 45.2460938,10.7128906 C45.6184914,10.9954441 45.8046875,11.4244763 45.8046875,12 C45.8046875,12.3359392 45.7122405,12.6347643 45.5273438,12.8964844 C45.342447,13.1582044 45.0807309,13.3632805 44.7421875,13.5117188 C45.6015668,14.7955793 46.161457,15.6249981 46.421875,16 L45.078125,16 L43.7148438,13.8085938 L43.0703125,13.8085938 Z M47.140625,16 L47.140625,10.2890625 L48.3515625,10.2890625 L48.3515625,16 L47.140625,16 Z M54.9726562,13.1367188 C54.9726562,13.8085971 54.8535168,14.3717425 54.6152344,14.8261719 C54.3769519,15.2806012 54.0273461,15.6132802 53.5664062,15.8242188 L54.9414062,17.359375 L53.390625,17.359375 L52.34375,16.078125 L52.2539062,16.078125 C51.3789019,16.078125 50.7070336,15.8242213 50.2382812,15.3164062 C49.7695289,14.8085912 49.5351562,14.0794318 49.5351562,13.1289062 C49.5351562,12.1783807 49.7701799,11.4524765 50.2402344,10.9511719 C50.7102888,10.4498673 51.3841102,10.1992188 52.2617188,10.1992188 C53.1393273,10.1992188 53.8105446,10.4518204 54.2753906,10.9570312 C54.7402367,11.4622421 54.9726562,12.1887973 54.9726562,13.1367188 Z M50.8046875,13.1367188 C50.8046875,13.7747428 50.92578,14.2552067 51.1679688,14.578125 C51.4101575,14.9010433 51.772133,15.0625 52.2539062,15.0625 C53.2200569,15.0625 53.703125,14.4205793 53.703125,13.1367188 C53.703125,11.850254 53.2226611,11.2070312 52.2617188,11.2070312 C51.7799455,11.2070312 51.4166679,11.369139 51.171875,11.6933594 C50.9270821,12.0175797 50.8046875,12.4986947 50.8046875,13.1367188 Z M60.8046875,10.2890625 L60.8046875,13.984375 C60.8046875,14.4062521 60.7102874,14.7760401 60.5214844,15.09375 C60.3326813,15.4114599 60.0598976,15.6549471 59.703125,15.8242188 C59.3463524,15.9934904 58.9244816,16.078125 58.4375,16.078125 C57.7031213,16.078125 57.1328145,15.8899758 56.7265625,15.5136719 C56.3203105,15.1373679 56.1171875,14.6223991 56.1171875,13.96875 L56.1171875,10.2890625 L57.3242188,10.2890625 L57.3242188,13.7851562 C57.3242188,14.2252626 57.4127595,14.5481761 57.5898438,14.7539062 C57.766928,14.9596364 58.0598938,15.0625 58.46875,15.0625 C58.8645853,15.0625 59.1516918,14.9589854 59.3300781,14.7519531 C59.5084644,14.5449208 59.5976562,14.2200543 59.5976562,13.7773438 L59.5976562,10.2890625 L60.8046875,10.2890625 Z M65.4921875,16 L62.203125,16 L62.203125,10.2890625 L65.4921875,10.2890625 L65.4921875,11.28125 L63.4140625,11.28125 L63.4140625,12.5351562 L65.3476562,12.5351562 L65.3476562,13.5273438 L63.4140625,13.5273438 L63.4140625,15 L65.4921875,15 L65.4921875,16 Z" id="TUCURRIQUE" fill="#FFFFFF"></path>
            </g>
        </g>
    </g>
</svg>