<?xml version="1.0" encoding="UTF-8"?>
<svg width="65px" height="27px" viewBox="0 0 65 27" version="1.1" xmlns="http://www.w3.org/2000/svg" xmlns:xlink="http://www.w3.org/1999/xlink">
    <!-- Generator: Sketch 48.2 (47327) - http://www.bohemiancoding.com/sketch -->
    <title>tulin</title>
    <desc>Created with Sketch.</desc>
    <defs>
        <path d="M17.8208049,6 C16.6655751,7.89393294 16,10.1192398 16,12.5 C16,15.3140148 16.9298621,17.9108487 18.4990845,20 L7,20 C3.13400675,20 4.73447626e-16,16.8659932 0,13 C-4.73447626e-16,9.13400675 3.13400675,6 7,6 L17.8208049,6 Z M39.1791951,6 L50,6 C53.8659932,6 57,9.13400675 57,13 C57,16.8659932 53.8659932,20 50,20 L38.5009155,20 C40.0701379,17.9108487 41,15.3140148 41,12.5 C41,10.1192398 40.3344249,7.89393294 39.1791951,6 Z" id="path-1"></path>
        <filter x="-11.4%" y="-39.3%" width="122.8%" height="192.9%" filterUnits="objectBoundingBox" id="filter-2">
            <feOffset dx="0" dy="1" in="SourceAlpha" result="shadowOffsetOuter1"></feOffset>
            <feGaussianBlur stdDeviation="2" in="shadowOffsetOuter1" result="shadowBlurOuter1"></feGaussianBlur>
            <feColorMatrix values="0 0 0 0 0   0 0 0 0 0   0 0 0 0 0  0 0 0 0.5 0" type="matrix" in="shadowBlurOuter1"></feColorMatrix>
        </filter>
    </defs>
    <g id="Volcanes-fallas" stroke="none" stroke-width="1" fill="none" fill-rule="evenodd">
        <g id="tulin" transform="translate(4.000000, 1.000000)">
            <g id="ic_volcano_label-copy-19">
                <g id="Group-Copy-3" transform="translate(16.000000, 0.000000)">
                    <g id="Group-26-Copy-4"></g>
                </g>
                <circle id="Oval-2-Copy-5" stroke="#FFFFFF" stroke-width="0.5" fill="#FF6D00" cx="28.5" cy="12.5" r="12.5"></circle>
                <g id="Combined-Shape">
                    <use fill="black" fill-opacity="1" filter="url(#filter-2)" xlink:href="#path-1"></use>
                    <use fill="#263238" fill-rule="evenodd" xlink:href="#path-1"></use>
                </g>
                <rect id="Rectangle-2-Copy-4" fill="#263238" x="0" y="6" width="57" height="14" rx="7"></rect>
            </g>
            <path d="M19.2460938,16 L18.0351562,16 L18.0351562,11.296875 L16.484375,11.296875 L16.484375,10.2890625 L20.796875,10.2890625 L20.796875,11.296875 L19.2460938,11.296875 L19.2460938,16 Z M26.3242188,10.2890625 L26.3242188,13.984375 C26.3242188,14.4062521 26.2298187,14.7760401 26.0410156,15.09375 C25.8522126,15.4114599 25.5794289,15.6549471 25.2226562,15.8242188 C24.8658836,15.9934904 24.4440129,16.078125 23.9570312,16.078125 C23.2226526,16.078125 22.6523458,15.8899758 22.2460938,15.5136719 C21.8398417,15.1373679 21.6367188,14.6223991 21.6367188,13.96875 L21.6367188,10.2890625 L22.84375,10.2890625 L22.84375,13.7851562 C22.84375,14.2252626 22.9322908,14.5481761 23.109375,14.7539062 C23.2864592,14.9596364 23.579425,15.0625 23.9882812,15.0625 C24.3841166,15.0625 24.6712231,14.9589854 24.8496094,14.7519531 C25.0279957,14.5449208 25.1171875,14.2200543 25.1171875,13.7773438 L25.1171875,10.2890625 L26.3242188,10.2890625 Z M27.7226562,16 L27.7226562,10.2890625 L28.9335938,10.2890625 L28.9335938,15 L31.25,15 L31.25,16 L27.7226562,16 Z M32.2421875,16 L32.2421875,10.2890625 L33.453125,10.2890625 L33.453125,16 L32.2421875,16 Z M32.1757812,9.83203125 L32.1757812,9.7265625 C32.6237002,9.20572656 32.9296867,8.8138034 33.09375,8.55078125 L34.4296875,8.55078125 L34.4296875,8.6328125 C34.2942702,8.76822984 34.0631527,8.96939971 33.7363281,9.23632812 C33.4095036,9.50325654 33.1536468,9.70182227 32.96875,9.83203125 L32.1757812,9.83203125 Z M39.9570312,16 L38.4179688,16 L35.9335938,11.6796875 L35.8984375,11.6796875 C35.9479169,12.4427121 35.9726562,12.9869775 35.9726562,13.3125 L35.9726562,16 L34.890625,16 L34.890625,10.2890625 L36.4179688,10.2890625 L38.8984375,14.5664062 L38.9257812,14.5664062 C38.8867186,13.824215 38.8671875,13.2994807 38.8671875,12.9921875 L38.8671875,10.2890625 L39.9570312,10.2890625 L39.9570312,16 Z" id="tulín" fill="#FFFFFF"></path>
        </g>
    </g>
</svg>