<?xml version="1.0" encoding="UTF-8"?>
<svg width="65px" height="27px" viewBox="0 0 65 27" version="1.1" xmlns="http://www.w3.org/2000/svg" xmlns:xlink="http://www.w3.org/1999/xlink">
    <!-- Generator: Sketch 48.2 (47327) - http://www.bohemiancoding.com/sketch -->
    <title>turrialba</title>
    <desc>Created with Sketch.</desc>
    <defs>
        <path d="M17.8208049,6 C16.6655751,7.89393294 16,10.1192398 16,12.5 C16,15.3140148 16.9298621,17.9108487 18.4990845,20 L7,20 C3.13400675,20 4.73447626e-16,16.8659932 0,13 C-4.73447626e-16,9.13400675 3.13400675,6 7,6 L17.8208049,6 Z M39.1791951,6 L50,6 C53.8659932,6 57,9.13400675 57,13 C57,16.8659932 53.8659932,20 50,20 L38.5009155,20 C40.0701379,17.9108487 41,15.3140148 41,12.5 C41,10.1192398 40.3344249,7.89393294 39.1791951,6 Z" id="path-1"></path>
        <filter x="-11.4%" y="-39.3%" width="122.8%" height="192.9%" filterUnits="objectBoundingBox" id="filter-2">
            <feOffset dx="0" dy="1" in="SourceAlpha" result="shadowOffsetOuter1"></feOffset>
            <feGaussianBlur stdDeviation="2" in="shadowOffsetOuter1" result="shadowBlurOuter1"></feGaussianBlur>
            <feColorMatrix values="0 0 0 0 0   0 0 0 0 0   0 0 0 0 0  0 0 0 0.5 0" type="matrix" in="shadowBlurOuter1"></feColorMatrix>
        </filter>
    </defs>
    <g id="Volcanes-fallas" stroke="none" stroke-width="1" fill="none" fill-rule="evenodd">
        <g id="turrialba" transform="translate(4.000000, 1.000000)">
            <g id="ic_volcano_label-copy-19">
                <g id="Group-Copy-3" transform="translate(16.000000, 0.000000)">
                    <g id="Group-26-Copy-4"></g>
                </g>
                <circle id="Oval-2-Copy-5" stroke="#FFFFFF" stroke-width="0.5" fill="#FF6D00" cx="28.5" cy="12.5" r="12.5"></circle>
                <g id="Combined-Shape">
                    <use fill="black" fill-opacity="1" filter="url(#filter-2)" xlink:href="#path-1"></use>
                    <use fill="#263238" fill-rule="evenodd" xlink:href="#path-1"></use>
                </g>
                <rect id="Rectangle-2-Copy-4" fill="#263238" x="0" y="6" width="57" height="14" rx="7"></rect>
            </g>
            <path d="M9.08984375,16 L7.87890625,16 L7.87890625,11.296875 L6.328125,11.296875 L6.328125,10.2890625 L10.640625,10.2890625 L10.640625,11.296875 L9.08984375,11.296875 L9.08984375,16 Z M16.1679688,10.2890625 L16.1679688,13.984375 C16.1679688,14.4062521 16.0735687,14.7760401 15.8847656,15.09375 C15.6959626,15.4114599 15.4231789,15.6549471 15.0664062,15.8242188 C14.7096336,15.9934904 14.2877629,16.078125 13.8007812,16.078125 C13.0664026,16.078125 12.4960958,15.8899758 12.0898438,15.5136719 C11.6835917,15.1373679 11.4804688,14.6223991 11.4804688,13.96875 L11.4804688,10.2890625 L12.6875,10.2890625 L12.6875,13.7851562 C12.6875,14.2252626 12.7760408,14.5481761 12.953125,14.7539062 C13.1302092,14.9596364 13.423175,15.0625 13.8320312,15.0625 C14.2278666,15.0625 14.5149731,14.9589854 14.6933594,14.7519531 C14.8717457,14.5449208 14.9609375,14.2200543 14.9609375,13.7773438 L14.9609375,10.2890625 L16.1679688,10.2890625 Z M18.7773438,12.8242188 L19.1679688,12.8242188 C19.5507832,12.8242188 19.8333324,12.7604173 20.015625,12.6328125 C20.1979176,12.5052077 20.2890625,12.3046889 20.2890625,12.03125 C20.2890625,11.7604153 20.1959645,11.5677089 20.0097656,11.453125 C19.8235668,11.3385411 19.5351582,11.28125 19.1445312,11.28125 L18.7773438,11.28125 L18.7773438,12.8242188 Z M18.7773438,13.8085938 L18.7773438,16 L17.5664062,16 L17.5664062,10.2890625 L19.2304688,10.2890625 C20.0065143,10.2890625 20.5807273,10.4303371 20.953125,10.7128906 C21.3255227,10.9954441 21.5117188,11.4244763 21.5117188,12 C21.5117188,12.3359392 21.4192718,12.6347643 21.234375,12.8964844 C21.0494782,13.1582044 20.7877621,13.3632805 20.4492188,13.5117188 C21.308598,14.7955793 21.8684883,15.6249981 22.1289062,16 L20.7851562,16 L19.421875,13.8085938 L18.7773438,13.8085938 Z M24.0585938,12.8242188 L24.4492188,12.8242188 C24.8320332,12.8242188 25.1145824,12.7604173 25.296875,12.6328125 C25.4791676,12.5052077 25.5703125,12.3046889 25.5703125,12.03125 C25.5703125,11.7604153 25.4772145,11.5677089 25.2910156,11.453125 C25.1048168,11.3385411 24.8164082,11.28125 24.4257812,11.28125 L24.0585938,11.28125 L24.0585938,12.8242188 Z M24.0585938,13.8085938 L24.0585938,16 L22.8476562,16 L22.8476562,10.2890625 L24.5117188,10.2890625 C25.2877643,10.2890625 25.8619773,10.4303371 26.234375,10.7128906 C26.6067727,10.9954441 26.7929688,11.4244763 26.7929688,12 C26.7929688,12.3359392 26.7005218,12.6347643 26.515625,12.8964844 C26.3307282,13.1582044 26.0690121,13.3632805 25.7304688,13.5117188 C26.589848,14.7955793 27.1497383,15.6249981 27.4101562,16 L26.0664062,16 L24.703125,13.8085938 L24.0585938,13.8085938 Z M28.1289062,16 L28.1289062,10.2890625 L29.3398437,10.2890625 L29.3398437,16 L28.1289062,16 Z M34.2734375,16 L33.859375,14.640625 L31.7773438,14.640625 L31.3632812,16 L30.0585938,16 L32.0742188,10.265625 L33.5546875,10.265625 L35.578125,16 L34.2734375,16 Z M33.5703125,13.625 C33.1874981,12.393223 32.9720054,11.6966154 32.9238281,11.5351562 C32.8756508,11.3736971 32.8411459,11.2460942 32.8203125,11.1523438 C32.7343746,11.4856787 32.4882833,12.3098893 32.0820312,13.625 L33.5703125,13.625 Z M36.296875,16 L36.296875,10.2890625 L37.5078125,10.2890625 L37.5078125,15 L39.8242188,15 L39.8242188,16 L36.296875,16 Z M40.8164062,10.2890625 L42.59375,10.2890625 C43.4036499,10.2890625 43.9915346,10.4042957 44.3574219,10.6347656 C44.7233091,10.8652355 44.90625,11.2317683 44.90625,11.734375 C44.90625,12.0755225 44.8261727,12.3554677 44.6660156,12.5742188 C44.5058586,12.7929698 44.2929701,12.9244789 44.0273438,12.96875 L44.0273438,13.0078125 C44.3893247,13.0885421 44.6503898,13.2395822 44.8105469,13.4609375 C44.9707039,13.6822928 45.0507812,13.9765607 45.0507812,14.34375 C45.0507812,14.8645859 44.8626321,15.2708319 44.4863281,15.5625 C44.1100242,15.8541681 43.5989616,16 42.953125,16 L40.8164062,16 L40.8164062,10.2890625 Z M42.0273438,12.5507812 L42.7304688,12.5507812 C43.0585954,12.5507812 43.2962232,12.5000005 43.4433594,12.3984375 C43.5904955,12.2968745 43.6640625,12.1289074 43.6640625,11.8945312 C43.6640625,11.6757802 43.5839852,11.5188807 43.4238281,11.4238281 C43.2636711,11.3287756 43.0104184,11.28125 42.6640625,11.28125 L42.0273438,11.28125 L42.0273438,12.5507812 Z M42.0273438,13.5117188 L42.0273438,15 L42.8164062,15 C43.1497412,15 43.3958325,14.9361986 43.5546875,14.8085938 C43.7135425,14.6809889 43.7929688,14.4856784 43.7929688,14.2226562 C43.7929688,13.7486955 43.4544305,13.5117188 42.7773438,13.5117188 L42.0273438,13.5117188 Z M49.5273438,16 L49.1132812,14.640625 L47.03125,14.640625 L46.6171875,16 L45.3125,16 L47.328125,10.265625 L48.8085938,10.265625 L50.8320312,16 L49.5273438,16 Z M48.8242187,13.625 C48.4414043,12.393223 48.2259117,11.6966154 48.1777344,11.5351562 C48.1295571,11.3736971 48.0950522,11.2460942 48.0742187,11.1523438 C47.9882808,11.4856787 47.7421895,12.3098893 47.3359375,13.625 L48.8242187,13.625 Z" fill="#FFFFFF"></path>
        </g>
    </g>
</svg>