<?xml version="1.0" encoding="UTF-8"?>
<svg width="124px" height="27px" viewBox="0 0 124 27" version="1.1" xmlns="http://www.w3.org/2000/svg" xmlns:xlink="http://www.w3.org/1999/xlink">
    <!-- Generator: Sketch 48.2 (47327) - http://www.bohemiancoding.com/sketch -->
    <title>viejo_agua</title>
    <desc>Created with Sketch.</desc>
    <defs>
        <path d="M49.6023083,6 C48.5857061,7.89393294 48,10.1192398 48,12.5 C48,15.3140148 48.8182786,17.9108487 50.1991944,20 L9,20 C5.13400675,20 2,16.8659932 2,13 C2,9.13400675 5.13400675,6 9,6 L49.6023083,6 Z M68.3976917,6 L109,6 C112.865993,6 116,9.13400675 116,13 C116,16.8659932 112.865993,20 109,20 L67.8008056,20 C69.1817214,17.9108487 70,15.3140148 70,12.5 C70,10.1192398 69.4142939,7.89393294 68.3976917,6 Z" id="path-1"></path>
        <filter x="-5.7%" y="-39.3%" width="111.4%" height="192.9%" filterUnits="objectBoundingBox" id="filter-2">
            <feOffset dx="0" dy="1" in="SourceAlpha" result="shadowOffsetOuter1"></feOffset>
            <feGaussianBlur stdDeviation="2" in="shadowOffsetOuter1" result="shadowBlurOuter1"></feGaussianBlur>
            <feColorMatrix values="0 0 0 0 0   0 0 0 0 0   0 0 0 0 0  0 0 0 0.5 0" type="matrix" in="shadowBlurOuter1"></feColorMatrix>
        </filter>
        <rect id="path-3" x="0" y="6" width="116" height="14" rx="7"></rect>
        <filter x="-5.6%" y="-39.3%" width="111.2%" height="192.9%" filterUnits="objectBoundingBox" id="filter-4">
            <feOffset dx="0" dy="1" in="SourceAlpha" result="shadowOffsetOuter1"></feOffset>
            <feGaussianBlur stdDeviation="2" in="shadowOffsetOuter1" result="shadowBlurOuter1"></feGaussianBlur>
            <feColorMatrix values="0 0 0 0 0   0 0 0 0 0   0 0 0 0 0  0 0 0 0.5 0" type="matrix" in="shadowBlurOuter1"></feColorMatrix>
        </filter>
    </defs>
    <g id="Volcanes-fallas" stroke="none" stroke-width="1" fill="none" fill-rule="evenodd">
        <g id="viejo_agua" transform="translate(4.000000, 1.000000)">
            <g id="ic_volcano_label-copy-18">
                <g id="Group-Copy-3">
                    <g id="Group-26-Copy-4" transform="translate(47.000000, 0.000000)" fill="#FF6D00" stroke="#FFFFFF" stroke-width="0.5">
                        <circle id="Oval-2-Copy-5" cx="12.5" cy="12.5" r="12.5"></circle>
                    </g>
                    <g id="Combined-Shape">
                        <use fill="black" fill-opacity="1" filter="url(#filter-2)" xlink:href="#path-1"></use>
                        <use fill="#263238" fill-rule="evenodd" xlink:href="#path-1"></use>
                    </g>
                    <g id="Rectangle-2-Copy-4">
                        <use fill="black" fill-opacity="1" filter="url(#filter-4)" xlink:href="#path-3"></use>
                        <use fill="#263238" fill-rule="evenodd" xlink:href="#path-3"></use>
                    </g>
                </g>
                <path d="M22.1894531,10.2890625 L23.4121094,10.2890625 L21.4707031,16 L20.1503906,16 L18.2128906,10.2890625 L19.4355469,10.2890625 L20.5097656,13.6875 C20.5696618,13.8880218 20.6315101,14.1217435 20.6953125,14.3886719 C20.7591149,14.6556003 20.798828,14.8411453 20.8144531,14.9453125 C20.8430991,14.705728 20.9407544,14.2864613 21.1074219,13.6875 L22.1894531,10.2890625 Z M24.1308594,16 L24.1308594,10.2890625 L25.3417969,10.2890625 L25.3417969,16 L24.1308594,16 Z M30.0683594,16 L26.7792969,16 L26.7792969,10.2890625 L30.0683594,10.2890625 L30.0683594,11.28125 L27.9902344,11.28125 L27.9902344,12.5351562 L29.9238281,12.5351562 L29.9238281,13.5273438 L27.9902344,13.5273438 L27.9902344,15 L30.0683594,15 L30.0683594,16 Z M31.1425781,17.6796875 C30.8691393,17.6796875 30.6308604,17.651042 30.4277344,17.59375 L30.4277344,16.5859375 C30.6360687,16.6380211 30.826171,16.6640625 30.9980469,16.6640625 C31.2636732,16.6640625 31.4537755,16.581381 31.5683594,16.4160156 C31.6829433,16.2506502 31.7402344,15.9921893 31.7402344,15.640625 L31.7402344,10.2890625 L32.9511719,10.2890625 L32.9511719,15.6328125 C32.9511719,16.2994825 32.7988296,16.8072899 32.4941406,17.15625 C32.1894516,17.5052101 31.7389353,17.6796875 31.1425781,17.6796875 Z M39.5722656,13.1367188 C39.5722656,14.082036 39.337893,14.8085912 38.8691406,15.3164062 C38.4003883,15.8242213 37.72852,16.078125 36.8535156,16.078125 C35.9785112,16.078125 35.306643,15.8242213 34.8378906,15.3164062 C34.3691383,14.8085912 34.1347656,14.0794318 34.1347656,13.1289062 C34.1347656,12.1783807 34.3697893,11.4524765 34.8398438,10.9511719 C35.3098982,10.4498673 35.9837196,10.1992188 36.8613281,10.1992188 C37.7389367,10.1992188 38.4101539,10.4518204 38.875,10.9570312 C39.3398461,11.4622421 39.5722656,12.1887973 39.5722656,13.1367188 Z M35.4042969,13.1367188 C35.4042969,13.7747428 35.5253894,14.2552067 35.7675781,14.578125 C36.0097668,14.9010433 36.3717424,15.0625 36.8535156,15.0625 C37.8196663,15.0625 38.3027344,14.4205793 38.3027344,13.1367188 C38.3027344,11.850254 37.8222704,11.2070312 36.8613281,11.2070312 C36.3795549,11.2070312 36.0162773,11.369139 35.7714844,11.6933594 C35.5266915,12.0175797 35.4042969,12.4986947 35.4042969,13.1367188 Z M40.2753906,14.34375 L40.2753906,13.3671875 L42.3730469,13.3671875 L42.3730469,14.34375 L40.2753906,14.34375 Z M46.8261719,16 L46.4121094,14.640625 L44.3300781,14.640625 L43.9160156,16 L42.6113281,16 L44.6269531,10.265625 L46.1074219,10.265625 L48.1308594,16 L46.8261719,16 Z M46.1230469,13.625 C45.7402325,12.393223 45.5247398,11.6966154 45.4765625,11.5351562 C45.4283852,11.3736971 45.3938803,11.2460942 45.3730469,11.1523438 C45.2871089,11.4856787 45.0410177,12.3098893 44.6347656,13.625 L46.1230469,13.625 Z M50.8574219,12.7929688 L53.1230469,12.7929688 L53.1230469,15.7539062 C52.7558575,15.8736985 52.4101579,15.9576821 52.0859375,16.0058594 C51.7617171,16.0540367 51.4303402,16.078125 51.0917969,16.078125 C50.2298134,16.078125 49.5716169,15.8248723 49.1171875,15.3183594 C48.6627581,14.8118464 48.4355469,14.0846402 48.4355469,13.1367188 C48.4355469,12.2148391 48.6992161,11.4960963 49.2265625,10.9804688 C49.7539089,10.4648412 50.4850214,10.2070312 51.4199219,10.2070312 C52.0058623,10.2070312 52.5709608,10.3242176 53.1152344,10.5585938 L52.7128906,11.5273438 C52.2962219,11.3190094 51.8626325,11.2148438 51.4121094,11.2148438 C50.8886693,11.2148438 50.4694026,11.3906232 50.1542969,11.7421875 C49.8391911,12.0937518 49.6816406,12.5664033 49.6816406,13.1601562 C49.6816406,13.779951 49.8085925,14.2532536 50.0625,14.5800781 C50.3164075,14.9069027 50.6855445,15.0703125 51.1699219,15.0703125 C51.4225273,15.0703125 51.6790352,15.0442711 51.9394531,14.9921875 L51.9394531,13.8007812 L50.8574219,13.8007812 L50.8574219,12.7929688 Z M59.1308594,10.2890625 L59.1308594,13.984375 C59.1308594,14.4062521 59.0364593,14.7760401 58.8476562,15.09375 C58.6588532,15.4114599 58.3860695,15.6549471 58.0292969,15.8242188 C57.6725243,15.9934904 57.2506535,16.078125 56.7636719,16.078125 C56.0292932,16.078125 55.4589864,15.8899758 55.0527344,15.5136719 C54.6464823,15.1373679 54.4433594,14.6223991 54.4433594,13.96875 L54.4433594,10.2890625 L55.6503906,10.2890625 L55.6503906,13.7851562 C55.6503906,14.2252626 55.7389314,14.5481761 55.9160156,14.7539062 C56.0930998,14.9596364 56.3860657,15.0625 56.7949219,15.0625 C57.1907572,15.0625 57.4778637,14.9589854 57.65625,14.7519531 C57.8346363,14.5449208 57.9238281,14.2200543 57.9238281,13.7773438 L57.9238281,10.2890625 L59.1308594,10.2890625 Z M63.9472656,16 L63.5332031,14.640625 L61.4511719,14.640625 L61.0371094,16 L59.7324219,16 L61.7480469,10.265625 L63.2285156,10.265625 L65.2519531,16 L63.9472656,16 Z M63.2441406,13.625 C62.8613262,12.393223 62.6458336,11.6966154 62.5976562,11.5351562 C62.5494789,11.3736971 62.5149741,11.2460942 62.4941406,11.1523438 C62.4082027,11.4856787 62.1621114,12.3098893 61.7558594,13.625 L63.2441406,13.625 Z M71.7714844,16 L67.5214844,16 L67.5214844,15.2148438 L70.2597656,11.2890625 L67.5957031,11.2890625 L67.5957031,10.2890625 L71.6972656,10.2890625 L71.6972656,11.0703125 L68.9628906,15 L71.7714844,15 L71.7714844,16 Z M76.1777344,16 L75.7636719,14.640625 L73.6816406,14.640625 L73.2675781,16 L71.9628906,16 L73.9785156,10.265625 L75.4589844,10.265625 L77.4824219,16 L76.1777344,16 Z M75.4746094,13.625 C75.091795,12.393223 74.8763023,11.6966154 74.828125,11.5351562 C74.7799477,11.3736971 74.7454428,11.2460942 74.7246094,11.1523438 C74.6386714,11.4856787 74.3925802,12.3098893 73.9863281,13.625 L75.4746094,13.625 Z M79.4121094,12.8242188 L79.8027344,12.8242188 C80.1855488,12.8242188 80.468098,12.7604173 80.6503906,12.6328125 C80.8326832,12.5052077 80.9238281,12.3046889 80.9238281,12.03125 C80.9238281,11.7604153 80.8307301,11.5677089 80.6445312,11.453125 C80.4583324,11.3385411 80.1699238,11.28125 79.7792969,11.28125 L79.4121094,11.28125 L79.4121094,12.8242188 Z M79.4121094,13.8085938 L79.4121094,16 L78.2011719,16 L78.2011719,10.2890625 L79.8652344,10.2890625 C80.6412799,10.2890625 81.2154929,10.4303371 81.5878906,10.7128906 C81.9602883,10.9954441 82.1464844,11.4244763 82.1464844,12 C82.1464844,12.3359392 82.0540374,12.6347643 81.8691406,12.8964844 C81.6842439,13.1582044 81.4225277,13.3632805 81.0839844,13.5117188 C81.9433637,14.7955793 82.5032539,15.6249981 82.7636719,16 L81.4199219,16 L80.0566406,13.8085938 L79.4121094,13.8085938 Z M85.9082031,11.2148438 C85.4524717,11.2148438 85.0996106,11.386066 84.8496094,11.7285156 C84.5996081,12.0709653 84.4746094,12.548174 84.4746094,13.1601562 C84.4746094,14.4336001 84.9524692,15.0703125 85.9082031,15.0703125 C86.3092468,15.0703125 86.794919,14.9700531 87.3652344,14.7695312 L87.3652344,15.7851562 C86.896482,15.9804697 86.3730498,16.078125 85.7949219,16.078125 C84.9641886,16.078125 84.3287782,15.8261744 83.8886719,15.3222656 C83.4485655,14.8183569 83.2285156,14.0950568 83.2285156,13.1523438 C83.2285156,12.5585908 83.3365875,12.0384137 83.5527344,11.5917969 C83.7688813,11.1451801 84.0794251,10.8027356 84.484375,10.5644531 C84.8893249,10.3261707 85.3639296,10.2070312 85.9082031,10.2070312 C86.4628934,10.2070312 87.0201795,10.3411445 87.5800781,10.609375 L87.1894531,11.59375 C86.9759104,11.492187 86.7610688,11.4036462 86.5449219,11.328125 C86.328775,11.2526038 86.1165375,11.2148438 85.9082031,11.2148438 Z M92.0761719,16 L91.6621094,14.640625 L89.5800781,14.640625 L89.1660156,16 L87.8613281,16 L89.8769531,10.265625 L91.3574219,10.265625 L93.3808594,16 L92.0761719,16 Z M91.3730469,13.625 C90.9902325,12.393223 90.7747398,11.6966154 90.7265625,11.5351562 C90.6783852,11.3736971 90.6438803,11.2460942 90.6230469,11.1523438 C90.5371089,11.4856787 90.2910177,12.3098893 89.8847656,13.625 L91.3730469,13.625 Z M97.4707031,14.4140625 C97.4707031,14.9296901 97.2851581,15.335936 96.9140625,15.6328125 C96.5429669,15.929689 96.026696,16.078125 95.3652344,16.078125 C94.7558563,16.078125 94.2167992,15.9635428 93.7480469,15.734375 L93.7480469,14.609375 C94.1334655,14.7812509 94.4596341,14.9023434 94.7265625,14.9726562 C94.9934909,15.0429691 95.2376291,15.078125 95.4589844,15.078125 C95.7246107,15.078125 95.9283847,15.0273443 96.0703125,14.9257812 C96.2122403,14.8242182 96.2832031,14.6731781 96.2832031,14.4726562 C96.2832031,14.3606765 96.2519534,14.2610681 96.1894531,14.1738281 C96.1269528,14.0865881 96.0351569,14.0026046 95.9140625,13.921875 C95.7929681,13.8411454 95.5462258,13.7122405 95.1738281,13.5351562 C94.824868,13.3710929 94.5631519,13.2135424 94.3886719,13.0625 C94.2141918,12.9114576 94.0748703,12.7356781 93.9707031,12.5351562 C93.8665359,12.3346344 93.8144531,12.1002618 93.8144531,11.8320312 C93.8144531,11.3268204 93.9856754,10.9296889 94.328125,10.640625 C94.6705746,10.3515611 95.1438772,10.2070312 95.7480469,10.2070312 C96.0449234,10.2070312 96.3281237,10.2421871 96.5976562,10.3125 C96.8671888,10.3828129 97.1490871,10.4817702 97.4433594,10.609375 L97.0527344,11.5507812 C96.7480454,11.4257806 96.4960947,11.3385419 96.296875,11.2890625 C96.0976553,11.2395831 95.9016937,11.2148438 95.7089844,11.2148438 C95.4798166,11.2148438 95.3040371,11.2682286 95.1816406,11.375 C95.0592442,11.4817714 94.9980469,11.6210929 94.9980469,11.7929688 C94.9980469,11.8997401 95.0227862,11.9928381 95.0722656,12.0722656 C95.121745,12.1516931 95.2005203,12.2285153 95.3085938,12.3027344 C95.4166672,12.3769535 95.672524,12.5104157 96.0761719,12.703125 C96.6100287,12.9583346 96.9759105,13.2141914 97.1738281,13.4707031 C97.3717458,13.7272148 97.4707031,14.0416648 97.4707031,14.4140625 Z" id="viejo-agua-zarcas" fill="#FFFFFF"></path>
            </g>
        </g>
    </g>
</svg>