<?xml version="1.0" encoding="UTF-8"?>
<svg width="65px" height="27px" viewBox="0 0 65 27" version="1.1" xmlns="http://www.w3.org/2000/svg" xmlns:xlink="http://www.w3.org/1999/xlink">
    <!-- Generator: Sketch 48.2 (47327) - http://www.bohemiancoding.com/sketch -->
    <title>zarcero</title>
    <desc>Created with Sketch.</desc>
    <defs>
        <path d="M17.8208049,6 C16.6655751,7.89393294 16,10.1192398 16,12.5 C16,15.3140148 16.9298621,17.9108487 18.4990845,20 L7,20 C3.13400675,20 4.73447626e-16,16.8659932 0,13 C-4.73447626e-16,9.13400675 3.13400675,6 7,6 L17.8208049,6 Z M39.1791951,6 L50,6 C53.8659932,6 57,9.13400675 57,13 C57,16.8659932 53.8659932,20 50,20 L38.5009155,20 C40.0701379,17.9108487 41,15.3140148 41,12.5 C41,10.1192398 40.3344249,7.89393294 39.1791951,6 Z" id="path-1"></path>
        <filter x="-11.4%" y="-39.3%" width="122.8%" height="192.9%" filterUnits="objectBoundingBox" id="filter-2">
            <feOffset dx="0" dy="1" in="SourceAlpha" result="shadowOffsetOuter1"></feOffset>
            <feGaussianBlur stdDeviation="2" in="shadowOffsetOuter1" result="shadowBlurOuter1"></feGaussianBlur>
            <feColorMatrix values="0 0 0 0 0   0 0 0 0 0   0 0 0 0 0  0 0 0 0.5 0" type="matrix" in="shadowBlurOuter1"></feColorMatrix>
        </filter>
    </defs>
    <g id="Volcanes-fallas" stroke="none" stroke-width="1" fill="none" fill-rule="evenodd">
        <g id="zarcero" transform="translate(4.000000, 1.000000)">
            <g id="ic_volcano_label-copy-19">
                <g id="Group-Copy-3" transform="translate(16.000000, 0.000000)">
                    <g id="Group-26-Copy-4"></g>
                </g>
                <circle id="Oval-2-Copy-5" stroke="#FFFFFF" stroke-width="0.5" fill="#FF6D00" cx="28.5" cy="12.5" r="12.5"></circle>
                <g id="Combined-Shape">
                    <use fill="black" fill-opacity="1" filter="url(#filter-2)" xlink:href="#path-1"></use>
                    <use fill="#263238" fill-rule="evenodd" xlink:href="#path-1"></use>
                </g>
                <rect id="Rectangle-2-Copy-4" fill="#263238" x="0" y="6" width="57" height="14" rx="7"></rect>
            </g>
            <path d="M14.6113281,16 L10.3613281,16 L10.3613281,15.2148438 L13.0996094,11.2890625 L10.4355469,11.2890625 L10.4355469,10.2890625 L14.5371094,10.2890625 L14.5371094,11.0703125 L11.8027344,15 L14.6113281,15 L14.6113281,16 Z M19.0175781,16 L18.6035156,14.640625 L16.5214844,14.640625 L16.1074219,16 L14.8027344,16 L16.8183594,10.265625 L18.2988281,10.265625 L20.3222656,16 L19.0175781,16 Z M18.3144531,13.625 C17.9316387,12.393223 17.7161461,11.6966154 17.6679688,11.5351562 C17.6197914,11.3736971 17.5852866,11.2460942 17.5644531,11.1523438 C17.4785152,11.4856787 17.2324239,12.3098893 16.8261719,13.625 L18.3144531,13.625 Z M22.2519531,12.8242188 L22.6425781,12.8242188 C23.0253925,12.8242188 23.3079418,12.7604173 23.4902344,12.6328125 C23.672527,12.5052077 23.7636719,12.3046889 23.7636719,12.03125 C23.7636719,11.7604153 23.6705738,11.5677089 23.484375,11.453125 C23.2981762,11.3385411 23.0097676,11.28125 22.6191406,11.28125 L22.2519531,11.28125 L22.2519531,12.8242188 Z M22.2519531,13.8085938 L22.2519531,16 L21.0410156,16 L21.0410156,10.2890625 L22.7050781,10.2890625 C23.4811237,10.2890625 24.0553367,10.4303371 24.4277344,10.7128906 C24.8001321,10.9954441 24.9863281,11.4244763 24.9863281,12 C24.9863281,12.3359392 24.8938811,12.6347643 24.7089844,12.8964844 C24.5240876,13.1582044 24.2623715,13.3632805 23.9238281,13.5117188 C24.7832074,14.7955793 25.3430977,15.6249981 25.6035156,16 L24.2597656,16 L22.8964844,13.8085938 L22.2519531,13.8085938 Z M28.7480469,11.2148438 C28.2923154,11.2148438 27.9394544,11.386066 27.6894531,11.7285156 C27.4394519,12.0709653 27.3144531,12.548174 27.3144531,13.1601562 C27.3144531,14.4336001 27.7923129,15.0703125 28.7480469,15.0703125 C29.1490905,15.0703125 29.6347628,14.9700531 30.2050781,14.7695312 L30.2050781,15.7851562 C29.7363258,15.9804697 29.2128935,16.078125 28.6347656,16.078125 C27.8040323,16.078125 27.168622,15.8261744 26.7285156,15.3222656 C26.2884093,14.8183569 26.0683594,14.0950568 26.0683594,13.1523438 C26.0683594,12.5585908 26.1764312,12.0384137 26.3925781,11.5917969 C26.608725,11.1451801 26.9192688,10.8027356 27.3242188,10.5644531 C27.7291687,10.3261707 28.2037733,10.2070312 28.7480469,10.2070312 C29.3027371,10.2070312 29.8600232,10.3411445 30.4199219,10.609375 L30.0292969,11.59375 C29.8157541,11.492187 29.6009125,11.4036462 29.3847656,11.328125 C29.1686187,11.2526038 28.9563812,11.2148438 28.7480469,11.2148438 Z M34.7089844,16 L31.4199219,16 L31.4199219,10.2890625 L34.7089844,10.2890625 L34.7089844,11.28125 L32.6308594,11.28125 L32.6308594,12.5351562 L34.5644531,12.5351562 L34.5644531,13.5273438 L32.6308594,13.5273438 L32.6308594,15 L34.7089844,15 L34.7089844,16 Z M37.1113281,12.8242188 L37.5019531,12.8242188 C37.8847675,12.8242188 38.1673168,12.7604173 38.3496094,12.6328125 C38.531902,12.5052077 38.6230469,12.3046889 38.6230469,12.03125 C38.6230469,11.7604153 38.5299488,11.5677089 38.34375,11.453125 C38.1575512,11.3385411 37.8691426,11.28125 37.4785156,11.28125 L37.1113281,11.28125 L37.1113281,12.8242188 Z M37.1113281,13.8085938 L37.1113281,16 L35.9003906,16 L35.9003906,10.2890625 L37.5644531,10.2890625 C38.3404987,10.2890625 38.9147117,10.4303371 39.2871094,10.7128906 C39.6595071,10.9954441 39.8457031,11.4244763 39.8457031,12 C39.8457031,12.3359392 39.7532561,12.6347643 39.5683594,12.8964844 C39.3834626,13.1582044 39.1217465,13.3632805 38.7832031,13.5117188 C39.6425824,14.7955793 40.2024727,15.6249981 40.4628906,16 L39.1191406,16 L37.7558594,13.8085938 L37.1113281,13.8085938 Z M46.3652344,13.1367188 C46.3652344,14.082036 46.1308617,14.8085912 45.6621094,15.3164062 C45.193357,15.8242213 44.5214887,16.078125 43.6464844,16.078125 C42.77148,16.078125 42.0996117,15.8242213 41.6308594,15.3164062 C41.162107,14.8085912 40.9277344,14.0794318 40.9277344,13.1289062 C40.9277344,12.1783807 41.1627581,11.4524765 41.6328125,10.9511719 C42.1028669,10.4498673 42.7766883,10.1992188 43.6542969,10.1992188 C44.5319054,10.1992188 45.2031227,10.4518204 45.6679688,10.9570312 C46.1328148,11.4622421 46.3652344,12.1887973 46.3652344,13.1367188 Z M42.1972656,13.1367188 C42.1972656,13.7747428 42.3183582,14.2552067 42.5605469,14.578125 C42.8027356,14.9010433 43.1647111,15.0625 43.6464844,15.0625 C44.612635,15.0625 45.0957031,14.4205793 45.0957031,13.1367188 C45.0957031,11.850254 44.6152392,11.2070312 43.6542969,11.2070312 C43.1725236,11.2070312 42.809246,11.369139 42.5644531,11.6933594 C42.3196602,12.0175797 42.1972656,12.4986947 42.1972656,13.1367188 Z" fill="#FFFFFF"></path>
        </g>
    </g>
</svg>