<?xml version="1.0" encoding="UTF-8"?>
<svg width="124px" height="27px" viewBox="0 0 124 27" version="1.1" xmlns="http://www.w3.org/2000/svg" xmlns:xlink="http://www.w3.org/1999/xlink">
    <!-- Generator: Sketch 48.2 (47327) - http://www.bohemiancoding.com/sketch -->
    <title>zona_fractura</title>
    <desc>Created with Sketch.</desc>
    <defs>
        <path d="M49.6023083,6 C48.5857061,7.89393294 48,10.1192398 48,12.5 C48,15.3140148 48.8182786,17.9108487 50.1991944,20 L9,20 C5.13400675,20 2,16.8659932 2,13 C2,9.13400675 5.13400675,6 9,6 L49.6023083,6 Z M68.3976917,6 L109,6 C112.865993,6 116,9.13400675 116,13 C116,16.8659932 112.865993,20 109,20 L67.8008056,20 C69.1817214,17.9108487 70,15.3140148 70,12.5 C70,10.1192398 69.4142939,7.89393294 68.3976917,6 Z" id="path-1"></path>
        <filter x="-5.7%" y="-39.3%" width="111.4%" height="192.9%" filterUnits="objectBoundingBox" id="filter-2">
            <feOffset dx="0" dy="1" in="SourceAlpha" result="shadowOffsetOuter1"></feOffset>
            <feGaussianBlur stdDeviation="2" in="shadowOffsetOuter1" result="shadowBlurOuter1"></feGaussianBlur>
            <feColorMatrix values="0 0 0 0 0   0 0 0 0 0   0 0 0 0 0  0 0 0 0.5 0" type="matrix" in="shadowBlurOuter1"></feColorMatrix>
        </filter>
        <rect id="path-3" x="0" y="6" width="116" height="14" rx="7"></rect>
        <filter x="-5.6%" y="-39.3%" width="111.2%" height="192.9%" filterUnits="objectBoundingBox" id="filter-4">
            <feOffset dx="0" dy="1" in="SourceAlpha" result="shadowOffsetOuter1"></feOffset>
            <feGaussianBlur stdDeviation="2" in="shadowOffsetOuter1" result="shadowBlurOuter1"></feGaussianBlur>
            <feColorMatrix values="0 0 0 0 0   0 0 0 0 0   0 0 0 0 0  0 0 0 0.5 0" type="matrix" in="shadowBlurOuter1"></feColorMatrix>
        </filter>
    </defs>
    <g id="Volcanes-fallas" stroke="none" stroke-width="1" fill="none" fill-rule="evenodd">
        <g id="zona_fractura" transform="translate(4.000000, 1.000000)">
            <g id="ic_volcano_label-copy-18">
                <g id="Group-Copy-3">
                    <g id="Group-26-Copy-4" transform="translate(47.000000, 0.000000)" fill="#FF6D00" stroke="#FFFFFF" stroke-width="0.5">
                        <circle id="Oval-2-Copy-5" cx="12.5" cy="12.5" r="12.5"></circle>
                    </g>
                    <g id="Combined-Shape">
                        <use fill="black" fill-opacity="1" filter="url(#filter-2)" xlink:href="#path-1"></use>
                        <use fill="#263238" fill-rule="evenodd" xlink:href="#path-1"></use>
                    </g>
                    <g id="Rectangle-2-Copy-4">
                        <use fill="black" fill-opacity="1" filter="url(#filter-4)" xlink:href="#path-3"></use>
                        <use fill="#263238" fill-rule="evenodd" xlink:href="#path-3"></use>
                    </g>
                </g>
                <path d="M10.4707031,16 L6.22070312,16 L6.22070312,15.2148438 L8.95898438,11.2890625 L6.29492188,11.2890625 L6.29492188,10.2890625 L10.3964844,10.2890625 L10.3964844,11.0703125 L7.66210938,15 L10.4707031,15 L10.4707031,16 Z M16.4863281,13.1367188 C16.4863281,14.082036 16.2519555,14.8085912 15.7832031,15.3164062 C15.3144508,15.8242213 14.6425825,16.078125 13.7675781,16.078125 C12.8925738,16.078125 12.2207055,15.8242213 11.7519531,15.3164062 C11.2832008,14.8085912 11.0488281,14.0794318 11.0488281,13.1289062 C11.0488281,12.1783807 11.2838518,11.4524765 11.7539063,10.9511719 C12.2239607,10.4498673 12.8977821,10.1992188 13.7753906,10.1992188 C14.6529992,10.1992188 15.3242164,10.4518204 15.7890625,10.9570312 C16.2539086,11.4622421 16.4863281,12.1887973 16.4863281,13.1367188 Z M12.3183594,13.1367188 C12.3183594,13.7747428 12.4394519,14.2552067 12.6816406,14.578125 C12.9238293,14.9010433 13.2858049,15.0625 13.7675781,15.0625 C14.7337288,15.0625 15.2167969,14.4205793 15.2167969,13.1367188 C15.2167969,11.850254 14.7363329,11.2070312 13.7753906,11.2070312 C13.2936174,11.2070312 12.9303398,11.369139 12.6855469,11.6933594 C12.440754,12.0175797 12.3183594,12.4986947 12.3183594,13.1367188 Z M22.7363281,16 L21.1972656,16 L18.7128906,11.6796875 L18.6777344,11.6796875 C18.7272138,12.4427121 18.7519531,12.9869775 18.7519531,13.3125 L18.7519531,16 L17.6699219,16 L17.6699219,10.2890625 L19.1972656,10.2890625 L21.6777344,14.5664062 L21.7050781,14.5664062 C21.6660154,13.824215 21.6464844,13.2994807 21.6464844,12.9921875 L21.6464844,10.2890625 L22.7363281,10.2890625 L22.7363281,16 Z M27.6699219,16 L27.2558594,14.640625 L25.1738281,14.640625 L24.7597656,16 L23.4550781,16 L25.4707031,10.265625 L26.9511719,10.265625 L28.9746094,16 L27.6699219,16 Z M26.9667969,13.625 C26.5839825,12.393223 26.3684898,11.6966154 26.3203125,11.5351562 C26.2721352,11.3736971 26.2376303,11.2460942 26.2167969,11.1523438 C26.1308589,11.4856787 25.8847677,12.3098893 25.4785156,13.625 L26.9667969,13.625 Z M32.9628906,16 L31.7714844,16 L31.7714844,10.2890625 L35.0449219,10.2890625 L35.0449219,11.28125 L32.9628906,11.28125 L32.9628906,12.7539062 L34.9003906,12.7539062 L34.9003906,13.7421875 L32.9628906,13.7421875 L32.9628906,16 Z M37.3730469,12.8242188 L37.7636719,12.8242188 C38.1464863,12.8242188 38.4290355,12.7604173 38.6113281,12.6328125 C38.7936207,12.5052077 38.8847656,12.3046889 38.8847656,12.03125 C38.8847656,11.7604153 38.7916676,11.5677089 38.6054688,11.453125 C38.4192699,11.3385411 38.1308613,11.28125 37.7402344,11.28125 L37.3730469,11.28125 L37.3730469,12.8242188 Z M37.3730469,13.8085938 L37.3730469,16 L36.1621094,16 L36.1621094,10.2890625 L37.8261719,10.2890625 C38.6022174,10.2890625 39.1764304,10.4303371 39.5488281,10.7128906 C39.9212258,10.9954441 40.1074219,11.4244763 40.1074219,12 C40.1074219,12.3359392 40.0149749,12.6347643 39.8300781,12.8964844 C39.6451814,13.1582044 39.3834652,13.3632805 39.0449219,13.5117188 C39.9043012,14.7955793 40.4641914,15.6249981 40.7246094,16 L39.3808594,16 L38.0175781,13.8085938 L37.3730469,13.8085938 Z M44.9394531,16 L44.5253906,14.640625 L42.4433594,14.640625 L42.0292969,16 L40.7246094,16 L42.7402344,10.265625 L44.2207031,10.265625 L46.2441406,16 L44.9394531,16 Z M44.2363281,13.625 C43.8535137,12.393223 43.6380211,11.6966154 43.5898438,11.5351562 C43.5416664,11.3736971 43.5071616,11.2460942 43.4863281,11.1523438 C43.4003902,11.4856787 43.1542989,12.3098893 42.7480469,13.625 L44.2363281,13.625 Z M49.2285156,11.2148438 C48.7727842,11.2148438 48.4199231,11.386066 48.1699219,11.7285156 C47.9199206,12.0709653 47.7949219,12.548174 47.7949219,13.1601562 C47.7949219,14.4336001 48.2727817,15.0703125 49.2285156,15.0703125 C49.6295593,15.0703125 50.1152315,14.9700531 50.6855469,14.7695312 L50.6855469,15.7851562 C50.2167945,15.9804697 49.6933623,16.078125 49.1152344,16.078125 C48.2845011,16.078125 47.6490907,15.8261744 47.2089844,15.3222656 C46.768878,14.8183569 46.5488281,14.0950568 46.5488281,13.1523438 C46.5488281,12.5585908 46.6569,12.0384137 46.8730469,11.5917969 C47.0891938,11.1451801 47.3997376,10.8027356 47.8046875,10.5644531 C48.2096374,10.3261707 48.6842421,10.2070312 49.2285156,10.2070312 C49.7832059,10.2070312 50.340492,10.3411445 50.9003906,10.609375 L50.5097656,11.59375 C50.2962229,11.492187 50.0813813,11.4036462 49.8652344,11.328125 C49.6490875,11.2526038 49.43685,11.2148438 49.2285156,11.2148438 Z M54.1035156,16 L52.8925781,16 L52.8925781,11.296875 L51.3417969,11.296875 L51.3417969,10.2890625 L55.6542969,10.2890625 L55.6542969,11.296875 L54.1035156,11.296875 L54.1035156,16 Z M61.1816406,10.2890625 L61.1816406,13.984375 C61.1816406,14.4062521 61.0872405,14.7760401 60.8984375,15.09375 C60.7096345,15.4114599 60.4368507,15.6549471 60.0800781,15.8242188 C59.7233055,15.9934904 59.3014347,16.078125 58.8144531,16.078125 C58.0800745,16.078125 57.5097677,15.8899758 57.1035156,15.5136719 C56.6972636,15.1373679 56.4941406,14.6223991 56.4941406,13.96875 L56.4941406,10.2890625 L57.7011719,10.2890625 L57.7011719,13.7851562 C57.7011719,14.2252626 57.7897127,14.5481761 57.9667969,14.7539062 C58.1438811,14.9596364 58.4368469,15.0625 58.8457031,15.0625 C59.2415384,15.0625 59.5286449,14.9589854 59.7070312,14.7519531 C59.8854176,14.5449208 59.9746094,14.2200543 59.9746094,13.7773438 L59.9746094,10.2890625 L61.1816406,10.2890625 Z M63.7910156,12.8242188 L64.1816406,12.8242188 C64.564455,12.8242188 64.8470043,12.7604173 65.0292969,12.6328125 C65.2115895,12.5052077 65.3027344,12.3046889 65.3027344,12.03125 C65.3027344,11.7604153 65.2096363,11.5677089 65.0234375,11.453125 C64.8372387,11.3385411 64.5488301,11.28125 64.1582031,11.28125 L63.7910156,11.28125 L63.7910156,12.8242188 Z M63.7910156,13.8085938 L63.7910156,16 L62.5800781,16 L62.5800781,10.2890625 L64.2441406,10.2890625 C65.0201862,10.2890625 65.5943992,10.4303371 65.9667969,10.7128906 C66.3391946,10.9954441 66.5253906,11.4244763 66.5253906,12 C66.5253906,12.3359392 66.4329436,12.6347643 66.2480469,12.8964844 C66.0631501,13.1582044 65.801434,13.3632805 65.4628906,13.5117188 C66.3222699,14.7955793 66.8821602,15.6249981 67.1425781,16 L65.7988281,16 L64.4355469,13.8085938 L63.7910156,13.8085938 Z M71.3574219,16 L70.9433594,14.640625 L68.8613281,14.640625 L68.4472656,16 L67.1425781,16 L69.1582031,10.265625 L70.6386719,10.265625 L72.6621094,16 L71.3574219,16 Z M70.6542969,13.625 C70.2714825,12.393223 70.0559898,11.6966154 70.0078125,11.5351562 C69.9596352,11.3736971 69.9251303,11.2460942 69.9042969,11.1523438 C69.8183589,11.4856787 69.5722677,12.3098893 69.1660156,13.625 L70.6542969,13.625 Z M76.6699219,12.9765625 L77.0683594,12.9765625 C77.4407571,12.9765625 77.7194001,12.9029955 77.9042969,12.7558594 C78.0891936,12.6087232 78.1816406,12.3945327 78.1816406,12.1132812 C78.1816406,11.8294257 78.1041674,11.6197923 77.9492188,11.484375 C77.7942701,11.3489577 77.5514339,11.28125 77.2207031,11.28125 L76.6699219,11.28125 L76.6699219,12.9765625 Z M79.4042969,12.0703125 C79.4042969,12.6848989 79.2122415,13.1549463 78.828125,13.4804688 C78.4440085,13.8059912 77.89779,13.96875 77.1894531,13.96875 L76.6699219,13.96875 L76.6699219,16 L75.4589844,16 L75.4589844,10.2890625 L77.2832031,10.2890625 C77.9759149,10.2890625 78.5026024,10.4381496 78.8632812,10.7363281 C79.2239601,11.0345067 79.4042969,11.4791637 79.4042969,12.0703125 Z M83.5800781,16 L83.1660156,14.640625 L81.0839844,14.640625 L80.6699219,16 L79.3652344,16 L81.3808594,10.265625 L82.8613281,10.265625 L84.8847656,16 L83.5800781,16 Z M82.8769531,13.625 C82.4941387,12.393223 82.2786461,11.6966154 82.2304688,11.5351562 C82.1822914,11.3736971 82.1477866,11.2460942 82.1269531,11.1523438 C82.0410152,11.4856787 81.7949239,12.3098893 81.3886719,13.625 L82.8769531,13.625 Z M90.6699219,16 L89.1308594,16 L86.6464844,11.6796875 L86.6113281,11.6796875 C86.6608075,12.4427121 86.6855469,12.9869775 86.6855469,13.3125 L86.6855469,16 L85.6035156,16 L85.6035156,10.2890625 L87.1308594,10.2890625 L89.6113281,14.5664062 L89.6386719,14.5664062 C89.5996092,13.824215 89.5800781,13.2994807 89.5800781,12.9921875 L89.5800781,10.2890625 L90.6699219,10.2890625 L90.6699219,16 Z M95.6035156,16 L95.1894531,14.640625 L93.1074219,14.640625 L92.6933594,16 L91.3886719,16 L93.4042969,10.265625 L94.8847656,10.265625 L96.9082031,16 L95.6035156,16 Z M94.9003906,13.625 C94.5175762,12.393223 94.3020836,11.6966154 94.2539062,11.5351562 C94.2057289,11.3736971 94.1712241,11.2460942 94.1503906,11.1523438 C94.0644527,11.4856787 93.8183614,12.3098893 93.4121094,13.625 L94.9003906,13.625 Z M100.044922,16 L98.6699219,11.5195312 L98.6347656,11.5195312 C98.684245,12.4309941 98.7089844,13.039061 98.7089844,13.34375 L98.7089844,16 L97.6269531,16 L97.6269531,10.2890625 L99.2753906,10.2890625 L100.626953,14.65625 L100.650391,14.65625 L102.083984,10.2890625 L103.732422,10.2890625 L103.732422,16 L102.603516,16 L102.603516,13.296875 C102.603516,13.1692702 102.605469,13.0221362 102.609375,12.8554688 C102.613281,12.6888013 102.630859,12.2460973 102.662109,11.5273438 L102.626953,11.5273438 L101.154297,16 L100.044922,16 Z M108.666016,16 L108.251953,14.640625 L106.169922,14.640625 L105.755859,16 L104.451172,16 L106.466797,10.265625 L107.947266,10.265625 L109.970703,16 L108.666016,16 Z M107.962891,13.625 C107.580076,12.393223 107.364584,11.6966154 107.316406,11.5351562 C107.268229,11.3736971 107.233724,11.2460942 107.212891,11.1523438 C107.126953,11.4856787 106.880861,12.3098893 106.474609,13.625 L107.962891,13.625 Z M106.564453,9.83203125 L106.564453,9.7265625 C107.012372,9.20572656 107.318359,8.8138034 107.482422,8.55078125 L108.818359,8.55078125 L108.818359,8.6328125 C108.682942,8.76822984 108.451825,8.96939971 108.125,9.23632812 C107.798175,9.50325654 107.542319,9.70182227 107.357422,9.83203125 L106.564453,9.83203125 Z" id="zona-fractura-panamá" fill="#FFFFFF"></path>
            </g>
        </g>
    </g>
</svg>