<?xml version="1.0" encoding="UTF-8"?>
<svg width="124px" height="27px" viewBox="0 0 124 27" version="1.1" xmlns="http://www.w3.org/2000/svg" xmlns:xlink="http://www.w3.org/1999/xlink">
    <!-- Generator: Sketch 48.2 (47327) - http://www.bohemiancoding.com/sketch -->
    <title>zona_fractura</title>
    <desc>Created with Sketch.</desc>
    <defs>
        <path d="M49.6023083,6 C48.5857061,7.89393294 48,10.1192398 48,12.5 C48,15.3140148 48.8182786,17.9108487 50.1991944,20 L9,20 C5.13400675,20 2,16.8659932 2,13 C2,9.13400675 5.13400675,6 9,6 L49.6023083,6 Z M68.3976917,6 L109,6 C112.865993,6 116,9.13400675 116,13 C116,16.8659932 112.865993,20 109,20 L67.8008056,20 C69.1817214,17.9108487 70,15.3140148 70,12.5 C70,10.1192398 69.4142939,7.89393294 68.3976917,6 Z" id="path-1"></path>
        <filter x="-5.7%" y="-39.3%" width="111.4%" height="192.9%" filterUnits="objectBoundingBox" id="filter-2">
            <feOffset dx="0" dy="1" in="SourceAlpha" result="shadowOffsetOuter1"></feOffset>
            <feGaussianBlur stdDeviation="2" in="shadowOffsetOuter1" result="shadowBlurOuter1"></feGaussianBlur>
            <feColorMatrix values="0 0 0 0 0   0 0 0 0 0   0 0 0 0 0  0 0 0 0.5 0" type="matrix" in="shadowBlurOuter1"></feColorMatrix>
        </filter>
        <rect id="path-3" x="0" y="6" width="116" height="14" rx="7"></rect>
        <filter x="-5.6%" y="-39.3%" width="111.2%" height="192.9%" filterUnits="objectBoundingBox" id="filter-4">
            <feOffset dx="0" dy="1" in="SourceAlpha" result="shadowOffsetOuter1"></feOffset>
            <feGaussianBlur stdDeviation="2" in="shadowOffsetOuter1" result="shadowBlurOuter1"></feGaussianBlur>
            <feColorMatrix values="0 0 0 0 0   0 0 0 0 0   0 0 0 0 0  0 0 0 0.5 0" type="matrix" in="shadowBlurOuter1"></feColorMatrix>
        </filter>
    </defs>
    <g id="Volcanes-fallas" stroke="none" stroke-width="1" fill="none" fill-rule="evenodd">
        <g id="zona_fractura" transform="translate(4.000000, 1.000000)">
            <g id="ic_volcano_label-copy-18">
                <g id="Group-Copy-3">
                    <g id="Group-26-Copy-4" transform="translate(47.000000, 0.000000)" fill="#FF6D00" stroke="#FFFFFF" stroke-width="0.5">
                        <circle id="Oval-2-Copy-5" cx="12.5" cy="12.5" r="12.5"></circle>
                    </g>
                    <g id="Combined-Shape">
                        <use fill="black" fill-opacity="1" filter="url(#filter-2)" xlink:href="#path-1"></use>
                        <use fill="#263238" fill-rule="evenodd" xlink:href="#path-1"></use>
                    </g>
                    <g id="Rectangle-2-Copy-4">
                        <use fill="black" fill-opacity="1" filter="url(#filter-4)" xlink:href="#path-3"></use>
                        <use fill="#263238" fill-rule="evenodd" xlink:href="#path-3"></use>
                    </g>
                </g>
                <text id="zona-fractura-panamá" font-family="OpenSans-Bold, Open Sans" font-size="8" font-weight="bold" fill="#FFFFFF">
                    <tspan x="13.8378906" y="15">zona fractura panamá</tspan>
                </text>
            </g>
        </g>
    </g>
</svg>