<?xml version="1.0" encoding="UTF-8"?>
<svg width="65px" height="27px" viewBox="0 0 65 27" version="1.1" xmlns="http://www.w3.org/2000/svg" xmlns:xlink="http://www.w3.org/1999/xlink">
    <!-- Generator: Sketch 48.2 (47327) - http://www.bohemiancoding.com/sketch -->
    <title>zumbona</title>
    <desc>Created with Sketch.</desc>
    <defs>
        <path d="M17.8208049,6 C16.6655751,7.89393294 16,10.1192398 16,12.5 C16,15.3140148 16.9298621,17.9108487 18.4990845,20 L7,20 C3.13400675,20 4.73447626e-16,16.8659932 0,13 C-4.73447626e-16,9.13400675 3.13400675,6 7,6 L17.8208049,6 Z M39.1791951,6 L50,6 C53.8659932,6 57,9.13400675 57,13 C57,16.8659932 53.8659932,20 50,20 L38.5009155,20 C40.0701379,17.9108487 41,15.3140148 41,12.5 C41,10.1192398 40.3344249,7.89393294 39.1791951,6 Z" id="path-1"></path>
        <filter x="-11.4%" y="-39.3%" width="122.8%" height="192.9%" filterUnits="objectBoundingBox" id="filter-2">
            <feOffset dx="0" dy="1" in="SourceAlpha" result="shadowOffsetOuter1"></feOffset>
            <feGaussianBlur stdDeviation="2" in="shadowOffsetOuter1" result="shadowBlurOuter1"></feGaussianBlur>
            <feColorMatrix values="0 0 0 0 0   0 0 0 0 0   0 0 0 0 0  0 0 0 0.5 0" type="matrix" in="shadowBlurOuter1"></feColorMatrix>
        </filter>
    </defs>
    <g id="Volcanes-fallas" stroke="none" stroke-width="1" fill="none" fill-rule="evenodd">
        <g id="zumbona" transform="translate(4.000000, 1.000000)">
            <g id="ic_volcano_label-copy-19">
                <g id="Group-Copy-3" transform="translate(16.000000, 0.000000)">
                    <g id="Group-26-Copy-4"></g>
                </g>
                <circle id="Oval-2-Copy-5" stroke="#FFFFFF" stroke-width="0.5" fill="#FF6D00" cx="28.5" cy="12.5" r="12.5"></circle>
                <g id="Combined-Shape">
                    <use fill="black" fill-opacity="1" filter="url(#filter-2)" xlink:href="#path-1"></use>
                    <use fill="#263238" fill-rule="evenodd" xlink:href="#path-1"></use>
                </g>
                <rect id="Rectangle-2-Copy-4" fill="#263238" x="0" y="6" width="57" height="14" rx="7"></rect>
            </g>
            <path d="M11.9472656,16 L7.69726562,16 L7.69726562,15.2148438 L10.4355469,11.2890625 L7.77148438,11.2890625 L7.77148438,10.2890625 L11.8730469,10.2890625 L11.8730469,11.0703125 L9.13867188,15 L11.9472656,15 L11.9472656,16 Z M17.5058594,10.2890625 L17.5058594,13.984375 C17.5058594,14.4062521 17.4114593,14.7760401 17.2226562,15.09375 C17.0338532,15.4114599 16.7610695,15.6549471 16.4042969,15.8242188 C16.0475243,15.9934904 15.6256535,16.078125 15.1386719,16.078125 C14.4042932,16.078125 13.8339864,15.8899758 13.4277344,15.5136719 C13.0214823,15.1373679 12.8183594,14.6223991 12.8183594,13.96875 L12.8183594,10.2890625 L14.0253906,10.2890625 L14.0253906,13.7851562 C14.0253906,14.2252626 14.1139314,14.5481761 14.2910156,14.7539062 C14.4680998,14.9596364 14.7610657,15.0625 15.1699219,15.0625 C15.5657572,15.0625 15.8528637,14.9589854 16.03125,14.7519531 C16.2096363,14.5449208 16.2988281,14.2200543 16.2988281,13.7773438 L16.2988281,10.2890625 L17.5058594,10.2890625 Z M21.3222656,16 L19.9472656,11.5195312 L19.9121094,11.5195312 C19.9615888,12.4309941 19.9863281,13.039061 19.9863281,13.34375 L19.9863281,16 L18.9042969,16 L18.9042969,10.2890625 L20.5527344,10.2890625 L21.9042969,14.65625 L21.9277344,14.65625 L23.3613281,10.2890625 L25.0097656,10.2890625 L25.0097656,16 L23.8808594,16 L23.8808594,13.296875 C23.8808594,13.1692702 23.8828125,13.0221362 23.8867188,12.8554688 C23.890625,12.6888013 23.908203,12.2460973 23.9394531,11.5273438 L23.9042969,11.5273438 L22.4316406,16 L21.3222656,16 Z M26.4472656,10.2890625 L28.2246094,10.2890625 C29.0345093,10.2890625 29.622394,10.4042957 29.9882812,10.6347656 C30.3541685,10.8652355 30.5371094,11.2317683 30.5371094,11.734375 C30.5371094,12.0755225 30.4570321,12.3554677 30.296875,12.5742188 C30.1367179,12.7929698 29.9238295,12.9244789 29.6582031,12.96875 L29.6582031,13.0078125 C30.0201841,13.0885421 30.2812492,13.2395822 30.4414062,13.4609375 C30.6015633,13.6822928 30.6816406,13.9765607 30.6816406,14.34375 C30.6816406,14.8645859 30.4934915,15.2708319 30.1171875,15.5625 C29.7408835,15.8541681 29.2298209,16 28.5839844,16 L26.4472656,16 L26.4472656,10.2890625 Z M27.6582031,12.5507812 L28.3613281,12.5507812 C28.6894548,12.5507812 28.9270826,12.5000005 29.0742187,12.3984375 C29.2213549,12.2968745 29.2949219,12.1289074 29.2949219,11.8945312 C29.2949219,11.6757802 29.2148446,11.5188807 29.0546875,11.4238281 C28.8945304,11.3287756 28.6412778,11.28125 28.2949219,11.28125 L27.6582031,11.28125 L27.6582031,12.5507812 Z M27.6582031,13.5117188 L27.6582031,15 L28.4472656,15 C28.7806006,15 29.0266919,14.9361986 29.1855469,14.8085938 C29.3444018,14.6809889 29.4238281,14.4856784 29.4238281,14.2226562 C29.4238281,13.7486955 29.0852898,13.5117188 28.4082031,13.5117188 L27.6582031,13.5117188 Z M37.0058594,13.1367188 C37.0058594,14.082036 36.7714867,14.8085912 36.3027344,15.3164062 C35.833982,15.8242213 35.1621138,16.078125 34.2871094,16.078125 C33.412105,16.078125 32.7402367,15.8242213 32.2714844,15.3164062 C31.802732,14.8085912 31.5683594,14.0794318 31.5683594,13.1289062 C31.5683594,12.1783807 31.8033831,11.4524765 32.2734375,10.9511719 C32.7434919,10.4498673 33.4173133,10.1992188 34.2949219,10.1992188 C35.1725304,10.1992188 35.8437477,10.4518204 36.3085938,10.9570312 C36.7734398,11.4622421 37.0058594,12.1887973 37.0058594,13.1367188 Z M32.8378906,13.1367188 C32.8378906,13.7747428 32.9589832,14.2552067 33.2011719,14.578125 C33.4433606,14.9010433 33.8053361,15.0625 34.2871094,15.0625 C35.25326,15.0625 35.7363281,14.4205793 35.7363281,13.1367188 C35.7363281,11.850254 35.2558642,11.2070312 34.2949219,11.2070312 C33.8131486,11.2070312 33.449871,11.369139 33.2050781,11.6933594 C32.9602852,12.0175797 32.8378906,12.4986947 32.8378906,13.1367188 Z M43.2558594,16 L41.7167969,16 L39.2324219,11.6796875 L39.1972656,11.6796875 C39.246745,12.4427121 39.2714844,12.9869775 39.2714844,13.3125 L39.2714844,16 L38.1894531,16 L38.1894531,10.2890625 L39.7167969,10.2890625 L42.1972656,14.5664062 L42.2246094,14.5664062 C42.1855467,13.824215 42.1660156,13.2994807 42.1660156,12.9921875 L42.1660156,10.2890625 L43.2558594,10.2890625 L43.2558594,16 Z M48.1894531,16 L47.7753906,14.640625 L45.6933594,14.640625 L45.2792969,16 L43.9746094,16 L45.9902344,10.265625 L47.4707031,10.265625 L49.4941406,16 L48.1894531,16 Z M47.4863281,13.625 C47.1035137,12.393223 46.8880211,11.6966154 46.8398438,11.5351562 C46.7916664,11.3736971 46.7571616,11.2460942 46.7363281,11.1523438 C46.6503902,11.4856787 46.4042989,12.3098893 45.9980469,13.625 L47.4863281,13.625 Z" fill="#FFFFFF"></path>
        </g>
    </g>
</svg>